{
  "header": {
    "keySignatures": [],
    "meta": {
      "creator": "unknown",
      "title": "",
      "artist": ""
    },
    "name": "",
    "ppq": 120,
    "tempos": [
      {
        "bpm": 144.00023040036865,
        "ticks": 0
      }
    ],
    "timeSignatures": [
      {
        "ticks": 0,
        "timeSignature": [
          4,
          4
        ],
        "measures": 0
      },
      {
        "ticks": 33600,
        "timeSignature": [
          2,
          4
        ],
        "measures": 70
      },
      {
        "ticks": 33840,
        "timeSignature": [
          4,
          4
        ],
        "measures": 71
      },
      {
        "ticks": 42960,
        "timeSignature": [
          2,
          4
        ],
        "measures": 90
      },
      {
        "ticks": 43200,
        "timeSignature": [
          4,
          4
        ],
        "measures": 91
      }
    ]
  },
  "tracks": [
    {
      "channel": 0,
      "controlChanges": {},
      "pitchBends": [],
      "instrument": {
        "family": "piano",
        "number": 0,
        "name": "acoustic grand piano"
      },
      "name": "Soft karaoke",
      "notes": [],
      "endOfTrackTicks": 0
    },
    {
      "channel": 0,
      "controlChanges": {},
      "pitchBends": [],
      "instrument": {
        "family": "piano",
        "number": 0,
        "name": "acoustic grand piano"
      },
      "name": "Words",
      "notes": [],
      "endOfTrackTicks": 57560
    },
    {
      "channel": 0,
      "controlChanges": {
        "0": [
          {
            "number": 0,
            "ticks": 0,
            "time": 0,
            "value": 0
          }
        ],
        "7": [
          {
            "number": 7,
            "ticks": 0,
            "time": 0,
            "value": 1
          }
        ],
        "10": [
          {
            "number": 10,
            "ticks": 0,
            "time": 0,
            "value": 0.3700787401574803
          }
        ],
        "32": [
          {
            "number": 32,
            "ticks": 0,
            "time": 0,
            "value": 0
          }
        ],
        "91": [
          {
            "number": 91,
            "ticks": 0,
            "time": 0,
            "value": 0.7401574803149606
          }
        ],
        "93": [
          {
            "number": 93,
            "ticks": 0,
            "time": 0,
            "value": 0.7401574803149606
          }
        ]
      },
      "pitchBends": [],
      "instrument": {
        "family": "piano",
        "number": 0,
        "name": "acoustic grand piano"
      },
      "name": "",
      "notes": [],
      "endOfTrackTicks": 57624
    },
    {
      "channel": 0,
      "controlChanges": {},
      "pitchBends": [],
      "instrument": {
        "family": "bass",
        "number": 33,
        "name": "electric bass (finger)"
      },
      "name": "",
      "notes": [
        {
          "duration": 0.3437494499999998,
          "durationTicks": 99,
          "midi": 38,
          "name": "D2",
          "ticks": 960,
          "time": 3.333328,
          "velocity": 0.7322834645669292
        },
        {
          "duration": 0.3437494499999998,
          "durationTicks": 99,
          "midi": 38,
          "name": "D2",
          "ticks": 1080,
          "time": 3.749994,
          "velocity": 0.7716535433070866
        },
        {
          "duration": 0.3541660999999996,
          "durationTicks": 102,
          "midi": 38,
          "name": "D2",
          "ticks": 1200,
          "time": 4.16666,
          "velocity": 0.7716535433070866
        },
        {
          "duration": 0.3368050166666672,
          "durationTicks": 97,
          "midi": 38,
          "name": "D2",
          "ticks": 1320,
          "time": 4.583326,
          "velocity": 0.7716535433070866
        },
        {
          "duration": 0.3749994000000001,
          "durationTicks": 108,
          "midi": 38,
          "name": "D2",
          "ticks": 1440,
          "time": 4.999992,
          "velocity": 0.7322834645669292
        },
        {
          "duration": 0.347221666666667,
          "durationTicks": 100,
          "midi": 38,
          "name": "D2",
          "ticks": 1560,
          "time": 5.416658,
          "velocity": 0.84251968503937
        },
        {
          "duration": 0.4027771333333341,
          "durationTicks": 116,
          "midi": 31,
          "name": "G1",
          "ticks": 1680,
          "time": 5.833323999999999,
          "velocity": 0.84251968503937
        },
        {
          "duration": 0.4201382166666665,
          "durationTicks": 121,
          "midi": 29,
          "name": "F1",
          "ticks": 1800,
          "time": 6.2499899999999995,
          "velocity": 0.84251968503937
        },
        {
          "duration": 0.3263883666666674,
          "durationTicks": 94,
          "midi": 38,
          "name": "D2",
          "ticks": 1920,
          "time": 6.666656,
          "velocity": 0.8031496062992126
        },
        {
          "duration": 0.3368050166666663,
          "durationTicks": 97,
          "midi": 38,
          "name": "D2",
          "ticks": 2040,
          "time": 7.083322,
          "velocity": 0.7716535433070866
        },
        {
          "duration": 0.3472216666666661,
          "durationTicks": 100,
          "midi": 38,
          "name": "D2",
          "ticks": 2160,
          "time": 7.499988,
          "velocity": 0.7716535433070866
        },
        {
          "duration": 0.3368050166666663,
          "durationTicks": 97,
          "midi": 38,
          "name": "D2",
          "ticks": 2280,
          "time": 7.916653999999999,
          "velocity": 0.7716535433070866
        },
        {
          "duration": 0.3541661000000005,
          "durationTicks": 102,
          "midi": 38,
          "name": "D2",
          "ticks": 2400,
          "time": 8.33332,
          "velocity": 0.7716535433070866
        },
        {
          "duration": 0.4166659999999993,
          "durationTicks": 120,
          "midi": 38,
          "name": "D2",
          "ticks": 2520,
          "time": 8.749986,
          "velocity": 0.84251968503937
        },
        {
          "duration": 0.3958326999999997,
          "durationTicks": 114,
          "midi": 29,
          "name": "F1",
          "ticks": 2640,
          "time": 9.166652,
          "velocity": 0.84251968503937
        },
        {
          "duration": 0.3159717166666649,
          "durationTicks": 91,
          "midi": 36,
          "name": "C2",
          "ticks": 2760,
          "time": 9.583318,
          "velocity": 0.8031496062992126
        },
        {
          "duration": 0.3437494499999989,
          "durationTicks": 99,
          "midi": 38,
          "name": "D2",
          "ticks": 2880,
          "time": 9.999984,
          "velocity": 0.7322834645669292
        },
        {
          "duration": 0.3437494500000007,
          "durationTicks": 99,
          "midi": 38,
          "name": "D2",
          "ticks": 3000,
          "time": 10.416649999999999,
          "velocity": 0.7716535433070866
        },
        {
          "duration": 0.3541661000000005,
          "durationTicks": 102,
          "midi": 38,
          "name": "D2",
          "ticks": 3120,
          "time": 10.833316,
          "velocity": 0.7716535433070866
        },
        {
          "duration": 0.3368050166666663,
          "durationTicks": 97,
          "midi": 38,
          "name": "D2",
          "ticks": 3240,
          "time": 11.249982,
          "velocity": 0.7716535433070866
        },
        {
          "duration": 0.3749994000000001,
          "durationTicks": 108,
          "midi": 38,
          "name": "D2",
          "ticks": 3360,
          "time": 11.666647999999999,
          "velocity": 0.7322834645669292
        },
        {
          "duration": 0.3472216666666661,
          "durationTicks": 100,
          "midi": 38,
          "name": "D2",
          "ticks": 3480,
          "time": 12.083314,
          "velocity": 0.84251968503937
        },
        {
          "duration": 0.4027771333333323,
          "durationTicks": 116,
          "midi": 31,
          "name": "G1",
          "ticks": 3600,
          "time": 12.499979999999999,
          "velocity": 0.84251968503937
        },
        {
          "duration": 0.4201382166666665,
          "durationTicks": 121,
          "midi": 29,
          "name": "F1",
          "ticks": 3720,
          "time": 12.916646,
          "velocity": 0.84251968503937
        },
        {
          "duration": 0.3263883666666665,
          "durationTicks": 94,
          "midi": 38,
          "name": "D2",
          "ticks": 3840,
          "time": 13.333312,
          "velocity": 0.8031496062992126
        },
        {
          "duration": 0.3368050166666663,
          "durationTicks": 97,
          "midi": 38,
          "name": "D2",
          "ticks": 3960,
          "time": 13.749977999999999,
          "velocity": 0.7716535433070866
        },
        {
          "duration": 0.34722166666666787,
          "durationTicks": 100,
          "midi": 38,
          "name": "D2",
          "ticks": 4080,
          "time": 14.166644,
          "velocity": 0.7716535433070866
        },
        {
          "duration": 0.3368050166666663,
          "durationTicks": 97,
          "midi": 38,
          "name": "D2",
          "ticks": 4200,
          "time": 14.583309999999999,
          "velocity": 0.7716535433070866
        },
        {
          "duration": 0.3541661000000005,
          "durationTicks": 102,
          "midi": 38,
          "name": "D2",
          "ticks": 4320,
          "time": 14.999976,
          "velocity": 0.7716535433070866
        },
        {
          "duration": 0.4166659999999993,
          "durationTicks": 120,
          "midi": 38,
          "name": "D2",
          "ticks": 4440,
          "time": 15.416642,
          "velocity": 0.84251968503937
        },
        {
          "duration": 0.39583270000000326,
          "durationTicks": 114,
          "midi": 29,
          "name": "F1",
          "ticks": 4560,
          "time": 15.833307999999999,
          "velocity": 0.84251968503937
        },
        {
          "duration": 0.3159717166666667,
          "durationTicks": 91,
          "midi": 36,
          "name": "C2",
          "ticks": 4680,
          "time": 16.249973999999998,
          "velocity": 0.8031496062992126
        },
        {
          "duration": 0.3124994999999977,
          "durationTicks": 90,
          "midi": 38,
          "name": "D2",
          "ticks": 4800,
          "time": 16.66664,
          "velocity": 0.8031496062992126
        },
        {
          "duration": 0.3506938833333315,
          "durationTicks": 101,
          "midi": 38,
          "name": "D2",
          "ticks": 4920,
          "time": 17.083306,
          "velocity": 0.7007874015748031
        },
        {
          "duration": 0.3159717166666667,
          "durationTicks": 91,
          "midi": 38,
          "name": "D2",
          "ticks": 5040,
          "time": 17.499972,
          "velocity": 0.7007874015748031
        },
        {
          "duration": 0.34027723333333526,
          "durationTicks": 98,
          "midi": 38,
          "name": "D2",
          "ticks": 5160,
          "time": 17.916638,
          "velocity": 0.7322834645669292
        },
        {
          "duration": 0.3194439333333321,
          "durationTicks": 92,
          "midi": 38,
          "name": "D2",
          "ticks": 5280,
          "time": 18.333304,
          "velocity": 0.7007874015748031
        },
        {
          "duration": 0.32986058333333546,
          "durationTicks": 95,
          "midi": 38,
          "name": "D2",
          "ticks": 5400,
          "time": 18.749969999999998,
          "velocity": 0.7007874015748031
        },
        {
          "duration": 0.3194439333333321,
          "durationTicks": 92,
          "midi": 38,
          "name": "D2",
          "ticks": 5520,
          "time": 19.166636,
          "velocity": 0.7716535433070866
        },
        {
          "duration": 0.4027771333333341,
          "durationTicks": 116,
          "midi": 38,
          "name": "D2",
          "ticks": 5640,
          "time": 19.583302,
          "velocity": 0.7007874015748031
        },
        {
          "duration": 0.34027723333333526,
          "durationTicks": 98,
          "midi": 34,
          "name": "A#1",
          "ticks": 5760,
          "time": 19.999968,
          "velocity": 0.7007874015748031
        },
        {
          "duration": 0.3194439333333321,
          "durationTicks": 92,
          "midi": 34,
          "name": "A#1",
          "ticks": 5880,
          "time": 20.416634,
          "velocity": 0.6692913385826772
        },
        {
          "duration": 0.3055550666666669,
          "durationTicks": 88,
          "midi": 34,
          "name": "A#1",
          "ticks": 6000,
          "time": 20.833299999999998,
          "velocity": 0.7322834645669292
        },
        {
          "duration": 0.3159717166666631,
          "durationTicks": 91,
          "midi": 34,
          "name": "A#1",
          "ticks": 6120,
          "time": 21.249966,
          "velocity": 0.7322834645669292
        },
        {
          "duration": 0.3298605833333319,
          "durationTicks": 95,
          "midi": 34,
          "name": "A#1",
          "ticks": 6240,
          "time": 21.666632,
          "velocity": 0.7322834645669292
        },
        {
          "duration": 0.3229161499999975,
          "durationTicks": 93,
          "midi": 34,
          "name": "A#1",
          "ticks": 6360,
          "time": 22.083298,
          "velocity": 0.7007874015748031
        },
        {
          "duration": 0.4097215666666685,
          "durationTicks": 118,
          "midi": 34,
          "name": "A#1",
          "ticks": 6480,
          "time": 22.499964,
          "velocity": 0.7007874015748031
        },
        {
          "duration": 0.3159717166666667,
          "durationTicks": 91,
          "midi": 36,
          "name": "C2",
          "ticks": 6600,
          "time": 22.916629999999998,
          "velocity": 0.7716535433070866
        },
        {
          "duration": 0.3159717166666667,
          "durationTicks": 91,
          "midi": 38,
          "name": "D2",
          "ticks": 6720,
          "time": 23.333295999999997,
          "velocity": 0.84251968503937
        },
        {
          "duration": 0.3124994999999977,
          "durationTicks": 90,
          "midi": 38,
          "name": "D2",
          "ticks": 6840,
          "time": 23.749962,
          "velocity": 0.8031496062992126
        },
        {
          "duration": 0.3263883666666665,
          "durationTicks": 94,
          "midi": 38,
          "name": "D2",
          "ticks": 6960,
          "time": 24.166628,
          "velocity": 0.7322834645669292
        },
        {
          "duration": 0.31249950000000126,
          "durationTicks": 90,
          "midi": 38,
          "name": "D2",
          "ticks": 7080,
          "time": 24.583294,
          "velocity": 0.7322834645669292
        },
        {
          "duration": 0.28472176666666726,
          "durationTicks": 82,
          "midi": 38,
          "name": "D2",
          "ticks": 7200,
          "time": 24.999959999999998,
          "velocity": 0.8031496062992126
        },
        {
          "duration": 0.3159717166666667,
          "durationTicks": 91,
          "midi": 38,
          "name": "D2",
          "ticks": 7320,
          "time": 25.416625999999997,
          "velocity": 0.7322834645669292
        },
        {
          "duration": 0.3090272833333323,
          "durationTicks": 89,
          "midi": 38,
          "name": "D2",
          "ticks": 7440,
          "time": 25.833292,
          "velocity": 0.7716535433070866
        },
        {
          "duration": 0.3958326999999997,
          "durationTicks": 114,
          "midi": 38,
          "name": "D2",
          "ticks": 7560,
          "time": 26.249958,
          "velocity": 0.8031496062992126
        },
        {
          "duration": 0.3472216666666661,
          "durationTicks": 100,
          "midi": 34,
          "name": "A#1",
          "ticks": 7680,
          "time": 26.666624,
          "velocity": 0.7322834645669292
        },
        {
          "duration": 0.3229161500000046,
          "durationTicks": 93,
          "midi": 34,
          "name": "A#1",
          "ticks": 7800,
          "time": 27.083289999999998,
          "velocity": 0.7007874015748031
        },
        {
          "duration": 0.31597171666667023,
          "durationTicks": 91,
          "midi": 34,
          "name": "A#1",
          "ticks": 7920,
          "time": 27.499955999999997,
          "velocity": 0.7322834645669292
        },
        {
          "duration": 0.3506938833333315,
          "durationTicks": 101,
          "midi": 34,
          "name": "A#1",
          "ticks": 8040,
          "time": 27.916622,
          "velocity": 0.7322834645669292
        },
        {
          "duration": 0.29166620000000165,
          "durationTicks": 84,
          "midi": 34,
          "name": "A#1",
          "ticks": 8160,
          "time": 28.333288,
          "velocity": 0.7716535433070866
        },
        {
          "duration": 0.3333327999999973,
          "durationTicks": 96,
          "midi": 34,
          "name": "A#1",
          "ticks": 8280,
          "time": 28.749954,
          "velocity": 0.7716535433070866
        },
        {
          "duration": 0.3333328000000009,
          "durationTicks": 96,
          "midi": 34,
          "name": "A#1",
          "ticks": 8400,
          "time": 29.166619999999998,
          "velocity": 0.7716535433070866
        },
        {
          "duration": 0.31944393333333565,
          "durationTicks": 92,
          "midi": 34,
          "name": "A#1",
          "ticks": 8520,
          "time": 29.583285999999998,
          "velocity": 0.7322834645669292
        },
        {
          "duration": 0.36111053333332777,
          "durationTicks": 104,
          "midi": 31,
          "name": "G1",
          "ticks": 8640,
          "time": 29.999952,
          "velocity": 0.7322834645669292
        },
        {
          "duration": 0.3263883666666665,
          "durationTicks": 94,
          "midi": 31,
          "name": "G1",
          "ticks": 8760,
          "time": 30.416618,
          "velocity": 0.7716535433070866
        },
        {
          "duration": 0.32291615000000107,
          "durationTicks": 93,
          "midi": 31,
          "name": "G1",
          "ticks": 8880,
          "time": 30.833284,
          "velocity": 0.8031496062992126
        },
        {
          "duration": 0.3611105333333313,
          "durationTicks": 104,
          "midi": 31,
          "name": "G1",
          "ticks": 9000,
          "time": 31.24995,
          "velocity": 0.8031496062992126
        },
        {
          "duration": 0.32986058333333546,
          "durationTicks": 95,
          "midi": 33,
          "name": "A1",
          "ticks": 9120,
          "time": 31.666615999999998,
          "velocity": 0.7716535433070866
        },
        {
          "duration": 0.3368050166666663,
          "durationTicks": 97,
          "midi": 33,
          "name": "A1",
          "ticks": 9240,
          "time": 32.083282,
          "velocity": 0.7716535433070866
        },
        {
          "duration": 0.3055550666666704,
          "durationTicks": 88,
          "midi": 33,
          "name": "A1",
          "ticks": 9360,
          "time": 32.499947999999996,
          "velocity": 0.7322834645669292
        },
        {
          "duration": 0.3611105333333313,
          "durationTicks": 104,
          "midi": 33,
          "name": "A1",
          "ticks": 9480,
          "time": 32.916613999999996,
          "velocity": 0.8031496062992126
        },
        {
          "duration": 0.3368050166666663,
          "durationTicks": 97,
          "midi": 31,
          "name": "G1",
          "ticks": 9600,
          "time": 33.33328,
          "velocity": 0.84251968503937
        },
        {
          "duration": 0.3194439333333321,
          "durationTicks": 92,
          "midi": 31,
          "name": "G1",
          "ticks": 9720,
          "time": 33.749946,
          "velocity": 0.7716535433070866
        },
        {
          "duration": 0.32638836666666293,
          "durationTicks": 94,
          "midi": 31,
          "name": "G1",
          "ticks": 9840,
          "time": 34.166612,
          "velocity": 0.7716535433070866
        },
        {
          "duration": 0.3576383166666659,
          "durationTicks": 103,
          "midi": 31,
          "name": "G1",
          "ticks": 9960,
          "time": 34.583278,
          "velocity": 0.8031496062992126
        },
        {
          "duration": 0.3229161500000046,
          "durationTicks": 93,
          "midi": 33,
          "name": "A1",
          "ticks": 10080,
          "time": 34.999944,
          "velocity": 0.8031496062992126
        },
        {
          "duration": 0.29513841666666707,
          "durationTicks": 85,
          "midi": 33,
          "name": "A1",
          "ticks": 10200,
          "time": 35.41661,
          "velocity": 0.8031496062992126
        },
        {
          "duration": 0.29513841666666707,
          "durationTicks": 85,
          "midi": 33,
          "name": "A1",
          "ticks": 10320,
          "time": 35.833276,
          "velocity": 0.8031496062992126
        },
        {
          "duration": 0.2256940833333374,
          "durationTicks": 65,
          "midi": 33,
          "name": "A1",
          "ticks": 10440,
          "time": 36.249942,
          "velocity": 0.7716535433070866
        },
        {
          "duration": 0.32638836666667004,
          "durationTicks": 94,
          "midi": 38,
          "name": "D2",
          "ticks": 10560,
          "time": 36.666608,
          "velocity": 0.84251968503937
        },
        {
          "duration": 0.3368050166666734,
          "durationTicks": 97,
          "midi": 38,
          "name": "D2",
          "ticks": 10680,
          "time": 37.083273999999996,
          "velocity": 0.84251968503937
        },
        {
          "duration": 0.34722166666666965,
          "durationTicks": 100,
          "midi": 38,
          "name": "D2",
          "ticks": 10800,
          "time": 37.499939999999995,
          "velocity": 0.7716535433070866
        },
        {
          "duration": 0.399304916666658,
          "durationTicks": 115,
          "midi": 38,
          "name": "D2",
          "ticks": 10920,
          "time": 37.916606,
          "velocity": 0.7716535433070866
        },
        {
          "duration": 0.3368050166666663,
          "durationTicks": 97,
          "midi": 29,
          "name": "F1",
          "ticks": 11040,
          "time": 38.333272,
          "velocity": 0.7322834645669292
        },
        {
          "duration": 0.3194439333333321,
          "durationTicks": 92,
          "midi": 29,
          "name": "F1",
          "ticks": 11160,
          "time": 38.749938,
          "velocity": 0.8031496062992126
        },
        {
          "duration": 0.3159717166666667,
          "durationTicks": 91,
          "midi": 29,
          "name": "F1",
          "ticks": 11280,
          "time": 39.166604,
          "velocity": 0.7322834645669292
        },
        {
          "duration": 0.29166620000000165,
          "durationTicks": 84,
          "midi": 29,
          "name": "F1",
          "ticks": 11400,
          "time": 39.58327,
          "velocity": 0.7322834645669292
        },
        {
          "duration": 0.34374945000000423,
          "durationTicks": 99,
          "midi": 31,
          "name": "G1",
          "ticks": 11520,
          "time": 39.999936,
          "velocity": 0.7716535433070866
        },
        {
          "duration": 0.31249950000000126,
          "durationTicks": 90,
          "midi": 31,
          "name": "G1",
          "ticks": 11640,
          "time": 40.416602,
          "velocity": 0.7007874015748031
        },
        {
          "duration": 0.2986106333333325,
          "durationTicks": 86,
          "midi": 31,
          "name": "G1",
          "ticks": 11760,
          "time": 40.833268,
          "velocity": 0.7716535433070866
        },
        {
          "duration": 0.34722166666666965,
          "durationTicks": 100,
          "midi": 31,
          "name": "G1",
          "ticks": 11880,
          "time": 41.249933999999996,
          "velocity": 0.7716535433070866
        },
        {
          "duration": 0.3055550666666704,
          "durationTicks": 88,
          "midi": 34,
          "name": "A#1",
          "ticks": 12000,
          "time": 41.666599999999995,
          "velocity": 0.7007874015748031
        },
        {
          "duration": 0.32986058333333546,
          "durationTicks": 95,
          "midi": 34,
          "name": "A#1",
          "ticks": 12120,
          "time": 42.083265999999995,
          "velocity": 0.7322834645669292
        },
        {
          "duration": 0.29513841666665996,
          "durationTicks": 85,
          "midi": 34,
          "name": "A#1",
          "ticks": 12240,
          "time": 42.499932,
          "velocity": 0.8031496062992126
        },
        {
          "duration": 0.23611073333332655,
          "durationTicks": 68,
          "midi": 34,
          "name": "A#1",
          "ticks": 12360,
          "time": 42.916598,
          "velocity": 0.7322834645669292
        },
        {
          "duration": 0.3229161499999975,
          "durationTicks": 93,
          "midi": 38,
          "name": "D2",
          "ticks": 12480,
          "time": 43.333264,
          "velocity": 0.7322834645669292
        },
        {
          "duration": 0.3194439333333321,
          "durationTicks": 92,
          "midi": 38,
          "name": "D2",
          "ticks": 12600,
          "time": 43.74993,
          "velocity": 0.7007874015748031
        },
        {
          "duration": 0.32638836666666293,
          "durationTicks": 94,
          "midi": 38,
          "name": "D2",
          "ticks": 12720,
          "time": 44.166596,
          "velocity": 0.7007874015748031
        },
        {
          "duration": 0.4166659999999993,
          "durationTicks": 120,
          "midi": 38,
          "name": "D2",
          "ticks": 12840,
          "time": 44.583262,
          "velocity": 0.7322834645669292
        },
        {
          "duration": 0.3055550666666704,
          "durationTicks": 88,
          "midi": 29,
          "name": "F1",
          "ticks": 12960,
          "time": 44.999928,
          "velocity": 0.7007874015748031
        },
        {
          "duration": 0.34722166666666965,
          "durationTicks": 100,
          "midi": 29,
          "name": "F1",
          "ticks": 13080,
          "time": 45.416593999999996,
          "velocity": 0.7322834645669292
        },
        {
          "duration": 0.3229161500000046,
          "durationTicks": 93,
          "midi": 29,
          "name": "F1",
          "ticks": 13200,
          "time": 45.833259999999996,
          "velocity": 0.7322834645669292
        },
        {
          "duration": 0.3020828499999979,
          "durationTicks": 87,
          "midi": 29,
          "name": "F1",
          "ticks": 13320,
          "time": 46.249925999999995,
          "velocity": 0.8031496062992126
        },
        {
          "duration": 0.3159717166666738,
          "durationTicks": 91,
          "midi": 31,
          "name": "G1",
          "ticks": 13440,
          "time": 46.666591999999994,
          "velocity": 0.8031496062992126
        },
        {
          "duration": 0.33333279999999377,
          "durationTicks": 96,
          "midi": 31,
          "name": "G1",
          "ticks": 13560,
          "time": 47.083258,
          "velocity": 0.7716535433070866
        },
        {
          "duration": 0.30902728333332874,
          "durationTicks": 89,
          "midi": 31,
          "name": "G1",
          "ticks": 13680,
          "time": 47.499924,
          "velocity": 0.84251968503937
        },
        {
          "duration": 0.32986058333333546,
          "durationTicks": 95,
          "midi": 31,
          "name": "G1",
          "ticks": 13800,
          "time": 47.91659,
          "velocity": 0.7716535433070866
        },
        {
          "duration": 0.3229161500000046,
          "durationTicks": 93,
          "midi": 34,
          "name": "A#1",
          "ticks": 13920,
          "time": 48.333256,
          "velocity": 0.7716535433070866
        },
        {
          "duration": 0.2986106333333325,
          "durationTicks": 86,
          "midi": 34,
          "name": "A#1",
          "ticks": 14040,
          "time": 48.749922,
          "velocity": 0.8031496062992126
        },
        {
          "duration": 0.1493053166666698,
          "durationTicks": 43,
          "midi": 34,
          "name": "A#1",
          "ticks": 14160,
          "time": 49.166588,
          "velocity": 0.84251968503937
        },
        {
          "duration": 0.34374945000000423,
          "durationTicks": 99,
          "midi": 38,
          "name": "D2",
          "ticks": 14400,
          "time": 49.999919999999996,
          "velocity": 0.7322834645669292
        },
        {
          "duration": 0.34374945000000423,
          "durationTicks": 99,
          "midi": 38,
          "name": "D2",
          "ticks": 14520,
          "time": 50.416585999999995,
          "velocity": 0.7716535433070866
        },
        {
          "duration": 0.3541661000000005,
          "durationTicks": 102,
          "midi": 38,
          "name": "D2",
          "ticks": 14640,
          "time": 50.833251999999995,
          "velocity": 0.7716535433070866
        },
        {
          "duration": 0.3368050166666663,
          "durationTicks": 97,
          "midi": 38,
          "name": "D2",
          "ticks": 14760,
          "time": 51.249918,
          "velocity": 0.7716535433070866
        },
        {
          "duration": 0.3749994000000001,
          "durationTicks": 108,
          "midi": 38,
          "name": "D2",
          "ticks": 14880,
          "time": 51.666584,
          "velocity": 0.7322834645669292
        },
        {
          "duration": 0.34722166666666254,
          "durationTicks": 100,
          "midi": 38,
          "name": "D2",
          "ticks": 15000,
          "time": 52.08325,
          "velocity": 0.84251968503937
        },
        {
          "duration": 0.40277713333333054,
          "durationTicks": 116,
          "midi": 31,
          "name": "G1",
          "ticks": 15120,
          "time": 52.499916,
          "velocity": 0.84251968503937
        },
        {
          "duration": 0.42013821666666473,
          "durationTicks": 121,
          "midi": 29,
          "name": "F1",
          "ticks": 15240,
          "time": 52.916582,
          "velocity": 0.84251968503937
        },
        {
          "duration": 0.32638836666666293,
          "durationTicks": 94,
          "midi": 38,
          "name": "D2",
          "ticks": 15360,
          "time": 53.333248,
          "velocity": 0.8031496062992126
        },
        {
          "duration": 0.3368050166666663,
          "durationTicks": 97,
          "midi": 38,
          "name": "D2",
          "ticks": 15480,
          "time": 53.749914,
          "velocity": 0.7716535433070866
        },
        {
          "duration": 0.34722166666666965,
          "durationTicks": 100,
          "midi": 38,
          "name": "D2",
          "ticks": 15600,
          "time": 54.166579999999996,
          "velocity": 0.7716535433070866
        },
        {
          "duration": 0.3368050166666734,
          "durationTicks": 97,
          "midi": 38,
          "name": "D2",
          "ticks": 15720,
          "time": 54.583245999999995,
          "velocity": 0.7716535433070866
        },
        {
          "duration": 0.3541661000000005,
          "durationTicks": 102,
          "midi": 38,
          "name": "D2",
          "ticks": 15840,
          "time": 54.999911999999995,
          "velocity": 0.7716535433070866
        },
        {
          "duration": 0.4166660000000064,
          "durationTicks": 120,
          "midi": 38,
          "name": "D2",
          "ticks": 15960,
          "time": 55.416577999999994,
          "velocity": 0.84251968503937
        },
        {
          "duration": 0.3958326999999926,
          "durationTicks": 114,
          "midi": 29,
          "name": "F1",
          "ticks": 16080,
          "time": 55.833244,
          "velocity": 0.84251968503937
        },
        {
          "duration": 0.3159717166666596,
          "durationTicks": 91,
          "midi": 36,
          "name": "C2",
          "ticks": 16200,
          "time": 56.24991,
          "velocity": 0.8031496062992126
        },
        {
          "duration": 0.31249950000000126,
          "durationTicks": 90,
          "midi": 38,
          "name": "D2",
          "ticks": 16320,
          "time": 56.666576,
          "velocity": 0.8031496062992126
        },
        {
          "duration": 0.35069388333333507,
          "durationTicks": 101,
          "midi": 38,
          "name": "D2",
          "ticks": 16440,
          "time": 57.083242,
          "velocity": 0.7007874015748031
        },
        {
          "duration": 0.3159717166666596,
          "durationTicks": 91,
          "midi": 38,
          "name": "D2",
          "ticks": 16560,
          "time": 57.499908,
          "velocity": 0.7007874015748031
        },
        {
          "duration": 0.3402772333333317,
          "durationTicks": 98,
          "midi": 38,
          "name": "D2",
          "ticks": 16680,
          "time": 57.916574,
          "velocity": 0.7322834645669292
        },
        {
          "duration": 0.3194439333333392,
          "durationTicks": 92,
          "midi": 38,
          "name": "D2",
          "ticks": 16800,
          "time": 58.333239999999996,
          "velocity": 0.7007874015748031
        },
        {
          "duration": 0.32986058333332835,
          "durationTicks": 95,
          "midi": 38,
          "name": "D2",
          "ticks": 16920,
          "time": 58.749905999999996,
          "velocity": 0.7007874015748031
        },
        {
          "duration": 0.3194439333333392,
          "durationTicks": 92,
          "midi": 38,
          "name": "D2",
          "ticks": 17040,
          "time": 59.166571999999995,
          "velocity": 0.7716535433070866
        },
        {
          "duration": 0.40277713333333764,
          "durationTicks": 116,
          "midi": 38,
          "name": "D2",
          "ticks": 17160,
          "time": 59.583237999999994,
          "velocity": 0.7007874015748031
        },
        {
          "duration": 0.3402772333333317,
          "durationTicks": 98,
          "midi": 34,
          "name": "A#1",
          "ticks": 17280,
          "time": 59.999904,
          "velocity": 0.7007874015748031
        },
        {
          "duration": 0.3194439333333392,
          "durationTicks": 92,
          "midi": 34,
          "name": "A#1",
          "ticks": 17400,
          "time": 60.41657,
          "velocity": 0.6692913385826772
        },
        {
          "duration": 0.3055550666666562,
          "durationTicks": 88,
          "midi": 34,
          "name": "A#1",
          "ticks": 17520,
          "time": 60.833236,
          "velocity": 0.7322834645669292
        },
        {
          "duration": 0.3159717166666596,
          "durationTicks": 91,
          "midi": 34,
          "name": "A#1",
          "ticks": 17640,
          "time": 61.249902,
          "velocity": 0.7322834645669292
        },
        {
          "duration": 0.32986058333332835,
          "durationTicks": 95,
          "midi": 34,
          "name": "A#1",
          "ticks": 17760,
          "time": 61.666568,
          "velocity": 0.7322834645669292
        },
        {
          "duration": 0.3229161500000046,
          "durationTicks": 93,
          "midi": 34,
          "name": "A#1",
          "ticks": 17880,
          "time": 62.083234,
          "velocity": 0.7007874015748031
        },
        {
          "duration": 0.4097215666666614,
          "durationTicks": 118,
          "midi": 34,
          "name": "A#1",
          "ticks": 18000,
          "time": 62.4999,
          "velocity": 0.7007874015748031
        },
        {
          "duration": 0.3159717166666667,
          "durationTicks": 91,
          "midi": 36,
          "name": "C2",
          "ticks": 18120,
          "time": 62.916565999999996,
          "velocity": 0.7716535433070866
        },
        {
          "duration": 0.3159717166666667,
          "durationTicks": 91,
          "midi": 38,
          "name": "D2",
          "ticks": 18240,
          "time": 63.333231999999995,
          "velocity": 0.84251968503937
        },
        {
          "duration": 0.31249950000000837,
          "durationTicks": 90,
          "midi": 38,
          "name": "D2",
          "ticks": 18360,
          "time": 63.749897999999995,
          "velocity": 0.8031496062992126
        },
        {
          "duration": 0.32638836666666293,
          "durationTicks": 94,
          "midi": 38,
          "name": "D2",
          "ticks": 18480,
          "time": 64.166564,
          "velocity": 0.7322834645669292
        },
        {
          "duration": 0.31249950000000126,
          "durationTicks": 90,
          "midi": 38,
          "name": "D2",
          "ticks": 18600,
          "time": 64.58323,
          "velocity": 0.7322834645669292
        },
        {
          "duration": 0.2847217666666779,
          "durationTicks": 82,
          "midi": 38,
          "name": "D2",
          "ticks": 18720,
          "time": 64.99989599999999,
          "velocity": 0.8031496062992126
        },
        {
          "duration": 0.3159717166666667,
          "durationTicks": 91,
          "midi": 38,
          "name": "D2",
          "ticks": 18840,
          "time": 65.416562,
          "velocity": 0.7322834645669292
        },
        {
          "duration": 0.30902728333333584,
          "durationTicks": 89,
          "midi": 38,
          "name": "D2",
          "ticks": 18960,
          "time": 65.83322799999999,
          "velocity": 0.7716535433070866
        },
        {
          "duration": 0.3958326999999997,
          "durationTicks": 114,
          "midi": 38,
          "name": "D2",
          "ticks": 19080,
          "time": 66.249894,
          "velocity": 0.8031496062992126
        },
        {
          "duration": 0.34722166666666965,
          "durationTicks": 100,
          "midi": 34,
          "name": "A#1",
          "ticks": 19200,
          "time": 66.66656,
          "velocity": 0.7322834645669292
        },
        {
          "duration": 0.3229161499999975,
          "durationTicks": 93,
          "midi": 34,
          "name": "A#1",
          "ticks": 19320,
          "time": 67.083226,
          "velocity": 0.7007874015748031
        },
        {
          "duration": 0.31597171666665247,
          "durationTicks": 91,
          "midi": 34,
          "name": "A#1",
          "ticks": 19440,
          "time": 67.499892,
          "velocity": 0.7322834645669292
        },
        {
          "duration": 0.35069388333333507,
          "durationTicks": 101,
          "midi": 34,
          "name": "A#1",
          "ticks": 19560,
          "time": 67.916558,
          "velocity": 0.7322834645669292
        },
        {
          "duration": 0.29166619999999455,
          "durationTicks": 84,
          "midi": 34,
          "name": "A#1",
          "ticks": 19680,
          "time": 68.333224,
          "velocity": 0.7716535433070866
        },
        {
          "duration": 0.333332800000008,
          "durationTicks": 96,
          "midi": 34,
          "name": "A#1",
          "ticks": 19800,
          "time": 68.74989,
          "velocity": 0.7716535433070866
        },
        {
          "duration": 0.333332800000008,
          "durationTicks": 96,
          "midi": 34,
          "name": "A#1",
          "ticks": 19920,
          "time": 69.166556,
          "velocity": 0.7716535433070866
        },
        {
          "duration": 0.3194439333333463,
          "durationTicks": 92,
          "midi": 34,
          "name": "A#1",
          "ticks": 20040,
          "time": 69.58322199999999,
          "velocity": 0.7322834645669292
        },
        {
          "duration": 0.3611105333333313,
          "durationTicks": 104,
          "midi": 31,
          "name": "G1",
          "ticks": 20160,
          "time": 69.999888,
          "velocity": 0.7322834645669292
        },
        {
          "duration": 0.32638836666667714,
          "durationTicks": 94,
          "midi": 31,
          "name": "G1",
          "ticks": 20280,
          "time": 70.41655399999999,
          "velocity": 0.7716535433070866
        },
        {
          "duration": 0.3229161499999975,
          "durationTicks": 93,
          "midi": 31,
          "name": "G1",
          "ticks": 20400,
          "time": 70.83322,
          "velocity": 0.8031496062992126
        },
        {
          "duration": 0.3611105333333313,
          "durationTicks": 104,
          "midi": 31,
          "name": "G1",
          "ticks": 20520,
          "time": 71.249886,
          "velocity": 0.8031496062992126
        },
        {
          "duration": 0.32986058333332835,
          "durationTicks": 95,
          "midi": 33,
          "name": "A1",
          "ticks": 20640,
          "time": 71.666552,
          "velocity": 0.7716535433070866
        },
        {
          "duration": 0.3368050166666592,
          "durationTicks": 97,
          "midi": 33,
          "name": "A1",
          "ticks": 20760,
          "time": 72.083218,
          "velocity": 0.7716535433070866
        },
        {
          "duration": 0.3055550666666704,
          "durationTicks": 88,
          "midi": 33,
          "name": "A1",
          "ticks": 20880,
          "time": 72.499884,
          "velocity": 0.7322834645669292
        },
        {
          "duration": 0.3611105333333313,
          "durationTicks": 104,
          "midi": 33,
          "name": "A1",
          "ticks": 21000,
          "time": 72.91655,
          "velocity": 0.8031496062992126
        },
        {
          "duration": 0.3368050166666734,
          "durationTicks": 97,
          "midi": 31,
          "name": "G1",
          "ticks": 21120,
          "time": 73.333216,
          "velocity": 0.84251968503937
        },
        {
          "duration": 0.3194439333333321,
          "durationTicks": 92,
          "midi": 31,
          "name": "G1",
          "ticks": 21240,
          "time": 73.749882,
          "velocity": 0.7716535433070866
        },
        {
          "duration": 0.32638836666667714,
          "durationTicks": 94,
          "midi": 31,
          "name": "G1",
          "ticks": 21360,
          "time": 74.16654799999999,
          "velocity": 0.7716535433070866
        },
        {
          "duration": 0.3576383166666659,
          "durationTicks": 103,
          "midi": 31,
          "name": "G1",
          "ticks": 21480,
          "time": 74.583214,
          "velocity": 0.8031496062992126
        },
        {
          "duration": 0.3229161500000117,
          "durationTicks": 93,
          "midi": 33,
          "name": "A1",
          "ticks": 21600,
          "time": 74.99987999999999,
          "velocity": 0.8031496062992126
        },
        {
          "duration": 0.2951384166666742,
          "durationTicks": 85,
          "midi": 33,
          "name": "A1",
          "ticks": 21720,
          "time": 75.416546,
          "velocity": 0.8031496062992126
        },
        {
          "duration": 0.29513841666665996,
          "durationTicks": 85,
          "midi": 33,
          "name": "A1",
          "ticks": 21840,
          "time": 75.833212,
          "velocity": 0.8031496062992126
        },
        {
          "duration": 0.2256940833333374,
          "durationTicks": 65,
          "midi": 33,
          "name": "A1",
          "ticks": 21960,
          "time": 76.249878,
          "velocity": 0.7716535433070866
        },
        {
          "duration": 0.32986058333332835,
          "durationTicks": 95,
          "midi": 33,
          "name": "A1",
          "ticks": 22080,
          "time": 76.666544,
          "velocity": 0.84251968503937
        },
        {
          "duration": 0.38194383333333803,
          "durationTicks": 110,
          "midi": 33,
          "name": "A1",
          "ticks": 22200,
          "time": 77.08321,
          "velocity": 0.84251968503937
        },
        {
          "duration": 0.3194439333333321,
          "durationTicks": 92,
          "midi": 45,
          "name": "A2",
          "ticks": 22320,
          "time": 77.499876,
          "velocity": 0.84251968503937
        },
        {
          "duration": 0.17708305000000735,
          "durationTicks": 51,
          "midi": 40,
          "name": "E2",
          "ticks": 22400,
          "time": 77.77765333333332,
          "velocity": 0.7716535433070866
        },
        {
          "duration": 0.28819398333332913,
          "durationTicks": 83,
          "midi": 33,
          "name": "A1",
          "ticks": 22440,
          "time": 77.91654199999999,
          "velocity": 0.889763779527559
        },
        {
          "duration": 0.32638836666666293,
          "durationTicks": 94,
          "midi": 38,
          "name": "D2",
          "ticks": 22560,
          "time": 78.333208,
          "velocity": 0.84251968503937
        },
        {
          "duration": 0.3368050166666734,
          "durationTicks": 97,
          "midi": 38,
          "name": "D2",
          "ticks": 22680,
          "time": 78.74987399999999,
          "velocity": 0.84251968503937
        },
        {
          "duration": 0.34722166666666965,
          "durationTicks": 100,
          "midi": 38,
          "name": "D2",
          "ticks": 22800,
          "time": 79.16654,
          "velocity": 0.7716535433070866
        },
        {
          "duration": 0.39930491666667933,
          "durationTicks": 115,
          "midi": 38,
          "name": "D2",
          "ticks": 22920,
          "time": 79.58320599999999,
          "velocity": 0.7716535433070866
        },
        {
          "duration": 0.3368050166666734,
          "durationTicks": 97,
          "midi": 29,
          "name": "F1",
          "ticks": 23040,
          "time": 79.999872,
          "velocity": 0.7322834645669292
        },
        {
          "duration": 0.3194439333333321,
          "durationTicks": 92,
          "midi": 29,
          "name": "F1",
          "ticks": 23160,
          "time": 80.416538,
          "velocity": 0.8031496062992126
        },
        {
          "duration": 0.3159717166666667,
          "durationTicks": 91,
          "midi": 29,
          "name": "F1",
          "ticks": 23280,
          "time": 80.833204,
          "velocity": 0.7322834645669292
        },
        {
          "duration": 0.29166619999999455,
          "durationTicks": 84,
          "midi": 29,
          "name": "F1",
          "ticks": 23400,
          "time": 81.24987,
          "velocity": 0.7322834645669292
        },
        {
          "duration": 0.34374945000000423,
          "durationTicks": 99,
          "midi": 31,
          "name": "G1",
          "ticks": 23520,
          "time": 81.666536,
          "velocity": 0.7716535433070866
        },
        {
          "duration": 0.31249950000000126,
          "durationTicks": 90,
          "midi": 31,
          "name": "G1",
          "ticks": 23640,
          "time": 82.083202,
          "velocity": 0.7007874015748031
        },
        {
          "duration": 0.2986106333333396,
          "durationTicks": 86,
          "midi": 31,
          "name": "G1",
          "ticks": 23760,
          "time": 82.49986799999999,
          "velocity": 0.7716535433070866
        },
        {
          "duration": 0.34722166666666965,
          "durationTicks": 100,
          "midi": 31,
          "name": "G1",
          "ticks": 23880,
          "time": 82.916534,
          "velocity": 0.7716535433070866
        },
        {
          "duration": 0.3055550666666704,
          "durationTicks": 88,
          "midi": 34,
          "name": "A#1",
          "ticks": 24000,
          "time": 83.33319999999999,
          "velocity": 0.7007874015748031
        },
        {
          "duration": 0.32986058333332835,
          "durationTicks": 95,
          "midi": 34,
          "name": "A#1",
          "ticks": 24120,
          "time": 83.749866,
          "velocity": 0.7322834645669292
        },
        {
          "duration": 0.2951384166666742,
          "durationTicks": 85,
          "midi": 34,
          "name": "A#1",
          "ticks": 24240,
          "time": 84.16653199999999,
          "velocity": 0.8031496062992126
        },
        {
          "duration": 0.23611073333333366,
          "durationTicks": 68,
          "midi": 34,
          "name": "A#1",
          "ticks": 24360,
          "time": 84.583198,
          "velocity": 0.7322834645669292
        },
        {
          "duration": 0.3229161499999975,
          "durationTicks": 93,
          "midi": 38,
          "name": "D2",
          "ticks": 24480,
          "time": 84.999864,
          "velocity": 0.7322834645669292
        },
        {
          "duration": 0.3194439333333463,
          "durationTicks": 92,
          "midi": 38,
          "name": "D2",
          "ticks": 24600,
          "time": 85.41653,
          "velocity": 0.7007874015748031
        },
        {
          "duration": 0.32638836666666293,
          "durationTicks": 94,
          "midi": 38,
          "name": "D2",
          "ticks": 24720,
          "time": 85.833196,
          "velocity": 0.7007874015748031
        },
        {
          "duration": 0.4166660000000064,
          "durationTicks": 120,
          "midi": 38,
          "name": "D2",
          "ticks": 24840,
          "time": 86.249862,
          "velocity": 0.7322834645669292
        },
        {
          "duration": 0.3055550666666562,
          "durationTicks": 88,
          "midi": 29,
          "name": "F1",
          "ticks": 24960,
          "time": 86.666528,
          "velocity": 0.7007874015748031
        },
        {
          "duration": 0.34722166666666965,
          "durationTicks": 100,
          "midi": 29,
          "name": "F1",
          "ticks": 25080,
          "time": 87.08319399999999,
          "velocity": 0.7322834645669292
        },
        {
          "duration": 0.3229161499999975,
          "durationTicks": 93,
          "midi": 29,
          "name": "F1",
          "ticks": 25200,
          "time": 87.49986,
          "velocity": 0.7322834645669292
        },
        {
          "duration": 0.302082850000005,
          "durationTicks": 87,
          "midi": 29,
          "name": "F1",
          "ticks": 25320,
          "time": 87.91652599999999,
          "velocity": 0.8031496062992126
        },
        {
          "duration": 0.3159717166666667,
          "durationTicks": 91,
          "midi": 31,
          "name": "G1",
          "ticks": 25440,
          "time": 88.333192,
          "velocity": 0.8031496062992126
        },
        {
          "duration": 0.333332800000008,
          "durationTicks": 96,
          "midi": 31,
          "name": "G1",
          "ticks": 25560,
          "time": 88.74985799999999,
          "velocity": 0.7716535433070866
        },
        {
          "duration": 0.30902728333333584,
          "durationTicks": 89,
          "midi": 31,
          "name": "G1",
          "ticks": 25680,
          "time": 89.166524,
          "velocity": 0.84251968503937
        },
        {
          "duration": 0.32986058333332835,
          "durationTicks": 95,
          "midi": 31,
          "name": "G1",
          "ticks": 25800,
          "time": 89.58319,
          "velocity": 0.7716535433070866
        },
        {
          "duration": 0.3229161499999975,
          "durationTicks": 93,
          "midi": 34,
          "name": "A#1",
          "ticks": 25920,
          "time": 89.999856,
          "velocity": 0.7716535433070866
        },
        {
          "duration": 0.2986106333333254,
          "durationTicks": 86,
          "midi": 34,
          "name": "A#1",
          "ticks": 26040,
          "time": 90.416522,
          "velocity": 0.8031496062992126
        },
        {
          "duration": 0.1493053166666698,
          "durationTicks": 43,
          "midi": 34,
          "name": "A#1",
          "ticks": 26160,
          "time": 90.83318799999999,
          "velocity": 0.84251968503937
        },
        {
          "duration": 0.34374945000000423,
          "durationTicks": 99,
          "midi": 38,
          "name": "D2",
          "ticks": 26400,
          "time": 91.66651999999999,
          "velocity": 0.7322834645669292
        },
        {
          "duration": 0.34374944999999,
          "durationTicks": 99,
          "midi": 38,
          "name": "D2",
          "ticks": 26520,
          "time": 92.083186,
          "velocity": 0.7716535433070866
        },
        {
          "duration": 0.3541661000000005,
          "durationTicks": 102,
          "midi": 38,
          "name": "D2",
          "ticks": 26640,
          "time": 92.49985199999999,
          "velocity": 0.7716535433070866
        },
        {
          "duration": 0.3368050166666734,
          "durationTicks": 97,
          "midi": 38,
          "name": "D2",
          "ticks": 26760,
          "time": 92.916518,
          "velocity": 0.7716535433070866
        },
        {
          "duration": 0.3749994000000072,
          "durationTicks": 108,
          "midi": 38,
          "name": "D2",
          "ticks": 26880,
          "time": 93.33318399999999,
          "velocity": 0.7322834645669292
        },
        {
          "duration": 0.34722166666666965,
          "durationTicks": 100,
          "midi": 38,
          "name": "D2",
          "ticks": 27000,
          "time": 93.74985,
          "velocity": 0.84251968503937
        },
        {
          "duration": 0.40277713333333054,
          "durationTicks": 116,
          "midi": 31,
          "name": "G1",
          "ticks": 27120,
          "time": 94.166516,
          "velocity": 0.84251968503937
        },
        {
          "duration": 0.4166660000000064,
          "durationTicks": 120,
          "midi": 29,
          "name": "F1",
          "ticks": 27240,
          "time": 94.583182,
          "velocity": 0.84251968503937
        },
        {
          "duration": 0.33333279999999377,
          "durationTicks": 96,
          "midi": 28,
          "name": "E1",
          "ticks": 27360,
          "time": 94.999848,
          "velocity": 0.84251968503937
        },
        {
          "duration": 0.3229161500000117,
          "durationTicks": 93,
          "midi": 28,
          "name": "E1",
          "ticks": 27480,
          "time": 95.41651399999999,
          "velocity": 0.8031496062992126
        },
        {
          "duration": 0.3229161499999975,
          "durationTicks": 93,
          "midi": 28,
          "name": "E1",
          "ticks": 27600,
          "time": 95.83318,
          "velocity": 0.84251968503937
        },
        {
          "duration": 0.32986058333332835,
          "durationTicks": 95,
          "midi": 28,
          "name": "E1",
          "ticks": 27720,
          "time": 96.24984599999999,
          "velocity": 0.84251968503937
        },
        {
          "duration": 0.3159717166666667,
          "durationTicks": 91,
          "midi": 28,
          "name": "E1",
          "ticks": 27840,
          "time": 96.666512,
          "velocity": 0.84251968503937
        },
        {
          "duration": 0.32986058333332835,
          "durationTicks": 95,
          "midi": 28,
          "name": "E1",
          "ticks": 27960,
          "time": 97.08317799999999,
          "velocity": 0.8031496062992126
        },
        {
          "duration": 0.32986058333332835,
          "durationTicks": 95,
          "midi": 28,
          "name": "E1",
          "ticks": 28080,
          "time": 97.499844,
          "velocity": 0.84251968503937
        },
        {
          "duration": 0.3368050166666592,
          "durationTicks": 97,
          "midi": 28,
          "name": "E1",
          "ticks": 28200,
          "time": 97.91651,
          "velocity": 0.8031496062992126
        },
        {
          "duration": 0.3055550666666562,
          "durationTicks": 88,
          "midi": 35,
          "name": "B1",
          "ticks": 28320,
          "time": 98.333176,
          "velocity": 0.7322834645669292
        },
        {
          "duration": 0.34374944999999,
          "durationTicks": 99,
          "midi": 35,
          "name": "B1",
          "ticks": 28440,
          "time": 98.749842,
          "velocity": 0.7322834645669292
        },
        {
          "duration": 0.3055550666666704,
          "durationTicks": 88,
          "midi": 35,
          "name": "B1",
          "ticks": 28560,
          "time": 99.166508,
          "velocity": 0.7716535433070866
        },
        {
          "duration": 0.33333279999999377,
          "durationTicks": 96,
          "midi": 35,
          "name": "B1",
          "ticks": 28680,
          "time": 99.583174,
          "velocity": 0.7322834645669292
        },
        {
          "duration": 0.28819398333332913,
          "durationTicks": 83,
          "midi": 35,
          "name": "B1",
          "ticks": 28800,
          "time": 99.99983999999999,
          "velocity": 0.7716535433070866
        },
        {
          "duration": 0.3020828499999908,
          "durationTicks": 87,
          "midi": 35,
          "name": "B1",
          "ticks": 28920,
          "time": 100.416506,
          "velocity": 0.7322834645669292
        },
        {
          "duration": 0.2986106333333396,
          "durationTicks": 86,
          "midi": 35,
          "name": "B1",
          "ticks": 29040,
          "time": 100.83317199999999,
          "velocity": 0.8031496062992126
        },
        {
          "duration": 0.3923604833333343,
          "durationTicks": 113,
          "midi": 35,
          "name": "B1",
          "ticks": 29160,
          "time": 101.249838,
          "velocity": 0.84251968503937
        },
        {
          "duration": 0.34374945000000423,
          "durationTicks": 99,
          "midi": 28,
          "name": "E1",
          "ticks": 29280,
          "time": 101.66650399999999,
          "velocity": 0.84251968503937
        },
        {
          "duration": 0.32638836666666293,
          "durationTicks": 94,
          "midi": 28,
          "name": "E1",
          "ticks": 29400,
          "time": 102.08317,
          "velocity": 0.84251968503937
        },
        {
          "duration": 0.3611105333333313,
          "durationTicks": 104,
          "midi": 28,
          "name": "E1",
          "ticks": 29520,
          "time": 102.499836,
          "velocity": 0.8031496062992126
        },
        {
          "duration": 0.35069388333333507,
          "durationTicks": 101,
          "midi": 28,
          "name": "E1",
          "ticks": 29640,
          "time": 102.916502,
          "velocity": 0.8031496062992126
        },
        {
          "duration": 0.3958326999999855,
          "durationTicks": 114,
          "midi": 28,
          "name": "E1",
          "ticks": 29760,
          "time": 103.333168,
          "velocity": 0.84251968503937
        },
        {
          "duration": 0.40624934999999596,
          "durationTicks": 117,
          "midi": 40,
          "name": "E2",
          "ticks": 29880,
          "time": 103.74983399999999,
          "velocity": 0.84251968503937
        },
        {
          "duration": 0.34722166666666965,
          "durationTicks": 100,
          "midi": 28,
          "name": "E1",
          "ticks": 30000,
          "time": 104.1665,
          "velocity": 0.8031496062992126
        },
        {
          "duration": 0.36111053333334553,
          "durationTicks": 104,
          "midi": 28,
          "name": "E1",
          "ticks": 30120,
          "time": 104.58316599999999,
          "velocity": 0.84251968503937
        },
        {
          "duration": 0.32986058333332835,
          "durationTicks": 95,
          "midi": 35,
          "name": "B1",
          "ticks": 30240,
          "time": 104.999832,
          "velocity": 0.7007874015748031
        },
        {
          "duration": 0.3229161500000117,
          "durationTicks": 93,
          "midi": 35,
          "name": "B1",
          "ticks": 30360,
          "time": 105.41649799999999,
          "velocity": 0.8031496062992126
        },
        {
          "duration": 0.3055550666666562,
          "durationTicks": 88,
          "midi": 35,
          "name": "B1",
          "ticks": 30480,
          "time": 105.833164,
          "velocity": 0.7716535433070866
        },
        {
          "duration": 0.2986106333333396,
          "durationTicks": 86,
          "midi": 35,
          "name": "B1",
          "ticks": 30600,
          "time": 106.24982999999999,
          "velocity": 0.7716535433070866
        },
        {
          "duration": 0.3055550666666704,
          "durationTicks": 88,
          "midi": 35,
          "name": "B1",
          "ticks": 30720,
          "time": 106.666496,
          "velocity": 0.7716535433070866
        },
        {
          "duration": 0.30902728333333584,
          "durationTicks": 89,
          "midi": 35,
          "name": "B1",
          "ticks": 30840,
          "time": 107.083162,
          "velocity": 0.7716535433070866
        },
        {
          "duration": 0.3159717166666667,
          "durationTicks": 91,
          "midi": 35,
          "name": "B1",
          "ticks": 30960,
          "time": 107.499828,
          "velocity": 0.7716535433070866
        },
        {
          "duration": 0.22916630000000282,
          "durationTicks": 66,
          "midi": 35,
          "name": "B1",
          "ticks": 31080,
          "time": 107.916494,
          "velocity": 0.84251968503937
        },
        {
          "duration": 0.30902728333333584,
          "durationTicks": 89,
          "midi": 41,
          "name": "F2",
          "ticks": 31200,
          "time": 108.33315999999999,
          "velocity": 0.84251968503937
        },
        {
          "duration": 0.36458274999999674,
          "durationTicks": 105,
          "midi": 41,
          "name": "F2",
          "ticks": 31320,
          "time": 108.749826,
          "velocity": 0.7322834645669292
        },
        {
          "duration": 0.3402772333333388,
          "durationTicks": 98,
          "midi": 41,
          "name": "F2",
          "ticks": 31440,
          "time": 109.16649199999999,
          "velocity": 0.7322834645669292
        },
        {
          "duration": 0.34374944999999,
          "durationTicks": 99,
          "midi": 41,
          "name": "F2",
          "ticks": 31560,
          "time": 109.583158,
          "velocity": 0.7322834645669292
        },
        {
          "duration": 0.333332800000008,
          "durationTicks": 96,
          "midi": 41,
          "name": "F2",
          "ticks": 31680,
          "time": 109.99982399999999,
          "velocity": 0.8031496062992126
        },
        {
          "duration": 0.333332800000008,
          "durationTicks": 96,
          "midi": 41,
          "name": "F2",
          "ticks": 31800,
          "time": 110.41649,
          "velocity": 0.7716535433070866
        },
        {
          "duration": 0.3194439333333321,
          "durationTicks": 92,
          "midi": 41,
          "name": "F2",
          "ticks": 31920,
          "time": 110.83315599999999,
          "velocity": 0.7716535433070866
        },
        {
          "duration": 0.4097215666666756,
          "durationTicks": 118,
          "midi": 41,
          "name": "F2",
          "ticks": 32040,
          "time": 111.249822,
          "velocity": 0.84251968503937
        },
        {
          "duration": 0.32986058333332835,
          "durationTicks": 95,
          "midi": 36,
          "name": "C2",
          "ticks": 32160,
          "time": 111.666488,
          "velocity": 0.7007874015748031
        },
        {
          "duration": 0.31249950000000126,
          "durationTicks": 90,
          "midi": 36,
          "name": "C2",
          "ticks": 32280,
          "time": 112.083154,
          "velocity": 0.7716535433070866
        },
        {
          "duration": 0.302082850000005,
          "durationTicks": 87,
          "midi": 36,
          "name": "C2",
          "ticks": 32400,
          "time": 112.49982,
          "velocity": 0.7322834645669292
        },
        {
          "duration": 0.32986058333334256,
          "durationTicks": 95,
          "midi": 36,
          "name": "C2",
          "ticks": 32520,
          "time": 112.91648599999999,
          "velocity": 0.7322834645669292
        },
        {
          "duration": 0.3055550666666704,
          "durationTicks": 88,
          "midi": 36,
          "name": "C2",
          "ticks": 32640,
          "time": 113.333152,
          "velocity": 0.7007874015748031
        },
        {
          "duration": 0.2812495500000125,
          "durationTicks": 81,
          "midi": 36,
          "name": "C2",
          "ticks": 32760,
          "time": 113.74981799999999,
          "velocity": 0.8031496062992126
        },
        {
          "duration": 0.3402772333333246,
          "durationTicks": 98,
          "midi": 36,
          "name": "C2",
          "ticks": 32880,
          "time": 114.166484,
          "velocity": 0.7716535433070866
        },
        {
          "duration": 0.3576383166666801,
          "durationTicks": 103,
          "midi": 36,
          "name": "C2",
          "ticks": 33000,
          "time": 114.58314999999999,
          "velocity": 0.7716535433070866
        },
        {
          "duration": 0.35069388333332085,
          "durationTicks": 101,
          "midi": 38,
          "name": "D2",
          "ticks": 33120,
          "time": 114.999816,
          "velocity": 0.889763779527559
        },
        {
          "duration": 0.30555506666668464,
          "durationTicks": 88,
          "midi": 38,
          "name": "D2",
          "ticks": 33240,
          "time": 115.41648199999999,
          "velocity": 0.84251968503937
        },
        {
          "duration": 0.2673606833333224,
          "durationTicks": 77,
          "midi": 38,
          "name": "D2",
          "ticks": 33360,
          "time": 115.833148,
          "velocity": 0.7716535433070866
        },
        {
          "duration": 0.3229161499999833,
          "durationTicks": 93,
          "midi": 38,
          "name": "D2",
          "ticks": 33480,
          "time": 116.249814,
          "velocity": 0.7716535433070866
        },
        {
          "duration": 0.3055550666666704,
          "durationTicks": 88,
          "midi": 38,
          "name": "D2",
          "ticks": 33600,
          "time": 116.66647999999999,
          "velocity": 0.8031496062992126
        },
        {
          "duration": 0.22916630000000282,
          "durationTicks": 66,
          "midi": 38,
          "name": "D2",
          "ticks": 33720,
          "time": 117.083146,
          "velocity": 0.889763779527559
        },
        {
          "duration": 0.3576383166666801,
          "durationTicks": 103,
          "midi": 34,
          "name": "A#1",
          "ticks": 33840,
          "time": 117.49981199999999,
          "velocity": 0.84251968503937
        },
        {
          "duration": 0.3159717166666667,
          "durationTicks": 91,
          "midi": 34,
          "name": "A#1",
          "ticks": 33960,
          "time": 117.916478,
          "velocity": 0.7716535433070866
        },
        {
          "duration": 0.3159717166666667,
          "durationTicks": 91,
          "midi": 34,
          "name": "A#1",
          "ticks": 34080,
          "time": 118.33314399999999,
          "velocity": 0.7716535433070866
        },
        {
          "duration": 0.3055550666666704,
          "durationTicks": 88,
          "midi": 34,
          "name": "A#1",
          "ticks": 34200,
          "time": 118.74981,
          "velocity": 0.7716535433070866
        },
        {
          "duration": 0.32638836666667714,
          "durationTicks": 94,
          "midi": 34,
          "name": "A#1",
          "ticks": 34320,
          "time": 119.16647599999999,
          "velocity": 0.7716535433070866
        },
        {
          "duration": 0.29166619999999455,
          "durationTicks": 84,
          "midi": 34,
          "name": "A#1",
          "ticks": 34440,
          "time": 119.583142,
          "velocity": 0.7716535433070866
        },
        {
          "duration": 0.3194439333333179,
          "durationTicks": 92,
          "midi": 34,
          "name": "A#1",
          "ticks": 34560,
          "time": 119.999808,
          "velocity": 0.8031496062992126
        },
        {
          "duration": 0.25694403333334037,
          "durationTicks": 74,
          "midi": 34,
          "name": "A#1",
          "ticks": 34680,
          "time": 120.416474,
          "velocity": 0.7716535433070866
        },
        {
          "duration": 0.302082850000005,
          "durationTicks": 87,
          "midi": 31,
          "name": "G1",
          "ticks": 34800,
          "time": 120.83314,
          "velocity": 0.8031496062992126
        },
        {
          "duration": 0.29166619999999455,
          "durationTicks": 84,
          "midi": 31,
          "name": "G1",
          "ticks": 34920,
          "time": 121.24980599999999,
          "velocity": 0.8031496062992126
        },
        {
          "duration": 0.30902728333333584,
          "durationTicks": 89,
          "midi": 31,
          "name": "G1",
          "ticks": 35040,
          "time": 121.666472,
          "velocity": 0.7716535433070866
        },
        {
          "duration": 0.31249950000000126,
          "durationTicks": 90,
          "midi": 31,
          "name": "G1",
          "ticks": 35160,
          "time": 122.08313799999999,
          "velocity": 0.7322834645669292
        },
        {
          "duration": 0.3229161499999833,
          "durationTicks": 93,
          "midi": 31,
          "name": "G1",
          "ticks": 35280,
          "time": 122.499804,
          "velocity": 0.7716535433070866
        },
        {
          "duration": 0.333332800000008,
          "durationTicks": 96,
          "midi": 31,
          "name": "G1",
          "ticks": 35400,
          "time": 122.91646999999999,
          "velocity": 0.8031496062992126
        },
        {
          "duration": 0.3055550666666704,
          "durationTicks": 88,
          "midi": 31,
          "name": "G1",
          "ticks": 35520,
          "time": 123.333136,
          "velocity": 0.7007874015748031
        },
        {
          "duration": 0.3194439333333321,
          "durationTicks": 92,
          "midi": 31,
          "name": "G1",
          "ticks": 35640,
          "time": 123.74980199999999,
          "velocity": 0.7322834645669292
        },
        {
          "duration": 0.3368050166666734,
          "durationTicks": 97,
          "midi": 33,
          "name": "A1",
          "ticks": 35760,
          "time": 124.166468,
          "velocity": 0.7716535433070866
        },
        {
          "duration": 0.28819398333332913,
          "durationTicks": 83,
          "midi": 33,
          "name": "A1",
          "ticks": 35880,
          "time": 124.583134,
          "velocity": 0.7322834645669292
        },
        {
          "duration": 0.29513841666665996,
          "durationTicks": 85,
          "midi": 33,
          "name": "A1",
          "ticks": 36000,
          "time": 124.9998,
          "velocity": 0.8031496062992126
        },
        {
          "duration": 0.29166619999999455,
          "durationTicks": 84,
          "midi": 33,
          "name": "A1",
          "ticks": 36120,
          "time": 125.416466,
          "velocity": 0.8031496062992126
        },
        {
          "duration": 0.29166619999999455,
          "durationTicks": 84,
          "midi": 33,
          "name": "A1",
          "ticks": 36240,
          "time": 125.83313199999999,
          "velocity": 0.8031496062992126
        },
        {
          "duration": 0.30902728333333584,
          "durationTicks": 89,
          "midi": 33,
          "name": "A1",
          "ticks": 36360,
          "time": 126.249798,
          "velocity": 0.8031496062992126
        },
        {
          "duration": 0.2777773333333471,
          "durationTicks": 80,
          "midi": 33,
          "name": "A1",
          "ticks": 36480,
          "time": 126.66646399999999,
          "velocity": 0.8031496062992126
        },
        {
          "duration": 0.21180521666666152,
          "durationTicks": 61,
          "midi": 33,
          "name": "A1",
          "ticks": 36600,
          "time": 127.08313,
          "velocity": 0.84251968503937
        },
        {
          "duration": 0.333332800000008,
          "durationTicks": 96,
          "midi": 28,
          "name": "E1",
          "ticks": 36720,
          "time": 127.49979599999999,
          "velocity": 0.84251968503937
        },
        {
          "duration": 0.3229161499999975,
          "durationTicks": 93,
          "midi": 28,
          "name": "E1",
          "ticks": 36840,
          "time": 127.916462,
          "velocity": 0.8031496062992126
        },
        {
          "duration": 0.3229161499999975,
          "durationTicks": 93,
          "midi": 28,
          "name": "E1",
          "ticks": 36960,
          "time": 128.333128,
          "velocity": 0.84251968503937
        },
        {
          "duration": 0.32986058333335677,
          "durationTicks": 95,
          "midi": 28,
          "name": "E1",
          "ticks": 37080,
          "time": 128.74979399999998,
          "velocity": 0.84251968503937
        },
        {
          "duration": 0.3159717166666667,
          "durationTicks": 91,
          "midi": 28,
          "name": "E1",
          "ticks": 37200,
          "time": 129.16646,
          "velocity": 0.84251968503937
        },
        {
          "duration": 0.32986058333332835,
          "durationTicks": 95,
          "midi": 28,
          "name": "E1",
          "ticks": 37320,
          "time": 129.583126,
          "velocity": 0.8031496062992126
        },
        {
          "duration": 0.32986058333335677,
          "durationTicks": 95,
          "midi": 28,
          "name": "E1",
          "ticks": 37440,
          "time": 129.99979199999999,
          "velocity": 0.84251968503937
        },
        {
          "duration": 0.3368050166666592,
          "durationTicks": 97,
          "midi": 28,
          "name": "E1",
          "ticks": 37560,
          "time": 130.416458,
          "velocity": 0.8031496062992126
        },
        {
          "duration": 0.3055550666666704,
          "durationTicks": 88,
          "midi": 35,
          "name": "B1",
          "ticks": 37680,
          "time": 130.833124,
          "velocity": 0.7322834645669292
        },
        {
          "duration": 0.34374944999999,
          "durationTicks": 99,
          "midi": 35,
          "name": "B1",
          "ticks": 37800,
          "time": 131.24979,
          "velocity": 0.7322834645669292
        },
        {
          "duration": 0.3055550666666704,
          "durationTicks": 88,
          "midi": 35,
          "name": "B1",
          "ticks": 37920,
          "time": 131.66645599999998,
          "velocity": 0.7716535433070866
        },
        {
          "duration": 0.33333279999999377,
          "durationTicks": 96,
          "midi": 35,
          "name": "B1",
          "ticks": 38040,
          "time": 132.083122,
          "velocity": 0.7322834645669292
        },
        {
          "duration": 0.28819398333334334,
          "durationTicks": 83,
          "midi": 35,
          "name": "B1",
          "ticks": 38160,
          "time": 132.499788,
          "velocity": 0.7716535433070866
        },
        {
          "duration": 0.302082850000005,
          "durationTicks": 87,
          "midi": 35,
          "name": "B1",
          "ticks": 38280,
          "time": 132.916454,
          "velocity": 0.7322834645669292
        },
        {
          "duration": 0.29861063333331117,
          "durationTicks": 86,
          "midi": 35,
          "name": "B1",
          "ticks": 38400,
          "time": 133.33312,
          "velocity": 0.8031496062992126
        },
        {
          "duration": 0.3923604833333343,
          "durationTicks": 113,
          "midi": 35,
          "name": "B1",
          "ticks": 38520,
          "time": 133.749786,
          "velocity": 0.84251968503937
        },
        {
          "duration": 0.34374944999999,
          "durationTicks": 99,
          "midi": 28,
          "name": "E1",
          "ticks": 38640,
          "time": 134.166452,
          "velocity": 0.84251968503937
        },
        {
          "duration": 0.32638836666669135,
          "durationTicks": 94,
          "midi": 28,
          "name": "E1",
          "ticks": 38760,
          "time": 134.58311799999998,
          "velocity": 0.84251968503937
        },
        {
          "duration": 0.3611105333333171,
          "durationTicks": 104,
          "midi": 28,
          "name": "E1",
          "ticks": 38880,
          "time": 134.999784,
          "velocity": 0.8031496062992126
        },
        {
          "duration": 0.35069388333332085,
          "durationTicks": 101,
          "midi": 28,
          "name": "E1",
          "ticks": 39000,
          "time": 135.41645,
          "velocity": 0.8031496062992126
        },
        {
          "duration": 0.3958326999999997,
          "durationTicks": 114,
          "midi": 28,
          "name": "E1",
          "ticks": 39120,
          "time": 135.833116,
          "velocity": 0.84251968503937
        },
        {
          "duration": 0.4062493500000244,
          "durationTicks": 117,
          "midi": 40,
          "name": "E2",
          "ticks": 39240,
          "time": 136.24978199999998,
          "velocity": 0.84251968503937
        },
        {
          "duration": 0.34722166666665544,
          "durationTicks": 100,
          "midi": 28,
          "name": "E1",
          "ticks": 39360,
          "time": 136.666448,
          "velocity": 0.8031496062992126
        },
        {
          "duration": 0.36111053333334553,
          "durationTicks": 104,
          "midi": 28,
          "name": "E1",
          "ticks": 39480,
          "time": 137.083114,
          "velocity": 0.84251968503937
        },
        {
          "duration": 0.32986058333335677,
          "durationTicks": 95,
          "midi": 35,
          "name": "B1",
          "ticks": 39600,
          "time": 137.49978,
          "velocity": 0.7007874015748031
        },
        {
          "duration": 0.3229161499999691,
          "durationTicks": 93,
          "midi": 35,
          "name": "B1",
          "ticks": 39720,
          "time": 137.916446,
          "velocity": 0.8031496062992126
        },
        {
          "duration": 0.3055550666666704,
          "durationTicks": 88,
          "midi": 35,
          "name": "B1",
          "ticks": 39840,
          "time": 138.333112,
          "velocity": 0.7716535433070866
        },
        {
          "duration": 0.29861063333331117,
          "durationTicks": 86,
          "midi": 35,
          "name": "B1",
          "ticks": 39960,
          "time": 138.749778,
          "velocity": 0.7716535433070866
        },
        {
          "duration": 0.3055550666666704,
          "durationTicks": 88,
          "midi": 35,
          "name": "B1",
          "ticks": 40080,
          "time": 139.16644399999998,
          "velocity": 0.7716535433070866
        },
        {
          "duration": 0.30902728333333584,
          "durationTicks": 89,
          "midi": 35,
          "name": "B1",
          "ticks": 40200,
          "time": 139.58311,
          "velocity": 0.7716535433070866
        },
        {
          "duration": 0.3159717166666667,
          "durationTicks": 91,
          "midi": 35,
          "name": "B1",
          "ticks": 40320,
          "time": 139.999776,
          "velocity": 0.7716535433070866
        },
        {
          "duration": 0.22916630000000282,
          "durationTicks": 66,
          "midi": 35,
          "name": "B1",
          "ticks": 40440,
          "time": 140.416442,
          "velocity": 0.84251968503937
        },
        {
          "duration": 0.30902728333333584,
          "durationTicks": 89,
          "midi": 41,
          "name": "F2",
          "ticks": 40560,
          "time": 140.83310799999998,
          "velocity": 0.84251968503937
        },
        {
          "duration": 0.3645827499999825,
          "durationTicks": 105,
          "midi": 41,
          "name": "F2",
          "ticks": 40680,
          "time": 141.249774,
          "velocity": 0.7322834645669292
        },
        {
          "duration": 0.3402772333333246,
          "durationTicks": 98,
          "midi": 41,
          "name": "F2",
          "ticks": 40800,
          "time": 141.66644,
          "velocity": 0.7322834645669292
        },
        {
          "duration": 0.34374944999999,
          "durationTicks": 99,
          "midi": 41,
          "name": "F2",
          "ticks": 40920,
          "time": 142.083106,
          "velocity": 0.7322834645669292
        },
        {
          "duration": 0.33333279999999377,
          "durationTicks": 96,
          "midi": 41,
          "name": "F2",
          "ticks": 41040,
          "time": 142.499772,
          "velocity": 0.8031496062992126
        },
        {
          "duration": 0.33333279999999377,
          "durationTicks": 96,
          "midi": 41,
          "name": "F2",
          "ticks": 41160,
          "time": 142.916438,
          "velocity": 0.7716535433070866
        },
        {
          "duration": 0.3194439333333321,
          "durationTicks": 92,
          "midi": 41,
          "name": "F2",
          "ticks": 41280,
          "time": 143.333104,
          "velocity": 0.7716535433070866
        },
        {
          "duration": 0.4097215666666898,
          "durationTicks": 118,
          "midi": 41,
          "name": "F2",
          "ticks": 41400,
          "time": 143.74976999999998,
          "velocity": 0.84251968503937
        },
        {
          "duration": 0.32986058333332835,
          "durationTicks": 95,
          "midi": 36,
          "name": "C2",
          "ticks": 41520,
          "time": 144.166436,
          "velocity": 0.7007874015748031
        },
        {
          "duration": 0.31249950000000126,
          "durationTicks": 90,
          "midi": 36,
          "name": "C2",
          "ticks": 41640,
          "time": 144.583102,
          "velocity": 0.7716535433070866
        },
        {
          "duration": 0.302082850000005,
          "durationTicks": 87,
          "midi": 36,
          "name": "C2",
          "ticks": 41760,
          "time": 144.999768,
          "velocity": 0.7322834645669292
        },
        {
          "duration": 0.32986058333335677,
          "durationTicks": 95,
          "midi": 36,
          "name": "C2",
          "ticks": 41880,
          "time": 145.41643399999998,
          "velocity": 0.7322834645669292
        },
        {
          "duration": 0.3055550666666704,
          "durationTicks": 88,
          "midi": 36,
          "name": "C2",
          "ticks": 42000,
          "time": 145.8331,
          "velocity": 0.7007874015748031
        },
        {
          "duration": 0.2812495500000125,
          "durationTicks": 81,
          "midi": 36,
          "name": "C2",
          "ticks": 42120,
          "time": 146.249766,
          "velocity": 0.8031496062992126
        },
        {
          "duration": 0.340277233333353,
          "durationTicks": 98,
          "midi": 36,
          "name": "C2",
          "ticks": 42240,
          "time": 146.666432,
          "velocity": 0.7716535433070866
        },
        {
          "duration": 0.3576383166666517,
          "durationTicks": 103,
          "midi": 36,
          "name": "C2",
          "ticks": 42360,
          "time": 147.083098,
          "velocity": 0.7716535433070866
        },
        {
          "duration": 0.35069388333332085,
          "durationTicks": 101,
          "midi": 38,
          "name": "D2",
          "ticks": 42480,
          "time": 147.499764,
          "velocity": 0.889763779527559
        },
        {
          "duration": 0.3055550666666704,
          "durationTicks": 88,
          "midi": 38,
          "name": "D2",
          "ticks": 42600,
          "time": 147.91643,
          "velocity": 0.84251968503937
        },
        {
          "duration": 0.26736068333335083,
          "durationTicks": 77,
          "midi": 38,
          "name": "D2",
          "ticks": 42720,
          "time": 148.33309599999998,
          "velocity": 0.7716535433070866
        },
        {
          "duration": 0.3229161499999691,
          "durationTicks": 93,
          "midi": 38,
          "name": "D2",
          "ticks": 42840,
          "time": 148.749762,
          "velocity": 0.7716535433070866
        },
        {
          "duration": 0.3055550666666704,
          "durationTicks": 88,
          "midi": 38,
          "name": "D2",
          "ticks": 42960,
          "time": 149.166428,
          "velocity": 0.8031496062992126
        },
        {
          "duration": 0.22916630000000282,
          "durationTicks": 66,
          "midi": 38,
          "name": "D2",
          "ticks": 43080,
          "time": 149.583094,
          "velocity": 0.889763779527559
        },
        {
          "duration": 0.3576383166666801,
          "durationTicks": 103,
          "midi": 34,
          "name": "A#1",
          "ticks": 43200,
          "time": 149.99975999999998,
          "velocity": 0.84251968503937
        },
        {
          "duration": 0.3159717166666667,
          "durationTicks": 91,
          "midi": 34,
          "name": "A#1",
          "ticks": 43320,
          "time": 150.416426,
          "velocity": 0.7716535433070866
        },
        {
          "duration": 0.3159717166666667,
          "durationTicks": 91,
          "midi": 34,
          "name": "A#1",
          "ticks": 43440,
          "time": 150.833092,
          "velocity": 0.7716535433070866
        },
        {
          "duration": 0.3055550666666704,
          "durationTicks": 88,
          "midi": 34,
          "name": "A#1",
          "ticks": 43560,
          "time": 151.24975799999999,
          "velocity": 0.7716535433070866
        },
        {
          "duration": 0.32638836666666293,
          "durationTicks": 94,
          "midi": 34,
          "name": "A#1",
          "ticks": 43680,
          "time": 151.666424,
          "velocity": 0.7716535433070866
        },
        {
          "duration": 0.29166619999998034,
          "durationTicks": 84,
          "midi": 34,
          "name": "A#1",
          "ticks": 43800,
          "time": 152.08309,
          "velocity": 0.7716535433070866
        },
        {
          "duration": 0.3194439333333321,
          "durationTicks": 92,
          "midi": 34,
          "name": "A#1",
          "ticks": 43920,
          "time": 152.499756,
          "velocity": 0.8031496062992126
        },
        {
          "duration": 0.2569440333333546,
          "durationTicks": 74,
          "midi": 34,
          "name": "A#1",
          "ticks": 44040,
          "time": 152.91642199999998,
          "velocity": 0.7716535433070866
        },
        {
          "duration": 0.302082850000005,
          "durationTicks": 87,
          "midi": 31,
          "name": "G1",
          "ticks": 44160,
          "time": 153.333088,
          "velocity": 0.8031496062992126
        },
        {
          "duration": 0.29166619999998034,
          "durationTicks": 84,
          "midi": 31,
          "name": "G1",
          "ticks": 44280,
          "time": 153.749754,
          "velocity": 0.8031496062992126
        },
        {
          "duration": 0.30902728333333584,
          "durationTicks": 89,
          "midi": 31,
          "name": "G1",
          "ticks": 44400,
          "time": 154.16642,
          "velocity": 0.7716535433070866
        },
        {
          "duration": 0.31249950000000126,
          "durationTicks": 90,
          "midi": 31,
          "name": "G1",
          "ticks": 44520,
          "time": 154.58308599999998,
          "velocity": 0.7322834645669292
        },
        {
          "duration": 0.3229161499999691,
          "durationTicks": 93,
          "midi": 31,
          "name": "G1",
          "ticks": 44640,
          "time": 154.999752,
          "velocity": 0.7716535433070866
        },
        {
          "duration": 0.33333279999999377,
          "durationTicks": 96,
          "midi": 31,
          "name": "G1",
          "ticks": 44760,
          "time": 155.416418,
          "velocity": 0.8031496062992126
        },
        {
          "duration": 0.3055550666666704,
          "durationTicks": 88,
          "midi": 31,
          "name": "G1",
          "ticks": 44880,
          "time": 155.83308399999999,
          "velocity": 0.7007874015748031
        },
        {
          "duration": 0.3194439333333037,
          "durationTicks": 92,
          "midi": 31,
          "name": "G1",
          "ticks": 45000,
          "time": 156.24975,
          "velocity": 0.7322834645669292
        },
        {
          "duration": 0.3368050166666592,
          "durationTicks": 97,
          "midi": 33,
          "name": "A1",
          "ticks": 45120,
          "time": 156.666416,
          "velocity": 0.7716535433070866
        },
        {
          "duration": 0.28819398333334334,
          "durationTicks": 83,
          "midi": 33,
          "name": "A1",
          "ticks": 45240,
          "time": 157.083082,
          "velocity": 0.7322834645669292
        },
        {
          "duration": 0.2951384166666742,
          "durationTicks": 85,
          "midi": 33,
          "name": "A1",
          "ticks": 45360,
          "time": 157.49974799999998,
          "velocity": 0.8031496062992126
        },
        {
          "duration": 0.29166619999998034,
          "durationTicks": 84,
          "midi": 33,
          "name": "A1",
          "ticks": 45480,
          "time": 157.916414,
          "velocity": 0.8031496062992126
        },
        {
          "duration": 0.29166619999998034,
          "durationTicks": 84,
          "midi": 33,
          "name": "A1",
          "ticks": 45600,
          "time": 158.33308,
          "velocity": 0.8031496062992126
        },
        {
          "duration": 0.30902728333333584,
          "durationTicks": 89,
          "midi": 33,
          "name": "A1",
          "ticks": 45720,
          "time": 158.749746,
          "velocity": 0.8031496062992126
        },
        {
          "duration": 0.2777773333333471,
          "durationTicks": 80,
          "midi": 33,
          "name": "A1",
          "ticks": 45840,
          "time": 159.16641199999998,
          "velocity": 0.8031496062992126
        },
        {
          "duration": 0.2118052166666473,
          "durationTicks": 61,
          "midi": 33,
          "name": "A1",
          "ticks": 45960,
          "time": 159.583078,
          "velocity": 0.84251968503937
        },
        {
          "duration": 0.32638836666669135,
          "durationTicks": 94,
          "midi": 38,
          "name": "D2",
          "ticks": 46080,
          "time": 159.999744,
          "velocity": 0.84251968503937
        },
        {
          "duration": 0.3368050166666876,
          "durationTicks": 97,
          "midi": 38,
          "name": "D2",
          "ticks": 46200,
          "time": 160.41640999999998,
          "velocity": 0.84251968503937
        },
        {
          "duration": 0.34722166666665544,
          "durationTicks": 100,
          "midi": 38,
          "name": "D2",
          "ticks": 46320,
          "time": 160.833076,
          "velocity": 0.7716535433070866
        },
        {
          "duration": 0.3993049166666651,
          "durationTicks": 115,
          "midi": 38,
          "name": "D2",
          "ticks": 46440,
          "time": 161.249742,
          "velocity": 0.7716535433070866
        },
        {
          "duration": 0.3368050166666592,
          "durationTicks": 97,
          "midi": 29,
          "name": "F1",
          "ticks": 46560,
          "time": 161.666408,
          "velocity": 0.7322834645669292
        },
        {
          "duration": 0.3194439333333321,
          "durationTicks": 92,
          "midi": 29,
          "name": "F1",
          "ticks": 46680,
          "time": 162.08307399999998,
          "velocity": 0.8031496062992126
        },
        {
          "duration": 0.3159717166666667,
          "durationTicks": 91,
          "midi": 29,
          "name": "F1",
          "ticks": 46800,
          "time": 162.49974,
          "velocity": 0.7322834645669292
        },
        {
          "duration": 0.29166619999998034,
          "durationTicks": 84,
          "midi": 29,
          "name": "F1",
          "ticks": 46920,
          "time": 162.916406,
          "velocity": 0.7322834645669292
        },
        {
          "duration": 0.34374944999999,
          "durationTicks": 99,
          "midi": 31,
          "name": "G1",
          "ticks": 47040,
          "time": 163.333072,
          "velocity": 0.7716535433070866
        },
        {
          "duration": 0.31249950000000126,
          "durationTicks": 90,
          "midi": 31,
          "name": "G1",
          "ticks": 47160,
          "time": 163.74973799999998,
          "velocity": 0.7007874015748031
        },
        {
          "duration": 0.29861063333331117,
          "durationTicks": 86,
          "midi": 31,
          "name": "G1",
          "ticks": 47280,
          "time": 164.166404,
          "velocity": 0.7716535433070866
        },
        {
          "duration": 0.34722166666665544,
          "durationTicks": 100,
          "midi": 31,
          "name": "G1",
          "ticks": 47400,
          "time": 164.58307,
          "velocity": 0.7716535433070866
        },
        {
          "duration": 0.3055550666666704,
          "durationTicks": 88,
          "midi": 34,
          "name": "A#1",
          "ticks": 47520,
          "time": 164.99973599999998,
          "velocity": 0.7007874015748031
        },
        {
          "duration": 0.32986058333332835,
          "durationTicks": 95,
          "midi": 34,
          "name": "A#1",
          "ticks": 47640,
          "time": 165.416402,
          "velocity": 0.7322834645669292
        },
        {
          "duration": 0.29513841666664575,
          "durationTicks": 85,
          "midi": 34,
          "name": "A#1",
          "ticks": 47760,
          "time": 165.833068,
          "velocity": 0.8031496062992126
        },
        {
          "duration": 0.23611073333333366,
          "durationTicks": 68,
          "midi": 34,
          "name": "A#1",
          "ticks": 47880,
          "time": 166.249734,
          "velocity": 0.7322834645669292
        },
        {
          "duration": 0.3229161499999975,
          "durationTicks": 93,
          "midi": 38,
          "name": "D2",
          "ticks": 48000,
          "time": 166.66639999999998,
          "velocity": 0.7322834645669292
        },
        {
          "duration": 0.0034722166666654175,
          "durationTicks": 1,
          "midi": 114,
          "name": "F#8",
          "ticks": 48000,
          "time": 166.66639999999998,
          "velocity": 0.007874015748031496
        },
        {
          "duration": 0.3194439333333037,
          "durationTicks": 92,
          "midi": 38,
          "name": "D2",
          "ticks": 48120,
          "time": 167.083066,
          "velocity": 0.7007874015748031
        },
        {
          "duration": 0.32638836666666293,
          "durationTicks": 94,
          "midi": 38,
          "name": "D2",
          "ticks": 48240,
          "time": 167.499732,
          "velocity": 0.7007874015748031
        },
        {
          "duration": 0.4166659999999922,
          "durationTicks": 120,
          "midi": 38,
          "name": "D2",
          "ticks": 48360,
          "time": 167.916398,
          "velocity": 0.7322834645669292
        },
        {
          "duration": 0.30555506666669885,
          "durationTicks": 88,
          "midi": 29,
          "name": "F1",
          "ticks": 48480,
          "time": 168.33306399999998,
          "velocity": 0.7007874015748031
        },
        {
          "duration": 0.34722166666665544,
          "durationTicks": 100,
          "midi": 29,
          "name": "F1",
          "ticks": 48600,
          "time": 168.74973,
          "velocity": 0.7322834645669292
        },
        {
          "duration": 0.3229161499999975,
          "durationTicks": 93,
          "midi": 29,
          "name": "F1",
          "ticks": 48720,
          "time": 169.166396,
          "velocity": 0.7322834645669292
        },
        {
          "duration": 0.302082850000005,
          "durationTicks": 87,
          "midi": 29,
          "name": "F1",
          "ticks": 48840,
          "time": 169.58306199999998,
          "velocity": 0.8031496062992126
        },
        {
          "duration": 0.31597171666663826,
          "durationTicks": 91,
          "midi": 31,
          "name": "G1",
          "ticks": 48960,
          "time": 169.999728,
          "velocity": 0.8031496062992126
        },
        {
          "duration": 0.33333279999999377,
          "durationTicks": 96,
          "midi": 31,
          "name": "G1",
          "ticks": 49080,
          "time": 170.416394,
          "velocity": 0.7716535433070866
        },
        {
          "duration": 0.30902728333333584,
          "durationTicks": 89,
          "midi": 31,
          "name": "G1",
          "ticks": 49200,
          "time": 170.83306,
          "velocity": 0.84251968503937
        },
        {
          "duration": 0.32986058333335677,
          "durationTicks": 95,
          "midi": 31,
          "name": "G1",
          "ticks": 49320,
          "time": 171.24972599999998,
          "velocity": 0.7716535433070866
        },
        {
          "duration": 0.3229161499999691,
          "durationTicks": 93,
          "midi": 34,
          "name": "A#1",
          "ticks": 49440,
          "time": 171.666392,
          "velocity": 0.7716535433070866
        },
        {
          "duration": 0.29861063333331117,
          "durationTicks": 86,
          "midi": 34,
          "name": "A#1",
          "ticks": 49560,
          "time": 172.083058,
          "velocity": 0.8031496062992126
        },
        {
          "duration": 0.1493053166666698,
          "durationTicks": 43,
          "midi": 34,
          "name": "A#1",
          "ticks": 49680,
          "time": 172.499724,
          "velocity": 0.84251968503937
        },
        {
          "duration": 0.32638836666666293,
          "durationTicks": 94,
          "midi": 38,
          "name": "D2",
          "ticks": 49920,
          "time": 173.333056,
          "velocity": 0.84251968503937
        },
        {
          "duration": 0.3368050166666592,
          "durationTicks": 97,
          "midi": 38,
          "name": "D2",
          "ticks": 50040,
          "time": 173.749722,
          "velocity": 0.84251968503937
        },
        {
          "duration": 0.34722166666665544,
          "durationTicks": 100,
          "midi": 38,
          "name": "D2",
          "ticks": 50160,
          "time": 174.16638799999998,
          "velocity": 0.7716535433070866
        },
        {
          "duration": 0.3993049166666367,
          "durationTicks": 115,
          "midi": 38,
          "name": "D2",
          "ticks": 50280,
          "time": 174.583054,
          "velocity": 0.7716535433070866
        },
        {
          "duration": 0.3368050166666592,
          "durationTicks": 97,
          "midi": 29,
          "name": "F1",
          "ticks": 50400,
          "time": 174.99972,
          "velocity": 0.7322834645669292
        },
        {
          "duration": 0.3194439333333321,
          "durationTicks": 92,
          "midi": 29,
          "name": "F1",
          "ticks": 50520,
          "time": 175.416386,
          "velocity": 0.8031496062992126
        },
        {
          "duration": 0.3159717166666667,
          "durationTicks": 91,
          "midi": 29,
          "name": "F1",
          "ticks": 50640,
          "time": 175.83305199999998,
          "velocity": 0.7322834645669292
        },
        {
          "duration": 0.29166619999998034,
          "durationTicks": 84,
          "midi": 29,
          "name": "F1",
          "ticks": 50760,
          "time": 176.249718,
          "velocity": 0.7322834645669292
        },
        {
          "duration": 0.34374944999999,
          "durationTicks": 99,
          "midi": 31,
          "name": "G1",
          "ticks": 50880,
          "time": 176.666384,
          "velocity": 0.7716535433070866
        },
        {
          "duration": 0.31249950000000126,
          "durationTicks": 90,
          "midi": 31,
          "name": "G1",
          "ticks": 51000,
          "time": 177.08305,
          "velocity": 0.7007874015748031
        },
        {
          "duration": 0.2986106333333396,
          "durationTicks": 86,
          "midi": 31,
          "name": "G1",
          "ticks": 51120,
          "time": 177.49971599999998,
          "velocity": 0.7716535433070866
        },
        {
          "duration": 0.34722166666665544,
          "durationTicks": 100,
          "midi": 31,
          "name": "G1",
          "ticks": 51240,
          "time": 177.916382,
          "velocity": 0.7716535433070866
        },
        {
          "duration": 0.3055550666666704,
          "durationTicks": 88,
          "midi": 34,
          "name": "A#1",
          "ticks": 51360,
          "time": 178.333048,
          "velocity": 0.7007874015748031
        },
        {
          "duration": 0.32986058333335677,
          "durationTicks": 95,
          "midi": 34,
          "name": "A#1",
          "ticks": 51480,
          "time": 178.74971399999998,
          "velocity": 0.7322834645669292
        },
        {
          "duration": 0.29513841666664575,
          "durationTicks": 85,
          "midi": 34,
          "name": "A#1",
          "ticks": 51600,
          "time": 179.16638,
          "velocity": 0.8031496062992126
        },
        {
          "duration": 0.23611073333333366,
          "durationTicks": 68,
          "midi": 34,
          "name": "A#1",
          "ticks": 51720,
          "time": 179.583046,
          "velocity": 0.7322834645669292
        },
        {
          "duration": 0.3229161499999975,
          "durationTicks": 93,
          "midi": 38,
          "name": "D2",
          "ticks": 51840,
          "time": 179.999712,
          "velocity": 0.7322834645669292
        },
        {
          "duration": 0.3194439333333321,
          "durationTicks": 92,
          "midi": 38,
          "name": "D2",
          "ticks": 51960,
          "time": 180.41637799999998,
          "velocity": 0.7007874015748031
        },
        {
          "duration": 0.32638836666666293,
          "durationTicks": 94,
          "midi": 38,
          "name": "D2",
          "ticks": 52080,
          "time": 180.833044,
          "velocity": 0.7007874015748031
        },
        {
          "duration": 0.4166659999999922,
          "durationTicks": 120,
          "midi": 38,
          "name": "D2",
          "ticks": 52200,
          "time": 181.24971,
          "velocity": 0.7322834645669292
        },
        {
          "duration": 0.3055550666666704,
          "durationTicks": 88,
          "midi": 29,
          "name": "F1",
          "ticks": 52320,
          "time": 181.66637599999999,
          "velocity": 0.7007874015748031
        },
        {
          "duration": 0.34722166666668386,
          "durationTicks": 100,
          "midi": 29,
          "name": "F1",
          "ticks": 52440,
          "time": 182.08304199999998,
          "velocity": 0.7322834645669292
        },
        {
          "duration": 0.3229161499999975,
          "durationTicks": 93,
          "midi": 29,
          "name": "F1",
          "ticks": 52560,
          "time": 182.499708,
          "velocity": 0.7322834645669292
        },
        {
          "duration": 0.302082850000005,
          "durationTicks": 87,
          "midi": 29,
          "name": "F1",
          "ticks": 52680,
          "time": 182.916374,
          "velocity": 0.8031496062992126
        },
        {
          "duration": 0.3159717166666667,
          "durationTicks": 91,
          "midi": 31,
          "name": "G1",
          "ticks": 52800,
          "time": 183.33303999999998,
          "velocity": 0.8031496062992126
        },
        {
          "duration": 0.33333279999999377,
          "durationTicks": 96,
          "midi": 31,
          "name": "G1",
          "ticks": 52920,
          "time": 183.749706,
          "velocity": 0.7716535433070866
        },
        {
          "duration": 0.30902728333333584,
          "durationTicks": 89,
          "midi": 31,
          "name": "G1",
          "ticks": 53040,
          "time": 184.166372,
          "velocity": 0.84251968503937
        },
        {
          "duration": 0.32986058333335677,
          "durationTicks": 95,
          "midi": 31,
          "name": "G1",
          "ticks": 53160,
          "time": 184.583038,
          "velocity": 0.7716535433070866
        },
        {
          "duration": 0.3229161499999975,
          "durationTicks": 93,
          "midi": 34,
          "name": "A#1",
          "ticks": 53280,
          "time": 184.99970399999998,
          "velocity": 0.7716535433070866
        },
        {
          "duration": 0.29861063333331117,
          "durationTicks": 86,
          "midi": 34,
          "name": "A#1",
          "ticks": 53400,
          "time": 185.41637,
          "velocity": 0.8031496062992126
        },
        {
          "duration": 0.1493053166666698,
          "durationTicks": 43,
          "midi": 34,
          "name": "A#1",
          "ticks": 53520,
          "time": 185.833036,
          "velocity": 0.84251968503937
        },
        {
          "duration": 0.32638836666669135,
          "durationTicks": 94,
          "midi": 38,
          "name": "D2",
          "ticks": 53760,
          "time": 186.66636799999998,
          "velocity": 0.84251968503937
        },
        {
          "duration": 0.3368050166666592,
          "durationTicks": 97,
          "midi": 38,
          "name": "D2",
          "ticks": 53880,
          "time": 187.083034,
          "velocity": 0.84251968503937
        },
        {
          "duration": 0.34722166666665544,
          "durationTicks": 100,
          "midi": 38,
          "name": "D2",
          "ticks": 54000,
          "time": 187.4997,
          "velocity": 0.7716535433070866
        },
        {
          "duration": 0.3993049166666651,
          "durationTicks": 115,
          "midi": 38,
          "name": "D2",
          "ticks": 54120,
          "time": 187.91636599999998,
          "velocity": 0.7716535433070866
        },
        {
          "duration": 0.3368050166666592,
          "durationTicks": 97,
          "midi": 29,
          "name": "F1",
          "ticks": 54240,
          "time": 188.333032,
          "velocity": 0.7322834645669292
        },
        {
          "duration": 0.3194439333333321,
          "durationTicks": 92,
          "midi": 29,
          "name": "F1",
          "ticks": 54360,
          "time": 188.749698,
          "velocity": 0.8031496062992126
        },
        {
          "duration": 0.3159717166666667,
          "durationTicks": 91,
          "midi": 29,
          "name": "F1",
          "ticks": 54480,
          "time": 189.166364,
          "velocity": 0.7322834645669292
        },
        {
          "duration": 0.29166620000000876,
          "durationTicks": 84,
          "midi": 29,
          "name": "F1",
          "ticks": 54600,
          "time": 189.58302999999998,
          "velocity": 0.7322834645669292
        },
        {
          "duration": 0.34374944999999,
          "durationTicks": 99,
          "midi": 31,
          "name": "G1",
          "ticks": 54720,
          "time": 189.999696,
          "velocity": 0.7716535433070866
        },
        {
          "duration": 0.31249950000000126,
          "durationTicks": 90,
          "midi": 31,
          "name": "G1",
          "ticks": 54840,
          "time": 190.416362,
          "velocity": 0.7007874015748031
        },
        {
          "duration": 0.2986106333333396,
          "durationTicks": 86,
          "midi": 31,
          "name": "G1",
          "ticks": 54960,
          "time": 190.83302799999998,
          "velocity": 0.7716535433070866
        },
        {
          "duration": 0.34722166666665544,
          "durationTicks": 100,
          "midi": 31,
          "name": "G1",
          "ticks": 55080,
          "time": 191.249694,
          "velocity": 0.7716535433070866
        },
        {
          "duration": 0.3055550666666704,
          "durationTicks": 88,
          "midi": 34,
          "name": "A#1",
          "ticks": 55200,
          "time": 191.66636,
          "velocity": 0.7007874015748031
        },
        {
          "duration": 0.32986058333335677,
          "durationTicks": 95,
          "midi": 34,
          "name": "A#1",
          "ticks": 55320,
          "time": 192.083026,
          "velocity": 0.7322834645669292
        },
        {
          "duration": 0.2951384166666742,
          "durationTicks": 85,
          "midi": 34,
          "name": "A#1",
          "ticks": 55440,
          "time": 192.49969199999998,
          "velocity": 0.8031496062992126
        },
        {
          "duration": 0.23611073333333366,
          "durationTicks": 68,
          "midi": 34,
          "name": "A#1",
          "ticks": 55560,
          "time": 192.916358,
          "velocity": 0.7322834645669292
        },
        {
          "duration": 0.3229161499999975,
          "durationTicks": 93,
          "midi": 38,
          "name": "D2",
          "ticks": 55680,
          "time": 193.333024,
          "velocity": 0.7322834645669292
        },
        {
          "duration": 0.3194439333333321,
          "durationTicks": 92,
          "midi": 38,
          "name": "D2",
          "ticks": 55800,
          "time": 193.74969,
          "velocity": 0.7007874015748031
        },
        {
          "duration": 0.32638836666669135,
          "durationTicks": 94,
          "midi": 38,
          "name": "D2",
          "ticks": 55920,
          "time": 194.16635599999998,
          "velocity": 0.7007874015748031
        },
        {
          "duration": 0.4166659999999922,
          "durationTicks": 120,
          "midi": 38,
          "name": "D2",
          "ticks": 56040,
          "time": 194.583022,
          "velocity": 0.7322834645669292
        },
        {
          "duration": 0.3055550666666704,
          "durationTicks": 88,
          "midi": 29,
          "name": "F1",
          "ticks": 56160,
          "time": 194.999688,
          "velocity": 0.7007874015748031
        },
        {
          "duration": 0.34722166666665544,
          "durationTicks": 100,
          "midi": 29,
          "name": "F1",
          "ticks": 56280,
          "time": 195.41635399999998,
          "velocity": 0.7322834645669292
        },
        {
          "duration": 0.3229161499999691,
          "durationTicks": 93,
          "midi": 29,
          "name": "F1",
          "ticks": 56400,
          "time": 195.83302,
          "velocity": 0.7322834645669292
        },
        {
          "duration": 0.302082850000005,
          "durationTicks": 87,
          "midi": 29,
          "name": "F1",
          "ticks": 56520,
          "time": 196.249686,
          "velocity": 0.8031496062992126
        },
        {
          "duration": 0.3159717166666667,
          "durationTicks": 91,
          "midi": 31,
          "name": "G1",
          "ticks": 56640,
          "time": 196.666352,
          "velocity": 0.8031496062992126
        },
        {
          "duration": 0.3333328000000222,
          "durationTicks": 96,
          "midi": 31,
          "name": "G1",
          "ticks": 56760,
          "time": 197.08301799999998,
          "velocity": 0.7716535433070866
        },
        {
          "duration": 0.30902728333333584,
          "durationTicks": 89,
          "midi": 31,
          "name": "G1",
          "ticks": 56880,
          "time": 197.499684,
          "velocity": 0.84251968503937
        },
        {
          "duration": 0.32986058333332835,
          "durationTicks": 95,
          "midi": 31,
          "name": "G1",
          "ticks": 57000,
          "time": 197.91635,
          "velocity": 0.7716535433070866
        },
        {
          "duration": 0.32638836666669135,
          "durationTicks": 94,
          "midi": 34,
          "name": "A#1",
          "ticks": 57120,
          "time": 198.333016,
          "velocity": 0.84251968503937
        },
        {
          "duration": 0.25347181666668916,
          "durationTicks": 73,
          "midi": 34,
          "name": "A#1",
          "ticks": 57240,
          "time": 198.74968199999998,
          "velocity": 0.889763779527559
        },
        {
          "duration": 0.3611105333333171,
          "durationTicks": 104,
          "midi": 33,
          "name": "A1",
          "ticks": 57360,
          "time": 199.166348,
          "velocity": 0.889763779527559
        },
        {
          "duration": 0.20138856666667948,
          "durationTicks": 58,
          "midi": 38,
          "name": "D2",
          "ticks": 57480,
          "time": 199.583014,
          "velocity": 1
        },
        {
          "duration": 0.22222186666664356,
          "durationTicks": 64,
          "midi": 38,
          "name": "D2",
          "ticks": 57560,
          "time": 199.86079133333334,
          "velocity": 0.937007874015748
        }
      ]
    },
    {
      "channel": 0,
      "controlChanges": {
        "0": [
          {
            "number": 0,
            "ticks": 0,
            "time": 0,
            "value": 0
          }
        ],
        "7": [
          {
            "number": 7,
            "ticks": 0,
            "time": 0,
            "value": 0.7244094488188977
          }
        ],
        "10": [
          {
            "number": 10,
            "ticks": 0,
            "time": 0,
            "value": 0.25984251968503935
          }
        ],
        "32": [
          {
            "number": 32,
            "ticks": 0,
            "time": 0,
            "value": 0
          }
        ],
        "91": [
          {
            "number": 91,
            "ticks": 0,
            "time": 0,
            "value": 0.47244094488188976
          }
        ],
        "93": [
          {
            "number": 93,
            "ticks": 0,
            "time": 0,
            "value": 0.5275590551181102
          }
        ]
      },
      "pitchBends": [],
      "instrument": {
        "family": "piano",
        "number": 0,
        "name": "acoustic grand piano"
      },
      "name": "",
      "notes": [],
      "endOfTrackTicks": 57617
    },
    {
      "channel": 1,
      "controlChanges": {
        "64": [
          {
            "number": 64,
            "ticks": 1002,
            "time": 3.4791611,
            "value": 1
          },
          {
            "number": 64,
            "ticks": 1079,
            "time": 3.7465217833333333,
            "value": 0
          },
          {
            "number": 64,
            "ticks": 1211,
            "time": 4.204854383333333,
            "value": 1
          },
          {
            "number": 64,
            "ticks": 1300,
            "time": 4.513881666666666,
            "value": 0
          },
          {
            "number": 64,
            "ticks": 1461,
            "time": 5.07290855,
            "value": 1
          },
          {
            "number": 64,
            "ticks": 1522,
            "time": 5.284713766666666,
            "value": 0
          },
          {
            "number": 64,
            "ticks": 1701,
            "time": 5.90624055,
            "value": 1
          },
          {
            "number": 64,
            "ticks": 1795,
            "time": 6.232628916666666,
            "value": 0
          },
          {
            "number": 64,
            "ticks": 1942,
            "time": 6.743044766666666,
            "value": 1
          },
          {
            "number": 64,
            "ticks": 2024,
            "time": 7.027766533333333,
            "value": 0
          },
          {
            "number": 64,
            "ticks": 2165,
            "time": 7.517349083333333,
            "value": 1
          },
          {
            "number": 64,
            "ticks": 2231,
            "time": 7.746515383333333,
            "value": 0
          },
          {
            "number": 64,
            "ticks": 2400,
            "time": 8.33332,
            "value": 1
          },
          {
            "number": 64,
            "ticks": 2534,
            "time": 8.798597033333333,
            "value": 0
          },
          {
            "number": 64,
            "ticks": 2922,
            "time": 10.1458171,
            "value": 1
          },
          {
            "number": 64,
            "ticks": 2999,
            "time": 10.413177783333333,
            "value": 0
          },
          {
            "number": 64,
            "ticks": 3131,
            "time": 10.871510383333332,
            "value": 1
          },
          {
            "number": 64,
            "ticks": 3220,
            "time": 11.180537666666666,
            "value": 0
          },
          {
            "number": 64,
            "ticks": 3381,
            "time": 11.739564549999999,
            "value": 1
          },
          {
            "number": 64,
            "ticks": 3442,
            "time": 11.951369766666666,
            "value": 0
          },
          {
            "number": 64,
            "ticks": 3621,
            "time": 12.57289655,
            "value": 1
          },
          {
            "number": 64,
            "ticks": 3715,
            "time": 12.899284916666666,
            "value": 0
          },
          {
            "number": 64,
            "ticks": 3862,
            "time": 13.409700766666665,
            "value": 1
          },
          {
            "number": 64,
            "ticks": 3944,
            "time": 13.694422533333332,
            "value": 0
          },
          {
            "number": 64,
            "ticks": 4085,
            "time": 14.184005083333332,
            "value": 1
          },
          {
            "number": 64,
            "ticks": 4151,
            "time": 14.413171383333333,
            "value": 0
          },
          {
            "number": 64,
            "ticks": 4320,
            "time": 14.999976,
            "value": 1
          },
          {
            "number": 64,
            "ticks": 4454,
            "time": 15.465253033333333,
            "value": 0
          },
          {
            "number": 64,
            "ticks": 6156,
            "time": 21.3749658,
            "value": 1
          },
          {
            "number": 64,
            "ticks": 6613,
            "time": 22.961768816666666,
            "value": 0
          },
          {
            "number": 64,
            "ticks": 6660,
            "time": 23.124962999999997,
            "value": 1
          },
          {
            "number": 64,
            "ticks": 6697,
            "time": 23.253435016666664,
            "value": 0
          },
          {
            "number": 64,
            "ticks": 7446,
            "time": 25.854125299999996,
            "value": 1
          },
          {
            "number": 64,
            "ticks": 7672,
            "time": 26.638846266666665,
            "value": 0
          },
          {
            "number": 64,
            "ticks": 7938,
            "time": 27.5624559,
            "value": 1
          },
          {
            "number": 64,
            "ticks": 8014,
            "time": 27.826344366666664,
            "value": 0
          },
          {
            "number": 64,
            "ticks": 8081,
            "time": 28.058982883333332,
            "value": 1
          },
          {
            "number": 64,
            "ticks": 8621,
            "time": 29.933979883333333,
            "value": 0
          },
          {
            "number": 64,
            "ticks": 8759,
            "time": 30.41314578333333,
            "value": 1
          },
          {
            "number": 64,
            "ticks": 9115,
            "time": 31.649254916666663,
            "value": 0
          },
          {
            "number": 64,
            "ticks": 9172,
            "time": 31.847171266666667,
            "value": 1
          },
          {
            "number": 64,
            "ticks": 9586,
            "time": 33.284668966666665,
            "value": 0
          },
          {
            "number": 64,
            "ticks": 9646,
            "time": 33.49300196666667,
            "value": 1
          },
          {
            "number": 64,
            "ticks": 10060,
            "time": 34.93049966666666,
            "value": 0
          },
          {
            "number": 64,
            "ticks": 10112,
            "time": 35.11105493333333,
            "value": 1
          },
          {
            "number": 64,
            "ticks": 10483,
            "time": 36.39924731666667,
            "value": 0
          },
          {
            "number": 64,
            "ticks": 10607,
            "time": 36.82980218333333,
            "value": 1
          },
          {
            "number": 64,
            "ticks": 11037,
            "time": 38.32285535,
            "value": 0
          },
          {
            "number": 64,
            "ticks": 11084,
            "time": 38.48604953333333,
            "value": 1
          },
          {
            "number": 64,
            "ticks": 11516,
            "time": 39.98604713333333,
            "value": 0
          },
          {
            "number": 64,
            "ticks": 11575,
            "time": 40.19090791666666,
            "value": 1
          },
          {
            "number": 64,
            "ticks": 12004,
            "time": 41.680488866666664,
            "value": 0
          },
          {
            "number": 64,
            "ticks": 12055,
            "time": 41.857571916666664,
            "value": 1
          },
          {
            "number": 64,
            "ticks": 12458,
            "time": 43.25687523333333,
            "value": 0
          },
          {
            "number": 64,
            "ticks": 12527,
            "time": 43.49645818333333,
            "value": 1
          },
          {
            "number": 64,
            "ticks": 12957,
            "time": 44.989511349999994,
            "value": 0
          },
          {
            "number": 64,
            "ticks": 13004,
            "time": 45.152705533333325,
            "value": 1
          },
          {
            "number": 64,
            "ticks": 13436,
            "time": 46.65270313333333,
            "value": 0
          },
          {
            "number": 64,
            "ticks": 13495,
            "time": 46.85756391666666,
            "value": 1
          },
          {
            "number": 64,
            "ticks": 13924,
            "time": 48.34714486666666,
            "value": 0
          },
          {
            "number": 64,
            "ticks": 13975,
            "time": 48.52422791666666,
            "value": 1
          },
          {
            "number": 64,
            "ticks": 14378,
            "time": 49.92353123333333,
            "value": 0
          },
          {
            "number": 64,
            "ticks": 14442,
            "time": 50.14575309999999,
            "value": 1
          },
          {
            "number": 64,
            "ticks": 14519,
            "time": 50.41311378333333,
            "value": 0
          },
          {
            "number": 64,
            "ticks": 14651,
            "time": 50.87144638333333,
            "value": 1
          },
          {
            "number": 64,
            "ticks": 14740,
            "time": 51.180473666666664,
            "value": 0
          },
          {
            "number": 64,
            "ticks": 14901,
            "time": 51.739500549999995,
            "value": 1
          },
          {
            "number": 64,
            "ticks": 14962,
            "time": 51.951305766666664,
            "value": 0
          },
          {
            "number": 64,
            "ticks": 15141,
            "time": 52.572832549999994,
            "value": 1
          },
          {
            "number": 64,
            "ticks": 15235,
            "time": 52.899220916666664,
            "value": 0
          },
          {
            "number": 64,
            "ticks": 15382,
            "time": 53.409636766666665,
            "value": 1
          },
          {
            "number": 64,
            "ticks": 15464,
            "time": 53.694358533333336,
            "value": 0
          },
          {
            "number": 64,
            "ticks": 15605,
            "time": 54.18394108333333,
            "value": 1
          },
          {
            "number": 64,
            "ticks": 15671,
            "time": 54.41310738333333,
            "value": 0
          },
          {
            "number": 64,
            "ticks": 15840,
            "time": 54.999911999999995,
            "value": 1
          },
          {
            "number": 64,
            "ticks": 15974,
            "time": 55.46518903333333,
            "value": 0
          },
          {
            "number": 64,
            "ticks": 17676,
            "time": 61.3749018,
            "value": 1
          },
          {
            "number": 64,
            "ticks": 18133,
            "time": 62.96170481666666,
            "value": 0
          },
          {
            "number": 64,
            "ticks": 18180,
            "time": 63.124899,
            "value": 1
          },
          {
            "number": 64,
            "ticks": 18217,
            "time": 63.25337101666666,
            "value": 0
          },
          {
            "number": 64,
            "ticks": 18966,
            "time": 65.8540613,
            "value": 1
          },
          {
            "number": 64,
            "ticks": 19192,
            "time": 66.63878226666667,
            "value": 0
          },
          {
            "number": 64,
            "ticks": 19458,
            "time": 67.5623919,
            "value": 1
          },
          {
            "number": 64,
            "ticks": 19534,
            "time": 67.82628036666667,
            "value": 0
          },
          {
            "number": 64,
            "ticks": 19601,
            "time": 68.05891888333333,
            "value": 1
          },
          {
            "number": 64,
            "ticks": 20141,
            "time": 69.93391588333333,
            "value": 0
          },
          {
            "number": 64,
            "ticks": 20279,
            "time": 70.41308178333334,
            "value": 1
          },
          {
            "number": 64,
            "ticks": 20635,
            "time": 71.64919091666667,
            "value": 0
          },
          {
            "number": 64,
            "ticks": 20692,
            "time": 71.84710726666667,
            "value": 1
          },
          {
            "number": 64,
            "ticks": 21106,
            "time": 73.28460496666666,
            "value": 0
          },
          {
            "number": 64,
            "ticks": 21166,
            "time": 73.49293796666666,
            "value": 1
          },
          {
            "number": 64,
            "ticks": 21580,
            "time": 74.93043566666667,
            "value": 0
          },
          {
            "number": 64,
            "ticks": 21632,
            "time": 75.11099093333334,
            "value": 1
          },
          {
            "number": 64,
            "ticks": 22003,
            "time": 76.39918331666665,
            "value": 0
          },
          {
            "number": 64,
            "ticks": 22054,
            "time": 76.57626636666666,
            "value": 1
          },
          {
            "number": 64,
            "ticks": 22526,
            "time": 78.21515263333333,
            "value": 0
          },
          {
            "number": 64,
            "ticks": 22607,
            "time": 78.49640218333333,
            "value": 1
          },
          {
            "number": 64,
            "ticks": 23037,
            "time": 79.98945535,
            "value": 0
          },
          {
            "number": 64,
            "ticks": 23084,
            "time": 80.15264953333333,
            "value": 1
          },
          {
            "number": 64,
            "ticks": 23516,
            "time": 81.65264713333333,
            "value": 0
          },
          {
            "number": 64,
            "ticks": 23575,
            "time": 81.85750791666666,
            "value": 1
          },
          {
            "number": 64,
            "ticks": 24004,
            "time": 83.34708886666667,
            "value": 0
          },
          {
            "number": 64,
            "ticks": 24055,
            "time": 83.52417191666666,
            "value": 1
          },
          {
            "number": 64,
            "ticks": 24458,
            "time": 84.92347523333333,
            "value": 0
          },
          {
            "number": 64,
            "ticks": 24527,
            "time": 85.16305818333333,
            "value": 1
          },
          {
            "number": 64,
            "ticks": 24957,
            "time": 86.65611134999999,
            "value": 0
          },
          {
            "number": 64,
            "ticks": 25004,
            "time": 86.81930553333333,
            "value": 1
          },
          {
            "number": 64,
            "ticks": 25436,
            "time": 88.31930313333334,
            "value": 0
          },
          {
            "number": 64,
            "ticks": 25495,
            "time": 88.52416391666667,
            "value": 1
          },
          {
            "number": 64,
            "ticks": 25924,
            "time": 90.01374486666666,
            "value": 0
          },
          {
            "number": 64,
            "ticks": 25975,
            "time": 90.19082791666666,
            "value": 1
          },
          {
            "number": 64,
            "ticks": 26378,
            "time": 91.59013123333332,
            "value": 0
          },
          {
            "number": 64,
            "ticks": 26442,
            "time": 91.8123531,
            "value": 1
          },
          {
            "number": 64,
            "ticks": 26519,
            "time": 92.07971378333333,
            "value": 0
          },
          {
            "number": 64,
            "ticks": 26651,
            "time": 92.53804638333332,
            "value": 1
          },
          {
            "number": 64,
            "ticks": 26740,
            "time": 92.84707366666666,
            "value": 0
          },
          {
            "number": 64,
            "ticks": 26901,
            "time": 93.40610055,
            "value": 1
          },
          {
            "number": 64,
            "ticks": 26962,
            "time": 93.61790576666667,
            "value": 0
          },
          {
            "number": 64,
            "ticks": 27141,
            "time": 94.23943255,
            "value": 1
          },
          {
            "number": 64,
            "ticks": 27235,
            "time": 94.56582091666667,
            "value": 0
          },
          {
            "number": 64,
            "ticks": 27445,
            "time": 95.29498641666666,
            "value": 1
          },
          {
            "number": 64,
            "ticks": 27491,
            "time": 95.45470838333333,
            "value": 0
          },
          {
            "number": 64,
            "ticks": 27542,
            "time": 95.63179143333333,
            "value": 1
          },
          {
            "number": 64,
            "ticks": 27602,
            "time": 95.84012443333333,
            "value": 0
          },
          {
            "number": 64,
            "ticks": 27610,
            "time": 95.86790216666667,
            "value": 1
          },
          {
            "number": 64,
            "ticks": 27705,
            "time": 96.19776275,
            "value": 0
          },
          {
            "number": 64,
            "ticks": 27757,
            "time": 96.37831801666667,
            "value": 1
          },
          {
            "number": 64,
            "ticks": 27828,
            "time": 96.6248454,
            "value": 0
          },
          {
            "number": 64,
            "ticks": 27876,
            "time": 96.7915118,
            "value": 1
          },
          {
            "number": 64,
            "ticks": 27946,
            "time": 97.03456696666666,
            "value": 0
          },
          {
            "number": 64,
            "ticks": 28004,
            "time": 97.23595553333334,
            "value": 1
          },
          {
            "number": 64,
            "ticks": 28062,
            "time": 97.43734409999999,
            "value": 0
          },
          {
            "number": 64,
            "ticks": 28134,
            "time": 97.68734369999999,
            "value": 1
          },
          {
            "number": 64,
            "ticks": 28201,
            "time": 97.91998221666665,
            "value": 0
          },
          {
            "number": 64,
            "ticks": 28244,
            "time": 98.06928753333334,
            "value": 1
          },
          {
            "number": 64,
            "ticks": 28312,
            "time": 98.30539826666666,
            "value": 0
          },
          {
            "number": 64,
            "ticks": 28371,
            "time": 98.51025905,
            "value": 1
          },
          {
            "number": 64,
            "ticks": 28429,
            "time": 98.71164761666667,
            "value": 0
          },
          {
            "number": 64,
            "ticks": 28448,
            "time": 98.77761973333332,
            "value": 1
          },
          {
            "number": 64,
            "ticks": 28547,
            "time": 99.12136918333333,
            "value": 0
          },
          {
            "number": 64,
            "ticks": 28597,
            "time": 99.29498001666667,
            "value": 1
          },
          {
            "number": 64,
            "ticks": 28791,
            "time": 99.96859005,
            "value": 0
          },
          {
            "number": 64,
            "ticks": 28842,
            "time": 100.1456731,
            "value": 1
          },
          {
            "number": 64,
            "ticks": 28903,
            "time": 100.35747831666666,
            "value": 0
          },
          {
            "number": 64,
            "ticks": 28938,
            "time": 100.4790059,
            "value": 1
          },
          {
            "number": 64,
            "ticks": 29019,
            "time": 100.76025544999999,
            "value": 0
          },
          {
            "number": 64,
            "ticks": 29076,
            "time": 100.9581718,
            "value": 1
          },
          {
            "number": 64,
            "ticks": 29153,
            "time": 101.22553248333332,
            "value": 0
          },
          {
            "number": 64,
            "ticks": 29185,
            "time": 101.33664341666666,
            "value": 1
          },
          {
            "number": 64,
            "ticks": 29274,
            "time": 101.6456707,
            "value": 0
          },
          {
            "number": 64,
            "ticks": 29320,
            "time": 101.80539266666666,
            "value": 1
          },
          {
            "number": 64,
            "ticks": 29374,
            "time": 101.99289236666667,
            "value": 0
          },
          {
            "number": 64,
            "ticks": 29430,
            "time": 102.1873365,
            "value": 1
          },
          {
            "number": 64,
            "ticks": 29511,
            "time": 102.46858605,
            "value": 0
          },
          {
            "number": 64,
            "ticks": 29560,
            "time": 102.63872466666666,
            "value": 1
          },
          {
            "number": 64,
            "ticks": 29632,
            "time": 102.88872426666666,
            "value": 0
          },
          {
            "number": 64,
            "ticks": 29678,
            "time": 103.04844623333332,
            "value": 1
          },
          {
            "number": 64,
            "ticks": 29746,
            "time": 103.28455696666666,
            "value": 0
          },
          {
            "number": 64,
            "ticks": 29792,
            "time": 103.44427893333334,
            "value": 1
          },
          {
            "number": 64,
            "ticks": 29863,
            "time": 103.69080631666665,
            "value": 0
          },
          {
            "number": 64,
            "ticks": 29912,
            "time": 103.86094493333333,
            "value": 1
          },
          {
            "number": 64,
            "ticks": 29987,
            "time": 104.12136118333333,
            "value": 0
          },
          {
            "number": 64,
            "ticks": 30040,
            "time": 104.30538866666667,
            "value": 1
          },
          {
            "number": 64,
            "ticks": 30109,
            "time": 104.54497161666666,
            "value": 0
          },
          {
            "number": 64,
            "ticks": 30184,
            "time": 104.80538786666666,
            "value": 1
          },
          {
            "number": 64,
            "ticks": 30239,
            "time": 104.99635978333333,
            "value": 0
          },
          {
            "number": 64,
            "ticks": 30284,
            "time": 105.15260953333333,
            "value": 1
          },
          {
            "number": 64,
            "ticks": 30336,
            "time": 105.3331648,
            "value": 0
          },
          {
            "number": 64,
            "ticks": 30395,
            "time": 105.53802558333332,
            "value": 1
          },
          {
            "number": 64,
            "ticks": 30457,
            "time": 105.75330301666666,
            "value": 0
          },
          {
            "number": 64,
            "ticks": 30525,
            "time": 105.98941375,
            "value": 1
          },
          {
            "number": 64,
            "ticks": 30573,
            "time": 106.15608015,
            "value": 0
          },
          {
            "number": 64,
            "ticks": 30646,
            "time": 106.40955196666665,
            "value": 1
          },
          {
            "number": 64,
            "ticks": 30709,
            "time": 106.62830161666666,
            "value": 0
          },
          {
            "number": 64,
            "ticks": 30768,
            "time": 106.83316239999999,
            "value": 1
          },
          {
            "number": 64,
            "ticks": 30830,
            "time": 107.04843983333333,
            "value": 0
          },
          {
            "number": 64,
            "ticks": 30894,
            "time": 107.27066169999999,
            "value": 1
          },
          {
            "number": 64,
            "ticks": 30946,
            "time": 107.45121696666666,
            "value": 0
          },
          {
            "number": 64,
            "ticks": 31017,
            "time": 107.69774435000001,
            "value": 1
          },
          {
            "number": 64,
            "ticks": 31085,
            "time": 107.93385508333334,
            "value": 0
          },
          {
            "number": 64,
            "ticks": 31237,
            "time": 108.46163201666667,
            "value": 1
          },
          {
            "number": 64,
            "ticks": 31268,
            "time": 108.56927073333333,
            "value": 0
          },
          {
            "number": 64,
            "ticks": 31632,
            "time": 109.8331576,
            "value": 1
          },
          {
            "number": 64,
            "ticks": 31671,
            "time": 109.96857405,
            "value": 0
          },
          {
            "number": 64,
            "ticks": 31958,
            "time": 110.96510023333333,
            "value": 1
          },
          {
            "number": 64,
            "ticks": 32057,
            "time": 111.30884968333332,
            "value": 0
          },
          {
            "number": 64,
            "ticks": 32090,
            "time": 111.42343283333334,
            "value": 1
          },
          {
            "number": 64,
            "ticks": 32149,
            "time": 111.62829361666667,
            "value": 0
          },
          {
            "number": 64,
            "ticks": 32203,
            "time": 111.81579331666667,
            "value": 1
          },
          {
            "number": 64,
            "ticks": 32260,
            "time": 112.01370966666666,
            "value": 0
          },
          {
            "number": 64,
            "ticks": 32315,
            "time": 112.20468158333334,
            "value": 1
          },
          {
            "number": 64,
            "ticks": 32383,
            "time": 112.44079231666667,
            "value": 0
          },
          {
            "number": 64,
            "ticks": 32436,
            "time": 112.6248198,
            "value": 1
          },
          {
            "number": 64,
            "ticks": 32497,
            "time": 112.83662501666666,
            "value": 0
          },
          {
            "number": 64,
            "ticks": 32562,
            "time": 113.06231910000001,
            "value": 1
          },
          {
            "number": 64,
            "ticks": 32620,
            "time": 113.26370766666665,
            "value": 0
          },
          {
            "number": 64,
            "ticks": 32678,
            "time": 113.46509623333333,
            "value": 1
          },
          {
            "number": 64,
            "ticks": 32728,
            "time": 113.63870706666667,
            "value": 0
          },
          {
            "number": 64,
            "ticks": 32815,
            "time": 113.94078991666666,
            "value": 1
          },
          {
            "number": 64,
            "ticks": 32857,
            "time": 114.08662301666666,
            "value": 0
          },
          {
            "number": 64,
            "ticks": 32928,
            "time": 114.33315039999998,
            "value": 1
          },
          {
            "number": 64,
            "ticks": 32994,
            "time": 114.5623167,
            "value": 0
          },
          {
            "number": 64,
            "ticks": 33049,
            "time": 114.75328861666667,
            "value": 1
          },
          {
            "number": 64,
            "ticks": 33108,
            "time": 114.95814939999998,
            "value": 0
          },
          {
            "number": 64,
            "ticks": 33172,
            "time": 115.18037126666667,
            "value": 1
          },
          {
            "number": 64,
            "ticks": 33203,
            "time": 115.28800998333332,
            "value": 0
          },
          {
            "number": 64,
            "ticks": 33278,
            "time": 115.54842623333333,
            "value": 1
          },
          {
            "number": 64,
            "ticks": 33344,
            "time": 115.77759253333333,
            "value": 0
          },
          {
            "number": 64,
            "ticks": 33402,
            "time": 115.9789811,
            "value": 1
          },
          {
            "number": 64,
            "ticks": 33458,
            "time": 116.17342523333333,
            "value": 0
          },
          {
            "number": 64,
            "ticks": 33526,
            "time": 116.40953596666665,
            "value": 1
          },
          {
            "number": 64,
            "ticks": 33577,
            "time": 116.58661901666666,
            "value": 0
          },
          {
            "number": 64,
            "ticks": 33650,
            "time": 116.84009083333333,
            "value": 1
          },
          {
            "number": 64,
            "ticks": 33767,
            "time": 117.24634018333332,
            "value": 0
          },
          {
            "number": 64,
            "ticks": 33780,
            "time": 117.291479,
            "value": 1
          },
          {
            "number": 64,
            "ticks": 33823,
            "time": 117.44078431666667,
            "value": 0
          },
          {
            "number": 64,
            "ticks": 33895,
            "time": 117.69078391666665,
            "value": 1
          },
          {
            "number": 64,
            "ticks": 33936,
            "time": 117.8331448,
            "value": 0
          },
          {
            "number": 64,
            "ticks": 33980,
            "time": 117.98592233333333,
            "value": 1
          },
          {
            "number": 64,
            "ticks": 34071,
            "time": 118.30189405,
            "value": 0
          },
          {
            "number": 64,
            "ticks": 34141,
            "time": 118.54494921666665,
            "value": 1
          },
          {
            "number": 64,
            "ticks": 34179,
            "time": 118.67689345,
            "value": 0
          },
          {
            "number": 64,
            "ticks": 34253,
            "time": 118.93383748333332,
            "value": 1
          },
          {
            "number": 64,
            "ticks": 34307,
            "time": 119.12133718333332,
            "value": 0
          },
          {
            "number": 64,
            "ticks": 34370,
            "time": 119.34008683333333,
            "value": 1
          },
          {
            "number": 64,
            "ticks": 34427,
            "time": 119.53800318333332,
            "value": 0
          },
          {
            "number": 64,
            "ticks": 34494,
            "time": 119.77064169999998,
            "value": 1
          },
          {
            "number": 64,
            "ticks": 34554,
            "time": 119.9789747,
            "value": 0
          },
          {
            "number": 64,
            "ticks": 34613,
            "time": 120.18383548333333,
            "value": 1
          },
          {
            "number": 64,
            "ticks": 34660,
            "time": 120.34702966666666,
            "value": 0
          },
          {
            "number": 64,
            "ticks": 34987,
            "time": 121.48244451666666,
            "value": 1
          },
          {
            "number": 64,
            "ticks": 35136,
            "time": 121.99980479999999,
            "value": 0
          },
          {
            "number": 64,
            "ticks": 35184,
            "time": 122.16647119999999,
            "value": 1
          },
          {
            "number": 64,
            "ticks": 35253,
            "time": 122.40605414999999,
            "value": 0
          },
          {
            "number": 64,
            "ticks": 35312,
            "time": 122.61091493333332,
            "value": 1
          },
          {
            "number": 64,
            "ticks": 35367,
            "time": 122.80188685,
            "value": 0
          },
          {
            "number": 64,
            "ticks": 35429,
            "time": 123.01716428333333,
            "value": 1
          },
          {
            "number": 64,
            "ticks": 35504,
            "time": 123.27758053333334,
            "value": 0
          },
          {
            "number": 64,
            "ticks": 35555,
            "time": 123.45466358333334,
            "value": 1
          },
          {
            "number": 64,
            "ticks": 35629,
            "time": 123.71160761666667,
            "value": 0
          },
          {
            "number": 64,
            "ticks": 35664,
            "time": 123.83313519999999,
            "value": 1
          },
          {
            "number": 64,
            "ticks": 35756,
            "time": 124.15257913333332,
            "value": 0
          },
          {
            "number": 64,
            "ticks": 35808,
            "time": 124.33313439999999,
            "value": 1
          },
          {
            "number": 64,
            "ticks": 35863,
            "time": 124.52410631666666,
            "value": 0
          },
          {
            "number": 64,
            "ticks": 35912,
            "time": 124.69424493333332,
            "value": 1
          },
          {
            "number": 64,
            "ticks": 35983,
            "time": 124.94077231666667,
            "value": 0
          },
          {
            "number": 64,
            "ticks": 36035,
            "time": 125.12132758333334,
            "value": 1
          },
          {
            "number": 64,
            "ticks": 36096,
            "time": 125.3331328,
            "value": 0
          },
          {
            "number": 64,
            "ticks": 36159,
            "time": 125.55188245,
            "value": 1
          },
          {
            "number": 64,
            "ticks": 36226,
            "time": 125.78452096666666,
            "value": 0
          },
          {
            "number": 64,
            "ticks": 36286,
            "time": 125.99285396666666,
            "value": 1
          },
          {
            "number": 64,
            "ticks": 36328,
            "time": 126.13868706666666,
            "value": 0
          },
          {
            "number": 64,
            "ticks": 36395,
            "time": 126.37132558333333,
            "value": 1
          },
          {
            "number": 64,
            "ticks": 36448,
            "time": 126.55535306666667,
            "value": 0
          },
          {
            "number": 64,
            "ticks": 36638,
            "time": 127.21507423333333,
            "value": 1
          },
          {
            "number": 64,
            "ticks": 36666,
            "time": 127.3122963,
            "value": 0
          },
          {
            "number": 64,
            "ticks": 36687,
            "time": 127.38521285,
            "value": 1
          },
          {
            "number": 64,
            "ticks": 36702,
            "time": 127.4372961,
            "value": 0
          },
          {
            "number": 64,
            "ticks": 36805,
            "time": 127.79493441666665,
            "value": 1
          },
          {
            "number": 64,
            "ticks": 36851,
            "time": 127.95465638333332,
            "value": 0
          },
          {
            "number": 64,
            "ticks": 36902,
            "time": 128.1317394333333,
            "value": 1
          },
          {
            "number": 64,
            "ticks": 36962,
            "time": 128.34007243333332,
            "value": 0
          },
          {
            "number": 64,
            "ticks": 36970,
            "time": 128.36785016666664,
            "value": 1
          },
          {
            "number": 64,
            "ticks": 37065,
            "time": 128.69771075,
            "value": 0
          },
          {
            "number": 64,
            "ticks": 37117,
            "time": 128.87826601666666,
            "value": 1
          },
          {
            "number": 64,
            "ticks": 37188,
            "time": 129.1247934,
            "value": 0
          },
          {
            "number": 64,
            "ticks": 37236,
            "time": 129.2914598,
            "value": 1
          },
          {
            "number": 64,
            "ticks": 37306,
            "time": 129.53451496666665,
            "value": 0
          },
          {
            "number": 64,
            "ticks": 37364,
            "time": 129.73590353333333,
            "value": 1
          },
          {
            "number": 64,
            "ticks": 37422,
            "time": 129.9372921,
            "value": 0
          },
          {
            "number": 64,
            "ticks": 37494,
            "time": 130.1872917,
            "value": 1
          },
          {
            "number": 64,
            "ticks": 37561,
            "time": 130.41993021666667,
            "value": 0
          },
          {
            "number": 64,
            "ticks": 37604,
            "time": 130.56923553333334,
            "value": 1
          },
          {
            "number": 64,
            "ticks": 37672,
            "time": 130.80534626666667,
            "value": 0
          },
          {
            "number": 64,
            "ticks": 37731,
            "time": 131.01020705,
            "value": 1
          },
          {
            "number": 64,
            "ticks": 37789,
            "time": 131.21159561666667,
            "value": 0
          },
          {
            "number": 64,
            "ticks": 37808,
            "time": 131.2775677333333,
            "value": 1
          },
          {
            "number": 64,
            "ticks": 37907,
            "time": 131.62131718333333,
            "value": 0
          },
          {
            "number": 64,
            "ticks": 37957,
            "time": 131.79492801666666,
            "value": 1
          },
          {
            "number": 64,
            "ticks": 38151,
            "time": 132.46853805,
            "value": 0
          },
          {
            "number": 64,
            "ticks": 38202,
            "time": 132.6456211,
            "value": 1
          },
          {
            "number": 64,
            "ticks": 38263,
            "time": 132.85742631666668,
            "value": 0
          },
          {
            "number": 64,
            "ticks": 38298,
            "time": 132.9789539,
            "value": 1
          },
          {
            "number": 64,
            "ticks": 38379,
            "time": 133.26020344999998,
            "value": 0
          },
          {
            "number": 64,
            "ticks": 38436,
            "time": 133.4581198,
            "value": 1
          },
          {
            "number": 64,
            "ticks": 38513,
            "time": 133.7254804833333,
            "value": 0
          },
          {
            "number": 64,
            "ticks": 38545,
            "time": 133.83659141666666,
            "value": 1
          },
          {
            "number": 64,
            "ticks": 38634,
            "time": 134.1456187,
            "value": 0
          },
          {
            "number": 64,
            "ticks": 38680,
            "time": 134.30534066666667,
            "value": 1
          },
          {
            "number": 64,
            "ticks": 38734,
            "time": 134.49284036666668,
            "value": 0
          },
          {
            "number": 64,
            "ticks": 38790,
            "time": 134.6872845,
            "value": 1
          },
          {
            "number": 64,
            "ticks": 38871,
            "time": 134.96853405,
            "value": 0
          },
          {
            "number": 64,
            "ticks": 38920,
            "time": 135.13867266666665,
            "value": 1
          },
          {
            "number": 64,
            "ticks": 38992,
            "time": 135.38867226666667,
            "value": 0
          },
          {
            "number": 64,
            "ticks": 39038,
            "time": 135.5483942333333,
            "value": 1
          },
          {
            "number": 64,
            "ticks": 39106,
            "time": 135.78450496666665,
            "value": 0
          },
          {
            "number": 64,
            "ticks": 39152,
            "time": 135.9442269333333,
            "value": 1
          },
          {
            "number": 64,
            "ticks": 39223,
            "time": 136.19075431666667,
            "value": 0
          },
          {
            "number": 64,
            "ticks": 39272,
            "time": 136.36089293333333,
            "value": 1
          },
          {
            "number": 64,
            "ticks": 39347,
            "time": 136.62130918333332,
            "value": 0
          },
          {
            "number": 64,
            "ticks": 39400,
            "time": 136.80533666666665,
            "value": 1
          },
          {
            "number": 64,
            "ticks": 39469,
            "time": 137.04491961666668,
            "value": 0
          },
          {
            "number": 64,
            "ticks": 39544,
            "time": 137.30533586666667,
            "value": 1
          },
          {
            "number": 64,
            "ticks": 39599,
            "time": 137.49630778333332,
            "value": 0
          },
          {
            "number": 64,
            "ticks": 39644,
            "time": 137.65255753333332,
            "value": 1
          },
          {
            "number": 64,
            "ticks": 39696,
            "time": 137.8331128,
            "value": 0
          },
          {
            "number": 64,
            "ticks": 39755,
            "time": 138.03797358333333,
            "value": 1
          },
          {
            "number": 64,
            "ticks": 39817,
            "time": 138.25325101666667,
            "value": 0
          },
          {
            "number": 64,
            "ticks": 39885,
            "time": 138.48936175,
            "value": 1
          },
          {
            "number": 64,
            "ticks": 39933,
            "time": 138.65602815,
            "value": 0
          },
          {
            "number": 64,
            "ticks": 40006,
            "time": 138.90949996666666,
            "value": 1
          },
          {
            "number": 64,
            "ticks": 40069,
            "time": 139.12824961666666,
            "value": 0
          },
          {
            "number": 64,
            "ticks": 40128,
            "time": 139.33311039999998,
            "value": 1
          },
          {
            "number": 64,
            "ticks": 40190,
            "time": 139.54838783333332,
            "value": 0
          },
          {
            "number": 64,
            "ticks": 40254,
            "time": 139.7706097,
            "value": 1
          },
          {
            "number": 64,
            "ticks": 40306,
            "time": 139.95116496666665,
            "value": 0
          },
          {
            "number": 64,
            "ticks": 40377,
            "time": 140.19769235,
            "value": 1
          },
          {
            "number": 64,
            "ticks": 40445,
            "time": 140.43380308333334,
            "value": 0
          },
          {
            "number": 64,
            "ticks": 40597,
            "time": 140.96158001666666,
            "value": 1
          },
          {
            "number": 64,
            "ticks": 40628,
            "time": 141.06921873333332,
            "value": 0
          },
          {
            "number": 64,
            "ticks": 40992,
            "time": 142.3331056,
            "value": 1
          },
          {
            "number": 64,
            "ticks": 41031,
            "time": 142.46852205,
            "value": 0
          },
          {
            "number": 64,
            "ticks": 41318,
            "time": 143.46504823333333,
            "value": 1
          },
          {
            "number": 64,
            "ticks": 41417,
            "time": 143.80879768333332,
            "value": 0
          },
          {
            "number": 64,
            "ticks": 41450,
            "time": 143.92338083333334,
            "value": 1
          },
          {
            "number": 64,
            "ticks": 41509,
            "time": 144.12824161666668,
            "value": 0
          },
          {
            "number": 64,
            "ticks": 41563,
            "time": 144.31574131666667,
            "value": 1
          },
          {
            "number": 64,
            "ticks": 41620,
            "time": 144.51365766666666,
            "value": 0
          },
          {
            "number": 64,
            "ticks": 41675,
            "time": 144.70462958333334,
            "value": 1
          },
          {
            "number": 64,
            "ticks": 41743,
            "time": 144.94074031666668,
            "value": 0
          },
          {
            "number": 64,
            "ticks": 41796,
            "time": 145.1247678,
            "value": 1
          },
          {
            "number": 64,
            "ticks": 41857,
            "time": 145.33657301666665,
            "value": 0
          },
          {
            "number": 64,
            "ticks": 41922,
            "time": 145.5622671,
            "value": 1
          },
          {
            "number": 64,
            "ticks": 41980,
            "time": 145.76365566666666,
            "value": 0
          },
          {
            "number": 64,
            "ticks": 42038,
            "time": 145.96504423333332,
            "value": 1
          },
          {
            "number": 64,
            "ticks": 42088,
            "time": 146.13865506666667,
            "value": 0
          },
          {
            "number": 64,
            "ticks": 42175,
            "time": 146.44073791666665,
            "value": 1
          },
          {
            "number": 64,
            "ticks": 42217,
            "time": 146.58657101666665,
            "value": 0
          },
          {
            "number": 64,
            "ticks": 42288,
            "time": 146.83309839999998,
            "value": 1
          },
          {
            "number": 64,
            "ticks": 42354,
            "time": 147.0622647,
            "value": 0
          },
          {
            "number": 64,
            "ticks": 42409,
            "time": 147.25323661666667,
            "value": 1
          },
          {
            "number": 64,
            "ticks": 42468,
            "time": 147.45809739999999,
            "value": 0
          },
          {
            "number": 64,
            "ticks": 42532,
            "time": 147.68031926666666,
            "value": 1
          },
          {
            "number": 64,
            "ticks": 42563,
            "time": 147.7879579833333,
            "value": 0
          },
          {
            "number": 64,
            "ticks": 42638,
            "time": 148.04837423333333,
            "value": 1
          },
          {
            "number": 64,
            "ticks": 42704,
            "time": 148.27754053333334,
            "value": 0
          },
          {
            "number": 64,
            "ticks": 42762,
            "time": 148.47892910000002,
            "value": 1
          },
          {
            "number": 64,
            "ticks": 42818,
            "time": 148.67337323333334,
            "value": 0
          },
          {
            "number": 64,
            "ticks": 42886,
            "time": 148.90948396666667,
            "value": 1
          },
          {
            "number": 64,
            "ticks": 42937,
            "time": 149.08656701666666,
            "value": 0
          },
          {
            "number": 64,
            "ticks": 43010,
            "time": 149.34003883333332,
            "value": 1
          },
          {
            "number": 64,
            "ticks": 43127,
            "time": 149.74628818333332,
            "value": 0
          },
          {
            "number": 64,
            "ticks": 43140,
            "time": 149.791427,
            "value": 1
          },
          {
            "number": 64,
            "ticks": 43183,
            "time": 149.94073231666667,
            "value": 0
          },
          {
            "number": 64,
            "ticks": 43255,
            "time": 150.19073191666666,
            "value": 1
          },
          {
            "number": 64,
            "ticks": 43296,
            "time": 150.3330928,
            "value": 0
          },
          {
            "number": 64,
            "ticks": 43340,
            "time": 150.48587033333334,
            "value": 1
          },
          {
            "number": 64,
            "ticks": 43431,
            "time": 150.80184205,
            "value": 0
          },
          {
            "number": 64,
            "ticks": 43501,
            "time": 151.04489721666667,
            "value": 1
          },
          {
            "number": 64,
            "ticks": 43539,
            "time": 151.17684144999998,
            "value": 0
          },
          {
            "number": 64,
            "ticks": 43613,
            "time": 151.43378548333334,
            "value": 1
          },
          {
            "number": 64,
            "ticks": 43667,
            "time": 151.62128518333333,
            "value": 0
          },
          {
            "number": 64,
            "ticks": 43730,
            "time": 151.84003483333333,
            "value": 1
          },
          {
            "number": 64,
            "ticks": 43787,
            "time": 152.03795118333332,
            "value": 0
          },
          {
            "number": 64,
            "ticks": 43854,
            "time": 152.2705897,
            "value": 1
          },
          {
            "number": 64,
            "ticks": 43914,
            "time": 152.4789227,
            "value": 0
          },
          {
            "number": 64,
            "ticks": 43973,
            "time": 152.68378348333331,
            "value": 1
          },
          {
            "number": 64,
            "ticks": 44020,
            "time": 152.84697766666665,
            "value": 0
          },
          {
            "number": 64,
            "ticks": 44347,
            "time": 153.98239251666666,
            "value": 1
          },
          {
            "number": 64,
            "ticks": 44496,
            "time": 154.4997528,
            "value": 0
          },
          {
            "number": 64,
            "ticks": 44544,
            "time": 154.66641919999998,
            "value": 1
          },
          {
            "number": 64,
            "ticks": 44613,
            "time": 154.90600214999998,
            "value": 0
          },
          {
            "number": 64,
            "ticks": 44672,
            "time": 155.11086293333332,
            "value": 1
          },
          {
            "number": 64,
            "ticks": 44727,
            "time": 155.30183485,
            "value": 0
          },
          {
            "number": 64,
            "ticks": 44789,
            "time": 155.51711228333332,
            "value": 1
          },
          {
            "number": 64,
            "ticks": 44864,
            "time": 155.77752853333334,
            "value": 0
          },
          {
            "number": 64,
            "ticks": 44915,
            "time": 155.95461158333333,
            "value": 1
          },
          {
            "number": 64,
            "ticks": 44989,
            "time": 156.21155561666666,
            "value": 0
          },
          {
            "number": 64,
            "ticks": 45024,
            "time": 156.33308319999998,
            "value": 1
          },
          {
            "number": 64,
            "ticks": 45116,
            "time": 156.6525271333333,
            "value": 0
          },
          {
            "number": 64,
            "ticks": 45168,
            "time": 156.8330824,
            "value": 1
          },
          {
            "number": 64,
            "ticks": 45223,
            "time": 157.02405431666668,
            "value": 0
          },
          {
            "number": 64,
            "ticks": 45272,
            "time": 157.1941929333333,
            "value": 1
          },
          {
            "number": 64,
            "ticks": 45343,
            "time": 157.44072031666667,
            "value": 0
          },
          {
            "number": 64,
            "ticks": 45395,
            "time": 157.62127558333333,
            "value": 1
          },
          {
            "number": 64,
            "ticks": 45456,
            "time": 157.8330808,
            "value": 0
          },
          {
            "number": 64,
            "ticks": 45519,
            "time": 158.05183044999998,
            "value": 1
          },
          {
            "number": 64,
            "ticks": 45586,
            "time": 158.28446896666665,
            "value": 0
          },
          {
            "number": 64,
            "ticks": 45646,
            "time": 158.49280196666666,
            "value": 1
          },
          {
            "number": 64,
            "ticks": 45688,
            "time": 158.63863506666667,
            "value": 0
          },
          {
            "number": 64,
            "ticks": 45755,
            "time": 158.87127358333333,
            "value": 1
          },
          {
            "number": 64,
            "ticks": 45808,
            "time": 159.05530106666666,
            "value": 0
          },
          {
            "number": 64,
            "ticks": 45998,
            "time": 159.71502223333331,
            "value": 1
          },
          {
            "number": 64,
            "ticks": 46001,
            "time": 159.7254388833333,
            "value": 1
          },
          {
            "number": 64,
            "ticks": 46026,
            "time": 159.8122443,
            "value": 0
          },
          {
            "number": 64,
            "ticks": 46035,
            "time": 159.84349425,
            "value": 0
          },
          {
            "number": 64,
            "ticks": 46047,
            "time": 159.88516085,
            "value": 1
          },
          {
            "number": 64,
            "ticks": 46062,
            "time": 159.93724410000002,
            "value": 0
          },
          {
            "number": 64,
            "ticks": 46127,
            "time": 160.16293818333332,
            "value": 1
          },
          {
            "number": 64,
            "ticks": 46557,
            "time": 161.65599135,
            "value": 0
          },
          {
            "number": 64,
            "ticks": 46604,
            "time": 161.81918553333333,
            "value": 1
          },
          {
            "number": 64,
            "ticks": 47036,
            "time": 163.31918313333333,
            "value": 0
          },
          {
            "number": 64,
            "ticks": 47095,
            "time": 163.52404391666664,
            "value": 1
          },
          {
            "number": 64,
            "ticks": 47524,
            "time": 165.01362486666667,
            "value": 0
          },
          {
            "number": 64,
            "ticks": 47575,
            "time": 165.19070791666664,
            "value": 1
          },
          {
            "number": 64,
            "ticks": 47978,
            "time": 166.5900112333333,
            "value": 0
          },
          {
            "number": 64,
            "ticks": 48047,
            "time": 166.8295941833333,
            "value": 1
          },
          {
            "number": 64,
            "ticks": 48477,
            "time": 168.32264735,
            "value": 0
          },
          {
            "number": 64,
            "ticks": 48524,
            "time": 168.48584153333334,
            "value": 1
          },
          {
            "number": 64,
            "ticks": 48956,
            "time": 169.98583913333331,
            "value": 0
          },
          {
            "number": 64,
            "ticks": 49015,
            "time": 170.19069991666666,
            "value": 1
          },
          {
            "number": 64,
            "ticks": 49444,
            "time": 171.68028086666666,
            "value": 0
          },
          {
            "number": 64,
            "ticks": 49495,
            "time": 171.85736391666666,
            "value": 1
          },
          {
            "number": 64,
            "ticks": 49898,
            "time": 173.25666723333333,
            "value": 0
          },
          {
            "number": 64,
            "ticks": 49967,
            "time": 173.49625018333333,
            "value": 1
          },
          {
            "number": 64,
            "ticks": 50397,
            "time": 174.98930335,
            "value": 0
          },
          {
            "number": 64,
            "ticks": 50444,
            "time": 175.15249753333333,
            "value": 1
          },
          {
            "number": 64,
            "ticks": 50876,
            "time": 176.6524951333333,
            "value": 0
          },
          {
            "number": 64,
            "ticks": 50935,
            "time": 176.85735591666665,
            "value": 1
          },
          {
            "number": 64,
            "ticks": 51364,
            "time": 178.34693686666668,
            "value": 0
          },
          {
            "number": 64,
            "ticks": 51415,
            "time": 178.52401991666665,
            "value": 1
          },
          {
            "number": 64,
            "ticks": 51818,
            "time": 179.92332323333332,
            "value": 0
          },
          {
            "number": 64,
            "ticks": 51887,
            "time": 180.16290618333332,
            "value": 1
          },
          {
            "number": 64,
            "ticks": 52317,
            "time": 181.65595935,
            "value": 0
          },
          {
            "number": 64,
            "ticks": 52364,
            "time": 181.81915353333332,
            "value": 1
          },
          {
            "number": 64,
            "ticks": 52796,
            "time": 183.31915113333332,
            "value": 0
          },
          {
            "number": 64,
            "ticks": 52855,
            "time": 183.52401191666664,
            "value": 1
          },
          {
            "number": 64,
            "ticks": 53284,
            "time": 185.01359286666667,
            "value": 0
          },
          {
            "number": 64,
            "ticks": 53335,
            "time": 185.19067591666666,
            "value": 1
          },
          {
            "number": 64,
            "ticks": 53738,
            "time": 186.5899792333333,
            "value": 0
          },
          {
            "number": 64,
            "ticks": 53807,
            "time": 186.8295621833333,
            "value": 1
          },
          {
            "number": 64,
            "ticks": 54237,
            "time": 188.32261535,
            "value": 0
          },
          {
            "number": 64,
            "ticks": 54284,
            "time": 188.48580953333334,
            "value": 1
          },
          {
            "number": 64,
            "ticks": 54716,
            "time": 189.9858071333333,
            "value": 0
          },
          {
            "number": 64,
            "ticks": 54775,
            "time": 190.19066791666665,
            "value": 1
          },
          {
            "number": 64,
            "ticks": 55204,
            "time": 191.68024886666666,
            "value": 0
          },
          {
            "number": 64,
            "ticks": 55255,
            "time": 191.85733191666665,
            "value": 1
          },
          {
            "number": 64,
            "ticks": 55658,
            "time": 193.25663523333333,
            "value": 0
          },
          {
            "number": 64,
            "ticks": 55727,
            "time": 193.49621818333333,
            "value": 1
          },
          {
            "number": 64,
            "ticks": 56157,
            "time": 194.98927135,
            "value": 0
          },
          {
            "number": 64,
            "ticks": 56204,
            "time": 195.15246553333333,
            "value": 1
          },
          {
            "number": 64,
            "ticks": 56636,
            "time": 196.6524631333333,
            "value": 0
          },
          {
            "number": 64,
            "ticks": 56695,
            "time": 196.85732391666664,
            "value": 1
          },
          {
            "number": 64,
            "ticks": 57120,
            "time": 198.333016,
            "value": 1
          },
          {
            "number": 64,
            "ticks": 57147,
            "time": 198.42676585,
            "value": 0
          },
          {
            "number": 64,
            "ticks": 57241,
            "time": 198.75315421666664,
            "value": 1
          },
          {
            "number": 64,
            "ticks": 57336,
            "time": 199.0830148,
            "value": 0
          },
          {
            "number": 64,
            "ticks": 57387,
            "time": 199.26009785,
            "value": 1
          },
          {
            "number": 64,
            "ticks": 57467,
            "time": 199.5378751833333,
            "value": 0
          }
        ]
      },
      "pitchBends": [],
      "instrument": {
        "family": "synth lead",
        "number": 87,
        "name": "lead 8 (bass + lead)"
      },
      "name": "",
      "notes": [
        {
          "duration": 0.07291655000000041,
          "durationTicks": 21,
          "midi": 62,
          "name": "D4",
          "ticks": 960,
          "time": 3.333328,
          "velocity": 0.889763779527559
        },
        {
          "duration": 0.10069428333333352,
          "durationTicks": 29,
          "midi": 69,
          "name": "A4",
          "ticks": 960,
          "time": 3.333328,
          "velocity": 0.84251968503937
        },
        {
          "duration": 0.09027763333333327,
          "durationTicks": 26,
          "midi": 65,
          "name": "F4",
          "ticks": 960,
          "time": 3.333328,
          "velocity": 0.889763779527559
        },
        {
          "duration": 0.07291654999999952,
          "durationTicks": 21,
          "midi": 57,
          "name": "A3",
          "ticks": 1000,
          "time": 3.4722166666666667,
          "velocity": 0.7322834645669292
        },
        {
          "duration": 0.06944433333333322,
          "durationTicks": 20,
          "midi": 50,
          "name": "D3",
          "ticks": 1000,
          "time": 3.4722166666666667,
          "velocity": 0.7716535433070866
        },
        {
          "duration": 0.07291655000000041,
          "durationTicks": 21,
          "midi": 62,
          "name": "D4",
          "ticks": 1040,
          "time": 3.6111053333333327,
          "velocity": 0.7007874015748031
        },
        {
          "duration": 0.08680541666666697,
          "durationTicks": 25,
          "midi": 69,
          "name": "A4",
          "ticks": 1040,
          "time": 3.6111053333333327,
          "velocity": 0.7322834645669292
        },
        {
          "duration": 0.07986098333333347,
          "durationTicks": 23,
          "midi": 65,
          "name": "F4",
          "ticks": 1040,
          "time": 3.6111053333333327,
          "velocity": 0.7716535433070866
        },
        {
          "duration": 0.08333319999999933,
          "durationTicks": 24,
          "midi": 50,
          "name": "D3",
          "ticks": 1080,
          "time": 3.749994,
          "velocity": 0.889763779527559
        },
        {
          "duration": 0.07638876666666672,
          "durationTicks": 22,
          "midi": 57,
          "name": "A3",
          "ticks": 1080,
          "time": 3.749994,
          "velocity": 0.889763779527559
        },
        {
          "duration": 0.06944433333333278,
          "durationTicks": 20,
          "midi": 62,
          "name": "D4",
          "ticks": 1120,
          "time": 3.888882666666667,
          "velocity": 0.6692913385826772
        },
        {
          "duration": 0.059027683333332526,
          "durationTicks": 17,
          "midi": 69,
          "name": "A4",
          "ticks": 1120,
          "time": 3.888882666666667,
          "velocity": 0.6692913385826772
        },
        {
          "duration": 0.06597211666666647,
          "durationTicks": 19,
          "midi": 65,
          "name": "F4",
          "ticks": 1120,
          "time": 3.888882666666667,
          "velocity": 0.7322834645669292
        },
        {
          "duration": 0.07638876666666672,
          "durationTicks": 22,
          "midi": 57,
          "name": "A3",
          "ticks": 1160,
          "time": 4.027771333333333,
          "velocity": 0.8031496062992126
        },
        {
          "duration": 0.06944433333333411,
          "durationTicks": 20,
          "midi": 50,
          "name": "D3",
          "ticks": 1160,
          "time": 4.027771333333333,
          "velocity": 0.84251968503937
        },
        {
          "duration": 0.07986098333333302,
          "durationTicks": 23,
          "midi": 62,
          "name": "D4",
          "ticks": 1200,
          "time": 4.16666,
          "velocity": 0.7716535433070866
        },
        {
          "duration": 0.07638876666666672,
          "durationTicks": 22,
          "midi": 65,
          "name": "F4",
          "ticks": 1200,
          "time": 4.16666,
          "velocity": 0.84251968503937
        },
        {
          "duration": 0.08680541666666652,
          "durationTicks": 25,
          "midi": 69,
          "name": "A4",
          "ticks": 1200,
          "time": 4.16666,
          "velocity": 0.7716535433070866
        },
        {
          "duration": 0.08333319999999933,
          "durationTicks": 24,
          "midi": 62,
          "name": "D4",
          "ticks": 1240,
          "time": 4.305548666666667,
          "velocity": 0.7322834645669292
        },
        {
          "duration": 0.07986098333333302,
          "durationTicks": 23,
          "midi": 65,
          "name": "F4",
          "ticks": 1240,
          "time": 4.305548666666667,
          "velocity": 0.7716535433070866
        },
        {
          "duration": 0.09374985000000002,
          "durationTicks": 27,
          "midi": 69,
          "name": "A4",
          "ticks": 1240,
          "time": 4.305548666666667,
          "velocity": 0.7716535433070866
        },
        {
          "duration": 0.06597211666666603,
          "durationTicks": 19,
          "midi": 50,
          "name": "D3",
          "ticks": 1280,
          "time": 4.444437333333333,
          "velocity": 0.889763779527559
        },
        {
          "duration": 0.07291655000000041,
          "durationTicks": 21,
          "midi": 57,
          "name": "A3",
          "ticks": 1280,
          "time": 4.444437333333333,
          "velocity": 0.84251968503937
        },
        {
          "duration": 0.08333320000000022,
          "durationTicks": 24,
          "midi": 62,
          "name": "D4",
          "ticks": 1320,
          "time": 4.583326,
          "velocity": 0.7322834645669292
        },
        {
          "duration": 0.10069428333333352,
          "durationTicks": 29,
          "midi": 69,
          "name": "A4",
          "ticks": 1320,
          "time": 4.583326,
          "velocity": 0.7716535433070866
        },
        {
          "duration": 0.09374985000000002,
          "durationTicks": 27,
          "midi": 65,
          "name": "F4",
          "ticks": 1320,
          "time": 4.583326,
          "velocity": 0.7716535433070866
        },
        {
          "duration": 0.05555546666666622,
          "durationTicks": 16,
          "midi": 57,
          "name": "A3",
          "ticks": 1360,
          "time": 4.722214666666667,
          "velocity": 0.7322834645669292
        },
        {
          "duration": 0.06249989999999883,
          "durationTicks": 18,
          "midi": 50,
          "name": "D3",
          "ticks": 1360,
          "time": 4.722214666666667,
          "velocity": 0.84251968503937
        },
        {
          "duration": 0.09722206666666722,
          "durationTicks": 28,
          "midi": 62,
          "name": "D4",
          "ticks": 1400,
          "time": 4.861103333333332,
          "velocity": 0.7007874015748031
        },
        {
          "duration": 0.10763871666666791,
          "durationTicks": 31,
          "midi": 69,
          "name": "A4",
          "ticks": 1400,
          "time": 4.861103333333332,
          "velocity": 0.7322834645669292
        },
        {
          "duration": 0.10763871666666791,
          "durationTicks": 31,
          "midi": 65,
          "name": "F4",
          "ticks": 1400,
          "time": 4.861103333333332,
          "velocity": 0.8031496062992126
        },
        {
          "duration": 0.06249989999999972,
          "durationTicks": 18,
          "midi": 50,
          "name": "D3",
          "ticks": 1440,
          "time": 4.999992,
          "velocity": 0.889763779527559
        },
        {
          "duration": 0.07291655000000041,
          "durationTicks": 21,
          "midi": 57,
          "name": "A3",
          "ticks": 1440,
          "time": 4.999992,
          "velocity": 0.84251968503937
        },
        {
          "duration": 0.06249989999999883,
          "durationTicks": 18,
          "midi": 62,
          "name": "D4",
          "ticks": 1480,
          "time": 5.138880666666667,
          "velocity": 0.6692913385826772
        },
        {
          "duration": 0.06944433333333233,
          "durationTicks": 20,
          "midi": 69,
          "name": "A4",
          "ticks": 1480,
          "time": 5.138880666666667,
          "velocity": 0.7007874015748031
        },
        {
          "duration": 0.07291654999999952,
          "durationTicks": 21,
          "midi": 65,
          "name": "F4",
          "ticks": 1480,
          "time": 5.138880666666667,
          "velocity": 0.7716535433070866
        },
        {
          "duration": 0.06249990000000061,
          "durationTicks": 18,
          "midi": 50,
          "name": "D3",
          "ticks": 1520,
          "time": 5.277769333333333,
          "velocity": 0.8031496062992126
        },
        {
          "duration": 0.07986098333333302,
          "durationTicks": 23,
          "midi": 57,
          "name": "A3",
          "ticks": 1520,
          "time": 5.277769333333333,
          "velocity": 0.84251968503937
        },
        {
          "duration": 0.09374985000000002,
          "durationTicks": 27,
          "midi": 62,
          "name": "D4",
          "ticks": 1560,
          "time": 5.416658,
          "velocity": 0.7322834645669292
        },
        {
          "duration": 0.10763871666666613,
          "durationTicks": 31,
          "midi": 65,
          "name": "F4",
          "ticks": 1560,
          "time": 5.416658,
          "velocity": 0.8031496062992126
        },
        {
          "duration": 0.11805536666666683,
          "durationTicks": 34,
          "midi": 69,
          "name": "A4",
          "ticks": 1560,
          "time": 5.416658,
          "velocity": 0.8031496062992126
        },
        {
          "duration": 0.07638876666666672,
          "durationTicks": 22,
          "midi": 50,
          "name": "D3",
          "ticks": 1600,
          "time": 5.555546666666666,
          "velocity": 0.889763779527559
        },
        {
          "duration": 0.07986098333333391,
          "durationTicks": 23,
          "midi": 57,
          "name": "A3",
          "ticks": 1600,
          "time": 5.555546666666666,
          "velocity": 0.84251968503937
        },
        {
          "duration": 0.09027763333333372,
          "durationTicks": 26,
          "midi": 69,
          "name": "A4",
          "ticks": 1640,
          "time": 5.694435333333333,
          "velocity": 0.8031496062992126
        },
        {
          "duration": 0.08333320000000022,
          "durationTicks": 24,
          "midi": 65,
          "name": "F4",
          "ticks": 1640,
          "time": 5.694435333333333,
          "velocity": 0.8031496062992126
        },
        {
          "duration": 0.07638876666666672,
          "durationTicks": 22,
          "midi": 62,
          "name": "D4",
          "ticks": 1640,
          "time": 5.694435333333333,
          "velocity": 0.7716535433070866
        },
        {
          "duration": 0.17013861666666674,
          "durationTicks": 49,
          "midi": 62,
          "name": "D4",
          "ticks": 1680,
          "time": 5.833323999999999,
          "velocity": 0.8031496062992126
        },
        {
          "duration": 0.18749970000000005,
          "durationTicks": 54,
          "midi": 67,
          "name": "G4",
          "ticks": 1680,
          "time": 5.833323999999999,
          "velocity": 0.84251968503937
        },
        {
          "duration": 0.19097191666666724,
          "durationTicks": 55,
          "midi": 71,
          "name": "B4",
          "ticks": 1680,
          "time": 5.833323999999999,
          "velocity": 0.84251968503937
        },
        {
          "duration": 0.3576383166666668,
          "durationTicks": 103,
          "midi": 69,
          "name": "A4",
          "ticks": 1800,
          "time": 6.2499899999999995,
          "velocity": 0.84251968503937
        },
        {
          "duration": 0.347221666666667,
          "durationTicks": 100,
          "midi": 65,
          "name": "F4",
          "ticks": 1800,
          "time": 6.2499899999999995,
          "velocity": 0.889763779527559
        },
        {
          "duration": 0.3437494499999998,
          "durationTicks": 99,
          "midi": 60,
          "name": "C4",
          "ticks": 1800,
          "time": 6.2499899999999995,
          "velocity": 0.84251968503937
        },
        {
          "duration": 0.07638876666666672,
          "durationTicks": 22,
          "midi": 62,
          "name": "D4",
          "ticks": 1920,
          "time": 6.666656,
          "velocity": 0.7322834645669292
        },
        {
          "duration": 0.09374985000000091,
          "durationTicks": 27,
          "midi": 69,
          "name": "A4",
          "ticks": 1920,
          "time": 6.666656,
          "velocity": 0.8031496062992126
        },
        {
          "duration": 0.08333319999999933,
          "durationTicks": 24,
          "midi": 65,
          "name": "F4",
          "ticks": 1920,
          "time": 6.666656,
          "velocity": 0.84251968503937
        },
        {
          "duration": 0.045138816666666415,
          "durationTicks": 13,
          "midi": 50,
          "name": "D3",
          "ticks": 1960,
          "time": 6.805544666666666,
          "velocity": 0.7007874015748031
        },
        {
          "duration": 0.0590276833333343,
          "durationTicks": 17,
          "midi": 57,
          "name": "A3",
          "ticks": 1960,
          "time": 6.805544666666666,
          "velocity": 0.6692913385826772
        },
        {
          "duration": 0.07291654999999864,
          "durationTicks": 21,
          "midi": 69,
          "name": "A4",
          "ticks": 2000,
          "time": 6.9444333333333335,
          "velocity": 0.7322834645669292
        },
        {
          "duration": 0.07291654999999864,
          "durationTicks": 21,
          "midi": 62,
          "name": "D4",
          "ticks": 2000,
          "time": 6.9444333333333335,
          "velocity": 0.6692913385826772
        },
        {
          "duration": 0.07638876666666672,
          "durationTicks": 22,
          "midi": 65,
          "name": "F4",
          "ticks": 2000,
          "time": 6.9444333333333335,
          "velocity": 0.7716535433070866
        },
        {
          "duration": 0.06944433333333322,
          "durationTicks": 20,
          "midi": 57,
          "name": "A3",
          "ticks": 2040,
          "time": 7.083322,
          "velocity": 0.8031496062992126
        },
        {
          "duration": 0.06944433333333322,
          "durationTicks": 20,
          "midi": 50,
          "name": "D3",
          "ticks": 2040,
          "time": 7.083322,
          "velocity": 0.889763779527559
        },
        {
          "duration": 0.05902768333333519,
          "durationTicks": 17,
          "midi": 62,
          "name": "D4",
          "ticks": 2080,
          "time": 7.2222106666666654,
          "velocity": 0.5984251968503937
        },
        {
          "duration": 0.0520832500000008,
          "durationTicks": 15,
          "midi": 69,
          "name": "A4",
          "ticks": 2080,
          "time": 7.2222106666666654,
          "velocity": 0.6299212598425197
        },
        {
          "duration": 0.0659721166666678,
          "durationTicks": 19,
          "midi": 65,
          "name": "F4",
          "ticks": 2080,
          "time": 7.2222106666666654,
          "velocity": 0.7716535433070866
        },
        {
          "duration": 0.06597211666666603,
          "durationTicks": 19,
          "midi": 57,
          "name": "A3",
          "ticks": 2120,
          "time": 7.361099333333334,
          "velocity": 0.84251968503937
        },
        {
          "duration": 0.06597211666666603,
          "durationTicks": 19,
          "midi": 50,
          "name": "D3",
          "ticks": 2120,
          "time": 7.361099333333334,
          "velocity": 0.84251968503937
        },
        {
          "duration": 0.07986098333333302,
          "durationTicks": 23,
          "midi": 69,
          "name": "A4",
          "ticks": 2160,
          "time": 7.499988,
          "velocity": 0.7322834645669292
        },
        {
          "duration": 0.06944433333333322,
          "durationTicks": 20,
          "midi": 65,
          "name": "F4",
          "ticks": 2160,
          "time": 7.499988,
          "velocity": 0.7322834645669292
        },
        {
          "duration": 0.07291654999999952,
          "durationTicks": 21,
          "midi": 62,
          "name": "D4",
          "ticks": 2160,
          "time": 7.499988,
          "velocity": 0.7322834645669292
        },
        {
          "duration": 0.04861103333333361,
          "durationTicks": 14,
          "midi": 50,
          "name": "D3",
          "ticks": 2200,
          "time": 7.638876666666666,
          "velocity": 0.7322834645669292
        },
        {
          "duration": 0.0590276833333343,
          "durationTicks": 17,
          "midi": 57,
          "name": "A3",
          "ticks": 2200,
          "time": 7.638876666666666,
          "velocity": 0.7322834645669292
        },
        {
          "duration": 0.07638876666666672,
          "durationTicks": 22,
          "midi": 62,
          "name": "D4",
          "ticks": 2240,
          "time": 7.777765333333334,
          "velocity": 0.7322834645669292
        },
        {
          "duration": 0.09374984999999914,
          "durationTicks": 27,
          "midi": 69,
          "name": "A4",
          "ticks": 2240,
          "time": 7.777765333333334,
          "velocity": 0.7322834645669292
        },
        {
          "duration": 0.10069428333333352,
          "durationTicks": 29,
          "midi": 65,
          "name": "F4",
          "ticks": 2240,
          "time": 7.777765333333334,
          "velocity": 0.84251968503937
        },
        {
          "duration": 0.07638876666666672,
          "durationTicks": 22,
          "midi": 50,
          "name": "D3",
          "ticks": 2280,
          "time": 7.916653999999999,
          "velocity": 0.889763779527559
        },
        {
          "duration": 0.08333320000000022,
          "durationTicks": 24,
          "midi": 57,
          "name": "A3",
          "ticks": 2280,
          "time": 7.916653999999999,
          "velocity": 0.889763779527559
        },
        {
          "duration": 0.0659721166666678,
          "durationTicks": 19,
          "midi": 62,
          "name": "D4",
          "ticks": 2320,
          "time": 8.055542666666666,
          "velocity": 0.5984251968503937
        },
        {
          "duration": 0.07638876666666583,
          "durationTicks": 22,
          "midi": 69,
          "name": "A4",
          "ticks": 2320,
          "time": 8.055542666666666,
          "velocity": 0.7007874015748031
        },
        {
          "duration": 0.07291655000000041,
          "durationTicks": 21,
          "midi": 65,
          "name": "F4",
          "ticks": 2320,
          "time": 8.055542666666666,
          "velocity": 0.7322834645669292
        },
        {
          "duration": 0.05902768333333164,
          "durationTicks": 17,
          "midi": 50,
          "name": "D3",
          "ticks": 2360,
          "time": 8.194431333333334,
          "velocity": 0.7322834645669292
        },
        {
          "duration": 0.07291654999999864,
          "durationTicks": 21,
          "midi": 57,
          "name": "A3",
          "ticks": 2360,
          "time": 8.194431333333334,
          "velocity": 0.7716535433070866
        },
        {
          "duration": 0.07986098333333302,
          "durationTicks": 23,
          "midi": 62,
          "name": "D4",
          "ticks": 2400,
          "time": 8.33332,
          "velocity": 0.7716535433070866
        },
        {
          "duration": 0.07638876666666583,
          "durationTicks": 22,
          "midi": 65,
          "name": "F4",
          "ticks": 2400,
          "time": 8.33332,
          "velocity": 0.7716535433070866
        },
        {
          "duration": 0.07291654999999864,
          "durationTicks": 21,
          "midi": 69,
          "name": "A4",
          "ticks": 2400,
          "time": 8.33332,
          "velocity": 0.7322834645669292
        },
        {
          "duration": 0.069444333333335,
          "durationTicks": 20,
          "midi": 57,
          "name": "A3",
          "ticks": 2440,
          "time": 8.472208666666665,
          "velocity": 0.7007874015748031
        },
        {
          "duration": 0.05902768333333519,
          "durationTicks": 17,
          "midi": 50,
          "name": "D3",
          "ticks": 2440,
          "time": 8.472208666666665,
          "velocity": 0.7322834645669292
        },
        {
          "duration": 0.07986098333333302,
          "durationTicks": 23,
          "midi": 62,
          "name": "D4",
          "ticks": 2480,
          "time": 8.611097333333333,
          "velocity": 0.6299212598425197
        },
        {
          "duration": 0.08680541666666564,
          "durationTicks": 25,
          "midi": 65,
          "name": "F4",
          "ticks": 2480,
          "time": 8.611097333333333,
          "velocity": 0.7716535433070866
        },
        {
          "duration": 0.09374985000000002,
          "durationTicks": 27,
          "midi": 69,
          "name": "A4",
          "ticks": 2480,
          "time": 8.611097333333333,
          "velocity": 0.7007874015748031
        },
        {
          "duration": 0.08333320000000022,
          "durationTicks": 24,
          "midi": 50,
          "name": "D3",
          "ticks": 2520,
          "time": 8.749986,
          "velocity": 0.84251968503937
        },
        {
          "duration": 0.09722206666666722,
          "durationTicks": 28,
          "midi": 57,
          "name": "A3",
          "ticks": 2520,
          "time": 8.749986,
          "velocity": 0.889763779527559
        },
        {
          "duration": 0.10069428333333263,
          "durationTicks": 29,
          "midi": 62,
          "name": "D4",
          "ticks": 2560,
          "time": 8.888874666666666,
          "velocity": 0.7007874015748031
        },
        {
          "duration": 0.10763871666666525,
          "durationTicks": 31,
          "midi": 65,
          "name": "F4",
          "ticks": 2560,
          "time": 8.888874666666666,
          "velocity": 0.7716535433070866
        },
        {
          "duration": 0.10763871666666525,
          "durationTicks": 31,
          "midi": 69,
          "name": "A4",
          "ticks": 2560,
          "time": 8.888874666666666,
          "velocity": 0.7322834645669292
        },
        {
          "duration": 0.08680541666666741,
          "durationTicks": 25,
          "midi": 50,
          "name": "D3",
          "ticks": 2600,
          "time": 9.027763333333333,
          "velocity": 0.937007874015748
        },
        {
          "duration": 0.0798609833333348,
          "durationTicks": 23,
          "midi": 57,
          "name": "A3",
          "ticks": 2600,
          "time": 9.027763333333333,
          "velocity": 0.889763779527559
        },
        {
          "duration": 0.27777733333333465,
          "durationTicks": 80,
          "midi": 60,
          "name": "C4",
          "ticks": 2640,
          "time": 9.166652,
          "velocity": 0.8031496062992126
        },
        {
          "duration": 0.27083290000000027,
          "durationTicks": 78,
          "midi": 65,
          "name": "F4",
          "ticks": 2640,
          "time": 9.166652,
          "velocity": 0.889763779527559
        },
        {
          "duration": 0.27777733333333465,
          "durationTicks": 80,
          "midi": 69,
          "name": "A4",
          "ticks": 2640,
          "time": 9.166652,
          "velocity": 0.84251968503937
        },
        {
          "duration": 0.22916629999999927,
          "durationTicks": 66,
          "midi": 60,
          "name": "C4",
          "ticks": 2760,
          "time": 9.583318,
          "velocity": 0.7322834645669292
        },
        {
          "duration": 0.22569408333333385,
          "durationTicks": 65,
          "midi": 64,
          "name": "E4",
          "ticks": 2760,
          "time": 9.583318,
          "velocity": 0.84251968503937
        },
        {
          "duration": 0.24305516666666627,
          "durationTicks": 70,
          "midi": 67,
          "name": "G4",
          "ticks": 2760,
          "time": 9.583318,
          "velocity": 0.8031496062992126
        },
        {
          "duration": 0.07291655000000041,
          "durationTicks": 21,
          "midi": 62,
          "name": "D4",
          "ticks": 2880,
          "time": 9.999984,
          "velocity": 0.889763779527559
        },
        {
          "duration": 0.10069428333333441,
          "durationTicks": 29,
          "midi": 69,
          "name": "A4",
          "ticks": 2880,
          "time": 9.999984,
          "velocity": 0.84251968503937
        },
        {
          "duration": 0.09027763333333283,
          "durationTicks": 26,
          "midi": 65,
          "name": "F4",
          "ticks": 2880,
          "time": 9.999984,
          "velocity": 0.889763779527559
        },
        {
          "duration": 0.07291655000000041,
          "durationTicks": 21,
          "midi": 57,
          "name": "A3",
          "ticks": 2920,
          "time": 10.138872666666666,
          "velocity": 0.7322834645669292
        },
        {
          "duration": 0.06944433333333322,
          "durationTicks": 20,
          "midi": 50,
          "name": "D3",
          "ticks": 2920,
          "time": 10.138872666666666,
          "velocity": 0.7716535433070866
        },
        {
          "duration": 0.07291654999999864,
          "durationTicks": 21,
          "midi": 62,
          "name": "D4",
          "ticks": 2960,
          "time": 10.277761333333334,
          "velocity": 0.7007874015748031
        },
        {
          "duration": 0.08680541666666564,
          "durationTicks": 25,
          "midi": 69,
          "name": "A4",
          "ticks": 2960,
          "time": 10.277761333333334,
          "velocity": 0.7322834645669292
        },
        {
          "duration": 0.07986098333333302,
          "durationTicks": 23,
          "midi": 65,
          "name": "F4",
          "ticks": 2960,
          "time": 10.277761333333334,
          "velocity": 0.7716535433070866
        },
        {
          "duration": 0.08333320000000022,
          "durationTicks": 24,
          "midi": 50,
          "name": "D3",
          "ticks": 3000,
          "time": 10.416649999999999,
          "velocity": 0.889763779527559
        },
        {
          "duration": 0.0763887666666676,
          "durationTicks": 22,
          "midi": 57,
          "name": "A3",
          "ticks": 3000,
          "time": 10.416649999999999,
          "velocity": 0.889763779527559
        },
        {
          "duration": 0.069444333333335,
          "durationTicks": 20,
          "midi": 62,
          "name": "D4",
          "ticks": 3040,
          "time": 10.555538666666665,
          "velocity": 0.6692913385826772
        },
        {
          "duration": 0.05902768333333519,
          "durationTicks": 17,
          "midi": 69,
          "name": "A4",
          "ticks": 3040,
          "time": 10.555538666666665,
          "velocity": 0.6692913385826772
        },
        {
          "duration": 0.0659721166666678,
          "durationTicks": 19,
          "midi": 65,
          "name": "F4",
          "ticks": 3040,
          "time": 10.555538666666665,
          "velocity": 0.7322834645669292
        },
        {
          "duration": 0.07638876666666583,
          "durationTicks": 22,
          "midi": 57,
          "name": "A3",
          "ticks": 3080,
          "time": 10.694427333333334,
          "velocity": 0.8031496062992126
        },
        {
          "duration": 0.06944433333333144,
          "durationTicks": 20,
          "midi": 50,
          "name": "D3",
          "ticks": 3080,
          "time": 10.694427333333334,
          "velocity": 0.84251968503937
        },
        {
          "duration": 0.07986098333333302,
          "durationTicks": 23,
          "midi": 62,
          "name": "D4",
          "ticks": 3120,
          "time": 10.833316,
          "velocity": 0.7716535433070866
        },
        {
          "duration": 0.07638876666666583,
          "durationTicks": 22,
          "midi": 65,
          "name": "F4",
          "ticks": 3120,
          "time": 10.833316,
          "velocity": 0.84251968503937
        },
        {
          "duration": 0.08680541666666564,
          "durationTicks": 25,
          "midi": 69,
          "name": "A4",
          "ticks": 3120,
          "time": 10.833316,
          "velocity": 0.7716535433070866
        },
        {
          "duration": 0.08333320000000022,
          "durationTicks": 24,
          "midi": 62,
          "name": "D4",
          "ticks": 3160,
          "time": 10.972204666666666,
          "velocity": 0.7322834645669292
        },
        {
          "duration": 0.07986098333333302,
          "durationTicks": 23,
          "midi": 65,
          "name": "F4",
          "ticks": 3160,
          "time": 10.972204666666666,
          "velocity": 0.7716535433070866
        },
        {
          "duration": 0.09374985000000002,
          "durationTicks": 27,
          "midi": 69,
          "name": "A4",
          "ticks": 3160,
          "time": 10.972204666666666,
          "velocity": 0.7716535433070866
        },
        {
          "duration": 0.06597211666666603,
          "durationTicks": 19,
          "midi": 50,
          "name": "D3",
          "ticks": 3200,
          "time": 11.111093333333333,
          "velocity": 0.889763779527559
        },
        {
          "duration": 0.07291654999999864,
          "durationTicks": 21,
          "midi": 57,
          "name": "A3",
          "ticks": 3200,
          "time": 11.111093333333333,
          "velocity": 0.84251968503937
        },
        {
          "duration": 0.08333320000000022,
          "durationTicks": 24,
          "midi": 62,
          "name": "D4",
          "ticks": 3240,
          "time": 11.249982,
          "velocity": 0.7322834645669292
        },
        {
          "duration": 0.10069428333333441,
          "durationTicks": 29,
          "midi": 69,
          "name": "A4",
          "ticks": 3240,
          "time": 11.249982,
          "velocity": 0.7716535433070866
        },
        {
          "duration": 0.09374985000000002,
          "durationTicks": 27,
          "midi": 65,
          "name": "F4",
          "ticks": 3240,
          "time": 11.249982,
          "velocity": 0.7716535433070866
        },
        {
          "duration": 0.05555546666666622,
          "durationTicks": 16,
          "midi": 57,
          "name": "A3",
          "ticks": 3280,
          "time": 11.388870666666666,
          "velocity": 0.7322834645669292
        },
        {
          "duration": 0.06249990000000061,
          "durationTicks": 18,
          "midi": 50,
          "name": "D3",
          "ticks": 3280,
          "time": 11.388870666666666,
          "velocity": 0.84251968503937
        },
        {
          "duration": 0.09722206666666544,
          "durationTicks": 28,
          "midi": 62,
          "name": "D4",
          "ticks": 3320,
          "time": 11.527759333333334,
          "velocity": 0.7007874015748031
        },
        {
          "duration": 0.10763871666666525,
          "durationTicks": 31,
          "midi": 69,
          "name": "A4",
          "ticks": 3320,
          "time": 11.527759333333334,
          "velocity": 0.7322834645669292
        },
        {
          "duration": 0.10763871666666525,
          "durationTicks": 31,
          "midi": 65,
          "name": "F4",
          "ticks": 3320,
          "time": 11.527759333333334,
          "velocity": 0.8031496062992126
        },
        {
          "duration": 0.06249990000000061,
          "durationTicks": 18,
          "midi": 50,
          "name": "D3",
          "ticks": 3360,
          "time": 11.666647999999999,
          "velocity": 0.889763779527559
        },
        {
          "duration": 0.07291655000000041,
          "durationTicks": 21,
          "midi": 57,
          "name": "A3",
          "ticks": 3360,
          "time": 11.666647999999999,
          "velocity": 0.84251968503937
        },
        {
          "duration": 0.062499900000002384,
          "durationTicks": 18,
          "midi": 62,
          "name": "D4",
          "ticks": 3400,
          "time": 11.805536666666665,
          "velocity": 0.6692913385826772
        },
        {
          "duration": 0.069444333333335,
          "durationTicks": 20,
          "midi": 69,
          "name": "A4",
          "ticks": 3400,
          "time": 11.805536666666665,
          "velocity": 0.7007874015748031
        },
        {
          "duration": 0.07291655000000041,
          "durationTicks": 21,
          "midi": 65,
          "name": "F4",
          "ticks": 3400,
          "time": 11.805536666666665,
          "velocity": 0.7716535433070866
        },
        {
          "duration": 0.06249989999999883,
          "durationTicks": 18,
          "midi": 50,
          "name": "D3",
          "ticks": 3440,
          "time": 11.944425333333333,
          "velocity": 0.8031496062992126
        },
        {
          "duration": 0.07986098333333302,
          "durationTicks": 23,
          "midi": 57,
          "name": "A3",
          "ticks": 3440,
          "time": 11.944425333333333,
          "velocity": 0.84251968503937
        },
        {
          "duration": 0.09374985000000002,
          "durationTicks": 27,
          "midi": 62,
          "name": "D4",
          "ticks": 3480,
          "time": 12.083314,
          "velocity": 0.7322834645669292
        },
        {
          "duration": 0.10763871666666702,
          "durationTicks": 31,
          "midi": 65,
          "name": "F4",
          "ticks": 3480,
          "time": 12.083314,
          "velocity": 0.8031496062992126
        },
        {
          "duration": 0.11805536666666683,
          "durationTicks": 34,
          "midi": 69,
          "name": "A4",
          "ticks": 3480,
          "time": 12.083314,
          "velocity": 0.8031496062992126
        },
        {
          "duration": 0.07638876666666583,
          "durationTicks": 22,
          "midi": 50,
          "name": "D3",
          "ticks": 3520,
          "time": 12.222202666666666,
          "velocity": 0.889763779527559
        },
        {
          "duration": 0.07986098333333302,
          "durationTicks": 23,
          "midi": 57,
          "name": "A3",
          "ticks": 3520,
          "time": 12.222202666666666,
          "velocity": 0.84251968503937
        },
        {
          "duration": 0.09027763333333283,
          "durationTicks": 26,
          "midi": 69,
          "name": "A4",
          "ticks": 3560,
          "time": 12.361091333333333,
          "velocity": 0.8031496062992126
        },
        {
          "duration": 0.08333320000000022,
          "durationTicks": 24,
          "midi": 65,
          "name": "F4",
          "ticks": 3560,
          "time": 12.361091333333333,
          "velocity": 0.8031496062992126
        },
        {
          "duration": 0.0763887666666676,
          "durationTicks": 22,
          "midi": 62,
          "name": "D4",
          "ticks": 3560,
          "time": 12.361091333333333,
          "velocity": 0.7716535433070866
        },
        {
          "duration": 0.17013861666666763,
          "durationTicks": 49,
          "midi": 62,
          "name": "D4",
          "ticks": 3600,
          "time": 12.499979999999999,
          "velocity": 0.8031496062992126
        },
        {
          "duration": 0.18749970000000005,
          "durationTicks": 54,
          "midi": 67,
          "name": "G4",
          "ticks": 3600,
          "time": 12.499979999999999,
          "velocity": 0.84251968503937
        },
        {
          "duration": 0.19097191666666724,
          "durationTicks": 55,
          "midi": 71,
          "name": "B4",
          "ticks": 3600,
          "time": 12.499979999999999,
          "velocity": 0.84251968503937
        },
        {
          "duration": 0.3576383166666659,
          "durationTicks": 103,
          "midi": 69,
          "name": "A4",
          "ticks": 3720,
          "time": 12.916646,
          "velocity": 0.84251968503937
        },
        {
          "duration": 0.3472216666666661,
          "durationTicks": 100,
          "midi": 65,
          "name": "F4",
          "ticks": 3720,
          "time": 12.916646,
          "velocity": 0.889763779527559
        },
        {
          "duration": 0.3437494499999989,
          "durationTicks": 99,
          "midi": 60,
          "name": "C4",
          "ticks": 3720,
          "time": 12.916646,
          "velocity": 0.84251968503937
        },
        {
          "duration": 0.07638876666666583,
          "durationTicks": 22,
          "midi": 62,
          "name": "D4",
          "ticks": 3840,
          "time": 13.333312,
          "velocity": 0.7322834645669292
        },
        {
          "duration": 0.09374985000000002,
          "durationTicks": 27,
          "midi": 69,
          "name": "A4",
          "ticks": 3840,
          "time": 13.333312,
          "velocity": 0.8031496062992126
        },
        {
          "duration": 0.083333200000002,
          "durationTicks": 24,
          "midi": 65,
          "name": "F4",
          "ticks": 3840,
          "time": 13.333312,
          "velocity": 0.84251968503937
        },
        {
          "duration": 0.045138816666666415,
          "durationTicks": 13,
          "midi": 50,
          "name": "D3",
          "ticks": 3880,
          "time": 13.472200666666668,
          "velocity": 0.7007874015748031
        },
        {
          "duration": 0.05902768333333164,
          "durationTicks": 17,
          "midi": 57,
          "name": "A3",
          "ticks": 3880,
          "time": 13.472200666666668,
          "velocity": 0.6692913385826772
        },
        {
          "duration": 0.07291655000000041,
          "durationTicks": 21,
          "midi": 69,
          "name": "A4",
          "ticks": 3920,
          "time": 13.611089333333332,
          "velocity": 0.7322834645669292
        },
        {
          "duration": 0.07291655000000041,
          "durationTicks": 21,
          "midi": 62,
          "name": "D4",
          "ticks": 3920,
          "time": 13.611089333333332,
          "velocity": 0.6692913385826772
        },
        {
          "duration": 0.0763887666666676,
          "durationTicks": 22,
          "midi": 65,
          "name": "F4",
          "ticks": 3920,
          "time": 13.611089333333332,
          "velocity": 0.7716535433070866
        },
        {
          "duration": 0.06944433333333322,
          "durationTicks": 20,
          "midi": 57,
          "name": "A3",
          "ticks": 3960,
          "time": 13.749977999999999,
          "velocity": 0.8031496062992126
        },
        {
          "duration": 0.06944433333333322,
          "durationTicks": 20,
          "midi": 50,
          "name": "D3",
          "ticks": 3960,
          "time": 13.749977999999999,
          "velocity": 0.889763779527559
        },
        {
          "duration": 0.059027683333333414,
          "durationTicks": 17,
          "midi": 62,
          "name": "D4",
          "ticks": 4000,
          "time": 13.888866666666667,
          "velocity": 0.5984251968503937
        },
        {
          "duration": 0.0520832500000008,
          "durationTicks": 15,
          "midi": 69,
          "name": "A4",
          "ticks": 4000,
          "time": 13.888866666666667,
          "velocity": 0.6299212598425197
        },
        {
          "duration": 0.06597211666666603,
          "durationTicks": 19,
          "midi": 65,
          "name": "F4",
          "ticks": 4000,
          "time": 13.888866666666667,
          "velocity": 0.7716535433070866
        },
        {
          "duration": 0.06597211666666958,
          "durationTicks": 19,
          "midi": 57,
          "name": "A3",
          "ticks": 4040,
          "time": 14.027755333333332,
          "velocity": 0.84251968503937
        },
        {
          "duration": 0.06597211666666958,
          "durationTicks": 19,
          "midi": 50,
          "name": "D3",
          "ticks": 4040,
          "time": 14.027755333333332,
          "velocity": 0.84251968503937
        },
        {
          "duration": 0.0798609833333348,
          "durationTicks": 23,
          "midi": 69,
          "name": "A4",
          "ticks": 4080,
          "time": 14.166644,
          "velocity": 0.7322834645669292
        },
        {
          "duration": 0.06944433333333144,
          "durationTicks": 20,
          "midi": 65,
          "name": "F4",
          "ticks": 4080,
          "time": 14.166644,
          "velocity": 0.7322834645669292
        },
        {
          "duration": 0.07291654999999864,
          "durationTicks": 21,
          "midi": 62,
          "name": "D4",
          "ticks": 4080,
          "time": 14.166644,
          "velocity": 0.7322834645669292
        },
        {
          "duration": 0.04861103333333361,
          "durationTicks": 14,
          "midi": 50,
          "name": "D3",
          "ticks": 4120,
          "time": 14.305532666666666,
          "velocity": 0.7322834645669292
        },
        {
          "duration": 0.059027683333333414,
          "durationTicks": 17,
          "midi": 57,
          "name": "A3",
          "ticks": 4120,
          "time": 14.305532666666666,
          "velocity": 0.7322834645669292
        },
        {
          "duration": 0.07638876666666938,
          "durationTicks": 22,
          "midi": 62,
          "name": "D4",
          "ticks": 4160,
          "time": 14.444421333333331,
          "velocity": 0.7322834645669292
        },
        {
          "duration": 0.0937498500000018,
          "durationTicks": 27,
          "midi": 69,
          "name": "A4",
          "ticks": 4160,
          "time": 14.444421333333331,
          "velocity": 0.7322834645669292
        },
        {
          "duration": 0.10069428333333441,
          "durationTicks": 29,
          "midi": 65,
          "name": "F4",
          "ticks": 4160,
          "time": 14.444421333333331,
          "velocity": 0.84251968503937
        },
        {
          "duration": 0.07638876666666583,
          "durationTicks": 22,
          "midi": 50,
          "name": "D3",
          "ticks": 4200,
          "time": 14.583309999999999,
          "velocity": 0.889763779527559
        },
        {
          "duration": 0.083333200000002,
          "durationTicks": 24,
          "midi": 57,
          "name": "A3",
          "ticks": 4200,
          "time": 14.583309999999999,
          "velocity": 0.889763779527559
        },
        {
          "duration": 0.06597211666666603,
          "durationTicks": 19,
          "midi": 62,
          "name": "D4",
          "ticks": 4240,
          "time": 14.722198666666667,
          "velocity": 0.5984251968503937
        },
        {
          "duration": 0.07638876666666405,
          "durationTicks": 22,
          "midi": 69,
          "name": "A4",
          "ticks": 4240,
          "time": 14.722198666666667,
          "velocity": 0.7007874015748031
        },
        {
          "duration": 0.07291654999999864,
          "durationTicks": 21,
          "midi": 65,
          "name": "F4",
          "ticks": 4240,
          "time": 14.722198666666667,
          "velocity": 0.7322834645669292
        },
        {
          "duration": 0.059027683333333414,
          "durationTicks": 17,
          "midi": 50,
          "name": "D3",
          "ticks": 4280,
          "time": 14.861087333333332,
          "velocity": 0.7322834645669292
        },
        {
          "duration": 0.07291655000000219,
          "durationTicks": 21,
          "midi": 57,
          "name": "A3",
          "ticks": 4280,
          "time": 14.861087333333332,
          "velocity": 0.7716535433070866
        },
        {
          "duration": 0.07986098333333302,
          "durationTicks": 23,
          "midi": 62,
          "name": "D4",
          "ticks": 4320,
          "time": 14.999976,
          "velocity": 0.7716535433070866
        },
        {
          "duration": 0.07638876666666405,
          "durationTicks": 22,
          "midi": 65,
          "name": "F4",
          "ticks": 4320,
          "time": 14.999976,
          "velocity": 0.7716535433070866
        },
        {
          "duration": 0.07291654999999864,
          "durationTicks": 21,
          "midi": 69,
          "name": "A4",
          "ticks": 4320,
          "time": 14.999976,
          "velocity": 0.7322834645669292
        },
        {
          "duration": 0.06944433333333322,
          "durationTicks": 20,
          "midi": 57,
          "name": "A3",
          "ticks": 4360,
          "time": 15.138864666666667,
          "velocity": 0.7007874015748031
        },
        {
          "duration": 0.059027683333333414,
          "durationTicks": 17,
          "midi": 50,
          "name": "D3",
          "ticks": 4360,
          "time": 15.138864666666667,
          "velocity": 0.7322834645669292
        },
        {
          "duration": 0.0798609833333348,
          "durationTicks": 23,
          "midi": 62,
          "name": "D4",
          "ticks": 4400,
          "time": 15.277753333333331,
          "velocity": 0.6299212598425197
        },
        {
          "duration": 0.08680541666666741,
          "durationTicks": 25,
          "midi": 65,
          "name": "F4",
          "ticks": 4400,
          "time": 15.277753333333331,
          "velocity": 0.7716535433070866
        },
        {
          "duration": 0.0937498500000018,
          "durationTicks": 27,
          "midi": 69,
          "name": "A4",
          "ticks": 4400,
          "time": 15.277753333333331,
          "velocity": 0.7007874015748031
        },
        {
          "duration": 0.08333320000000022,
          "durationTicks": 24,
          "midi": 50,
          "name": "D3",
          "ticks": 4440,
          "time": 15.416642,
          "velocity": 0.84251968503937
        },
        {
          "duration": 0.09722206666666722,
          "durationTicks": 28,
          "midi": 57,
          "name": "A3",
          "ticks": 4440,
          "time": 15.416642,
          "velocity": 0.889763779527559
        },
        {
          "duration": 0.10069428333333263,
          "durationTicks": 29,
          "midi": 62,
          "name": "D4",
          "ticks": 4480,
          "time": 15.555530666666668,
          "velocity": 0.7007874015748031
        },
        {
          "duration": 0.10763871666666525,
          "durationTicks": 31,
          "midi": 65,
          "name": "F4",
          "ticks": 4480,
          "time": 15.555530666666668,
          "velocity": 0.7716535433070866
        },
        {
          "duration": 0.10763871666666525,
          "durationTicks": 31,
          "midi": 69,
          "name": "A4",
          "ticks": 4480,
          "time": 15.555530666666668,
          "velocity": 0.7322834645669292
        },
        {
          "duration": 0.08680541666666741,
          "durationTicks": 25,
          "midi": 50,
          "name": "D3",
          "ticks": 4520,
          "time": 15.694419333333332,
          "velocity": 0.937007874015748
        },
        {
          "duration": 0.0798609833333348,
          "durationTicks": 23,
          "midi": 57,
          "name": "A3",
          "ticks": 4520,
          "time": 15.694419333333332,
          "velocity": 0.889763779527559
        },
        {
          "duration": 0.2777773333333329,
          "durationTicks": 80,
          "midi": 60,
          "name": "C4",
          "ticks": 4560,
          "time": 15.833307999999999,
          "velocity": 0.8031496062992126
        },
        {
          "duration": 0.2708328999999985,
          "durationTicks": 78,
          "midi": 65,
          "name": "F4",
          "ticks": 4560,
          "time": 15.833307999999999,
          "velocity": 0.889763779527559
        },
        {
          "duration": 0.2777773333333329,
          "durationTicks": 80,
          "midi": 69,
          "name": "A4",
          "ticks": 4560,
          "time": 15.833307999999999,
          "velocity": 0.84251968503937
        },
        {
          "duration": 0.22916629999999927,
          "durationTicks": 66,
          "midi": 60,
          "name": "C4",
          "ticks": 4680,
          "time": 16.249973999999998,
          "velocity": 0.7322834645669292
        },
        {
          "duration": 0.22569408333333385,
          "durationTicks": 65,
          "midi": 64,
          "name": "E4",
          "ticks": 4680,
          "time": 16.249973999999998,
          "velocity": 0.84251968503937
        },
        {
          "duration": 0.24305516666666804,
          "durationTicks": 70,
          "midi": 67,
          "name": "G4",
          "ticks": 4680,
          "time": 16.249973999999998,
          "velocity": 0.8031496062992126
        },
        {
          "duration": 2.5416625999999987,
          "durationTicks": 732,
          "midi": 69,
          "name": "A4",
          "ticks": 4800,
          "time": 16.66664,
          "velocity": 0.7007874015748031
        },
        {
          "duration": 2.6284680166666625,
          "durationTicks": 757,
          "midi": 62,
          "name": "D4",
          "ticks": 4800,
          "time": 16.66664,
          "velocity": 0.7007874015748031
        },
        {
          "duration": 2.600690283333332,
          "durationTicks": 749,
          "midi": 65,
          "name": "F4",
          "ticks": 4800,
          "time": 16.66664,
          "velocity": 0.7322834645669292
        },
        {
          "duration": 2.6701346166666653,
          "durationTicks": 769,
          "midi": 50,
          "name": "D3",
          "ticks": 4800,
          "time": 16.66664,
          "velocity": 0.7716535433070866
        },
        {
          "duration": 2.607634716666663,
          "durationTicks": 751,
          "midi": 57,
          "name": "A3",
          "ticks": 4800,
          "time": 16.66664,
          "velocity": 0.6299212598425197
        },
        {
          "duration": 1.7499972000000028,
          "durationTicks": 504,
          "midi": 46,
          "name": "A#2",
          "ticks": 5760,
          "time": 19.999968,
          "velocity": 0.6692913385826772
        },
        {
          "duration": 1.7777749333333333,
          "durationTicks": 512,
          "midi": 62,
          "name": "D4",
          "ticks": 5760,
          "time": 19.999968,
          "velocity": 0.7322834645669292
        },
        {
          "duration": 1.7986082333333329,
          "durationTicks": 518,
          "midi": 58,
          "name": "A#3",
          "ticks": 5760,
          "time": 19.999968,
          "velocity": 0.6299212598425197
        },
        {
          "duration": 1.5833307999999988,
          "durationTicks": 456,
          "midi": 53,
          "name": "F3",
          "ticks": 5760,
          "time": 19.999968,
          "velocity": 0.5984251968503937
        },
        {
          "duration": 0.0659721166666678,
          "durationTicks": 19,
          "midi": 46,
          "name": "A#2",
          "ticks": 6320,
          "time": 21.944409333333333,
          "velocity": 0.5354330708661418
        },
        {
          "duration": 0.17361083333333127,
          "durationTicks": 50,
          "midi": 53,
          "name": "F3",
          "ticks": 6360,
          "time": 22.083298,
          "velocity": 0.4881889763779528
        },
        {
          "duration": 0.18402748333333463,
          "durationTicks": 53,
          "midi": 58,
          "name": "A#3",
          "ticks": 6360,
          "time": 22.083298,
          "velocity": 0.5039370078740157
        },
        {
          "duration": 0.16666640000000044,
          "durationTicks": 48,
          "midi": 62,
          "name": "D4",
          "ticks": 6360,
          "time": 22.083298,
          "velocity": 0.7007874015748031
        },
        {
          "duration": 0.10763871666666702,
          "durationTicks": 31,
          "midi": 46,
          "name": "A#2",
          "ticks": 6440,
          "time": 22.361075333333332,
          "velocity": 0.7007874015748031
        },
        {
          "duration": 0.11805536666666683,
          "durationTicks": 34,
          "midi": 58,
          "name": "A#3",
          "ticks": 6480,
          "time": 22.499964,
          "velocity": 0.7007874015748031
        },
        {
          "duration": 0.09722206666666722,
          "durationTicks": 28,
          "midi": 53,
          "name": "F3",
          "ticks": 6480,
          "time": 22.499964,
          "velocity": 0.6692913385826772
        },
        {
          "duration": 0.13541645000000102,
          "durationTicks": 39,
          "midi": 62,
          "name": "D4",
          "ticks": 6480,
          "time": 22.499964,
          "velocity": 0.84251968503937
        },
        {
          "duration": 0.19444413333333443,
          "durationTicks": 56,
          "midi": 60,
          "name": "C4",
          "ticks": 6600,
          "time": 22.916629999999998,
          "velocity": 0.8031496062992126
        },
        {
          "duration": 0.24999960000000243,
          "durationTicks": 72,
          "midi": 64,
          "name": "E4",
          "ticks": 6600,
          "time": 22.916629999999998,
          "velocity": 0.8031496062992126
        },
        {
          "duration": 0.20833299999999966,
          "durationTicks": 60,
          "midi": 55,
          "name": "G3",
          "ticks": 6600,
          "time": 22.916629999999998,
          "velocity": 0.7007874015748031
        },
        {
          "duration": 0.18402748333333463,
          "durationTicks": 53,
          "midi": 48,
          "name": "C3",
          "ticks": 6600,
          "time": 22.916629999999998,
          "velocity": 0.7322834645669292
        },
        {
          "duration": 2.5868014166666704,
          "durationTicks": 745,
          "midi": 65,
          "name": "F4",
          "ticks": 6720,
          "time": 23.333295999999997,
          "velocity": 0.7716535433070866
        },
        {
          "duration": 2.6215235833333352,
          "durationTicks": 755,
          "midi": 50,
          "name": "D3",
          "ticks": 6720,
          "time": 23.333295999999997,
          "velocity": 0.7716535433070866
        },
        {
          "duration": 2.5937458500000012,
          "durationTicks": 747,
          "midi": 62,
          "name": "D4",
          "ticks": 6720,
          "time": 23.333295999999997,
          "velocity": 0.7322834645669292
        },
        {
          "duration": 2.562495900000002,
          "durationTicks": 738,
          "midi": 57,
          "name": "A3",
          "ticks": 6720,
          "time": 23.333295999999997,
          "velocity": 0.6692913385826772
        },
        {
          "duration": 1.5173586833333346,
          "durationTicks": 437,
          "midi": 46,
          "name": "A#2",
          "ticks": 7680,
          "time": 26.666624,
          "velocity": 0.6692913385826772
        },
        {
          "duration": 1.5243031166666654,
          "durationTicks": 439,
          "midi": 58,
          "name": "A#3",
          "ticks": 7680,
          "time": 26.666624,
          "velocity": 0.5669291338582677
        },
        {
          "duration": 1.5069420333333312,
          "durationTicks": 434,
          "midi": 65,
          "name": "F4",
          "ticks": 7680,
          "time": 26.666624,
          "velocity": 0.6692913385826772
        },
        {
          "duration": 1.5277753333333344,
          "durationTicks": 440,
          "midi": 62,
          "name": "D4",
          "ticks": 7680,
          "time": 26.666624,
          "velocity": 0.7716535433070866
        },
        {
          "duration": 0.2430551666666645,
          "durationTicks": 70,
          "midi": 58,
          "name": "A#3",
          "ticks": 8160,
          "time": 28.333288,
          "velocity": 0.31496062992125984
        },
        {
          "duration": 0.2569440333333297,
          "durationTicks": 74,
          "midi": 62,
          "name": "D4",
          "ticks": 8160,
          "time": 28.333288,
          "velocity": 0.41732283464566927
        },
        {
          "duration": 0.2569440333333297,
          "durationTicks": 74,
          "midi": 65,
          "name": "F4",
          "ticks": 8160,
          "time": 28.333288,
          "velocity": 0.5354330708661418
        },
        {
          "duration": 0.2777773333333329,
          "durationTicks": 80,
          "midi": 46,
          "name": "A#2",
          "ticks": 8160,
          "time": 28.333288,
          "velocity": 0.5354330708661418
        },
        {
          "duration": 0.21874965000000302,
          "durationTicks": 63,
          "midi": 58,
          "name": "A#3",
          "ticks": 8280,
          "time": 28.749954,
          "velocity": 0.4645669291338583
        },
        {
          "duration": 0.1979163499999963,
          "durationTicks": 57,
          "midi": 46,
          "name": "A#2",
          "ticks": 8280,
          "time": 28.749954,
          "velocity": 0.7007874015748031
        },
        {
          "duration": 0.20138856666666527,
          "durationTicks": 58,
          "midi": 65,
          "name": "F4",
          "ticks": 8280,
          "time": 28.749954,
          "velocity": 0.7322834645669292
        },
        {
          "duration": 0.22222186666666488,
          "durationTicks": 64,
          "midi": 62,
          "name": "D4",
          "ticks": 8280,
          "time": 28.749954,
          "velocity": 0.7716535433070866
        },
        {
          "duration": 0.1805552666666692,
          "durationTicks": 52,
          "midi": 46,
          "name": "A#2",
          "ticks": 8400,
          "time": 29.166619999999998,
          "velocity": 0.7322834645669292
        },
        {
          "duration": 0.24652738333333346,
          "durationTicks": 71,
          "midi": 58,
          "name": "A#3",
          "ticks": 8400,
          "time": 29.166619999999998,
          "velocity": 0.5039370078740157
        },
        {
          "duration": 0.22916629999999927,
          "durationTicks": 66,
          "midi": 65,
          "name": "F4",
          "ticks": 8400,
          "time": 29.166619999999998,
          "velocity": 0.7007874015748031
        },
        {
          "duration": 0.24652738333333346,
          "durationTicks": 71,
          "midi": 62,
          "name": "D4",
          "ticks": 8400,
          "time": 29.166619999999998,
          "velocity": 0.7716535433070866
        },
        {
          "duration": 0.10069428333333263,
          "durationTicks": 29,
          "midi": 46,
          "name": "A#2",
          "ticks": 8520,
          "time": 29.583285999999998,
          "velocity": 0.7716535433070866
        },
        {
          "duration": 0.09722206666666722,
          "durationTicks": 28,
          "midi": 65,
          "name": "F4",
          "ticks": 8520,
          "time": 29.583285999999998,
          "velocity": 0.7716535433070866
        },
        {
          "duration": 0.09374984999999825,
          "durationTicks": 27,
          "midi": 58,
          "name": "A#3",
          "ticks": 8520,
          "time": 29.583285999999998,
          "velocity": 0.6299212598425197
        },
        {
          "duration": 0.0659721166666678,
          "durationTicks": 19,
          "midi": 62,
          "name": "D4",
          "ticks": 8520,
          "time": 29.583285999999998,
          "velocity": 0.8031496062992126
        },
        {
          "duration": 0.9166652000000006,
          "durationTicks": 264,
          "midi": 43,
          "name": "G2",
          "ticks": 8640,
          "time": 29.999952,
          "velocity": 0.7007874015748031
        },
        {
          "duration": 1.062498299999998,
          "durationTicks": 306,
          "midi": 58,
          "name": "A#3",
          "ticks": 8640,
          "time": 29.999952,
          "velocity": 0.5669291338582677
        },
        {
          "duration": 0.9999983999999991,
          "durationTicks": 288,
          "midi": 55,
          "name": "G3",
          "ticks": 8640,
          "time": 29.999952,
          "velocity": 0.7007874015748031
        },
        {
          "duration": 1.0694427333333287,
          "durationTicks": 308,
          "midi": 62,
          "name": "D4",
          "ticks": 8640,
          "time": 29.999952,
          "velocity": 0.7322834645669292
        },
        {
          "duration": 0.9618040166666688,
          "durationTicks": 277,
          "midi": 52,
          "name": "E3",
          "ticks": 9120,
          "time": 31.666615999999998,
          "velocity": 0.6299212598425197
        },
        {
          "duration": 1.0451372166666673,
          "durationTicks": 301,
          "midi": 45,
          "name": "A2",
          "ticks": 9120,
          "time": 31.666615999999998,
          "velocity": 0.7322834645669292
        },
        {
          "duration": 1.0104150499999989,
          "durationTicks": 291,
          "midi": 64,
          "name": "E4",
          "ticks": 9120,
          "time": 31.666615999999998,
          "velocity": 0.7007874015748031
        },
        {
          "duration": 1.0381927833333293,
          "durationTicks": 299,
          "midi": 61,
          "name": "C#4",
          "ticks": 9120,
          "time": 31.666615999999998,
          "velocity": 0.6299212598425197
        },
        {
          "duration": 1.0624983000000014,
          "durationTicks": 306,
          "midi": 57,
          "name": "A3",
          "ticks": 9120,
          "time": 31.666615999999998,
          "velocity": 0.6299212598425197
        },
        {
          "duration": 1.0381927833333293,
          "durationTicks": 299,
          "midi": 58,
          "name": "A#3",
          "ticks": 9600,
          "time": 33.33328,
          "velocity": 0.4645669291338583
        },
        {
          "duration": 0.9444429333333275,
          "durationTicks": 272,
          "midi": 43,
          "name": "G2",
          "ticks": 9600,
          "time": 33.33328,
          "velocity": 0.7322834645669292
        },
        {
          "duration": 1.0104150499999918,
          "durationTicks": 291,
          "midi": 55,
          "name": "G3",
          "ticks": 9600,
          "time": 33.33328,
          "velocity": 0.7322834645669292
        },
        {
          "duration": 1.0451372166666673,
          "durationTicks": 301,
          "midi": 62,
          "name": "D4",
          "ticks": 9600,
          "time": 33.33328,
          "velocity": 0.7322834645669292
        },
        {
          "duration": 0.2777773333333329,
          "durationTicks": 80,
          "midi": 57,
          "name": "A3",
          "ticks": 10080,
          "time": 34.999944,
          "velocity": 0.6692913385826772
        },
        {
          "duration": 0.2986106333333325,
          "durationTicks": 86,
          "midi": 64,
          "name": "E4",
          "ticks": 10080,
          "time": 34.999944,
          "velocity": 0.7007874015748031
        },
        {
          "duration": 0.2986106333333325,
          "durationTicks": 86,
          "midi": 61,
          "name": "C#4",
          "ticks": 10080,
          "time": 34.999944,
          "velocity": 0.7007874015748031
        },
        {
          "duration": 0.4548603833333331,
          "durationTicks": 131,
          "midi": 45,
          "name": "A2",
          "ticks": 10080,
          "time": 34.999944,
          "velocity": 0.7322834645669292
        },
        {
          "duration": 0.46180481666666395,
          "durationTicks": 133,
          "midi": 52,
          "name": "E3",
          "ticks": 10080,
          "time": 34.999944,
          "velocity": 0.6299212598425197
        },
        {
          "duration": 0.0937498499999947,
          "durationTicks": 27,
          "midi": 61,
          "name": "C#4",
          "ticks": 10200,
          "time": 35.41661,
          "velocity": 0.6692913385826772
        },
        {
          "duration": 0.10416649999999805,
          "durationTicks": 30,
          "midi": 64,
          "name": "E4",
          "ticks": 10200,
          "time": 35.41661,
          "velocity": 0.6692913385826772
        },
        {
          "duration": 0.08333319999999844,
          "durationTicks": 24,
          "midi": 57,
          "name": "A3",
          "ticks": 10200,
          "time": 35.41661,
          "velocity": 0.5669291338582677
        },
        {
          "duration": 0.2256940833333374,
          "durationTicks": 65,
          "midi": 64,
          "name": "E4",
          "ticks": 10320,
          "time": 35.833276,
          "velocity": 0.4881889763779528
        },
        {
          "duration": 0.11805536666666683,
          "durationTicks": 34,
          "midi": 52,
          "name": "E3",
          "ticks": 10320,
          "time": 35.833276,
          "velocity": 0.4881889763779528
        },
        {
          "duration": 0.23611073333333366,
          "durationTicks": 68,
          "midi": 69,
          "name": "A4",
          "ticks": 10320,
          "time": 35.833276,
          "velocity": 0.6692913385826772
        },
        {
          "duration": 0.1493053166666698,
          "durationTicks": 43,
          "midi": 64,
          "name": "E4",
          "ticks": 10440,
          "time": 36.249942,
          "velocity": 0.6692913385826772
        },
        {
          "duration": 0.15972196666667315,
          "durationTicks": 46,
          "midi": 69,
          "name": "A4",
          "ticks": 10440,
          "time": 36.249942,
          "velocity": 0.8031496062992126
        },
        {
          "duration": 0.15972196666667315,
          "durationTicks": 46,
          "midi": 45,
          "name": "A2",
          "ticks": 10440,
          "time": 36.249942,
          "velocity": 0.7322834645669292
        },
        {
          "duration": 0.14583309999999727,
          "durationTicks": 42,
          "midi": 52,
          "name": "E3",
          "ticks": 10440,
          "time": 36.249942,
          "velocity": 0.6692913385826772
        },
        {
          "duration": 0.11458315000000141,
          "durationTicks": 33,
          "midi": 69,
          "name": "A4",
          "ticks": 10560,
          "time": 36.666608,
          "velocity": 0.7322834645669292
        },
        {
          "duration": 0.10416650000000516,
          "durationTicks": 30,
          "midi": 62,
          "name": "D4",
          "ticks": 10560,
          "time": 36.666608,
          "velocity": 0.7322834645669292
        },
        {
          "duration": 0.10416650000000516,
          "durationTicks": 30,
          "midi": 65,
          "name": "F4",
          "ticks": 10560,
          "time": 36.666608,
          "velocity": 0.7716535433070866
        },
        {
          "duration": 0.08333319999999844,
          "durationTicks": 24,
          "midi": 57,
          "name": "A3",
          "ticks": 10600,
          "time": 36.80549666666666,
          "velocity": 0.7007874015748031
        },
        {
          "duration": 0.06944433333333677,
          "durationTicks": 20,
          "midi": 50,
          "name": "D3",
          "ticks": 10600,
          "time": 36.80549666666666,
          "velocity": 0.7322834645669292
        },
        {
          "duration": 0.06597211666666425,
          "durationTicks": 19,
          "midi": 62,
          "name": "D4",
          "ticks": 10640,
          "time": 36.94438533333334,
          "velocity": 0.5984251968503937
        },
        {
          "duration": 0.07986098333332592,
          "durationTicks": 23,
          "midi": 69,
          "name": "A4",
          "ticks": 10640,
          "time": 36.94438533333334,
          "velocity": 0.7007874015748031
        },
        {
          "duration": 0.06597211666666425,
          "durationTicks": 19,
          "midi": 65,
          "name": "F4",
          "ticks": 10640,
          "time": 36.94438533333334,
          "velocity": 0.6692913385826772
        },
        {
          "duration": 0.059027683333333414,
          "durationTicks": 17,
          "midi": 50,
          "name": "D3",
          "ticks": 10680,
          "time": 37.083273999999996,
          "velocity": 0.5984251968503937
        },
        {
          "duration": 0.07986098333333302,
          "durationTicks": 23,
          "midi": 57,
          "name": "A3",
          "ticks": 10680,
          "time": 37.083273999999996,
          "velocity": 0.6692913385826772
        },
        {
          "duration": 0.059027683333333414,
          "durationTicks": 17,
          "midi": 62,
          "name": "D4",
          "ticks": 10720,
          "time": 37.22216266666666,
          "velocity": 0.4881889763779528
        },
        {
          "duration": 0.055555466666667996,
          "durationTicks": 16,
          "midi": 69,
          "name": "A4",
          "ticks": 10720,
          "time": 37.22216266666666,
          "velocity": 0.5984251968503937
        },
        {
          "duration": 0.06944433333333677,
          "durationTicks": 20,
          "midi": 65,
          "name": "F4",
          "ticks": 10720,
          "time": 37.22216266666666,
          "velocity": 0.6692913385826772
        },
        {
          "duration": 0.05555546666666089,
          "durationTicks": 16,
          "midi": 50,
          "name": "D3",
          "ticks": 10760,
          "time": 37.361051333333336,
          "velocity": 0.7007874015748031
        },
        {
          "duration": 0.06944433333332967,
          "durationTicks": 20,
          "midi": 57,
          "name": "A3",
          "ticks": 10760,
          "time": 37.361051333333336,
          "velocity": 0.6692913385826772
        },
        {
          "duration": 0.07638876666667471,
          "durationTicks": 22,
          "midi": 62,
          "name": "D4",
          "ticks": 10800,
          "time": 37.499939999999995,
          "velocity": 0.7322834645669292
        },
        {
          "duration": 0.07638876666667471,
          "durationTicks": 22,
          "midi": 65,
          "name": "F4",
          "ticks": 10800,
          "time": 37.499939999999995,
          "velocity": 0.7716535433070866
        },
        {
          "duration": 0.08333320000000555,
          "durationTicks": 24,
          "midi": 69,
          "name": "A4",
          "ticks": 10800,
          "time": 37.499939999999995,
          "velocity": 0.7322834645669292
        },
        {
          "duration": 0.06597211666666425,
          "durationTicks": 19,
          "midi": 57,
          "name": "A3",
          "ticks": 10840,
          "time": 37.63882866666666,
          "velocity": 0.5669291338582677
        },
        {
          "duration": 0.04861103333333716,
          "durationTicks": 14,
          "midi": 50,
          "name": "D3",
          "ticks": 10840,
          "time": 37.63882866666666,
          "velocity": 0.6299212598425197
        },
        {
          "duration": 0.0937498499999947,
          "durationTicks": 27,
          "midi": 69,
          "name": "A4",
          "ticks": 10880,
          "time": 37.777717333333335,
          "velocity": 0.7007874015748031
        },
        {
          "duration": 0.08333319999999134,
          "durationTicks": 24,
          "midi": 62,
          "name": "D4",
          "ticks": 10880,
          "time": 37.777717333333335,
          "velocity": 0.6692913385826772
        },
        {
          "duration": 0.0937498499999947,
          "durationTicks": 27,
          "midi": 65,
          "name": "F4",
          "ticks": 10880,
          "time": 37.777717333333335,
          "velocity": 0.7716535433070866
        },
        {
          "duration": 0.06944433333332967,
          "durationTicks": 20,
          "midi": 50,
          "name": "D3",
          "ticks": 10920,
          "time": 37.916606,
          "velocity": 0.7007874015748031
        },
        {
          "duration": 0.07986098333332592,
          "durationTicks": 23,
          "midi": 57,
          "name": "A3",
          "ticks": 10920,
          "time": 37.916606,
          "velocity": 0.7716535433070866
        },
        {
          "duration": 0.08333320000000555,
          "durationTicks": 24,
          "midi": 62,
          "name": "D4",
          "ticks": 10960,
          "time": 38.05549466666666,
          "velocity": 0.7007874015748031
        },
        {
          "duration": 0.07986098333334013,
          "durationTicks": 23,
          "midi": 65,
          "name": "F4",
          "ticks": 10960,
          "time": 38.05549466666666,
          "velocity": 0.7322834645669292
        },
        {
          "duration": 0.09027763333333638,
          "durationTicks": 26,
          "midi": 69,
          "name": "A4",
          "ticks": 10960,
          "time": 38.05549466666666,
          "velocity": 0.7322834645669292
        },
        {
          "duration": 0.0763887666666605,
          "durationTicks": 22,
          "midi": 50,
          "name": "D3",
          "ticks": 11000,
          "time": 38.194383333333334,
          "velocity": 0.8031496062992126
        },
        {
          "duration": 0.06249989999999883,
          "durationTicks": 18,
          "midi": 57,
          "name": "A3",
          "ticks": 11000,
          "time": 38.194383333333334,
          "velocity": 0.84251968503937
        },
        {
          "duration": 0.1909719166666619,
          "durationTicks": 55,
          "midi": 53,
          "name": "F3",
          "ticks": 11040,
          "time": 38.333272,
          "velocity": 0.5354330708661418
        },
        {
          "duration": 0.2048607833333307,
          "durationTicks": 59,
          "midi": 57,
          "name": "A3",
          "ticks": 11040,
          "time": 38.333272,
          "velocity": 0.7322834645669292
        },
        {
          "duration": 0.2048607833333307,
          "durationTicks": 59,
          "midi": 60,
          "name": "C4",
          "ticks": 11040,
          "time": 38.333272,
          "velocity": 0.7007874015748031
        },
        {
          "duration": 0.10069428333332553,
          "durationTicks": 29,
          "midi": 60,
          "name": "C4",
          "ticks": 11160,
          "time": 38.749938,
          "velocity": 0.7322834645669292
        },
        {
          "duration": 0.09722206666666722,
          "durationTicks": 28,
          "midi": 57,
          "name": "A3",
          "ticks": 11160,
          "time": 38.749938,
          "velocity": 0.7007874015748031
        },
        {
          "duration": 0.11111093333332889,
          "durationTicks": 32,
          "midi": 53,
          "name": "F3",
          "ticks": 11160,
          "time": 38.749938,
          "velocity": 0.6692913385826772
        },
        {
          "duration": 0.08680541666667096,
          "durationTicks": 25,
          "midi": 41,
          "name": "F2",
          "ticks": 11200,
          "time": 38.88882666666666,
          "velocity": 0.6692913385826772
        },
        {
          "duration": 0.08680541666666386,
          "durationTicks": 25,
          "midi": 53,
          "name": "F3",
          "ticks": 11240,
          "time": 39.02771533333333,
          "velocity": 0.5984251968503937
        },
        {
          "duration": 0.0937498499999947,
          "durationTicks": 27,
          "midi": 60,
          "name": "C4",
          "ticks": 11240,
          "time": 39.02771533333333,
          "velocity": 0.7007874015748031
        },
        {
          "duration": 0.0937498499999947,
          "durationTicks": 27,
          "midi": 57,
          "name": "A3",
          "ticks": 11240,
          "time": 39.02771533333333,
          "velocity": 0.6692913385826772
        },
        {
          "duration": 0.0937498499999947,
          "durationTicks": 27,
          "midi": 41,
          "name": "F2",
          "ticks": 11280,
          "time": 39.166604,
          "velocity": 0.7322834645669292
        },
        {
          "duration": 0.07986098333333302,
          "durationTicks": 23,
          "midi": 53,
          "name": "F3",
          "ticks": 11320,
          "time": 39.305492666666666,
          "velocity": 0.4881889763779528
        },
        {
          "duration": 0.07291655000000219,
          "durationTicks": 21,
          "midi": 60,
          "name": "C4",
          "ticks": 11320,
          "time": 39.305492666666666,
          "velocity": 0.6299212598425197
        },
        {
          "duration": 0.08680541666667096,
          "durationTicks": 25,
          "midi": 57,
          "name": "A3",
          "ticks": 11320,
          "time": 39.305492666666666,
          "velocity": 0.6299212598425197
        },
        {
          "duration": 0.10416649999999805,
          "durationTicks": 30,
          "midi": 41,
          "name": "F2",
          "ticks": 11360,
          "time": 39.44438133333333,
          "velocity": 0.8031496062992126
        },
        {
          "duration": 0.10069428333333263,
          "durationTicks": 29,
          "midi": 60,
          "name": "C4",
          "ticks": 11400,
          "time": 39.58327,
          "velocity": 0.8031496062992126
        },
        {
          "duration": 0.09722206666666722,
          "durationTicks": 28,
          "midi": 53,
          "name": "F3",
          "ticks": 11400,
          "time": 39.58327,
          "velocity": 0.7007874015748031
        },
        {
          "duration": 0.10763871666667058,
          "durationTicks": 31,
          "midi": 57,
          "name": "A3",
          "ticks": 11400,
          "time": 39.58327,
          "velocity": 0.7716535433070866
        },
        {
          "duration": 0.10069428333333263,
          "durationTicks": 29,
          "midi": 41,
          "name": "F2",
          "ticks": 11440,
          "time": 39.722158666666665,
          "velocity": 0.7716535433070866
        },
        {
          "duration": 0.14583309999999727,
          "durationTicks": 42,
          "midi": 57,
          "name": "A3",
          "ticks": 11480,
          "time": 39.86104733333333,
          "velocity": 0.7322834645669292
        },
        {
          "duration": 0.1527775333333352,
          "durationTicks": 44,
          "midi": 60,
          "name": "C4",
          "ticks": 11480,
          "time": 39.86104733333333,
          "velocity": 0.7716535433070866
        },
        {
          "duration": 0.11805536666666683,
          "durationTicks": 34,
          "midi": 53,
          "name": "F3",
          "ticks": 11480,
          "time": 39.86104733333333,
          "velocity": 0.6299212598425197
        },
        {
          "duration": 0.1527775333333281,
          "durationTicks": 44,
          "midi": 43,
          "name": "G2",
          "ticks": 11520,
          "time": 39.999936,
          "velocity": 0.84251968503937
        },
        {
          "duration": 0.0937498500000018,
          "durationTicks": 27,
          "midi": 62,
          "name": "D4",
          "ticks": 11560,
          "time": 40.138824666666665,
          "velocity": 0.6692913385826772
        },
        {
          "duration": 0.0937498500000018,
          "durationTicks": 27,
          "midi": 55,
          "name": "G3",
          "ticks": 11560,
          "time": 40.138824666666665,
          "velocity": 0.5354330708661418
        },
        {
          "duration": 0.10069428333333263,
          "durationTicks": 29,
          "midi": 59,
          "name": "B3",
          "ticks": 11560,
          "time": 40.138824666666665,
          "velocity": 0.7007874015748031
        },
        {
          "duration": 0.10416650000000516,
          "durationTicks": 30,
          "midi": 43,
          "name": "G2",
          "ticks": 11600,
          "time": 40.27771333333333,
          "velocity": 0.7007874015748031
        },
        {
          "duration": 0.10763871666667058,
          "durationTicks": 31,
          "midi": 62,
          "name": "D4",
          "ticks": 11640,
          "time": 40.416602,
          "velocity": 0.7716535433070866
        },
        {
          "duration": 0.10069428333333263,
          "durationTicks": 29,
          "midi": 55,
          "name": "G3",
          "ticks": 11640,
          "time": 40.416602,
          "velocity": 0.6692913385826772
        },
        {
          "duration": 0.10069428333333263,
          "durationTicks": 29,
          "midi": 59,
          "name": "B3",
          "ticks": 11640,
          "time": 40.416602,
          "velocity": 0.7716535433070866
        },
        {
          "duration": 0.09027763333333638,
          "durationTicks": 26,
          "midi": 43,
          "name": "G2",
          "ticks": 11680,
          "time": 40.555490666666664,
          "velocity": 0.7007874015748031
        },
        {
          "duration": 0.10763871666666347,
          "durationTicks": 31,
          "midi": 62,
          "name": "D4",
          "ticks": 11720,
          "time": 40.69437933333333,
          "velocity": 0.7716535433070866
        },
        {
          "duration": 0.10069428333333263,
          "durationTicks": 29,
          "midi": 59,
          "name": "B3",
          "ticks": 11720,
          "time": 40.69437933333333,
          "velocity": 0.7322834645669292
        },
        {
          "duration": 0.10416650000000516,
          "durationTicks": 30,
          "midi": 55,
          "name": "G3",
          "ticks": 11720,
          "time": 40.69437933333333,
          "velocity": 0.6299212598425197
        },
        {
          "duration": 0.10069428333333263,
          "durationTicks": 29,
          "midi": 43,
          "name": "G2",
          "ticks": 11760,
          "time": 40.833268,
          "velocity": 0.8031496062992126
        },
        {
          "duration": 0.07986098333334013,
          "durationTicks": 23,
          "midi": 62,
          "name": "D4",
          "ticks": 11800,
          "time": 40.97215666666666,
          "velocity": 0.7007874015748031
        },
        {
          "duration": 0.08333319999999844,
          "durationTicks": 24,
          "midi": 55,
          "name": "G3",
          "ticks": 11800,
          "time": 40.97215666666666,
          "velocity": 0.5669291338582677
        },
        {
          "duration": 0.08680541666667096,
          "durationTicks": 25,
          "midi": 59,
          "name": "B3",
          "ticks": 11800,
          "time": 40.97215666666666,
          "velocity": 0.7322834645669292
        },
        {
          "duration": 0.14583309999999727,
          "durationTicks": 42,
          "midi": 43,
          "name": "G2",
          "ticks": 11840,
          "time": 41.11104533333334,
          "velocity": 0.7322834645669292
        },
        {
          "duration": 0.11458315000000141,
          "durationTicks": 33,
          "midi": 62,
          "name": "D4",
          "ticks": 11880,
          "time": 41.249933999999996,
          "velocity": 0.84251968503937
        },
        {
          "duration": 0.10763871666667058,
          "durationTicks": 31,
          "midi": 55,
          "name": "G3",
          "ticks": 11880,
          "time": 41.249933999999996,
          "velocity": 0.7322834645669292
        },
        {
          "duration": 0.11111093333333599,
          "durationTicks": 32,
          "midi": 59,
          "name": "B3",
          "ticks": 11880,
          "time": 41.249933999999996,
          "velocity": 0.84251968503937
        },
        {
          "duration": 0.07291654999999508,
          "durationTicks": 21,
          "midi": 55,
          "name": "G3",
          "ticks": 11960,
          "time": 41.527711333333336,
          "velocity": 0.6692913385826772
        },
        {
          "duration": 0.11111093333332889,
          "durationTicks": 32,
          "midi": 62,
          "name": "D4",
          "ticks": 11960,
          "time": 41.527711333333336,
          "velocity": 0.84251968503937
        },
        {
          "duration": 0.09722206666666722,
          "durationTicks": 28,
          "midi": 59,
          "name": "B3",
          "ticks": 11960,
          "time": 41.527711333333336,
          "velocity": 0.8031496062992126
        },
        {
          "duration": 0.12847201666667019,
          "durationTicks": 37,
          "midi": 46,
          "name": "A#2",
          "ticks": 12000,
          "time": 41.666599999999995,
          "velocity": 0.889763779527559
        },
        {
          "duration": 0.06944433333333677,
          "durationTicks": 20,
          "midi": 62,
          "name": "D4",
          "ticks": 12040,
          "time": 41.80548866666666,
          "velocity": 0.4881889763779528
        },
        {
          "duration": 0.10069428333333974,
          "durationTicks": 29,
          "midi": 58,
          "name": "A#3",
          "ticks": 12040,
          "time": 41.80548866666666,
          "velocity": 0.4409448818897638
        },
        {
          "duration": 0.07986098333334013,
          "durationTicks": 23,
          "midi": 65,
          "name": "F4",
          "ticks": 12040,
          "time": 41.80548866666666,
          "velocity": 0.7007874015748031
        },
        {
          "duration": 0.10416649999999805,
          "durationTicks": 30,
          "midi": 46,
          "name": "A#2",
          "ticks": 12080,
          "time": 41.944377333333335,
          "velocity": 0.6692913385826772
        },
        {
          "duration": 0.11111093333333599,
          "durationTicks": 32,
          "midi": 58,
          "name": "A#3",
          "ticks": 12120,
          "time": 42.083265999999995,
          "velocity": 0.6299212598425197
        },
        {
          "duration": 0.11805536666666683,
          "durationTicks": 34,
          "midi": 65,
          "name": "F4",
          "ticks": 12120,
          "time": 42.083265999999995,
          "velocity": 0.7716535433070866
        },
        {
          "duration": 0.0937498500000018,
          "durationTicks": 27,
          "midi": 62,
          "name": "D4",
          "ticks": 12120,
          "time": 42.083265999999995,
          "velocity": 0.8031496062992126
        },
        {
          "duration": 0.13541644999999392,
          "durationTicks": 39,
          "midi": 58,
          "name": "A#3",
          "ticks": 12200,
          "time": 42.361043333333335,
          "velocity": 0.5039370078740157
        },
        {
          "duration": 0.10763871666666347,
          "durationTicks": 31,
          "midi": 62,
          "name": "D4",
          "ticks": 12200,
          "time": 42.361043333333335,
          "velocity": 0.7716535433070866
        },
        {
          "duration": 0.1145831499999943,
          "durationTicks": 33,
          "midi": 65,
          "name": "F4",
          "ticks": 12200,
          "time": 42.361043333333335,
          "velocity": 0.7007874015748031
        },
        {
          "duration": 0.08680541666666386,
          "durationTicks": 25,
          "midi": 46,
          "name": "A#2",
          "ticks": 12240,
          "time": 42.499932,
          "velocity": 0.84251968503937
        },
        {
          "duration": 0.10416650000000516,
          "durationTicks": 30,
          "midi": 58,
          "name": "A#3",
          "ticks": 12280,
          "time": 42.63882066666666,
          "velocity": 0.4645669291338583
        },
        {
          "duration": 0.09027763333333638,
          "durationTicks": 26,
          "midi": 65,
          "name": "F4",
          "ticks": 12280,
          "time": 42.63882066666666,
          "velocity": 0.7007874015748031
        },
        {
          "duration": 0.09027763333333638,
          "durationTicks": 26,
          "midi": 62,
          "name": "D4",
          "ticks": 12280,
          "time": 42.63882066666666,
          "velocity": 0.7007874015748031
        },
        {
          "duration": 0.12152758333332514,
          "durationTicks": 35,
          "midi": 46,
          "name": "A#2",
          "ticks": 12320,
          "time": 42.777709333333334,
          "velocity": 0.8031496062992126
        },
        {
          "duration": 0.14236088333333186,
          "durationTicks": 41,
          "midi": 65,
          "name": "F4",
          "ticks": 12360,
          "time": 42.916598,
          "velocity": 0.7716535433070866
        },
        {
          "duration": 0.1701386166666623,
          "durationTicks": 49,
          "midi": 58,
          "name": "A#3",
          "ticks": 12360,
          "time": 42.916598,
          "velocity": 0.6299212598425197
        },
        {
          "duration": 0.1493053166666627,
          "durationTicks": 43,
          "midi": 62,
          "name": "D4",
          "ticks": 12360,
          "time": 42.916598,
          "velocity": 0.84251968503937
        },
        {
          "duration": 0.09027763333333638,
          "durationTicks": 26,
          "midi": 65,
          "name": "F4",
          "ticks": 12440,
          "time": 43.19437533333333,
          "velocity": 0.7716535433070866
        },
        {
          "duration": 0.0763887666666605,
          "durationTicks": 22,
          "midi": 62,
          "name": "D4",
          "ticks": 12440,
          "time": 43.19437533333333,
          "velocity": 0.84251968503937
        },
        {
          "duration": 0.10069428333333263,
          "durationTicks": 29,
          "midi": 58,
          "name": "A#3",
          "ticks": 12440,
          "time": 43.19437533333333,
          "velocity": 0.7007874015748031
        },
        {
          "duration": 0.11458315000000141,
          "durationTicks": 33,
          "midi": 69,
          "name": "A4",
          "ticks": 12480,
          "time": 43.333264,
          "velocity": 0.7322834645669292
        },
        {
          "duration": 0.10416649999999805,
          "durationTicks": 30,
          "midi": 62,
          "name": "D4",
          "ticks": 12480,
          "time": 43.333264,
          "velocity": 0.7322834645669292
        },
        {
          "duration": 0.10416649999999805,
          "durationTicks": 30,
          "midi": 65,
          "name": "F4",
          "ticks": 12480,
          "time": 43.333264,
          "velocity": 0.7716535433070866
        },
        {
          "duration": 0.08333319999999844,
          "durationTicks": 24,
          "midi": 57,
          "name": "A3",
          "ticks": 12520,
          "time": 43.472152666666666,
          "velocity": 0.7007874015748031
        },
        {
          "duration": 0.06944433333332967,
          "durationTicks": 20,
          "midi": 50,
          "name": "D3",
          "ticks": 12520,
          "time": 43.472152666666666,
          "velocity": 0.7322834645669292
        },
        {
          "duration": 0.06597211666666425,
          "durationTicks": 19,
          "midi": 62,
          "name": "D4",
          "ticks": 12560,
          "time": 43.61104133333333,
          "velocity": 0.5984251968503937
        },
        {
          "duration": 0.07986098333333302,
          "durationTicks": 23,
          "midi": 69,
          "name": "A4",
          "ticks": 12560,
          "time": 43.61104133333333,
          "velocity": 0.7007874015748031
        },
        {
          "duration": 0.06597211666666425,
          "durationTicks": 19,
          "midi": 65,
          "name": "F4",
          "ticks": 12560,
          "time": 43.61104133333333,
          "velocity": 0.6692913385826772
        },
        {
          "duration": 0.059027683333333414,
          "durationTicks": 17,
          "midi": 50,
          "name": "D3",
          "ticks": 12600,
          "time": 43.74993,
          "velocity": 0.5984251968503937
        },
        {
          "duration": 0.07986098333333302,
          "durationTicks": 23,
          "midi": 57,
          "name": "A3",
          "ticks": 12600,
          "time": 43.74993,
          "velocity": 0.6692913385826772
        },
        {
          "duration": 0.059027683333333414,
          "durationTicks": 17,
          "midi": 62,
          "name": "D4",
          "ticks": 12640,
          "time": 43.888818666666666,
          "velocity": 0.4881889763779528
        },
        {
          "duration": 0.055555466666667996,
          "durationTicks": 16,
          "midi": 69,
          "name": "A4",
          "ticks": 12640,
          "time": 43.888818666666666,
          "velocity": 0.5984251968503937
        },
        {
          "duration": 0.06944433333332967,
          "durationTicks": 20,
          "midi": 65,
          "name": "F4",
          "ticks": 12640,
          "time": 43.888818666666666,
          "velocity": 0.6692913385826772
        },
        {
          "duration": 0.055555466666667996,
          "durationTicks": 16,
          "midi": 50,
          "name": "D3",
          "ticks": 12680,
          "time": 44.02770733333333,
          "velocity": 0.7007874015748031
        },
        {
          "duration": 0.06944433333332967,
          "durationTicks": 20,
          "midi": 57,
          "name": "A3",
          "ticks": 12680,
          "time": 44.02770733333333,
          "velocity": 0.6692913385826772
        },
        {
          "duration": 0.0763887666666676,
          "durationTicks": 22,
          "midi": 62,
          "name": "D4",
          "ticks": 12720,
          "time": 44.166596,
          "velocity": 0.7322834645669292
        },
        {
          "duration": 0.0763887666666676,
          "durationTicks": 22,
          "midi": 65,
          "name": "F4",
          "ticks": 12720,
          "time": 44.166596,
          "velocity": 0.7716535433070866
        },
        {
          "duration": 0.08333319999999844,
          "durationTicks": 24,
          "midi": 69,
          "name": "A4",
          "ticks": 12720,
          "time": 44.166596,
          "velocity": 0.7322834645669292
        },
        {
          "duration": 0.06597211666666425,
          "durationTicks": 19,
          "midi": 57,
          "name": "A3",
          "ticks": 12760,
          "time": 44.305484666666665,
          "velocity": 0.5669291338582677
        },
        {
          "duration": 0.04861103333333716,
          "durationTicks": 14,
          "midi": 50,
          "name": "D3",
          "ticks": 12760,
          "time": 44.305484666666665,
          "velocity": 0.6299212598425197
        },
        {
          "duration": 0.0937498500000018,
          "durationTicks": 27,
          "midi": 69,
          "name": "A4",
          "ticks": 12800,
          "time": 44.44437333333333,
          "velocity": 0.7007874015748031
        },
        {
          "duration": 0.08333319999999844,
          "durationTicks": 24,
          "midi": 62,
          "name": "D4",
          "ticks": 12800,
          "time": 44.44437333333333,
          "velocity": 0.6692913385826772
        },
        {
          "duration": 0.0937498500000018,
          "durationTicks": 27,
          "midi": 65,
          "name": "F4",
          "ticks": 12800,
          "time": 44.44437333333333,
          "velocity": 0.7716535433070866
        },
        {
          "duration": 0.06944433333333677,
          "durationTicks": 20,
          "midi": 50,
          "name": "D3",
          "ticks": 12840,
          "time": 44.583262,
          "velocity": 0.7007874015748031
        },
        {
          "duration": 0.07986098333333302,
          "durationTicks": 23,
          "midi": 57,
          "name": "A3",
          "ticks": 12840,
          "time": 44.583262,
          "velocity": 0.7716535433070866
        },
        {
          "duration": 0.08333319999999844,
          "durationTicks": 24,
          "midi": 62,
          "name": "D4",
          "ticks": 12880,
          "time": 44.722150666666664,
          "velocity": 0.7007874015748031
        },
        {
          "duration": 0.07986098333333302,
          "durationTicks": 23,
          "midi": 65,
          "name": "F4",
          "ticks": 12880,
          "time": 44.722150666666664,
          "velocity": 0.7322834645669292
        },
        {
          "duration": 0.09027763333332928,
          "durationTicks": 26,
          "midi": 69,
          "name": "A4",
          "ticks": 12880,
          "time": 44.722150666666664,
          "velocity": 0.7322834645669292
        },
        {
          "duration": 0.0763887666666676,
          "durationTicks": 22,
          "midi": 50,
          "name": "D3",
          "ticks": 12920,
          "time": 44.86103933333333,
          "velocity": 0.8031496062992126
        },
        {
          "duration": 0.06249989999999883,
          "durationTicks": 18,
          "midi": 57,
          "name": "A3",
          "ticks": 12920,
          "time": 44.86103933333333,
          "velocity": 0.84251968503937
        },
        {
          "duration": 0.19097191666666902,
          "durationTicks": 55,
          "midi": 53,
          "name": "F3",
          "ticks": 12960,
          "time": 44.999928,
          "velocity": 0.5354330708661418
        },
        {
          "duration": 0.2048607833333307,
          "durationTicks": 59,
          "midi": 57,
          "name": "A3",
          "ticks": 12960,
          "time": 44.999928,
          "velocity": 0.7322834645669292
        },
        {
          "duration": 0.2048607833333307,
          "durationTicks": 59,
          "midi": 60,
          "name": "C4",
          "ticks": 12960,
          "time": 44.999928,
          "velocity": 0.7007874015748031
        },
        {
          "duration": 0.10069428333333263,
          "durationTicks": 29,
          "midi": 60,
          "name": "C4",
          "ticks": 13080,
          "time": 45.416593999999996,
          "velocity": 0.7322834645669292
        },
        {
          "duration": 0.09722206666666722,
          "durationTicks": 28,
          "midi": 57,
          "name": "A3",
          "ticks": 13080,
          "time": 45.416593999999996,
          "velocity": 0.7007874015748031
        },
        {
          "duration": 0.11111093333333599,
          "durationTicks": 32,
          "midi": 53,
          "name": "F3",
          "ticks": 13080,
          "time": 45.416593999999996,
          "velocity": 0.6692913385826772
        },
        {
          "duration": 0.08680541666667096,
          "durationTicks": 25,
          "midi": 41,
          "name": "F2",
          "ticks": 13120,
          "time": 45.55548266666666,
          "velocity": 0.6692913385826772
        },
        {
          "duration": 0.08680541666666386,
          "durationTicks": 25,
          "midi": 53,
          "name": "F3",
          "ticks": 13160,
          "time": 45.694371333333336,
          "velocity": 0.5984251968503937
        },
        {
          "duration": 0.0937498499999947,
          "durationTicks": 27,
          "midi": 60,
          "name": "C4",
          "ticks": 13160,
          "time": 45.694371333333336,
          "velocity": 0.7007874015748031
        },
        {
          "duration": 0.0937498499999947,
          "durationTicks": 27,
          "midi": 57,
          "name": "A3",
          "ticks": 13160,
          "time": 45.694371333333336,
          "velocity": 0.6692913385826772
        },
        {
          "duration": 0.0937498500000018,
          "durationTicks": 27,
          "midi": 41,
          "name": "F2",
          "ticks": 13200,
          "time": 45.833259999999996,
          "velocity": 0.7322834645669292
        },
        {
          "duration": 0.07986098333334013,
          "durationTicks": 23,
          "midi": 53,
          "name": "F3",
          "ticks": 13240,
          "time": 45.97214866666666,
          "velocity": 0.4881889763779528
        },
        {
          "duration": 0.07291655000000219,
          "durationTicks": 21,
          "midi": 60,
          "name": "C4",
          "ticks": 13240,
          "time": 45.97214866666666,
          "velocity": 0.6299212598425197
        },
        {
          "duration": 0.08680541666667096,
          "durationTicks": 25,
          "midi": 57,
          "name": "A3",
          "ticks": 13240,
          "time": 45.97214866666666,
          "velocity": 0.6299212598425197
        },
        {
          "duration": 0.10416649999999805,
          "durationTicks": 30,
          "midi": 41,
          "name": "F2",
          "ticks": 13280,
          "time": 46.111037333333336,
          "velocity": 0.8031496062992126
        },
        {
          "duration": 0.10069428333333263,
          "durationTicks": 29,
          "midi": 60,
          "name": "C4",
          "ticks": 13320,
          "time": 46.249925999999995,
          "velocity": 0.8031496062992126
        },
        {
          "duration": 0.09722206666666722,
          "durationTicks": 28,
          "midi": 53,
          "name": "F3",
          "ticks": 13320,
          "time": 46.249925999999995,
          "velocity": 0.7007874015748031
        },
        {
          "duration": 0.10763871666667058,
          "durationTicks": 31,
          "midi": 57,
          "name": "A3",
          "ticks": 13320,
          "time": 46.249925999999995,
          "velocity": 0.7716535433070866
        },
        {
          "duration": 0.10069428333333974,
          "durationTicks": 29,
          "midi": 41,
          "name": "F2",
          "ticks": 13360,
          "time": 46.38881466666666,
          "velocity": 0.7716535433070866
        },
        {
          "duration": 0.14583309999999727,
          "durationTicks": 42,
          "midi": 57,
          "name": "A3",
          "ticks": 13400,
          "time": 46.527703333333335,
          "velocity": 0.7322834645669292
        },
        {
          "duration": 0.1527775333333281,
          "durationTicks": 44,
          "midi": 60,
          "name": "C4",
          "ticks": 13400,
          "time": 46.527703333333335,
          "velocity": 0.7716535433070866
        },
        {
          "duration": 0.11805536666666683,
          "durationTicks": 34,
          "midi": 53,
          "name": "F3",
          "ticks": 13400,
          "time": 46.527703333333335,
          "velocity": 0.6299212598425197
        },
        {
          "duration": 0.1527775333333352,
          "durationTicks": 44,
          "midi": 43,
          "name": "G2",
          "ticks": 13440,
          "time": 46.666591999999994,
          "velocity": 0.84251968503937
        },
        {
          "duration": 0.0937498500000018,
          "durationTicks": 27,
          "midi": 62,
          "name": "D4",
          "ticks": 13480,
          "time": 46.80548066666666,
          "velocity": 0.6692913385826772
        },
        {
          "duration": 0.0937498500000018,
          "durationTicks": 27,
          "midi": 55,
          "name": "G3",
          "ticks": 13480,
          "time": 46.80548066666666,
          "velocity": 0.5354330708661418
        },
        {
          "duration": 0.10069428333333974,
          "durationTicks": 29,
          "midi": 59,
          "name": "B3",
          "ticks": 13480,
          "time": 46.80548066666666,
          "velocity": 0.7007874015748031
        },
        {
          "duration": 0.10416649999999805,
          "durationTicks": 30,
          "midi": 43,
          "name": "G2",
          "ticks": 13520,
          "time": 46.944369333333334,
          "velocity": 0.7007874015748031
        },
        {
          "duration": 0.10763871666666347,
          "durationTicks": 31,
          "midi": 62,
          "name": "D4",
          "ticks": 13560,
          "time": 47.083258,
          "velocity": 0.7716535433070866
        },
        {
          "duration": 0.10069428333332553,
          "durationTicks": 29,
          "midi": 55,
          "name": "G3",
          "ticks": 13560,
          "time": 47.083258,
          "velocity": 0.6692913385826772
        },
        {
          "duration": 0.10069428333332553,
          "durationTicks": 29,
          "midi": 59,
          "name": "B3",
          "ticks": 13560,
          "time": 47.083258,
          "velocity": 0.7716535433070866
        },
        {
          "duration": 0.09027763333333638,
          "durationTicks": 26,
          "midi": 43,
          "name": "G2",
          "ticks": 13600,
          "time": 47.22214666666666,
          "velocity": 0.7007874015748031
        },
        {
          "duration": 0.10763871666666347,
          "durationTicks": 31,
          "midi": 62,
          "name": "D4",
          "ticks": 13640,
          "time": 47.361035333333334,
          "velocity": 0.7716535433070866
        },
        {
          "duration": 0.10069428333333263,
          "durationTicks": 29,
          "midi": 59,
          "name": "B3",
          "ticks": 13640,
          "time": 47.361035333333334,
          "velocity": 0.7322834645669292
        },
        {
          "duration": 0.10416649999999805,
          "durationTicks": 30,
          "midi": 55,
          "name": "G3",
          "ticks": 13640,
          "time": 47.361035333333334,
          "velocity": 0.6299212598425197
        },
        {
          "duration": 0.10069428333332553,
          "durationTicks": 29,
          "midi": 43,
          "name": "G2",
          "ticks": 13680,
          "time": 47.499924,
          "velocity": 0.8031496062992126
        },
        {
          "duration": 0.07986098333334013,
          "durationTicks": 23,
          "midi": 62,
          "name": "D4",
          "ticks": 13720,
          "time": 47.63881266666666,
          "velocity": 0.7007874015748031
        },
        {
          "duration": 0.08333320000000555,
          "durationTicks": 24,
          "midi": 55,
          "name": "G3",
          "ticks": 13720,
          "time": 47.63881266666666,
          "velocity": 0.5669291338582677
        },
        {
          "duration": 0.08680541666667096,
          "durationTicks": 25,
          "midi": 59,
          "name": "B3",
          "ticks": 13720,
          "time": 47.63881266666666,
          "velocity": 0.7322834645669292
        },
        {
          "duration": 0.14583309999999727,
          "durationTicks": 42,
          "midi": 43,
          "name": "G2",
          "ticks": 13760,
          "time": 47.77770133333333,
          "velocity": 0.7322834645669292
        },
        {
          "duration": 0.11458315000000141,
          "durationTicks": 33,
          "midi": 62,
          "name": "D4",
          "ticks": 13800,
          "time": 47.91659,
          "velocity": 0.84251968503937
        },
        {
          "duration": 0.10763871666667058,
          "durationTicks": 31,
          "midi": 55,
          "name": "G3",
          "ticks": 13800,
          "time": 47.91659,
          "velocity": 0.7322834645669292
        },
        {
          "duration": 0.11111093333332889,
          "durationTicks": 32,
          "midi": 59,
          "name": "B3",
          "ticks": 13800,
          "time": 47.91659,
          "velocity": 0.84251968503937
        },
        {
          "duration": 0.07291655000000219,
          "durationTicks": 21,
          "midi": 55,
          "name": "G3",
          "ticks": 13880,
          "time": 48.19436733333333,
          "velocity": 0.6692913385826772
        },
        {
          "duration": 0.11111093333333599,
          "durationTicks": 32,
          "midi": 62,
          "name": "D4",
          "ticks": 13880,
          "time": 48.19436733333333,
          "velocity": 0.84251968503937
        },
        {
          "duration": 0.09722206666666722,
          "durationTicks": 28,
          "midi": 59,
          "name": "B3",
          "ticks": 13880,
          "time": 48.19436733333333,
          "velocity": 0.8031496062992126
        },
        {
          "duration": 0.12847201666667019,
          "durationTicks": 37,
          "midi": 46,
          "name": "A#2",
          "ticks": 13920,
          "time": 48.333256,
          "velocity": 0.889763779527559
        },
        {
          "duration": 0.06944433333332967,
          "durationTicks": 20,
          "midi": 62,
          "name": "D4",
          "ticks": 13960,
          "time": 48.472144666666665,
          "velocity": 0.4881889763779528
        },
        {
          "duration": 0.10069428333333263,
          "durationTicks": 29,
          "midi": 58,
          "name": "A#3",
          "ticks": 13960,
          "time": 48.472144666666665,
          "velocity": 0.4409448818897638
        },
        {
          "duration": 0.07986098333333302,
          "durationTicks": 23,
          "midi": 65,
          "name": "F4",
          "ticks": 13960,
          "time": 48.472144666666665,
          "velocity": 0.7007874015748031
        },
        {
          "duration": 0.10416649999999805,
          "durationTicks": 30,
          "midi": 46,
          "name": "A#2",
          "ticks": 14000,
          "time": 48.61103333333333,
          "velocity": 0.6692913385826772
        },
        {
          "duration": 0.11111093333333599,
          "durationTicks": 32,
          "midi": 58,
          "name": "A#3",
          "ticks": 14040,
          "time": 48.749922,
          "velocity": 0.6299212598425197
        },
        {
          "duration": 0.11805536666666683,
          "durationTicks": 34,
          "midi": 65,
          "name": "F4",
          "ticks": 14040,
          "time": 48.749922,
          "velocity": 0.7716535433070866
        },
        {
          "duration": 0.0937498499999947,
          "durationTicks": 27,
          "midi": 62,
          "name": "D4",
          "ticks": 14040,
          "time": 48.749922,
          "velocity": 0.8031496062992126
        },
        {
          "duration": 0.13541644999999392,
          "durationTicks": 39,
          "midi": 58,
          "name": "A#3",
          "ticks": 14120,
          "time": 49.02769933333333,
          "velocity": 0.5039370078740157
        },
        {
          "duration": 0.10763871666666347,
          "durationTicks": 31,
          "midi": 62,
          "name": "D4",
          "ticks": 14120,
          "time": 49.02769933333333,
          "velocity": 0.7716535433070866
        },
        {
          "duration": 0.11458315000000141,
          "durationTicks": 33,
          "midi": 65,
          "name": "F4",
          "ticks": 14120,
          "time": 49.02769933333333,
          "velocity": 0.7007874015748031
        },
        {
          "duration": 0.08680541666666386,
          "durationTicks": 25,
          "midi": 46,
          "name": "A#2",
          "ticks": 14160,
          "time": 49.166588,
          "velocity": 0.84251968503937
        },
        {
          "duration": 0.10416649999999805,
          "durationTicks": 30,
          "midi": 58,
          "name": "A#3",
          "ticks": 14200,
          "time": 49.305476666666664,
          "velocity": 0.4645669291338583
        },
        {
          "duration": 0.09027763333332928,
          "durationTicks": 26,
          "midi": 65,
          "name": "F4",
          "ticks": 14200,
          "time": 49.305476666666664,
          "velocity": 0.7007874015748031
        },
        {
          "duration": 0.09027763333332928,
          "durationTicks": 26,
          "midi": 62,
          "name": "D4",
          "ticks": 14200,
          "time": 49.305476666666664,
          "velocity": 0.7007874015748031
        },
        {
          "duration": 0.12152758333333225,
          "durationTicks": 35,
          "midi": 46,
          "name": "A#2",
          "ticks": 14240,
          "time": 49.44436533333333,
          "velocity": 0.8031496062992126
        },
        {
          "duration": 0.14236088333333186,
          "durationTicks": 41,
          "midi": 65,
          "name": "F4",
          "ticks": 14280,
          "time": 49.583254,
          "velocity": 0.7716535433070866
        },
        {
          "duration": 0.1701386166666694,
          "durationTicks": 49,
          "midi": 58,
          "name": "A#3",
          "ticks": 14280,
          "time": 49.583254,
          "velocity": 0.6299212598425197
        },
        {
          "duration": 0.1493053166666698,
          "durationTicks": 43,
          "midi": 62,
          "name": "D4",
          "ticks": 14280,
          "time": 49.583254,
          "velocity": 0.84251968503937
        },
        {
          "duration": 0.09027763333333638,
          "durationTicks": 26,
          "midi": 65,
          "name": "F4",
          "ticks": 14360,
          "time": 49.86103133333333,
          "velocity": 0.7716535433070866
        },
        {
          "duration": 0.0763887666666676,
          "durationTicks": 22,
          "midi": 62,
          "name": "D4",
          "ticks": 14360,
          "time": 49.86103133333333,
          "velocity": 0.84251968503937
        },
        {
          "duration": 0.10069428333333263,
          "durationTicks": 29,
          "midi": 58,
          "name": "A#3",
          "ticks": 14360,
          "time": 49.86103133333333,
          "velocity": 0.7007874015748031
        },
        {
          "duration": 0.07291655000000219,
          "durationTicks": 21,
          "midi": 62,
          "name": "D4",
          "ticks": 14400,
          "time": 49.999919999999996,
          "velocity": 0.889763779527559
        },
        {
          "duration": 0.10069428333333263,
          "durationTicks": 29,
          "midi": 69,
          "name": "A4",
          "ticks": 14400,
          "time": 49.999919999999996,
          "velocity": 0.84251968503937
        },
        {
          "duration": 0.09027763333333638,
          "durationTicks": 26,
          "midi": 65,
          "name": "F4",
          "ticks": 14400,
          "time": 49.999919999999996,
          "velocity": 0.889763779527559
        },
        {
          "duration": 0.07291655000000219,
          "durationTicks": 21,
          "midi": 57,
          "name": "A3",
          "ticks": 14440,
          "time": 50.13880866666666,
          "velocity": 0.7322834645669292
        },
        {
          "duration": 0.06944433333333677,
          "durationTicks": 20,
          "midi": 50,
          "name": "D3",
          "ticks": 14440,
          "time": 50.13880866666666,
          "velocity": 0.7716535433070866
        },
        {
          "duration": 0.07291654999999508,
          "durationTicks": 21,
          "midi": 62,
          "name": "D4",
          "ticks": 14480,
          "time": 50.277697333333336,
          "velocity": 0.7007874015748031
        },
        {
          "duration": 0.08680541666666386,
          "durationTicks": 25,
          "midi": 69,
          "name": "A4",
          "ticks": 14480,
          "time": 50.277697333333336,
          "velocity": 0.7322834645669292
        },
        {
          "duration": 0.07986098333332592,
          "durationTicks": 23,
          "midi": 65,
          "name": "F4",
          "ticks": 14480,
          "time": 50.277697333333336,
          "velocity": 0.7716535433070866
        },
        {
          "duration": 0.08333320000000555,
          "durationTicks": 24,
          "midi": 50,
          "name": "D3",
          "ticks": 14520,
          "time": 50.416585999999995,
          "velocity": 0.889763779527559
        },
        {
          "duration": 0.0763887666666676,
          "durationTicks": 22,
          "midi": 57,
          "name": "A3",
          "ticks": 14520,
          "time": 50.416585999999995,
          "velocity": 0.889763779527559
        },
        {
          "duration": 0.06944433333333677,
          "durationTicks": 20,
          "midi": 62,
          "name": "D4",
          "ticks": 14560,
          "time": 50.55547466666666,
          "velocity": 0.6692913385826772
        },
        {
          "duration": 0.059027683333333414,
          "durationTicks": 17,
          "midi": 69,
          "name": "A4",
          "ticks": 14560,
          "time": 50.55547466666666,
          "velocity": 0.6692913385826772
        },
        {
          "duration": 0.06597211666666425,
          "durationTicks": 19,
          "midi": 65,
          "name": "F4",
          "ticks": 14560,
          "time": 50.55547466666666,
          "velocity": 0.7322834645669292
        },
        {
          "duration": 0.0763887666666605,
          "durationTicks": 22,
          "midi": 57,
          "name": "A3",
          "ticks": 14600,
          "time": 50.694363333333335,
          "velocity": 0.8031496062992126
        },
        {
          "duration": 0.06944433333332967,
          "durationTicks": 20,
          "midi": 50,
          "name": "D3",
          "ticks": 14600,
          "time": 50.694363333333335,
          "velocity": 0.84251968503937
        },
        {
          "duration": 0.07986098333333302,
          "durationTicks": 23,
          "midi": 62,
          "name": "D4",
          "ticks": 14640,
          "time": 50.833251999999995,
          "velocity": 0.7716535433070866
        },
        {
          "duration": 0.07638876666667471,
          "durationTicks": 22,
          "midi": 65,
          "name": "F4",
          "ticks": 14640,
          "time": 50.833251999999995,
          "velocity": 0.84251968503937
        },
        {
          "duration": 0.08680541666667096,
          "durationTicks": 25,
          "midi": 69,
          "name": "A4",
          "ticks": 14640,
          "time": 50.833251999999995,
          "velocity": 0.7716535433070866
        },
        {
          "duration": 0.08333320000000555,
          "durationTicks": 24,
          "midi": 62,
          "name": "D4",
          "ticks": 14680,
          "time": 50.97214066666666,
          "velocity": 0.7322834645669292
        },
        {
          "duration": 0.07986098333334013,
          "durationTicks": 23,
          "midi": 65,
          "name": "F4",
          "ticks": 14680,
          "time": 50.97214066666666,
          "velocity": 0.7716535433070866
        },
        {
          "duration": 0.0937498500000018,
          "durationTicks": 27,
          "midi": 69,
          "name": "A4",
          "ticks": 14680,
          "time": 50.97214066666666,
          "velocity": 0.7716535433070866
        },
        {
          "duration": 0.06597211666666425,
          "durationTicks": 19,
          "midi": 50,
          "name": "D3",
          "ticks": 14720,
          "time": 51.111029333333335,
          "velocity": 0.889763779527559
        },
        {
          "duration": 0.07291654999999508,
          "durationTicks": 21,
          "midi": 57,
          "name": "A3",
          "ticks": 14720,
          "time": 51.111029333333335,
          "velocity": 0.84251968503937
        },
        {
          "duration": 0.08333319999999844,
          "durationTicks": 24,
          "midi": 62,
          "name": "D4",
          "ticks": 14760,
          "time": 51.249918,
          "velocity": 0.7322834645669292
        },
        {
          "duration": 0.10069428333332553,
          "durationTicks": 29,
          "midi": 69,
          "name": "A4",
          "ticks": 14760,
          "time": 51.249918,
          "velocity": 0.7716535433070866
        },
        {
          "duration": 0.0937498499999947,
          "durationTicks": 27,
          "midi": 65,
          "name": "F4",
          "ticks": 14760,
          "time": 51.249918,
          "velocity": 0.7716535433070866
        },
        {
          "duration": 0.055555466666667996,
          "durationTicks": 16,
          "midi": 57,
          "name": "A3",
          "ticks": 14800,
          "time": 51.38880666666666,
          "velocity": 0.7322834645669292
        },
        {
          "duration": 0.06249990000000594,
          "durationTicks": 18,
          "midi": 50,
          "name": "D3",
          "ticks": 14800,
          "time": 51.38880666666666,
          "velocity": 0.84251968503937
        },
        {
          "duration": 0.09722206666666722,
          "durationTicks": 28,
          "midi": 62,
          "name": "D4",
          "ticks": 14840,
          "time": 51.527695333333334,
          "velocity": 0.7007874015748031
        },
        {
          "duration": 0.10763871666666347,
          "durationTicks": 31,
          "midi": 69,
          "name": "A4",
          "ticks": 14840,
          "time": 51.527695333333334,
          "velocity": 0.7322834645669292
        },
        {
          "duration": 0.10763871666666347,
          "durationTicks": 31,
          "midi": 65,
          "name": "F4",
          "ticks": 14840,
          "time": 51.527695333333334,
          "velocity": 0.8031496062992126
        },
        {
          "duration": 0.06249989999999883,
          "durationTicks": 18,
          "midi": 50,
          "name": "D3",
          "ticks": 14880,
          "time": 51.666584,
          "velocity": 0.889763779527559
        },
        {
          "duration": 0.07291654999999508,
          "durationTicks": 21,
          "midi": 57,
          "name": "A3",
          "ticks": 14880,
          "time": 51.666584,
          "velocity": 0.84251968503937
        },
        {
          "duration": 0.06249990000000594,
          "durationTicks": 18,
          "midi": 62,
          "name": "D4",
          "ticks": 14920,
          "time": 51.80547266666666,
          "velocity": 0.6692913385826772
        },
        {
          "duration": 0.06944433333333677,
          "durationTicks": 20,
          "midi": 69,
          "name": "A4",
          "ticks": 14920,
          "time": 51.80547266666666,
          "velocity": 0.7007874015748031
        },
        {
          "duration": 0.0729165500000093,
          "durationTicks": 21,
          "midi": 65,
          "name": "F4",
          "ticks": 14920,
          "time": 51.80547266666666,
          "velocity": 0.7716535433070866
        },
        {
          "duration": 0.06249989999999883,
          "durationTicks": 18,
          "midi": 50,
          "name": "D3",
          "ticks": 14960,
          "time": 51.94436133333333,
          "velocity": 0.8031496062992126
        },
        {
          "duration": 0.07986098333333302,
          "durationTicks": 23,
          "midi": 57,
          "name": "A3",
          "ticks": 14960,
          "time": 51.94436133333333,
          "velocity": 0.84251968503937
        },
        {
          "duration": 0.0937498499999947,
          "durationTicks": 27,
          "midi": 62,
          "name": "D4",
          "ticks": 15000,
          "time": 52.08325,
          "velocity": 0.7322834645669292
        },
        {
          "duration": 0.10763871666667058,
          "durationTicks": 31,
          "midi": 65,
          "name": "F4",
          "ticks": 15000,
          "time": 52.08325,
          "velocity": 0.8031496062992126
        },
        {
          "duration": 0.11805536666666683,
          "durationTicks": 34,
          "midi": 69,
          "name": "A4",
          "ticks": 15000,
          "time": 52.08325,
          "velocity": 0.8031496062992126
        },
        {
          "duration": 0.07638876666667471,
          "durationTicks": 22,
          "midi": 50,
          "name": "D3",
          "ticks": 15040,
          "time": 52.22213866666666,
          "velocity": 0.889763779527559
        },
        {
          "duration": 0.07986098333334013,
          "durationTicks": 23,
          "midi": 57,
          "name": "A3",
          "ticks": 15040,
          "time": 52.22213866666666,
          "velocity": 0.84251968503937
        },
        {
          "duration": 0.09027763333333638,
          "durationTicks": 26,
          "midi": 69,
          "name": "A4",
          "ticks": 15080,
          "time": 52.36102733333333,
          "velocity": 0.8031496062992126
        },
        {
          "duration": 0.08333319999999844,
          "durationTicks": 24,
          "midi": 65,
          "name": "F4",
          "ticks": 15080,
          "time": 52.36102733333333,
          "velocity": 0.8031496062992126
        },
        {
          "duration": 0.0763887666666605,
          "durationTicks": 22,
          "midi": 62,
          "name": "D4",
          "ticks": 15080,
          "time": 52.36102733333333,
          "velocity": 0.7716535433070866
        },
        {
          "duration": 0.1701386166666623,
          "durationTicks": 49,
          "midi": 62,
          "name": "D4",
          "ticks": 15120,
          "time": 52.499916,
          "velocity": 0.8031496062992126
        },
        {
          "duration": 0.1874996999999965,
          "durationTicks": 54,
          "midi": 67,
          "name": "G4",
          "ticks": 15120,
          "time": 52.499916,
          "velocity": 0.84251968503937
        },
        {
          "duration": 0.1909719166666619,
          "durationTicks": 55,
          "midi": 71,
          "name": "B4",
          "ticks": 15120,
          "time": 52.499916,
          "velocity": 0.84251968503937
        },
        {
          "duration": 0.3576383166666659,
          "durationTicks": 103,
          "midi": 69,
          "name": "A4",
          "ticks": 15240,
          "time": 52.916582,
          "velocity": 0.84251968503937
        },
        {
          "duration": 0.34722166666666254,
          "durationTicks": 100,
          "midi": 65,
          "name": "F4",
          "ticks": 15240,
          "time": 52.916582,
          "velocity": 0.889763779527559
        },
        {
          "duration": 0.3437494499999971,
          "durationTicks": 99,
          "midi": 60,
          "name": "C4",
          "ticks": 15240,
          "time": 52.916582,
          "velocity": 0.84251968503937
        },
        {
          "duration": 0.0763887666666676,
          "durationTicks": 22,
          "midi": 62,
          "name": "D4",
          "ticks": 15360,
          "time": 53.333248,
          "velocity": 0.7322834645669292
        },
        {
          "duration": 0.0937498499999947,
          "durationTicks": 27,
          "midi": 69,
          "name": "A4",
          "ticks": 15360,
          "time": 53.333248,
          "velocity": 0.8031496062992126
        },
        {
          "duration": 0.08333319999999844,
          "durationTicks": 24,
          "midi": 65,
          "name": "F4",
          "ticks": 15360,
          "time": 53.333248,
          "velocity": 0.84251968503937
        },
        {
          "duration": 0.04513881666665753,
          "durationTicks": 13,
          "midi": 50,
          "name": "D3",
          "ticks": 15400,
          "time": 53.47213666666667,
          "velocity": 0.7007874015748031
        },
        {
          "duration": 0.05902768333332631,
          "durationTicks": 17,
          "midi": 57,
          "name": "A3",
          "ticks": 15400,
          "time": 53.47213666666667,
          "velocity": 0.6692913385826772
        },
        {
          "duration": 0.07291655000000219,
          "durationTicks": 21,
          "midi": 69,
          "name": "A4",
          "ticks": 15440,
          "time": 53.61102533333333,
          "velocity": 0.7322834645669292
        },
        {
          "duration": 0.07291655000000219,
          "durationTicks": 21,
          "midi": 62,
          "name": "D4",
          "ticks": 15440,
          "time": 53.61102533333333,
          "velocity": 0.6692913385826772
        },
        {
          "duration": 0.0763887666666676,
          "durationTicks": 22,
          "midi": 65,
          "name": "F4",
          "ticks": 15440,
          "time": 53.61102533333333,
          "velocity": 0.7716535433070866
        },
        {
          "duration": 0.06944433333332967,
          "durationTicks": 20,
          "midi": 57,
          "name": "A3",
          "ticks": 15480,
          "time": 53.749914,
          "velocity": 0.8031496062992126
        },
        {
          "duration": 0.06944433333332967,
          "durationTicks": 20,
          "midi": 50,
          "name": "D3",
          "ticks": 15480,
          "time": 53.749914,
          "velocity": 0.889763779527559
        },
        {
          "duration": 0.05902768333332631,
          "durationTicks": 17,
          "midi": 62,
          "name": "D4",
          "ticks": 15520,
          "time": 53.88880266666667,
          "velocity": 0.5984251968503937
        },
        {
          "duration": 0.05208324999999547,
          "durationTicks": 15,
          "midi": 69,
          "name": "A4",
          "ticks": 15520,
          "time": 53.88880266666667,
          "velocity": 0.6299212598425197
        },
        {
          "duration": 0.06597211666666425,
          "durationTicks": 19,
          "midi": 65,
          "name": "F4",
          "ticks": 15520,
          "time": 53.88880266666667,
          "velocity": 0.7716535433070866
        },
        {
          "duration": 0.06597211666666425,
          "durationTicks": 19,
          "midi": 57,
          "name": "A3",
          "ticks": 15560,
          "time": 54.02769133333333,
          "velocity": 0.84251968503937
        },
        {
          "duration": 0.06597211666666425,
          "durationTicks": 19,
          "midi": 50,
          "name": "D3",
          "ticks": 15560,
          "time": 54.02769133333333,
          "velocity": 0.84251968503937
        },
        {
          "duration": 0.07986098333333302,
          "durationTicks": 23,
          "midi": 69,
          "name": "A4",
          "ticks": 15600,
          "time": 54.166579999999996,
          "velocity": 0.7322834645669292
        },
        {
          "duration": 0.06944433333332967,
          "durationTicks": 20,
          "midi": 65,
          "name": "F4",
          "ticks": 15600,
          "time": 54.166579999999996,
          "velocity": 0.7322834645669292
        },
        {
          "duration": 0.0729165500000093,
          "durationTicks": 21,
          "midi": 62,
          "name": "D4",
          "ticks": 15600,
          "time": 54.166579999999996,
          "velocity": 0.7322834645669292
        },
        {
          "duration": 0.04861103333332295,
          "durationTicks": 14,
          "midi": 50,
          "name": "D3",
          "ticks": 15640,
          "time": 54.30546866666667,
          "velocity": 0.7322834645669292
        },
        {
          "duration": 0.05902768333332631,
          "durationTicks": 17,
          "midi": 57,
          "name": "A3",
          "ticks": 15640,
          "time": 54.30546866666667,
          "velocity": 0.7322834645669292
        },
        {
          "duration": 0.0763887666666676,
          "durationTicks": 22,
          "midi": 62,
          "name": "D4",
          "ticks": 15680,
          "time": 54.44435733333333,
          "velocity": 0.7322834645669292
        },
        {
          "duration": 0.0937498500000089,
          "durationTicks": 27,
          "midi": 69,
          "name": "A4",
          "ticks": 15680,
          "time": 54.44435733333333,
          "velocity": 0.7322834645669292
        },
        {
          "duration": 0.10069428333333263,
          "durationTicks": 29,
          "midi": 65,
          "name": "F4",
          "ticks": 15680,
          "time": 54.44435733333333,
          "velocity": 0.84251968503937
        },
        {
          "duration": 0.0763887666666676,
          "durationTicks": 22,
          "midi": 50,
          "name": "D3",
          "ticks": 15720,
          "time": 54.583245999999995,
          "velocity": 0.889763779527559
        },
        {
          "duration": 0.08333319999999844,
          "durationTicks": 24,
          "midi": 57,
          "name": "A3",
          "ticks": 15720,
          "time": 54.583245999999995,
          "velocity": 0.889763779527559
        },
        {
          "duration": 0.06597211666666425,
          "durationTicks": 19,
          "midi": 62,
          "name": "D4",
          "ticks": 15760,
          "time": 54.72213466666667,
          "velocity": 0.5984251968503937
        },
        {
          "duration": 0.0763887666666676,
          "durationTicks": 22,
          "midi": 69,
          "name": "A4",
          "ticks": 15760,
          "time": 54.72213466666667,
          "velocity": 0.7007874015748031
        },
        {
          "duration": 0.07291654999999508,
          "durationTicks": 21,
          "midi": 65,
          "name": "F4",
          "ticks": 15760,
          "time": 54.72213466666667,
          "velocity": 0.7322834645669292
        },
        {
          "duration": 0.05902768333334052,
          "durationTicks": 17,
          "midi": 50,
          "name": "D3",
          "ticks": 15800,
          "time": 54.86102333333333,
          "velocity": 0.7322834645669292
        },
        {
          "duration": 0.07291655000000219,
          "durationTicks": 21,
          "midi": 57,
          "name": "A3",
          "ticks": 15800,
          "time": 54.86102333333333,
          "velocity": 0.7716535433070866
        },
        {
          "duration": 0.07986098333333302,
          "durationTicks": 23,
          "midi": 62,
          "name": "D4",
          "ticks": 15840,
          "time": 54.999911999999995,
          "velocity": 0.7716535433070866
        },
        {
          "duration": 0.0763887666666676,
          "durationTicks": 22,
          "midi": 65,
          "name": "F4",
          "ticks": 15840,
          "time": 54.999911999999995,
          "velocity": 0.7716535433070866
        },
        {
          "duration": 0.0729165500000093,
          "durationTicks": 21,
          "midi": 69,
          "name": "A4",
          "ticks": 15840,
          "time": 54.999911999999995,
          "velocity": 0.7322834645669292
        },
        {
          "duration": 0.06944433333332967,
          "durationTicks": 20,
          "midi": 57,
          "name": "A3",
          "ticks": 15880,
          "time": 55.13880066666667,
          "velocity": 0.7007874015748031
        },
        {
          "duration": 0.05902768333332631,
          "durationTicks": 17,
          "midi": 50,
          "name": "D3",
          "ticks": 15880,
          "time": 55.13880066666667,
          "velocity": 0.7322834645669292
        },
        {
          "duration": 0.07986098333333302,
          "durationTicks": 23,
          "midi": 62,
          "name": "D4",
          "ticks": 15920,
          "time": 55.27768933333333,
          "velocity": 0.6299212598425197
        },
        {
          "duration": 0.08680541666667096,
          "durationTicks": 25,
          "midi": 65,
          "name": "F4",
          "ticks": 15920,
          "time": 55.27768933333333,
          "velocity": 0.7716535433070866
        },
        {
          "duration": 0.0937498500000089,
          "durationTicks": 27,
          "midi": 69,
          "name": "A4",
          "ticks": 15920,
          "time": 55.27768933333333,
          "velocity": 0.7007874015748031
        },
        {
          "duration": 0.08333319999999844,
          "durationTicks": 24,
          "midi": 50,
          "name": "D3",
          "ticks": 15960,
          "time": 55.416577999999994,
          "velocity": 0.84251968503937
        },
        {
          "duration": 0.09722206666666722,
          "durationTicks": 28,
          "midi": 57,
          "name": "A3",
          "ticks": 15960,
          "time": 55.416577999999994,
          "velocity": 0.889763779527559
        },
        {
          "duration": 0.10069428333332553,
          "durationTicks": 29,
          "midi": 62,
          "name": "D4",
          "ticks": 16000,
          "time": 55.55546666666667,
          "velocity": 0.7007874015748031
        },
        {
          "duration": 0.10763871666666347,
          "durationTicks": 31,
          "midi": 65,
          "name": "F4",
          "ticks": 16000,
          "time": 55.55546666666667,
          "velocity": 0.7716535433070866
        },
        {
          "duration": 0.10763871666666347,
          "durationTicks": 31,
          "midi": 69,
          "name": "A4",
          "ticks": 16000,
          "time": 55.55546666666667,
          "velocity": 0.7322834645669292
        },
        {
          "duration": 0.08680541666667096,
          "durationTicks": 25,
          "midi": 50,
          "name": "D3",
          "ticks": 16040,
          "time": 55.69435533333333,
          "velocity": 0.937007874015748
        },
        {
          "duration": 0.07986098333333302,
          "durationTicks": 23,
          "midi": 57,
          "name": "A3",
          "ticks": 16040,
          "time": 55.69435533333333,
          "velocity": 0.889763779527559
        },
        {
          "duration": 0.27777733333332577,
          "durationTicks": 80,
          "midi": 60,
          "name": "C4",
          "ticks": 16080,
          "time": 55.833244,
          "velocity": 0.8031496062992126
        },
        {
          "duration": 0.27083290000000204,
          "durationTicks": 78,
          "midi": 65,
          "name": "F4",
          "ticks": 16080,
          "time": 55.833244,
          "velocity": 0.889763779527559
        },
        {
          "duration": 0.27777733333332577,
          "durationTicks": 80,
          "midi": 69,
          "name": "A4",
          "ticks": 16080,
          "time": 55.833244,
          "velocity": 0.84251968503937
        },
        {
          "duration": 0.22916630000000282,
          "durationTicks": 66,
          "midi": 60,
          "name": "C4",
          "ticks": 16200,
          "time": 56.24991,
          "velocity": 0.7322834645669292
        },
        {
          "duration": 0.2256940833333303,
          "durationTicks": 65,
          "midi": 64,
          "name": "E4",
          "ticks": 16200,
          "time": 56.24991,
          "velocity": 0.84251968503937
        },
        {
          "duration": 0.2430551666666716,
          "durationTicks": 70,
          "midi": 67,
          "name": "G4",
          "ticks": 16200,
          "time": 56.24991,
          "velocity": 0.8031496062992126
        },
        {
          "duration": 2.541662599999995,
          "durationTicks": 732,
          "midi": 69,
          "name": "A4",
          "ticks": 16320,
          "time": 56.666576,
          "velocity": 0.7007874015748031
        },
        {
          "duration": 2.628468016666666,
          "durationTicks": 757,
          "midi": 62,
          "name": "D4",
          "ticks": 16320,
          "time": 56.666576,
          "velocity": 0.7007874015748031
        },
        {
          "duration": 2.6006902833333356,
          "durationTicks": 749,
          "midi": 65,
          "name": "F4",
          "ticks": 16320,
          "time": 56.666576,
          "velocity": 0.7322834645669292
        },
        {
          "duration": 2.6701346166666653,
          "durationTicks": 769,
          "midi": 50,
          "name": "D3",
          "ticks": 16320,
          "time": 56.666576,
          "velocity": 0.7716535433070866
        },
        {
          "duration": 2.6076347166666594,
          "durationTicks": 751,
          "midi": 57,
          "name": "A3",
          "ticks": 16320,
          "time": 56.666576,
          "velocity": 0.6299212598425197
        },
        {
          "duration": 1.7499971999999886,
          "durationTicks": 504,
          "midi": 46,
          "name": "A#2",
          "ticks": 17280,
          "time": 59.999904,
          "velocity": 0.6692913385826772
        },
        {
          "duration": 1.7777749333333333,
          "durationTicks": 512,
          "midi": 62,
          "name": "D4",
          "ticks": 17280,
          "time": 59.999904,
          "velocity": 0.7322834645669292
        },
        {
          "duration": 1.7986082333333258,
          "durationTicks": 518,
          "midi": 58,
          "name": "A#3",
          "ticks": 17280,
          "time": 59.999904,
          "velocity": 0.6299212598425197
        },
        {
          "duration": 1.5833307999999988,
          "durationTicks": 456,
          "midi": 53,
          "name": "F3",
          "ticks": 17280,
          "time": 59.999904,
          "velocity": 0.5984251968503937
        },
        {
          "duration": 0.06597211666667135,
          "durationTicks": 19,
          "midi": 46,
          "name": "A#2",
          "ticks": 17840,
          "time": 61.944345333333324,
          "velocity": 0.5354330708661418
        },
        {
          "duration": 0.17361083333332772,
          "durationTicks": 50,
          "midi": 53,
          "name": "F3",
          "ticks": 17880,
          "time": 62.083234,
          "velocity": 0.4881889763779528
        },
        {
          "duration": 0.18402748333333108,
          "durationTicks": 53,
          "midi": 58,
          "name": "A#3",
          "ticks": 17880,
          "time": 62.083234,
          "velocity": 0.5039370078740157
        },
        {
          "duration": 0.166666400000004,
          "durationTicks": 48,
          "midi": 62,
          "name": "D4",
          "ticks": 17880,
          "time": 62.083234,
          "velocity": 0.7007874015748031
        },
        {
          "duration": 0.10763871666667768,
          "durationTicks": 31,
          "midi": 46,
          "name": "A#2",
          "ticks": 17960,
          "time": 62.36101133333332,
          "velocity": 0.7007874015748031
        },
        {
          "duration": 0.11805536666666683,
          "durationTicks": 34,
          "midi": 58,
          "name": "A#3",
          "ticks": 18000,
          "time": 62.4999,
          "velocity": 0.7007874015748031
        },
        {
          "duration": 0.09722206666666011,
          "durationTicks": 28,
          "midi": 53,
          "name": "F3",
          "ticks": 18000,
          "time": 62.4999,
          "velocity": 0.6692913385826772
        },
        {
          "duration": 0.13541644999999392,
          "durationTicks": 39,
          "midi": 62,
          "name": "D4",
          "ticks": 18000,
          "time": 62.4999,
          "velocity": 0.84251968503937
        },
        {
          "duration": 0.19444413333333443,
          "durationTicks": 56,
          "midi": 60,
          "name": "C4",
          "ticks": 18120,
          "time": 62.916565999999996,
          "velocity": 0.8031496062992126
        },
        {
          "duration": 0.24999959999999533,
          "durationTicks": 72,
          "midi": 64,
          "name": "E4",
          "ticks": 18120,
          "time": 62.916565999999996,
          "velocity": 0.8031496062992126
        },
        {
          "duration": 0.2083330000000032,
          "durationTicks": 60,
          "midi": 55,
          "name": "G3",
          "ticks": 18120,
          "time": 62.916565999999996,
          "velocity": 0.7007874015748031
        },
        {
          "duration": 0.18402748333333108,
          "durationTicks": 53,
          "midi": 48,
          "name": "C3",
          "ticks": 18120,
          "time": 62.916565999999996,
          "velocity": 0.7322834645669292
        },
        {
          "duration": 2.586801416666674,
          "durationTicks": 745,
          "midi": 65,
          "name": "F4",
          "ticks": 18240,
          "time": 63.333231999999995,
          "velocity": 0.7716535433070866
        },
        {
          "duration": 2.621523583333328,
          "durationTicks": 755,
          "midi": 50,
          "name": "D3",
          "ticks": 18240,
          "time": 63.333231999999995,
          "velocity": 0.7716535433070866
        },
        {
          "duration": 2.593745850000005,
          "durationTicks": 747,
          "midi": 62,
          "name": "D4",
          "ticks": 18240,
          "time": 63.333231999999995,
          "velocity": 0.7322834645669292
        },
        {
          "duration": 2.562495900000002,
          "durationTicks": 738,
          "midi": 57,
          "name": "A3",
          "ticks": 18240,
          "time": 63.333231999999995,
          "velocity": 0.6692913385826772
        },
        {
          "duration": 1.5173586833333275,
          "durationTicks": 437,
          "midi": 46,
          "name": "A#2",
          "ticks": 19200,
          "time": 66.66656,
          "velocity": 0.6692913385826772
        },
        {
          "duration": 1.5243031166666583,
          "durationTicks": 439,
          "midi": 58,
          "name": "A#3",
          "ticks": 19200,
          "time": 66.66656,
          "velocity": 0.5669291338582677
        },
        {
          "duration": 1.5069420333333312,
          "durationTicks": 434,
          "midi": 65,
          "name": "F4",
          "ticks": 19200,
          "time": 66.66656,
          "velocity": 0.6692913385826772
        },
        {
          "duration": 1.5277753333333237,
          "durationTicks": 440,
          "midi": 62,
          "name": "D4",
          "ticks": 19200,
          "time": 66.66656,
          "velocity": 0.7716535433070866
        },
        {
          "duration": 0.2430551666666645,
          "durationTicks": 70,
          "midi": 58,
          "name": "A#3",
          "ticks": 19680,
          "time": 68.333224,
          "velocity": 0.31496062992125984
        },
        {
          "duration": 0.25694403333332616,
          "durationTicks": 74,
          "midi": 62,
          "name": "D4",
          "ticks": 19680,
          "time": 68.333224,
          "velocity": 0.41732283464566927
        },
        {
          "duration": 0.25694403333332616,
          "durationTicks": 74,
          "midi": 65,
          "name": "F4",
          "ticks": 19680,
          "time": 68.333224,
          "velocity": 0.5354330708661418
        },
        {
          "duration": 0.27777733333331867,
          "durationTicks": 80,
          "midi": 46,
          "name": "A#2",
          "ticks": 19680,
          "time": 68.333224,
          "velocity": 0.5354330708661418
        },
        {
          "duration": 0.21874965000000657,
          "durationTicks": 63,
          "midi": 58,
          "name": "A#3",
          "ticks": 19800,
          "time": 68.74989,
          "velocity": 0.4645669291338583
        },
        {
          "duration": 0.19791634999999985,
          "durationTicks": 57,
          "midi": 46,
          "name": "A#2",
          "ticks": 19800,
          "time": 68.74989,
          "velocity": 0.7007874015748031
        },
        {
          "duration": 0.20138856666666527,
          "durationTicks": 58,
          "midi": 65,
          "name": "F4",
          "ticks": 19800,
          "time": 68.74989,
          "velocity": 0.7322834645669292
        },
        {
          "duration": 0.22222186666667199,
          "durationTicks": 64,
          "midi": 62,
          "name": "D4",
          "ticks": 19800,
          "time": 68.74989,
          "velocity": 0.7716535433070866
        },
        {
          "duration": 0.18055526666665855,
          "durationTicks": 52,
          "midi": 46,
          "name": "A#2",
          "ticks": 19920,
          "time": 69.166556,
          "velocity": 0.7322834645669292
        },
        {
          "duration": 0.2465273833333299,
          "durationTicks": 71,
          "midi": 58,
          "name": "A#3",
          "ticks": 19920,
          "time": 69.166556,
          "velocity": 0.5039370078740157
        },
        {
          "duration": 0.22916630000000282,
          "durationTicks": 66,
          "midi": 65,
          "name": "F4",
          "ticks": 19920,
          "time": 69.166556,
          "velocity": 0.7007874015748031
        },
        {
          "duration": 0.2465273833333299,
          "durationTicks": 71,
          "midi": 62,
          "name": "D4",
          "ticks": 19920,
          "time": 69.166556,
          "velocity": 0.7716535433070866
        },
        {
          "duration": 0.10069428333333974,
          "durationTicks": 29,
          "midi": 46,
          "name": "A#2",
          "ticks": 20040,
          "time": 69.58322199999999,
          "velocity": 0.7716535433070866
        },
        {
          "duration": 0.09722206666666011,
          "durationTicks": 28,
          "midi": 65,
          "name": "F4",
          "ticks": 20040,
          "time": 69.58322199999999,
          "velocity": 0.7716535433070866
        },
        {
          "duration": 0.0937498500000089,
          "durationTicks": 27,
          "midi": 58,
          "name": "A#3",
          "ticks": 20040,
          "time": 69.58322199999999,
          "velocity": 0.6299212598425197
        },
        {
          "duration": 0.06597211666667135,
          "durationTicks": 19,
          "midi": 62,
          "name": "D4",
          "ticks": 20040,
          "time": 69.58322199999999,
          "velocity": 0.8031496062992126
        },
        {
          "duration": 0.9166651999999971,
          "durationTicks": 264,
          "midi": 43,
          "name": "G2",
          "ticks": 20160,
          "time": 69.999888,
          "velocity": 0.7007874015748031
        },
        {
          "duration": 1.0624983000000014,
          "durationTicks": 306,
          "midi": 58,
          "name": "A#3",
          "ticks": 20160,
          "time": 69.999888,
          "velocity": 0.5669291338582677
        },
        {
          "duration": 0.9999983999999955,
          "durationTicks": 288,
          "midi": 55,
          "name": "G3",
          "ticks": 20160,
          "time": 69.999888,
          "velocity": 0.7007874015748031
        },
        {
          "duration": 1.0694427333333323,
          "durationTicks": 308,
          "midi": 62,
          "name": "D4",
          "ticks": 20160,
          "time": 69.999888,
          "velocity": 0.7322834645669292
        },
        {
          "duration": 0.9618040166666759,
          "durationTicks": 277,
          "midi": 52,
          "name": "E3",
          "ticks": 20640,
          "time": 71.666552,
          "velocity": 0.6299212598425197
        },
        {
          "duration": 1.0451372166666602,
          "durationTicks": 301,
          "midi": 45,
          "name": "A2",
          "ticks": 20640,
          "time": 71.666552,
          "velocity": 0.7322834645669292
        },
        {
          "duration": 1.010415050000006,
          "durationTicks": 291,
          "midi": 64,
          "name": "E4",
          "ticks": 20640,
          "time": 71.666552,
          "velocity": 0.7007874015748031
        },
        {
          "duration": 1.0381927833333435,
          "durationTicks": 299,
          "midi": 61,
          "name": "C#4",
          "ticks": 20640,
          "time": 71.666552,
          "velocity": 0.6299212598425197
        },
        {
          "duration": 1.0624983000000014,
          "durationTicks": 306,
          "midi": 57,
          "name": "A3",
          "ticks": 20640,
          "time": 71.666552,
          "velocity": 0.6299212598425197
        },
        {
          "duration": 1.0381927833333435,
          "durationTicks": 299,
          "midi": 58,
          "name": "A#3",
          "ticks": 21120,
          "time": 73.333216,
          "velocity": 0.4645669291338583
        },
        {
          "duration": 0.9444429333333488,
          "durationTicks": 272,
          "midi": 43,
          "name": "G2",
          "ticks": 21120,
          "time": 73.333216,
          "velocity": 0.7322834645669292
        },
        {
          "duration": 1.010415050000006,
          "durationTicks": 291,
          "midi": 55,
          "name": "G3",
          "ticks": 21120,
          "time": 73.333216,
          "velocity": 0.7322834645669292
        },
        {
          "duration": 1.0451372166666602,
          "durationTicks": 301,
          "midi": 62,
          "name": "D4",
          "ticks": 21120,
          "time": 73.333216,
          "velocity": 0.7322834645669292
        },
        {
          "duration": 0.2777773333333329,
          "durationTicks": 80,
          "midi": 57,
          "name": "A3",
          "ticks": 21600,
          "time": 74.99987999999999,
          "velocity": 0.6692913385826772
        },
        {
          "duration": 0.2986106333333396,
          "durationTicks": 86,
          "midi": 64,
          "name": "E4",
          "ticks": 21600,
          "time": 74.99987999999999,
          "velocity": 0.7007874015748031
        },
        {
          "duration": 0.2986106333333396,
          "durationTicks": 86,
          "midi": 61,
          "name": "C#4",
          "ticks": 21600,
          "time": 74.99987999999999,
          "velocity": 0.7007874015748031
        },
        {
          "duration": 0.4548603833333402,
          "durationTicks": 131,
          "midi": 45,
          "name": "A2",
          "ticks": 21600,
          "time": 74.99987999999999,
          "velocity": 0.7322834645669292
        },
        {
          "duration": 0.46180481666667106,
          "durationTicks": 133,
          "midi": 52,
          "name": "E3",
          "ticks": 21600,
          "time": 74.99987999999999,
          "velocity": 0.6299212598425197
        },
        {
          "duration": 0.0937498499999947,
          "durationTicks": 27,
          "midi": 61,
          "name": "C#4",
          "ticks": 21720,
          "time": 75.416546,
          "velocity": 0.6692913385826772
        },
        {
          "duration": 0.10416650000000516,
          "durationTicks": 30,
          "midi": 64,
          "name": "E4",
          "ticks": 21720,
          "time": 75.416546,
          "velocity": 0.6692913385826772
        },
        {
          "duration": 0.08333319999999844,
          "durationTicks": 24,
          "midi": 57,
          "name": "A3",
          "ticks": 21720,
          "time": 75.416546,
          "velocity": 0.5669291338582677
        },
        {
          "duration": 0.2256940833333232,
          "durationTicks": 65,
          "midi": 64,
          "name": "E4",
          "ticks": 21840,
          "time": 75.833212,
          "velocity": 0.4881889763779528
        },
        {
          "duration": 0.11805536666665262,
          "durationTicks": 34,
          "midi": 52,
          "name": "E3",
          "ticks": 21840,
          "time": 75.833212,
          "velocity": 0.4881889763779528
        },
        {
          "duration": 0.23611073333331944,
          "durationTicks": 68,
          "midi": 69,
          "name": "A4",
          "ticks": 21840,
          "time": 75.833212,
          "velocity": 0.6692913385826772
        },
        {
          "duration": 0.14930531666665559,
          "durationTicks": 43,
          "midi": 64,
          "name": "E4",
          "ticks": 21960,
          "time": 76.249878,
          "velocity": 0.6692913385826772
        },
        {
          "duration": 0.15972196666666605,
          "durationTicks": 46,
          "midi": 69,
          "name": "A4",
          "ticks": 21960,
          "time": 76.249878,
          "velocity": 0.8031496062992126
        },
        {
          "duration": 0.15972196666666605,
          "durationTicks": 46,
          "midi": 45,
          "name": "A2",
          "ticks": 21960,
          "time": 76.249878,
          "velocity": 0.7322834645669292
        },
        {
          "duration": 0.14583310000000438,
          "durationTicks": 42,
          "midi": 52,
          "name": "E3",
          "ticks": 21960,
          "time": 76.249878,
          "velocity": 0.6692913385826772
        },
        {
          "duration": 0.10763871666665636,
          "durationTicks": 31,
          "midi": 57,
          "name": "A3",
          "ticks": 22080,
          "time": 76.666544,
          "velocity": 0.5669291338582677
        },
        {
          "duration": 0.0937498500000089,
          "durationTicks": 27,
          "midi": 45,
          "name": "A2",
          "ticks": 22120,
          "time": 76.80543266666666,
          "velocity": 0.6692913385826772
        },
        {
          "duration": 0.11458315000000141,
          "durationTicks": 33,
          "midi": 57,
          "name": "A3",
          "ticks": 22160,
          "time": 76.94432133333332,
          "velocity": 0.6299212598425197
        },
        {
          "duration": 0.10763871666667058,
          "durationTicks": 31,
          "midi": 45,
          "name": "A2",
          "ticks": 22200,
          "time": 77.08321,
          "velocity": 0.84251968503937
        },
        {
          "duration": 0.14236088333333896,
          "durationTicks": 41,
          "midi": 57,
          "name": "A3",
          "ticks": 22240,
          "time": 77.22209866666667,
          "velocity": 0.7322834645669292
        },
        {
          "duration": 0.11458315000000141,
          "durationTicks": 33,
          "midi": 45,
          "name": "A2",
          "ticks": 22280,
          "time": 77.36098733333333,
          "velocity": 0.889763779527559
        },
        {
          "duration": 0.10416649999999095,
          "durationTicks": 30,
          "midi": 57,
          "name": "A3",
          "ticks": 22320,
          "time": 77.499876,
          "velocity": 0.7716535433070866
        },
        {
          "duration": 0.11458315000000141,
          "durationTicks": 33,
          "midi": 61,
          "name": "C#4",
          "ticks": 22320,
          "time": 77.499876,
          "velocity": 0.7716535433070866
        },
        {
          "duration": 0.1319442333333285,
          "durationTicks": 38,
          "midi": 64,
          "name": "E4",
          "ticks": 22320,
          "time": 77.499876,
          "velocity": 0.84251968503937
        },
        {
          "duration": 0.08680541666664965,
          "durationTicks": 25,
          "midi": 45,
          "name": "A2",
          "ticks": 22360,
          "time": 77.63876466666667,
          "velocity": 0.84251968503937
        },
        {
          "duration": 0.06944433333335098,
          "durationTicks": 20,
          "midi": 57,
          "name": "A3",
          "ticks": 22400,
          "time": 77.77765333333332,
          "velocity": 0.7322834645669292
        },
        {
          "duration": 0.08333320000001265,
          "durationTicks": 24,
          "midi": 61,
          "name": "C#4",
          "ticks": 22400,
          "time": 77.77765333333332,
          "velocity": 0.84251968503937
        },
        {
          "duration": 0.10416650000000516,
          "durationTicks": 30,
          "midi": 64,
          "name": "E4",
          "ticks": 22400,
          "time": 77.77765333333332,
          "velocity": 0.889763779527559
        },
        {
          "duration": 0.0937498499999947,
          "durationTicks": 27,
          "midi": 45,
          "name": "A2",
          "ticks": 22440,
          "time": 77.91654199999999,
          "velocity": 0.937007874015748
        },
        {
          "duration": 0.11111093333332178,
          "durationTicks": 32,
          "midi": 69,
          "name": "A4",
          "ticks": 22480,
          "time": 78.05543066666667,
          "velocity": 0.84251968503937
        },
        {
          "duration": 0.0937498500000089,
          "durationTicks": 27,
          "midi": 45,
          "name": "A2",
          "ticks": 22520,
          "time": 78.19431933333333,
          "velocity": 0.937007874015748
        },
        {
          "duration": 0.11458315000000141,
          "durationTicks": 33,
          "midi": 69,
          "name": "A4",
          "ticks": 22560,
          "time": 78.333208,
          "velocity": 0.7322834645669292
        },
        {
          "duration": 0.10416649999999095,
          "durationTicks": 30,
          "midi": 62,
          "name": "D4",
          "ticks": 22560,
          "time": 78.333208,
          "velocity": 0.7322834645669292
        },
        {
          "duration": 0.10416649999999095,
          "durationTicks": 30,
          "midi": 65,
          "name": "F4",
          "ticks": 22560,
          "time": 78.333208,
          "velocity": 0.7716535433070866
        },
        {
          "duration": 0.08333319999998423,
          "durationTicks": 24,
          "midi": 57,
          "name": "A3",
          "ticks": 22600,
          "time": 78.47209666666667,
          "velocity": 0.7007874015748031
        },
        {
          "duration": 0.06944433333332256,
          "durationTicks": 20,
          "midi": 50,
          "name": "D3",
          "ticks": 22600,
          "time": 78.47209666666667,
          "velocity": 0.7322834645669292
        },
        {
          "duration": 0.06597211666665714,
          "durationTicks": 19,
          "midi": 62,
          "name": "D4",
          "ticks": 22640,
          "time": 78.61098533333333,
          "velocity": 0.5984251968503937
        },
        {
          "duration": 0.07986098333331881,
          "durationTicks": 23,
          "midi": 69,
          "name": "A4",
          "ticks": 22640,
          "time": 78.61098533333333,
          "velocity": 0.7007874015748031
        },
        {
          "duration": 0.06597211666665714,
          "durationTicks": 19,
          "midi": 65,
          "name": "F4",
          "ticks": 22640,
          "time": 78.61098533333333,
          "velocity": 0.6692913385826772
        },
        {
          "duration": 0.05902768333334052,
          "durationTicks": 17,
          "midi": 50,
          "name": "D3",
          "ticks": 22680,
          "time": 78.74987399999999,
          "velocity": 0.5984251968503937
        },
        {
          "duration": 0.07986098333333302,
          "durationTicks": 23,
          "midi": 57,
          "name": "A3",
          "ticks": 22680,
          "time": 78.74987399999999,
          "velocity": 0.6692913385826772
        },
        {
          "duration": 0.05902768333332631,
          "durationTicks": 17,
          "midi": 62,
          "name": "D4",
          "ticks": 22720,
          "time": 78.88876266666666,
          "velocity": 0.4881889763779528
        },
        {
          "duration": 0.05555546666666089,
          "durationTicks": 16,
          "midi": 69,
          "name": "A4",
          "ticks": 22720,
          "time": 78.88876266666666,
          "velocity": 0.5984251968503937
        },
        {
          "duration": 0.06944433333333677,
          "durationTicks": 20,
          "midi": 65,
          "name": "F4",
          "ticks": 22720,
          "time": 78.88876266666666,
          "velocity": 0.6692913385826772
        },
        {
          "duration": 0.0555554666666751,
          "durationTicks": 16,
          "midi": 50,
          "name": "D3",
          "ticks": 22760,
          "time": 79.02765133333332,
          "velocity": 0.7007874015748031
        },
        {
          "duration": 0.06944433333333677,
          "durationTicks": 20,
          "midi": 57,
          "name": "A3",
          "ticks": 22760,
          "time": 79.02765133333332,
          "velocity": 0.6692913385826772
        },
        {
          "duration": 0.0763887666666676,
          "durationTicks": 22,
          "midi": 62,
          "name": "D4",
          "ticks": 22800,
          "time": 79.16654,
          "velocity": 0.7322834645669292
        },
        {
          "duration": 0.0763887666666676,
          "durationTicks": 22,
          "midi": 65,
          "name": "F4",
          "ticks": 22800,
          "time": 79.16654,
          "velocity": 0.7716535433070866
        },
        {
          "duration": 0.08333319999999844,
          "durationTicks": 24,
          "midi": 69,
          "name": "A4",
          "ticks": 22800,
          "time": 79.16654,
          "velocity": 0.7322834645669292
        },
        {
          "duration": 0.06597211666665714,
          "durationTicks": 19,
          "midi": 57,
          "name": "A3",
          "ticks": 22840,
          "time": 79.30542866666667,
          "velocity": 0.5669291338582677
        },
        {
          "duration": 0.048611033333315845,
          "durationTicks": 14,
          "midi": 50,
          "name": "D3",
          "ticks": 22840,
          "time": 79.30542866666667,
          "velocity": 0.6299212598425197
        },
        {
          "duration": 0.0937498500000089,
          "durationTicks": 27,
          "midi": 69,
          "name": "A4",
          "ticks": 22880,
          "time": 79.44431733333333,
          "velocity": 0.7007874015748031
        },
        {
          "duration": 0.08333319999999844,
          "durationTicks": 24,
          "midi": 62,
          "name": "D4",
          "ticks": 22880,
          "time": 79.44431733333333,
          "velocity": 0.6692913385826772
        },
        {
          "duration": 0.0937498500000089,
          "durationTicks": 27,
          "midi": 65,
          "name": "F4",
          "ticks": 22880,
          "time": 79.44431733333333,
          "velocity": 0.7716535433070866
        },
        {
          "duration": 0.06944433333333677,
          "durationTicks": 20,
          "midi": 50,
          "name": "D3",
          "ticks": 22920,
          "time": 79.58320599999999,
          "velocity": 0.7007874015748031
        },
        {
          "duration": 0.07986098333333302,
          "durationTicks": 23,
          "midi": 57,
          "name": "A3",
          "ticks": 22920,
          "time": 79.58320599999999,
          "velocity": 0.7716535433070866
        },
        {
          "duration": 0.08333319999999844,
          "durationTicks": 24,
          "midi": 62,
          "name": "D4",
          "ticks": 22960,
          "time": 79.72209466666666,
          "velocity": 0.7007874015748031
        },
        {
          "duration": 0.07986098333333302,
          "durationTicks": 23,
          "midi": 65,
          "name": "F4",
          "ticks": 22960,
          "time": 79.72209466666666,
          "velocity": 0.7322834645669292
        },
        {
          "duration": 0.09027763333334349,
          "durationTicks": 26,
          "midi": 69,
          "name": "A4",
          "ticks": 22960,
          "time": 79.72209466666666,
          "velocity": 0.7322834645669292
        },
        {
          "duration": 0.0763887666666676,
          "durationTicks": 22,
          "midi": 50,
          "name": "D3",
          "ticks": 23000,
          "time": 79.86098333333332,
          "velocity": 0.8031496062992126
        },
        {
          "duration": 0.06249990000000594,
          "durationTicks": 18,
          "midi": 57,
          "name": "A3",
          "ticks": 23000,
          "time": 79.86098333333332,
          "velocity": 0.84251968503937
        },
        {
          "duration": 0.19097191666666902,
          "durationTicks": 55,
          "midi": 53,
          "name": "F3",
          "ticks": 23040,
          "time": 79.999872,
          "velocity": 0.5354330708661418
        },
        {
          "duration": 0.2048607833333307,
          "durationTicks": 59,
          "midi": 57,
          "name": "A3",
          "ticks": 23040,
          "time": 79.999872,
          "velocity": 0.7322834645669292
        },
        {
          "duration": 0.2048607833333307,
          "durationTicks": 59,
          "midi": 60,
          "name": "C4",
          "ticks": 23040,
          "time": 79.999872,
          "velocity": 0.7007874015748031
        },
        {
          "duration": 0.10069428333332553,
          "durationTicks": 29,
          "midi": 60,
          "name": "C4",
          "ticks": 23160,
          "time": 80.416538,
          "velocity": 0.7322834645669292
        },
        {
          "duration": 0.09722206666666011,
          "durationTicks": 28,
          "midi": 57,
          "name": "A3",
          "ticks": 23160,
          "time": 80.416538,
          "velocity": 0.7007874015748031
        },
        {
          "duration": 0.11111093333333599,
          "durationTicks": 32,
          "midi": 53,
          "name": "F3",
          "ticks": 23160,
          "time": 80.416538,
          "velocity": 0.6692913385826772
        },
        {
          "duration": 0.08680541666666386,
          "durationTicks": 25,
          "midi": 41,
          "name": "F2",
          "ticks": 23200,
          "time": 80.55542666666666,
          "velocity": 0.6692913385826772
        },
        {
          "duration": 0.08680541666667807,
          "durationTicks": 25,
          "midi": 53,
          "name": "F3",
          "ticks": 23240,
          "time": 80.69431533333332,
          "velocity": 0.5984251968503937
        },
        {
          "duration": 0.0937498500000089,
          "durationTicks": 27,
          "midi": 60,
          "name": "C4",
          "ticks": 23240,
          "time": 80.69431533333332,
          "velocity": 0.7007874015748031
        },
        {
          "duration": 0.0937498500000089,
          "durationTicks": 27,
          "midi": 57,
          "name": "A3",
          "ticks": 23240,
          "time": 80.69431533333332,
          "velocity": 0.6692913385826772
        },
        {
          "duration": 0.0937498499999947,
          "durationTicks": 27,
          "midi": 41,
          "name": "F2",
          "ticks": 23280,
          "time": 80.833204,
          "velocity": 0.7322834645669292
        },
        {
          "duration": 0.07986098333333302,
          "durationTicks": 23,
          "midi": 53,
          "name": "F3",
          "ticks": 23320,
          "time": 80.97209266666667,
          "velocity": 0.4881889763779528
        },
        {
          "duration": 0.07291654999998798,
          "durationTicks": 21,
          "midi": 60,
          "name": "C4",
          "ticks": 23320,
          "time": 80.97209266666667,
          "velocity": 0.6299212598425197
        },
        {
          "duration": 0.08680541666666386,
          "durationTicks": 25,
          "midi": 57,
          "name": "A3",
          "ticks": 23320,
          "time": 80.97209266666667,
          "velocity": 0.6299212598425197
        },
        {
          "duration": 0.10416649999999095,
          "durationTicks": 30,
          "midi": 41,
          "name": "F2",
          "ticks": 23360,
          "time": 81.11098133333333,
          "velocity": 0.8031496062992126
        },
        {
          "duration": 0.10069428333332553,
          "durationTicks": 29,
          "midi": 60,
          "name": "C4",
          "ticks": 23400,
          "time": 81.24987,
          "velocity": 0.8031496062992126
        },
        {
          "duration": 0.09722206666666011,
          "durationTicks": 28,
          "midi": 53,
          "name": "F3",
          "ticks": 23400,
          "time": 81.24987,
          "velocity": 0.7007874015748031
        },
        {
          "duration": 0.10763871666665636,
          "durationTicks": 31,
          "midi": 57,
          "name": "A3",
          "ticks": 23400,
          "time": 81.24987,
          "velocity": 0.7716535433070866
        },
        {
          "duration": 0.10069428333332553,
          "durationTicks": 29,
          "midi": 41,
          "name": "F2",
          "ticks": 23440,
          "time": 81.38875866666666,
          "velocity": 0.7716535433070866
        },
        {
          "duration": 0.1458331000000186,
          "durationTicks": 42,
          "midi": 57,
          "name": "A3",
          "ticks": 23480,
          "time": 81.52764733333332,
          "velocity": 0.7322834645669292
        },
        {
          "duration": 0.1527775333333352,
          "durationTicks": 44,
          "midi": 60,
          "name": "C4",
          "ticks": 23480,
          "time": 81.52764733333332,
          "velocity": 0.7716535433070866
        },
        {
          "duration": 0.11805536666666683,
          "durationTicks": 34,
          "midi": 53,
          "name": "F3",
          "ticks": 23480,
          "time": 81.52764733333332,
          "velocity": 0.6299212598425197
        },
        {
          "duration": 0.1527775333333352,
          "durationTicks": 44,
          "midi": 43,
          "name": "G2",
          "ticks": 23520,
          "time": 81.666536,
          "velocity": 0.84251968503937
        },
        {
          "duration": 0.0937498499999947,
          "durationTicks": 27,
          "midi": 62,
          "name": "D4",
          "ticks": 23560,
          "time": 81.80542466666667,
          "velocity": 0.6692913385826772
        },
        {
          "duration": 0.0937498499999947,
          "durationTicks": 27,
          "midi": 55,
          "name": "G3",
          "ticks": 23560,
          "time": 81.80542466666667,
          "velocity": 0.5354330708661418
        },
        {
          "duration": 0.10069428333332553,
          "durationTicks": 29,
          "midi": 59,
          "name": "B3",
          "ticks": 23560,
          "time": 81.80542466666667,
          "velocity": 0.7007874015748031
        },
        {
          "duration": 0.10416650000000516,
          "durationTicks": 30,
          "midi": 43,
          "name": "G2",
          "ticks": 23600,
          "time": 81.94431333333333,
          "velocity": 0.7007874015748031
        },
        {
          "duration": 0.10763871666665636,
          "durationTicks": 31,
          "midi": 62,
          "name": "D4",
          "ticks": 23640,
          "time": 82.083202,
          "velocity": 0.7716535433070866
        },
        {
          "duration": 0.10069428333333974,
          "durationTicks": 29,
          "midi": 55,
          "name": "G3",
          "ticks": 23640,
          "time": 82.083202,
          "velocity": 0.6692913385826772
        },
        {
          "duration": 0.10069428333333974,
          "durationTicks": 29,
          "midi": 59,
          "name": "B3",
          "ticks": 23640,
          "time": 82.083202,
          "velocity": 0.7716535433070866
        },
        {
          "duration": 0.09027763333332928,
          "durationTicks": 26,
          "midi": 43,
          "name": "G2",
          "ticks": 23680,
          "time": 82.22209066666667,
          "velocity": 0.7007874015748031
        },
        {
          "duration": 0.10763871666668479,
          "durationTicks": 31,
          "midi": 62,
          "name": "D4",
          "ticks": 23720,
          "time": 82.36097933333332,
          "velocity": 0.7716535433070866
        },
        {
          "duration": 0.10069428333333974,
          "durationTicks": 29,
          "midi": 59,
          "name": "B3",
          "ticks": 23720,
          "time": 82.36097933333332,
          "velocity": 0.7322834645669292
        },
        {
          "duration": 0.10416650000000516,
          "durationTicks": 30,
          "midi": 55,
          "name": "G3",
          "ticks": 23720,
          "time": 82.36097933333332,
          "velocity": 0.6299212598425197
        },
        {
          "duration": 0.10069428333333974,
          "durationTicks": 29,
          "midi": 43,
          "name": "G2",
          "ticks": 23760,
          "time": 82.49986799999999,
          "velocity": 0.8031496062992126
        },
        {
          "duration": 0.07986098333333302,
          "durationTicks": 23,
          "midi": 62,
          "name": "D4",
          "ticks": 23800,
          "time": 82.63875666666667,
          "velocity": 0.7007874015748031
        },
        {
          "duration": 0.08333319999999844,
          "durationTicks": 24,
          "midi": 55,
          "name": "G3",
          "ticks": 23800,
          "time": 82.63875666666667,
          "velocity": 0.5669291338582677
        },
        {
          "duration": 0.08680541666666386,
          "durationTicks": 25,
          "midi": 59,
          "name": "B3",
          "ticks": 23800,
          "time": 82.63875666666667,
          "velocity": 0.7322834645669292
        },
        {
          "duration": 0.14583310000000438,
          "durationTicks": 42,
          "midi": 43,
          "name": "G2",
          "ticks": 23840,
          "time": 82.77764533333333,
          "velocity": 0.7322834645669292
        },
        {
          "duration": 0.11458315000000141,
          "durationTicks": 33,
          "midi": 62,
          "name": "D4",
          "ticks": 23880,
          "time": 82.916534,
          "velocity": 0.84251968503937
        },
        {
          "duration": 0.10763871666665636,
          "durationTicks": 31,
          "midi": 55,
          "name": "G3",
          "ticks": 23880,
          "time": 82.916534,
          "velocity": 0.7322834645669292
        },
        {
          "duration": 0.11111093333333599,
          "durationTicks": 32,
          "midi": 59,
          "name": "B3",
          "ticks": 23880,
          "time": 82.916534,
          "velocity": 0.84251968503937
        },
        {
          "duration": 0.07291655000000219,
          "durationTicks": 21,
          "midi": 55,
          "name": "G3",
          "ticks": 23960,
          "time": 83.19431133333333,
          "velocity": 0.6692913385826772
        },
        {
          "duration": 0.11111093333333599,
          "durationTicks": 32,
          "midi": 62,
          "name": "D4",
          "ticks": 23960,
          "time": 83.19431133333333,
          "velocity": 0.84251968503937
        },
        {
          "duration": 0.09722206666666011,
          "durationTicks": 28,
          "midi": 59,
          "name": "B3",
          "ticks": 23960,
          "time": 83.19431133333333,
          "velocity": 0.8031496062992126
        },
        {
          "duration": 0.1284720166666773,
          "durationTicks": 37,
          "midi": 46,
          "name": "A#2",
          "ticks": 24000,
          "time": 83.33319999999999,
          "velocity": 0.889763779527559
        },
        {
          "duration": 0.06944433333333677,
          "durationTicks": 20,
          "midi": 62,
          "name": "D4",
          "ticks": 24040,
          "time": 83.47208866666666,
          "velocity": 0.4881889763779528
        },
        {
          "duration": 0.10069428333332553,
          "durationTicks": 29,
          "midi": 58,
          "name": "A#3",
          "ticks": 24040,
          "time": 83.47208866666666,
          "velocity": 0.4409448818897638
        },
        {
          "duration": 0.07986098333333302,
          "durationTicks": 23,
          "midi": 65,
          "name": "F4",
          "ticks": 24040,
          "time": 83.47208866666666,
          "velocity": 0.7007874015748031
        },
        {
          "duration": 0.10416650000000516,
          "durationTicks": 30,
          "midi": 46,
          "name": "A#2",
          "ticks": 24080,
          "time": 83.61097733333332,
          "velocity": 0.6692913385826772
        },
        {
          "duration": 0.11111093333333599,
          "durationTicks": 32,
          "midi": 58,
          "name": "A#3",
          "ticks": 24120,
          "time": 83.749866,
          "velocity": 0.6299212598425197
        },
        {
          "duration": 0.11805536666666683,
          "durationTicks": 34,
          "midi": 65,
          "name": "F4",
          "ticks": 24120,
          "time": 83.749866,
          "velocity": 0.7716535433070866
        },
        {
          "duration": 0.0937498499999947,
          "durationTicks": 27,
          "midi": 62,
          "name": "D4",
          "ticks": 24120,
          "time": 83.749866,
          "velocity": 0.8031496062992126
        },
        {
          "duration": 0.13541645000000813,
          "durationTicks": 39,
          "midi": 58,
          "name": "A#3",
          "ticks": 24200,
          "time": 84.02764333333333,
          "velocity": 0.5039370078740157
        },
        {
          "duration": 0.10763871666667058,
          "durationTicks": 31,
          "midi": 62,
          "name": "D4",
          "ticks": 24200,
          "time": 84.02764333333333,
          "velocity": 0.7716535433070866
        },
        {
          "duration": 0.11458315000000141,
          "durationTicks": 33,
          "midi": 65,
          "name": "F4",
          "ticks": 24200,
          "time": 84.02764333333333,
          "velocity": 0.7007874015748031
        },
        {
          "duration": 0.08680541666667807,
          "durationTicks": 25,
          "midi": 46,
          "name": "A#2",
          "ticks": 24240,
          "time": 84.16653199999999,
          "velocity": 0.84251968503937
        },
        {
          "duration": 0.10416650000000516,
          "durationTicks": 30,
          "midi": 58,
          "name": "A#3",
          "ticks": 24280,
          "time": 84.30542066666666,
          "velocity": 0.4645669291338583
        },
        {
          "duration": 0.09027763333334349,
          "durationTicks": 26,
          "midi": 65,
          "name": "F4",
          "ticks": 24280,
          "time": 84.30542066666666,
          "velocity": 0.7007874015748031
        },
        {
          "duration": 0.09027763333334349,
          "durationTicks": 26,
          "midi": 62,
          "name": "D4",
          "ticks": 24280,
          "time": 84.30542066666666,
          "velocity": 0.7007874015748031
        },
        {
          "duration": 0.12152758333334646,
          "durationTicks": 35,
          "midi": 46,
          "name": "A#2",
          "ticks": 24320,
          "time": 84.44430933333332,
          "velocity": 0.8031496062992126
        },
        {
          "duration": 0.14236088333333896,
          "durationTicks": 41,
          "midi": 65,
          "name": "F4",
          "ticks": 24360,
          "time": 84.583198,
          "velocity": 0.7716535433070866
        },
        {
          "duration": 0.1701386166666623,
          "durationTicks": 49,
          "midi": 58,
          "name": "A#3",
          "ticks": 24360,
          "time": 84.583198,
          "velocity": 0.6299212598425197
        },
        {
          "duration": 0.14930531666665559,
          "durationTicks": 43,
          "midi": 62,
          "name": "D4",
          "ticks": 24360,
          "time": 84.583198,
          "velocity": 0.84251968503937
        },
        {
          "duration": 0.09027763333332928,
          "durationTicks": 26,
          "midi": 65,
          "name": "F4",
          "ticks": 24440,
          "time": 84.86097533333333,
          "velocity": 0.7716535433070866
        },
        {
          "duration": 0.0763887666666676,
          "durationTicks": 22,
          "midi": 62,
          "name": "D4",
          "ticks": 24440,
          "time": 84.86097533333333,
          "velocity": 0.84251968503937
        },
        {
          "duration": 0.10069428333333974,
          "durationTicks": 29,
          "midi": 58,
          "name": "A#3",
          "ticks": 24440,
          "time": 84.86097533333333,
          "velocity": 0.7007874015748031
        },
        {
          "duration": 0.11458315000000141,
          "durationTicks": 33,
          "midi": 69,
          "name": "A4",
          "ticks": 24480,
          "time": 84.999864,
          "velocity": 0.7322834645669292
        },
        {
          "duration": 0.10416649999999095,
          "durationTicks": 30,
          "midi": 62,
          "name": "D4",
          "ticks": 24480,
          "time": 84.999864,
          "velocity": 0.7322834645669292
        },
        {
          "duration": 0.10416649999999095,
          "durationTicks": 30,
          "midi": 65,
          "name": "F4",
          "ticks": 24480,
          "time": 84.999864,
          "velocity": 0.7716535433070866
        },
        {
          "duration": 0.08333319999999844,
          "durationTicks": 24,
          "midi": 57,
          "name": "A3",
          "ticks": 24520,
          "time": 85.13875266666666,
          "velocity": 0.7007874015748031
        },
        {
          "duration": 0.06944433333333677,
          "durationTicks": 20,
          "midi": 50,
          "name": "D3",
          "ticks": 24520,
          "time": 85.13875266666666,
          "velocity": 0.7322834645669292
        },
        {
          "duration": 0.06597211666667135,
          "durationTicks": 19,
          "midi": 62,
          "name": "D4",
          "ticks": 24560,
          "time": 85.27764133333332,
          "velocity": 0.5984251968503937
        },
        {
          "duration": 0.07986098333333302,
          "durationTicks": 23,
          "midi": 69,
          "name": "A4",
          "ticks": 24560,
          "time": 85.27764133333332,
          "velocity": 0.7007874015748031
        },
        {
          "duration": 0.06597211666667135,
          "durationTicks": 19,
          "midi": 65,
          "name": "F4",
          "ticks": 24560,
          "time": 85.27764133333332,
          "velocity": 0.6692913385826772
        },
        {
          "duration": 0.05902768333334052,
          "durationTicks": 17,
          "midi": 50,
          "name": "D3",
          "ticks": 24600,
          "time": 85.41653,
          "velocity": 0.5984251968503937
        },
        {
          "duration": 0.07986098333333302,
          "durationTicks": 23,
          "midi": 57,
          "name": "A3",
          "ticks": 24600,
          "time": 85.41653,
          "velocity": 0.6692913385826772
        },
        {
          "duration": 0.05902768333332631,
          "durationTicks": 17,
          "midi": 62,
          "name": "D4",
          "ticks": 24640,
          "time": 85.55541866666667,
          "velocity": 0.4881889763779528
        },
        {
          "duration": 0.05555546666666089,
          "durationTicks": 16,
          "midi": 69,
          "name": "A4",
          "ticks": 24640,
          "time": 85.55541866666667,
          "velocity": 0.5984251968503937
        },
        {
          "duration": 0.06944433333332256,
          "durationTicks": 20,
          "midi": 65,
          "name": "F4",
          "ticks": 24640,
          "time": 85.55541866666667,
          "velocity": 0.6692913385826772
        },
        {
          "duration": 0.0555554666666751,
          "durationTicks": 16,
          "midi": 50,
          "name": "D3",
          "ticks": 24680,
          "time": 85.69430733333333,
          "velocity": 0.7007874015748031
        },
        {
          "duration": 0.06944433333333677,
          "durationTicks": 20,
          "midi": 57,
          "name": "A3",
          "ticks": 24680,
          "time": 85.69430733333333,
          "velocity": 0.6692913385826772
        },
        {
          "duration": 0.0763887666666676,
          "durationTicks": 22,
          "midi": 62,
          "name": "D4",
          "ticks": 24720,
          "time": 85.833196,
          "velocity": 0.7322834645669292
        },
        {
          "duration": 0.0763887666666676,
          "durationTicks": 22,
          "midi": 65,
          "name": "F4",
          "ticks": 24720,
          "time": 85.833196,
          "velocity": 0.7716535433070866
        },
        {
          "duration": 0.08333319999998423,
          "durationTicks": 24,
          "midi": 69,
          "name": "A4",
          "ticks": 24720,
          "time": 85.833196,
          "velocity": 0.7322834645669292
        },
        {
          "duration": 0.06597211666667135,
          "durationTicks": 19,
          "midi": 57,
          "name": "A3",
          "ticks": 24760,
          "time": 85.97208466666666,
          "velocity": 0.5669291338582677
        },
        {
          "duration": 0.048611033333330056,
          "durationTicks": 14,
          "midi": 50,
          "name": "D3",
          "ticks": 24760,
          "time": 85.97208466666666,
          "velocity": 0.6299212598425197
        },
        {
          "duration": 0.0937498500000089,
          "durationTicks": 27,
          "midi": 69,
          "name": "A4",
          "ticks": 24800,
          "time": 86.11097333333332,
          "velocity": 0.7007874015748031
        },
        {
          "duration": 0.08333320000001265,
          "durationTicks": 24,
          "midi": 62,
          "name": "D4",
          "ticks": 24800,
          "time": 86.11097333333332,
          "velocity": 0.6692913385826772
        },
        {
          "duration": 0.0937498500000089,
          "durationTicks": 27,
          "midi": 65,
          "name": "F4",
          "ticks": 24800,
          "time": 86.11097333333332,
          "velocity": 0.7716535433070866
        },
        {
          "duration": 0.06944433333333677,
          "durationTicks": 20,
          "midi": 50,
          "name": "D3",
          "ticks": 24840,
          "time": 86.249862,
          "velocity": 0.7007874015748031
        },
        {
          "duration": 0.07986098333333302,
          "durationTicks": 23,
          "midi": 57,
          "name": "A3",
          "ticks": 24840,
          "time": 86.249862,
          "velocity": 0.7716535433070866
        },
        {
          "duration": 0.08333319999999844,
          "durationTicks": 24,
          "midi": 62,
          "name": "D4",
          "ticks": 24880,
          "time": 86.38875066666667,
          "velocity": 0.7007874015748031
        },
        {
          "duration": 0.07986098333333302,
          "durationTicks": 23,
          "midi": 65,
          "name": "F4",
          "ticks": 24880,
          "time": 86.38875066666667,
          "velocity": 0.7322834645669292
        },
        {
          "duration": 0.09027763333332928,
          "durationTicks": 26,
          "midi": 69,
          "name": "A4",
          "ticks": 24880,
          "time": 86.38875066666667,
          "velocity": 0.7322834645669292
        },
        {
          "duration": 0.0763887666666676,
          "durationTicks": 22,
          "midi": 50,
          "name": "D3",
          "ticks": 24920,
          "time": 86.52763933333333,
          "velocity": 0.8031496062992126
        },
        {
          "duration": 0.06249990000000594,
          "durationTicks": 18,
          "midi": 57,
          "name": "A3",
          "ticks": 24920,
          "time": 86.52763933333333,
          "velocity": 0.84251968503937
        },
        {
          "duration": 0.19097191666666902,
          "durationTicks": 55,
          "midi": 53,
          "name": "F3",
          "ticks": 24960,
          "time": 86.666528,
          "velocity": 0.5354330708661418
        },
        {
          "duration": 0.2048607833333307,
          "durationTicks": 59,
          "midi": 57,
          "name": "A3",
          "ticks": 24960,
          "time": 86.666528,
          "velocity": 0.7322834645669292
        },
        {
          "duration": 0.2048607833333307,
          "durationTicks": 59,
          "midi": 60,
          "name": "C4",
          "ticks": 24960,
          "time": 86.666528,
          "velocity": 0.7007874015748031
        },
        {
          "duration": 0.10069428333333974,
          "durationTicks": 29,
          "midi": 60,
          "name": "C4",
          "ticks": 25080,
          "time": 87.08319399999999,
          "velocity": 0.7322834645669292
        },
        {
          "duration": 0.09722206666666011,
          "durationTicks": 28,
          "midi": 57,
          "name": "A3",
          "ticks": 25080,
          "time": 87.08319399999999,
          "velocity": 0.7007874015748031
        },
        {
          "duration": 0.11111093333333599,
          "durationTicks": 32,
          "midi": 53,
          "name": "F3",
          "ticks": 25080,
          "time": 87.08319399999999,
          "velocity": 0.6692913385826772
        },
        {
          "duration": 0.08680541666666386,
          "durationTicks": 25,
          "midi": 41,
          "name": "F2",
          "ticks": 25120,
          "time": 87.22208266666667,
          "velocity": 0.6692913385826772
        },
        {
          "duration": 0.08680541666667807,
          "durationTicks": 25,
          "midi": 53,
          "name": "F3",
          "ticks": 25160,
          "time": 87.36097133333332,
          "velocity": 0.5984251968503937
        },
        {
          "duration": 0.0937498500000089,
          "durationTicks": 27,
          "midi": 60,
          "name": "C4",
          "ticks": 25160,
          "time": 87.36097133333332,
          "velocity": 0.7007874015748031
        },
        {
          "duration": 0.0937498500000089,
          "durationTicks": 27,
          "midi": 57,
          "name": "A3",
          "ticks": 25160,
          "time": 87.36097133333332,
          "velocity": 0.6692913385826772
        },
        {
          "duration": 0.0937498499999947,
          "durationTicks": 27,
          "midi": 41,
          "name": "F2",
          "ticks": 25200,
          "time": 87.49986,
          "velocity": 0.7322834645669292
        },
        {
          "duration": 0.07986098333333302,
          "durationTicks": 23,
          "midi": 53,
          "name": "F3",
          "ticks": 25240,
          "time": 87.63874866666667,
          "velocity": 0.4881889763779528
        },
        {
          "duration": 0.07291654999998798,
          "durationTicks": 21,
          "midi": 60,
          "name": "C4",
          "ticks": 25240,
          "time": 87.63874866666667,
          "velocity": 0.6299212598425197
        },
        {
          "duration": 0.08680541666664965,
          "durationTicks": 25,
          "midi": 57,
          "name": "A3",
          "ticks": 25240,
          "time": 87.63874866666667,
          "velocity": 0.6299212598425197
        },
        {
          "duration": 0.10416649999999095,
          "durationTicks": 30,
          "midi": 41,
          "name": "F2",
          "ticks": 25280,
          "time": 87.77763733333333,
          "velocity": 0.8031496062992126
        },
        {
          "duration": 0.10069428333333974,
          "durationTicks": 29,
          "midi": 60,
          "name": "C4",
          "ticks": 25320,
          "time": 87.91652599999999,
          "velocity": 0.8031496062992126
        },
        {
          "duration": 0.09722206666666011,
          "durationTicks": 28,
          "midi": 53,
          "name": "F3",
          "ticks": 25320,
          "time": 87.91652599999999,
          "velocity": 0.7007874015748031
        },
        {
          "duration": 0.10763871666667058,
          "durationTicks": 31,
          "midi": 57,
          "name": "A3",
          "ticks": 25320,
          "time": 87.91652599999999,
          "velocity": 0.7716535433070866
        },
        {
          "duration": 0.10069428333332553,
          "durationTicks": 29,
          "midi": 41,
          "name": "F2",
          "ticks": 25360,
          "time": 88.05541466666666,
          "velocity": 0.7716535433070866
        },
        {
          "duration": 0.1458331000000186,
          "durationTicks": 42,
          "midi": 57,
          "name": "A3",
          "ticks": 25400,
          "time": 88.19430333333332,
          "velocity": 0.7322834645669292
        },
        {
          "duration": 0.1527775333333352,
          "durationTicks": 44,
          "midi": 60,
          "name": "C4",
          "ticks": 25400,
          "time": 88.19430333333332,
          "velocity": 0.7716535433070866
        },
        {
          "duration": 0.11805536666666683,
          "durationTicks": 34,
          "midi": 53,
          "name": "F3",
          "ticks": 25400,
          "time": 88.19430333333332,
          "velocity": 0.6299212598425197
        },
        {
          "duration": 0.1527775333333352,
          "durationTicks": 44,
          "midi": 43,
          "name": "G2",
          "ticks": 25440,
          "time": 88.333192,
          "velocity": 0.84251968503937
        },
        {
          "duration": 0.0937498499999947,
          "durationTicks": 27,
          "midi": 62,
          "name": "D4",
          "ticks": 25480,
          "time": 88.47208066666667,
          "velocity": 0.6692913385826772
        },
        {
          "duration": 0.0937498499999947,
          "durationTicks": 27,
          "midi": 55,
          "name": "G3",
          "ticks": 25480,
          "time": 88.47208066666667,
          "velocity": 0.5354330708661418
        },
        {
          "duration": 0.10069428333332553,
          "durationTicks": 29,
          "midi": 59,
          "name": "B3",
          "ticks": 25480,
          "time": 88.47208066666667,
          "velocity": 0.7007874015748031
        },
        {
          "duration": 0.10416649999999095,
          "durationTicks": 30,
          "midi": 43,
          "name": "G2",
          "ticks": 25520,
          "time": 88.61096933333333,
          "velocity": 0.7007874015748031
        },
        {
          "duration": 0.10763871666667058,
          "durationTicks": 31,
          "midi": 62,
          "name": "D4",
          "ticks": 25560,
          "time": 88.74985799999999,
          "velocity": 0.7716535433070866
        },
        {
          "duration": 0.10069428333333974,
          "durationTicks": 29,
          "midi": 55,
          "name": "G3",
          "ticks": 25560,
          "time": 88.74985799999999,
          "velocity": 0.6692913385826772
        },
        {
          "duration": 0.10069428333333974,
          "durationTicks": 29,
          "midi": 59,
          "name": "B3",
          "ticks": 25560,
          "time": 88.74985799999999,
          "velocity": 0.7716535433070866
        },
        {
          "duration": 0.09027763333334349,
          "durationTicks": 26,
          "midi": 43,
          "name": "G2",
          "ticks": 25600,
          "time": 88.88874666666666,
          "velocity": 0.7007874015748031
        },
        {
          "duration": 0.10763871666668479,
          "durationTicks": 31,
          "midi": 62,
          "name": "D4",
          "ticks": 25640,
          "time": 89.02763533333332,
          "velocity": 0.7716535433070866
        },
        {
          "duration": 0.10069428333333974,
          "durationTicks": 29,
          "midi": 59,
          "name": "B3",
          "ticks": 25640,
          "time": 89.02763533333332,
          "velocity": 0.7322834645669292
        },
        {
          "duration": 0.10416650000000516,
          "durationTicks": 30,
          "midi": 55,
          "name": "G3",
          "ticks": 25640,
          "time": 89.02763533333332,
          "velocity": 0.6299212598425197
        },
        {
          "duration": 0.10069428333333974,
          "durationTicks": 29,
          "midi": 43,
          "name": "G2",
          "ticks": 25680,
          "time": 89.166524,
          "velocity": 0.8031496062992126
        },
        {
          "duration": 0.07986098333333302,
          "durationTicks": 23,
          "midi": 62,
          "name": "D4",
          "ticks": 25720,
          "time": 89.30541266666667,
          "velocity": 0.7007874015748031
        },
        {
          "duration": 0.08333319999999844,
          "durationTicks": 24,
          "midi": 55,
          "name": "G3",
          "ticks": 25720,
          "time": 89.30541266666667,
          "velocity": 0.5669291338582677
        },
        {
          "duration": 0.08680541666664965,
          "durationTicks": 25,
          "midi": 59,
          "name": "B3",
          "ticks": 25720,
          "time": 89.30541266666667,
          "velocity": 0.7322834645669292
        },
        {
          "duration": 0.14583310000000438,
          "durationTicks": 42,
          "midi": 43,
          "name": "G2",
          "ticks": 25760,
          "time": 89.44430133333333,
          "velocity": 0.7322834645669292
        },
        {
          "duration": 0.11458315000000141,
          "durationTicks": 33,
          "midi": 62,
          "name": "D4",
          "ticks": 25800,
          "time": 89.58319,
          "velocity": 0.84251968503937
        },
        {
          "duration": 0.10763871666665636,
          "durationTicks": 31,
          "midi": 55,
          "name": "G3",
          "ticks": 25800,
          "time": 89.58319,
          "velocity": 0.7322834645669292
        },
        {
          "duration": 0.11111093333333599,
          "durationTicks": 32,
          "midi": 59,
          "name": "B3",
          "ticks": 25800,
          "time": 89.58319,
          "velocity": 0.84251968503937
        },
        {
          "duration": 0.0729165500000164,
          "durationTicks": 21,
          "midi": 55,
          "name": "G3",
          "ticks": 25880,
          "time": 89.86096733333332,
          "velocity": 0.6692913385826772
        },
        {
          "duration": 0.1111109333333502,
          "durationTicks": 32,
          "midi": 62,
          "name": "D4",
          "ticks": 25880,
          "time": 89.86096733333332,
          "velocity": 0.84251968503937
        },
        {
          "duration": 0.09722206666667432,
          "durationTicks": 28,
          "midi": 59,
          "name": "B3",
          "ticks": 25880,
          "time": 89.86096733333332,
          "velocity": 0.8031496062992126
        },
        {
          "duration": 0.12847201666666308,
          "durationTicks": 37,
          "midi": 46,
          "name": "A#2",
          "ticks": 25920,
          "time": 89.999856,
          "velocity": 0.889763779527559
        },
        {
          "duration": 0.06944433333332256,
          "durationTicks": 20,
          "midi": 62,
          "name": "D4",
          "ticks": 25960,
          "time": 90.13874466666667,
          "velocity": 0.4881889763779528
        },
        {
          "duration": 0.10069428333332553,
          "durationTicks": 29,
          "midi": 58,
          "name": "A#3",
          "ticks": 25960,
          "time": 90.13874466666667,
          "velocity": 0.4409448818897638
        },
        {
          "duration": 0.07986098333333302,
          "durationTicks": 23,
          "midi": 65,
          "name": "F4",
          "ticks": 25960,
          "time": 90.13874466666667,
          "velocity": 0.7007874015748031
        },
        {
          "duration": 0.10416650000000516,
          "durationTicks": 30,
          "midi": 46,
          "name": "A#2",
          "ticks": 26000,
          "time": 90.27763333333333,
          "velocity": 0.6692913385826772
        },
        {
          "duration": 0.11111093333333599,
          "durationTicks": 32,
          "midi": 58,
          "name": "A#3",
          "ticks": 26040,
          "time": 90.416522,
          "velocity": 0.6299212598425197
        },
        {
          "duration": 0.11805536666666683,
          "durationTicks": 34,
          "midi": 65,
          "name": "F4",
          "ticks": 26040,
          "time": 90.416522,
          "velocity": 0.7716535433070866
        },
        {
          "duration": 0.0937498499999947,
          "durationTicks": 27,
          "midi": 62,
          "name": "D4",
          "ticks": 26040,
          "time": 90.416522,
          "velocity": 0.8031496062992126
        },
        {
          "duration": 0.13541645000000813,
          "durationTicks": 39,
          "midi": 58,
          "name": "A#3",
          "ticks": 26120,
          "time": 90.69429933333332,
          "velocity": 0.5039370078740157
        },
        {
          "duration": 0.10763871666668479,
          "durationTicks": 31,
          "midi": 62,
          "name": "D4",
          "ticks": 26120,
          "time": 90.69429933333332,
          "velocity": 0.7716535433070866
        },
        {
          "duration": 0.11458315000000141,
          "durationTicks": 33,
          "midi": 65,
          "name": "F4",
          "ticks": 26120,
          "time": 90.69429933333332,
          "velocity": 0.7007874015748031
        },
        {
          "duration": 0.08680541666667807,
          "durationTicks": 25,
          "midi": 46,
          "name": "A#2",
          "ticks": 26160,
          "time": 90.83318799999999,
          "velocity": 0.84251968503937
        },
        {
          "duration": 0.10416650000000516,
          "durationTicks": 30,
          "midi": 58,
          "name": "A#3",
          "ticks": 26200,
          "time": 90.97207666666667,
          "velocity": 0.4645669291338583
        },
        {
          "duration": 0.09027763333332928,
          "durationTicks": 26,
          "midi": 65,
          "name": "F4",
          "ticks": 26200,
          "time": 90.97207666666667,
          "velocity": 0.7007874015748031
        },
        {
          "duration": 0.09027763333332928,
          "durationTicks": 26,
          "midi": 62,
          "name": "D4",
          "ticks": 26200,
          "time": 90.97207666666667,
          "velocity": 0.7007874015748031
        },
        {
          "duration": 0.12152758333334646,
          "durationTicks": 35,
          "midi": 46,
          "name": "A#2",
          "ticks": 26240,
          "time": 91.11096533333333,
          "velocity": 0.8031496062992126
        },
        {
          "duration": 0.14236088333332475,
          "durationTicks": 41,
          "midi": 65,
          "name": "F4",
          "ticks": 26280,
          "time": 91.249854,
          "velocity": 0.7716535433070866
        },
        {
          "duration": 0.1701386166666623,
          "durationTicks": 49,
          "midi": 58,
          "name": "A#3",
          "ticks": 26280,
          "time": 91.249854,
          "velocity": 0.6299212598425197
        },
        {
          "duration": 0.14930531666665559,
          "durationTicks": 43,
          "midi": 62,
          "name": "D4",
          "ticks": 26280,
          "time": 91.249854,
          "velocity": 0.84251968503937
        },
        {
          "duration": 0.09027763333332928,
          "durationTicks": 26,
          "midi": 65,
          "name": "F4",
          "ticks": 26360,
          "time": 91.52763133333333,
          "velocity": 0.7716535433070866
        },
        {
          "duration": 0.0763887666666676,
          "durationTicks": 22,
          "midi": 62,
          "name": "D4",
          "ticks": 26360,
          "time": 91.52763133333333,
          "velocity": 0.84251968503937
        },
        {
          "duration": 0.10069428333332553,
          "durationTicks": 29,
          "midi": 58,
          "name": "A#3",
          "ticks": 26360,
          "time": 91.52763133333333,
          "velocity": 0.7007874015748031
        },
        {
          "duration": 0.07291655000000219,
          "durationTicks": 21,
          "midi": 62,
          "name": "D4",
          "ticks": 26400,
          "time": 91.66651999999999,
          "velocity": 0.889763779527559
        },
        {
          "duration": 0.10069428333333974,
          "durationTicks": 29,
          "midi": 69,
          "name": "A4",
          "ticks": 26400,
          "time": 91.66651999999999,
          "velocity": 0.84251968503937
        },
        {
          "duration": 0.09027763333334349,
          "durationTicks": 26,
          "midi": 65,
          "name": "F4",
          "ticks": 26400,
          "time": 91.66651999999999,
          "velocity": 0.889763779527559
        },
        {
          "duration": 0.07291654999998798,
          "durationTicks": 21,
          "midi": 57,
          "name": "A3",
          "ticks": 26440,
          "time": 91.80540866666666,
          "velocity": 0.7322834645669292
        },
        {
          "duration": 0.06944433333333677,
          "durationTicks": 20,
          "midi": 50,
          "name": "D3",
          "ticks": 26440,
          "time": 91.80540866666666,
          "velocity": 0.7716535433070866
        },
        {
          "duration": 0.07291655000000219,
          "durationTicks": 21,
          "midi": 62,
          "name": "D4",
          "ticks": 26480,
          "time": 91.94429733333332,
          "velocity": 0.7007874015748031
        },
        {
          "duration": 0.08680541666667807,
          "durationTicks": 25,
          "midi": 69,
          "name": "A4",
          "ticks": 26480,
          "time": 91.94429733333332,
          "velocity": 0.7322834645669292
        },
        {
          "duration": 0.07986098333333302,
          "durationTicks": 23,
          "midi": 65,
          "name": "F4",
          "ticks": 26480,
          "time": 91.94429733333332,
          "velocity": 0.7716535433070866
        },
        {
          "duration": 0.08333319999999844,
          "durationTicks": 24,
          "midi": 50,
          "name": "D3",
          "ticks": 26520,
          "time": 92.083186,
          "velocity": 0.889763779527559
        },
        {
          "duration": 0.0763887666666676,
          "durationTicks": 22,
          "midi": 57,
          "name": "A3",
          "ticks": 26520,
          "time": 92.083186,
          "velocity": 0.889763779527559
        },
        {
          "duration": 0.06944433333332256,
          "durationTicks": 20,
          "midi": 62,
          "name": "D4",
          "ticks": 26560,
          "time": 92.22207466666667,
          "velocity": 0.6692913385826772
        },
        {
          "duration": 0.05902768333332631,
          "durationTicks": 17,
          "midi": 69,
          "name": "A4",
          "ticks": 26560,
          "time": 92.22207466666667,
          "velocity": 0.6692913385826772
        },
        {
          "duration": 0.06597211666665714,
          "durationTicks": 19,
          "midi": 65,
          "name": "F4",
          "ticks": 26560,
          "time": 92.22207466666667,
          "velocity": 0.7322834645669292
        },
        {
          "duration": 0.0763887666666676,
          "durationTicks": 22,
          "midi": 57,
          "name": "A3",
          "ticks": 26600,
          "time": 92.36096333333333,
          "velocity": 0.8031496062992126
        },
        {
          "duration": 0.06944433333333677,
          "durationTicks": 20,
          "midi": 50,
          "name": "D3",
          "ticks": 26600,
          "time": 92.36096333333333,
          "velocity": 0.84251968503937
        },
        {
          "duration": 0.07986098333333302,
          "durationTicks": 23,
          "midi": 62,
          "name": "D4",
          "ticks": 26640,
          "time": 92.49985199999999,
          "velocity": 0.7716535433070866
        },
        {
          "duration": 0.0763887666666676,
          "durationTicks": 22,
          "midi": 65,
          "name": "F4",
          "ticks": 26640,
          "time": 92.49985199999999,
          "velocity": 0.84251968503937
        },
        {
          "duration": 0.08680541666667807,
          "durationTicks": 25,
          "midi": 69,
          "name": "A4",
          "ticks": 26640,
          "time": 92.49985199999999,
          "velocity": 0.7716535433070866
        },
        {
          "duration": 0.08333319999999844,
          "durationTicks": 24,
          "midi": 62,
          "name": "D4",
          "ticks": 26680,
          "time": 92.63874066666666,
          "velocity": 0.7322834645669292
        },
        {
          "duration": 0.07986098333333302,
          "durationTicks": 23,
          "midi": 65,
          "name": "F4",
          "ticks": 26680,
          "time": 92.63874066666666,
          "velocity": 0.7716535433070866
        },
        {
          "duration": 0.0937498499999947,
          "durationTicks": 27,
          "midi": 69,
          "name": "A4",
          "ticks": 26680,
          "time": 92.63874066666666,
          "velocity": 0.7716535433070866
        },
        {
          "duration": 0.06597211666667135,
          "durationTicks": 19,
          "midi": 50,
          "name": "D3",
          "ticks": 26720,
          "time": 92.77762933333332,
          "velocity": 0.889763779527559
        },
        {
          "duration": 0.07291655000000219,
          "durationTicks": 21,
          "midi": 57,
          "name": "A3",
          "ticks": 26720,
          "time": 92.77762933333332,
          "velocity": 0.84251968503937
        },
        {
          "duration": 0.08333319999999844,
          "durationTicks": 24,
          "midi": 62,
          "name": "D4",
          "ticks": 26760,
          "time": 92.916518,
          "velocity": 0.7322834645669292
        },
        {
          "duration": 0.10069428333333974,
          "durationTicks": 29,
          "midi": 69,
          "name": "A4",
          "ticks": 26760,
          "time": 92.916518,
          "velocity": 0.7716535433070866
        },
        {
          "duration": 0.0937498499999947,
          "durationTicks": 27,
          "midi": 65,
          "name": "F4",
          "ticks": 26760,
          "time": 92.916518,
          "velocity": 0.7716535433070866
        },
        {
          "duration": 0.05555546666666089,
          "durationTicks": 16,
          "midi": 57,
          "name": "A3",
          "ticks": 26800,
          "time": 93.05540666666667,
          "velocity": 0.7322834645669292
        },
        {
          "duration": 0.062499899999991726,
          "durationTicks": 18,
          "midi": 50,
          "name": "D3",
          "ticks": 26800,
          "time": 93.05540666666667,
          "velocity": 0.84251968503937
        },
        {
          "duration": 0.09722206666667432,
          "durationTicks": 28,
          "midi": 62,
          "name": "D4",
          "ticks": 26840,
          "time": 93.19429533333333,
          "velocity": 0.7007874015748031
        },
        {
          "duration": 0.10763871666667058,
          "durationTicks": 31,
          "midi": 69,
          "name": "A4",
          "ticks": 26840,
          "time": 93.19429533333333,
          "velocity": 0.7322834645669292
        },
        {
          "duration": 0.10763871666667058,
          "durationTicks": 31,
          "midi": 65,
          "name": "F4",
          "ticks": 26840,
          "time": 93.19429533333333,
          "velocity": 0.8031496062992126
        },
        {
          "duration": 0.06249990000000594,
          "durationTicks": 18,
          "midi": 50,
          "name": "D3",
          "ticks": 26880,
          "time": 93.33318399999999,
          "velocity": 0.889763779527559
        },
        {
          "duration": 0.0729165500000164,
          "durationTicks": 21,
          "midi": 57,
          "name": "A3",
          "ticks": 26880,
          "time": 93.33318399999999,
          "velocity": 0.84251968503937
        },
        {
          "duration": 0.062499899999991726,
          "durationTicks": 18,
          "midi": 62,
          "name": "D4",
          "ticks": 26920,
          "time": 93.47207266666666,
          "velocity": 0.6692913385826772
        },
        {
          "duration": 0.06944433333333677,
          "durationTicks": 20,
          "midi": 69,
          "name": "A4",
          "ticks": 26920,
          "time": 93.47207266666666,
          "velocity": 0.7007874015748031
        },
        {
          "duration": 0.07291655000000219,
          "durationTicks": 21,
          "midi": 65,
          "name": "F4",
          "ticks": 26920,
          "time": 93.47207266666666,
          "velocity": 0.7716535433070866
        },
        {
          "duration": 0.06249990000000594,
          "durationTicks": 18,
          "midi": 50,
          "name": "D3",
          "ticks": 26960,
          "time": 93.61096133333332,
          "velocity": 0.8031496062992126
        },
        {
          "duration": 0.07986098333333302,
          "durationTicks": 23,
          "midi": 57,
          "name": "A3",
          "ticks": 26960,
          "time": 93.61096133333332,
          "velocity": 0.84251968503937
        },
        {
          "duration": 0.0937498499999947,
          "durationTicks": 27,
          "midi": 62,
          "name": "D4",
          "ticks": 27000,
          "time": 93.74985,
          "velocity": 0.7322834645669292
        },
        {
          "duration": 0.10763871666667058,
          "durationTicks": 31,
          "midi": 65,
          "name": "F4",
          "ticks": 27000,
          "time": 93.74985,
          "velocity": 0.8031496062992126
        },
        {
          "duration": 0.11805536666666683,
          "durationTicks": 34,
          "midi": 69,
          "name": "A4",
          "ticks": 27000,
          "time": 93.74985,
          "velocity": 0.8031496062992126
        },
        {
          "duration": 0.0763887666666676,
          "durationTicks": 22,
          "midi": 50,
          "name": "D3",
          "ticks": 27040,
          "time": 93.88873866666667,
          "velocity": 0.889763779527559
        },
        {
          "duration": 0.07986098333333302,
          "durationTicks": 23,
          "midi": 57,
          "name": "A3",
          "ticks": 27040,
          "time": 93.88873866666667,
          "velocity": 0.84251968503937
        },
        {
          "duration": 0.09027763333332928,
          "durationTicks": 26,
          "midi": 69,
          "name": "A4",
          "ticks": 27080,
          "time": 94.02762733333333,
          "velocity": 0.8031496062992126
        },
        {
          "duration": 0.08333319999999844,
          "durationTicks": 24,
          "midi": 65,
          "name": "F4",
          "ticks": 27080,
          "time": 94.02762733333333,
          "velocity": 0.8031496062992126
        },
        {
          "duration": 0.0763887666666676,
          "durationTicks": 22,
          "midi": 62,
          "name": "D4",
          "ticks": 27080,
          "time": 94.02762733333333,
          "velocity": 0.7716535433070866
        },
        {
          "duration": 0.1701386166666623,
          "durationTicks": 49,
          "midi": 62,
          "name": "D4",
          "ticks": 27120,
          "time": 94.166516,
          "velocity": 0.8031496062992126
        },
        {
          "duration": 0.1874996999999894,
          "durationTicks": 54,
          "midi": 67,
          "name": "G4",
          "ticks": 27120,
          "time": 94.166516,
          "velocity": 0.84251968503937
        },
        {
          "duration": 0.19097191666666902,
          "durationTicks": 55,
          "midi": 71,
          "name": "B4",
          "ticks": 27120,
          "time": 94.166516,
          "velocity": 0.84251968503937
        },
        {
          "duration": 0.3576383166666659,
          "durationTicks": 103,
          "midi": 69,
          "name": "A4",
          "ticks": 27240,
          "time": 94.583182,
          "velocity": 0.84251968503937
        },
        {
          "duration": 0.34722166666666965,
          "durationTicks": 100,
          "midi": 65,
          "name": "F4",
          "ticks": 27240,
          "time": 94.583182,
          "velocity": 0.889763779527559
        },
        {
          "duration": 0.34374945000000423,
          "durationTicks": 99,
          "midi": 60,
          "name": "C4",
          "ticks": 27240,
          "time": 94.583182,
          "velocity": 0.84251968503937
        },
        {
          "duration": 0.1527775333333352,
          "durationTicks": 44,
          "midi": 64,
          "name": "E4",
          "ticks": 27360,
          "time": 94.999848,
          "velocity": 0.5984251968503937
        },
        {
          "duration": 0.1527775333333352,
          "durationTicks": 44,
          "midi": 71,
          "name": "B4",
          "ticks": 27360,
          "time": 94.999848,
          "velocity": 0.7007874015748031
        },
        {
          "duration": 0.15624975000000063,
          "durationTicks": 45,
          "midi": 67,
          "name": "G4",
          "ticks": 27360,
          "time": 94.999848,
          "velocity": 0.6692913385826772
        },
        {
          "duration": 0.06944433333333677,
          "durationTicks": 20,
          "midi": 52,
          "name": "E3",
          "ticks": 27400,
          "time": 95.13873666666666,
          "velocity": 0.7007874015748031
        },
        {
          "duration": 0.07291655000000219,
          "durationTicks": 21,
          "midi": 59,
          "name": "B3",
          "ticks": 27400,
          "time": 95.13873666666666,
          "velocity": 0.6692913385826772
        },
        {
          "duration": 0.11458315000001562,
          "durationTicks": 33,
          "midi": 71,
          "name": "B4",
          "ticks": 27440,
          "time": 95.27762533333332,
          "velocity": 0.6299212598425197
        },
        {
          "duration": 0.11458315000001562,
          "durationTicks": 33,
          "midi": 64,
          "name": "E4",
          "ticks": 27440,
          "time": 95.27762533333332,
          "velocity": 0.5669291338582677
        },
        {
          "duration": 0.12152758333334646,
          "durationTicks": 35,
          "midi": 67,
          "name": "G4",
          "ticks": 27440,
          "time": 95.27762533333332,
          "velocity": 0.7007874015748031
        },
        {
          "duration": 0.06944433333333677,
          "durationTicks": 20,
          "midi": 59,
          "name": "B3",
          "ticks": 27480,
          "time": 95.41651399999999,
          "velocity": 0.6692913385826772
        },
        {
          "duration": 0.07291655000000219,
          "durationTicks": 21,
          "midi": 52,
          "name": "E3",
          "ticks": 27480,
          "time": 95.41651399999999,
          "velocity": 0.7007874015748031
        },
        {
          "duration": 0.10763871666667058,
          "durationTicks": 31,
          "midi": 64,
          "name": "E4",
          "ticks": 27520,
          "time": 95.55540266666667,
          "velocity": 0.5039370078740157
        },
        {
          "duration": 0.1145831499999872,
          "durationTicks": 33,
          "midi": 71,
          "name": "B4",
          "ticks": 27520,
          "time": 95.55540266666667,
          "velocity": 0.6299212598425197
        },
        {
          "duration": 0.12847201666666308,
          "durationTicks": 37,
          "midi": 67,
          "name": "G4",
          "ticks": 27520,
          "time": 95.55540266666667,
          "velocity": 0.7007874015748031
        },
        {
          "duration": 0.10416650000000516,
          "durationTicks": 30,
          "midi": 59,
          "name": "B3",
          "ticks": 27560,
          "time": 95.69429133333333,
          "velocity": 0.7007874015748031
        },
        {
          "duration": 0.10416650000000516,
          "durationTicks": 30,
          "midi": 52,
          "name": "E3",
          "ticks": 27560,
          "time": 95.69429133333333,
          "velocity": 0.7322834645669292
        },
        {
          "duration": 0.08680541666666386,
          "durationTicks": 25,
          "midi": 64,
          "name": "E4",
          "ticks": 27600,
          "time": 95.83318,
          "velocity": 0.5984251968503937
        },
        {
          "duration": 0.10069428333333974,
          "durationTicks": 29,
          "midi": 71,
          "name": "B4",
          "ticks": 27600,
          "time": 95.83318,
          "velocity": 0.7322834645669292
        },
        {
          "duration": 0.10069428333333974,
          "durationTicks": 29,
          "midi": 67,
          "name": "G4",
          "ticks": 27600,
          "time": 95.83318,
          "velocity": 0.7007874015748031
        },
        {
          "duration": 0.14236088333332475,
          "durationTicks": 41,
          "midi": 64,
          "name": "E4",
          "ticks": 27680,
          "time": 96.11095733333333,
          "velocity": 0.5984251968503937
        },
        {
          "duration": 0.14583310000000438,
          "durationTicks": 42,
          "midi": 71,
          "name": "B4",
          "ticks": 27680,
          "time": 96.11095733333333,
          "velocity": 0.7322834645669292
        },
        {
          "duration": 0.1493053166666698,
          "durationTicks": 43,
          "midi": 67,
          "name": "G4",
          "ticks": 27680,
          "time": 96.11095733333333,
          "velocity": 0.7322834645669292
        },
        {
          "duration": 0.08680541666667807,
          "durationTicks": 25,
          "midi": 59,
          "name": "B3",
          "ticks": 27720,
          "time": 96.24984599999999,
          "velocity": 0.7007874015748031
        },
        {
          "duration": 0.0763887666666676,
          "durationTicks": 22,
          "midi": 52,
          "name": "E3",
          "ticks": 27720,
          "time": 96.24984599999999,
          "velocity": 0.7007874015748031
        },
        {
          "duration": 0.07986098333333302,
          "durationTicks": 23,
          "midi": 64,
          "name": "E4",
          "ticks": 27760,
          "time": 96.38873466666666,
          "velocity": 0.4645669291338583
        },
        {
          "duration": 0.09722206666666011,
          "durationTicks": 28,
          "midi": 71,
          "name": "B4",
          "ticks": 27760,
          "time": 96.38873466666666,
          "velocity": 0.5984251968503937
        },
        {
          "duration": 0.10416650000000516,
          "durationTicks": 30,
          "midi": 67,
          "name": "G4",
          "ticks": 27760,
          "time": 96.38873466666666,
          "velocity": 0.5984251968503937
        },
        {
          "duration": 0.06249990000000594,
          "durationTicks": 18,
          "midi": 52,
          "name": "E3",
          "ticks": 27800,
          "time": 96.52762333333332,
          "velocity": 0.6692913385826772
        },
        {
          "duration": 0.07986098333333302,
          "durationTicks": 23,
          "midi": 59,
          "name": "B3",
          "ticks": 27800,
          "time": 96.52762333333332,
          "velocity": 0.6692913385826772
        },
        {
          "duration": 0.12152758333333225,
          "durationTicks": 35,
          "midi": 64,
          "name": "E4",
          "ticks": 27840,
          "time": 96.666512,
          "velocity": 0.47244094488188976
        },
        {
          "duration": 0.13541644999999392,
          "durationTicks": 39,
          "midi": 71,
          "name": "B4",
          "ticks": 27840,
          "time": 96.666512,
          "velocity": 0.5984251968503937
        },
        {
          "duration": 0.14583309999999017,
          "durationTicks": 42,
          "midi": 67,
          "name": "G4",
          "ticks": 27840,
          "time": 96.666512,
          "velocity": 0.6299212598425197
        },
        {
          "duration": 0.05208324999999547,
          "durationTicks": 15,
          "midi": 52,
          "name": "E3",
          "ticks": 27880,
          "time": 96.80540066666667,
          "velocity": 0.5984251968503937
        },
        {
          "duration": 0.07291654999998798,
          "durationTicks": 21,
          "midi": 59,
          "name": "B3",
          "ticks": 27880,
          "time": 96.80540066666667,
          "velocity": 0.5984251968503937
        },
        {
          "duration": 0.1493053166666698,
          "durationTicks": 43,
          "midi": 64,
          "name": "E4",
          "ticks": 27920,
          "time": 96.94428933333333,
          "velocity": 0.5984251968503937
        },
        {
          "duration": 0.1527775333333352,
          "durationTicks": 44,
          "midi": 71,
          "name": "B4",
          "ticks": 27920,
          "time": 96.94428933333333,
          "velocity": 0.6299212598425197
        },
        {
          "duration": 0.16319418333333147,
          "durationTicks": 47,
          "midi": 67,
          "name": "G4",
          "ticks": 27920,
          "time": 96.94428933333333,
          "velocity": 0.7007874015748031
        },
        {
          "duration": 0.0729165500000164,
          "durationTicks": 21,
          "midi": 52,
          "name": "E3",
          "ticks": 27960,
          "time": 97.08317799999999,
          "velocity": 0.7007874015748031
        },
        {
          "duration": 0.08680541666667807,
          "durationTicks": 25,
          "midi": 59,
          "name": "B3",
          "ticks": 27960,
          "time": 97.08317799999999,
          "velocity": 0.7322834645669292
        },
        {
          "duration": 0.11111093333333599,
          "durationTicks": 32,
          "midi": 71,
          "name": "B4",
          "ticks": 28000,
          "time": 97.22206666666666,
          "velocity": 0.5984251968503937
        },
        {
          "duration": 0.10763871666667058,
          "durationTicks": 31,
          "midi": 64,
          "name": "E4",
          "ticks": 28000,
          "time": 97.22206666666666,
          "velocity": 0.4881889763779528
        },
        {
          "duration": 0.11805536666666683,
          "durationTicks": 34,
          "midi": 67,
          "name": "G4",
          "ticks": 28000,
          "time": 97.22206666666666,
          "velocity": 0.5984251968503937
        },
        {
          "duration": 0.0937498500000089,
          "durationTicks": 27,
          "midi": 52,
          "name": "E3",
          "ticks": 28040,
          "time": 97.36095533333332,
          "velocity": 0.5984251968503937
        },
        {
          "duration": 0.10069428333333974,
          "durationTicks": 29,
          "midi": 59,
          "name": "B3",
          "ticks": 28040,
          "time": 97.36095533333332,
          "velocity": 0.6692913385826772
        },
        {
          "duration": 0.12499979999999766,
          "durationTicks": 36,
          "midi": 64,
          "name": "E4",
          "ticks": 28080,
          "time": 97.499844,
          "velocity": 0.5669291338582677
        },
        {
          "duration": 0.1319442333333285,
          "durationTicks": 38,
          "midi": 71,
          "name": "B4",
          "ticks": 28080,
          "time": 97.499844,
          "velocity": 0.7007874015748031
        },
        {
          "duration": 0.14236088333333896,
          "durationTicks": 41,
          "midi": 67,
          "name": "G4",
          "ticks": 28080,
          "time": 97.499844,
          "velocity": 0.6692913385826772
        },
        {
          "duration": 0.062499899999991726,
          "durationTicks": 18,
          "midi": 52,
          "name": "E3",
          "ticks": 28120,
          "time": 97.63873266666667,
          "velocity": 0.5669291338582677
        },
        {
          "duration": 0.09027763333332928,
          "durationTicks": 26,
          "midi": 59,
          "name": "B3",
          "ticks": 28120,
          "time": 97.63873266666667,
          "velocity": 0.6299212598425197
        },
        {
          "duration": 0.12847201666666308,
          "durationTicks": 37,
          "midi": 64,
          "name": "E4",
          "ticks": 28160,
          "time": 97.77762133333333,
          "velocity": 0.5984251968503937
        },
        {
          "duration": 0.14583310000000438,
          "durationTicks": 42,
          "midi": 71,
          "name": "B4",
          "ticks": 28160,
          "time": 97.77762133333333,
          "velocity": 0.7007874015748031
        },
        {
          "duration": 0.1527775333333352,
          "durationTicks": 44,
          "midi": 67,
          "name": "G4",
          "ticks": 28160,
          "time": 97.77762133333333,
          "velocity": 0.7007874015748031
        },
        {
          "duration": 0.0937498499999947,
          "durationTicks": 27,
          "midi": 59,
          "name": "B3",
          "ticks": 28200,
          "time": 97.91651,
          "velocity": 0.7007874015748031
        },
        {
          "duration": 0.08333319999998423,
          "durationTicks": 24,
          "midi": 52,
          "name": "E3",
          "ticks": 28200,
          "time": 97.91651,
          "velocity": 0.7007874015748031
        },
        {
          "duration": 0.10416650000000516,
          "durationTicks": 30,
          "midi": 64,
          "name": "E4",
          "ticks": 28240,
          "time": 98.05539866666666,
          "velocity": 0.5669291338582677
        },
        {
          "duration": 0.10763871666667058,
          "durationTicks": 31,
          "midi": 71,
          "name": "B4",
          "ticks": 28240,
          "time": 98.05539866666666,
          "velocity": 0.6299212598425197
        },
        {
          "duration": 0.1284720166666773,
          "durationTicks": 37,
          "midi": 67,
          "name": "G4",
          "ticks": 28240,
          "time": 98.05539866666666,
          "velocity": 0.6692913385826772
        },
        {
          "duration": 0.0937498500000089,
          "durationTicks": 27,
          "midi": 59,
          "name": "B3",
          "ticks": 28280,
          "time": 98.19428733333332,
          "velocity": 0.7007874015748031
        },
        {
          "duration": 0.06597211666667135,
          "durationTicks": 19,
          "midi": 52,
          "name": "E3",
          "ticks": 28280,
          "time": 98.19428733333332,
          "velocity": 0.5669291338582677
        },
        {
          "duration": 0.16666639999999688,
          "durationTicks": 48,
          "midi": 69,
          "name": "A4",
          "ticks": 28320,
          "time": 98.333176,
          "velocity": 0.6692913385826772
        },
        {
          "duration": 0.15972196666666605,
          "durationTicks": 46,
          "midi": 62,
          "name": "D4",
          "ticks": 28320,
          "time": 98.333176,
          "velocity": 0.7007874015748031
        },
        {
          "duration": 0.15972196666666605,
          "durationTicks": 46,
          "midi": 66,
          "name": "F#4",
          "ticks": 28320,
          "time": 98.333176,
          "velocity": 0.6692913385826772
        },
        {
          "duration": 0.1493053166666698,
          "durationTicks": 43,
          "midi": 62,
          "name": "D4",
          "ticks": 28400,
          "time": 98.61095333333333,
          "velocity": 0.5984251968503937
        },
        {
          "duration": 0.1319442333333285,
          "durationTicks": 38,
          "midi": 66,
          "name": "F#4",
          "ticks": 28400,
          "time": 98.61095333333333,
          "velocity": 0.7007874015748031
        },
        {
          "duration": 0.15624975000000063,
          "durationTicks": 45,
          "midi": 69,
          "name": "A4",
          "ticks": 28400,
          "time": 98.61095333333333,
          "velocity": 0.6692913385826772
        },
        {
          "duration": 0.07986098333333302,
          "durationTicks": 23,
          "midi": 59,
          "name": "B3",
          "ticks": 28440,
          "time": 98.749842,
          "velocity": 0.7322834645669292
        },
        {
          "duration": 0.0763887666666676,
          "durationTicks": 22,
          "midi": 66,
          "name": "F#4",
          "ticks": 28480,
          "time": 98.88873066666666,
          "velocity": 0.5669291338582677
        },
        {
          "duration": 0.09722206666666011,
          "durationTicks": 28,
          "midi": 69,
          "name": "A4",
          "ticks": 28480,
          "time": 98.88873066666666,
          "velocity": 0.5984251968503937
        },
        {
          "duration": 0.09722206666666011,
          "durationTicks": 28,
          "midi": 62,
          "name": "D4",
          "ticks": 28480,
          "time": 98.88873066666666,
          "velocity": 0.5984251968503937
        },
        {
          "duration": 0.0937498500000089,
          "durationTicks": 27,
          "midi": 59,
          "name": "B3",
          "ticks": 28520,
          "time": 99.02761933333332,
          "velocity": 0.7716535433070866
        },
        {
          "duration": 0.19444413333333443,
          "durationTicks": 56,
          "midi": 66,
          "name": "F#4",
          "ticks": 28560,
          "time": 99.166508,
          "velocity": 0.7007874015748031
        },
        {
          "duration": 0.18402748333333818,
          "durationTicks": 53,
          "midi": 62,
          "name": "D4",
          "ticks": 28560,
          "time": 99.166508,
          "velocity": 0.6692913385826772
        },
        {
          "duration": 0.19791634999999985,
          "durationTicks": 57,
          "midi": 69,
          "name": "A4",
          "ticks": 28560,
          "time": 99.166508,
          "velocity": 0.7716535433070866
        },
        {
          "duration": 0.14583310000000438,
          "durationTicks": 42,
          "midi": 62,
          "name": "D4",
          "ticks": 28640,
          "time": 99.44428533333333,
          "velocity": 0.7322834645669292
        },
        {
          "duration": 0.1493053166666698,
          "durationTicks": 43,
          "midi": 69,
          "name": "A4",
          "ticks": 28640,
          "time": 99.44428533333333,
          "velocity": 0.7716535433070866
        },
        {
          "duration": 0.13888866666667354,
          "durationTicks": 40,
          "midi": 66,
          "name": "F#4",
          "ticks": 28640,
          "time": 99.44428533333333,
          "velocity": 0.7322834645669292
        },
        {
          "duration": 0.07986098333333302,
          "durationTicks": 23,
          "midi": 59,
          "name": "B3",
          "ticks": 28680,
          "time": 99.583174,
          "velocity": 0.8031496062992126
        },
        {
          "duration": 0.07638876666668182,
          "durationTicks": 22,
          "midi": 69,
          "name": "A4",
          "ticks": 28720,
          "time": 99.72206266666666,
          "velocity": 0.5039370078740157
        },
        {
          "duration": 0.08680541666666386,
          "durationTicks": 25,
          "midi": 62,
          "name": "D4",
          "ticks": 28720,
          "time": 99.72206266666666,
          "velocity": 0.4881889763779528
        },
        {
          "duration": 0.08680541666666386,
          "durationTicks": 25,
          "midi": 66,
          "name": "F#4",
          "ticks": 28720,
          "time": 99.72206266666666,
          "velocity": 0.47244094488188976
        },
        {
          "duration": 0.09027763333334349,
          "durationTicks": 26,
          "midi": 59,
          "name": "B3",
          "ticks": 28760,
          "time": 99.86095133333332,
          "velocity": 0.84251968503937
        },
        {
          "duration": 0.14583310000000438,
          "durationTicks": 42,
          "midi": 62,
          "name": "D4",
          "ticks": 28800,
          "time": 99.99983999999999,
          "velocity": 0.6692913385826772
        },
        {
          "duration": 0.18402748333333818,
          "durationTicks": 53,
          "midi": 66,
          "name": "F#4",
          "ticks": 28800,
          "time": 99.99983999999999,
          "velocity": 0.7007874015748031
        },
        {
          "duration": 0.18055526666667276,
          "durationTicks": 52,
          "midi": 69,
          "name": "A4",
          "ticks": 28800,
          "time": 99.99983999999999,
          "velocity": 0.7322834645669292
        },
        {
          "duration": 0.14236088333333896,
          "durationTicks": 41,
          "midi": 69,
          "name": "A4",
          "ticks": 28880,
          "time": 100.27761733333332,
          "velocity": 0.8031496062992126
        },
        {
          "duration": 0.13888866666667354,
          "durationTicks": 40,
          "midi": 66,
          "name": "F#4",
          "ticks": 28880,
          "time": 100.27761733333332,
          "velocity": 0.7322834645669292
        },
        {
          "duration": 0.13541645000000813,
          "durationTicks": 39,
          "midi": 62,
          "name": "D4",
          "ticks": 28880,
          "time": 100.27761733333332,
          "velocity": 0.7322834645669292
        },
        {
          "duration": 0.10069428333333974,
          "durationTicks": 29,
          "midi": 57,
          "name": "A3",
          "ticks": 28920,
          "time": 100.416506,
          "velocity": 0.889763779527559
        },
        {
          "duration": 0.0763887666666676,
          "durationTicks": 22,
          "midi": 59,
          "name": "B3",
          "ticks": 28920,
          "time": 100.416506,
          "velocity": 0.8031496062992126
        },
        {
          "duration": 0.08680541666664965,
          "durationTicks": 25,
          "midi": 62,
          "name": "D4",
          "ticks": 28960,
          "time": 100.55539466666667,
          "velocity": 0.7007874015748031
        },
        {
          "duration": 0.09027763333332928,
          "durationTicks": 26,
          "midi": 69,
          "name": "A4",
          "ticks": 28960,
          "time": 100.55539466666667,
          "velocity": 0.5984251968503937
        },
        {
          "duration": 0.12499979999998345,
          "durationTicks": 36,
          "midi": 62,
          "name": "D4",
          "ticks": 28960,
          "time": 100.55539466666667,
          "velocity": 0.5669291338582677
        },
        {
          "duration": 0.0937498499999947,
          "durationTicks": 27,
          "midi": 66,
          "name": "F#4",
          "ticks": 28960,
          "time": 100.55539466666667,
          "velocity": 0.5984251968503937
        },
        {
          "duration": 0.10763871666667058,
          "durationTicks": 31,
          "midi": 64,
          "name": "E4",
          "ticks": 29000,
          "time": 100.69428333333333,
          "velocity": 0.7322834645669292
        },
        {
          "duration": 0.08333319999999844,
          "durationTicks": 24,
          "midi": 59,
          "name": "B3",
          "ticks": 29000,
          "time": 100.69428333333333,
          "velocity": 0.84251968503937
        },
        {
          "duration": 0.13541644999999392,
          "durationTicks": 39,
          "midi": 66,
          "name": "F#4",
          "ticks": 29040,
          "time": 100.83317199999999,
          "velocity": 0.84251968503937
        },
        {
          "duration": 0.12499980000001187,
          "durationTicks": 36,
          "midi": 62,
          "name": "D4",
          "ticks": 29040,
          "time": 100.83317199999999,
          "velocity": 0.7007874015748031
        },
        {
          "duration": 0.1319442333333427,
          "durationTicks": 38,
          "midi": 69,
          "name": "A4",
          "ticks": 29040,
          "time": 100.83317199999999,
          "velocity": 0.7716535433070866
        },
        {
          "duration": 0.1666664000000111,
          "durationTicks": 48,
          "midi": 66,
          "name": "F#4",
          "ticks": 29040,
          "time": 100.83317199999999,
          "velocity": 0.7007874015748031
        },
        {
          "duration": 0.14236088333333896,
          "durationTicks": 41,
          "midi": 64,
          "name": "E4",
          "ticks": 29080,
          "time": 100.97206066666666,
          "velocity": 0.7007874015748031
        },
        {
          "duration": 0.08333319999999844,
          "durationTicks": 24,
          "midi": 59,
          "name": "B3",
          "ticks": 29080,
          "time": 100.97206066666666,
          "velocity": 0.6299212598425197
        },
        {
          "duration": 0.1701386166666623,
          "durationTicks": 49,
          "midi": 62,
          "name": "D4",
          "ticks": 29120,
          "time": 101.11094933333332,
          "velocity": 0.84251968503937
        },
        {
          "duration": 0.23958295000001328,
          "durationTicks": 69,
          "midi": 62,
          "name": "D4",
          "ticks": 29120,
          "time": 101.11094933333332,
          "velocity": 0.5984251968503937
        },
        {
          "duration": 0.1701386166666623,
          "durationTicks": 49,
          "midi": 69,
          "name": "A4",
          "ticks": 29120,
          "time": 101.11094933333332,
          "velocity": 0.7007874015748031
        },
        {
          "duration": 0.18402748333333818,
          "durationTicks": 53,
          "midi": 66,
          "name": "F#4",
          "ticks": 29120,
          "time": 101.11094933333332,
          "velocity": 0.7007874015748031
        },
        {
          "duration": 0.13541644999999392,
          "durationTicks": 39,
          "midi": 57,
          "name": "A3",
          "ticks": 29160,
          "time": 101.249838,
          "velocity": 0.7716535433070866
        },
        {
          "duration": 0.08680541666666386,
          "durationTicks": 25,
          "midi": 59,
          "name": "B3",
          "ticks": 29160,
          "time": 101.249838,
          "velocity": 0.7322834645669292
        },
        {
          "duration": 0.13541644999999392,
          "durationTicks": 39,
          "midi": 64,
          "name": "E4",
          "ticks": 29200,
          "time": 101.38872666666667,
          "velocity": 0.7322834645669292
        },
        {
          "duration": 0.12152758333331803,
          "durationTicks": 35,
          "midi": 69,
          "name": "A4",
          "ticks": 29200,
          "time": 101.38872666666667,
          "velocity": 0.7322834645669292
        },
        {
          "duration": 0.09722206666666011,
          "durationTicks": 28,
          "midi": 62,
          "name": "D4",
          "ticks": 29200,
          "time": 101.38872666666667,
          "velocity": 0.7007874015748031
        },
        {
          "duration": 0.11111093333332178,
          "durationTicks": 32,
          "midi": 66,
          "name": "F#4",
          "ticks": 29200,
          "time": 101.38872666666667,
          "velocity": 0.7007874015748031
        },
        {
          "duration": 0.12847201666666308,
          "durationTicks": 37,
          "midi": 62,
          "name": "D4",
          "ticks": 29240,
          "time": 101.52761533333333,
          "velocity": 0.7322834645669292
        },
        {
          "duration": 0.11111093333333599,
          "durationTicks": 32,
          "midi": 59,
          "name": "B3",
          "ticks": 29240,
          "time": 101.52761533333333,
          "velocity": 0.7007874015748031
        },
        {
          "duration": 0.1701386166666765,
          "durationTicks": 49,
          "midi": 67,
          "name": "G4",
          "ticks": 29280,
          "time": 101.66650399999999,
          "velocity": 0.7322834645669292
        },
        {
          "duration": 0.1666664000000111,
          "durationTicks": 48,
          "midi": 71,
          "name": "B4",
          "ticks": 29280,
          "time": 101.66650399999999,
          "velocity": 0.7322834645669292
        },
        {
          "duration": 0.15277753333334942,
          "durationTicks": 44,
          "midi": 64,
          "name": "E4",
          "ticks": 29280,
          "time": 101.66650399999999,
          "velocity": 0.6692913385826772
        },
        {
          "duration": 0.15972196666668026,
          "durationTicks": 46,
          "midi": 64,
          "name": "E4",
          "ticks": 29360,
          "time": 101.94428133333332,
          "velocity": 0.7007874015748031
        },
        {
          "duration": 0.1701386166666623,
          "durationTicks": 49,
          "midi": 71,
          "name": "B4",
          "ticks": 29360,
          "time": 101.94428133333332,
          "velocity": 0.7716535433070866
        },
        {
          "duration": 0.17361083333334193,
          "durationTicks": 50,
          "midi": 67,
          "name": "G4",
          "ticks": 29360,
          "time": 101.94428133333332,
          "velocity": 0.7716535433070866
        },
        {
          "duration": 0.06597211666667135,
          "durationTicks": 19,
          "midi": 52,
          "name": "E3",
          "ticks": 29400,
          "time": 102.08317,
          "velocity": 0.6692913385826772
        },
        {
          "duration": 0.08333319999999844,
          "durationTicks": 24,
          "midi": 59,
          "name": "B3",
          "ticks": 29400,
          "time": 102.08317,
          "velocity": 0.7007874015748031
        },
        {
          "duration": 0.09722206666666011,
          "durationTicks": 28,
          "midi": 64,
          "name": "E4",
          "ticks": 29440,
          "time": 102.22205866666667,
          "velocity": 0.4881889763779528
        },
        {
          "duration": 0.11111093333332178,
          "durationTicks": 32,
          "midi": 71,
          "name": "B4",
          "ticks": 29440,
          "time": 102.22205866666667,
          "velocity": 0.5984251968503937
        },
        {
          "duration": 0.10763871666665636,
          "durationTicks": 31,
          "midi": 67,
          "name": "G4",
          "ticks": 29440,
          "time": 102.22205866666667,
          "velocity": 0.5669291338582677
        },
        {
          "duration": 0.0937498500000089,
          "durationTicks": 27,
          "midi": 59,
          "name": "B3",
          "ticks": 29480,
          "time": 102.36094733333333,
          "velocity": 0.6692913385826772
        },
        {
          "duration": 0.08333319999999844,
          "durationTicks": 24,
          "midi": 52,
          "name": "E3",
          "ticks": 29480,
          "time": 102.36094733333333,
          "velocity": 0.7007874015748031
        },
        {
          "duration": 0.17708304999999314,
          "durationTicks": 51,
          "midi": 64,
          "name": "E4",
          "ticks": 29520,
          "time": 102.499836,
          "velocity": 0.6299212598425197
        },
        {
          "duration": 0.19791634999998564,
          "durationTicks": 57,
          "midi": 71,
          "name": "B4",
          "ticks": 29520,
          "time": 102.499836,
          "velocity": 0.7322834645669292
        },
        {
          "duration": 0.19444413333333443,
          "durationTicks": 56,
          "midi": 67,
          "name": "G4",
          "ticks": 29520,
          "time": 102.499836,
          "velocity": 0.7322834645669292
        },
        {
          "duration": 0.14236088333333896,
          "durationTicks": 41,
          "midi": 64,
          "name": "E4",
          "ticks": 29600,
          "time": 102.77761333333332,
          "velocity": 0.6692913385826772
        },
        {
          "duration": 0.1458331000000186,
          "durationTicks": 42,
          "midi": 71,
          "name": "B4",
          "ticks": 29600,
          "time": 102.77761333333332,
          "velocity": 0.7322834645669292
        },
        {
          "duration": 0.14236088333333896,
          "durationTicks": 41,
          "midi": 67,
          "name": "G4",
          "ticks": 29600,
          "time": 102.77761333333332,
          "velocity": 0.7322834645669292
        },
        {
          "duration": 0.06597211666667135,
          "durationTicks": 19,
          "midi": 52,
          "name": "E3",
          "ticks": 29640,
          "time": 102.916502,
          "velocity": 0.6692913385826772
        },
        {
          "duration": 0.08333319999999844,
          "durationTicks": 24,
          "midi": 59,
          "name": "B3",
          "ticks": 29640,
          "time": 102.916502,
          "velocity": 0.7007874015748031
        },
        {
          "duration": 0.10763871666665636,
          "durationTicks": 31,
          "midi": 71,
          "name": "B4",
          "ticks": 29680,
          "time": 103.05539066666667,
          "velocity": 0.5669291338582677
        },
        {
          "duration": 0.09722206666666011,
          "durationTicks": 28,
          "midi": 64,
          "name": "E4",
          "ticks": 29680,
          "time": 103.05539066666667,
          "velocity": 0.5354330708661418
        },
        {
          "duration": 0.11111093333332178,
          "durationTicks": 32,
          "midi": 67,
          "name": "G4",
          "ticks": 29680,
          "time": 103.05539066666667,
          "velocity": 0.5984251968503937
        },
        {
          "duration": 0.0763887666666676,
          "durationTicks": 22,
          "midi": 52,
          "name": "E3",
          "ticks": 29720,
          "time": 103.19427933333333,
          "velocity": 0.7007874015748031
        },
        {
          "duration": 0.08680541666666386,
          "durationTicks": 25,
          "midi": 59,
          "name": "B3",
          "ticks": 29720,
          "time": 103.19427933333333,
          "velocity": 0.7322834645669292
        },
        {
          "duration": 0.1701386166666623,
          "durationTicks": 49,
          "midi": 64,
          "name": "E4",
          "ticks": 29760,
          "time": 103.333168,
          "velocity": 0.5669291338582677
        },
        {
          "duration": 0.19097191666666902,
          "durationTicks": 55,
          "midi": 67,
          "name": "G4",
          "ticks": 29760,
          "time": 103.333168,
          "velocity": 0.7322834645669292
        },
        {
          "duration": 0.1874996999999894,
          "durationTicks": 54,
          "midi": 71,
          "name": "B4",
          "ticks": 29760,
          "time": 103.333168,
          "velocity": 0.7322834645669292
        },
        {
          "duration": 0.14236088333333896,
          "durationTicks": 41,
          "midi": 64,
          "name": "E4",
          "ticks": 29840,
          "time": 103.61094533333332,
          "velocity": 0.5984251968503937
        },
        {
          "duration": 0.15972196666668026,
          "durationTicks": 46,
          "midi": 71,
          "name": "B4",
          "ticks": 29840,
          "time": 103.61094533333332,
          "velocity": 0.7322834645669292
        },
        {
          "duration": 0.15624975000000063,
          "durationTicks": 45,
          "midi": 67,
          "name": "G4",
          "ticks": 29840,
          "time": 103.61094533333332,
          "velocity": 0.7322834645669292
        },
        {
          "duration": 0.06597211666667135,
          "durationTicks": 19,
          "midi": 52,
          "name": "E3",
          "ticks": 29880,
          "time": 103.74983399999999,
          "velocity": 0.6692913385826772
        },
        {
          "duration": 0.08333319999999844,
          "durationTicks": 24,
          "midi": 59,
          "name": "B3",
          "ticks": 29880,
          "time": 103.74983399999999,
          "velocity": 0.7007874015748031
        },
        {
          "duration": 0.0937498499999947,
          "durationTicks": 27,
          "midi": 64,
          "name": "E4",
          "ticks": 29920,
          "time": 103.88872266666667,
          "velocity": 0.5354330708661418
        },
        {
          "duration": 0.11111093333332178,
          "durationTicks": 32,
          "midi": 71,
          "name": "B4",
          "ticks": 29920,
          "time": 103.88872266666667,
          "velocity": 0.6299212598425197
        },
        {
          "duration": 0.10763871666665636,
          "durationTicks": 31,
          "midi": 67,
          "name": "G4",
          "ticks": 29920,
          "time": 103.88872266666667,
          "velocity": 0.5669291338582677
        },
        {
          "duration": 0.08680541666666386,
          "durationTicks": 25,
          "midi": 59,
          "name": "B3",
          "ticks": 29960,
          "time": 104.02761133333333,
          "velocity": 0.7007874015748031
        },
        {
          "duration": 0.07986098333333302,
          "durationTicks": 23,
          "midi": 52,
          "name": "E3",
          "ticks": 29960,
          "time": 104.02761133333333,
          "velocity": 0.7007874015748031
        },
        {
          "duration": 0.12152758333333225,
          "durationTicks": 35,
          "midi": 64,
          "name": "E4",
          "ticks": 30000,
          "time": 104.1665,
          "velocity": 0.5669291338582677
        },
        {
          "duration": 0.13888866666667354,
          "durationTicks": 40,
          "midi": 71,
          "name": "B4",
          "ticks": 30000,
          "time": 104.1665,
          "velocity": 0.7007874015748031
        },
        {
          "duration": 0.1319442333333285,
          "durationTicks": 38,
          "midi": 67,
          "name": "G4",
          "ticks": 30000,
          "time": 104.1665,
          "velocity": 0.7007874015748031
        },
        {
          "duration": 0.05902768333332631,
          "durationTicks": 17,
          "midi": 52,
          "name": "E3",
          "ticks": 30040,
          "time": 104.30538866666667,
          "velocity": 0.6692913385826772
        },
        {
          "duration": 0.07291654999998798,
          "durationTicks": 21,
          "midi": 59,
          "name": "B3",
          "ticks": 30040,
          "time": 104.30538866666667,
          "velocity": 0.7322834645669292
        },
        {
          "duration": 0.1319442333333427,
          "durationTicks": 38,
          "midi": 64,
          "name": "E4",
          "ticks": 30080,
          "time": 104.44427733333332,
          "velocity": 0.5984251968503937
        },
        {
          "duration": 0.14236088333333896,
          "durationTicks": 41,
          "midi": 67,
          "name": "G4",
          "ticks": 30080,
          "time": 104.44427733333332,
          "velocity": 0.7007874015748031
        },
        {
          "duration": 0.149305316666684,
          "durationTicks": 43,
          "midi": 71,
          "name": "B4",
          "ticks": 30080,
          "time": 104.44427733333332,
          "velocity": 0.7007874015748031
        },
        {
          "duration": 0.11111093333333599,
          "durationTicks": 32,
          "midi": 59,
          "name": "B3",
          "ticks": 30120,
          "time": 104.58316599999999,
          "velocity": 0.7322834645669292
        },
        {
          "duration": 0.10416650000000516,
          "durationTicks": 30,
          "midi": 52,
          "name": "E3",
          "ticks": 30120,
          "time": 104.58316599999999,
          "velocity": 0.7007874015748031
        },
        {
          "duration": 0.12847201666666308,
          "durationTicks": 37,
          "midi": 64,
          "name": "E4",
          "ticks": 30160,
          "time": 104.72205466666666,
          "velocity": 0.6299212598425197
        },
        {
          "duration": 0.12499979999999766,
          "durationTicks": 36,
          "midi": 71,
          "name": "B4",
          "ticks": 30160,
          "time": 104.72205466666666,
          "velocity": 0.7716535433070866
        },
        {
          "duration": 0.14930531666665559,
          "durationTicks": 43,
          "midi": 67,
          "name": "G4",
          "ticks": 30160,
          "time": 104.72205466666666,
          "velocity": 0.7322834645669292
        },
        {
          "duration": 0.10069428333333974,
          "durationTicks": 29,
          "midi": 59,
          "name": "B3",
          "ticks": 30200,
          "time": 104.86094333333332,
          "velocity": 0.7322834645669292
        },
        {
          "duration": 0.09722206666667432,
          "durationTicks": 28,
          "midi": 52,
          "name": "E3",
          "ticks": 30200,
          "time": 104.86094333333332,
          "velocity": 0.7322834645669292
        },
        {
          "duration": 0.18055526666665855,
          "durationTicks": 52,
          "midi": 69,
          "name": "A4",
          "ticks": 30240,
          "time": 104.999832,
          "velocity": 0.7007874015748031
        },
        {
          "duration": 0.17361083333332772,
          "durationTicks": 50,
          "midi": 62,
          "name": "D4",
          "ticks": 30240,
          "time": 104.999832,
          "velocity": 0.7322834645669292
        },
        {
          "duration": 0.18402748333332397,
          "durationTicks": 53,
          "midi": 66,
          "name": "F#4",
          "ticks": 30240,
          "time": 104.999832,
          "velocity": 0.7322834645669292
        },
        {
          "duration": 0.19097191666666902,
          "durationTicks": 55,
          "midi": 69,
          "name": "A4",
          "ticks": 30320,
          "time": 105.27760933333333,
          "velocity": 0.7716535433070866
        },
        {
          "duration": 0.18402748333332397,
          "durationTicks": 53,
          "midi": 62,
          "name": "D4",
          "ticks": 30320,
          "time": 105.27760933333333,
          "velocity": 0.7322834645669292
        },
        {
          "duration": 0.1874997000000036,
          "durationTicks": 54,
          "midi": 66,
          "name": "F#4",
          "ticks": 30320,
          "time": 105.27760933333333,
          "velocity": 0.7716535433070866
        },
        {
          "duration": 0.0763887666666676,
          "durationTicks": 22,
          "midi": 59,
          "name": "B3",
          "ticks": 30360,
          "time": 105.41649799999999,
          "velocity": 0.7716535433070866
        },
        {
          "duration": 0.08680541666666386,
          "durationTicks": 25,
          "midi": 69,
          "name": "A4",
          "ticks": 30400,
          "time": 105.55538666666666,
          "velocity": 0.4881889763779528
        },
        {
          "duration": 0.0937498499999947,
          "durationTicks": 27,
          "midi": 62,
          "name": "D4",
          "ticks": 30400,
          "time": 105.55538666666666,
          "velocity": 0.5039370078740157
        },
        {
          "duration": 0.11805536666666683,
          "durationTicks": 34,
          "midi": 66,
          "name": "F#4",
          "ticks": 30400,
          "time": 105.55538666666666,
          "velocity": 0.5354330708661418
        },
        {
          "duration": 0.09722206666667432,
          "durationTicks": 28,
          "midi": 59,
          "name": "B3",
          "ticks": 30440,
          "time": 105.69427533333332,
          "velocity": 0.84251968503937
        },
        {
          "duration": 0.18055526666667276,
          "durationTicks": 52,
          "midi": 69,
          "name": "A4",
          "ticks": 30480,
          "time": 105.833164,
          "velocity": 0.7716535433070866
        },
        {
          "duration": 0.20138856666666527,
          "durationTicks": 58,
          "midi": 66,
          "name": "F#4",
          "ticks": 30480,
          "time": 105.833164,
          "velocity": 0.7716535433070866
        },
        {
          "duration": 0.18402748333332397,
          "durationTicks": 53,
          "midi": 62,
          "name": "D4",
          "ticks": 30480,
          "time": 105.833164,
          "velocity": 0.7007874015748031
        },
        {
          "duration": 0.15972196666666605,
          "durationTicks": 46,
          "midi": 62,
          "name": "D4",
          "ticks": 30560,
          "time": 106.11094133333333,
          "velocity": 0.7322834645669292
        },
        {
          "duration": 0.1701386166666623,
          "durationTicks": 49,
          "midi": 69,
          "name": "A4",
          "ticks": 30560,
          "time": 106.11094133333333,
          "velocity": 0.8031496062992126
        },
        {
          "duration": 0.17361083333334193,
          "durationTicks": 50,
          "midi": 66,
          "name": "F#4",
          "ticks": 30560,
          "time": 106.11094133333333,
          "velocity": 0.7322834645669292
        },
        {
          "duration": 0.07986098333333302,
          "durationTicks": 23,
          "midi": 59,
          "name": "B3",
          "ticks": 30600,
          "time": 106.24982999999999,
          "velocity": 0.7322834645669292
        },
        {
          "duration": 0.1145831499999872,
          "durationTicks": 33,
          "midi": 69,
          "name": "A4",
          "ticks": 30640,
          "time": 106.38871866666666,
          "velocity": 0.6692913385826772
        },
        {
          "duration": 0.1145831499999872,
          "durationTicks": 33,
          "midi": 66,
          "name": "F#4",
          "ticks": 30640,
          "time": 106.38871866666666,
          "velocity": 0.5669291338582677
        },
        {
          "duration": 0.1145831499999872,
          "durationTicks": 33,
          "midi": 62,
          "name": "D4",
          "ticks": 30640,
          "time": 106.38871866666666,
          "velocity": 0.6299212598425197
        },
        {
          "duration": 0.09027763333334349,
          "durationTicks": 26,
          "midi": 59,
          "name": "B3",
          "ticks": 30680,
          "time": 106.52760733333332,
          "velocity": 0.8031496062992126
        },
        {
          "duration": 0.17708305000000735,
          "durationTicks": 51,
          "midi": 62,
          "name": "D4",
          "ticks": 30720,
          "time": 106.666496,
          "velocity": 0.6692913385826772
        },
        {
          "duration": 0.1874996999999894,
          "durationTicks": 54,
          "midi": 66,
          "name": "F#4",
          "ticks": 30720,
          "time": 106.666496,
          "velocity": 0.7007874015748031
        },
        {
          "duration": 0.17708305000000735,
          "durationTicks": 51,
          "midi": 69,
          "name": "A4",
          "ticks": 30720,
          "time": 106.666496,
          "velocity": 0.7007874015748031
        },
        {
          "duration": 0.15624975000000063,
          "durationTicks": 45,
          "midi": 69,
          "name": "A4",
          "ticks": 30800,
          "time": 106.94427333333334,
          "velocity": 0.7322834645669292
        },
        {
          "duration": 0.15624975000000063,
          "durationTicks": 45,
          "midi": 62,
          "name": "D4",
          "ticks": 30800,
          "time": 106.94427333333334,
          "velocity": 0.7322834645669292
        },
        {
          "duration": 0.15624975000000063,
          "durationTicks": 45,
          "midi": 66,
          "name": "F#4",
          "ticks": 30800,
          "time": 106.94427333333334,
          "velocity": 0.7007874015748031
        },
        {
          "duration": 0.10069428333332553,
          "durationTicks": 29,
          "midi": 57,
          "name": "A3",
          "ticks": 30840,
          "time": 107.083162,
          "velocity": 0.889763779527559
        },
        {
          "duration": 0.08680541666664965,
          "durationTicks": 25,
          "midi": 59,
          "name": "B3",
          "ticks": 30840,
          "time": 107.083162,
          "velocity": 0.7716535433070866
        },
        {
          "duration": 0.10763871666665636,
          "durationTicks": 31,
          "midi": 62,
          "name": "D4",
          "ticks": 30880,
          "time": 107.22205066666666,
          "velocity": 0.7007874015748031
        },
        {
          "duration": 0.12499979999999766,
          "durationTicks": 36,
          "midi": 62,
          "name": "D4",
          "ticks": 30880,
          "time": 107.22205066666666,
          "velocity": 0.5669291338582677
        },
        {
          "duration": 0.1111109333333502,
          "durationTicks": 32,
          "midi": 69,
          "name": "A4",
          "ticks": 30880,
          "time": 107.22205066666666,
          "velocity": 0.6692913385826772
        },
        {
          "duration": 0.12152758333333225,
          "durationTicks": 35,
          "midi": 66,
          "name": "F#4",
          "ticks": 30880,
          "time": 107.22205066666666,
          "velocity": 0.6692913385826772
        },
        {
          "duration": 0.10763871666667058,
          "durationTicks": 31,
          "midi": 64,
          "name": "E4",
          "ticks": 30920,
          "time": 107.36093933333333,
          "velocity": 0.7322834645669292
        },
        {
          "duration": 0.10069428333333974,
          "durationTicks": 29,
          "midi": 59,
          "name": "B3",
          "ticks": 30920,
          "time": 107.36093933333333,
          "velocity": 0.84251968503937
        },
        {
          "duration": 0.14583310000000438,
          "durationTicks": 42,
          "midi": 66,
          "name": "F#4",
          "ticks": 30960,
          "time": 107.499828,
          "velocity": 0.84251968503937
        },
        {
          "duration": 0.13541644999999392,
          "durationTicks": 39,
          "midi": 62,
          "name": "D4",
          "ticks": 30960,
          "time": 107.499828,
          "velocity": 0.6692913385826772
        },
        {
          "duration": 0.16666639999999688,
          "durationTicks": 48,
          "midi": 66,
          "name": "F#4",
          "ticks": 30960,
          "time": 107.499828,
          "velocity": 0.7007874015748031
        },
        {
          "duration": 0.14583310000000438,
          "durationTicks": 42,
          "midi": 69,
          "name": "A4",
          "ticks": 30960,
          "time": 107.499828,
          "velocity": 0.7322834645669292
        },
        {
          "duration": 0.14236088333335317,
          "durationTicks": 41,
          "midi": 64,
          "name": "E4",
          "ticks": 31000,
          "time": 107.63871666666665,
          "velocity": 0.7007874015748031
        },
        {
          "duration": 0.08333320000001265,
          "durationTicks": 24,
          "midi": 59,
          "name": "B3",
          "ticks": 31000,
          "time": 107.63871666666665,
          "velocity": 0.7322834645669292
        },
        {
          "duration": 0.13888866666665933,
          "durationTicks": 40,
          "midi": 62,
          "name": "D4",
          "ticks": 31040,
          "time": 107.77760533333334,
          "velocity": 0.84251968503937
        },
        {
          "duration": 0.23958294999998486,
          "durationTicks": 69,
          "midi": 62,
          "name": "D4",
          "ticks": 31040,
          "time": 107.77760533333334,
          "velocity": 0.7007874015748031
        },
        {
          "duration": 0.14236088333332475,
          "durationTicks": 41,
          "midi": 69,
          "name": "A4",
          "ticks": 31040,
          "time": 107.77760533333334,
          "velocity": 0.7007874015748031
        },
        {
          "duration": 0.1527775333333352,
          "durationTicks": 44,
          "midi": 66,
          "name": "F#4",
          "ticks": 31040,
          "time": 107.77760533333334,
          "velocity": 0.7007874015748031
        },
        {
          "duration": 0.13541644999999392,
          "durationTicks": 39,
          "midi": 57,
          "name": "A3",
          "ticks": 31080,
          "time": 107.916494,
          "velocity": 0.7716535433070866
        },
        {
          "duration": 0.11805536666666683,
          "durationTicks": 34,
          "midi": 59,
          "name": "B3",
          "ticks": 31080,
          "time": 107.916494,
          "velocity": 0.84251968503937
        },
        {
          "duration": 0.13541645000000813,
          "durationTicks": 39,
          "midi": 64,
          "name": "E4",
          "ticks": 31120,
          "time": 108.05538266666666,
          "velocity": 0.7322834645669292
        },
        {
          "duration": 0.1319442333333285,
          "durationTicks": 38,
          "midi": 69,
          "name": "A4",
          "ticks": 31120,
          "time": 108.05538266666666,
          "velocity": 0.7322834645669292
        },
        {
          "duration": 0.11458315000001562,
          "durationTicks": 33,
          "midi": 62,
          "name": "D4",
          "ticks": 31120,
          "time": 108.05538266666666,
          "velocity": 0.7007874015748031
        },
        {
          "duration": 0.12152758333333225,
          "durationTicks": 35,
          "midi": 66,
          "name": "F#4",
          "ticks": 31120,
          "time": 108.05538266666666,
          "velocity": 0.7007874015748031
        },
        {
          "duration": 0.1284720166666773,
          "durationTicks": 37,
          "midi": 62,
          "name": "D4",
          "ticks": 31160,
          "time": 108.19427133333333,
          "velocity": 0.7322834645669292
        },
        {
          "duration": 0.08680541666666386,
          "durationTicks": 25,
          "midi": 59,
          "name": "B3",
          "ticks": 31160,
          "time": 108.19427133333333,
          "velocity": 0.8031496062992126
        },
        {
          "duration": 0.12499980000001187,
          "durationTicks": 36,
          "midi": 65,
          "name": "F4",
          "ticks": 31200,
          "time": 108.33315999999999,
          "velocity": 0.5984251968503937
        },
        {
          "duration": 0.1284720166666773,
          "durationTicks": 37,
          "midi": 69,
          "name": "A4",
          "ticks": 31200,
          "time": 108.33315999999999,
          "velocity": 0.5669291338582677
        },
        {
          "duration": 0.06249990000002015,
          "durationTicks": 18,
          "midi": 60,
          "name": "C4",
          "ticks": 31240,
          "time": 108.47204866666665,
          "velocity": 0.5039370078740157
        },
        {
          "duration": 0.08680541666667807,
          "durationTicks": 25,
          "midi": 53,
          "name": "F3",
          "ticks": 31240,
          "time": 108.47204866666665,
          "velocity": 0.7322834645669292
        },
        {
          "duration": 0.11111093333332178,
          "durationTicks": 32,
          "midi": 65,
          "name": "F4",
          "ticks": 31280,
          "time": 108.61093733333334,
          "velocity": 0.6299212598425197
        },
        {
          "duration": 0.11111093333332178,
          "durationTicks": 32,
          "midi": 69,
          "name": "A4",
          "ticks": 31280,
          "time": 108.61093733333334,
          "velocity": 0.7322834645669292
        },
        {
          "duration": 0.06944433333333677,
          "durationTicks": 20,
          "midi": 53,
          "name": "F3",
          "ticks": 31320,
          "time": 108.749826,
          "velocity": 0.7322834645669292
        },
        {
          "duration": 0.07986098333333302,
          "durationTicks": 23,
          "midi": 60,
          "name": "C4",
          "ticks": 31320,
          "time": 108.749826,
          "velocity": 0.7322834645669292
        },
        {
          "duration": 0.09722206666667432,
          "durationTicks": 28,
          "midi": 65,
          "name": "F4",
          "ticks": 31360,
          "time": 108.88871466666666,
          "velocity": 0.5354330708661418
        },
        {
          "duration": 0.10763871666665636,
          "durationTicks": 31,
          "midi": 69,
          "name": "A4",
          "ticks": 31360,
          "time": 108.88871466666666,
          "velocity": 0.5984251968503937
        },
        {
          "duration": 0.0937498499999947,
          "durationTicks": 27,
          "midi": 60,
          "name": "C4",
          "ticks": 31400,
          "time": 109.02760333333333,
          "velocity": 0.8031496062992126
        },
        {
          "duration": 0.0937498499999947,
          "durationTicks": 27,
          "midi": 53,
          "name": "F3",
          "ticks": 31400,
          "time": 109.02760333333333,
          "velocity": 0.7716535433070866
        },
        {
          "duration": 0.11805536666668104,
          "durationTicks": 34,
          "midi": 65,
          "name": "F4",
          "ticks": 31440,
          "time": 109.16649199999999,
          "velocity": 0.7322834645669292
        },
        {
          "duration": 0.12499980000001187,
          "durationTicks": 36,
          "midi": 69,
          "name": "A4",
          "ticks": 31440,
          "time": 109.16649199999999,
          "velocity": 0.8031496062992126
        },
        {
          "duration": 0.05555546666666089,
          "durationTicks": 16,
          "midi": 53,
          "name": "F3",
          "ticks": 31480,
          "time": 109.30538066666665,
          "velocity": 0.7007874015748031
        },
        {
          "duration": 0.0763887666666676,
          "durationTicks": 22,
          "midi": 60,
          "name": "C4",
          "ticks": 31480,
          "time": 109.30538066666665,
          "velocity": 0.8031496062992126
        },
        {
          "duration": 0.1319442333333285,
          "durationTicks": 38,
          "midi": 65,
          "name": "F4",
          "ticks": 31520,
          "time": 109.44426933333334,
          "velocity": 0.7007874015748031
        },
        {
          "duration": 0.14236088333332475,
          "durationTicks": 41,
          "midi": 69,
          "name": "A4",
          "ticks": 31520,
          "time": 109.44426933333334,
          "velocity": 0.7716535433070866
        },
        {
          "duration": 0.09027763333331507,
          "durationTicks": 26,
          "midi": 60,
          "name": "C4",
          "ticks": 31560,
          "time": 109.583158,
          "velocity": 0.84251968503937
        },
        {
          "duration": 0.10069428333333974,
          "durationTicks": 29,
          "midi": 53,
          "name": "F3",
          "ticks": 31560,
          "time": 109.583158,
          "velocity": 0.8031496062992126
        },
        {
          "duration": 0.10069428333333974,
          "durationTicks": 29,
          "midi": 65,
          "name": "F4",
          "ticks": 31600,
          "time": 109.72204666666666,
          "velocity": 0.5039370078740157
        },
        {
          "duration": 0.1111109333333502,
          "durationTicks": 32,
          "midi": 69,
          "name": "A4",
          "ticks": 31600,
          "time": 109.72204666666666,
          "velocity": 0.6692913385826772
        },
        {
          "duration": 0.08680541666666386,
          "durationTicks": 25,
          "midi": 60,
          "name": "C4",
          "ticks": 31640,
          "time": 109.86093533333333,
          "velocity": 0.7716535433070866
        },
        {
          "duration": 0.0937498499999947,
          "durationTicks": 27,
          "midi": 53,
          "name": "F3",
          "ticks": 31640,
          "time": 109.86093533333333,
          "velocity": 0.7322834645669292
        },
        {
          "duration": 0.10069428333333974,
          "durationTicks": 29,
          "midi": 65,
          "name": "F4",
          "ticks": 31680,
          "time": 109.99982399999999,
          "velocity": 0.7322834645669292
        },
        {
          "duration": 0.11458315000000141,
          "durationTicks": 33,
          "midi": 69,
          "name": "A4",
          "ticks": 31680,
          "time": 109.99982399999999,
          "velocity": 0.8031496062992126
        },
        {
          "duration": 0.08333320000002686,
          "durationTicks": 24,
          "midi": 60,
          "name": "C4",
          "ticks": 31720,
          "time": 110.13871266666665,
          "velocity": 0.5984251968503937
        },
        {
          "duration": 0.08680541666669228,
          "durationTicks": 25,
          "midi": 53,
          "name": "F3",
          "ticks": 31720,
          "time": 110.13871266666665,
          "velocity": 0.6299212598425197
        },
        {
          "duration": 0.1319442333333285,
          "durationTicks": 38,
          "midi": 65,
          "name": "F4",
          "ticks": 31760,
          "time": 110.27760133333334,
          "velocity": 0.6692913385826772
        },
        {
          "duration": 0.14930531666665559,
          "durationTicks": 43,
          "midi": 69,
          "name": "A4",
          "ticks": 31760,
          "time": 110.27760133333334,
          "velocity": 0.8031496062992126
        },
        {
          "duration": 0.08333319999999844,
          "durationTicks": 24,
          "midi": 60,
          "name": "C4",
          "ticks": 31800,
          "time": 110.41649,
          "velocity": 0.84251968503937
        },
        {
          "duration": 0.10069428333333974,
          "durationTicks": 29,
          "midi": 53,
          "name": "F3",
          "ticks": 31800,
          "time": 110.41649,
          "velocity": 0.8031496062992126
        },
        {
          "duration": 0.11805536666668104,
          "durationTicks": 34,
          "midi": 65,
          "name": "F4",
          "ticks": 31840,
          "time": 110.55537866666666,
          "velocity": 0.5669291338582677
        },
        {
          "duration": 0.13888866666668775,
          "durationTicks": 40,
          "midi": 69,
          "name": "A4",
          "ticks": 31840,
          "time": 110.55537866666666,
          "velocity": 0.6692913385826772
        },
        {
          "duration": 0.09027763333331507,
          "durationTicks": 26,
          "midi": 60,
          "name": "C4",
          "ticks": 31880,
          "time": 110.69426733333334,
          "velocity": 0.84251968503937
        },
        {
          "duration": 0.0972220666666459,
          "durationTicks": 28,
          "midi": 53,
          "name": "F3",
          "ticks": 31880,
          "time": 110.69426733333334,
          "velocity": 0.7716535433070866
        },
        {
          "duration": 0.12152758333334646,
          "durationTicks": 35,
          "midi": 65,
          "name": "F4",
          "ticks": 31920,
          "time": 110.83315599999999,
          "velocity": 0.7007874015748031
        },
        {
          "duration": 0.1319442333333427,
          "durationTicks": 38,
          "midi": 69,
          "name": "A4",
          "ticks": 31920,
          "time": 110.83315599999999,
          "velocity": 0.7322834645669292
        },
        {
          "duration": 0.0763887666666676,
          "durationTicks": 22,
          "midi": 60,
          "name": "C4",
          "ticks": 31960,
          "time": 110.97204466666665,
          "velocity": 0.7322834645669292
        },
        {
          "duration": 0.0902776333333577,
          "durationTicks": 26,
          "midi": 53,
          "name": "F3",
          "ticks": 31960,
          "time": 110.97204466666665,
          "velocity": 0.7322834645669292
        },
        {
          "duration": 0.1145831499999872,
          "durationTicks": 33,
          "midi": 65,
          "name": "F4",
          "ticks": 32000,
          "time": 111.11093333333334,
          "velocity": 0.7007874015748031
        },
        {
          "duration": 0.13888866666665933,
          "durationTicks": 40,
          "midi": 69,
          "name": "A4",
          "ticks": 32000,
          "time": 111.11093333333334,
          "velocity": 0.7716535433070866
        },
        {
          "duration": 0.08680541666666386,
          "durationTicks": 25,
          "midi": 60,
          "name": "C4",
          "ticks": 32040,
          "time": 111.249822,
          "velocity": 0.889763779527559
        },
        {
          "duration": 0.0937498500000089,
          "durationTicks": 27,
          "midi": 53,
          "name": "F3",
          "ticks": 32040,
          "time": 111.249822,
          "velocity": 0.7716535433070866
        },
        {
          "duration": 0.10416650000000516,
          "durationTicks": 30,
          "midi": 65,
          "name": "F4",
          "ticks": 32080,
          "time": 111.38871066666665,
          "velocity": 0.6692913385826772
        },
        {
          "duration": 0.09027763333334349,
          "durationTicks": 26,
          "midi": 69,
          "name": "A4",
          "ticks": 32080,
          "time": 111.38871066666665,
          "velocity": 0.7322834645669292
        },
        {
          "duration": 0.0763887666666676,
          "durationTicks": 22,
          "midi": 60,
          "name": "C4",
          "ticks": 32120,
          "time": 111.52759933333334,
          "velocity": 0.84251968503937
        },
        {
          "duration": 0.07986098333333302,
          "durationTicks": 23,
          "midi": 53,
          "name": "F3",
          "ticks": 32120,
          "time": 111.52759933333334,
          "velocity": 0.8031496062992126
        },
        {
          "duration": 0.18402748333332397,
          "durationTicks": 53,
          "midi": 60,
          "name": "C4",
          "ticks": 32160,
          "time": 111.666488,
          "velocity": 0.7007874015748031
        },
        {
          "duration": 0.1909719166666548,
          "durationTicks": 55,
          "midi": 64,
          "name": "E4",
          "ticks": 32160,
          "time": 111.666488,
          "velocity": 0.84251968503937
        },
        {
          "duration": 0.13888866666665933,
          "durationTicks": 40,
          "midi": 60,
          "name": "C4",
          "ticks": 32240,
          "time": 111.94426533333333,
          "velocity": 0.7322834645669292
        },
        {
          "duration": 0.14583309999999017,
          "durationTicks": 42,
          "midi": 64,
          "name": "E4",
          "ticks": 32240,
          "time": 111.94426533333333,
          "velocity": 0.7716535433070866
        },
        {
          "duration": 0.07986098333333302,
          "durationTicks": 23,
          "midi": 55,
          "name": "G3",
          "ticks": 32280,
          "time": 112.083154,
          "velocity": 0.7322834645669292
        },
        {
          "duration": 0.09027763333334349,
          "durationTicks": 26,
          "midi": 60,
          "name": "C4",
          "ticks": 32320,
          "time": 112.22204266666665,
          "velocity": 0.5669291338582677
        },
        {
          "duration": 0.08680541666667807,
          "durationTicks": 25,
          "midi": 64,
          "name": "E4",
          "ticks": 32320,
          "time": 112.22204266666665,
          "velocity": 0.6692913385826772
        },
        {
          "duration": 0.08333319999998423,
          "durationTicks": 24,
          "midi": 55,
          "name": "G3",
          "ticks": 32360,
          "time": 112.36093133333334,
          "velocity": 0.7322834645669292
        },
        {
          "duration": 0.09027763333331507,
          "durationTicks": 26,
          "midi": 48,
          "name": "C3",
          "ticks": 32360,
          "time": 112.36093133333334,
          "velocity": 0.7716535433070866
        },
        {
          "duration": 0.13888866666665933,
          "durationTicks": 40,
          "midi": 60,
          "name": "C4",
          "ticks": 32400,
          "time": 112.49982,
          "velocity": 0.7322834645669292
        },
        {
          "duration": 0.14583310000000438,
          "durationTicks": 42,
          "midi": 64,
          "name": "E4",
          "ticks": 32400,
          "time": 112.49982,
          "velocity": 0.8031496062992126
        },
        {
          "duration": 0.1284720166666773,
          "durationTicks": 37,
          "midi": 60,
          "name": "C4",
          "ticks": 32480,
          "time": 112.77759733333333,
          "velocity": 0.7007874015748031
        },
        {
          "duration": 0.13541644999999392,
          "durationTicks": 39,
          "midi": 64,
          "name": "E4",
          "ticks": 32480,
          "time": 112.77759733333333,
          "velocity": 0.84251968503937
        },
        {
          "duration": 0.07291655000000219,
          "durationTicks": 21,
          "midi": 48,
          "name": "C3",
          "ticks": 32520,
          "time": 112.91648599999999,
          "velocity": 0.8031496062992126
        },
        {
          "duration": 0.07291655000000219,
          "durationTicks": 21,
          "midi": 55,
          "name": "G3",
          "ticks": 32520,
          "time": 112.91648599999999,
          "velocity": 0.8031496062992126
        },
        {
          "duration": 0.10416650000000516,
          "durationTicks": 30,
          "midi": 60,
          "name": "C4",
          "ticks": 32560,
          "time": 113.05537466666665,
          "velocity": 0.5669291338582677
        },
        {
          "duration": 0.1111109333333502,
          "durationTicks": 32,
          "midi": 64,
          "name": "E4",
          "ticks": 32560,
          "time": 113.05537466666665,
          "velocity": 0.7007874015748031
        },
        {
          "duration": 0.09027763333331507,
          "durationTicks": 26,
          "midi": 55,
          "name": "G3",
          "ticks": 32600,
          "time": 113.19426333333334,
          "velocity": 0.84251968503937
        },
        {
          "duration": 0.0763887666666676,
          "durationTicks": 22,
          "midi": 48,
          "name": "C3",
          "ticks": 32600,
          "time": 113.19426333333334,
          "velocity": 0.8031496062992126
        },
        {
          "duration": 0.12847201666666308,
          "durationTicks": 37,
          "midi": 60,
          "name": "C4",
          "ticks": 32640,
          "time": 113.333152,
          "velocity": 0.5354330708661418
        },
        {
          "duration": 0.1319442333333285,
          "durationTicks": 38,
          "midi": 67,
          "name": "G4",
          "ticks": 32640,
          "time": 113.333152,
          "velocity": 0.6692913385826772
        },
        {
          "duration": 0.13541644999999392,
          "durationTicks": 39,
          "midi": 64,
          "name": "E4",
          "ticks": 32640,
          "time": 113.333152,
          "velocity": 0.7007874015748031
        },
        {
          "duration": 0.0763887666666676,
          "durationTicks": 22,
          "midi": 55,
          "name": "G3",
          "ticks": 32680,
          "time": 113.47204066666666,
          "velocity": 0.7007874015748031
        },
        {
          "duration": 0.06597211666667135,
          "durationTicks": 19,
          "midi": 48,
          "name": "C3",
          "ticks": 32680,
          "time": 113.47204066666666,
          "velocity": 0.7007874015748031
        },
        {
          "duration": 0.15624975000000063,
          "durationTicks": 45,
          "midi": 60,
          "name": "C4",
          "ticks": 32720,
          "time": 113.61092933333333,
          "velocity": 0.7007874015748031
        },
        {
          "duration": 0.15972196666666605,
          "durationTicks": 46,
          "midi": 67,
          "name": "G4",
          "ticks": 32720,
          "time": 113.61092933333333,
          "velocity": 0.7007874015748031
        },
        {
          "duration": 0.15972196666666605,
          "durationTicks": 46,
          "midi": 64,
          "name": "E4",
          "ticks": 32720,
          "time": 113.61092933333333,
          "velocity": 0.7322834645669292
        },
        {
          "duration": 0.07291655000000219,
          "durationTicks": 21,
          "midi": 55,
          "name": "G3",
          "ticks": 32760,
          "time": 113.74981799999999,
          "velocity": 0.84251968503937
        },
        {
          "duration": 0.06944433333335098,
          "durationTicks": 20,
          "midi": 48,
          "name": "C3",
          "ticks": 32760,
          "time": 113.74981799999999,
          "velocity": 0.7716535433070866
        },
        {
          "duration": 0.0937498500000089,
          "durationTicks": 27,
          "midi": 60,
          "name": "C4",
          "ticks": 32800,
          "time": 113.88870666666665,
          "velocity": 0.5669291338582677
        },
        {
          "duration": 0.09722206666667432,
          "durationTicks": 28,
          "midi": 67,
          "name": "G4",
          "ticks": 32800,
          "time": 113.88870666666665,
          "velocity": 0.5984251968503937
        },
        {
          "duration": 0.09722206666667432,
          "durationTicks": 28,
          "midi": 64,
          "name": "E4",
          "ticks": 32800,
          "time": 113.88870666666665,
          "velocity": 0.7007874015748031
        },
        {
          "duration": 0.08333319999999844,
          "durationTicks": 24,
          "midi": 55,
          "name": "G3",
          "ticks": 32840,
          "time": 114.02759533333334,
          "velocity": 0.7716535433070866
        },
        {
          "duration": 0.09027763333331507,
          "durationTicks": 26,
          "midi": 48,
          "name": "C3",
          "ticks": 32840,
          "time": 114.02759533333334,
          "velocity": 0.7322834645669292
        },
        {
          "duration": 0.12499979999999766,
          "durationTicks": 36,
          "midi": 60,
          "name": "C4",
          "ticks": 32880,
          "time": 114.166484,
          "velocity": 0.6692913385826772
        },
        {
          "duration": 0.13541644999999392,
          "durationTicks": 39,
          "midi": 67,
          "name": "G4",
          "ticks": 32880,
          "time": 114.166484,
          "velocity": 0.7322834645669292
        },
        {
          "duration": 0.1319442333333285,
          "durationTicks": 38,
          "midi": 64,
          "name": "E4",
          "ticks": 32880,
          "time": 114.166484,
          "velocity": 0.7322834645669292
        },
        {
          "duration": 0.06249990000000594,
          "durationTicks": 18,
          "midi": 48,
          "name": "C3",
          "ticks": 32920,
          "time": 114.30537266666666,
          "velocity": 0.7716535433070866
        },
        {
          "duration": 0.06597211666667135,
          "durationTicks": 19,
          "midi": 55,
          "name": "G3",
          "ticks": 32920,
          "time": 114.30537266666666,
          "velocity": 0.7716535433070866
        },
        {
          "duration": 0.12499979999998345,
          "durationTicks": 36,
          "midi": 67,
          "name": "G4",
          "ticks": 32960,
          "time": 114.44426133333333,
          "velocity": 0.7716535433070866
        },
        {
          "duration": 0.11458315000000141,
          "durationTicks": 33,
          "midi": 60,
          "name": "C4",
          "ticks": 32960,
          "time": 114.44426133333333,
          "velocity": 0.6692913385826772
        },
        {
          "duration": 0.1284720166666773,
          "durationTicks": 37,
          "midi": 64,
          "name": "E4",
          "ticks": 32960,
          "time": 114.44426133333333,
          "velocity": 0.8031496062992126
        },
        {
          "duration": 0.0729165500000164,
          "durationTicks": 21,
          "midi": 48,
          "name": "C3",
          "ticks": 33000,
          "time": 114.58314999999999,
          "velocity": 0.8031496062992126
        },
        {
          "duration": 0.09027763333332928,
          "durationTicks": 26,
          "midi": 55,
          "name": "G3",
          "ticks": 33000,
          "time": 114.58314999999999,
          "velocity": 0.84251968503937
        },
        {
          "duration": 0.0937498500000089,
          "durationTicks": 27,
          "midi": 60,
          "name": "C4",
          "ticks": 33040,
          "time": 114.72203866666665,
          "velocity": 0.5984251968503937
        },
        {
          "duration": 0.11458315000001562,
          "durationTicks": 33,
          "midi": 67,
          "name": "G4",
          "ticks": 33040,
          "time": 114.72203866666665,
          "velocity": 0.7007874015748031
        },
        {
          "duration": 0.12152758333334646,
          "durationTicks": 35,
          "midi": 64,
          "name": "E4",
          "ticks": 33040,
          "time": 114.72203866666665,
          "velocity": 0.7322834645669292
        },
        {
          "duration": 0.08333319999999844,
          "durationTicks": 24,
          "midi": 55,
          "name": "G3",
          "ticks": 33080,
          "time": 114.86092733333334,
          "velocity": 0.84251968503937
        },
        {
          "duration": 0.07986098333333302,
          "durationTicks": 23,
          "midi": 48,
          "name": "C3",
          "ticks": 33080,
          "time": 114.86092733333334,
          "velocity": 0.8031496062992126
        },
        {
          "duration": 0.15624975000000063,
          "durationTicks": 45,
          "midi": 69,
          "name": "A4",
          "ticks": 33120,
          "time": 114.999816,
          "velocity": 0.7322834645669292
        },
        {
          "duration": 0.1527775333333352,
          "durationTicks": 44,
          "midi": 62,
          "name": "D4",
          "ticks": 33120,
          "time": 114.999816,
          "velocity": 0.7716535433070866
        },
        {
          "duration": 0.1701386166666765,
          "durationTicks": 49,
          "midi": 65,
          "name": "F4",
          "ticks": 33120,
          "time": 114.999816,
          "velocity": 0.84251968503937
        },
        {
          "duration": 0.15624974999998642,
          "durationTicks": 45,
          "midi": 69,
          "name": "A4",
          "ticks": 33200,
          "time": 115.27759333333334,
          "velocity": 0.8031496062992126
        },
        {
          "duration": 0.14930531666664137,
          "durationTicks": 43,
          "midi": 62,
          "name": "D4",
          "ticks": 33200,
          "time": 115.27759333333334,
          "velocity": 0.7322834645669292
        },
        {
          "duration": 0.14930531666664137,
          "durationTicks": 43,
          "midi": 65,
          "name": "F4",
          "ticks": 33200,
          "time": 115.27759333333334,
          "velocity": 0.84251968503937
        },
        {
          "duration": 0.05902768333334052,
          "durationTicks": 17,
          "midi": 57,
          "name": "A3",
          "ticks": 33240,
          "time": 115.41648199999999,
          "velocity": 0.7322834645669292
        },
        {
          "duration": 0.06944433333335098,
          "durationTicks": 20,
          "midi": 50,
          "name": "D3",
          "ticks": 33240,
          "time": 115.41648199999999,
          "velocity": 0.7716535433070866
        },
        {
          "duration": 0.08680541666669228,
          "durationTicks": 25,
          "midi": 62,
          "name": "D4",
          "ticks": 33280,
          "time": 115.55537066666665,
          "velocity": 0.5984251968503937
        },
        {
          "duration": 0.07986098333333302,
          "durationTicks": 23,
          "midi": 65,
          "name": "F4",
          "ticks": 33280,
          "time": 115.55537066666665,
          "velocity": 0.7007874015748031
        },
        {
          "duration": 0.09722206666667432,
          "durationTicks": 28,
          "midi": 69,
          "name": "A4",
          "ticks": 33280,
          "time": 115.55537066666665,
          "velocity": 0.7007874015748031
        },
        {
          "duration": 0.08333319999999844,
          "durationTicks": 24,
          "midi": 50,
          "name": "D3",
          "ticks": 33320,
          "time": 115.69425933333333,
          "velocity": 0.7322834645669292
        },
        {
          "duration": 0.08680541666666386,
          "durationTicks": 25,
          "midi": 57,
          "name": "A3",
          "ticks": 33320,
          "time": 115.69425933333333,
          "velocity": 0.7322834645669292
        },
        {
          "duration": 0.1527775333333352,
          "durationTicks": 44,
          "midi": 69,
          "name": "A4",
          "ticks": 33360,
          "time": 115.833148,
          "velocity": 0.7322834645669292
        },
        {
          "duration": 0.1527775333333352,
          "durationTicks": 44,
          "midi": 62,
          "name": "D4",
          "ticks": 33360,
          "time": 115.833148,
          "velocity": 0.7322834645669292
        },
        {
          "duration": 0.16666639999999688,
          "durationTicks": 48,
          "midi": 65,
          "name": "F4",
          "ticks": 33360,
          "time": 115.833148,
          "velocity": 0.8031496062992126
        },
        {
          "duration": 0.14236088333331054,
          "durationTicks": 41,
          "midi": 69,
          "name": "A4",
          "ticks": 33440,
          "time": 116.11092533333334,
          "velocity": 0.8031496062992126
        },
        {
          "duration": 0.12847201666666308,
          "durationTicks": 37,
          "midi": 62,
          "name": "D4",
          "ticks": 33440,
          "time": 116.11092533333334,
          "velocity": 0.7716535433070866
        },
        {
          "duration": 0.13541644999999392,
          "durationTicks": 39,
          "midi": 65,
          "name": "F4",
          "ticks": 33440,
          "time": 116.11092533333334,
          "velocity": 0.84251968503937
        },
        {
          "duration": 0.06597211666667135,
          "durationTicks": 19,
          "midi": 57,
          "name": "A3",
          "ticks": 33480,
          "time": 116.249814,
          "velocity": 0.7716535433070866
        },
        {
          "duration": 0.062499899999977515,
          "durationTicks": 18,
          "midi": 50,
          "name": "D3",
          "ticks": 33480,
          "time": 116.249814,
          "velocity": 0.7716535433070866
        },
        {
          "duration": 0.08333320000001265,
          "durationTicks": 24,
          "midi": 62,
          "name": "D4",
          "ticks": 33520,
          "time": 116.38870266666666,
          "velocity": 0.6692913385826772
        },
        {
          "duration": 0.08333320000001265,
          "durationTicks": 24,
          "midi": 65,
          "name": "F4",
          "ticks": 33520,
          "time": 116.38870266666666,
          "velocity": 0.7007874015748031
        },
        {
          "duration": 0.09722206666666011,
          "durationTicks": 28,
          "midi": 69,
          "name": "A4",
          "ticks": 33520,
          "time": 116.38870266666666,
          "velocity": 0.6692913385826772
        },
        {
          "duration": 0.08680541666666386,
          "durationTicks": 25,
          "midi": 57,
          "name": "A3",
          "ticks": 33560,
          "time": 116.52759133333333,
          "velocity": 0.84251968503937
        },
        {
          "duration": 0.07291654999998798,
          "durationTicks": 21,
          "midi": 50,
          "name": "D3",
          "ticks": 33560,
          "time": 116.52759133333333,
          "velocity": 0.8031496062992126
        },
        {
          "duration": 0.12499980000001187,
          "durationTicks": 36,
          "midi": 62,
          "name": "D4",
          "ticks": 33600,
          "time": 116.66647999999999,
          "velocity": 0.7322834645669292
        },
        {
          "duration": 0.12847201666666308,
          "durationTicks": 37,
          "midi": 65,
          "name": "F4",
          "ticks": 33600,
          "time": 116.66647999999999,
          "velocity": 0.8031496062992126
        },
        {
          "duration": 0.1319442333333285,
          "durationTicks": 38,
          "midi": 69,
          "name": "A4",
          "ticks": 33600,
          "time": 116.66647999999999,
          "velocity": 0.8031496062992126
        },
        {
          "duration": 0.07291655000000219,
          "durationTicks": 21,
          "midi": 57,
          "name": "A3",
          "ticks": 33640,
          "time": 116.80536866666665,
          "velocity": 0.8031496062992126
        },
        {
          "duration": 0.05902768333335473,
          "durationTicks": 17,
          "midi": 50,
          "name": "D3",
          "ticks": 33640,
          "time": 116.80536866666665,
          "velocity": 0.8031496062992126
        },
        {
          "duration": 0.12499979999998345,
          "durationTicks": 36,
          "midi": 69,
          "name": "A4",
          "ticks": 33680,
          "time": 116.94425733333334,
          "velocity": 0.8031496062992126
        },
        {
          "duration": 0.12847201666666308,
          "durationTicks": 37,
          "midi": 65,
          "name": "F4",
          "ticks": 33680,
          "time": 116.94425733333334,
          "velocity": 0.84251968503937
        },
        {
          "duration": 0.11805536666665262,
          "durationTicks": 34,
          "midi": 62,
          "name": "D4",
          "ticks": 33680,
          "time": 116.94425733333334,
          "velocity": 0.7716535433070866
        },
        {
          "duration": 0.08680541666664965,
          "durationTicks": 25,
          "midi": 50,
          "name": "D3",
          "ticks": 33720,
          "time": 117.083146,
          "velocity": 0.84251968503937
        },
        {
          "duration": 0.0937498500000089,
          "durationTicks": 27,
          "midi": 57,
          "name": "A3",
          "ticks": 33720,
          "time": 117.083146,
          "velocity": 0.84251968503937
        },
        {
          "duration": 0.0763887666666676,
          "durationTicks": 22,
          "midi": 62,
          "name": "D4",
          "ticks": 33760,
          "time": 117.22203466666666,
          "velocity": 0.7716535433070866
        },
        {
          "duration": 0.0763887666666676,
          "durationTicks": 22,
          "midi": 65,
          "name": "F4",
          "ticks": 33760,
          "time": 117.22203466666666,
          "velocity": 0.84251968503937
        },
        {
          "duration": 0.07986098333333302,
          "durationTicks": 23,
          "midi": 69,
          "name": "A4",
          "ticks": 33760,
          "time": 117.22203466666666,
          "velocity": 0.84251968503937
        },
        {
          "duration": 0.07291654999998798,
          "durationTicks": 21,
          "midi": 57,
          "name": "A3",
          "ticks": 33800,
          "time": 117.36092333333333,
          "velocity": 0.84251968503937
        },
        {
          "duration": 0.07986098333333302,
          "durationTicks": 23,
          "midi": 50,
          "name": "D3",
          "ticks": 33800,
          "time": 117.36092333333333,
          "velocity": 0.8031496062992126
        },
        {
          "duration": 0.32638836666667714,
          "durationTicks": 94,
          "midi": 58,
          "name": "A#3",
          "ticks": 33840,
          "time": 117.49981199999999,
          "velocity": 0.6692913385826772
        },
        {
          "duration": 0.3194439333333321,
          "durationTicks": 92,
          "midi": 65,
          "name": "F4",
          "ticks": 33840,
          "time": 117.49981199999999,
          "velocity": 0.7007874015748031
        },
        {
          "duration": 0.3229161499999975,
          "durationTicks": 93,
          "midi": 62,
          "name": "D4",
          "ticks": 33840,
          "time": 117.49981199999999,
          "velocity": 0.84251968503937
        },
        {
          "duration": 0.32986058333334256,
          "durationTicks": 95,
          "midi": 58,
          "name": "A#3",
          "ticks": 33960,
          "time": 117.916478,
          "velocity": 0.6692913385826772
        },
        {
          "duration": 0.32638836666667714,
          "durationTicks": 94,
          "midi": 62,
          "name": "D4",
          "ticks": 33960,
          "time": 117.916478,
          "velocity": 0.889763779527559
        },
        {
          "duration": 0.30902728333333584,
          "durationTicks": 89,
          "midi": 65,
          "name": "F4",
          "ticks": 33960,
          "time": 117.916478,
          "velocity": 0.7716535433070866
        },
        {
          "duration": 0.31249950000000126,
          "durationTicks": 90,
          "midi": 58,
          "name": "A#3",
          "ticks": 34080,
          "time": 118.33314399999999,
          "velocity": 0.7007874015748031
        },
        {
          "duration": 0.2847217666666779,
          "durationTicks": 82,
          "midi": 65,
          "name": "F4",
          "ticks": 34080,
          "time": 118.33314399999999,
          "velocity": 0.84251968503937
        },
        {
          "duration": 0.30902728333333584,
          "durationTicks": 89,
          "midi": 62,
          "name": "D4",
          "ticks": 34080,
          "time": 118.33314399999999,
          "velocity": 0.84251968503937
        },
        {
          "duration": 0.3055550666666704,
          "durationTicks": 88,
          "midi": 58,
          "name": "A#3",
          "ticks": 34200,
          "time": 118.74981,
          "velocity": 0.6299212598425197
        },
        {
          "duration": 0.2673606833333224,
          "durationTicks": 77,
          "midi": 65,
          "name": "F4",
          "ticks": 34200,
          "time": 118.74981,
          "velocity": 0.7007874015748031
        },
        {
          "duration": 0.302082850000005,
          "durationTicks": 87,
          "midi": 62,
          "name": "D4",
          "ticks": 34200,
          "time": 118.74981,
          "velocity": 0.8031496062992126
        },
        {
          "duration": 0.08680541666666386,
          "durationTicks": 25,
          "midi": 46,
          "name": "A#2",
          "ticks": 34280,
          "time": 119.02758733333333,
          "velocity": 0.84251968503937
        },
        {
          "duration": 0.15624975000000063,
          "durationTicks": 45,
          "midi": 58,
          "name": "A#3",
          "ticks": 34320,
          "time": 119.16647599999999,
          "velocity": 0.5039370078740157
        },
        {
          "duration": 0.13888866666665933,
          "durationTicks": 40,
          "midi": 65,
          "name": "F4",
          "ticks": 34320,
          "time": 119.16647599999999,
          "velocity": 0.7322834645669292
        },
        {
          "duration": 0.1458331000000186,
          "durationTicks": 42,
          "midi": 62,
          "name": "D4",
          "ticks": 34320,
          "time": 119.16647599999999,
          "velocity": 0.7716535433070866
        },
        {
          "duration": 0.06944433333335098,
          "durationTicks": 20,
          "midi": 46,
          "name": "A#2",
          "ticks": 34360,
          "time": 119.30536466666665,
          "velocity": 0.7322834645669292
        },
        {
          "duration": 0.4479159499999952,
          "durationTicks": 129,
          "midi": 62,
          "name": "D4",
          "ticks": 34400,
          "time": 119.44425333333334,
          "velocity": 0.8031496062992126
        },
        {
          "duration": 0.4652770333333365,
          "durationTicks": 134,
          "midi": 58,
          "name": "A#3",
          "ticks": 34400,
          "time": 119.44425333333334,
          "velocity": 0.6692913385826772
        },
        {
          "duration": 0.42361043333332304,
          "durationTicks": 122,
          "midi": 65,
          "name": "F4",
          "ticks": 34400,
          "time": 119.44425333333334,
          "velocity": 0.7716535433070866
        },
        {
          "duration": 0.10763871666665636,
          "durationTicks": 31,
          "midi": 46,
          "name": "A#2",
          "ticks": 34520,
          "time": 119.86091933333334,
          "velocity": 0.84251968503937
        },
        {
          "duration": 0.15624974999998642,
          "durationTicks": 45,
          "midi": 65,
          "name": "F4",
          "ticks": 34560,
          "time": 119.999808,
          "velocity": 0.7716535433070866
        },
        {
          "duration": 0.17708304999999314,
          "durationTicks": 51,
          "midi": 58,
          "name": "A#3",
          "ticks": 34560,
          "time": 119.999808,
          "velocity": 0.7007874015748031
        },
        {
          "duration": 0.17361083333332772,
          "durationTicks": 50,
          "midi": 62,
          "name": "D4",
          "ticks": 34560,
          "time": 119.999808,
          "velocity": 0.889763779527559
        },
        {
          "duration": 0.3194439333333321,
          "durationTicks": 92,
          "midi": 65,
          "name": "F4",
          "ticks": 34640,
          "time": 120.27758533333333,
          "velocity": 0.8031496062992126
        },
        {
          "duration": 0.34722166666665544,
          "durationTicks": 100,
          "midi": 58,
          "name": "A#3",
          "ticks": 34640,
          "time": 120.27758533333333,
          "velocity": 0.7322834645669292
        },
        {
          "duration": 0.3368050166666734,
          "durationTicks": 97,
          "midi": 62,
          "name": "D4",
          "ticks": 34640,
          "time": 120.27758533333333,
          "velocity": 0.889763779527559
        },
        {
          "duration": 0.0763887666666676,
          "durationTicks": 22,
          "midi": 58,
          "name": "A#3",
          "ticks": 34760,
          "time": 120.69425133333334,
          "velocity": 0.7322834645669292
        },
        {
          "duration": 0.08680541666664965,
          "durationTicks": 25,
          "midi": 65,
          "name": "F4",
          "ticks": 34760,
          "time": 120.69425133333334,
          "velocity": 0.7716535433070866
        },
        {
          "duration": 0.0763887666666676,
          "durationTicks": 22,
          "midi": 62,
          "name": "D4",
          "ticks": 34760,
          "time": 120.69425133333334,
          "velocity": 0.889763779527559
        },
        {
          "duration": 0.06944433333333677,
          "durationTicks": 20,
          "midi": 59,
          "name": "B3",
          "ticks": 34800,
          "time": 120.83314,
          "velocity": 0.7007874015748031
        },
        {
          "duration": 0.0763887666666676,
          "durationTicks": 22,
          "midi": 62,
          "name": "D4",
          "ticks": 34800,
          "time": 120.83314,
          "velocity": 0.7007874015748031
        },
        {
          "duration": 0.06597211666665714,
          "durationTicks": 19,
          "midi": 53,
          "name": "F3",
          "ticks": 34820,
          "time": 120.90258433333334,
          "velocity": 0.4881889763779528
        },
        {
          "duration": 0.06597211666667135,
          "durationTicks": 19,
          "midi": 43,
          "name": "G2",
          "ticks": 34840,
          "time": 120.97202866666666,
          "velocity": 0.47244094488188976
        },
        {
          "duration": 0.08333319999999844,
          "durationTicks": 24,
          "midi": 53,
          "name": "F3",
          "ticks": 34880,
          "time": 121.11091733333333,
          "velocity": 0.4330708661417323
        },
        {
          "duration": 0.0937498499999947,
          "durationTicks": 27,
          "midi": 62,
          "name": "D4",
          "ticks": 34880,
          "time": 121.11091733333333,
          "velocity": 0.7007874015748031
        },
        {
          "duration": 0.0937498499999947,
          "durationTicks": 27,
          "midi": 59,
          "name": "B3",
          "ticks": 34880,
          "time": 121.11091733333333,
          "velocity": 0.7322834645669292
        },
        {
          "duration": 0.10069428333333974,
          "durationTicks": 29,
          "midi": 43,
          "name": "G2",
          "ticks": 34920,
          "time": 121.24980599999999,
          "velocity": 0.84251968503937
        },
        {
          "duration": 0.10069428333333974,
          "durationTicks": 29,
          "midi": 53,
          "name": "F3",
          "ticks": 34960,
          "time": 121.38869466666665,
          "velocity": 0.4409448818897638
        },
        {
          "duration": 0.1111109333333502,
          "durationTicks": 32,
          "midi": 59,
          "name": "B3",
          "ticks": 34960,
          "time": 121.38869466666665,
          "velocity": 0.5354330708661418
        },
        {
          "duration": 0.10416650000000516,
          "durationTicks": 30,
          "midi": 62,
          "name": "D4",
          "ticks": 34960,
          "time": 121.38869466666665,
          "velocity": 0.5669291338582677
        },
        {
          "duration": 0.11111093333332178,
          "durationTicks": 32,
          "midi": 43,
          "name": "G2",
          "ticks": 35000,
          "time": 121.52758333333334,
          "velocity": 0.7322834645669292
        },
        {
          "duration": 0.06944433333333677,
          "durationTicks": 20,
          "midi": 53,
          "name": "F3",
          "ticks": 35040,
          "time": 121.666472,
          "velocity": 0.5669291338582677
        },
        {
          "duration": 0.08333319999998423,
          "durationTicks": 24,
          "midi": 62,
          "name": "D4",
          "ticks": 35040,
          "time": 121.666472,
          "velocity": 0.7007874015748031
        },
        {
          "duration": 0.09027763333331507,
          "durationTicks": 26,
          "midi": 59,
          "name": "B3",
          "ticks": 35040,
          "time": 121.666472,
          "velocity": 0.7322834645669292
        },
        {
          "duration": 0.18402748333333818,
          "durationTicks": 53,
          "midi": 53,
          "name": "F3",
          "ticks": 35120,
          "time": 121.94424933333333,
          "velocity": 0.7322834645669292
        },
        {
          "duration": 0.18402748333333818,
          "durationTicks": 53,
          "midi": 59,
          "name": "B3",
          "ticks": 35120,
          "time": 121.94424933333333,
          "velocity": 0.84251968503937
        },
        {
          "duration": 0.18055526666667276,
          "durationTicks": 52,
          "midi": 62,
          "name": "D4",
          "ticks": 35120,
          "time": 121.94424933333333,
          "velocity": 0.84251968503937
        },
        {
          "duration": 0.08680541666666386,
          "durationTicks": 25,
          "midi": 43,
          "name": "G2",
          "ticks": 35160,
          "time": 122.08313799999999,
          "velocity": 0.8031496062992126
        },
        {
          "duration": 0.0937498500000089,
          "durationTicks": 27,
          "midi": 53,
          "name": "F3",
          "ticks": 35200,
          "time": 122.22202666666665,
          "velocity": 0.5669291338582677
        },
        {
          "duration": 0.36458274999999674,
          "durationTicks": 105,
          "midi": 43,
          "name": "G2",
          "ticks": 35240,
          "time": 122.36091533333334,
          "velocity": 0.8031496062992126
        },
        {
          "duration": 0.12152758333333225,
          "durationTicks": 35,
          "midi": 53,
          "name": "F3",
          "ticks": 35280,
          "time": 122.499804,
          "velocity": 0.5669291338582677
        },
        {
          "duration": 0.13541644999999392,
          "durationTicks": 39,
          "midi": 59,
          "name": "B3",
          "ticks": 35280,
          "time": 122.499804,
          "velocity": 0.7322834645669292
        },
        {
          "duration": 0.12152758333333225,
          "durationTicks": 35,
          "midi": 62,
          "name": "D4",
          "ticks": 35280,
          "time": 122.499804,
          "velocity": 0.7322834645669292
        },
        {
          "duration": 0.15624975000000063,
          "durationTicks": 45,
          "midi": 53,
          "name": "F3",
          "ticks": 35360,
          "time": 122.77758133333333,
          "velocity": 0.7322834645669292
        },
        {
          "duration": 0.16666639999999688,
          "durationTicks": 48,
          "midi": 62,
          "name": "D4",
          "ticks": 35360,
          "time": 122.77758133333333,
          "velocity": 0.8031496062992126
        },
        {
          "duration": 0.17708304999999314,
          "durationTicks": 51,
          "midi": 59,
          "name": "B3",
          "ticks": 35360,
          "time": 122.77758133333333,
          "velocity": 0.84251968503937
        },
        {
          "duration": 0.11111093333333599,
          "durationTicks": 32,
          "midi": 43,
          "name": "G2",
          "ticks": 35400,
          "time": 122.91646999999999,
          "velocity": 0.7716535433070866
        },
        {
          "duration": 0.12152758333334646,
          "durationTicks": 35,
          "midi": 53,
          "name": "F3",
          "ticks": 35440,
          "time": 123.05535866666665,
          "velocity": 0.5669291338582677
        },
        {
          "duration": 0.1874996999999894,
          "durationTicks": 54,
          "midi": 43,
          "name": "G2",
          "ticks": 35480,
          "time": 123.19424733333334,
          "velocity": 0.84251968503937
        },
        {
          "duration": 0.15624975000000063,
          "durationTicks": 45,
          "midi": 53,
          "name": "F3",
          "ticks": 35520,
          "time": 123.333136,
          "velocity": 0.6692913385826772
        },
        {
          "duration": 0.16319418333333147,
          "durationTicks": 47,
          "midi": 59,
          "name": "B3",
          "ticks": 35520,
          "time": 123.333136,
          "velocity": 0.7716535433070866
        },
        {
          "duration": 0.14236088333332475,
          "durationTicks": 41,
          "midi": 62,
          "name": "D4",
          "ticks": 35520,
          "time": 123.333136,
          "velocity": 0.7716535433070866
        },
        {
          "duration": 0.15624975000000063,
          "durationTicks": 45,
          "midi": 53,
          "name": "F3",
          "ticks": 35600,
          "time": 123.61091333333333,
          "velocity": 0.6692913385826772
        },
        {
          "duration": 0.15972196666666605,
          "durationTicks": 46,
          "midi": 62,
          "name": "D4",
          "ticks": 35600,
          "time": 123.61091333333333,
          "velocity": 0.7716535433070866
        },
        {
          "duration": 0.17708304999999314,
          "durationTicks": 51,
          "midi": 59,
          "name": "B3",
          "ticks": 35600,
          "time": 123.61091333333333,
          "velocity": 0.7716535433070866
        },
        {
          "duration": 0.12152758333334646,
          "durationTicks": 35,
          "midi": 43,
          "name": "G2",
          "ticks": 35640,
          "time": 123.74980199999999,
          "velocity": 0.8031496062992126
        },
        {
          "duration": 0.11458315000001562,
          "durationTicks": 33,
          "midi": 53,
          "name": "F3",
          "ticks": 35680,
          "time": 123.88869066666665,
          "velocity": 0.6692913385826772
        },
        {
          "duration": 0.13541645000002234,
          "durationTicks": 39,
          "midi": 62,
          "name": "D4",
          "ticks": 35680,
          "time": 123.88869066666665,
          "velocity": 0.7716535433070866
        },
        {
          "duration": 0.1527775333333352,
          "durationTicks": 44,
          "midi": 59,
          "name": "B3",
          "ticks": 35680,
          "time": 123.88869066666665,
          "velocity": 0.7322834645669292
        },
        {
          "duration": 0.062499899999991726,
          "durationTicks": 18,
          "midi": 43,
          "name": "G2",
          "ticks": 35720,
          "time": 124.02757933333334,
          "velocity": 0.84251968503937
        },
        {
          "duration": 0.2673606833333224,
          "durationTicks": 77,
          "midi": 45,
          "name": "A2",
          "ticks": 35760,
          "time": 124.166468,
          "velocity": 0.84251968503937
        },
        {
          "duration": 0.16319418333331726,
          "durationTicks": 47,
          "midi": 61,
          "name": "C#4",
          "ticks": 35840,
          "time": 124.44424533333334,
          "velocity": 0.7322834645669292
        },
        {
          "duration": 0.14930531666664137,
          "durationTicks": 43,
          "midi": 57,
          "name": "A3",
          "ticks": 35840,
          "time": 124.44424533333334,
          "velocity": 0.6692913385826772
        },
        {
          "duration": 0.14930531666664137,
          "durationTicks": 43,
          "midi": 64,
          "name": "E4",
          "ticks": 35840,
          "time": 124.44424533333334,
          "velocity": 0.7322834645669292
        },
        {
          "duration": 0.08333319999998423,
          "durationTicks": 24,
          "midi": 45,
          "name": "A2",
          "ticks": 35880,
          "time": 124.583134,
          "velocity": 0.8031496062992126
        },
        {
          "duration": 0.11458315000001562,
          "durationTicks": 33,
          "midi": 57,
          "name": "A3",
          "ticks": 35920,
          "time": 124.72202266666665,
          "velocity": 0.5984251968503937
        },
        {
          "duration": 0.40972156666664716,
          "durationTicks": 118,
          "midi": 45,
          "name": "A2",
          "ticks": 35960,
          "time": 124.86091133333333,
          "velocity": 0.84251968503937
        },
        {
          "duration": 0.10763871666667058,
          "durationTicks": 31,
          "midi": 55,
          "name": "G3",
          "ticks": 36000,
          "time": 124.9998,
          "velocity": 0.7322834645669292
        },
        {
          "duration": 0.11805536666668104,
          "durationTicks": 34,
          "midi": 61,
          "name": "C#4",
          "ticks": 36000,
          "time": 124.9998,
          "velocity": 0.7322834645669292
        },
        {
          "duration": 0.11111093333332178,
          "durationTicks": 32,
          "midi": 64,
          "name": "E4",
          "ticks": 36000,
          "time": 124.9998,
          "velocity": 0.7007874015748031
        },
        {
          "duration": 0.13888866666665933,
          "durationTicks": 40,
          "midi": 61,
          "name": "C#4",
          "ticks": 36080,
          "time": 125.27757733333334,
          "velocity": 0.7322834645669292
        },
        {
          "duration": 0.13888866666665933,
          "durationTicks": 40,
          "midi": 64,
          "name": "E4",
          "ticks": 36080,
          "time": 125.27757733333334,
          "velocity": 0.84251968503937
        },
        {
          "duration": 0.14236088333331054,
          "durationTicks": 41,
          "midi": 57,
          "name": "A3",
          "ticks": 36080,
          "time": 125.27757733333334,
          "velocity": 0.7716535433070866
        },
        {
          "duration": 0.10416649999999095,
          "durationTicks": 30,
          "midi": 45,
          "name": "A2",
          "ticks": 36120,
          "time": 125.416466,
          "velocity": 0.84251968503937
        },
        {
          "duration": 0.1111109333333502,
          "durationTicks": 32,
          "midi": 57,
          "name": "A3",
          "ticks": 36160,
          "time": 125.55535466666666,
          "velocity": 0.6299212598425197
        },
        {
          "duration": 0.18402748333333818,
          "durationTicks": 53,
          "midi": 45,
          "name": "A2",
          "ticks": 36200,
          "time": 125.69424333333333,
          "velocity": 0.84251968503937
        },
        {
          "duration": 0.11111093333333599,
          "durationTicks": 32,
          "midi": 64,
          "name": "E4",
          "ticks": 36240,
          "time": 125.83313199999999,
          "velocity": 0.8031496062992126
        },
        {
          "duration": 0.13888866666665933,
          "durationTicks": 40,
          "midi": 61,
          "name": "C#4",
          "ticks": 36240,
          "time": 125.83313199999999,
          "velocity": 0.7716535433070866
        },
        {
          "duration": 0.12152758333334646,
          "durationTicks": 35,
          "midi": 57,
          "name": "A3",
          "ticks": 36240,
          "time": 125.83313199999999,
          "velocity": 0.7007874015748031
        },
        {
          "duration": 0.5277769333333282,
          "durationTicks": 152,
          "midi": 45,
          "name": "A2",
          "ticks": 36240,
          "time": 125.83313199999999,
          "velocity": 0.84251968503937
        },
        {
          "duration": 0.11805536666665262,
          "durationTicks": 34,
          "midi": 64,
          "name": "E4",
          "ticks": 36320,
          "time": 126.11090933333334,
          "velocity": 0.8031496062992126
        },
        {
          "duration": 0.12847201666666308,
          "durationTicks": 37,
          "midi": 57,
          "name": "A3",
          "ticks": 36320,
          "time": 126.11090933333334,
          "velocity": 0.7007874015748031
        },
        {
          "duration": 0.12847201666666308,
          "durationTicks": 37,
          "midi": 61,
          "name": "C#4",
          "ticks": 36320,
          "time": 126.11090933333334,
          "velocity": 0.8031496062992126
        },
        {
          "duration": 0.45833260000000564,
          "durationTicks": 132,
          "midi": 45,
          "name": "A2",
          "ticks": 36360,
          "time": 126.249798,
          "velocity": 0.84251968503937
        },
        {
          "duration": 0.09722206666667432,
          "durationTicks": 28,
          "midi": 57,
          "name": "A3",
          "ticks": 36400,
          "time": 126.38868666666666,
          "velocity": 0.6299212598425197
        },
        {
          "duration": 0.6562489500000055,
          "durationTicks": 189,
          "midi": 45,
          "name": "A2",
          "ticks": 36440,
          "time": 126.52757533333333,
          "velocity": 0.8031496062992126
        },
        {
          "duration": 0.11111093333333599,
          "durationTicks": 32,
          "midi": 64,
          "name": "E4",
          "ticks": 36480,
          "time": 126.66646399999999,
          "velocity": 0.7716535433070866
        },
        {
          "duration": 0.15972196666666605,
          "durationTicks": 46,
          "midi": 61,
          "name": "C#4",
          "ticks": 36480,
          "time": 126.66646399999999,
          "velocity": 0.8031496062992126
        },
        {
          "duration": 0.13541644999999392,
          "durationTicks": 39,
          "midi": 57,
          "name": "A3",
          "ticks": 36480,
          "time": 126.66646399999999,
          "velocity": 0.7322834645669292
        },
        {
          "duration": 0.14236088333332475,
          "durationTicks": 41,
          "midi": 64,
          "name": "E4",
          "ticks": 36560,
          "time": 126.94424133333334,
          "velocity": 0.8031496062992126
        },
        {
          "duration": 0.14930531666664137,
          "durationTicks": 43,
          "midi": 57,
          "name": "A3",
          "ticks": 36560,
          "time": 126.94424133333334,
          "velocity": 0.7322834645669292
        },
        {
          "duration": 0.1527775333333352,
          "durationTicks": 44,
          "midi": 61,
          "name": "C#4",
          "ticks": 36560,
          "time": 126.94424133333334,
          "velocity": 0.8031496062992126
        },
        {
          "duration": 0.04166659999999922,
          "durationTicks": 12,
          "midi": 64,
          "name": "E4",
          "ticks": 36640,
          "time": 127.22201866666666,
          "velocity": 0.5984251968503937
        },
        {
          "duration": 0.12152758333333225,
          "durationTicks": 35,
          "midi": 57,
          "name": "A3",
          "ticks": 36640,
          "time": 127.22201866666666,
          "velocity": 0.7322834645669292
        },
        {
          "duration": 0.08680541666666386,
          "durationTicks": 25,
          "midi": 45,
          "name": "A2",
          "ticks": 36680,
          "time": 127.36090733333333,
          "velocity": 0.889763779527559
        },
        {
          "duration": 0.1527775333333352,
          "durationTicks": 44,
          "midi": 64,
          "name": "E4",
          "ticks": 36720,
          "time": 127.49979599999999,
          "velocity": 0.5984251968503937
        },
        {
          "duration": 0.1527775333333352,
          "durationTicks": 44,
          "midi": 71,
          "name": "B4",
          "ticks": 36720,
          "time": 127.49979599999999,
          "velocity": 0.7007874015748031
        },
        {
          "duration": 0.15624975000000063,
          "durationTicks": 45,
          "midi": 67,
          "name": "G4",
          "ticks": 36720,
          "time": 127.49979599999999,
          "velocity": 0.6692913385826772
        },
        {
          "duration": 0.06944433333335098,
          "durationTicks": 20,
          "midi": 52,
          "name": "E3",
          "ticks": 36760,
          "time": 127.63868466666665,
          "velocity": 0.7007874015748031
        },
        {
          "duration": 0.07291655000000219,
          "durationTicks": 21,
          "midi": 59,
          "name": "B3",
          "ticks": 36760,
          "time": 127.63868466666665,
          "velocity": 0.6692913385826772
        },
        {
          "duration": 0.1145831499999872,
          "durationTicks": 33,
          "midi": 71,
          "name": "B4",
          "ticks": 36800,
          "time": 127.77757333333334,
          "velocity": 0.6299212598425197
        },
        {
          "duration": 0.1145831499999872,
          "durationTicks": 33,
          "midi": 64,
          "name": "E4",
          "ticks": 36800,
          "time": 127.77757333333334,
          "velocity": 0.5669291338582677
        },
        {
          "duration": 0.12152758333331803,
          "durationTicks": 35,
          "midi": 67,
          "name": "G4",
          "ticks": 36800,
          "time": 127.77757333333334,
          "velocity": 0.7007874015748031
        },
        {
          "duration": 0.06944433333333677,
          "durationTicks": 20,
          "midi": 59,
          "name": "B3",
          "ticks": 36840,
          "time": 127.916462,
          "velocity": 0.6692913385826772
        },
        {
          "duration": 0.07291655000000219,
          "durationTicks": 21,
          "midi": 52,
          "name": "E3",
          "ticks": 36840,
          "time": 127.916462,
          "velocity": 0.7007874015748031
        },
        {
          "duration": 0.10763871666668479,
          "durationTicks": 31,
          "midi": 64,
          "name": "E4",
          "ticks": 36880,
          "time": 128.05535066666664,
          "velocity": 0.5039370078740157
        },
        {
          "duration": 0.11458315000001562,
          "durationTicks": 33,
          "midi": 71,
          "name": "B4",
          "ticks": 36880,
          "time": 128.05535066666664,
          "velocity": 0.6299212598425197
        },
        {
          "duration": 0.1284720166666773,
          "durationTicks": 37,
          "midi": 67,
          "name": "G4",
          "ticks": 36880,
          "time": 128.05535066666664,
          "velocity": 0.7007874015748031
        },
        {
          "duration": 0.10416649999999095,
          "durationTicks": 30,
          "midi": 59,
          "name": "B3",
          "ticks": 36920,
          "time": 128.19423933333334,
          "velocity": 0.7007874015748031
        },
        {
          "duration": 0.10416649999999095,
          "durationTicks": 30,
          "midi": 52,
          "name": "E3",
          "ticks": 36920,
          "time": 128.19423933333334,
          "velocity": 0.7322834645669292
        },
        {
          "duration": 0.08680541666666386,
          "durationTicks": 25,
          "midi": 64,
          "name": "E4",
          "ticks": 36960,
          "time": 128.333128,
          "velocity": 0.5984251968503937
        },
        {
          "duration": 0.10069428333335395,
          "durationTicks": 29,
          "midi": 71,
          "name": "B4",
          "ticks": 36960,
          "time": 128.333128,
          "velocity": 0.7322834645669292
        },
        {
          "duration": 0.10069428333335395,
          "durationTicks": 29,
          "midi": 67,
          "name": "G4",
          "ticks": 36960,
          "time": 128.333128,
          "velocity": 0.7007874015748031
        },
        {
          "duration": 0.14236088333331054,
          "durationTicks": 41,
          "midi": 64,
          "name": "E4",
          "ticks": 37040,
          "time": 128.61090533333333,
          "velocity": 0.5984251968503937
        },
        {
          "duration": 0.14583309999997596,
          "durationTicks": 42,
          "midi": 71,
          "name": "B4",
          "ticks": 37040,
          "time": 128.61090533333333,
          "velocity": 0.7322834645669292
        },
        {
          "duration": 0.14930531666664137,
          "durationTicks": 43,
          "midi": 67,
          "name": "G4",
          "ticks": 37040,
          "time": 128.61090533333333,
          "velocity": 0.7322834645669292
        },
        {
          "duration": 0.08680541666666386,
          "durationTicks": 25,
          "midi": 59,
          "name": "B3",
          "ticks": 37080,
          "time": 128.74979399999998,
          "velocity": 0.7007874015748031
        },
        {
          "duration": 0.07638876666669603,
          "durationTicks": 22,
          "midi": 52,
          "name": "E3",
          "ticks": 37080,
          "time": 128.74979399999998,
          "velocity": 0.7007874015748031
        },
        {
          "duration": 0.07986098333333302,
          "durationTicks": 23,
          "midi": 64,
          "name": "E4",
          "ticks": 37120,
          "time": 128.88868266666665,
          "velocity": 0.4645669291338583
        },
        {
          "duration": 0.09722206666666011,
          "durationTicks": 28,
          "midi": 71,
          "name": "B4",
          "ticks": 37120,
          "time": 128.88868266666665,
          "velocity": 0.5984251968503937
        },
        {
          "duration": 0.10416649999999095,
          "durationTicks": 30,
          "midi": 67,
          "name": "G4",
          "ticks": 37120,
          "time": 128.88868266666665,
          "velocity": 0.5984251968503937
        },
        {
          "duration": 0.06249990000000594,
          "durationTicks": 18,
          "midi": 52,
          "name": "E3",
          "ticks": 37160,
          "time": 129.02757133333333,
          "velocity": 0.6692913385826772
        },
        {
          "duration": 0.07986098333333302,
          "durationTicks": 23,
          "midi": 59,
          "name": "B3",
          "ticks": 37160,
          "time": 129.02757133333333,
          "velocity": 0.6692913385826772
        },
        {
          "duration": 0.12152758333334646,
          "durationTicks": 35,
          "midi": 64,
          "name": "E4",
          "ticks": 37200,
          "time": 129.16646,
          "velocity": 0.47244094488188976
        },
        {
          "duration": 0.1354164499999797,
          "durationTicks": 39,
          "midi": 71,
          "name": "B4",
          "ticks": 37200,
          "time": 129.16646,
          "velocity": 0.5984251968503937
        },
        {
          "duration": 0.14583310000000438,
          "durationTicks": 42,
          "midi": 67,
          "name": "G4",
          "ticks": 37200,
          "time": 129.16646,
          "velocity": 0.6299212598425197
        },
        {
          "duration": 0.052083250000009684,
          "durationTicks": 15,
          "midi": 52,
          "name": "E3",
          "ticks": 37240,
          "time": 129.30534866666665,
          "velocity": 0.5984251968503937
        },
        {
          "duration": 0.07291655000000219,
          "durationTicks": 21,
          "midi": 59,
          "name": "B3",
          "ticks": 37240,
          "time": 129.30534866666665,
          "velocity": 0.5984251968503937
        },
        {
          "duration": 0.14930531666664137,
          "durationTicks": 43,
          "midi": 64,
          "name": "E4",
          "ticks": 37280,
          "time": 129.44423733333335,
          "velocity": 0.5984251968503937
        },
        {
          "duration": 0.1527775333333352,
          "durationTicks": 44,
          "midi": 71,
          "name": "B4",
          "ticks": 37280,
          "time": 129.44423733333335,
          "velocity": 0.6299212598425197
        },
        {
          "duration": 0.16319418333330304,
          "durationTicks": 47,
          "midi": 67,
          "name": "G4",
          "ticks": 37280,
          "time": 129.44423733333335,
          "velocity": 0.7007874015748031
        },
        {
          "duration": 0.07291655000000219,
          "durationTicks": 21,
          "midi": 52,
          "name": "E3",
          "ticks": 37320,
          "time": 129.583126,
          "velocity": 0.7007874015748031
        },
        {
          "duration": 0.08680541666666386,
          "durationTicks": 25,
          "midi": 59,
          "name": "B3",
          "ticks": 37320,
          "time": 129.583126,
          "velocity": 0.7322834645669292
        },
        {
          "duration": 0.1111109333333502,
          "durationTicks": 32,
          "midi": 71,
          "name": "B4",
          "ticks": 37360,
          "time": 129.72201466666667,
          "velocity": 0.5984251968503937
        },
        {
          "duration": 0.10763871666665636,
          "durationTicks": 31,
          "midi": 64,
          "name": "E4",
          "ticks": 37360,
          "time": 129.72201466666667,
          "velocity": 0.4881889763779528
        },
        {
          "duration": 0.11805536666665262,
          "durationTicks": 34,
          "midi": 67,
          "name": "G4",
          "ticks": 37360,
          "time": 129.72201466666667,
          "velocity": 0.5984251968503937
        },
        {
          "duration": 0.0937498499999947,
          "durationTicks": 27,
          "midi": 52,
          "name": "E3",
          "ticks": 37400,
          "time": 129.86090333333334,
          "velocity": 0.5984251968503937
        },
        {
          "duration": 0.10069428333332553,
          "durationTicks": 29,
          "midi": 59,
          "name": "B3",
          "ticks": 37400,
          "time": 129.86090333333334,
          "velocity": 0.6692913385826772
        },
        {
          "duration": 0.12499980000001187,
          "durationTicks": 36,
          "midi": 64,
          "name": "E4",
          "ticks": 37440,
          "time": 129.99979199999999,
          "velocity": 0.5669291338582677
        },
        {
          "duration": 0.1319442333333427,
          "durationTicks": 38,
          "midi": 71,
          "name": "B4",
          "ticks": 37440,
          "time": 129.99979199999999,
          "velocity": 0.7007874015748031
        },
        {
          "duration": 0.14236088333333896,
          "durationTicks": 41,
          "midi": 67,
          "name": "G4",
          "ticks": 37440,
          "time": 129.99979199999999,
          "velocity": 0.6692913385826772
        },
        {
          "duration": 0.06249990000000594,
          "durationTicks": 18,
          "midi": 52,
          "name": "E3",
          "ticks": 37480,
          "time": 130.13868066666666,
          "velocity": 0.5669291338582677
        },
        {
          "duration": 0.09027763333332928,
          "durationTicks": 26,
          "midi": 59,
          "name": "B3",
          "ticks": 37480,
          "time": 130.13868066666666,
          "velocity": 0.6299212598425197
        },
        {
          "duration": 0.1284720166666773,
          "durationTicks": 37,
          "midi": 64,
          "name": "E4",
          "ticks": 37520,
          "time": 130.27756933333333,
          "velocity": 0.5984251968503937
        },
        {
          "duration": 0.14583309999997596,
          "durationTicks": 42,
          "midi": 71,
          "name": "B4",
          "ticks": 37520,
          "time": 130.27756933333333,
          "velocity": 0.7007874015748031
        },
        {
          "duration": 0.1527775333333352,
          "durationTicks": 44,
          "midi": 67,
          "name": "G4",
          "ticks": 37520,
          "time": 130.27756933333333,
          "velocity": 0.7007874015748031
        },
        {
          "duration": 0.0937498499999947,
          "durationTicks": 27,
          "midi": 59,
          "name": "B3",
          "ticks": 37560,
          "time": 130.416458,
          "velocity": 0.7007874015748031
        },
        {
          "duration": 0.08333319999997002,
          "durationTicks": 24,
          "midi": 52,
          "name": "E3",
          "ticks": 37560,
          "time": 130.416458,
          "velocity": 0.7007874015748031
        },
        {
          "duration": 0.10416649999999095,
          "durationTicks": 30,
          "midi": 64,
          "name": "E4",
          "ticks": 37600,
          "time": 130.55534666666665,
          "velocity": 0.5669291338582677
        },
        {
          "duration": 0.10763871666665636,
          "durationTicks": 31,
          "midi": 71,
          "name": "B4",
          "ticks": 37600,
          "time": 130.55534666666665,
          "velocity": 0.6299212598425197
        },
        {
          "duration": 0.1284720166666773,
          "durationTicks": 37,
          "midi": 67,
          "name": "G4",
          "ticks": 37600,
          "time": 130.55534666666665,
          "velocity": 0.6692913385826772
        },
        {
          "duration": 0.0937498499999947,
          "durationTicks": 27,
          "midi": 59,
          "name": "B3",
          "ticks": 37640,
          "time": 130.69423533333332,
          "velocity": 0.7007874015748031
        },
        {
          "duration": 0.06597211666667135,
          "durationTicks": 19,
          "midi": 52,
          "name": "E3",
          "ticks": 37640,
          "time": 130.69423533333332,
          "velocity": 0.5669291338582677
        },
        {
          "duration": 0.16666639999999688,
          "durationTicks": 48,
          "midi": 69,
          "name": "A4",
          "ticks": 37680,
          "time": 130.833124,
          "velocity": 0.6692913385826772
        },
        {
          "duration": 0.15972196666666605,
          "durationTicks": 46,
          "midi": 62,
          "name": "D4",
          "ticks": 37680,
          "time": 130.833124,
          "velocity": 0.7007874015748031
        },
        {
          "duration": 0.15972196666666605,
          "durationTicks": 46,
          "midi": 66,
          "name": "F#4",
          "ticks": 37680,
          "time": 130.833124,
          "velocity": 0.6692913385826772
        },
        {
          "duration": 0.14930531666664137,
          "durationTicks": 43,
          "midi": 62,
          "name": "D4",
          "ticks": 37760,
          "time": 131.11090133333335,
          "velocity": 0.5984251968503937
        },
        {
          "duration": 0.1319442333333143,
          "durationTicks": 38,
          "midi": 66,
          "name": "F#4",
          "ticks": 37760,
          "time": 131.11090133333335,
          "velocity": 0.7007874015748031
        },
        {
          "duration": 0.15624975000000063,
          "durationTicks": 45,
          "midi": 69,
          "name": "A4",
          "ticks": 37760,
          "time": 131.11090133333335,
          "velocity": 0.6692913385826772
        },
        {
          "duration": 0.07986098333333302,
          "durationTicks": 23,
          "midi": 59,
          "name": "B3",
          "ticks": 37800,
          "time": 131.24979,
          "velocity": 0.7322834645669292
        },
        {
          "duration": 0.0763887666666676,
          "durationTicks": 22,
          "midi": 66,
          "name": "F#4",
          "ticks": 37840,
          "time": 131.38867866666666,
          "velocity": 0.5669291338582677
        },
        {
          "duration": 0.09722206666666011,
          "durationTicks": 28,
          "midi": 69,
          "name": "A4",
          "ticks": 37840,
          "time": 131.38867866666666,
          "velocity": 0.5984251968503937
        },
        {
          "duration": 0.09722206666666011,
          "durationTicks": 28,
          "midi": 62,
          "name": "D4",
          "ticks": 37840,
          "time": 131.38867866666666,
          "velocity": 0.5984251968503937
        },
        {
          "duration": 0.0937498499999947,
          "durationTicks": 27,
          "midi": 59,
          "name": "B3",
          "ticks": 37880,
          "time": 131.52756733333334,
          "velocity": 0.7716535433070866
        },
        {
          "duration": 0.19444413333332022,
          "durationTicks": 56,
          "midi": 66,
          "name": "F#4",
          "ticks": 37920,
          "time": 131.66645599999998,
          "velocity": 0.7007874015748031
        },
        {
          "duration": 0.1840274833333524,
          "durationTicks": 53,
          "midi": 62,
          "name": "D4",
          "ticks": 37920,
          "time": 131.66645599999998,
          "velocity": 0.6692913385826772
        },
        {
          "duration": 0.19791635000001406,
          "durationTicks": 57,
          "midi": 69,
          "name": "A4",
          "ticks": 37920,
          "time": 131.66645599999998,
          "velocity": 0.7716535433070866
        },
        {
          "duration": 0.14583310000000438,
          "durationTicks": 42,
          "midi": 62,
          "name": "D4",
          "ticks": 38000,
          "time": 131.94423333333333,
          "velocity": 0.7322834645669292
        },
        {
          "duration": 0.14930531666664137,
          "durationTicks": 43,
          "midi": 69,
          "name": "A4",
          "ticks": 38000,
          "time": 131.94423333333333,
          "velocity": 0.7716535433070866
        },
        {
          "duration": 0.13888866666667354,
          "durationTicks": 40,
          "midi": 66,
          "name": "F#4",
          "ticks": 38000,
          "time": 131.94423333333333,
          "velocity": 0.7322834645669292
        },
        {
          "duration": 0.07986098333333302,
          "durationTicks": 23,
          "midi": 59,
          "name": "B3",
          "ticks": 38040,
          "time": 132.083122,
          "velocity": 0.8031496062992126
        },
        {
          "duration": 0.0763887666666676,
          "durationTicks": 22,
          "midi": 69,
          "name": "A4",
          "ticks": 38080,
          "time": 132.22201066666665,
          "velocity": 0.5039370078740157
        },
        {
          "duration": 0.08680541666669228,
          "durationTicks": 25,
          "midi": 62,
          "name": "D4",
          "ticks": 38080,
          "time": 132.22201066666665,
          "velocity": 0.4881889763779528
        },
        {
          "duration": 0.08680541666669228,
          "durationTicks": 25,
          "midi": 66,
          "name": "F#4",
          "ticks": 38080,
          "time": 132.22201066666665,
          "velocity": 0.47244094488188976
        },
        {
          "duration": 0.09027763333332928,
          "durationTicks": 26,
          "midi": 59,
          "name": "B3",
          "ticks": 38120,
          "time": 132.36089933333332,
          "velocity": 0.84251968503937
        },
        {
          "duration": 0.14583310000000438,
          "durationTicks": 42,
          "midi": 62,
          "name": "D4",
          "ticks": 38160,
          "time": 132.499788,
          "velocity": 0.6692913385826772
        },
        {
          "duration": 0.18402748333332397,
          "durationTicks": 53,
          "midi": 66,
          "name": "F#4",
          "ticks": 38160,
          "time": 132.499788,
          "velocity": 0.7007874015748031
        },
        {
          "duration": 0.18055526666665855,
          "durationTicks": 52,
          "midi": 69,
          "name": "A4",
          "ticks": 38160,
          "time": 132.499788,
          "velocity": 0.7322834645669292
        },
        {
          "duration": 0.14236088333331054,
          "durationTicks": 41,
          "midi": 69,
          "name": "A4",
          "ticks": 38240,
          "time": 132.77756533333334,
          "velocity": 0.8031496062992126
        },
        {
          "duration": 0.13888866666664512,
          "durationTicks": 40,
          "midi": 66,
          "name": "F#4",
          "ticks": 38240,
          "time": 132.77756533333334,
          "velocity": 0.7322834645669292
        },
        {
          "duration": 0.1354164499999797,
          "durationTicks": 39,
          "midi": 62,
          "name": "D4",
          "ticks": 38240,
          "time": 132.77756533333334,
          "velocity": 0.7322834645669292
        },
        {
          "duration": 0.10069428333335395,
          "durationTicks": 29,
          "midi": 57,
          "name": "A3",
          "ticks": 38280,
          "time": 132.916454,
          "velocity": 0.889763779527559
        },
        {
          "duration": 0.0763887666666676,
          "durationTicks": 22,
          "midi": 59,
          "name": "B3",
          "ticks": 38280,
          "time": 132.916454,
          "velocity": 0.8031496062992126
        },
        {
          "duration": 0.08680541666666386,
          "durationTicks": 25,
          "midi": 62,
          "name": "D4",
          "ticks": 38320,
          "time": 133.05534266666666,
          "velocity": 0.7007874015748031
        },
        {
          "duration": 0.09027763333332928,
          "durationTicks": 26,
          "midi": 69,
          "name": "A4",
          "ticks": 38320,
          "time": 133.05534266666666,
          "velocity": 0.5984251968503937
        },
        {
          "duration": 0.12499979999998345,
          "durationTicks": 36,
          "midi": 62,
          "name": "D4",
          "ticks": 38320,
          "time": 133.05534266666666,
          "velocity": 0.5669291338582677
        },
        {
          "duration": 0.0937498499999947,
          "durationTicks": 27,
          "midi": 66,
          "name": "F#4",
          "ticks": 38320,
          "time": 133.05534266666666,
          "velocity": 0.5984251968503937
        },
        {
          "duration": 0.10763871666665636,
          "durationTicks": 31,
          "midi": 64,
          "name": "E4",
          "ticks": 38360,
          "time": 133.19423133333333,
          "velocity": 0.7322834645669292
        },
        {
          "duration": 0.08333319999999844,
          "durationTicks": 24,
          "midi": 59,
          "name": "B3",
          "ticks": 38360,
          "time": 133.19423133333333,
          "velocity": 0.84251968503937
        },
        {
          "duration": 0.1354164499999797,
          "durationTicks": 39,
          "midi": 66,
          "name": "F#4",
          "ticks": 38400,
          "time": 133.33312,
          "velocity": 0.84251968503937
        },
        {
          "duration": 0.12499979999998345,
          "durationTicks": 36,
          "midi": 62,
          "name": "D4",
          "ticks": 38400,
          "time": 133.33312,
          "velocity": 0.7007874015748031
        },
        {
          "duration": 0.1319442333333143,
          "durationTicks": 38,
          "midi": 69,
          "name": "A4",
          "ticks": 38400,
          "time": 133.33312,
          "velocity": 0.7716535433070866
        },
        {
          "duration": 0.16666639999996846,
          "durationTicks": 48,
          "midi": 66,
          "name": "F#4",
          "ticks": 38400,
          "time": 133.33312,
          "velocity": 0.7007874015748031
        },
        {
          "duration": 0.14236088333333896,
          "durationTicks": 41,
          "midi": 64,
          "name": "E4",
          "ticks": 38440,
          "time": 133.47200866666665,
          "velocity": 0.7007874015748031
        },
        {
          "duration": 0.08333320000002686,
          "durationTicks": 24,
          "midi": 59,
          "name": "B3",
          "ticks": 38440,
          "time": 133.47200866666665,
          "velocity": 0.6299212598425197
        },
        {
          "duration": 0.1701386166666623,
          "durationTicks": 49,
          "midi": 62,
          "name": "D4",
          "ticks": 38480,
          "time": 133.61089733333333,
          "velocity": 0.84251968503937
        },
        {
          "duration": 0.23958294999999907,
          "durationTicks": 69,
          "midi": 62,
          "name": "D4",
          "ticks": 38480,
          "time": 133.61089733333333,
          "velocity": 0.5984251968503937
        },
        {
          "duration": 0.1701386166666623,
          "durationTicks": 49,
          "midi": 69,
          "name": "A4",
          "ticks": 38480,
          "time": 133.61089733333333,
          "velocity": 0.7007874015748031
        },
        {
          "duration": 0.1840274833333524,
          "durationTicks": 53,
          "midi": 66,
          "name": "F#4",
          "ticks": 38480,
          "time": 133.61089733333333,
          "velocity": 0.7007874015748031
        },
        {
          "duration": 0.1354164499999797,
          "durationTicks": 39,
          "midi": 57,
          "name": "A3",
          "ticks": 38520,
          "time": 133.749786,
          "velocity": 0.7716535433070866
        },
        {
          "duration": 0.08680541666666386,
          "durationTicks": 25,
          "midi": 59,
          "name": "B3",
          "ticks": 38520,
          "time": 133.749786,
          "velocity": 0.7322834645669292
        },
        {
          "duration": 0.13541645000003655,
          "durationTicks": 39,
          "midi": 64,
          "name": "E4",
          "ticks": 38560,
          "time": 133.88867466666665,
          "velocity": 0.7322834645669292
        },
        {
          "duration": 0.12152758333334646,
          "durationTicks": 35,
          "midi": 69,
          "name": "A4",
          "ticks": 38560,
          "time": 133.88867466666665,
          "velocity": 0.7322834645669292
        },
        {
          "duration": 0.09722206666668853,
          "durationTicks": 28,
          "midi": 62,
          "name": "D4",
          "ticks": 38560,
          "time": 133.88867466666665,
          "velocity": 0.7007874015748031
        },
        {
          "duration": 0.1111109333333502,
          "durationTicks": 32,
          "midi": 66,
          "name": "F#4",
          "ticks": 38560,
          "time": 133.88867466666665,
          "velocity": 0.7007874015748031
        },
        {
          "duration": 0.12847201666664887,
          "durationTicks": 37,
          "midi": 62,
          "name": "D4",
          "ticks": 38600,
          "time": 134.02756333333335,
          "velocity": 0.7322834645669292
        },
        {
          "duration": 0.11111093333332178,
          "durationTicks": 32,
          "midi": 59,
          "name": "B3",
          "ticks": 38600,
          "time": 134.02756333333335,
          "velocity": 0.7007874015748031
        },
        {
          "duration": 0.17013861666669072,
          "durationTicks": 49,
          "midi": 67,
          "name": "G4",
          "ticks": 38640,
          "time": 134.166452,
          "velocity": 0.7322834645669292
        },
        {
          "duration": 0.16666639999999688,
          "durationTicks": 48,
          "midi": 71,
          "name": "B4",
          "ticks": 38640,
          "time": 134.166452,
          "velocity": 0.7322834645669292
        },
        {
          "duration": 0.1527775333333352,
          "durationTicks": 44,
          "midi": 64,
          "name": "E4",
          "ticks": 38640,
          "time": 134.166452,
          "velocity": 0.6692913385826772
        },
        {
          "duration": 0.15972196666666605,
          "durationTicks": 46,
          "midi": 64,
          "name": "E4",
          "ticks": 38720,
          "time": 134.44422933333334,
          "velocity": 0.7007874015748031
        },
        {
          "duration": 0.1701386166666623,
          "durationTicks": 49,
          "midi": 71,
          "name": "B4",
          "ticks": 38720,
          "time": 134.44422933333334,
          "velocity": 0.7716535433070866
        },
        {
          "duration": 0.1736108333332993,
          "durationTicks": 50,
          "midi": 67,
          "name": "G4",
          "ticks": 38720,
          "time": 134.44422933333334,
          "velocity": 0.7716535433070866
        },
        {
          "duration": 0.06597211666669978,
          "durationTicks": 19,
          "midi": 52,
          "name": "E3",
          "ticks": 38760,
          "time": 134.58311799999998,
          "velocity": 0.6692913385826772
        },
        {
          "duration": 0.08333319999999844,
          "durationTicks": 24,
          "midi": 59,
          "name": "B3",
          "ticks": 38760,
          "time": 134.58311799999998,
          "velocity": 0.7007874015748031
        },
        {
          "duration": 0.09722206666666011,
          "durationTicks": 28,
          "midi": 64,
          "name": "E4",
          "ticks": 38800,
          "time": 134.72200666666666,
          "velocity": 0.4881889763779528
        },
        {
          "duration": 0.1111109333333502,
          "durationTicks": 32,
          "midi": 71,
          "name": "B4",
          "ticks": 38800,
          "time": 134.72200666666666,
          "velocity": 0.5984251968503937
        },
        {
          "duration": 0.10763871666665636,
          "durationTicks": 31,
          "midi": 67,
          "name": "G4",
          "ticks": 38800,
          "time": 134.72200666666666,
          "velocity": 0.5669291338582677
        },
        {
          "duration": 0.0937498499999947,
          "durationTicks": 27,
          "midi": 59,
          "name": "B3",
          "ticks": 38840,
          "time": 134.86089533333333,
          "velocity": 0.6692913385826772
        },
        {
          "duration": 0.08333319999999844,
          "durationTicks": 24,
          "midi": 52,
          "name": "E3",
          "ticks": 38840,
          "time": 134.86089533333333,
          "velocity": 0.7007874015748031
        },
        {
          "duration": 0.17708304999999314,
          "durationTicks": 51,
          "midi": 64,
          "name": "E4",
          "ticks": 38880,
          "time": 134.999784,
          "velocity": 0.6299212598425197
        },
        {
          "duration": 0.19791634999998564,
          "durationTicks": 57,
          "midi": 71,
          "name": "B4",
          "ticks": 38880,
          "time": 134.999784,
          "velocity": 0.7322834645669292
        },
        {
          "duration": 0.19444413333332022,
          "durationTicks": 56,
          "midi": 67,
          "name": "G4",
          "ticks": 38880,
          "time": 134.999784,
          "velocity": 0.7322834645669292
        },
        {
          "duration": 0.14236088333333896,
          "durationTicks": 41,
          "midi": 64,
          "name": "E4",
          "ticks": 38960,
          "time": 135.27756133333332,
          "velocity": 0.6692913385826772
        },
        {
          "duration": 0.14583310000000438,
          "durationTicks": 42,
          "midi": 71,
          "name": "B4",
          "ticks": 38960,
          "time": 135.27756133333332,
          "velocity": 0.7322834645669292
        },
        {
          "duration": 0.14236088333333896,
          "durationTicks": 41,
          "midi": 67,
          "name": "G4",
          "ticks": 38960,
          "time": 135.27756133333332,
          "velocity": 0.7322834645669292
        },
        {
          "duration": 0.06597211666667135,
          "durationTicks": 19,
          "midi": 52,
          "name": "E3",
          "ticks": 39000,
          "time": 135.41645,
          "velocity": 0.6692913385826772
        },
        {
          "duration": 0.08333319999999844,
          "durationTicks": 24,
          "midi": 59,
          "name": "B3",
          "ticks": 39000,
          "time": 135.41645,
          "velocity": 0.7007874015748031
        },
        {
          "duration": 0.10763871666668479,
          "durationTicks": 31,
          "midi": 71,
          "name": "B4",
          "ticks": 39040,
          "time": 135.55533866666664,
          "velocity": 0.5669291338582677
        },
        {
          "duration": 0.09722206666668853,
          "durationTicks": 28,
          "midi": 64,
          "name": "E4",
          "ticks": 39040,
          "time": 135.55533866666664,
          "velocity": 0.5354330708661418
        },
        {
          "duration": 0.1111109333333502,
          "durationTicks": 32,
          "midi": 67,
          "name": "G4",
          "ticks": 39040,
          "time": 135.55533866666664,
          "velocity": 0.5984251968503937
        },
        {
          "duration": 0.0763887666666676,
          "durationTicks": 22,
          "midi": 52,
          "name": "E3",
          "ticks": 39080,
          "time": 135.69422733333334,
          "velocity": 0.7007874015748031
        },
        {
          "duration": 0.08680541666663544,
          "durationTicks": 25,
          "midi": 59,
          "name": "B3",
          "ticks": 39080,
          "time": 135.69422733333334,
          "velocity": 0.7322834645669292
        },
        {
          "duration": 0.17013861666669072,
          "durationTicks": 49,
          "midi": 64,
          "name": "E4",
          "ticks": 39120,
          "time": 135.833116,
          "velocity": 0.5669291338582677
        },
        {
          "duration": 0.1909719166666548,
          "durationTicks": 55,
          "midi": 67,
          "name": "G4",
          "ticks": 39120,
          "time": 135.833116,
          "velocity": 0.7322834645669292
        },
        {
          "duration": 0.1874996999999894,
          "durationTicks": 54,
          "midi": 71,
          "name": "B4",
          "ticks": 39120,
          "time": 135.833116,
          "velocity": 0.7322834645669292
        },
        {
          "duration": 0.14236088333331054,
          "durationTicks": 41,
          "midi": 64,
          "name": "E4",
          "ticks": 39200,
          "time": 136.11089333333334,
          "velocity": 0.5984251968503937
        },
        {
          "duration": 0.15972196666666605,
          "durationTicks": 46,
          "midi": 71,
          "name": "B4",
          "ticks": 39200,
          "time": 136.11089333333334,
          "velocity": 0.7322834645669292
        },
        {
          "duration": 0.15624975000000063,
          "durationTicks": 45,
          "midi": 67,
          "name": "G4",
          "ticks": 39200,
          "time": 136.11089333333334,
          "velocity": 0.7322834645669292
        },
        {
          "duration": 0.06597211666669978,
          "durationTicks": 19,
          "midi": 52,
          "name": "E3",
          "ticks": 39240,
          "time": 136.24978199999998,
          "velocity": 0.6692913385826772
        },
        {
          "duration": 0.08333319999999844,
          "durationTicks": 24,
          "midi": 59,
          "name": "B3",
          "ticks": 39240,
          "time": 136.24978199999998,
          "velocity": 0.7007874015748031
        },
        {
          "duration": 0.0937498499999947,
          "durationTicks": 27,
          "midi": 64,
          "name": "E4",
          "ticks": 39280,
          "time": 136.38867066666666,
          "velocity": 0.5354330708661418
        },
        {
          "duration": 0.1111109333333502,
          "durationTicks": 32,
          "midi": 71,
          "name": "B4",
          "ticks": 39280,
          "time": 136.38867066666666,
          "velocity": 0.6299212598425197
        },
        {
          "duration": 0.10763871666665636,
          "durationTicks": 31,
          "midi": 67,
          "name": "G4",
          "ticks": 39280,
          "time": 136.38867066666666,
          "velocity": 0.5669291338582677
        },
        {
          "duration": 0.08680541666666386,
          "durationTicks": 25,
          "midi": 59,
          "name": "B3",
          "ticks": 39320,
          "time": 136.52755933333333,
          "velocity": 0.7007874015748031
        },
        {
          "duration": 0.07986098333333302,
          "durationTicks": 23,
          "midi": 52,
          "name": "E3",
          "ticks": 39320,
          "time": 136.52755933333333,
          "velocity": 0.7007874015748031
        },
        {
          "duration": 0.12152758333334646,
          "durationTicks": 35,
          "midi": 64,
          "name": "E4",
          "ticks": 39360,
          "time": 136.666448,
          "velocity": 0.5669291338582677
        },
        {
          "duration": 0.13888866666664512,
          "durationTicks": 40,
          "midi": 71,
          "name": "B4",
          "ticks": 39360,
          "time": 136.666448,
          "velocity": 0.7007874015748031
        },
        {
          "duration": 0.1319442333333143,
          "durationTicks": 38,
          "midi": 67,
          "name": "G4",
          "ticks": 39360,
          "time": 136.666448,
          "velocity": 0.7007874015748031
        },
        {
          "duration": 0.05902768333336894,
          "durationTicks": 17,
          "midi": 52,
          "name": "E3",
          "ticks": 39400,
          "time": 136.80533666666665,
          "velocity": 0.6692913385826772
        },
        {
          "duration": 0.07291655000000219,
          "durationTicks": 21,
          "midi": 59,
          "name": "B3",
          "ticks": 39400,
          "time": 136.80533666666665,
          "velocity": 0.7322834645669292
        },
        {
          "duration": 0.1319442333333427,
          "durationTicks": 38,
          "midi": 64,
          "name": "E4",
          "ticks": 39440,
          "time": 136.94422533333332,
          "velocity": 0.5984251968503937
        },
        {
          "duration": 0.14236088333333896,
          "durationTicks": 41,
          "midi": 67,
          "name": "G4",
          "ticks": 39440,
          "time": 136.94422533333332,
          "velocity": 0.7007874015748031
        },
        {
          "duration": 0.1493053166666698,
          "durationTicks": 43,
          "midi": 71,
          "name": "B4",
          "ticks": 39440,
          "time": 136.94422533333332,
          "velocity": 0.7007874015748031
        },
        {
          "duration": 0.11111093333332178,
          "durationTicks": 32,
          "midi": 59,
          "name": "B3",
          "ticks": 39480,
          "time": 137.083114,
          "velocity": 0.7322834645669292
        },
        {
          "duration": 0.10416649999999095,
          "durationTicks": 30,
          "midi": 52,
          "name": "E3",
          "ticks": 39480,
          "time": 137.083114,
          "velocity": 0.7007874015748031
        },
        {
          "duration": 0.1284720166666773,
          "durationTicks": 37,
          "midi": 64,
          "name": "E4",
          "ticks": 39520,
          "time": 137.22200266666664,
          "velocity": 0.6299212598425197
        },
        {
          "duration": 0.12499980000001187,
          "durationTicks": 36,
          "midi": 71,
          "name": "B4",
          "ticks": 39520,
          "time": 137.22200266666664,
          "velocity": 0.7716535433070866
        },
        {
          "duration": 0.14930531666669822,
          "durationTicks": 43,
          "midi": 67,
          "name": "G4",
          "ticks": 39520,
          "time": 137.22200266666664,
          "velocity": 0.7322834645669292
        },
        {
          "duration": 0.10069428333332553,
          "durationTicks": 29,
          "midi": 59,
          "name": "B3",
          "ticks": 39560,
          "time": 137.36089133333334,
          "velocity": 0.7322834645669292
        },
        {
          "duration": 0.09722206666663169,
          "durationTicks": 28,
          "midi": 52,
          "name": "E3",
          "ticks": 39560,
          "time": 137.36089133333334,
          "velocity": 0.7322834645669292
        },
        {
          "duration": 0.18055526666668698,
          "durationTicks": 52,
          "midi": 69,
          "name": "A4",
          "ticks": 39600,
          "time": 137.49978,
          "velocity": 0.7007874015748031
        },
        {
          "duration": 0.17361083333335614,
          "durationTicks": 50,
          "midi": 62,
          "name": "D4",
          "ticks": 39600,
          "time": 137.49978,
          "velocity": 0.7322834645669292
        },
        {
          "duration": 0.1840274833333524,
          "durationTicks": 53,
          "midi": 66,
          "name": "F#4",
          "ticks": 39600,
          "time": 137.49978,
          "velocity": 0.7322834645669292
        },
        {
          "duration": 0.1909719166666548,
          "durationTicks": 55,
          "midi": 69,
          "name": "A4",
          "ticks": 39680,
          "time": 137.77755733333333,
          "velocity": 0.7716535433070866
        },
        {
          "duration": 0.18402748333332397,
          "durationTicks": 53,
          "midi": 62,
          "name": "D4",
          "ticks": 39680,
          "time": 137.77755733333333,
          "velocity": 0.7322834645669292
        },
        {
          "duration": 0.1874996999999894,
          "durationTicks": 54,
          "midi": 66,
          "name": "F#4",
          "ticks": 39680,
          "time": 137.77755733333333,
          "velocity": 0.7716535433070866
        },
        {
          "duration": 0.0763887666666676,
          "durationTicks": 22,
          "midi": 59,
          "name": "B3",
          "ticks": 39720,
          "time": 137.916446,
          "velocity": 0.7716535433070866
        },
        {
          "duration": 0.08680541666669228,
          "durationTicks": 25,
          "midi": 69,
          "name": "A4",
          "ticks": 39760,
          "time": 138.05533466666665,
          "velocity": 0.4881889763779528
        },
        {
          "duration": 0.09374985000002312,
          "durationTicks": 27,
          "midi": 62,
          "name": "D4",
          "ticks": 39760,
          "time": 138.05533466666665,
          "velocity": 0.5039370078740157
        },
        {
          "duration": 0.11805536666668104,
          "durationTicks": 34,
          "midi": 66,
          "name": "F#4",
          "ticks": 39760,
          "time": 138.05533466666665,
          "velocity": 0.5354330708661418
        },
        {
          "duration": 0.09722206666666011,
          "durationTicks": 28,
          "midi": 59,
          "name": "B3",
          "ticks": 39800,
          "time": 138.19422333333333,
          "velocity": 0.84251968503937
        },
        {
          "duration": 0.18055526666665855,
          "durationTicks": 52,
          "midi": 69,
          "name": "A4",
          "ticks": 39840,
          "time": 138.333112,
          "velocity": 0.7716535433070866
        },
        {
          "duration": 0.20138856666667948,
          "durationTicks": 58,
          "midi": 66,
          "name": "F#4",
          "ticks": 39840,
          "time": 138.333112,
          "velocity": 0.7716535433070866
        },
        {
          "duration": 0.18402748333332397,
          "durationTicks": 53,
          "midi": 62,
          "name": "D4",
          "ticks": 39840,
          "time": 138.333112,
          "velocity": 0.7007874015748031
        },
        {
          "duration": 0.15972196666663763,
          "durationTicks": 46,
          "midi": 62,
          "name": "D4",
          "ticks": 39920,
          "time": 138.61088933333335,
          "velocity": 0.7322834645669292
        },
        {
          "duration": 0.17013861666663388,
          "durationTicks": 49,
          "midi": 69,
          "name": "A4",
          "ticks": 39920,
          "time": 138.61088933333335,
          "velocity": 0.8031496062992126
        },
        {
          "duration": 0.1736108333332993,
          "durationTicks": 50,
          "midi": 66,
          "name": "F#4",
          "ticks": 39920,
          "time": 138.61088933333335,
          "velocity": 0.7322834645669292
        },
        {
          "duration": 0.07986098333333302,
          "durationTicks": 23,
          "midi": 59,
          "name": "B3",
          "ticks": 39960,
          "time": 138.749778,
          "velocity": 0.7322834645669292
        },
        {
          "duration": 0.1145831499999872,
          "durationTicks": 33,
          "midi": 69,
          "name": "A4",
          "ticks": 40000,
          "time": 138.88866666666667,
          "velocity": 0.6692913385826772
        },
        {
          "duration": 0.1145831499999872,
          "durationTicks": 33,
          "midi": 66,
          "name": "F#4",
          "ticks": 40000,
          "time": 138.88866666666667,
          "velocity": 0.5669291338582677
        },
        {
          "duration": 0.1145831499999872,
          "durationTicks": 33,
          "midi": 62,
          "name": "D4",
          "ticks": 40000,
          "time": 138.88866666666667,
          "velocity": 0.6299212598425197
        },
        {
          "duration": 0.09027763333332928,
          "durationTicks": 26,
          "midi": 59,
          "name": "B3",
          "ticks": 40040,
          "time": 139.02755533333334,
          "velocity": 0.8031496062992126
        },
        {
          "duration": 0.17708305000002156,
          "durationTicks": 51,
          "midi": 62,
          "name": "D4",
          "ticks": 40080,
          "time": 139.16644399999998,
          "velocity": 0.6692913385826772
        },
        {
          "duration": 0.1874997000000178,
          "durationTicks": 54,
          "midi": 66,
          "name": "F#4",
          "ticks": 40080,
          "time": 139.16644399999998,
          "velocity": 0.7007874015748031
        },
        {
          "duration": 0.17708305000002156,
          "durationTicks": 51,
          "midi": 69,
          "name": "A4",
          "ticks": 40080,
          "time": 139.16644399999998,
          "velocity": 0.7007874015748031
        },
        {
          "duration": 0.15624975000000063,
          "durationTicks": 45,
          "midi": 69,
          "name": "A4",
          "ticks": 40160,
          "time": 139.44422133333333,
          "velocity": 0.7322834645669292
        },
        {
          "duration": 0.15624975000000063,
          "durationTicks": 45,
          "midi": 62,
          "name": "D4",
          "ticks": 40160,
          "time": 139.44422133333333,
          "velocity": 0.7322834645669292
        },
        {
          "duration": 0.15624975000000063,
          "durationTicks": 45,
          "midi": 66,
          "name": "F#4",
          "ticks": 40160,
          "time": 139.44422133333333,
          "velocity": 0.7007874015748031
        },
        {
          "duration": 0.10069428333332553,
          "durationTicks": 29,
          "midi": 57,
          "name": "A3",
          "ticks": 40200,
          "time": 139.58311,
          "velocity": 0.889763779527559
        },
        {
          "duration": 0.08680541666663544,
          "durationTicks": 25,
          "midi": 59,
          "name": "B3",
          "ticks": 40200,
          "time": 139.58311,
          "velocity": 0.7716535433070866
        },
        {
          "duration": 0.10763871666665636,
          "durationTicks": 31,
          "midi": 62,
          "name": "D4",
          "ticks": 40240,
          "time": 139.72199866666665,
          "velocity": 0.7007874015748031
        },
        {
          "duration": 0.12499980000001187,
          "durationTicks": 36,
          "midi": 62,
          "name": "D4",
          "ticks": 40240,
          "time": 139.72199866666665,
          "velocity": 0.5669291338582677
        },
        {
          "duration": 0.1111109333333502,
          "durationTicks": 32,
          "midi": 69,
          "name": "A4",
          "ticks": 40240,
          "time": 139.72199866666665,
          "velocity": 0.6692913385826772
        },
        {
          "duration": 0.12152758333334646,
          "durationTicks": 35,
          "midi": 66,
          "name": "F#4",
          "ticks": 40240,
          "time": 139.72199866666665,
          "velocity": 0.6692913385826772
        },
        {
          "duration": 0.10763871666668479,
          "durationTicks": 31,
          "midi": 64,
          "name": "E4",
          "ticks": 40280,
          "time": 139.86088733333332,
          "velocity": 0.7322834645669292
        },
        {
          "duration": 0.10069428333335395,
          "durationTicks": 29,
          "midi": 59,
          "name": "B3",
          "ticks": 40280,
          "time": 139.86088733333332,
          "velocity": 0.84251968503937
        },
        {
          "duration": 0.14583310000000438,
          "durationTicks": 42,
          "midi": 66,
          "name": "F#4",
          "ticks": 40320,
          "time": 139.999776,
          "velocity": 0.84251968503937
        },
        {
          "duration": 0.1354164499999797,
          "durationTicks": 39,
          "midi": 62,
          "name": "D4",
          "ticks": 40320,
          "time": 139.999776,
          "velocity": 0.6692913385826772
        },
        {
          "duration": 0.16666639999999688,
          "durationTicks": 48,
          "midi": 66,
          "name": "F#4",
          "ticks": 40320,
          "time": 139.999776,
          "velocity": 0.7007874015748031
        },
        {
          "duration": 0.14583310000000438,
          "durationTicks": 42,
          "midi": 69,
          "name": "A4",
          "ticks": 40320,
          "time": 139.999776,
          "velocity": 0.7322834645669292
        },
        {
          "duration": 0.14236088333336738,
          "durationTicks": 41,
          "midi": 64,
          "name": "E4",
          "ticks": 40360,
          "time": 140.13866466666664,
          "velocity": 0.7007874015748031
        },
        {
          "duration": 0.08333320000002686,
          "durationTicks": 24,
          "midi": 59,
          "name": "B3",
          "ticks": 40360,
          "time": 140.13866466666664,
          "velocity": 0.7322834645669292
        },
        {
          "duration": 0.13888866666664512,
          "durationTicks": 40,
          "midi": 62,
          "name": "D4",
          "ticks": 40400,
          "time": 140.27755333333334,
          "velocity": 0.84251968503937
        },
        {
          "duration": 0.23958294999999907,
          "durationTicks": 69,
          "midi": 62,
          "name": "D4",
          "ticks": 40400,
          "time": 140.27755333333334,
          "velocity": 0.7007874015748031
        },
        {
          "duration": 0.14236088333331054,
          "durationTicks": 41,
          "midi": 69,
          "name": "A4",
          "ticks": 40400,
          "time": 140.27755333333334,
          "velocity": 0.7007874015748031
        },
        {
          "duration": 0.1527775333333352,
          "durationTicks": 44,
          "midi": 66,
          "name": "F#4",
          "ticks": 40400,
          "time": 140.27755333333334,
          "velocity": 0.7007874015748031
        },
        {
          "duration": 0.13541645000000813,
          "durationTicks": 39,
          "midi": 57,
          "name": "A3",
          "ticks": 40440,
          "time": 140.416442,
          "velocity": 0.7716535433070866
        },
        {
          "duration": 0.11805536666668104,
          "durationTicks": 34,
          "midi": 59,
          "name": "B3",
          "ticks": 40440,
          "time": 140.416442,
          "velocity": 0.84251968503937
        },
        {
          "duration": 0.13541645000000813,
          "durationTicks": 39,
          "midi": 64,
          "name": "E4",
          "ticks": 40480,
          "time": 140.55533066666666,
          "velocity": 0.7322834645669292
        },
        {
          "duration": 0.1319442333333143,
          "durationTicks": 38,
          "midi": 69,
          "name": "A4",
          "ticks": 40480,
          "time": 140.55533066666666,
          "velocity": 0.7322834645669292
        },
        {
          "duration": 0.11458315000001562,
          "durationTicks": 33,
          "midi": 62,
          "name": "D4",
          "ticks": 40480,
          "time": 140.55533066666666,
          "velocity": 0.7007874015748031
        },
        {
          "duration": 0.12152758333331803,
          "durationTicks": 35,
          "midi": 66,
          "name": "F#4",
          "ticks": 40480,
          "time": 140.55533066666666,
          "velocity": 0.7007874015748031
        },
        {
          "duration": 0.1284720166666773,
          "durationTicks": 37,
          "midi": 62,
          "name": "D4",
          "ticks": 40520,
          "time": 140.69421933333334,
          "velocity": 0.7322834645669292
        },
        {
          "duration": 0.08680541666666386,
          "durationTicks": 25,
          "midi": 59,
          "name": "B3",
          "ticks": 40520,
          "time": 140.69421933333334,
          "velocity": 0.8031496062992126
        },
        {
          "duration": 0.12499980000001187,
          "durationTicks": 36,
          "midi": 65,
          "name": "F4",
          "ticks": 40560,
          "time": 140.83310799999998,
          "velocity": 0.5984251968503937
        },
        {
          "duration": 0.1284720166666773,
          "durationTicks": 37,
          "midi": 69,
          "name": "A4",
          "ticks": 40560,
          "time": 140.83310799999998,
          "velocity": 0.5669291338582677
        },
        {
          "duration": 0.06249990000000594,
          "durationTicks": 18,
          "midi": 60,
          "name": "C4",
          "ticks": 40600,
          "time": 140.97199666666666,
          "velocity": 0.5039370078740157
        },
        {
          "duration": 0.08680541666669228,
          "durationTicks": 25,
          "midi": 53,
          "name": "F3",
          "ticks": 40600,
          "time": 140.97199666666666,
          "velocity": 0.7322834645669292
        },
        {
          "duration": 0.11111093333332178,
          "durationTicks": 32,
          "midi": 65,
          "name": "F4",
          "ticks": 40640,
          "time": 141.11088533333333,
          "velocity": 0.6299212598425197
        },
        {
          "duration": 0.11111093333332178,
          "durationTicks": 32,
          "midi": 69,
          "name": "A4",
          "ticks": 40640,
          "time": 141.11088533333333,
          "velocity": 0.7322834645669292
        },
        {
          "duration": 0.06944433333333677,
          "durationTicks": 20,
          "midi": 53,
          "name": "F3",
          "ticks": 40680,
          "time": 141.249774,
          "velocity": 0.7322834645669292
        },
        {
          "duration": 0.07986098333333302,
          "durationTicks": 23,
          "midi": 60,
          "name": "C4",
          "ticks": 40680,
          "time": 141.249774,
          "velocity": 0.7322834645669292
        },
        {
          "duration": 0.09722206666668853,
          "durationTicks": 28,
          "midi": 65,
          "name": "F4",
          "ticks": 40720,
          "time": 141.38866266666665,
          "velocity": 0.5354330708661418
        },
        {
          "duration": 0.10763871666665636,
          "durationTicks": 31,
          "midi": 69,
          "name": "A4",
          "ticks": 40720,
          "time": 141.38866266666665,
          "velocity": 0.5984251968503937
        },
        {
          "duration": 0.0937498499999947,
          "durationTicks": 27,
          "midi": 60,
          "name": "C4",
          "ticks": 40760,
          "time": 141.52755133333332,
          "velocity": 0.8031496062992126
        },
        {
          "duration": 0.0937498499999947,
          "durationTicks": 27,
          "midi": 53,
          "name": "F3",
          "ticks": 40760,
          "time": 141.52755133333332,
          "velocity": 0.7716535433070866
        },
        {
          "duration": 0.11805536666668104,
          "durationTicks": 34,
          "midi": 65,
          "name": "F4",
          "ticks": 40800,
          "time": 141.66644,
          "velocity": 0.7322834645669292
        },
        {
          "duration": 0.12499980000001187,
          "durationTicks": 36,
          "midi": 69,
          "name": "A4",
          "ticks": 40800,
          "time": 141.66644,
          "velocity": 0.8031496062992126
        },
        {
          "duration": 0.0555554666666751,
          "durationTicks": 16,
          "midi": 53,
          "name": "F3",
          "ticks": 40840,
          "time": 141.80532866666664,
          "velocity": 0.7007874015748031
        },
        {
          "duration": 0.0763887666666676,
          "durationTicks": 22,
          "midi": 60,
          "name": "C4",
          "ticks": 40840,
          "time": 141.80532866666664,
          "velocity": 0.8031496062992126
        },
        {
          "duration": 0.1319442333333143,
          "durationTicks": 38,
          "midi": 65,
          "name": "F4",
          "ticks": 40880,
          "time": 141.94421733333334,
          "velocity": 0.7007874015748031
        },
        {
          "duration": 0.14236088333331054,
          "durationTicks": 41,
          "midi": 69,
          "name": "A4",
          "ticks": 40880,
          "time": 141.94421733333334,
          "velocity": 0.7716535433070866
        },
        {
          "duration": 0.09027763333332928,
          "durationTicks": 26,
          "midi": 60,
          "name": "C4",
          "ticks": 40920,
          "time": 142.083106,
          "velocity": 0.84251968503937
        },
        {
          "duration": 0.10069428333335395,
          "durationTicks": 29,
          "midi": 53,
          "name": "F3",
          "ticks": 40920,
          "time": 142.083106,
          "velocity": 0.8031496062992126
        },
        {
          "duration": 0.10069428333332553,
          "durationTicks": 29,
          "midi": 65,
          "name": "F4",
          "ticks": 40960,
          "time": 142.22199466666666,
          "velocity": 0.5039370078740157
        },
        {
          "duration": 0.1111109333333502,
          "durationTicks": 32,
          "midi": 69,
          "name": "A4",
          "ticks": 40960,
          "time": 142.22199466666666,
          "velocity": 0.6692913385826772
        },
        {
          "duration": 0.08680541666666386,
          "durationTicks": 25,
          "midi": 60,
          "name": "C4",
          "ticks": 41000,
          "time": 142.36088333333333,
          "velocity": 0.7716535433070866
        },
        {
          "duration": 0.0937498499999947,
          "durationTicks": 27,
          "midi": 53,
          "name": "F3",
          "ticks": 41000,
          "time": 142.36088333333333,
          "velocity": 0.7322834645669292
        },
        {
          "duration": 0.10069428333332553,
          "durationTicks": 29,
          "midi": 65,
          "name": "F4",
          "ticks": 41040,
          "time": 142.499772,
          "velocity": 0.7322834645669292
        },
        {
          "duration": 0.1145831499999872,
          "durationTicks": 33,
          "midi": 69,
          "name": "A4",
          "ticks": 41040,
          "time": 142.499772,
          "velocity": 0.8031496062992126
        },
        {
          "duration": 0.08333320000002686,
          "durationTicks": 24,
          "midi": 60,
          "name": "C4",
          "ticks": 41080,
          "time": 142.63866066666665,
          "velocity": 0.5984251968503937
        },
        {
          "duration": 0.08680541666669228,
          "durationTicks": 25,
          "midi": 53,
          "name": "F3",
          "ticks": 41080,
          "time": 142.63866066666665,
          "velocity": 0.6299212598425197
        },
        {
          "duration": 0.1319442333333427,
          "durationTicks": 38,
          "midi": 65,
          "name": "F4",
          "ticks": 41120,
          "time": 142.77754933333333,
          "velocity": 0.6692913385826772
        },
        {
          "duration": 0.1493053166666698,
          "durationTicks": 43,
          "midi": 69,
          "name": "A4",
          "ticks": 41120,
          "time": 142.77754933333333,
          "velocity": 0.8031496062992126
        },
        {
          "duration": 0.08333319999999844,
          "durationTicks": 24,
          "midi": 60,
          "name": "C4",
          "ticks": 41160,
          "time": 142.916438,
          "velocity": 0.84251968503937
        },
        {
          "duration": 0.10069428333332553,
          "durationTicks": 29,
          "midi": 53,
          "name": "F3",
          "ticks": 41160,
          "time": 142.916438,
          "velocity": 0.8031496062992126
        },
        {
          "duration": 0.11805536666668104,
          "durationTicks": 34,
          "midi": 65,
          "name": "F4",
          "ticks": 41200,
          "time": 143.05532666666664,
          "velocity": 0.5669291338582677
        },
        {
          "duration": 0.13888866666670197,
          "durationTicks": 40,
          "midi": 69,
          "name": "A4",
          "ticks": 41200,
          "time": 143.05532666666664,
          "velocity": 0.6692913385826772
        },
        {
          "duration": 0.09027763333330086,
          "durationTicks": 26,
          "midi": 60,
          "name": "C4",
          "ticks": 41240,
          "time": 143.19421533333335,
          "velocity": 0.84251968503937
        },
        {
          "duration": 0.09722206666663169,
          "durationTicks": 28,
          "midi": 53,
          "name": "F3",
          "ticks": 41240,
          "time": 143.19421533333335,
          "velocity": 0.7716535433070866
        },
        {
          "duration": 0.12152758333334646,
          "durationTicks": 35,
          "midi": 65,
          "name": "F4",
          "ticks": 41280,
          "time": 143.333104,
          "velocity": 0.7007874015748031
        },
        {
          "duration": 0.1319442333333427,
          "durationTicks": 38,
          "midi": 69,
          "name": "A4",
          "ticks": 41280,
          "time": 143.333104,
          "velocity": 0.7322834645669292
        },
        {
          "duration": 0.0763887666666676,
          "durationTicks": 22,
          "midi": 60,
          "name": "C4",
          "ticks": 41320,
          "time": 143.47199266666667,
          "velocity": 0.7322834645669292
        },
        {
          "duration": 0.09027763333332928,
          "durationTicks": 26,
          "midi": 53,
          "name": "F3",
          "ticks": 41320,
          "time": 143.47199266666667,
          "velocity": 0.7322834645669292
        },
        {
          "duration": 0.1145831499999872,
          "durationTicks": 33,
          "midi": 65,
          "name": "F4",
          "ticks": 41360,
          "time": 143.61088133333334,
          "velocity": 0.7007874015748031
        },
        {
          "duration": 0.13888866666664512,
          "durationTicks": 40,
          "midi": 69,
          "name": "A4",
          "ticks": 41360,
          "time": 143.61088133333334,
          "velocity": 0.7716535433070866
        },
        {
          "duration": 0.08680541666666386,
          "durationTicks": 25,
          "midi": 60,
          "name": "C4",
          "ticks": 41400,
          "time": 143.74976999999998,
          "velocity": 0.889763779527559
        },
        {
          "duration": 0.09374985000002312,
          "durationTicks": 27,
          "midi": 53,
          "name": "F3",
          "ticks": 41400,
          "time": 143.74976999999998,
          "velocity": 0.7716535433070866
        },
        {
          "duration": 0.10416649999999095,
          "durationTicks": 30,
          "midi": 65,
          "name": "F4",
          "ticks": 41440,
          "time": 143.88865866666666,
          "velocity": 0.6692913385826772
        },
        {
          "duration": 0.09027763333332928,
          "durationTicks": 26,
          "midi": 69,
          "name": "A4",
          "ticks": 41440,
          "time": 143.88865866666666,
          "velocity": 0.7322834645669292
        },
        {
          "duration": 0.0763887666666676,
          "durationTicks": 22,
          "midi": 60,
          "name": "C4",
          "ticks": 41480,
          "time": 144.02754733333333,
          "velocity": 0.84251968503937
        },
        {
          "duration": 0.07986098333333302,
          "durationTicks": 23,
          "midi": 53,
          "name": "F3",
          "ticks": 41480,
          "time": 144.02754733333333,
          "velocity": 0.8031496062992126
        },
        {
          "duration": 0.18402748333332397,
          "durationTicks": 53,
          "midi": 60,
          "name": "C4",
          "ticks": 41520,
          "time": 144.166436,
          "velocity": 0.7007874015748031
        },
        {
          "duration": 0.1909719166666548,
          "durationTicks": 55,
          "midi": 64,
          "name": "E4",
          "ticks": 41520,
          "time": 144.166436,
          "velocity": 0.84251968503937
        },
        {
          "duration": 0.13888866666667354,
          "durationTicks": 40,
          "midi": 60,
          "name": "C4",
          "ticks": 41600,
          "time": 144.44421333333332,
          "velocity": 0.7322834645669292
        },
        {
          "duration": 0.14583310000000438,
          "durationTicks": 42,
          "midi": 64,
          "name": "E4",
          "ticks": 41600,
          "time": 144.44421333333332,
          "velocity": 0.7716535433070866
        },
        {
          "duration": 0.07986098333333302,
          "durationTicks": 23,
          "midi": 55,
          "name": "G3",
          "ticks": 41640,
          "time": 144.583102,
          "velocity": 0.7322834645669292
        },
        {
          "duration": 0.0902776333333577,
          "durationTicks": 26,
          "midi": 60,
          "name": "C4",
          "ticks": 41680,
          "time": 144.72199066666664,
          "velocity": 0.5669291338582677
        },
        {
          "duration": 0.08680541666669228,
          "durationTicks": 25,
          "midi": 64,
          "name": "E4",
          "ticks": 41680,
          "time": 144.72199066666664,
          "velocity": 0.6692913385826772
        },
        {
          "duration": 0.08333319999999844,
          "durationTicks": 24,
          "midi": 55,
          "name": "G3",
          "ticks": 41720,
          "time": 144.86087933333334,
          "velocity": 0.7322834645669292
        },
        {
          "duration": 0.09027763333330086,
          "durationTicks": 26,
          "midi": 48,
          "name": "C3",
          "ticks": 41720,
          "time": 144.86087933333334,
          "velocity": 0.7716535433070866
        },
        {
          "duration": 0.13888866666667354,
          "durationTicks": 40,
          "midi": 60,
          "name": "C4",
          "ticks": 41760,
          "time": 144.999768,
          "velocity": 0.7322834645669292
        },
        {
          "duration": 0.14583310000000438,
          "durationTicks": 42,
          "midi": 64,
          "name": "E4",
          "ticks": 41760,
          "time": 144.999768,
          "velocity": 0.8031496062992126
        },
        {
          "duration": 0.1284720166666773,
          "durationTicks": 37,
          "midi": 60,
          "name": "C4",
          "ticks": 41840,
          "time": 145.27754533333334,
          "velocity": 0.7007874015748031
        },
        {
          "duration": 0.1354164499999797,
          "durationTicks": 39,
          "midi": 64,
          "name": "E4",
          "ticks": 41840,
          "time": 145.27754533333334,
          "velocity": 0.84251968503937
        },
        {
          "duration": 0.07291655000003061,
          "durationTicks": 21,
          "midi": 48,
          "name": "C3",
          "ticks": 41880,
          "time": 145.41643399999998,
          "velocity": 0.8031496062992126
        },
        {
          "duration": 0.07291655000003061,
          "durationTicks": 21,
          "midi": 55,
          "name": "G3",
          "ticks": 41880,
          "time": 145.41643399999998,
          "velocity": 0.8031496062992126
        },
        {
          "duration": 0.10416649999999095,
          "durationTicks": 30,
          "midi": 60,
          "name": "C4",
          "ticks": 41920,
          "time": 145.55532266666665,
          "velocity": 0.5669291338582677
        },
        {
          "duration": 0.1111109333333502,
          "durationTicks": 32,
          "midi": 64,
          "name": "E4",
          "ticks": 41920,
          "time": 145.55532266666665,
          "velocity": 0.7007874015748031
        },
        {
          "duration": 0.09027763333332928,
          "durationTicks": 26,
          "midi": 55,
          "name": "G3",
          "ticks": 41960,
          "time": 145.69421133333333,
          "velocity": 0.84251968503937
        },
        {
          "duration": 0.0763887666666676,
          "durationTicks": 22,
          "midi": 48,
          "name": "C3",
          "ticks": 41960,
          "time": 145.69421133333333,
          "velocity": 0.8031496062992126
        },
        {
          "duration": 0.12847201666664887,
          "durationTicks": 37,
          "midi": 60,
          "name": "C4",
          "ticks": 42000,
          "time": 145.8331,
          "velocity": 0.5354330708661418
        },
        {
          "duration": 0.1319442333333143,
          "durationTicks": 38,
          "midi": 67,
          "name": "G4",
          "ticks": 42000,
          "time": 145.8331,
          "velocity": 0.6692913385826772
        },
        {
          "duration": 0.1354164499999797,
          "durationTicks": 39,
          "midi": 64,
          "name": "E4",
          "ticks": 42000,
          "time": 145.8331,
          "velocity": 0.7007874015748031
        },
        {
          "duration": 0.0763887666666676,
          "durationTicks": 22,
          "midi": 55,
          "name": "G3",
          "ticks": 42040,
          "time": 145.97198866666665,
          "velocity": 0.7007874015748031
        },
        {
          "duration": 0.06597211666667135,
          "durationTicks": 19,
          "midi": 48,
          "name": "C3",
          "ticks": 42040,
          "time": 145.97198866666665,
          "velocity": 0.7007874015748031
        },
        {
          "duration": 0.15624975000000063,
          "durationTicks": 45,
          "midi": 60,
          "name": "C4",
          "ticks": 42080,
          "time": 146.11087733333332,
          "velocity": 0.7007874015748031
        },
        {
          "duration": 0.15972196666666605,
          "durationTicks": 46,
          "midi": 67,
          "name": "G4",
          "ticks": 42080,
          "time": 146.11087733333332,
          "velocity": 0.7007874015748031
        },
        {
          "duration": 0.15972196666666605,
          "durationTicks": 46,
          "midi": 64,
          "name": "E4",
          "ticks": 42080,
          "time": 146.11087733333332,
          "velocity": 0.7322834645669292
        },
        {
          "duration": 0.07291655000000219,
          "durationTicks": 21,
          "midi": 55,
          "name": "G3",
          "ticks": 42120,
          "time": 146.249766,
          "velocity": 0.84251968503937
        },
        {
          "duration": 0.06944433333333677,
          "durationTicks": 20,
          "midi": 48,
          "name": "C3",
          "ticks": 42120,
          "time": 146.249766,
          "velocity": 0.7716535433070866
        },
        {
          "duration": 0.09374985000002312,
          "durationTicks": 27,
          "midi": 60,
          "name": "C4",
          "ticks": 42160,
          "time": 146.38865466666664,
          "velocity": 0.5669291338582677
        },
        {
          "duration": 0.09722206666668853,
          "durationTicks": 28,
          "midi": 67,
          "name": "G4",
          "ticks": 42160,
          "time": 146.38865466666664,
          "velocity": 0.5984251968503937
        },
        {
          "duration": 0.09722206666668853,
          "durationTicks": 28,
          "midi": 64,
          "name": "E4",
          "ticks": 42160,
          "time": 146.38865466666664,
          "velocity": 0.7007874015748031
        },
        {
          "duration": 0.08333319999999844,
          "durationTicks": 24,
          "midi": 55,
          "name": "G3",
          "ticks": 42200,
          "time": 146.52754333333334,
          "velocity": 0.7716535433070866
        },
        {
          "duration": 0.09027763333332928,
          "durationTicks": 26,
          "midi": 48,
          "name": "C3",
          "ticks": 42200,
          "time": 146.52754333333334,
          "velocity": 0.7322834645669292
        },
        {
          "duration": 0.12499980000001187,
          "durationTicks": 36,
          "midi": 60,
          "name": "C4",
          "ticks": 42240,
          "time": 146.666432,
          "velocity": 0.6692913385826772
        },
        {
          "duration": 0.13541645000000813,
          "durationTicks": 39,
          "midi": 67,
          "name": "G4",
          "ticks": 42240,
          "time": 146.666432,
          "velocity": 0.7322834645669292
        },
        {
          "duration": 0.1319442333333427,
          "durationTicks": 38,
          "midi": 64,
          "name": "E4",
          "ticks": 42240,
          "time": 146.666432,
          "velocity": 0.7322834645669292
        },
        {
          "duration": 0.06249990000000594,
          "durationTicks": 18,
          "midi": 48,
          "name": "C3",
          "ticks": 42280,
          "time": 146.80532066666666,
          "velocity": 0.7716535433070866
        },
        {
          "duration": 0.06597211666667135,
          "durationTicks": 19,
          "midi": 55,
          "name": "G3",
          "ticks": 42280,
          "time": 146.80532066666666,
          "velocity": 0.7716535433070866
        },
        {
          "duration": 0.12499979999998345,
          "durationTicks": 36,
          "midi": 67,
          "name": "G4",
          "ticks": 42320,
          "time": 146.94420933333333,
          "velocity": 0.7716535433070866
        },
        {
          "duration": 0.1145831499999872,
          "durationTicks": 33,
          "midi": 60,
          "name": "C4",
          "ticks": 42320,
          "time": 146.94420933333333,
          "velocity": 0.6692913385826772
        },
        {
          "duration": 0.1284720166666773,
          "durationTicks": 37,
          "midi": 64,
          "name": "E4",
          "ticks": 42320,
          "time": 146.94420933333333,
          "velocity": 0.8031496062992126
        },
        {
          "duration": 0.07291655000000219,
          "durationTicks": 21,
          "midi": 48,
          "name": "C3",
          "ticks": 42360,
          "time": 147.083098,
          "velocity": 0.8031496062992126
        },
        {
          "duration": 0.09027763333330086,
          "durationTicks": 26,
          "midi": 55,
          "name": "G3",
          "ticks": 42360,
          "time": 147.083098,
          "velocity": 0.84251968503937
        },
        {
          "duration": 0.09374985000002312,
          "durationTicks": 27,
          "midi": 60,
          "name": "C4",
          "ticks": 42400,
          "time": 147.22198666666665,
          "velocity": 0.5984251968503937
        },
        {
          "duration": 0.11458315000001562,
          "durationTicks": 33,
          "midi": 67,
          "name": "G4",
          "ticks": 42400,
          "time": 147.22198666666665,
          "velocity": 0.7007874015748031
        },
        {
          "duration": 0.12152758333334646,
          "durationTicks": 35,
          "midi": 64,
          "name": "E4",
          "ticks": 42400,
          "time": 147.22198666666665,
          "velocity": 0.7322834645669292
        },
        {
          "duration": 0.08333319999999844,
          "durationTicks": 24,
          "midi": 55,
          "name": "G3",
          "ticks": 42440,
          "time": 147.36087533333333,
          "velocity": 0.84251968503937
        },
        {
          "duration": 0.07986098333333302,
          "durationTicks": 23,
          "midi": 48,
          "name": "C3",
          "ticks": 42440,
          "time": 147.36087533333333,
          "velocity": 0.8031496062992126
        },
        {
          "duration": 0.15624975000000063,
          "durationTicks": 45,
          "midi": 69,
          "name": "A4",
          "ticks": 42480,
          "time": 147.499764,
          "velocity": 0.7322834645669292
        },
        {
          "duration": 0.1527775333333352,
          "durationTicks": 44,
          "midi": 62,
          "name": "D4",
          "ticks": 42480,
          "time": 147.499764,
          "velocity": 0.7716535433070866
        },
        {
          "duration": 0.1701386166666623,
          "durationTicks": 49,
          "midi": 65,
          "name": "F4",
          "ticks": 42480,
          "time": 147.499764,
          "velocity": 0.84251968503937
        },
        {
          "duration": 0.15624975000000063,
          "durationTicks": 45,
          "midi": 69,
          "name": "A4",
          "ticks": 42560,
          "time": 147.77754133333335,
          "velocity": 0.8031496062992126
        },
        {
          "duration": 0.14930531666664137,
          "durationTicks": 43,
          "midi": 62,
          "name": "D4",
          "ticks": 42560,
          "time": 147.77754133333335,
          "velocity": 0.7322834645669292
        },
        {
          "duration": 0.14930531666664137,
          "durationTicks": 43,
          "midi": 65,
          "name": "F4",
          "ticks": 42560,
          "time": 147.77754133333335,
          "velocity": 0.84251968503937
        },
        {
          "duration": 0.05902768333334052,
          "durationTicks": 17,
          "midi": 57,
          "name": "A3",
          "ticks": 42600,
          "time": 147.91643,
          "velocity": 0.7322834645669292
        },
        {
          "duration": 0.06944433333333677,
          "durationTicks": 20,
          "midi": 50,
          "name": "D3",
          "ticks": 42600,
          "time": 147.91643,
          "velocity": 0.7716535433070866
        },
        {
          "duration": 0.08680541666666386,
          "durationTicks": 25,
          "midi": 62,
          "name": "D4",
          "ticks": 42640,
          "time": 148.05531866666666,
          "velocity": 0.5984251968503937
        },
        {
          "duration": 0.07986098333333302,
          "durationTicks": 23,
          "midi": 65,
          "name": "F4",
          "ticks": 42640,
          "time": 148.05531866666666,
          "velocity": 0.7007874015748031
        },
        {
          "duration": 0.09722206666666011,
          "durationTicks": 28,
          "midi": 69,
          "name": "A4",
          "ticks": 42640,
          "time": 148.05531866666666,
          "velocity": 0.7007874015748031
        },
        {
          "duration": 0.08333319999999844,
          "durationTicks": 24,
          "midi": 50,
          "name": "D3",
          "ticks": 42680,
          "time": 148.19420733333334,
          "velocity": 0.7322834645669292
        },
        {
          "duration": 0.08680541666666386,
          "durationTicks": 25,
          "midi": 57,
          "name": "A3",
          "ticks": 42680,
          "time": 148.19420733333334,
          "velocity": 0.7322834645669292
        },
        {
          "duration": 0.1527775333333352,
          "durationTicks": 44,
          "midi": 69,
          "name": "A4",
          "ticks": 42720,
          "time": 148.33309599999998,
          "velocity": 0.7322834645669292
        },
        {
          "duration": 0.1527775333333352,
          "durationTicks": 44,
          "midi": 62,
          "name": "D4",
          "ticks": 42720,
          "time": 148.33309599999998,
          "velocity": 0.7322834645669292
        },
        {
          "duration": 0.16666639999999688,
          "durationTicks": 48,
          "midi": 65,
          "name": "F4",
          "ticks": 42720,
          "time": 148.33309599999998,
          "velocity": 0.8031496062992126
        },
        {
          "duration": 0.14236088333333896,
          "durationTicks": 41,
          "midi": 69,
          "name": "A4",
          "ticks": 42800,
          "time": 148.61087333333333,
          "velocity": 0.8031496062992126
        },
        {
          "duration": 0.1284720166666773,
          "durationTicks": 37,
          "midi": 62,
          "name": "D4",
          "ticks": 42800,
          "time": 148.61087333333333,
          "velocity": 0.7716535433070866
        },
        {
          "duration": 0.13541645000000813,
          "durationTicks": 39,
          "midi": 65,
          "name": "F4",
          "ticks": 42800,
          "time": 148.61087333333333,
          "velocity": 0.84251968503937
        },
        {
          "duration": 0.06597211666667135,
          "durationTicks": 19,
          "midi": 57,
          "name": "A3",
          "ticks": 42840,
          "time": 148.749762,
          "velocity": 0.7716535433070866
        },
        {
          "duration": 0.062499899999977515,
          "durationTicks": 18,
          "midi": 50,
          "name": "D3",
          "ticks": 42840,
          "time": 148.749762,
          "velocity": 0.7716535433070866
        },
        {
          "duration": 0.08333320000002686,
          "durationTicks": 24,
          "midi": 62,
          "name": "D4",
          "ticks": 42880,
          "time": 148.88865066666665,
          "velocity": 0.6692913385826772
        },
        {
          "duration": 0.08333320000002686,
          "durationTicks": 24,
          "midi": 65,
          "name": "F4",
          "ticks": 42880,
          "time": 148.88865066666665,
          "velocity": 0.7007874015748031
        },
        {
          "duration": 0.09722206666668853,
          "durationTicks": 28,
          "midi": 69,
          "name": "A4",
          "ticks": 42880,
          "time": 148.88865066666665,
          "velocity": 0.6692913385826772
        },
        {
          "duration": 0.08680541666666386,
          "durationTicks": 25,
          "midi": 57,
          "name": "A3",
          "ticks": 42920,
          "time": 149.02753933333332,
          "velocity": 0.84251968503937
        },
        {
          "duration": 0.07291655000000219,
          "durationTicks": 21,
          "midi": 50,
          "name": "D3",
          "ticks": 42920,
          "time": 149.02753933333332,
          "velocity": 0.8031496062992126
        },
        {
          "duration": 0.12499980000001187,
          "durationTicks": 36,
          "midi": 62,
          "name": "D4",
          "ticks": 42960,
          "time": 149.166428,
          "velocity": 0.7322834645669292
        },
        {
          "duration": 0.1284720166666773,
          "durationTicks": 37,
          "midi": 65,
          "name": "F4",
          "ticks": 42960,
          "time": 149.166428,
          "velocity": 0.8031496062992126
        },
        {
          "duration": 0.1319442333333427,
          "durationTicks": 38,
          "midi": 69,
          "name": "A4",
          "ticks": 42960,
          "time": 149.166428,
          "velocity": 0.8031496062992126
        },
        {
          "duration": 0.07291655000000219,
          "durationTicks": 21,
          "midi": 57,
          "name": "A3",
          "ticks": 43000,
          "time": 149.30531666666664,
          "velocity": 0.8031496062992126
        },
        {
          "duration": 0.05902768333336894,
          "durationTicks": 17,
          "midi": 50,
          "name": "D3",
          "ticks": 43000,
          "time": 149.30531666666664,
          "velocity": 0.8031496062992126
        },
        {
          "duration": 0.12499979999998345,
          "durationTicks": 36,
          "midi": 69,
          "name": "A4",
          "ticks": 43040,
          "time": 149.44420533333334,
          "velocity": 0.8031496062992126
        },
        {
          "duration": 0.12847201666664887,
          "durationTicks": 37,
          "midi": 65,
          "name": "F4",
          "ticks": 43040,
          "time": 149.44420533333334,
          "velocity": 0.84251968503937
        },
        {
          "duration": 0.11805536666665262,
          "durationTicks": 34,
          "midi": 62,
          "name": "D4",
          "ticks": 43040,
          "time": 149.44420533333334,
          "velocity": 0.7716535433070866
        },
        {
          "duration": 0.08680541666666386,
          "durationTicks": 25,
          "midi": 50,
          "name": "D3",
          "ticks": 43080,
          "time": 149.583094,
          "velocity": 0.84251968503937
        },
        {
          "duration": 0.09374985000002312,
          "durationTicks": 27,
          "midi": 57,
          "name": "A3",
          "ticks": 43080,
          "time": 149.583094,
          "velocity": 0.84251968503937
        },
        {
          "duration": 0.0763887666666676,
          "durationTicks": 22,
          "midi": 62,
          "name": "D4",
          "ticks": 43120,
          "time": 149.72198266666666,
          "velocity": 0.7716535433070866
        },
        {
          "duration": 0.0763887666666676,
          "durationTicks": 22,
          "midi": 65,
          "name": "F4",
          "ticks": 43120,
          "time": 149.72198266666666,
          "velocity": 0.84251968503937
        },
        {
          "duration": 0.07986098333333302,
          "durationTicks": 23,
          "midi": 69,
          "name": "A4",
          "ticks": 43120,
          "time": 149.72198266666666,
          "velocity": 0.84251968503937
        },
        {
          "duration": 0.07291654999997377,
          "durationTicks": 21,
          "midi": 57,
          "name": "A3",
          "ticks": 43160,
          "time": 149.86087133333334,
          "velocity": 0.84251968503937
        },
        {
          "duration": 0.07986098333333302,
          "durationTicks": 23,
          "midi": 50,
          "name": "D3",
          "ticks": 43160,
          "time": 149.86087133333334,
          "velocity": 0.8031496062992126
        },
        {
          "duration": 0.32638836666669135,
          "durationTicks": 94,
          "midi": 58,
          "name": "A#3",
          "ticks": 43200,
          "time": 149.99975999999998,
          "velocity": 0.6692913385826772
        },
        {
          "duration": 0.3194439333333321,
          "durationTicks": 92,
          "midi": 65,
          "name": "F4",
          "ticks": 43200,
          "time": 149.99975999999998,
          "velocity": 0.7007874015748031
        },
        {
          "duration": 0.3229161499999975,
          "durationTicks": 93,
          "midi": 62,
          "name": "D4",
          "ticks": 43200,
          "time": 149.99975999999998,
          "velocity": 0.84251968503937
        },
        {
          "duration": 0.32986058333332835,
          "durationTicks": 95,
          "midi": 58,
          "name": "A#3",
          "ticks": 43320,
          "time": 150.416426,
          "velocity": 0.6692913385826772
        },
        {
          "duration": 0.32638836666666293,
          "durationTicks": 94,
          "midi": 62,
          "name": "D4",
          "ticks": 43320,
          "time": 150.416426,
          "velocity": 0.889763779527559
        },
        {
          "duration": 0.30902728333333584,
          "durationTicks": 89,
          "midi": 65,
          "name": "F4",
          "ticks": 43320,
          "time": 150.416426,
          "velocity": 0.7716535433070866
        },
        {
          "duration": 0.31249950000000126,
          "durationTicks": 90,
          "midi": 58,
          "name": "A#3",
          "ticks": 43440,
          "time": 150.833092,
          "velocity": 0.7007874015748031
        },
        {
          "duration": 0.2847217666666779,
          "durationTicks": 82,
          "midi": 65,
          "name": "F4",
          "ticks": 43440,
          "time": 150.833092,
          "velocity": 0.84251968503937
        },
        {
          "duration": 0.30902728333333584,
          "durationTicks": 89,
          "midi": 62,
          "name": "D4",
          "ticks": 43440,
          "time": 150.833092,
          "velocity": 0.84251968503937
        },
        {
          "duration": 0.3055550666666704,
          "durationTicks": 88,
          "midi": 58,
          "name": "A#3",
          "ticks": 43560,
          "time": 151.24975799999999,
          "velocity": 0.6299212598425197
        },
        {
          "duration": 0.2673606833333224,
          "durationTicks": 77,
          "midi": 65,
          "name": "F4",
          "ticks": 43560,
          "time": 151.24975799999999,
          "velocity": 0.7007874015748031
        },
        {
          "duration": 0.302082850000005,
          "durationTicks": 87,
          "midi": 62,
          "name": "D4",
          "ticks": 43560,
          "time": 151.24975799999999,
          "velocity": 0.8031496062992126
        },
        {
          "duration": 0.08680541666666386,
          "durationTicks": 25,
          "midi": 46,
          "name": "A#2",
          "ticks": 43640,
          "time": 151.52753533333333,
          "velocity": 0.84251968503937
        },
        {
          "duration": 0.15624975000000063,
          "durationTicks": 45,
          "midi": 58,
          "name": "A#3",
          "ticks": 43680,
          "time": 151.666424,
          "velocity": 0.5039370078740157
        },
        {
          "duration": 0.13888866666664512,
          "durationTicks": 40,
          "midi": 65,
          "name": "F4",
          "ticks": 43680,
          "time": 151.666424,
          "velocity": 0.7322834645669292
        },
        {
          "duration": 0.14583310000000438,
          "durationTicks": 42,
          "midi": 62,
          "name": "D4",
          "ticks": 43680,
          "time": 151.666424,
          "velocity": 0.7716535433070866
        },
        {
          "duration": 0.06944433333333677,
          "durationTicks": 20,
          "midi": 46,
          "name": "A#2",
          "ticks": 43720,
          "time": 151.80531266666665,
          "velocity": 0.7322834645669292
        },
        {
          "duration": 0.4479159500000094,
          "durationTicks": 129,
          "midi": 62,
          "name": "D4",
          "ticks": 43760,
          "time": 151.94420133333333,
          "velocity": 0.8031496062992126
        },
        {
          "duration": 0.4652770333333365,
          "durationTicks": 134,
          "midi": 58,
          "name": "A#3",
          "ticks": 43760,
          "time": 151.94420133333333,
          "velocity": 0.6692913385826772
        },
        {
          "duration": 0.42361043333332304,
          "durationTicks": 122,
          "midi": 65,
          "name": "F4",
          "ticks": 43760,
          "time": 151.94420133333333,
          "velocity": 0.7716535433070866
        },
        {
          "duration": 0.10763871666665636,
          "durationTicks": 31,
          "midi": 46,
          "name": "A#2",
          "ticks": 43880,
          "time": 152.36086733333335,
          "velocity": 0.84251968503937
        },
        {
          "duration": 0.15624975000000063,
          "durationTicks": 45,
          "midi": 65,
          "name": "F4",
          "ticks": 43920,
          "time": 152.499756,
          "velocity": 0.7716535433070866
        },
        {
          "duration": 0.17708304999999314,
          "durationTicks": 51,
          "midi": 58,
          "name": "A#3",
          "ticks": 43920,
          "time": 152.499756,
          "velocity": 0.7007874015748031
        },
        {
          "duration": 0.17361083333335614,
          "durationTicks": 50,
          "midi": 62,
          "name": "D4",
          "ticks": 43920,
          "time": 152.499756,
          "velocity": 0.889763779527559
        },
        {
          "duration": 0.3194439333333321,
          "durationTicks": 92,
          "midi": 65,
          "name": "F4",
          "ticks": 44000,
          "time": 152.77753333333334,
          "velocity": 0.8031496062992126
        },
        {
          "duration": 0.34722166666665544,
          "durationTicks": 100,
          "midi": 58,
          "name": "A#3",
          "ticks": 44000,
          "time": 152.77753333333334,
          "velocity": 0.7322834645669292
        },
        {
          "duration": 0.3368050166666592,
          "durationTicks": 97,
          "midi": 62,
          "name": "D4",
          "ticks": 44000,
          "time": 152.77753333333334,
          "velocity": 0.889763779527559
        },
        {
          "duration": 0.0763887666666676,
          "durationTicks": 22,
          "midi": 58,
          "name": "A#3",
          "ticks": 44120,
          "time": 153.19419933333333,
          "velocity": 0.7322834645669292
        },
        {
          "duration": 0.08680541666666386,
          "durationTicks": 25,
          "midi": 65,
          "name": "F4",
          "ticks": 44120,
          "time": 153.19419933333333,
          "velocity": 0.7716535433070866
        },
        {
          "duration": 0.0763887666666676,
          "durationTicks": 22,
          "midi": 62,
          "name": "D4",
          "ticks": 44120,
          "time": 153.19419933333333,
          "velocity": 0.889763779527559
        },
        {
          "duration": 0.06944433333333677,
          "durationTicks": 20,
          "midi": 59,
          "name": "B3",
          "ticks": 44160,
          "time": 153.333088,
          "velocity": 0.7007874015748031
        },
        {
          "duration": 0.0763887666666676,
          "durationTicks": 22,
          "midi": 62,
          "name": "D4",
          "ticks": 44160,
          "time": 153.333088,
          "velocity": 0.7007874015748031
        },
        {
          "duration": 0.06597211666664293,
          "durationTicks": 19,
          "midi": 53,
          "name": "F3",
          "ticks": 44180,
          "time": 153.40253233333334,
          "velocity": 0.4881889763779528
        },
        {
          "duration": 0.06597211666667135,
          "durationTicks": 19,
          "midi": 43,
          "name": "G2",
          "ticks": 44200,
          "time": 153.47197666666665,
          "velocity": 0.47244094488188976
        },
        {
          "duration": 0.08333319999999844,
          "durationTicks": 24,
          "midi": 53,
          "name": "F3",
          "ticks": 44240,
          "time": 153.61086533333332,
          "velocity": 0.4330708661417323
        },
        {
          "duration": 0.0937498499999947,
          "durationTicks": 27,
          "midi": 62,
          "name": "D4",
          "ticks": 44240,
          "time": 153.61086533333332,
          "velocity": 0.7007874015748031
        },
        {
          "duration": 0.0937498499999947,
          "durationTicks": 27,
          "midi": 59,
          "name": "B3",
          "ticks": 44240,
          "time": 153.61086533333332,
          "velocity": 0.7322834645669292
        },
        {
          "duration": 0.10069428333332553,
          "durationTicks": 29,
          "midi": 43,
          "name": "G2",
          "ticks": 44280,
          "time": 153.749754,
          "velocity": 0.84251968503937
        },
        {
          "duration": 0.10069428333335395,
          "durationTicks": 29,
          "midi": 53,
          "name": "F3",
          "ticks": 44320,
          "time": 153.88864266666664,
          "velocity": 0.4409448818897638
        },
        {
          "duration": 0.1111109333333502,
          "durationTicks": 32,
          "midi": 59,
          "name": "B3",
          "ticks": 44320,
          "time": 153.88864266666664,
          "velocity": 0.5354330708661418
        },
        {
          "duration": 0.10416650000001937,
          "durationTicks": 30,
          "midi": 62,
          "name": "D4",
          "ticks": 44320,
          "time": 153.88864266666664,
          "velocity": 0.5669291338582677
        },
        {
          "duration": 0.11111093333332178,
          "durationTicks": 32,
          "midi": 43,
          "name": "G2",
          "ticks": 44360,
          "time": 154.02753133333334,
          "velocity": 0.7322834645669292
        },
        {
          "duration": 0.06944433333333677,
          "durationTicks": 20,
          "midi": 53,
          "name": "F3",
          "ticks": 44400,
          "time": 154.16642,
          "velocity": 0.5669291338582677
        },
        {
          "duration": 0.08333319999999844,
          "durationTicks": 24,
          "midi": 62,
          "name": "D4",
          "ticks": 44400,
          "time": 154.16642,
          "velocity": 0.7007874015748031
        },
        {
          "duration": 0.09027763333332928,
          "durationTicks": 26,
          "midi": 59,
          "name": "B3",
          "ticks": 44400,
          "time": 154.16642,
          "velocity": 0.7322834645669292
        },
        {
          "duration": 0.18402748333332397,
          "durationTicks": 53,
          "midi": 53,
          "name": "F3",
          "ticks": 44480,
          "time": 154.44419733333334,
          "velocity": 0.7322834645669292
        },
        {
          "duration": 0.18402748333332397,
          "durationTicks": 53,
          "midi": 59,
          "name": "B3",
          "ticks": 44480,
          "time": 154.44419733333334,
          "velocity": 0.84251968503937
        },
        {
          "duration": 0.18055526666665855,
          "durationTicks": 52,
          "midi": 62,
          "name": "D4",
          "ticks": 44480,
          "time": 154.44419733333334,
          "velocity": 0.84251968503937
        },
        {
          "duration": 0.08680541666666386,
          "durationTicks": 25,
          "midi": 43,
          "name": "G2",
          "ticks": 44520,
          "time": 154.58308599999998,
          "velocity": 0.8031496062992126
        },
        {
          "duration": 0.0937498499999947,
          "durationTicks": 27,
          "midi": 53,
          "name": "F3",
          "ticks": 44560,
          "time": 154.72197466666665,
          "velocity": 0.5669291338582677
        },
        {
          "duration": 0.36458275000001095,
          "durationTicks": 105,
          "midi": 43,
          "name": "G2",
          "ticks": 44600,
          "time": 154.86086333333333,
          "velocity": 0.8031496062992126
        },
        {
          "duration": 0.12152758333334646,
          "durationTicks": 35,
          "midi": 53,
          "name": "F3",
          "ticks": 44640,
          "time": 154.999752,
          "velocity": 0.5669291338582677
        },
        {
          "duration": 0.1354164499999797,
          "durationTicks": 39,
          "midi": 59,
          "name": "B3",
          "ticks": 44640,
          "time": 154.999752,
          "velocity": 0.7322834645669292
        },
        {
          "duration": 0.12152758333334646,
          "durationTicks": 35,
          "midi": 62,
          "name": "D4",
          "ticks": 44640,
          "time": 154.999752,
          "velocity": 0.7322834645669292
        },
        {
          "duration": 0.1562497499999722,
          "durationTicks": 45,
          "midi": 53,
          "name": "F3",
          "ticks": 44720,
          "time": 155.27752933333335,
          "velocity": 0.7322834645669292
        },
        {
          "duration": 0.16666639999996846,
          "durationTicks": 48,
          "midi": 62,
          "name": "D4",
          "ticks": 44720,
          "time": 155.27752933333335,
          "velocity": 0.8031496062992126
        },
        {
          "duration": 0.17708304999996471,
          "durationTicks": 51,
          "midi": 59,
          "name": "B3",
          "ticks": 44720,
          "time": 155.27752933333335,
          "velocity": 0.84251968503937
        },
        {
          "duration": 0.11111093333332178,
          "durationTicks": 32,
          "midi": 43,
          "name": "G2",
          "ticks": 44760,
          "time": 155.416418,
          "velocity": 0.7716535433070866
        },
        {
          "duration": 0.12152758333334646,
          "durationTicks": 35,
          "midi": 53,
          "name": "F3",
          "ticks": 44800,
          "time": 155.55530666666664,
          "velocity": 0.5669291338582677
        },
        {
          "duration": 0.1874996999999894,
          "durationTicks": 54,
          "midi": 43,
          "name": "G2",
          "ticks": 44840,
          "time": 155.69419533333334,
          "velocity": 0.84251968503937
        },
        {
          "duration": 0.15624975000000063,
          "durationTicks": 45,
          "midi": 53,
          "name": "F3",
          "ticks": 44880,
          "time": 155.83308399999999,
          "velocity": 0.6692913385826772
        },
        {
          "duration": 0.16319418333333147,
          "durationTicks": 47,
          "midi": 59,
          "name": "B3",
          "ticks": 44880,
          "time": 155.83308399999999,
          "velocity": 0.7716535433070866
        },
        {
          "duration": 0.14236088333333896,
          "durationTicks": 41,
          "midi": 62,
          "name": "D4",
          "ticks": 44880,
          "time": 155.83308399999999,
          "velocity": 0.7716535433070866
        },
        {
          "duration": 0.15624975000000063,
          "durationTicks": 45,
          "midi": 53,
          "name": "F3",
          "ticks": 44960,
          "time": 156.11086133333333,
          "velocity": 0.6692913385826772
        },
        {
          "duration": 0.15972196666666605,
          "durationTicks": 46,
          "midi": 62,
          "name": "D4",
          "ticks": 44960,
          "time": 156.11086133333333,
          "velocity": 0.7716535433070866
        },
        {
          "duration": 0.17708304999999314,
          "durationTicks": 51,
          "midi": 59,
          "name": "B3",
          "ticks": 44960,
          "time": 156.11086133333333,
          "velocity": 0.7716535433070866
        },
        {
          "duration": 0.12152758333331803,
          "durationTicks": 35,
          "midi": 43,
          "name": "G2",
          "ticks": 45000,
          "time": 156.24975,
          "velocity": 0.8031496062992126
        },
        {
          "duration": 0.11458315000001562,
          "durationTicks": 33,
          "midi": 53,
          "name": "F3",
          "ticks": 45040,
          "time": 156.38863866666665,
          "velocity": 0.6692913385826772
        },
        {
          "duration": 0.13541645000000813,
          "durationTicks": 39,
          "midi": 62,
          "name": "D4",
          "ticks": 45040,
          "time": 156.38863866666665,
          "velocity": 0.7716535433070866
        },
        {
          "duration": 0.1527775333333352,
          "durationTicks": 44,
          "midi": 59,
          "name": "B3",
          "ticks": 45040,
          "time": 156.38863866666665,
          "velocity": 0.7322834645669292
        },
        {
          "duration": 0.06249990000000594,
          "durationTicks": 18,
          "midi": 43,
          "name": "G2",
          "ticks": 45080,
          "time": 156.52752733333332,
          "velocity": 0.84251968503937
        },
        {
          "duration": 0.2673606833333224,
          "durationTicks": 77,
          "midi": 45,
          "name": "A2",
          "ticks": 45120,
          "time": 156.666416,
          "velocity": 0.84251968503937
        },
        {
          "duration": 0.16319418333330304,
          "durationTicks": 47,
          "midi": 61,
          "name": "C#4",
          "ticks": 45200,
          "time": 156.94419333333335,
          "velocity": 0.7322834645669292
        },
        {
          "duration": 0.14930531666664137,
          "durationTicks": 43,
          "midi": 57,
          "name": "A3",
          "ticks": 45200,
          "time": 156.94419333333335,
          "velocity": 0.6692913385826772
        },
        {
          "duration": 0.14930531666664137,
          "durationTicks": 43,
          "midi": 64,
          "name": "E4",
          "ticks": 45200,
          "time": 156.94419333333335,
          "velocity": 0.7322834645669292
        },
        {
          "duration": 0.08333319999999844,
          "durationTicks": 24,
          "midi": 45,
          "name": "A2",
          "ticks": 45240,
          "time": 157.083082,
          "velocity": 0.8031496062992126
        },
        {
          "duration": 0.11458315000001562,
          "durationTicks": 33,
          "midi": 57,
          "name": "A3",
          "ticks": 45280,
          "time": 157.22197066666666,
          "velocity": 0.5984251968503937
        },
        {
          "duration": 0.40972156666663295,
          "durationTicks": 118,
          "midi": 45,
          "name": "A2",
          "ticks": 45320,
          "time": 157.36085933333334,
          "velocity": 0.84251968503937
        },
        {
          "duration": 0.10763871666668479,
          "durationTicks": 31,
          "midi": 55,
          "name": "G3",
          "ticks": 45360,
          "time": 157.49974799999998,
          "velocity": 0.7322834645669292
        },
        {
          "duration": 0.11805536666668104,
          "durationTicks": 34,
          "midi": 61,
          "name": "C#4",
          "ticks": 45360,
          "time": 157.49974799999998,
          "velocity": 0.7322834645669292
        },
        {
          "duration": 0.1111109333333502,
          "durationTicks": 32,
          "midi": 64,
          "name": "E4",
          "ticks": 45360,
          "time": 157.49974799999998,
          "velocity": 0.7007874015748031
        },
        {
          "duration": 0.13888866666667354,
          "durationTicks": 40,
          "midi": 61,
          "name": "C#4",
          "ticks": 45440,
          "time": 157.77752533333333,
          "velocity": 0.7322834645669292
        },
        {
          "duration": 0.13888866666667354,
          "durationTicks": 40,
          "midi": 64,
          "name": "E4",
          "ticks": 45440,
          "time": 157.77752533333333,
          "velocity": 0.84251968503937
        },
        {
          "duration": 0.14236088333333896,
          "durationTicks": 41,
          "midi": 57,
          "name": "A3",
          "ticks": 45440,
          "time": 157.77752533333333,
          "velocity": 0.7716535433070866
        },
        {
          "duration": 0.10416649999999095,
          "durationTicks": 30,
          "midi": 45,
          "name": "A2",
          "ticks": 45480,
          "time": 157.916414,
          "velocity": 0.84251968503937
        },
        {
          "duration": 0.1111109333333502,
          "durationTicks": 32,
          "midi": 57,
          "name": "A3",
          "ticks": 45520,
          "time": 158.05530266666665,
          "velocity": 0.6299212598425197
        },
        {
          "duration": 0.1840274833333524,
          "durationTicks": 53,
          "midi": 45,
          "name": "A2",
          "ticks": 45560,
          "time": 158.19419133333332,
          "velocity": 0.84251968503937
        },
        {
          "duration": 0.11111093333332178,
          "durationTicks": 32,
          "midi": 64,
          "name": "E4",
          "ticks": 45600,
          "time": 158.33308,
          "velocity": 0.8031496062992126
        },
        {
          "duration": 0.13888866666664512,
          "durationTicks": 40,
          "midi": 61,
          "name": "C#4",
          "ticks": 45600,
          "time": 158.33308,
          "velocity": 0.7716535433070866
        },
        {
          "duration": 0.12152758333334646,
          "durationTicks": 35,
          "midi": 57,
          "name": "A3",
          "ticks": 45600,
          "time": 158.33308,
          "velocity": 0.7007874015748031
        },
        {
          "duration": 0.527776933333314,
          "durationTicks": 152,
          "midi": 45,
          "name": "A2",
          "ticks": 45600,
          "time": 158.33308,
          "velocity": 0.84251968503937
        },
        {
          "duration": 0.11805536666665262,
          "durationTicks": 34,
          "midi": 64,
          "name": "E4",
          "ticks": 45680,
          "time": 158.61085733333334,
          "velocity": 0.8031496062992126
        },
        {
          "duration": 0.12847201666664887,
          "durationTicks": 37,
          "midi": 57,
          "name": "A3",
          "ticks": 45680,
          "time": 158.61085733333334,
          "velocity": 0.7007874015748031
        },
        {
          "duration": 0.12847201666664887,
          "durationTicks": 37,
          "midi": 61,
          "name": "C#4",
          "ticks": 45680,
          "time": 158.61085733333334,
          "velocity": 0.8031496062992126
        },
        {
          "duration": 0.45833260000000564,
          "durationTicks": 132,
          "midi": 45,
          "name": "A2",
          "ticks": 45720,
          "time": 158.749746,
          "velocity": 0.84251968503937
        },
        {
          "duration": 0.09722206666666011,
          "durationTicks": 28,
          "midi": 57,
          "name": "A3",
          "ticks": 45760,
          "time": 158.88863466666666,
          "velocity": 0.6299212598425197
        },
        {
          "duration": 0.6562489499999913,
          "durationTicks": 189,
          "midi": 45,
          "name": "A2",
          "ticks": 45800,
          "time": 159.02752333333333,
          "velocity": 0.8031496062992126
        },
        {
          "duration": 0.1111109333333502,
          "durationTicks": 32,
          "midi": 64,
          "name": "E4",
          "ticks": 45840,
          "time": 159.16641199999998,
          "velocity": 0.7716535433070866
        },
        {
          "duration": 0.15972196666666605,
          "durationTicks": 46,
          "midi": 61,
          "name": "C#4",
          "ticks": 45840,
          "time": 159.16641199999998,
          "velocity": 0.8031496062992126
        },
        {
          "duration": 0.13541645000000813,
          "durationTicks": 39,
          "midi": 57,
          "name": "A3",
          "ticks": 45840,
          "time": 159.16641199999998,
          "velocity": 0.7322834645669292
        },
        {
          "duration": 0.14236088333333896,
          "durationTicks": 41,
          "midi": 64,
          "name": "E4",
          "ticks": 45920,
          "time": 159.44418933333333,
          "velocity": 0.8031496062992126
        },
        {
          "duration": 0.1493053166666698,
          "durationTicks": 43,
          "midi": 57,
          "name": "A3",
          "ticks": 45920,
          "time": 159.44418933333333,
          "velocity": 0.7322834645669292
        },
        {
          "duration": 0.1527775333333352,
          "durationTicks": 44,
          "midi": 61,
          "name": "C#4",
          "ticks": 45920,
          "time": 159.44418933333333,
          "velocity": 0.8031496062992126
        },
        {
          "duration": 0.04166660000001343,
          "durationTicks": 12,
          "midi": 64,
          "name": "E4",
          "ticks": 46000,
          "time": 159.72196666666665,
          "velocity": 0.5984251968503937
        },
        {
          "duration": 0.12152758333334646,
          "durationTicks": 35,
          "midi": 57,
          "name": "A3",
          "ticks": 46000,
          "time": 159.72196666666665,
          "velocity": 0.7322834645669292
        },
        {
          "duration": 0.08680541666663544,
          "durationTicks": 25,
          "midi": 45,
          "name": "A2",
          "ticks": 46040,
          "time": 159.86085533333335,
          "velocity": 0.889763779527559
        },
        {
          "duration": 0.1145831499999872,
          "durationTicks": 33,
          "midi": 69,
          "name": "A4",
          "ticks": 46080,
          "time": 159.999744,
          "velocity": 0.7322834645669292
        },
        {
          "duration": 0.10416649999999095,
          "durationTicks": 30,
          "midi": 62,
          "name": "D4",
          "ticks": 46080,
          "time": 159.999744,
          "velocity": 0.7322834645669292
        },
        {
          "duration": 0.10416649999999095,
          "durationTicks": 30,
          "midi": 65,
          "name": "F4",
          "ticks": 46080,
          "time": 159.999744,
          "velocity": 0.7716535433070866
        },
        {
          "duration": 0.08333320000002686,
          "durationTicks": 24,
          "midi": 57,
          "name": "A3",
          "ticks": 46120,
          "time": 160.13863266666664,
          "velocity": 0.7007874015748031
        },
        {
          "duration": 0.0694443333333652,
          "durationTicks": 20,
          "midi": 50,
          "name": "D3",
          "ticks": 46120,
          "time": 160.13863266666664,
          "velocity": 0.7322834645669292
        },
        {
          "duration": 0.06597211666664293,
          "durationTicks": 19,
          "midi": 62,
          "name": "D4",
          "ticks": 46160,
          "time": 160.27752133333334,
          "velocity": 0.5984251968503937
        },
        {
          "duration": 0.07986098333333302,
          "durationTicks": 23,
          "midi": 69,
          "name": "A4",
          "ticks": 46160,
          "time": 160.27752133333334,
          "velocity": 0.7007874015748031
        },
        {
          "duration": 0.06597211666664293,
          "durationTicks": 19,
          "midi": 65,
          "name": "F4",
          "ticks": 46160,
          "time": 160.27752133333334,
          "velocity": 0.6692913385826772
        },
        {
          "duration": 0.05902768333334052,
          "durationTicks": 17,
          "midi": 50,
          "name": "D3",
          "ticks": 46200,
          "time": 160.41640999999998,
          "velocity": 0.5984251968503937
        },
        {
          "duration": 0.07986098333333302,
          "durationTicks": 23,
          "midi": 57,
          "name": "A3",
          "ticks": 46200,
          "time": 160.41640999999998,
          "velocity": 0.6692913385826772
        },
        {
          "duration": 0.05902768333334052,
          "durationTicks": 17,
          "midi": 62,
          "name": "D4",
          "ticks": 46240,
          "time": 160.55529866666666,
          "velocity": 0.4881889763779528
        },
        {
          "duration": 0.05555546666664668,
          "durationTicks": 16,
          "midi": 69,
          "name": "A4",
          "ticks": 46240,
          "time": 160.55529866666666,
          "velocity": 0.5984251968503937
        },
        {
          "duration": 0.06944433333333677,
          "durationTicks": 20,
          "midi": 65,
          "name": "F4",
          "ticks": 46240,
          "time": 160.55529866666666,
          "velocity": 0.6692913385826772
        },
        {
          "duration": 0.0555554666666751,
          "durationTicks": 16,
          "midi": 50,
          "name": "D3",
          "ticks": 46280,
          "time": 160.69418733333333,
          "velocity": 0.7007874015748031
        },
        {
          "duration": 0.06944433333330835,
          "durationTicks": 20,
          "midi": 57,
          "name": "A3",
          "ticks": 46280,
          "time": 160.69418733333333,
          "velocity": 0.6692913385826772
        },
        {
          "duration": 0.0763887666666676,
          "durationTicks": 22,
          "midi": 62,
          "name": "D4",
          "ticks": 46320,
          "time": 160.833076,
          "velocity": 0.7322834645669292
        },
        {
          "duration": 0.0763887666666676,
          "durationTicks": 22,
          "midi": 65,
          "name": "F4",
          "ticks": 46320,
          "time": 160.833076,
          "velocity": 0.7716535433070866
        },
        {
          "duration": 0.08333319999997002,
          "durationTicks": 24,
          "midi": 69,
          "name": "A4",
          "ticks": 46320,
          "time": 160.833076,
          "velocity": 0.7322834645669292
        },
        {
          "duration": 0.06597211666667135,
          "durationTicks": 19,
          "midi": 57,
          "name": "A3",
          "ticks": 46360,
          "time": 160.97196466666665,
          "velocity": 0.5669291338582677
        },
        {
          "duration": 0.04861103333334427,
          "durationTicks": 14,
          "midi": 50,
          "name": "D3",
          "ticks": 46360,
          "time": 160.97196466666665,
          "velocity": 0.6299212598425197
        },
        {
          "duration": 0.0937498499999947,
          "durationTicks": 27,
          "midi": 69,
          "name": "A4",
          "ticks": 46400,
          "time": 161.11085333333332,
          "velocity": 0.7007874015748031
        },
        {
          "duration": 0.08333319999999844,
          "durationTicks": 24,
          "midi": 62,
          "name": "D4",
          "ticks": 46400,
          "time": 161.11085333333332,
          "velocity": 0.6692913385826772
        },
        {
          "duration": 0.0937498499999947,
          "durationTicks": 27,
          "midi": 65,
          "name": "F4",
          "ticks": 46400,
          "time": 161.11085333333332,
          "velocity": 0.7716535433070866
        },
        {
          "duration": 0.06944433333333677,
          "durationTicks": 20,
          "midi": 50,
          "name": "D3",
          "ticks": 46440,
          "time": 161.249742,
          "velocity": 0.7007874015748031
        },
        {
          "duration": 0.07986098333333302,
          "durationTicks": 23,
          "midi": 57,
          "name": "A3",
          "ticks": 46440,
          "time": 161.249742,
          "velocity": 0.7716535433070866
        },
        {
          "duration": 0.08333320000002686,
          "durationTicks": 24,
          "midi": 62,
          "name": "D4",
          "ticks": 46480,
          "time": 161.38863066666664,
          "velocity": 0.7007874015748031
        },
        {
          "duration": 0.07986098333333302,
          "durationTicks": 23,
          "midi": 65,
          "name": "F4",
          "ticks": 46480,
          "time": 161.38863066666664,
          "velocity": 0.7322834645669292
        },
        {
          "duration": 0.0902776333333577,
          "durationTicks": 26,
          "midi": 69,
          "name": "A4",
          "ticks": 46480,
          "time": 161.38863066666664,
          "velocity": 0.7322834645669292
        },
        {
          "duration": 0.0763887666666676,
          "durationTicks": 22,
          "midi": 50,
          "name": "D3",
          "ticks": 46520,
          "time": 161.52751933333334,
          "velocity": 0.8031496062992126
        },
        {
          "duration": 0.062499899999977515,
          "durationTicks": 18,
          "midi": 57,
          "name": "A3",
          "ticks": 46520,
          "time": 161.52751933333334,
          "velocity": 0.84251968503937
        },
        {
          "duration": 0.1909719166666548,
          "durationTicks": 55,
          "midi": 53,
          "name": "F3",
          "ticks": 46560,
          "time": 161.666408,
          "velocity": 0.5354330708661418
        },
        {
          "duration": 0.2048607833333449,
          "durationTicks": 59,
          "midi": 57,
          "name": "A3",
          "ticks": 46560,
          "time": 161.666408,
          "velocity": 0.7322834645669292
        },
        {
          "duration": 0.2048607833333449,
          "durationTicks": 59,
          "midi": 60,
          "name": "C4",
          "ticks": 46560,
          "time": 161.666408,
          "velocity": 0.7007874015748031
        },
        {
          "duration": 0.10069428333335395,
          "durationTicks": 29,
          "midi": 60,
          "name": "C4",
          "ticks": 46680,
          "time": 162.08307399999998,
          "velocity": 0.7322834645669292
        },
        {
          "duration": 0.09722206666668853,
          "durationTicks": 28,
          "midi": 57,
          "name": "A3",
          "ticks": 46680,
          "time": 162.08307399999998,
          "velocity": 0.7007874015748031
        },
        {
          "duration": 0.1111109333333502,
          "durationTicks": 32,
          "midi": 53,
          "name": "F3",
          "ticks": 46680,
          "time": 162.08307399999998,
          "velocity": 0.6692913385826772
        },
        {
          "duration": 0.08680541666669228,
          "durationTicks": 25,
          "midi": 41,
          "name": "F2",
          "ticks": 46720,
          "time": 162.22196266666666,
          "velocity": 0.6692913385826772
        },
        {
          "duration": 0.08680541666666386,
          "durationTicks": 25,
          "midi": 53,
          "name": "F3",
          "ticks": 46760,
          "time": 162.36085133333333,
          "velocity": 0.5984251968503937
        },
        {
          "duration": 0.0937498499999947,
          "durationTicks": 27,
          "midi": 60,
          "name": "C4",
          "ticks": 46760,
          "time": 162.36085133333333,
          "velocity": 0.7007874015748031
        },
        {
          "duration": 0.0937498499999947,
          "durationTicks": 27,
          "midi": 57,
          "name": "A3",
          "ticks": 46760,
          "time": 162.36085133333333,
          "velocity": 0.6692913385826772
        },
        {
          "duration": 0.0937498499999947,
          "durationTicks": 27,
          "midi": 41,
          "name": "F2",
          "ticks": 46800,
          "time": 162.49974,
          "velocity": 0.7322834645669292
        },
        {
          "duration": 0.07986098333333302,
          "durationTicks": 23,
          "midi": 53,
          "name": "F3",
          "ticks": 46840,
          "time": 162.63862866666665,
          "velocity": 0.4881889763779528
        },
        {
          "duration": 0.07291655000000219,
          "durationTicks": 21,
          "midi": 60,
          "name": "C4",
          "ticks": 46840,
          "time": 162.63862866666665,
          "velocity": 0.6299212598425197
        },
        {
          "duration": 0.08680541666669228,
          "durationTicks": 25,
          "midi": 57,
          "name": "A3",
          "ticks": 46840,
          "time": 162.63862866666665,
          "velocity": 0.6299212598425197
        },
        {
          "duration": 0.10416650000001937,
          "durationTicks": 30,
          "midi": 41,
          "name": "F2",
          "ticks": 46880,
          "time": 162.77751733333332,
          "velocity": 0.8031496062992126
        },
        {
          "duration": 0.10069428333332553,
          "durationTicks": 29,
          "midi": 60,
          "name": "C4",
          "ticks": 46920,
          "time": 162.916406,
          "velocity": 0.8031496062992126
        },
        {
          "duration": 0.09722206666666011,
          "durationTicks": 28,
          "midi": 53,
          "name": "F3",
          "ticks": 46920,
          "time": 162.916406,
          "velocity": 0.7007874015748031
        },
        {
          "duration": 0.10763871666665636,
          "durationTicks": 31,
          "midi": 57,
          "name": "A3",
          "ticks": 46920,
          "time": 162.916406,
          "velocity": 0.7716535433070866
        },
        {
          "duration": 0.10069428333335395,
          "durationTicks": 29,
          "midi": 41,
          "name": "F2",
          "ticks": 46960,
          "time": 163.05529466666664,
          "velocity": 0.7716535433070866
        },
        {
          "duration": 0.14583309999997596,
          "durationTicks": 42,
          "midi": 57,
          "name": "A3",
          "ticks": 47000,
          "time": 163.19418333333334,
          "velocity": 0.7322834645669292
        },
        {
          "duration": 0.1527775333333352,
          "durationTicks": 44,
          "midi": 60,
          "name": "C4",
          "ticks": 47000,
          "time": 163.19418333333334,
          "velocity": 0.7716535433070866
        },
        {
          "duration": 0.11805536666665262,
          "durationTicks": 34,
          "midi": 53,
          "name": "F3",
          "ticks": 47000,
          "time": 163.19418333333334,
          "velocity": 0.6299212598425197
        },
        {
          "duration": 0.1527775333333352,
          "durationTicks": 44,
          "midi": 43,
          "name": "G2",
          "ticks": 47040,
          "time": 163.333072,
          "velocity": 0.84251968503937
        },
        {
          "duration": 0.0937498499999947,
          "durationTicks": 27,
          "midi": 62,
          "name": "D4",
          "ticks": 47080,
          "time": 163.47196066666666,
          "velocity": 0.6692913385826772
        },
        {
          "duration": 0.0937498499999947,
          "durationTicks": 27,
          "midi": 55,
          "name": "G3",
          "ticks": 47080,
          "time": 163.47196066666666,
          "velocity": 0.5354330708661418
        },
        {
          "duration": 0.10069428333332553,
          "durationTicks": 29,
          "midi": 59,
          "name": "B3",
          "ticks": 47080,
          "time": 163.47196066666666,
          "velocity": 0.7007874015748031
        },
        {
          "duration": 0.10416649999999095,
          "durationTicks": 30,
          "midi": 43,
          "name": "G2",
          "ticks": 47120,
          "time": 163.61084933333333,
          "velocity": 0.7007874015748031
        },
        {
          "duration": 0.10763871666668479,
          "durationTicks": 31,
          "midi": 62,
          "name": "D4",
          "ticks": 47160,
          "time": 163.74973799999998,
          "velocity": 0.7716535433070866
        },
        {
          "duration": 0.10069428333335395,
          "durationTicks": 29,
          "midi": 55,
          "name": "G3",
          "ticks": 47160,
          "time": 163.74973799999998,
          "velocity": 0.6692913385826772
        },
        {
          "duration": 0.10069428333335395,
          "durationTicks": 29,
          "midi": 59,
          "name": "B3",
          "ticks": 47160,
          "time": 163.74973799999998,
          "velocity": 0.7716535433070866
        },
        {
          "duration": 0.0902776333333577,
          "durationTicks": 26,
          "midi": 43,
          "name": "G2",
          "ticks": 47200,
          "time": 163.88862666666665,
          "velocity": 0.7007874015748031
        },
        {
          "duration": 0.10763871666668479,
          "durationTicks": 31,
          "midi": 62,
          "name": "D4",
          "ticks": 47240,
          "time": 164.02751533333333,
          "velocity": 0.7716535433070866
        },
        {
          "duration": 0.10069428333335395,
          "durationTicks": 29,
          "midi": 59,
          "name": "B3",
          "ticks": 47240,
          "time": 164.02751533333333,
          "velocity": 0.7322834645669292
        },
        {
          "duration": 0.10416650000001937,
          "durationTicks": 30,
          "midi": 55,
          "name": "G3",
          "ticks": 47240,
          "time": 164.02751533333333,
          "velocity": 0.6299212598425197
        },
        {
          "duration": 0.10069428333332553,
          "durationTicks": 29,
          "midi": 43,
          "name": "G2",
          "ticks": 47280,
          "time": 164.166404,
          "velocity": 0.8031496062992126
        },
        {
          "duration": 0.07986098333333302,
          "durationTicks": 23,
          "midi": 62,
          "name": "D4",
          "ticks": 47320,
          "time": 164.30529266666665,
          "velocity": 0.7007874015748031
        },
        {
          "duration": 0.08333320000002686,
          "durationTicks": 24,
          "midi": 55,
          "name": "G3",
          "ticks": 47320,
          "time": 164.30529266666665,
          "velocity": 0.5669291338582677
        },
        {
          "duration": 0.08680541666669228,
          "durationTicks": 25,
          "midi": 59,
          "name": "B3",
          "ticks": 47320,
          "time": 164.30529266666665,
          "velocity": 0.7322834645669292
        },
        {
          "duration": 0.14583309999997596,
          "durationTicks": 42,
          "midi": 43,
          "name": "G2",
          "ticks": 47360,
          "time": 164.44418133333335,
          "velocity": 0.7322834645669292
        },
        {
          "duration": 0.1145831499999872,
          "durationTicks": 33,
          "midi": 62,
          "name": "D4",
          "ticks": 47400,
          "time": 164.58307,
          "velocity": 0.84251968503937
        },
        {
          "duration": 0.10763871666665636,
          "durationTicks": 31,
          "midi": 55,
          "name": "G3",
          "ticks": 47400,
          "time": 164.58307,
          "velocity": 0.7322834645669292
        },
        {
          "duration": 0.11111093333332178,
          "durationTicks": 32,
          "midi": 59,
          "name": "B3",
          "ticks": 47400,
          "time": 164.58307,
          "velocity": 0.84251968503937
        },
        {
          "duration": 0.07291654999997377,
          "durationTicks": 21,
          "midi": 55,
          "name": "G3",
          "ticks": 47480,
          "time": 164.86084733333334,
          "velocity": 0.6692913385826772
        },
        {
          "duration": 0.11111093333332178,
          "durationTicks": 32,
          "midi": 62,
          "name": "D4",
          "ticks": 47480,
          "time": 164.86084733333334,
          "velocity": 0.84251968503937
        },
        {
          "duration": 0.09722206666663169,
          "durationTicks": 28,
          "midi": 59,
          "name": "B3",
          "ticks": 47480,
          "time": 164.86084733333334,
          "velocity": 0.8031496062992126
        },
        {
          "duration": 0.1284720166666773,
          "durationTicks": 37,
          "midi": 46,
          "name": "A#2",
          "ticks": 47520,
          "time": 164.99973599999998,
          "velocity": 0.889763779527559
        },
        {
          "duration": 0.06944433333333677,
          "durationTicks": 20,
          "midi": 62,
          "name": "D4",
          "ticks": 47560,
          "time": 165.13862466666666,
          "velocity": 0.4881889763779528
        },
        {
          "duration": 0.10069428333332553,
          "durationTicks": 29,
          "midi": 58,
          "name": "A#3",
          "ticks": 47560,
          "time": 165.13862466666666,
          "velocity": 0.4409448818897638
        },
        {
          "duration": 0.07986098333333302,
          "durationTicks": 23,
          "midi": 65,
          "name": "F4",
          "ticks": 47560,
          "time": 165.13862466666666,
          "velocity": 0.7007874015748031
        },
        {
          "duration": 0.10416649999999095,
          "durationTicks": 30,
          "midi": 46,
          "name": "A#2",
          "ticks": 47600,
          "time": 165.27751333333333,
          "velocity": 0.6692913385826772
        },
        {
          "duration": 0.11111093333332178,
          "durationTicks": 32,
          "midi": 58,
          "name": "A#3",
          "ticks": 47640,
          "time": 165.416402,
          "velocity": 0.6299212598425197
        },
        {
          "duration": 0.11805536666665262,
          "durationTicks": 34,
          "midi": 65,
          "name": "F4",
          "ticks": 47640,
          "time": 165.416402,
          "velocity": 0.7716535433070866
        },
        {
          "duration": 0.0937498499999947,
          "durationTicks": 27,
          "midi": 62,
          "name": "D4",
          "ticks": 47640,
          "time": 165.416402,
          "velocity": 0.8031496062992126
        },
        {
          "duration": 0.13541645000000813,
          "durationTicks": 39,
          "midi": 58,
          "name": "A#3",
          "ticks": 47720,
          "time": 165.69417933333332,
          "velocity": 0.5039370078740157
        },
        {
          "duration": 0.10763871666668479,
          "durationTicks": 31,
          "midi": 62,
          "name": "D4",
          "ticks": 47720,
          "time": 165.69417933333332,
          "velocity": 0.7716535433070866
        },
        {
          "duration": 0.1145831499999872,
          "durationTicks": 33,
          "midi": 65,
          "name": "F4",
          "ticks": 47720,
          "time": 165.69417933333332,
          "velocity": 0.7007874015748031
        },
        {
          "duration": 0.08680541666666386,
          "durationTicks": 25,
          "midi": 46,
          "name": "A#2",
          "ticks": 47760,
          "time": 165.833068,
          "velocity": 0.84251968503937
        },
        {
          "duration": 0.10416650000001937,
          "durationTicks": 30,
          "midi": 58,
          "name": "A#3",
          "ticks": 47800,
          "time": 165.97195666666664,
          "velocity": 0.4645669291338583
        },
        {
          "duration": 0.0902776333333577,
          "durationTicks": 26,
          "midi": 65,
          "name": "F4",
          "ticks": 47800,
          "time": 165.97195666666664,
          "velocity": 0.7007874015748031
        },
        {
          "duration": 0.0902776333333577,
          "durationTicks": 26,
          "midi": 62,
          "name": "D4",
          "ticks": 47800,
          "time": 165.97195666666664,
          "velocity": 0.7007874015748031
        },
        {
          "duration": 0.12152758333331803,
          "durationTicks": 35,
          "midi": 46,
          "name": "A#2",
          "ticks": 47840,
          "time": 166.11084533333334,
          "velocity": 0.8031496062992126
        },
        {
          "duration": 0.14236088333333896,
          "durationTicks": 41,
          "midi": 65,
          "name": "F4",
          "ticks": 47880,
          "time": 166.249734,
          "velocity": 0.7716535433070866
        },
        {
          "duration": 0.17013861666669072,
          "durationTicks": 49,
          "midi": 58,
          "name": "A#3",
          "ticks": 47880,
          "time": 166.249734,
          "velocity": 0.6299212598425197
        },
        {
          "duration": 0.1493053166666698,
          "durationTicks": 43,
          "midi": 62,
          "name": "D4",
          "ticks": 47880,
          "time": 166.249734,
          "velocity": 0.84251968503937
        },
        {
          "duration": 0.09027763333332928,
          "durationTicks": 26,
          "midi": 65,
          "name": "F4",
          "ticks": 47960,
          "time": 166.52751133333334,
          "velocity": 0.7716535433070866
        },
        {
          "duration": 0.0763887666666676,
          "durationTicks": 22,
          "midi": 62,
          "name": "D4",
          "ticks": 47960,
          "time": 166.52751133333334,
          "velocity": 0.84251968503937
        },
        {
          "duration": 0.10069428333332553,
          "durationTicks": 29,
          "midi": 58,
          "name": "A#3",
          "ticks": 47960,
          "time": 166.52751133333334,
          "velocity": 0.7007874015748031
        },
        {
          "duration": 0.1145831499999872,
          "durationTicks": 33,
          "midi": 69,
          "name": "A4",
          "ticks": 48000,
          "time": 166.66639999999998,
          "velocity": 0.7322834645669292
        },
        {
          "duration": 0.10416650000001937,
          "durationTicks": 30,
          "midi": 62,
          "name": "D4",
          "ticks": 48000,
          "time": 166.66639999999998,
          "velocity": 0.7322834645669292
        },
        {
          "duration": 0.10416650000001937,
          "durationTicks": 30,
          "midi": 65,
          "name": "F4",
          "ticks": 48000,
          "time": 166.66639999999998,
          "velocity": 0.7716535433070866
        },
        {
          "duration": 0.08333320000002686,
          "durationTicks": 24,
          "midi": 57,
          "name": "A3",
          "ticks": 48040,
          "time": 166.80528866666666,
          "velocity": 0.7007874015748031
        },
        {
          "duration": 0.06944433333333677,
          "durationTicks": 20,
          "midi": 50,
          "name": "D3",
          "ticks": 48040,
          "time": 166.80528866666666,
          "velocity": 0.7322834645669292
        },
        {
          "duration": 0.06597211666667135,
          "durationTicks": 19,
          "midi": 62,
          "name": "D4",
          "ticks": 48080,
          "time": 166.94417733333333,
          "velocity": 0.5984251968503937
        },
        {
          "duration": 0.07986098333333302,
          "durationTicks": 23,
          "midi": 69,
          "name": "A4",
          "ticks": 48080,
          "time": 166.94417733333333,
          "velocity": 0.7007874015748031
        },
        {
          "duration": 0.06597211666667135,
          "durationTicks": 19,
          "midi": 65,
          "name": "F4",
          "ticks": 48080,
          "time": 166.94417733333333,
          "velocity": 0.6692913385826772
        },
        {
          "duration": 0.0590276833333121,
          "durationTicks": 17,
          "midi": 50,
          "name": "D3",
          "ticks": 48120,
          "time": 167.083066,
          "velocity": 0.5984251968503937
        },
        {
          "duration": 0.07986098333333302,
          "durationTicks": 23,
          "midi": 57,
          "name": "A3",
          "ticks": 48120,
          "time": 167.083066,
          "velocity": 0.6692913385826772
        },
        {
          "duration": 0.05902768333334052,
          "durationTicks": 17,
          "midi": 62,
          "name": "D4",
          "ticks": 48160,
          "time": 167.22195466666665,
          "velocity": 0.4881889763779528
        },
        {
          "duration": 0.0555554666666751,
          "durationTicks": 16,
          "midi": 69,
          "name": "A4",
          "ticks": 48160,
          "time": 167.22195466666665,
          "velocity": 0.5984251968503937
        },
        {
          "duration": 0.06944433333333677,
          "durationTicks": 20,
          "midi": 65,
          "name": "F4",
          "ticks": 48160,
          "time": 167.22195466666665,
          "velocity": 0.6692913385826772
        },
        {
          "duration": 0.0555554666666751,
          "durationTicks": 16,
          "midi": 50,
          "name": "D3",
          "ticks": 48200,
          "time": 167.36084333333332,
          "velocity": 0.7007874015748031
        },
        {
          "duration": 0.06944433333333677,
          "durationTicks": 20,
          "midi": 57,
          "name": "A3",
          "ticks": 48200,
          "time": 167.36084333333332,
          "velocity": 0.6692913385826772
        },
        {
          "duration": 0.0763887666666676,
          "durationTicks": 22,
          "midi": 62,
          "name": "D4",
          "ticks": 48240,
          "time": 167.499732,
          "velocity": 0.7322834645669292
        },
        {
          "duration": 0.0763887666666676,
          "durationTicks": 22,
          "midi": 65,
          "name": "F4",
          "ticks": 48240,
          "time": 167.499732,
          "velocity": 0.7716535433070866
        },
        {
          "duration": 0.08333319999999844,
          "durationTicks": 24,
          "midi": 69,
          "name": "A4",
          "ticks": 48240,
          "time": 167.499732,
          "velocity": 0.7322834645669292
        },
        {
          "duration": 0.06597211666669978,
          "durationTicks": 19,
          "midi": 57,
          "name": "A3",
          "ticks": 48280,
          "time": 167.63862066666664,
          "velocity": 0.5669291338582677
        },
        {
          "duration": 0.04861103333334427,
          "durationTicks": 14,
          "midi": 50,
          "name": "D3",
          "ticks": 48280,
          "time": 167.63862066666664,
          "velocity": 0.6299212598425197
        },
        {
          "duration": 0.09374984999996627,
          "durationTicks": 27,
          "midi": 69,
          "name": "A4",
          "ticks": 48320,
          "time": 167.77750933333334,
          "velocity": 0.7007874015748031
        },
        {
          "duration": 0.08333319999999844,
          "durationTicks": 24,
          "midi": 62,
          "name": "D4",
          "ticks": 48320,
          "time": 167.77750933333334,
          "velocity": 0.6692913385826772
        },
        {
          "duration": 0.09374984999996627,
          "durationTicks": 27,
          "midi": 65,
          "name": "F4",
          "ticks": 48320,
          "time": 167.77750933333334,
          "velocity": 0.7716535433070866
        },
        {
          "duration": 0.06944433333333677,
          "durationTicks": 20,
          "midi": 50,
          "name": "D3",
          "ticks": 48360,
          "time": 167.916398,
          "velocity": 0.7007874015748031
        },
        {
          "duration": 0.07986098333333302,
          "durationTicks": 23,
          "midi": 57,
          "name": "A3",
          "ticks": 48360,
          "time": 167.916398,
          "velocity": 0.7716535433070866
        },
        {
          "duration": 0.08333319999999844,
          "durationTicks": 24,
          "midi": 62,
          "name": "D4",
          "ticks": 48400,
          "time": 168.05528666666666,
          "velocity": 0.7007874015748031
        },
        {
          "duration": 0.07986098333333302,
          "durationTicks": 23,
          "midi": 65,
          "name": "F4",
          "ticks": 48400,
          "time": 168.05528666666666,
          "velocity": 0.7322834645669292
        },
        {
          "duration": 0.09027763333332928,
          "durationTicks": 26,
          "midi": 69,
          "name": "A4",
          "ticks": 48400,
          "time": 168.05528666666666,
          "velocity": 0.7322834645669292
        },
        {
          "duration": 0.0763887666666676,
          "durationTicks": 22,
          "midi": 50,
          "name": "D3",
          "ticks": 48440,
          "time": 168.19417533333333,
          "velocity": 0.8031496062992126
        },
        {
          "duration": 0.062499899999977515,
          "durationTicks": 18,
          "midi": 57,
          "name": "A3",
          "ticks": 48440,
          "time": 168.19417533333333,
          "velocity": 0.84251968503937
        },
        {
          "duration": 0.19097191666668323,
          "durationTicks": 55,
          "midi": 53,
          "name": "F3",
          "ticks": 48480,
          "time": 168.33306399999998,
          "velocity": 0.5354330708661418
        },
        {
          "duration": 0.2048607833333449,
          "durationTicks": 59,
          "midi": 57,
          "name": "A3",
          "ticks": 48480,
          "time": 168.33306399999998,
          "velocity": 0.7322834645669292
        },
        {
          "duration": 0.2048607833333449,
          "durationTicks": 59,
          "midi": 60,
          "name": "C4",
          "ticks": 48480,
          "time": 168.33306399999998,
          "velocity": 0.7007874015748031
        },
        {
          "duration": 0.10069428333332553,
          "durationTicks": 29,
          "midi": 60,
          "name": "C4",
          "ticks": 48600,
          "time": 168.74973,
          "velocity": 0.7322834645669292
        },
        {
          "duration": 0.09722206666666011,
          "durationTicks": 28,
          "midi": 57,
          "name": "A3",
          "ticks": 48600,
          "time": 168.74973,
          "velocity": 0.7007874015748031
        },
        {
          "duration": 0.11111093333332178,
          "durationTicks": 32,
          "midi": 53,
          "name": "F3",
          "ticks": 48600,
          "time": 168.74973,
          "velocity": 0.6692913385826772
        },
        {
          "duration": 0.08680541666669228,
          "durationTicks": 25,
          "midi": 41,
          "name": "F2",
          "ticks": 48640,
          "time": 168.88861866666664,
          "velocity": 0.6692913385826772
        },
        {
          "duration": 0.08680541666663544,
          "durationTicks": 25,
          "midi": 53,
          "name": "F3",
          "ticks": 48680,
          "time": 169.02750733333335,
          "velocity": 0.5984251968503937
        },
        {
          "duration": 0.09374984999996627,
          "durationTicks": 27,
          "midi": 60,
          "name": "C4",
          "ticks": 48680,
          "time": 169.02750733333335,
          "velocity": 0.7007874015748031
        },
        {
          "duration": 0.09374984999996627,
          "durationTicks": 27,
          "midi": 57,
          "name": "A3",
          "ticks": 48680,
          "time": 169.02750733333335,
          "velocity": 0.6692913385826772
        },
        {
          "duration": 0.09374985000002312,
          "durationTicks": 27,
          "midi": 41,
          "name": "F2",
          "ticks": 48720,
          "time": 169.166396,
          "velocity": 0.7322834645669292
        },
        {
          "duration": 0.07986098333333302,
          "durationTicks": 23,
          "midi": 53,
          "name": "F3",
          "ticks": 48760,
          "time": 169.30528466666664,
          "velocity": 0.4881889763779528
        },
        {
          "duration": 0.07291655000003061,
          "durationTicks": 21,
          "midi": 60,
          "name": "C4",
          "ticks": 48760,
          "time": 169.30528466666664,
          "velocity": 0.6299212598425197
        },
        {
          "duration": 0.08680541666669228,
          "durationTicks": 25,
          "midi": 57,
          "name": "A3",
          "ticks": 48760,
          "time": 169.30528466666664,
          "velocity": 0.6299212598425197
        },
        {
          "duration": 0.10416649999999095,
          "durationTicks": 30,
          "midi": 41,
          "name": "F2",
          "ticks": 48800,
          "time": 169.44417333333334,
          "velocity": 0.8031496062992126
        },
        {
          "duration": 0.10069428333335395,
          "durationTicks": 29,
          "midi": 60,
          "name": "C4",
          "ticks": 48840,
          "time": 169.58306199999998,
          "velocity": 0.8031496062992126
        },
        {
          "duration": 0.09722206666668853,
          "durationTicks": 28,
          "midi": 53,
          "name": "F3",
          "ticks": 48840,
          "time": 169.58306199999998,
          "velocity": 0.7007874015748031
        },
        {
          "duration": 0.10763871666668479,
          "durationTicks": 31,
          "midi": 57,
          "name": "A3",
          "ticks": 48840,
          "time": 169.58306199999998,
          "velocity": 0.7716535433070866
        },
        {
          "duration": 0.10069428333332553,
          "durationTicks": 29,
          "midi": 41,
          "name": "F2",
          "ticks": 48880,
          "time": 169.72195066666666,
          "velocity": 0.7716535433070866
        },
        {
          "duration": 0.14583309999997596,
          "durationTicks": 42,
          "midi": 57,
          "name": "A3",
          "ticks": 48920,
          "time": 169.86083933333333,
          "velocity": 0.7322834645669292
        },
        {
          "duration": 0.1527775333333352,
          "durationTicks": 44,
          "midi": 60,
          "name": "C4",
          "ticks": 48920,
          "time": 169.86083933333333,
          "velocity": 0.7716535433070866
        },
        {
          "duration": 0.11805536666665262,
          "durationTicks": 34,
          "midi": 53,
          "name": "F3",
          "ticks": 48920,
          "time": 169.86083933333333,
          "velocity": 0.6299212598425197
        },
        {
          "duration": 0.1527775333333352,
          "durationTicks": 44,
          "midi": 43,
          "name": "G2",
          "ticks": 48960,
          "time": 169.999728,
          "velocity": 0.84251968503937
        },
        {
          "duration": 0.09374985000002312,
          "durationTicks": 27,
          "midi": 62,
          "name": "D4",
          "ticks": 49000,
          "time": 170.13861666666665,
          "velocity": 0.6692913385826772
        },
        {
          "duration": 0.09374985000002312,
          "durationTicks": 27,
          "midi": 55,
          "name": "G3",
          "ticks": 49000,
          "time": 170.13861666666665,
          "velocity": 0.5354330708661418
        },
        {
          "duration": 0.10069428333332553,
          "durationTicks": 29,
          "midi": 59,
          "name": "B3",
          "ticks": 49000,
          "time": 170.13861666666665,
          "velocity": 0.7007874015748031
        },
        {
          "duration": 0.10416650000001937,
          "durationTicks": 30,
          "midi": 43,
          "name": "G2",
          "ticks": 49040,
          "time": 170.27750533333332,
          "velocity": 0.7007874015748031
        },
        {
          "duration": 0.10763871666665636,
          "durationTicks": 31,
          "midi": 62,
          "name": "D4",
          "ticks": 49080,
          "time": 170.416394,
          "velocity": 0.7716535433070866
        },
        {
          "duration": 0.10069428333332553,
          "durationTicks": 29,
          "midi": 55,
          "name": "G3",
          "ticks": 49080,
          "time": 170.416394,
          "velocity": 0.6692913385826772
        },
        {
          "duration": 0.10069428333332553,
          "durationTicks": 29,
          "midi": 59,
          "name": "B3",
          "ticks": 49080,
          "time": 170.416394,
          "velocity": 0.7716535433070866
        },
        {
          "duration": 0.0902776333333577,
          "durationTicks": 26,
          "midi": 43,
          "name": "G2",
          "ticks": 49120,
          "time": 170.55528266666664,
          "velocity": 0.7007874015748031
        },
        {
          "duration": 0.10763871666665636,
          "durationTicks": 31,
          "midi": 62,
          "name": "D4",
          "ticks": 49160,
          "time": 170.69417133333334,
          "velocity": 0.7716535433070866
        },
        {
          "duration": 0.10069428333332553,
          "durationTicks": 29,
          "midi": 59,
          "name": "B3",
          "ticks": 49160,
          "time": 170.69417133333334,
          "velocity": 0.7322834645669292
        },
        {
          "duration": 0.10416649999999095,
          "durationTicks": 30,
          "midi": 55,
          "name": "G3",
          "ticks": 49160,
          "time": 170.69417133333334,
          "velocity": 0.6299212598425197
        },
        {
          "duration": 0.10069428333332553,
          "durationTicks": 29,
          "midi": 43,
          "name": "G2",
          "ticks": 49200,
          "time": 170.83306,
          "velocity": 0.8031496062992126
        },
        {
          "duration": 0.07986098333333302,
          "durationTicks": 23,
          "midi": 62,
          "name": "D4",
          "ticks": 49240,
          "time": 170.97194866666666,
          "velocity": 0.7007874015748031
        },
        {
          "duration": 0.08333319999999844,
          "durationTicks": 24,
          "midi": 55,
          "name": "G3",
          "ticks": 49240,
          "time": 170.97194866666666,
          "velocity": 0.5669291338582677
        },
        {
          "duration": 0.08680541666666386,
          "durationTicks": 25,
          "midi": 59,
          "name": "B3",
          "ticks": 49240,
          "time": 170.97194866666666,
          "velocity": 0.7322834645669292
        },
        {
          "duration": 0.14583309999997596,
          "durationTicks": 42,
          "midi": 43,
          "name": "G2",
          "ticks": 49280,
          "time": 171.11083733333334,
          "velocity": 0.7322834645669292
        },
        {
          "duration": 0.1145831499999872,
          "durationTicks": 33,
          "midi": 62,
          "name": "D4",
          "ticks": 49320,
          "time": 171.24972599999998,
          "velocity": 0.84251968503937
        },
        {
          "duration": 0.10763871666668479,
          "durationTicks": 31,
          "midi": 55,
          "name": "G3",
          "ticks": 49320,
          "time": 171.24972599999998,
          "velocity": 0.7322834645669292
        },
        {
          "duration": 0.1111109333333502,
          "durationTicks": 32,
          "midi": 59,
          "name": "B3",
          "ticks": 49320,
          "time": 171.24972599999998,
          "velocity": 0.84251968503937
        },
        {
          "duration": 0.07291654999997377,
          "durationTicks": 21,
          "midi": 55,
          "name": "G3",
          "ticks": 49400,
          "time": 171.52750333333333,
          "velocity": 0.6692913385826772
        },
        {
          "duration": 0.11111093333332178,
          "durationTicks": 32,
          "midi": 62,
          "name": "D4",
          "ticks": 49400,
          "time": 171.52750333333333,
          "velocity": 0.84251968503937
        },
        {
          "duration": 0.09722206666666011,
          "durationTicks": 28,
          "midi": 59,
          "name": "B3",
          "ticks": 49400,
          "time": 171.52750333333333,
          "velocity": 0.8031496062992126
        },
        {
          "duration": 0.12847201666664887,
          "durationTicks": 37,
          "midi": 46,
          "name": "A#2",
          "ticks": 49440,
          "time": 171.666392,
          "velocity": 0.889763779527559
        },
        {
          "duration": 0.06944433333333677,
          "durationTicks": 20,
          "midi": 62,
          "name": "D4",
          "ticks": 49480,
          "time": 171.80528066666665,
          "velocity": 0.4881889763779528
        },
        {
          "duration": 0.10069428333335395,
          "durationTicks": 29,
          "midi": 58,
          "name": "A#3",
          "ticks": 49480,
          "time": 171.80528066666665,
          "velocity": 0.4409448818897638
        },
        {
          "duration": 0.07986098333333302,
          "durationTicks": 23,
          "midi": 65,
          "name": "F4",
          "ticks": 49480,
          "time": 171.80528066666665,
          "velocity": 0.7007874015748031
        },
        {
          "duration": 0.10416650000001937,
          "durationTicks": 30,
          "midi": 46,
          "name": "A#2",
          "ticks": 49520,
          "time": 171.94416933333332,
          "velocity": 0.6692913385826772
        },
        {
          "duration": 0.11111093333332178,
          "durationTicks": 32,
          "midi": 58,
          "name": "A#3",
          "ticks": 49560,
          "time": 172.083058,
          "velocity": 0.6299212598425197
        },
        {
          "duration": 0.11805536666668104,
          "durationTicks": 34,
          "midi": 65,
          "name": "F4",
          "ticks": 49560,
          "time": 172.083058,
          "velocity": 0.7716535433070866
        },
        {
          "duration": 0.0937498499999947,
          "durationTicks": 27,
          "midi": 62,
          "name": "D4",
          "ticks": 49560,
          "time": 172.083058,
          "velocity": 0.8031496062992126
        },
        {
          "duration": 0.1354164499999797,
          "durationTicks": 39,
          "midi": 58,
          "name": "A#3",
          "ticks": 49640,
          "time": 172.36083533333334,
          "velocity": 0.5039370078740157
        },
        {
          "duration": 0.10763871666665636,
          "durationTicks": 31,
          "midi": 62,
          "name": "D4",
          "ticks": 49640,
          "time": 172.36083533333334,
          "velocity": 0.7716535433070866
        },
        {
          "duration": 0.1145831499999872,
          "durationTicks": 33,
          "midi": 65,
          "name": "F4",
          "ticks": 49640,
          "time": 172.36083533333334,
          "velocity": 0.7007874015748031
        },
        {
          "duration": 0.08680541666666386,
          "durationTicks": 25,
          "midi": 46,
          "name": "A#2",
          "ticks": 49680,
          "time": 172.499724,
          "velocity": 0.84251968503937
        },
        {
          "duration": 0.10416649999999095,
          "durationTicks": 30,
          "midi": 58,
          "name": "A#3",
          "ticks": 49720,
          "time": 172.63861266666666,
          "velocity": 0.4645669291338583
        },
        {
          "duration": 0.09027763333332928,
          "durationTicks": 26,
          "midi": 65,
          "name": "F4",
          "ticks": 49720,
          "time": 172.63861266666666,
          "velocity": 0.7007874015748031
        },
        {
          "duration": 0.09027763333332928,
          "durationTicks": 26,
          "midi": 62,
          "name": "D4",
          "ticks": 49720,
          "time": 172.63861266666666,
          "velocity": 0.7007874015748031
        },
        {
          "duration": 0.12152758333331803,
          "durationTicks": 35,
          "midi": 46,
          "name": "A#2",
          "ticks": 49760,
          "time": 172.77750133333333,
          "velocity": 0.8031496062992126
        },
        {
          "duration": 0.14236088333333896,
          "durationTicks": 41,
          "midi": 65,
          "name": "F4",
          "ticks": 49800,
          "time": 172.91638999999998,
          "velocity": 0.7716535433070866
        },
        {
          "duration": 0.17013861666669072,
          "durationTicks": 49,
          "midi": 58,
          "name": "A#3",
          "ticks": 49800,
          "time": 172.91638999999998,
          "velocity": 0.6299212598425197
        },
        {
          "duration": 0.14930531666669822,
          "durationTicks": 43,
          "midi": 62,
          "name": "D4",
          "ticks": 49800,
          "time": 172.91638999999998,
          "velocity": 0.84251968503937
        },
        {
          "duration": 0.09027763333332928,
          "durationTicks": 26,
          "midi": 65,
          "name": "F4",
          "ticks": 49880,
          "time": 173.19416733333333,
          "velocity": 0.7716535433070866
        },
        {
          "duration": 0.0763887666666676,
          "durationTicks": 22,
          "midi": 62,
          "name": "D4",
          "ticks": 49880,
          "time": 173.19416733333333,
          "velocity": 0.84251968503937
        },
        {
          "duration": 0.10069428333335395,
          "durationTicks": 29,
          "midi": 58,
          "name": "A#3",
          "ticks": 49880,
          "time": 173.19416733333333,
          "velocity": 0.7007874015748031
        },
        {
          "duration": 0.1145831499999872,
          "durationTicks": 33,
          "midi": 69,
          "name": "A4",
          "ticks": 49920,
          "time": 173.333056,
          "velocity": 0.7322834645669292
        },
        {
          "duration": 0.10416649999999095,
          "durationTicks": 30,
          "midi": 62,
          "name": "D4",
          "ticks": 49920,
          "time": 173.333056,
          "velocity": 0.7322834645669292
        },
        {
          "duration": 0.10416649999999095,
          "durationTicks": 30,
          "midi": 65,
          "name": "F4",
          "ticks": 49920,
          "time": 173.333056,
          "velocity": 0.7716535433070866
        },
        {
          "duration": 0.08333320000002686,
          "durationTicks": 24,
          "midi": 57,
          "name": "A3",
          "ticks": 49960,
          "time": 173.47194466666664,
          "velocity": 0.7007874015748031
        },
        {
          "duration": 0.06944433333333677,
          "durationTicks": 20,
          "midi": 50,
          "name": "D3",
          "ticks": 49960,
          "time": 173.47194466666664,
          "velocity": 0.7322834645669292
        },
        {
          "duration": 0.06597211666664293,
          "durationTicks": 19,
          "midi": 62,
          "name": "D4",
          "ticks": 50000,
          "time": 173.61083333333335,
          "velocity": 0.5984251968503937
        },
        {
          "duration": 0.0798609833333046,
          "durationTicks": 23,
          "midi": 69,
          "name": "A4",
          "ticks": 50000,
          "time": 173.61083333333335,
          "velocity": 0.7007874015748031
        },
        {
          "duration": 0.06597211666664293,
          "durationTicks": 19,
          "midi": 65,
          "name": "F4",
          "ticks": 50000,
          "time": 173.61083333333335,
          "velocity": 0.6692913385826772
        },
        {
          "duration": 0.05902768333334052,
          "durationTicks": 17,
          "midi": 50,
          "name": "D3",
          "ticks": 50040,
          "time": 173.749722,
          "velocity": 0.5984251968503937
        },
        {
          "duration": 0.07986098333333302,
          "durationTicks": 23,
          "midi": 57,
          "name": "A3",
          "ticks": 50040,
          "time": 173.749722,
          "velocity": 0.6692913385826772
        },
        {
          "duration": 0.05902768333334052,
          "durationTicks": 17,
          "midi": 62,
          "name": "D4",
          "ticks": 50080,
          "time": 173.88861066666666,
          "velocity": 0.4881889763779528
        },
        {
          "duration": 0.05555546666664668,
          "durationTicks": 16,
          "midi": 69,
          "name": "A4",
          "ticks": 50080,
          "time": 173.88861066666666,
          "velocity": 0.5984251968503937
        },
        {
          "duration": 0.06944433333333677,
          "durationTicks": 20,
          "midi": 65,
          "name": "F4",
          "ticks": 50080,
          "time": 173.88861066666666,
          "velocity": 0.6692913385826772
        },
        {
          "duration": 0.05555546666664668,
          "durationTicks": 16,
          "midi": 50,
          "name": "D3",
          "ticks": 50120,
          "time": 174.02749933333334,
          "velocity": 0.7007874015748031
        },
        {
          "duration": 0.06944433333330835,
          "durationTicks": 20,
          "midi": 57,
          "name": "A3",
          "ticks": 50120,
          "time": 174.02749933333334,
          "velocity": 0.6692913385826772
        },
        {
          "duration": 0.0763887666666676,
          "durationTicks": 22,
          "midi": 62,
          "name": "D4",
          "ticks": 50160,
          "time": 174.16638799999998,
          "velocity": 0.7322834645669292
        },
        {
          "duration": 0.0763887666666676,
          "durationTicks": 22,
          "midi": 65,
          "name": "F4",
          "ticks": 50160,
          "time": 174.16638799999998,
          "velocity": 0.7716535433070866
        },
        {
          "duration": 0.08333319999999844,
          "durationTicks": 24,
          "midi": 69,
          "name": "A4",
          "ticks": 50160,
          "time": 174.16638799999998,
          "velocity": 0.7322834645669292
        },
        {
          "duration": 0.06597211666667135,
          "durationTicks": 19,
          "midi": 57,
          "name": "A3",
          "ticks": 50200,
          "time": 174.30527666666666,
          "velocity": 0.5669291338582677
        },
        {
          "duration": 0.04861103333334427,
          "durationTicks": 14,
          "midi": 50,
          "name": "D3",
          "ticks": 50200,
          "time": 174.30527666666666,
          "velocity": 0.6299212598425197
        },
        {
          "duration": 0.0937498499999947,
          "durationTicks": 27,
          "midi": 69,
          "name": "A4",
          "ticks": 50240,
          "time": 174.44416533333333,
          "velocity": 0.7007874015748031
        },
        {
          "duration": 0.08333319999999844,
          "durationTicks": 24,
          "midi": 62,
          "name": "D4",
          "ticks": 50240,
          "time": 174.44416533333333,
          "velocity": 0.6692913385826772
        },
        {
          "duration": 0.0937498499999947,
          "durationTicks": 27,
          "midi": 65,
          "name": "F4",
          "ticks": 50240,
          "time": 174.44416533333333,
          "velocity": 0.7716535433070866
        },
        {
          "duration": 0.06944433333333677,
          "durationTicks": 20,
          "midi": 50,
          "name": "D3",
          "ticks": 50280,
          "time": 174.583054,
          "velocity": 0.7007874015748031
        },
        {
          "duration": 0.07986098333333302,
          "durationTicks": 23,
          "midi": 57,
          "name": "A3",
          "ticks": 50280,
          "time": 174.583054,
          "velocity": 0.7716535433070866
        },
        {
          "duration": 0.08333320000002686,
          "durationTicks": 24,
          "midi": 62,
          "name": "D4",
          "ticks": 50320,
          "time": 174.72194266666665,
          "velocity": 0.7007874015748031
        },
        {
          "duration": 0.07986098333333302,
          "durationTicks": 23,
          "midi": 65,
          "name": "F4",
          "ticks": 50320,
          "time": 174.72194266666665,
          "velocity": 0.7322834645669292
        },
        {
          "duration": 0.0902776333333577,
          "durationTicks": 26,
          "midi": 69,
          "name": "A4",
          "ticks": 50320,
          "time": 174.72194266666665,
          "velocity": 0.7322834645669292
        },
        {
          "duration": 0.0763887666666676,
          "durationTicks": 22,
          "midi": 50,
          "name": "D3",
          "ticks": 50360,
          "time": 174.86083133333332,
          "velocity": 0.8031496062992126
        },
        {
          "duration": 0.06249990000000594,
          "durationTicks": 18,
          "midi": 57,
          "name": "A3",
          "ticks": 50360,
          "time": 174.86083133333332,
          "velocity": 0.84251968503937
        },
        {
          "duration": 0.1909719166666548,
          "durationTicks": 55,
          "midi": 53,
          "name": "F3",
          "ticks": 50400,
          "time": 174.99972,
          "velocity": 0.5354330708661418
        },
        {
          "duration": 0.2048607833333449,
          "durationTicks": 59,
          "midi": 57,
          "name": "A3",
          "ticks": 50400,
          "time": 174.99972,
          "velocity": 0.7322834645669292
        },
        {
          "duration": 0.2048607833333449,
          "durationTicks": 59,
          "midi": 60,
          "name": "C4",
          "ticks": 50400,
          "time": 174.99972,
          "velocity": 0.7007874015748031
        },
        {
          "duration": 0.10069428333335395,
          "durationTicks": 29,
          "midi": 60,
          "name": "C4",
          "ticks": 50520,
          "time": 175.416386,
          "velocity": 0.7322834645669292
        },
        {
          "duration": 0.09722206666668853,
          "durationTicks": 28,
          "midi": 57,
          "name": "A3",
          "ticks": 50520,
          "time": 175.416386,
          "velocity": 0.7007874015748031
        },
        {
          "duration": 0.11111093333332178,
          "durationTicks": 32,
          "midi": 53,
          "name": "F3",
          "ticks": 50520,
          "time": 175.416386,
          "velocity": 0.6692913385826772
        },
        {
          "duration": 0.08680541666666386,
          "durationTicks": 25,
          "midi": 41,
          "name": "F2",
          "ticks": 50560,
          "time": 175.55527466666666,
          "velocity": 0.6692913385826772
        },
        {
          "duration": 0.08680541666666386,
          "durationTicks": 25,
          "midi": 53,
          "name": "F3",
          "ticks": 50600,
          "time": 175.69416333333334,
          "velocity": 0.5984251968503937
        },
        {
          "duration": 0.0937498499999947,
          "durationTicks": 27,
          "midi": 60,
          "name": "C4",
          "ticks": 50600,
          "time": 175.69416333333334,
          "velocity": 0.7007874015748031
        },
        {
          "duration": 0.0937498499999947,
          "durationTicks": 27,
          "midi": 57,
          "name": "A3",
          "ticks": 50600,
          "time": 175.69416333333334,
          "velocity": 0.6692913385826772
        },
        {
          "duration": 0.09374985000002312,
          "durationTicks": 27,
          "midi": 41,
          "name": "F2",
          "ticks": 50640,
          "time": 175.83305199999998,
          "velocity": 0.7322834645669292
        },
        {
          "duration": 0.07986098333333302,
          "durationTicks": 23,
          "midi": 53,
          "name": "F3",
          "ticks": 50680,
          "time": 175.97194066666665,
          "velocity": 0.4881889763779528
        },
        {
          "duration": 0.07291655000000219,
          "durationTicks": 21,
          "midi": 60,
          "name": "C4",
          "ticks": 50680,
          "time": 175.97194066666665,
          "velocity": 0.6299212598425197
        },
        {
          "duration": 0.08680541666669228,
          "durationTicks": 25,
          "midi": 57,
          "name": "A3",
          "ticks": 50680,
          "time": 175.97194066666665,
          "velocity": 0.6299212598425197
        },
        {
          "duration": 0.10416650000001937,
          "durationTicks": 30,
          "midi": 41,
          "name": "F2",
          "ticks": 50720,
          "time": 176.11082933333333,
          "velocity": 0.8031496062992126
        },
        {
          "duration": 0.10069428333332553,
          "durationTicks": 29,
          "midi": 60,
          "name": "C4",
          "ticks": 50760,
          "time": 176.249718,
          "velocity": 0.8031496062992126
        },
        {
          "duration": 0.09722206666666011,
          "durationTicks": 28,
          "midi": 53,
          "name": "F3",
          "ticks": 50760,
          "time": 176.249718,
          "velocity": 0.7007874015748031
        },
        {
          "duration": 0.10763871666665636,
          "durationTicks": 31,
          "midi": 57,
          "name": "A3",
          "ticks": 50760,
          "time": 176.249718,
          "velocity": 0.7716535433070866
        },
        {
          "duration": 0.10069428333335395,
          "durationTicks": 29,
          "midi": 41,
          "name": "F2",
          "ticks": 50800,
          "time": 176.38860666666665,
          "velocity": 0.7716535433070866
        },
        {
          "duration": 0.14583310000000438,
          "durationTicks": 42,
          "midi": 57,
          "name": "A3",
          "ticks": 50840,
          "time": 176.52749533333332,
          "velocity": 0.7322834645669292
        },
        {
          "duration": 0.15277753333336364,
          "durationTicks": 44,
          "midi": 60,
          "name": "C4",
          "ticks": 50840,
          "time": 176.52749533333332,
          "velocity": 0.7716535433070866
        },
        {
          "duration": 0.11805536666668104,
          "durationTicks": 34,
          "midi": 53,
          "name": "F3",
          "ticks": 50840,
          "time": 176.52749533333332,
          "velocity": 0.6299212598425197
        },
        {
          "duration": 0.1527775333333352,
          "durationTicks": 44,
          "midi": 43,
          "name": "G2",
          "ticks": 50880,
          "time": 176.666384,
          "velocity": 0.84251968503937
        },
        {
          "duration": 0.09374985000002312,
          "durationTicks": 27,
          "midi": 62,
          "name": "D4",
          "ticks": 50920,
          "time": 176.80527266666664,
          "velocity": 0.6692913385826772
        },
        {
          "duration": 0.09374985000002312,
          "durationTicks": 27,
          "midi": 55,
          "name": "G3",
          "ticks": 50920,
          "time": 176.80527266666664,
          "velocity": 0.5354330708661418
        },
        {
          "duration": 0.10069428333335395,
          "durationTicks": 29,
          "midi": 59,
          "name": "B3",
          "ticks": 50920,
          "time": 176.80527266666664,
          "velocity": 0.7007874015748031
        },
        {
          "duration": 0.10416649999999095,
          "durationTicks": 30,
          "midi": 43,
          "name": "G2",
          "ticks": 50960,
          "time": 176.94416133333334,
          "velocity": 0.7007874015748031
        },
        {
          "duration": 0.10763871666665636,
          "durationTicks": 31,
          "midi": 62,
          "name": "D4",
          "ticks": 51000,
          "time": 177.08305,
          "velocity": 0.7716535433070866
        },
        {
          "duration": 0.10069428333335395,
          "durationTicks": 29,
          "midi": 55,
          "name": "G3",
          "ticks": 51000,
          "time": 177.08305,
          "velocity": 0.6692913385826772
        },
        {
          "duration": 0.10069428333335395,
          "durationTicks": 29,
          "midi": 59,
          "name": "B3",
          "ticks": 51000,
          "time": 177.08305,
          "velocity": 0.7716535433070866
        },
        {
          "duration": 0.09027763333332928,
          "durationTicks": 26,
          "midi": 43,
          "name": "G2",
          "ticks": 51040,
          "time": 177.22193866666666,
          "velocity": 0.7007874015748031
        },
        {
          "duration": 0.10763871666665636,
          "durationTicks": 31,
          "midi": 62,
          "name": "D4",
          "ticks": 51080,
          "time": 177.36082733333333,
          "velocity": 0.7716535433070866
        },
        {
          "duration": 0.10069428333332553,
          "durationTicks": 29,
          "midi": 59,
          "name": "B3",
          "ticks": 51080,
          "time": 177.36082733333333,
          "velocity": 0.7322834645669292
        },
        {
          "duration": 0.10416649999999095,
          "durationTicks": 30,
          "midi": 55,
          "name": "G3",
          "ticks": 51080,
          "time": 177.36082733333333,
          "velocity": 0.6299212598425197
        },
        {
          "duration": 0.10069428333335395,
          "durationTicks": 29,
          "midi": 43,
          "name": "G2",
          "ticks": 51120,
          "time": 177.49971599999998,
          "velocity": 0.8031496062992126
        },
        {
          "duration": 0.07986098333333302,
          "durationTicks": 23,
          "midi": 62,
          "name": "D4",
          "ticks": 51160,
          "time": 177.63860466666665,
          "velocity": 0.7007874015748031
        },
        {
          "duration": 0.08333320000002686,
          "durationTicks": 24,
          "midi": 55,
          "name": "G3",
          "ticks": 51160,
          "time": 177.63860466666665,
          "velocity": 0.5669291338582677
        },
        {
          "duration": 0.08680541666669228,
          "durationTicks": 25,
          "midi": 59,
          "name": "B3",
          "ticks": 51160,
          "time": 177.63860466666665,
          "velocity": 0.7322834645669292
        },
        {
          "duration": 0.14583310000000438,
          "durationTicks": 42,
          "midi": 43,
          "name": "G2",
          "ticks": 51200,
          "time": 177.77749333333333,
          "velocity": 0.7322834645669292
        },
        {
          "duration": 0.1145831499999872,
          "durationTicks": 33,
          "midi": 62,
          "name": "D4",
          "ticks": 51240,
          "time": 177.916382,
          "velocity": 0.84251968503937
        },
        {
          "duration": 0.10763871666665636,
          "durationTicks": 31,
          "midi": 55,
          "name": "G3",
          "ticks": 51240,
          "time": 177.916382,
          "velocity": 0.7322834645669292
        },
        {
          "duration": 0.11111093333332178,
          "durationTicks": 32,
          "midi": 59,
          "name": "B3",
          "ticks": 51240,
          "time": 177.916382,
          "velocity": 0.84251968503937
        },
        {
          "duration": 0.07291654999997377,
          "durationTicks": 21,
          "midi": 55,
          "name": "G3",
          "ticks": 51320,
          "time": 178.19415933333335,
          "velocity": 0.6692913385826772
        },
        {
          "duration": 0.11111093333332178,
          "durationTicks": 32,
          "midi": 62,
          "name": "D4",
          "ticks": 51320,
          "time": 178.19415933333335,
          "velocity": 0.84251968503937
        },
        {
          "duration": 0.09722206666663169,
          "durationTicks": 28,
          "midi": 59,
          "name": "B3",
          "ticks": 51320,
          "time": 178.19415933333335,
          "velocity": 0.8031496062992126
        },
        {
          "duration": 0.1284720166666773,
          "durationTicks": 37,
          "midi": 46,
          "name": "A#2",
          "ticks": 51360,
          "time": 178.333048,
          "velocity": 0.889763779527559
        },
        {
          "duration": 0.06944433333333677,
          "durationTicks": 20,
          "midi": 62,
          "name": "D4",
          "ticks": 51400,
          "time": 178.47193666666666,
          "velocity": 0.4881889763779528
        },
        {
          "duration": 0.10069428333332553,
          "durationTicks": 29,
          "midi": 58,
          "name": "A#3",
          "ticks": 51400,
          "time": 178.47193666666666,
          "velocity": 0.4409448818897638
        },
        {
          "duration": 0.0798609833333046,
          "durationTicks": 23,
          "midi": 65,
          "name": "F4",
          "ticks": 51400,
          "time": 178.47193666666666,
          "velocity": 0.7007874015748031
        },
        {
          "duration": 0.10416649999999095,
          "durationTicks": 30,
          "midi": 46,
          "name": "A#2",
          "ticks": 51440,
          "time": 178.61082533333334,
          "velocity": 0.6692913385826772
        },
        {
          "duration": 0.11111093333332178,
          "durationTicks": 32,
          "midi": 58,
          "name": "A#3",
          "ticks": 51480,
          "time": 178.74971399999998,
          "velocity": 0.6299212598425197
        },
        {
          "duration": 0.11805536666668104,
          "durationTicks": 34,
          "midi": 65,
          "name": "F4",
          "ticks": 51480,
          "time": 178.74971399999998,
          "velocity": 0.7716535433070866
        },
        {
          "duration": 0.09374985000002312,
          "durationTicks": 27,
          "midi": 62,
          "name": "D4",
          "ticks": 51480,
          "time": 178.74971399999998,
          "velocity": 0.8031496062992126
        },
        {
          "duration": 0.13541645000000813,
          "durationTicks": 39,
          "midi": 58,
          "name": "A#3",
          "ticks": 51560,
          "time": 179.02749133333333,
          "velocity": 0.5039370078740157
        },
        {
          "duration": 0.10763871666665636,
          "durationTicks": 31,
          "midi": 62,
          "name": "D4",
          "ticks": 51560,
          "time": 179.02749133333333,
          "velocity": 0.7716535433070866
        },
        {
          "duration": 0.1145831499999872,
          "durationTicks": 33,
          "midi": 65,
          "name": "F4",
          "ticks": 51560,
          "time": 179.02749133333333,
          "velocity": 0.7007874015748031
        },
        {
          "duration": 0.08680541666663544,
          "durationTicks": 25,
          "midi": 46,
          "name": "A#2",
          "ticks": 51600,
          "time": 179.16638,
          "velocity": 0.84251968503937
        },
        {
          "duration": 0.10416649999999095,
          "durationTicks": 30,
          "midi": 58,
          "name": "A#3",
          "ticks": 51640,
          "time": 179.30526866666665,
          "velocity": 0.4645669291338583
        },
        {
          "duration": 0.0902776333333577,
          "durationTicks": 26,
          "midi": 65,
          "name": "F4",
          "ticks": 51640,
          "time": 179.30526866666665,
          "velocity": 0.7007874015748031
        },
        {
          "duration": 0.0902776333333577,
          "durationTicks": 26,
          "midi": 62,
          "name": "D4",
          "ticks": 51640,
          "time": 179.30526866666665,
          "velocity": 0.7007874015748031
        },
        {
          "duration": 0.12152758333331803,
          "durationTicks": 35,
          "midi": 46,
          "name": "A#2",
          "ticks": 51680,
          "time": 179.44415733333332,
          "velocity": 0.8031496062992126
        },
        {
          "duration": 0.14236088333331054,
          "durationTicks": 41,
          "midi": 65,
          "name": "F4",
          "ticks": 51720,
          "time": 179.583046,
          "velocity": 0.7716535433070866
        },
        {
          "duration": 0.1701386166666623,
          "durationTicks": 49,
          "midi": 58,
          "name": "A#3",
          "ticks": 51720,
          "time": 179.583046,
          "velocity": 0.6299212598425197
        },
        {
          "duration": 0.1493053166666698,
          "durationTicks": 43,
          "midi": 62,
          "name": "D4",
          "ticks": 51720,
          "time": 179.583046,
          "velocity": 0.84251968503937
        },
        {
          "duration": 0.09027763333330086,
          "durationTicks": 26,
          "midi": 65,
          "name": "F4",
          "ticks": 51800,
          "time": 179.86082333333334,
          "velocity": 0.7716535433070866
        },
        {
          "duration": 0.0763887666666676,
          "durationTicks": 22,
          "midi": 62,
          "name": "D4",
          "ticks": 51800,
          "time": 179.86082333333334,
          "velocity": 0.84251968503937
        },
        {
          "duration": 0.10069428333332553,
          "durationTicks": 29,
          "midi": 58,
          "name": "A#3",
          "ticks": 51800,
          "time": 179.86082333333334,
          "velocity": 0.7007874015748031
        },
        {
          "duration": 0.1145831499999872,
          "durationTicks": 33,
          "midi": 69,
          "name": "A4",
          "ticks": 51840,
          "time": 179.999712,
          "velocity": 0.7322834645669292
        },
        {
          "duration": 0.10416649999999095,
          "durationTicks": 30,
          "midi": 62,
          "name": "D4",
          "ticks": 51840,
          "time": 179.999712,
          "velocity": 0.7322834645669292
        },
        {
          "duration": 0.10416649999999095,
          "durationTicks": 30,
          "midi": 65,
          "name": "F4",
          "ticks": 51840,
          "time": 179.999712,
          "velocity": 0.7716535433070866
        },
        {
          "duration": 0.08333319999999844,
          "durationTicks": 24,
          "midi": 57,
          "name": "A3",
          "ticks": 51880,
          "time": 180.13860066666666,
          "velocity": 0.7007874015748031
        },
        {
          "duration": 0.06944433333333677,
          "durationTicks": 20,
          "midi": 50,
          "name": "D3",
          "ticks": 51880,
          "time": 180.13860066666666,
          "velocity": 0.7322834645669292
        },
        {
          "duration": 0.06597211666664293,
          "durationTicks": 19,
          "midi": 62,
          "name": "D4",
          "ticks": 51920,
          "time": 180.27748933333334,
          "velocity": 0.5984251968503937
        },
        {
          "duration": 0.07986098333333302,
          "durationTicks": 23,
          "midi": 69,
          "name": "A4",
          "ticks": 51920,
          "time": 180.27748933333334,
          "velocity": 0.7007874015748031
        },
        {
          "duration": 0.06597211666664293,
          "durationTicks": 19,
          "midi": 65,
          "name": "F4",
          "ticks": 51920,
          "time": 180.27748933333334,
          "velocity": 0.6692913385826772
        },
        {
          "duration": 0.05902768333334052,
          "durationTicks": 17,
          "midi": 50,
          "name": "D3",
          "ticks": 51960,
          "time": 180.41637799999998,
          "velocity": 0.5984251968503937
        },
        {
          "duration": 0.07986098333333302,
          "durationTicks": 23,
          "midi": 57,
          "name": "A3",
          "ticks": 51960,
          "time": 180.41637799999998,
          "velocity": 0.6692913385826772
        },
        {
          "duration": 0.05902768333334052,
          "durationTicks": 17,
          "midi": 62,
          "name": "D4",
          "ticks": 52000,
          "time": 180.55526666666665,
          "velocity": 0.4881889763779528
        },
        {
          "duration": 0.05555546666664668,
          "durationTicks": 16,
          "midi": 69,
          "name": "A4",
          "ticks": 52000,
          "time": 180.55526666666665,
          "velocity": 0.5984251968503937
        },
        {
          "duration": 0.06944433333333677,
          "durationTicks": 20,
          "midi": 65,
          "name": "F4",
          "ticks": 52000,
          "time": 180.55526666666665,
          "velocity": 0.6692913385826772
        },
        {
          "duration": 0.0555554666666751,
          "durationTicks": 16,
          "midi": 50,
          "name": "D3",
          "ticks": 52040,
          "time": 180.69415533333333,
          "velocity": 0.7007874015748031
        },
        {
          "duration": 0.06944433333333677,
          "durationTicks": 20,
          "midi": 57,
          "name": "A3",
          "ticks": 52040,
          "time": 180.69415533333333,
          "velocity": 0.6692913385826772
        },
        {
          "duration": 0.0763887666666676,
          "durationTicks": 22,
          "midi": 62,
          "name": "D4",
          "ticks": 52080,
          "time": 180.833044,
          "velocity": 0.7322834645669292
        },
        {
          "duration": 0.0763887666666676,
          "durationTicks": 22,
          "midi": 65,
          "name": "F4",
          "ticks": 52080,
          "time": 180.833044,
          "velocity": 0.7716535433070866
        },
        {
          "duration": 0.08333319999999844,
          "durationTicks": 24,
          "midi": 69,
          "name": "A4",
          "ticks": 52080,
          "time": 180.833044,
          "velocity": 0.7322834645669292
        },
        {
          "duration": 0.06597211666667135,
          "durationTicks": 19,
          "midi": 57,
          "name": "A3",
          "ticks": 52120,
          "time": 180.97193266666665,
          "velocity": 0.5669291338582677
        },
        {
          "duration": 0.04861103333334427,
          "durationTicks": 14,
          "midi": 50,
          "name": "D3",
          "ticks": 52120,
          "time": 180.97193266666665,
          "velocity": 0.6299212598425197
        },
        {
          "duration": 0.0937498499999947,
          "durationTicks": 27,
          "midi": 69,
          "name": "A4",
          "ticks": 52160,
          "time": 181.11082133333332,
          "velocity": 0.7007874015748031
        },
        {
          "duration": 0.08333319999999844,
          "durationTicks": 24,
          "midi": 62,
          "name": "D4",
          "ticks": 52160,
          "time": 181.11082133333332,
          "velocity": 0.6692913385826772
        },
        {
          "duration": 0.0937498499999947,
          "durationTicks": 27,
          "midi": 65,
          "name": "F4",
          "ticks": 52160,
          "time": 181.11082133333332,
          "velocity": 0.7716535433070866
        },
        {
          "duration": 0.06944433333333677,
          "durationTicks": 20,
          "midi": 50,
          "name": "D3",
          "ticks": 52200,
          "time": 181.24971,
          "velocity": 0.7007874015748031
        },
        {
          "duration": 0.07986098333333302,
          "durationTicks": 23,
          "midi": 57,
          "name": "A3",
          "ticks": 52200,
          "time": 181.24971,
          "velocity": 0.7716535433070866
        },
        {
          "duration": 0.08333320000002686,
          "durationTicks": 24,
          "midi": 62,
          "name": "D4",
          "ticks": 52240,
          "time": 181.38859866666664,
          "velocity": 0.7007874015748031
        },
        {
          "duration": 0.07986098333333302,
          "durationTicks": 23,
          "midi": 65,
          "name": "F4",
          "ticks": 52240,
          "time": 181.38859866666664,
          "velocity": 0.7322834645669292
        },
        {
          "duration": 0.0902776333333577,
          "durationTicks": 26,
          "midi": 69,
          "name": "A4",
          "ticks": 52240,
          "time": 181.38859866666664,
          "velocity": 0.7322834645669292
        },
        {
          "duration": 0.0763887666666676,
          "durationTicks": 22,
          "midi": 50,
          "name": "D3",
          "ticks": 52280,
          "time": 181.52748733333334,
          "velocity": 0.8031496062992126
        },
        {
          "duration": 0.062499899999977515,
          "durationTicks": 18,
          "midi": 57,
          "name": "A3",
          "ticks": 52280,
          "time": 181.52748733333334,
          "velocity": 0.84251968503937
        },
        {
          "duration": 0.1909719166666548,
          "durationTicks": 55,
          "midi": 53,
          "name": "F3",
          "ticks": 52320,
          "time": 181.66637599999999,
          "velocity": 0.5354330708661418
        },
        {
          "duration": 0.2048607833333449,
          "durationTicks": 59,
          "midi": 57,
          "name": "A3",
          "ticks": 52320,
          "time": 181.66637599999999,
          "velocity": 0.7322834645669292
        },
        {
          "duration": 0.2048607833333449,
          "durationTicks": 59,
          "midi": 60,
          "name": "C4",
          "ticks": 52320,
          "time": 181.66637599999999,
          "velocity": 0.7007874015748031
        },
        {
          "duration": 0.10069428333335395,
          "durationTicks": 29,
          "midi": 60,
          "name": "C4",
          "ticks": 52440,
          "time": 182.08304199999998,
          "velocity": 0.7322834645669292
        },
        {
          "duration": 0.09722206666668853,
          "durationTicks": 28,
          "midi": 57,
          "name": "A3",
          "ticks": 52440,
          "time": 182.08304199999998,
          "velocity": 0.7007874015748031
        },
        {
          "duration": 0.1111109333333502,
          "durationTicks": 32,
          "midi": 53,
          "name": "F3",
          "ticks": 52440,
          "time": 182.08304199999998,
          "velocity": 0.6692913385826772
        },
        {
          "duration": 0.08680541666669228,
          "durationTicks": 25,
          "midi": 41,
          "name": "F2",
          "ticks": 52480,
          "time": 182.22193066666665,
          "velocity": 0.6692913385826772
        },
        {
          "duration": 0.08680541666666386,
          "durationTicks": 25,
          "midi": 53,
          "name": "F3",
          "ticks": 52520,
          "time": 182.36081933333332,
          "velocity": 0.5984251968503937
        },
        {
          "duration": 0.0937498499999947,
          "durationTicks": 27,
          "midi": 60,
          "name": "C4",
          "ticks": 52520,
          "time": 182.36081933333332,
          "velocity": 0.7007874015748031
        },
        {
          "duration": 0.0937498499999947,
          "durationTicks": 27,
          "midi": 57,
          "name": "A3",
          "ticks": 52520,
          "time": 182.36081933333332,
          "velocity": 0.6692913385826772
        },
        {
          "duration": 0.0937498499999947,
          "durationTicks": 27,
          "midi": 41,
          "name": "F2",
          "ticks": 52560,
          "time": 182.499708,
          "velocity": 0.7322834645669292
        },
        {
          "duration": 0.07986098333333302,
          "durationTicks": 23,
          "midi": 53,
          "name": "F3",
          "ticks": 52600,
          "time": 182.63859666666664,
          "velocity": 0.4881889763779528
        },
        {
          "duration": 0.07291655000000219,
          "durationTicks": 21,
          "midi": 60,
          "name": "C4",
          "ticks": 52600,
          "time": 182.63859666666664,
          "velocity": 0.6299212598425197
        },
        {
          "duration": 0.08680541666669228,
          "durationTicks": 25,
          "midi": 57,
          "name": "A3",
          "ticks": 52600,
          "time": 182.63859666666664,
          "velocity": 0.6299212598425197
        },
        {
          "duration": 0.10416649999999095,
          "durationTicks": 30,
          "midi": 41,
          "name": "F2",
          "ticks": 52640,
          "time": 182.77748533333335,
          "velocity": 0.8031496062992126
        },
        {
          "duration": 0.10069428333332553,
          "durationTicks": 29,
          "midi": 60,
          "name": "C4",
          "ticks": 52680,
          "time": 182.916374,
          "velocity": 0.8031496062992126
        },
        {
          "duration": 0.09722206666666011,
          "durationTicks": 28,
          "midi": 53,
          "name": "F3",
          "ticks": 52680,
          "time": 182.916374,
          "velocity": 0.7007874015748031
        },
        {
          "duration": 0.10763871666665636,
          "durationTicks": 31,
          "midi": 57,
          "name": "A3",
          "ticks": 52680,
          "time": 182.916374,
          "velocity": 0.7716535433070866
        },
        {
          "duration": 0.10069428333332553,
          "durationTicks": 29,
          "midi": 41,
          "name": "F2",
          "ticks": 52720,
          "time": 183.05526266666666,
          "velocity": 0.7716535433070866
        },
        {
          "duration": 0.14583309999997596,
          "durationTicks": 42,
          "midi": 57,
          "name": "A3",
          "ticks": 52760,
          "time": 183.19415133333334,
          "velocity": 0.7322834645669292
        },
        {
          "duration": 0.1527775333333352,
          "durationTicks": 44,
          "midi": 60,
          "name": "C4",
          "ticks": 52760,
          "time": 183.19415133333334,
          "velocity": 0.7716535433070866
        },
        {
          "duration": 0.11805536666665262,
          "durationTicks": 34,
          "midi": 53,
          "name": "F3",
          "ticks": 52760,
          "time": 183.19415133333334,
          "velocity": 0.6299212598425197
        },
        {
          "duration": 0.1527775333333352,
          "durationTicks": 44,
          "midi": 43,
          "name": "G2",
          "ticks": 52800,
          "time": 183.33303999999998,
          "velocity": 0.84251968503937
        },
        {
          "duration": 0.0937498499999947,
          "durationTicks": 27,
          "midi": 62,
          "name": "D4",
          "ticks": 52840,
          "time": 183.47192866666666,
          "velocity": 0.6692913385826772
        },
        {
          "duration": 0.0937498499999947,
          "durationTicks": 27,
          "midi": 55,
          "name": "G3",
          "ticks": 52840,
          "time": 183.47192866666666,
          "velocity": 0.5354330708661418
        },
        {
          "duration": 0.10069428333332553,
          "durationTicks": 29,
          "midi": 59,
          "name": "B3",
          "ticks": 52840,
          "time": 183.47192866666666,
          "velocity": 0.7007874015748031
        },
        {
          "duration": 0.10416649999999095,
          "durationTicks": 30,
          "midi": 43,
          "name": "G2",
          "ticks": 52880,
          "time": 183.61081733333333,
          "velocity": 0.7007874015748031
        },
        {
          "duration": 0.10763871666665636,
          "durationTicks": 31,
          "midi": 62,
          "name": "D4",
          "ticks": 52920,
          "time": 183.749706,
          "velocity": 0.7716535433070866
        },
        {
          "duration": 0.10069428333332553,
          "durationTicks": 29,
          "midi": 55,
          "name": "G3",
          "ticks": 52920,
          "time": 183.749706,
          "velocity": 0.6692913385826772
        },
        {
          "duration": 0.10069428333332553,
          "durationTicks": 29,
          "midi": 59,
          "name": "B3",
          "ticks": 52920,
          "time": 183.749706,
          "velocity": 0.7716535433070866
        },
        {
          "duration": 0.0902776333333577,
          "durationTicks": 26,
          "midi": 43,
          "name": "G2",
          "ticks": 52960,
          "time": 183.88859466666665,
          "velocity": 0.7007874015748031
        },
        {
          "duration": 0.10763871666668479,
          "durationTicks": 31,
          "midi": 62,
          "name": "D4",
          "ticks": 53000,
          "time": 184.02748333333332,
          "velocity": 0.7716535433070866
        },
        {
          "duration": 0.10069428333335395,
          "durationTicks": 29,
          "midi": 59,
          "name": "B3",
          "ticks": 53000,
          "time": 184.02748333333332,
          "velocity": 0.7322834645669292
        },
        {
          "duration": 0.10416650000001937,
          "durationTicks": 30,
          "midi": 55,
          "name": "G3",
          "ticks": 53000,
          "time": 184.02748333333332,
          "velocity": 0.6299212598425197
        },
        {
          "duration": 0.10069428333332553,
          "durationTicks": 29,
          "midi": 43,
          "name": "G2",
          "ticks": 53040,
          "time": 184.166372,
          "velocity": 0.8031496062992126
        },
        {
          "duration": 0.07986098333333302,
          "durationTicks": 23,
          "midi": 62,
          "name": "D4",
          "ticks": 53080,
          "time": 184.30526066666664,
          "velocity": 0.7007874015748031
        },
        {
          "duration": 0.08333320000002686,
          "durationTicks": 24,
          "midi": 55,
          "name": "G3",
          "ticks": 53080,
          "time": 184.30526066666664,
          "velocity": 0.5669291338582677
        },
        {
          "duration": 0.08680541666669228,
          "durationTicks": 25,
          "midi": 59,
          "name": "B3",
          "ticks": 53080,
          "time": 184.30526066666664,
          "velocity": 0.7322834645669292
        },
        {
          "duration": 0.14583309999997596,
          "durationTicks": 42,
          "midi": 43,
          "name": "G2",
          "ticks": 53120,
          "time": 184.44414933333334,
          "velocity": 0.7322834645669292
        },
        {
          "duration": 0.1145831499999872,
          "durationTicks": 33,
          "midi": 62,
          "name": "D4",
          "ticks": 53160,
          "time": 184.583038,
          "velocity": 0.84251968503937
        },
        {
          "duration": 0.10763871666665636,
          "durationTicks": 31,
          "midi": 55,
          "name": "G3",
          "ticks": 53160,
          "time": 184.583038,
          "velocity": 0.7322834645669292
        },
        {
          "duration": 0.11111093333332178,
          "durationTicks": 32,
          "midi": 59,
          "name": "B3",
          "ticks": 53160,
          "time": 184.583038,
          "velocity": 0.84251968503937
        },
        {
          "duration": 0.07291654999997377,
          "durationTicks": 21,
          "midi": 55,
          "name": "G3",
          "ticks": 53240,
          "time": 184.86081533333333,
          "velocity": 0.6692913385826772
        },
        {
          "duration": 0.11111093333332178,
          "durationTicks": 32,
          "midi": 62,
          "name": "D4",
          "ticks": 53240,
          "time": 184.86081533333333,
          "velocity": 0.84251968503937
        },
        {
          "duration": 0.09722206666666011,
          "durationTicks": 28,
          "midi": 59,
          "name": "B3",
          "ticks": 53240,
          "time": 184.86081533333333,
          "velocity": 0.8031496062992126
        },
        {
          "duration": 0.1284720166666773,
          "durationTicks": 37,
          "midi": 46,
          "name": "A#2",
          "ticks": 53280,
          "time": 184.99970399999998,
          "velocity": 0.889763779527559
        },
        {
          "duration": 0.06944433333333677,
          "durationTicks": 20,
          "midi": 62,
          "name": "D4",
          "ticks": 53320,
          "time": 185.13859266666665,
          "velocity": 0.4881889763779528
        },
        {
          "duration": 0.10069428333332553,
          "durationTicks": 29,
          "midi": 58,
          "name": "A#3",
          "ticks": 53320,
          "time": 185.13859266666665,
          "velocity": 0.4409448818897638
        },
        {
          "duration": 0.07986098333333302,
          "durationTicks": 23,
          "midi": 65,
          "name": "F4",
          "ticks": 53320,
          "time": 185.13859266666665,
          "velocity": 0.7007874015748031
        },
        {
          "duration": 0.10416650000001937,
          "durationTicks": 30,
          "midi": 46,
          "name": "A#2",
          "ticks": 53360,
          "time": 185.27748133333333,
          "velocity": 0.6692913385826772
        },
        {
          "duration": 0.11111093333332178,
          "durationTicks": 32,
          "midi": 58,
          "name": "A#3",
          "ticks": 53400,
          "time": 185.41637,
          "velocity": 0.6299212598425197
        },
        {
          "duration": 0.11805536666668104,
          "durationTicks": 34,
          "midi": 65,
          "name": "F4",
          "ticks": 53400,
          "time": 185.41637,
          "velocity": 0.7716535433070866
        },
        {
          "duration": 0.0937498499999947,
          "durationTicks": 27,
          "midi": 62,
          "name": "D4",
          "ticks": 53400,
          "time": 185.41637,
          "velocity": 0.8031496062992126
        },
        {
          "duration": 0.13541645000000813,
          "durationTicks": 39,
          "midi": 58,
          "name": "A#3",
          "ticks": 53480,
          "time": 185.69414733333332,
          "velocity": 0.5039370078740157
        },
        {
          "duration": 0.10763871666668479,
          "durationTicks": 31,
          "midi": 62,
          "name": "D4",
          "ticks": 53480,
          "time": 185.69414733333332,
          "velocity": 0.7716535433070866
        },
        {
          "duration": 0.11458315000001562,
          "durationTicks": 33,
          "midi": 65,
          "name": "F4",
          "ticks": 53480,
          "time": 185.69414733333332,
          "velocity": 0.7007874015748031
        },
        {
          "duration": 0.08680541666666386,
          "durationTicks": 25,
          "midi": 46,
          "name": "A#2",
          "ticks": 53520,
          "time": 185.833036,
          "velocity": 0.84251968503937
        },
        {
          "duration": 0.10416650000001937,
          "durationTicks": 30,
          "midi": 58,
          "name": "A#3",
          "ticks": 53560,
          "time": 185.97192466666664,
          "velocity": 0.4645669291338583
        },
        {
          "duration": 0.0902776333333577,
          "durationTicks": 26,
          "midi": 65,
          "name": "F4",
          "ticks": 53560,
          "time": 185.97192466666664,
          "velocity": 0.7007874015748031
        },
        {
          "duration": 0.0902776333333577,
          "durationTicks": 26,
          "midi": 62,
          "name": "D4",
          "ticks": 53560,
          "time": 185.97192466666664,
          "velocity": 0.7007874015748031
        },
        {
          "duration": 0.12152758333331803,
          "durationTicks": 35,
          "midi": 46,
          "name": "A#2",
          "ticks": 53600,
          "time": 186.11081333333334,
          "velocity": 0.8031496062992126
        },
        {
          "duration": 0.14236088333333896,
          "durationTicks": 41,
          "midi": 65,
          "name": "F4",
          "ticks": 53640,
          "time": 186.24970199999998,
          "velocity": 0.7716535433070866
        },
        {
          "duration": 0.17013861666669072,
          "durationTicks": 49,
          "midi": 58,
          "name": "A#3",
          "ticks": 53640,
          "time": 186.24970199999998,
          "velocity": 0.6299212598425197
        },
        {
          "duration": 0.1493053166666698,
          "durationTicks": 43,
          "midi": 62,
          "name": "D4",
          "ticks": 53640,
          "time": 186.24970199999998,
          "velocity": 0.84251968503937
        },
        {
          "duration": 0.09027763333332928,
          "durationTicks": 26,
          "midi": 65,
          "name": "F4",
          "ticks": 53720,
          "time": 186.52747933333333,
          "velocity": 0.7716535433070866
        },
        {
          "duration": 0.0763887666666676,
          "durationTicks": 22,
          "midi": 62,
          "name": "D4",
          "ticks": 53720,
          "time": 186.52747933333333,
          "velocity": 0.84251968503937
        },
        {
          "duration": 0.10069428333332553,
          "durationTicks": 29,
          "midi": 58,
          "name": "A#3",
          "ticks": 53720,
          "time": 186.52747933333333,
          "velocity": 0.7007874015748031
        },
        {
          "duration": 0.11458315000001562,
          "durationTicks": 33,
          "midi": 69,
          "name": "A4",
          "ticks": 53760,
          "time": 186.66636799999998,
          "velocity": 0.7322834645669292
        },
        {
          "duration": 0.10416650000001937,
          "durationTicks": 30,
          "midi": 62,
          "name": "D4",
          "ticks": 53760,
          "time": 186.66636799999998,
          "velocity": 0.7322834645669292
        },
        {
          "duration": 0.10416650000001937,
          "durationTicks": 30,
          "midi": 65,
          "name": "F4",
          "ticks": 53760,
          "time": 186.66636799999998,
          "velocity": 0.7716535433070866
        },
        {
          "duration": 0.08333320000002686,
          "durationTicks": 24,
          "midi": 57,
          "name": "A3",
          "ticks": 53800,
          "time": 186.80525666666665,
          "velocity": 0.7007874015748031
        },
        {
          "duration": 0.06944433333333677,
          "durationTicks": 20,
          "midi": 50,
          "name": "D3",
          "ticks": 53800,
          "time": 186.80525666666665,
          "velocity": 0.7322834645669292
        },
        {
          "duration": 0.06597211666667135,
          "durationTicks": 19,
          "midi": 62,
          "name": "D4",
          "ticks": 53840,
          "time": 186.94414533333332,
          "velocity": 0.5984251968503937
        },
        {
          "duration": 0.07986098333333302,
          "durationTicks": 23,
          "midi": 69,
          "name": "A4",
          "ticks": 53840,
          "time": 186.94414533333332,
          "velocity": 0.7007874015748031
        },
        {
          "duration": 0.06597211666667135,
          "durationTicks": 19,
          "midi": 65,
          "name": "F4",
          "ticks": 53840,
          "time": 186.94414533333332,
          "velocity": 0.6692913385826772
        },
        {
          "duration": 0.0590276833333121,
          "durationTicks": 17,
          "midi": 50,
          "name": "D3",
          "ticks": 53880,
          "time": 187.083034,
          "velocity": 0.5984251968503937
        },
        {
          "duration": 0.07986098333333302,
          "durationTicks": 23,
          "midi": 57,
          "name": "A3",
          "ticks": 53880,
          "time": 187.083034,
          "velocity": 0.6692913385826772
        },
        {
          "duration": 0.05902768333336894,
          "durationTicks": 17,
          "midi": 62,
          "name": "D4",
          "ticks": 53920,
          "time": 187.22192266666664,
          "velocity": 0.4881889763779528
        },
        {
          "duration": 0.0555554666666751,
          "durationTicks": 16,
          "midi": 69,
          "name": "A4",
          "ticks": 53920,
          "time": 187.22192266666664,
          "velocity": 0.5984251968503937
        },
        {
          "duration": 0.06944433333333677,
          "durationTicks": 20,
          "midi": 65,
          "name": "F4",
          "ticks": 53920,
          "time": 187.22192266666664,
          "velocity": 0.6692913385826772
        },
        {
          "duration": 0.05555546666664668,
          "durationTicks": 16,
          "midi": 50,
          "name": "D3",
          "ticks": 53960,
          "time": 187.36081133333334,
          "velocity": 0.7007874015748031
        },
        {
          "duration": 0.06944433333330835,
          "durationTicks": 20,
          "midi": 57,
          "name": "A3",
          "ticks": 53960,
          "time": 187.36081133333334,
          "velocity": 0.6692913385826772
        },
        {
          "duration": 0.0763887666666676,
          "durationTicks": 22,
          "midi": 62,
          "name": "D4",
          "ticks": 54000,
          "time": 187.4997,
          "velocity": 0.7322834645669292
        },
        {
          "duration": 0.0763887666666676,
          "durationTicks": 22,
          "midi": 65,
          "name": "F4",
          "ticks": 54000,
          "time": 187.4997,
          "velocity": 0.7716535433070866
        },
        {
          "duration": 0.08333319999999844,
          "durationTicks": 24,
          "midi": 69,
          "name": "A4",
          "ticks": 54000,
          "time": 187.4997,
          "velocity": 0.7322834645669292
        },
        {
          "duration": 0.06597211666667135,
          "durationTicks": 19,
          "midi": 57,
          "name": "A3",
          "ticks": 54040,
          "time": 187.63858866666666,
          "velocity": 0.5669291338582677
        },
        {
          "duration": 0.048611033333315845,
          "durationTicks": 14,
          "midi": 50,
          "name": "D3",
          "ticks": 54040,
          "time": 187.63858866666666,
          "velocity": 0.6299212598425197
        },
        {
          "duration": 0.0937498499999947,
          "durationTicks": 27,
          "midi": 69,
          "name": "A4",
          "ticks": 54080,
          "time": 187.77747733333334,
          "velocity": 0.7007874015748031
        },
        {
          "duration": 0.08333319999999844,
          "durationTicks": 24,
          "midi": 62,
          "name": "D4",
          "ticks": 54080,
          "time": 187.77747733333334,
          "velocity": 0.6692913385826772
        },
        {
          "duration": 0.0937498499999947,
          "durationTicks": 27,
          "midi": 65,
          "name": "F4",
          "ticks": 54080,
          "time": 187.77747733333334,
          "velocity": 0.7716535433070866
        },
        {
          "duration": 0.06944433333333677,
          "durationTicks": 20,
          "midi": 50,
          "name": "D3",
          "ticks": 54120,
          "time": 187.91636599999998,
          "velocity": 0.7007874015748031
        },
        {
          "duration": 0.07986098333333302,
          "durationTicks": 23,
          "midi": 57,
          "name": "A3",
          "ticks": 54120,
          "time": 187.91636599999998,
          "velocity": 0.7716535433070866
        },
        {
          "duration": 0.08333320000002686,
          "durationTicks": 24,
          "midi": 62,
          "name": "D4",
          "ticks": 54160,
          "time": 188.05525466666666,
          "velocity": 0.7007874015748031
        },
        {
          "duration": 0.07986098333333302,
          "durationTicks": 23,
          "midi": 65,
          "name": "F4",
          "ticks": 54160,
          "time": 188.05525466666666,
          "velocity": 0.7322834645669292
        },
        {
          "duration": 0.09027763333332928,
          "durationTicks": 26,
          "midi": 69,
          "name": "A4",
          "ticks": 54160,
          "time": 188.05525466666666,
          "velocity": 0.7322834645669292
        },
        {
          "duration": 0.0763887666666676,
          "durationTicks": 22,
          "midi": 50,
          "name": "D3",
          "ticks": 54200,
          "time": 188.19414333333333,
          "velocity": 0.8031496062992126
        },
        {
          "duration": 0.06249990000000594,
          "durationTicks": 18,
          "midi": 57,
          "name": "A3",
          "ticks": 54200,
          "time": 188.19414333333333,
          "velocity": 0.84251968503937
        },
        {
          "duration": 0.1909719166666548,
          "durationTicks": 55,
          "midi": 53,
          "name": "F3",
          "ticks": 54240,
          "time": 188.333032,
          "velocity": 0.5354330708661418
        },
        {
          "duration": 0.20486078333331648,
          "durationTicks": 59,
          "midi": 57,
          "name": "A3",
          "ticks": 54240,
          "time": 188.333032,
          "velocity": 0.7322834645669292
        },
        {
          "duration": 0.20486078333331648,
          "durationTicks": 59,
          "midi": 60,
          "name": "C4",
          "ticks": 54240,
          "time": 188.333032,
          "velocity": 0.7007874015748031
        },
        {
          "duration": 0.10069428333332553,
          "durationTicks": 29,
          "midi": 60,
          "name": "C4",
          "ticks": 54360,
          "time": 188.749698,
          "velocity": 0.7322834645669292
        },
        {
          "duration": 0.09722206666666011,
          "durationTicks": 28,
          "midi": 57,
          "name": "A3",
          "ticks": 54360,
          "time": 188.749698,
          "velocity": 0.7007874015748031
        },
        {
          "duration": 0.11111093333332178,
          "durationTicks": 32,
          "midi": 53,
          "name": "F3",
          "ticks": 54360,
          "time": 188.749698,
          "velocity": 0.6692913385826772
        },
        {
          "duration": 0.08680541666669228,
          "durationTicks": 25,
          "midi": 41,
          "name": "F2",
          "ticks": 54400,
          "time": 188.88858666666664,
          "velocity": 0.6692913385826772
        },
        {
          "duration": 0.08680541666663544,
          "durationTicks": 25,
          "midi": 53,
          "name": "F3",
          "ticks": 54440,
          "time": 189.02747533333334,
          "velocity": 0.5984251968503937
        },
        {
          "duration": 0.09374984999996627,
          "durationTicks": 27,
          "midi": 60,
          "name": "C4",
          "ticks": 54440,
          "time": 189.02747533333334,
          "velocity": 0.7007874015748031
        },
        {
          "duration": 0.09374984999996627,
          "durationTicks": 27,
          "midi": 57,
          "name": "A3",
          "ticks": 54440,
          "time": 189.02747533333334,
          "velocity": 0.6692913385826772
        },
        {
          "duration": 0.09374985000002312,
          "durationTicks": 27,
          "midi": 41,
          "name": "F2",
          "ticks": 54480,
          "time": 189.166364,
          "velocity": 0.7322834645669292
        },
        {
          "duration": 0.07986098333333302,
          "durationTicks": 23,
          "midi": 53,
          "name": "F3",
          "ticks": 54520,
          "time": 189.30525266666666,
          "velocity": 0.4881889763779528
        },
        {
          "duration": 0.07291655000000219,
          "durationTicks": 21,
          "midi": 60,
          "name": "C4",
          "ticks": 54520,
          "time": 189.30525266666666,
          "velocity": 0.6299212598425197
        },
        {
          "duration": 0.08680541666666386,
          "durationTicks": 25,
          "midi": 57,
          "name": "A3",
          "ticks": 54520,
          "time": 189.30525266666666,
          "velocity": 0.6299212598425197
        },
        {
          "duration": 0.10416649999999095,
          "durationTicks": 30,
          "midi": 41,
          "name": "F2",
          "ticks": 54560,
          "time": 189.44414133333333,
          "velocity": 0.8031496062992126
        },
        {
          "duration": 0.10069428333335395,
          "durationTicks": 29,
          "midi": 60,
          "name": "C4",
          "ticks": 54600,
          "time": 189.58302999999998,
          "velocity": 0.8031496062992126
        },
        {
          "duration": 0.09722206666668853,
          "durationTicks": 28,
          "midi": 53,
          "name": "F3",
          "ticks": 54600,
          "time": 189.58302999999998,
          "velocity": 0.7007874015748031
        },
        {
          "duration": 0.10763871666668479,
          "durationTicks": 31,
          "midi": 57,
          "name": "A3",
          "ticks": 54600,
          "time": 189.58302999999998,
          "velocity": 0.7716535433070866
        },
        {
          "duration": 0.10069428333332553,
          "durationTicks": 29,
          "midi": 41,
          "name": "F2",
          "ticks": 54640,
          "time": 189.72191866666665,
          "velocity": 0.7716535433070866
        },
        {
          "duration": 0.14583310000000438,
          "durationTicks": 42,
          "midi": 57,
          "name": "A3",
          "ticks": 54680,
          "time": 189.86080733333333,
          "velocity": 0.7322834645669292
        },
        {
          "duration": 0.1527775333333352,
          "durationTicks": 44,
          "midi": 60,
          "name": "C4",
          "ticks": 54680,
          "time": 189.86080733333333,
          "velocity": 0.7716535433070866
        },
        {
          "duration": 0.11805536666665262,
          "durationTicks": 34,
          "midi": 53,
          "name": "F3",
          "ticks": 54680,
          "time": 189.86080733333333,
          "velocity": 0.6299212598425197
        },
        {
          "duration": 0.1527775333333352,
          "durationTicks": 44,
          "midi": 43,
          "name": "G2",
          "ticks": 54720,
          "time": 189.999696,
          "velocity": 0.84251968503937
        },
        {
          "duration": 0.09374985000002312,
          "durationTicks": 27,
          "midi": 62,
          "name": "D4",
          "ticks": 54760,
          "time": 190.13858466666665,
          "velocity": 0.6692913385826772
        },
        {
          "duration": 0.09374985000002312,
          "durationTicks": 27,
          "midi": 55,
          "name": "G3",
          "ticks": 54760,
          "time": 190.13858466666665,
          "velocity": 0.5354330708661418
        },
        {
          "duration": 0.10069428333335395,
          "durationTicks": 29,
          "midi": 59,
          "name": "B3",
          "ticks": 54760,
          "time": 190.13858466666665,
          "velocity": 0.7007874015748031
        },
        {
          "duration": 0.10416650000001937,
          "durationTicks": 30,
          "midi": 43,
          "name": "G2",
          "ticks": 54800,
          "time": 190.27747333333332,
          "velocity": 0.7007874015748031
        },
        {
          "duration": 0.10763871666665636,
          "durationTicks": 31,
          "midi": 62,
          "name": "D4",
          "ticks": 54840,
          "time": 190.416362,
          "velocity": 0.7716535433070866
        },
        {
          "duration": 0.10069428333332553,
          "durationTicks": 29,
          "midi": 55,
          "name": "G3",
          "ticks": 54840,
          "time": 190.416362,
          "velocity": 0.6692913385826772
        },
        {
          "duration": 0.10069428333332553,
          "durationTicks": 29,
          "midi": 59,
          "name": "B3",
          "ticks": 54840,
          "time": 190.416362,
          "velocity": 0.7716535433070866
        },
        {
          "duration": 0.0902776333333577,
          "durationTicks": 26,
          "midi": 43,
          "name": "G2",
          "ticks": 54880,
          "time": 190.55525066666664,
          "velocity": 0.7007874015748031
        },
        {
          "duration": 0.10763871666665636,
          "durationTicks": 31,
          "midi": 62,
          "name": "D4",
          "ticks": 54920,
          "time": 190.69413933333334,
          "velocity": 0.7716535433070866
        },
        {
          "duration": 0.10069428333332553,
          "durationTicks": 29,
          "midi": 59,
          "name": "B3",
          "ticks": 54920,
          "time": 190.69413933333334,
          "velocity": 0.7322834645669292
        },
        {
          "duration": 0.10416649999999095,
          "durationTicks": 30,
          "midi": 55,
          "name": "G3",
          "ticks": 54920,
          "time": 190.69413933333334,
          "velocity": 0.6299212598425197
        },
        {
          "duration": 0.10069428333335395,
          "durationTicks": 29,
          "midi": 43,
          "name": "G2",
          "ticks": 54960,
          "time": 190.83302799999998,
          "velocity": 0.8031496062992126
        },
        {
          "duration": 0.07986098333333302,
          "durationTicks": 23,
          "midi": 62,
          "name": "D4",
          "ticks": 55000,
          "time": 190.97191666666666,
          "velocity": 0.7007874015748031
        },
        {
          "duration": 0.08333319999999844,
          "durationTicks": 24,
          "midi": 55,
          "name": "G3",
          "ticks": 55000,
          "time": 190.97191666666666,
          "velocity": 0.5669291338582677
        },
        {
          "duration": 0.08680541666666386,
          "durationTicks": 25,
          "midi": 59,
          "name": "B3",
          "ticks": 55000,
          "time": 190.97191666666666,
          "velocity": 0.7322834645669292
        },
        {
          "duration": 0.14583309999997596,
          "durationTicks": 42,
          "midi": 43,
          "name": "G2",
          "ticks": 55040,
          "time": 191.11080533333333,
          "velocity": 0.7322834645669292
        },
        {
          "duration": 0.1145831499999872,
          "durationTicks": 33,
          "midi": 62,
          "name": "D4",
          "ticks": 55080,
          "time": 191.249694,
          "velocity": 0.84251968503937
        },
        {
          "duration": 0.10763871666665636,
          "durationTicks": 31,
          "midi": 55,
          "name": "G3",
          "ticks": 55080,
          "time": 191.249694,
          "velocity": 0.7322834645669292
        },
        {
          "duration": 0.11111093333332178,
          "durationTicks": 32,
          "midi": 59,
          "name": "B3",
          "ticks": 55080,
          "time": 191.249694,
          "velocity": 0.84251968503937
        },
        {
          "duration": 0.07291655000000219,
          "durationTicks": 21,
          "midi": 55,
          "name": "G3",
          "ticks": 55160,
          "time": 191.52747133333332,
          "velocity": 0.6692913385826772
        },
        {
          "duration": 0.11111093333332178,
          "durationTicks": 32,
          "midi": 62,
          "name": "D4",
          "ticks": 55160,
          "time": 191.52747133333332,
          "velocity": 0.84251968503937
        },
        {
          "duration": 0.09722206666666011,
          "durationTicks": 28,
          "midi": 59,
          "name": "B3",
          "ticks": 55160,
          "time": 191.52747133333332,
          "velocity": 0.8031496062992126
        },
        {
          "duration": 0.12847201666664887,
          "durationTicks": 37,
          "midi": 46,
          "name": "A#2",
          "ticks": 55200,
          "time": 191.66636,
          "velocity": 0.889763779527559
        },
        {
          "duration": 0.06944433333333677,
          "durationTicks": 20,
          "midi": 62,
          "name": "D4",
          "ticks": 55240,
          "time": 191.80524866666664,
          "velocity": 0.4881889763779528
        },
        {
          "duration": 0.10069428333335395,
          "durationTicks": 29,
          "midi": 58,
          "name": "A#3",
          "ticks": 55240,
          "time": 191.80524866666664,
          "velocity": 0.4409448818897638
        },
        {
          "duration": 0.07986098333333302,
          "durationTicks": 23,
          "midi": 65,
          "name": "F4",
          "ticks": 55240,
          "time": 191.80524866666664,
          "velocity": 0.7007874015748031
        },
        {
          "duration": 0.10416649999999095,
          "durationTicks": 30,
          "midi": 46,
          "name": "A#2",
          "ticks": 55280,
          "time": 191.94413733333334,
          "velocity": 0.6692913385826772
        },
        {
          "duration": 0.11111093333332178,
          "durationTicks": 32,
          "midi": 58,
          "name": "A#3",
          "ticks": 55320,
          "time": 192.083026,
          "velocity": 0.6299212598425197
        },
        {
          "duration": 0.11805536666668104,
          "durationTicks": 34,
          "midi": 65,
          "name": "F4",
          "ticks": 55320,
          "time": 192.083026,
          "velocity": 0.7716535433070866
        },
        {
          "duration": 0.09374985000002312,
          "durationTicks": 27,
          "midi": 62,
          "name": "D4",
          "ticks": 55320,
          "time": 192.083026,
          "velocity": 0.8031496062992126
        },
        {
          "duration": 0.1354164499999797,
          "durationTicks": 39,
          "midi": 58,
          "name": "A#3",
          "ticks": 55400,
          "time": 192.36080333333334,
          "velocity": 0.5039370078740157
        },
        {
          "duration": 0.10763871666665636,
          "durationTicks": 31,
          "midi": 62,
          "name": "D4",
          "ticks": 55400,
          "time": 192.36080333333334,
          "velocity": 0.7716535433070866
        },
        {
          "duration": 0.1145831499999872,
          "durationTicks": 33,
          "midi": 65,
          "name": "F4",
          "ticks": 55400,
          "time": 192.36080333333334,
          "velocity": 0.7007874015748031
        },
        {
          "duration": 0.08680541666666386,
          "durationTicks": 25,
          "midi": 46,
          "name": "A#2",
          "ticks": 55440,
          "time": 192.49969199999998,
          "velocity": 0.84251968503937
        },
        {
          "duration": 0.10416649999999095,
          "durationTicks": 30,
          "midi": 58,
          "name": "A#3",
          "ticks": 55480,
          "time": 192.63858066666666,
          "velocity": 0.4645669291338583
        },
        {
          "duration": 0.09027763333332928,
          "durationTicks": 26,
          "midi": 65,
          "name": "F4",
          "ticks": 55480,
          "time": 192.63858066666666,
          "velocity": 0.7007874015748031
        },
        {
          "duration": 0.09027763333332928,
          "durationTicks": 26,
          "midi": 62,
          "name": "D4",
          "ticks": 55480,
          "time": 192.63858066666666,
          "velocity": 0.7007874015748031
        },
        {
          "duration": 0.12152758333331803,
          "durationTicks": 35,
          "midi": 46,
          "name": "A#2",
          "ticks": 55520,
          "time": 192.77746933333333,
          "velocity": 0.8031496062992126
        },
        {
          "duration": 0.14236088333331054,
          "durationTicks": 41,
          "midi": 65,
          "name": "F4",
          "ticks": 55560,
          "time": 192.916358,
          "velocity": 0.7716535433070866
        },
        {
          "duration": 0.1701386166666623,
          "durationTicks": 49,
          "midi": 58,
          "name": "A#3",
          "ticks": 55560,
          "time": 192.916358,
          "velocity": 0.6299212598425197
        },
        {
          "duration": 0.1493053166666698,
          "durationTicks": 43,
          "midi": 62,
          "name": "D4",
          "ticks": 55560,
          "time": 192.916358,
          "velocity": 0.84251968503937
        },
        {
          "duration": 0.09027763333332928,
          "durationTicks": 26,
          "midi": 65,
          "name": "F4",
          "ticks": 55640,
          "time": 193.19413533333332,
          "velocity": 0.7716535433070866
        },
        {
          "duration": 0.0763887666666676,
          "durationTicks": 22,
          "midi": 62,
          "name": "D4",
          "ticks": 55640,
          "time": 193.19413533333332,
          "velocity": 0.84251968503937
        },
        {
          "duration": 0.10069428333335395,
          "durationTicks": 29,
          "midi": 58,
          "name": "A#3",
          "ticks": 55640,
          "time": 193.19413533333332,
          "velocity": 0.7007874015748031
        },
        {
          "duration": 0.1145831499999872,
          "durationTicks": 33,
          "midi": 69,
          "name": "A4",
          "ticks": 55680,
          "time": 193.333024,
          "velocity": 0.7322834645669292
        },
        {
          "duration": 0.10416649999999095,
          "durationTicks": 30,
          "midi": 62,
          "name": "D4",
          "ticks": 55680,
          "time": 193.333024,
          "velocity": 0.7322834645669292
        },
        {
          "duration": 0.10416649999999095,
          "durationTicks": 30,
          "midi": 65,
          "name": "F4",
          "ticks": 55680,
          "time": 193.333024,
          "velocity": 0.7716535433070866
        },
        {
          "duration": 0.08333320000002686,
          "durationTicks": 24,
          "midi": 57,
          "name": "A3",
          "ticks": 55720,
          "time": 193.47191266666664,
          "velocity": 0.7007874015748031
        },
        {
          "duration": 0.0694443333333652,
          "durationTicks": 20,
          "midi": 50,
          "name": "D3",
          "ticks": 55720,
          "time": 193.47191266666664,
          "velocity": 0.7322834645669292
        },
        {
          "duration": 0.06597211666664293,
          "durationTicks": 19,
          "midi": 62,
          "name": "D4",
          "ticks": 55760,
          "time": 193.61080133333334,
          "velocity": 0.5984251968503937
        },
        {
          "duration": 0.07986098333333302,
          "durationTicks": 23,
          "midi": 69,
          "name": "A4",
          "ticks": 55760,
          "time": 193.61080133333334,
          "velocity": 0.7007874015748031
        },
        {
          "duration": 0.06597211666664293,
          "durationTicks": 19,
          "midi": 65,
          "name": "F4",
          "ticks": 55760,
          "time": 193.61080133333334,
          "velocity": 0.6692913385826772
        },
        {
          "duration": 0.05902768333334052,
          "durationTicks": 17,
          "midi": 50,
          "name": "D3",
          "ticks": 55800,
          "time": 193.74969,
          "velocity": 0.5984251968503937
        },
        {
          "duration": 0.07986098333333302,
          "durationTicks": 23,
          "midi": 57,
          "name": "A3",
          "ticks": 55800,
          "time": 193.74969,
          "velocity": 0.6692913385826772
        },
        {
          "duration": 0.05902768333334052,
          "durationTicks": 17,
          "midi": 62,
          "name": "D4",
          "ticks": 55840,
          "time": 193.88857866666666,
          "velocity": 0.4881889763779528
        },
        {
          "duration": 0.05555546666664668,
          "durationTicks": 16,
          "midi": 69,
          "name": "A4",
          "ticks": 55840,
          "time": 193.88857866666666,
          "velocity": 0.5984251968503937
        },
        {
          "duration": 0.06944433333333677,
          "durationTicks": 20,
          "midi": 65,
          "name": "F4",
          "ticks": 55840,
          "time": 193.88857866666666,
          "velocity": 0.6692913385826772
        },
        {
          "duration": 0.0555554666666751,
          "durationTicks": 16,
          "midi": 50,
          "name": "D3",
          "ticks": 55880,
          "time": 194.02746733333333,
          "velocity": 0.7007874015748031
        },
        {
          "duration": 0.06944433333330835,
          "durationTicks": 20,
          "midi": 57,
          "name": "A3",
          "ticks": 55880,
          "time": 194.02746733333333,
          "velocity": 0.6692913385826772
        },
        {
          "duration": 0.0763887666666676,
          "durationTicks": 22,
          "midi": 62,
          "name": "D4",
          "ticks": 55920,
          "time": 194.16635599999998,
          "velocity": 0.7322834645669292
        },
        {
          "duration": 0.0763887666666676,
          "durationTicks": 22,
          "midi": 65,
          "name": "F4",
          "ticks": 55920,
          "time": 194.16635599999998,
          "velocity": 0.7716535433070866
        },
        {
          "duration": 0.08333319999999844,
          "durationTicks": 24,
          "midi": 69,
          "name": "A4",
          "ticks": 55920,
          "time": 194.16635599999998,
          "velocity": 0.7322834645669292
        },
        {
          "duration": 0.06597211666667135,
          "durationTicks": 19,
          "midi": 57,
          "name": "A3",
          "ticks": 55960,
          "time": 194.30524466666665,
          "velocity": 0.5669291338582677
        },
        {
          "duration": 0.04861103333334427,
          "durationTicks": 14,
          "midi": 50,
          "name": "D3",
          "ticks": 55960,
          "time": 194.30524466666665,
          "velocity": 0.6299212598425197
        },
        {
          "duration": 0.0937498499999947,
          "durationTicks": 27,
          "midi": 69,
          "name": "A4",
          "ticks": 56000,
          "time": 194.44413333333333,
          "velocity": 0.7007874015748031
        },
        {
          "duration": 0.08333319999999844,
          "durationTicks": 24,
          "midi": 62,
          "name": "D4",
          "ticks": 56000,
          "time": 194.44413333333333,
          "velocity": 0.6692913385826772
        },
        {
          "duration": 0.0937498499999947,
          "durationTicks": 27,
          "midi": 65,
          "name": "F4",
          "ticks": 56000,
          "time": 194.44413333333333,
          "velocity": 0.7716535433070866
        },
        {
          "duration": 0.06944433333333677,
          "durationTicks": 20,
          "midi": 50,
          "name": "D3",
          "ticks": 56040,
          "time": 194.583022,
          "velocity": 0.7007874015748031
        },
        {
          "duration": 0.07986098333333302,
          "durationTicks": 23,
          "midi": 57,
          "name": "A3",
          "ticks": 56040,
          "time": 194.583022,
          "velocity": 0.7716535433070866
        },
        {
          "duration": 0.08333320000002686,
          "durationTicks": 24,
          "midi": 62,
          "name": "D4",
          "ticks": 56080,
          "time": 194.72191066666664,
          "velocity": 0.7007874015748031
        },
        {
          "duration": 0.07986098333333302,
          "durationTicks": 23,
          "midi": 65,
          "name": "F4",
          "ticks": 56080,
          "time": 194.72191066666664,
          "velocity": 0.7322834645669292
        },
        {
          "duration": 0.0902776333333577,
          "durationTicks": 26,
          "midi": 69,
          "name": "A4",
          "ticks": 56080,
          "time": 194.72191066666664,
          "velocity": 0.7322834645669292
        },
        {
          "duration": 0.07638876666669603,
          "durationTicks": 22,
          "midi": 50,
          "name": "D3",
          "ticks": 56120,
          "time": 194.86079933333332,
          "velocity": 0.8031496062992126
        },
        {
          "duration": 0.06249990000000594,
          "durationTicks": 18,
          "midi": 57,
          "name": "A3",
          "ticks": 56120,
          "time": 194.86079933333332,
          "velocity": 0.84251968503937
        },
        {
          "duration": 0.1909719166666548,
          "durationTicks": 55,
          "midi": 53,
          "name": "F3",
          "ticks": 56160,
          "time": 194.999688,
          "velocity": 0.5354330708661418
        },
        {
          "duration": 0.2048607833333449,
          "durationTicks": 59,
          "midi": 57,
          "name": "A3",
          "ticks": 56160,
          "time": 194.999688,
          "velocity": 0.7322834645669292
        },
        {
          "duration": 0.2048607833333449,
          "durationTicks": 59,
          "midi": 60,
          "name": "C4",
          "ticks": 56160,
          "time": 194.999688,
          "velocity": 0.7007874015748031
        },
        {
          "duration": 0.10069428333335395,
          "durationTicks": 29,
          "midi": 60,
          "name": "C4",
          "ticks": 56280,
          "time": 195.41635399999998,
          "velocity": 0.7322834645669292
        },
        {
          "duration": 0.09722206666668853,
          "durationTicks": 28,
          "midi": 57,
          "name": "A3",
          "ticks": 56280,
          "time": 195.41635399999998,
          "velocity": 0.7007874015748031
        },
        {
          "duration": 0.11111093333332178,
          "durationTicks": 32,
          "midi": 53,
          "name": "F3",
          "ticks": 56280,
          "time": 195.41635399999998,
          "velocity": 0.6692913385826772
        },
        {
          "duration": 0.08680541666666386,
          "durationTicks": 25,
          "midi": 41,
          "name": "F2",
          "ticks": 56320,
          "time": 195.55524266666666,
          "velocity": 0.6692913385826772
        },
        {
          "duration": 0.08680541666666386,
          "durationTicks": 25,
          "midi": 53,
          "name": "F3",
          "ticks": 56360,
          "time": 195.69413133333333,
          "velocity": 0.5984251968503937
        },
        {
          "duration": 0.0937498499999947,
          "durationTicks": 27,
          "midi": 60,
          "name": "C4",
          "ticks": 56360,
          "time": 195.69413133333333,
          "velocity": 0.7007874015748031
        },
        {
          "duration": 0.0937498499999947,
          "durationTicks": 27,
          "midi": 57,
          "name": "A3",
          "ticks": 56360,
          "time": 195.69413133333333,
          "velocity": 0.6692913385826772
        },
        {
          "duration": 0.0937498499999947,
          "durationTicks": 27,
          "midi": 41,
          "name": "F2",
          "ticks": 56400,
          "time": 195.83302,
          "velocity": 0.7322834645669292
        },
        {
          "duration": 0.07986098333333302,
          "durationTicks": 23,
          "midi": 53,
          "name": "F3",
          "ticks": 56440,
          "time": 195.97190866666665,
          "velocity": 0.4881889763779528
        },
        {
          "duration": 0.07291655000000219,
          "durationTicks": 21,
          "midi": 60,
          "name": "C4",
          "ticks": 56440,
          "time": 195.97190866666665,
          "velocity": 0.6299212598425197
        },
        {
          "duration": 0.08680541666669228,
          "durationTicks": 25,
          "midi": 57,
          "name": "A3",
          "ticks": 56440,
          "time": 195.97190866666665,
          "velocity": 0.6299212598425197
        },
        {
          "duration": 0.10416650000001937,
          "durationTicks": 30,
          "midi": 41,
          "name": "F2",
          "ticks": 56480,
          "time": 196.11079733333332,
          "velocity": 0.8031496062992126
        },
        {
          "duration": 0.10069428333332553,
          "durationTicks": 29,
          "midi": 60,
          "name": "C4",
          "ticks": 56520,
          "time": 196.249686,
          "velocity": 0.8031496062992126
        },
        {
          "duration": 0.09722206666666011,
          "durationTicks": 28,
          "midi": 53,
          "name": "F3",
          "ticks": 56520,
          "time": 196.249686,
          "velocity": 0.7007874015748031
        },
        {
          "duration": 0.10763871666665636,
          "durationTicks": 31,
          "midi": 57,
          "name": "A3",
          "ticks": 56520,
          "time": 196.249686,
          "velocity": 0.7716535433070866
        },
        {
          "duration": 0.10069428333335395,
          "durationTicks": 29,
          "midi": 41,
          "name": "F2",
          "ticks": 56560,
          "time": 196.38857466666664,
          "velocity": 0.7716535433070866
        },
        {
          "duration": 0.14583309999997596,
          "durationTicks": 42,
          "midi": 57,
          "name": "A3",
          "ticks": 56600,
          "time": 196.52746333333334,
          "velocity": 0.7322834645669292
        },
        {
          "duration": 0.1527775333333352,
          "durationTicks": 44,
          "midi": 60,
          "name": "C4",
          "ticks": 56600,
          "time": 196.52746333333334,
          "velocity": 0.7716535433070866
        },
        {
          "duration": 0.11805536666665262,
          "durationTicks": 34,
          "midi": 53,
          "name": "F3",
          "ticks": 56600,
          "time": 196.52746333333334,
          "velocity": 0.6299212598425197
        },
        {
          "duration": 0.1527775333333352,
          "durationTicks": 44,
          "midi": 43,
          "name": "G2",
          "ticks": 56640,
          "time": 196.666352,
          "velocity": 0.84251968503937
        },
        {
          "duration": 0.0937498499999947,
          "durationTicks": 27,
          "midi": 62,
          "name": "D4",
          "ticks": 56680,
          "time": 196.80524066666666,
          "velocity": 0.6692913385826772
        },
        {
          "duration": 0.0937498499999947,
          "durationTicks": 27,
          "midi": 55,
          "name": "G3",
          "ticks": 56680,
          "time": 196.80524066666666,
          "velocity": 0.5354330708661418
        },
        {
          "duration": 0.10069428333332553,
          "durationTicks": 29,
          "midi": 59,
          "name": "B3",
          "ticks": 56680,
          "time": 196.80524066666666,
          "velocity": 0.7007874015748031
        },
        {
          "duration": 0.10416649999999095,
          "durationTicks": 30,
          "midi": 43,
          "name": "G2",
          "ticks": 56720,
          "time": 196.94412933333334,
          "velocity": 0.7007874015748031
        },
        {
          "duration": 0.10763871666668479,
          "durationTicks": 31,
          "midi": 62,
          "name": "D4",
          "ticks": 56760,
          "time": 197.08301799999998,
          "velocity": 0.7716535433070866
        },
        {
          "duration": 0.10069428333335395,
          "durationTicks": 29,
          "midi": 55,
          "name": "G3",
          "ticks": 56760,
          "time": 197.08301799999998,
          "velocity": 0.6692913385826772
        },
        {
          "duration": 0.10069428333335395,
          "durationTicks": 29,
          "midi": 59,
          "name": "B3",
          "ticks": 56760,
          "time": 197.08301799999998,
          "velocity": 0.7716535433070866
        },
        {
          "duration": 0.09027763333332928,
          "durationTicks": 26,
          "midi": 43,
          "name": "G2",
          "ticks": 56800,
          "time": 197.22190666666665,
          "velocity": 0.7007874015748031
        },
        {
          "duration": 0.10763871666665636,
          "durationTicks": 31,
          "midi": 62,
          "name": "D4",
          "ticks": 56840,
          "time": 197.36079533333333,
          "velocity": 0.7716535433070866
        },
        {
          "duration": 0.10069428333335395,
          "durationTicks": 29,
          "midi": 59,
          "name": "B3",
          "ticks": 56840,
          "time": 197.36079533333333,
          "velocity": 0.7322834645669292
        },
        {
          "duration": 0.10416649999999095,
          "durationTicks": 30,
          "midi": 55,
          "name": "G3",
          "ticks": 56840,
          "time": 197.36079533333333,
          "velocity": 0.6299212598425197
        },
        {
          "duration": 0.10069428333332553,
          "durationTicks": 29,
          "midi": 43,
          "name": "G2",
          "ticks": 56880,
          "time": 197.499684,
          "velocity": 0.8031496062992126
        },
        {
          "duration": 0.07986098333333302,
          "durationTicks": 23,
          "midi": 62,
          "name": "D4",
          "ticks": 56920,
          "time": 197.63857266666665,
          "velocity": 0.7007874015748031
        },
        {
          "duration": 0.08333320000002686,
          "durationTicks": 24,
          "midi": 55,
          "name": "G3",
          "ticks": 56920,
          "time": 197.63857266666665,
          "velocity": 0.5669291338582677
        },
        {
          "duration": 0.08680541666669228,
          "durationTicks": 25,
          "midi": 59,
          "name": "B3",
          "ticks": 56920,
          "time": 197.63857266666665,
          "velocity": 0.7322834645669292
        },
        {
          "duration": 0.14583310000000438,
          "durationTicks": 42,
          "midi": 43,
          "name": "G2",
          "ticks": 56960,
          "time": 197.77746133333332,
          "velocity": 0.7322834645669292
        },
        {
          "duration": 0.1145831499999872,
          "durationTicks": 33,
          "midi": 62,
          "name": "D4",
          "ticks": 57000,
          "time": 197.91635,
          "velocity": 0.84251968503937
        },
        {
          "duration": 0.10763871666665636,
          "durationTicks": 31,
          "midi": 55,
          "name": "G3",
          "ticks": 57000,
          "time": 197.91635,
          "velocity": 0.7322834645669292
        },
        {
          "duration": 0.11111093333332178,
          "durationTicks": 32,
          "midi": 59,
          "name": "B3",
          "ticks": 57000,
          "time": 197.91635,
          "velocity": 0.84251968503937
        },
        {
          "duration": 0.07291654999997377,
          "durationTicks": 21,
          "midi": 55,
          "name": "G3",
          "ticks": 57080,
          "time": 198.19412733333334,
          "velocity": 0.6692913385826772
        },
        {
          "duration": 0.11111093333332178,
          "durationTicks": 32,
          "midi": 62,
          "name": "D4",
          "ticks": 57080,
          "time": 198.19412733333334,
          "velocity": 0.84251968503937
        },
        {
          "duration": 0.09722206666663169,
          "durationTicks": 28,
          "midi": 59,
          "name": "B3",
          "ticks": 57080,
          "time": 198.19412733333334,
          "velocity": 0.8031496062992126
        },
        {
          "duration": 0.2951384166666742,
          "durationTicks": 85,
          "midi": 46,
          "name": "A#2",
          "ticks": 57120,
          "time": 198.333016,
          "velocity": 0.8031496062992126
        },
        {
          "duration": 0.31249950000000126,
          "durationTicks": 90,
          "midi": 58,
          "name": "A#3",
          "ticks": 57120,
          "time": 198.333016,
          "velocity": 0.7007874015748031
        },
        {
          "duration": 0.2951384166666742,
          "durationTicks": 85,
          "midi": 65,
          "name": "F4",
          "ticks": 57120,
          "time": 198.333016,
          "velocity": 0.7716535433070866
        },
        {
          "duration": 0.302082850000005,
          "durationTicks": 87,
          "midi": 62,
          "name": "D4",
          "ticks": 57120,
          "time": 198.333016,
          "velocity": 0.84251968503937
        },
        {
          "duration": 0.2048607833333449,
          "durationTicks": 59,
          "midi": 58,
          "name": "A#3",
          "ticks": 57240,
          "time": 198.74968199999998,
          "velocity": 0.7007874015748031
        },
        {
          "duration": 0.17708305000002156,
          "durationTicks": 51,
          "midi": 46,
          "name": "A#2",
          "ticks": 57240,
          "time": 198.74968199999998,
          "velocity": 0.889763779527559
        },
        {
          "duration": 0.14930531666669822,
          "durationTicks": 43,
          "midi": 62,
          "name": "D4",
          "ticks": 57240,
          "time": 198.74968199999998,
          "velocity": 0.84251968503937
        },
        {
          "duration": 0.1527775333333352,
          "durationTicks": 44,
          "midi": 65,
          "name": "F4",
          "ticks": 57240,
          "time": 198.74968199999998,
          "velocity": 0.7716535433070866
        },
        {
          "duration": 0.1909719166666548,
          "durationTicks": 55,
          "midi": 57,
          "name": "A3",
          "ticks": 57360,
          "time": 199.166348,
          "velocity": 0.7322834645669292
        },
        {
          "duration": 0.2083329999999819,
          "durationTicks": 60,
          "midi": 61,
          "name": "C#4",
          "ticks": 57360,
          "time": 199.166348,
          "velocity": 0.7716535433070866
        },
        {
          "duration": 0.22916630000000282,
          "durationTicks": 66,
          "midi": 64,
          "name": "E4",
          "ticks": 57360,
          "time": 199.166348,
          "velocity": 0.7716535433070866
        },
        {
          "duration": 0.2083329999999819,
          "durationTicks": 60,
          "midi": 52,
          "name": "E3",
          "ticks": 57360,
          "time": 199.166348,
          "velocity": 0.7716535433070866
        },
        {
          "duration": 0.2118052166666473,
          "durationTicks": 61,
          "midi": 45,
          "name": "A2",
          "ticks": 57360,
          "time": 199.166348,
          "velocity": 0.8031496062992126
        },
        {
          "duration": 0.0763887666666676,
          "durationTicks": 22,
          "midi": 57,
          "name": "A3",
          "ticks": 57480,
          "time": 199.583014,
          "velocity": 0.7322834645669292
        },
        {
          "duration": 0.07986098333333302,
          "durationTicks": 23,
          "midi": 50,
          "name": "D3",
          "ticks": 57480,
          "time": 199.583014,
          "velocity": 0.889763779527559
        },
        {
          "duration": 0.08680541666666386,
          "durationTicks": 25,
          "midi": 65,
          "name": "F4",
          "ticks": 57480,
          "time": 199.583014,
          "velocity": 0.84251968503937
        },
        {
          "duration": 0.10069428333332553,
          "durationTicks": 29,
          "midi": 69,
          "name": "A4",
          "ticks": 57480,
          "time": 199.583014,
          "velocity": 0.84251968503937
        },
        {
          "duration": 0.09722206666666011,
          "durationTicks": 28,
          "midi": 62,
          "name": "D4",
          "ticks": 57480,
          "time": 199.583014,
          "velocity": 0.8031496062992126
        },
        {
          "duration": 0.18402748333332397,
          "durationTicks": 53,
          "midi": 65,
          "name": "F4",
          "ticks": 57560,
          "time": 199.86079133333334,
          "velocity": 0.937007874015748
        },
        {
          "duration": 0.19791634999998564,
          "durationTicks": 57,
          "midi": 69,
          "name": "A4",
          "ticks": 57560,
          "time": 199.86079133333334,
          "velocity": 0.84251968503937
        },
        {
          "duration": 0.1909719166666548,
          "durationTicks": 55,
          "midi": 62,
          "name": "D4",
          "ticks": 57560,
          "time": 199.86079133333334,
          "velocity": 0.8031496062992126
        },
        {
          "duration": 0.17708304999996471,
          "durationTicks": 51,
          "midi": 50,
          "name": "D3",
          "ticks": 57560,
          "time": 199.86079133333334,
          "velocity": 0.889763779527559
        },
        {
          "duration": 0.1736108333332993,
          "durationTicks": 50,
          "midi": 57,
          "name": "A3",
          "ticks": 57560,
          "time": 199.86079133333334,
          "velocity": 0.889763779527559
        }
      ]
    },
    {
      "channel": 0,
      "controlChanges": {
        "0": [
          {
            "number": 0,
            "ticks": 0,
            "time": 0,
            "value": 0
          }
        ],
        "7": [
          {
            "number": 7,
            "ticks": 0,
            "time": 0,
            "value": 1
          }
        ],
        "10": [
          {
            "number": 10,
            "ticks": 0,
            "time": 0,
            "value": 0.7401574803149606
          }
        ],
        "32": [
          {
            "number": 32,
            "ticks": 0,
            "time": 0,
            "value": 0
          }
        ],
        "91": [
          {
            "number": 91,
            "ticks": 0,
            "time": 0,
            "value": 0.3700787401574803
          }
        ],
        "93": [
          {
            "number": 93,
            "ticks": 0,
            "time": 0,
            "value": 0.6850393700787402
          }
        ]
      },
      "pitchBends": [],
      "instrument": {
        "family": "piano",
        "number": 0,
        "name": "acoustic grand piano"
      },
      "name": "",
      "notes": [],
      "endOfTrackTicks": 57615
    },
    {
      "channel": 2,
      "controlChanges": {
        "64": [
          {
            "number": 64,
            "ticks": 1370,
            "time": 4.756936833333333,
            "value": 1
          },
          {
            "number": 64,
            "ticks": 1658,
            "time": 5.756935233333333,
            "value": 0
          },
          {
            "number": 64,
            "ticks": 1741,
            "time": 6.045129216666666,
            "value": 1
          },
          {
            "number": 64,
            "ticks": 1806,
            "time": 6.2708233,
            "value": 0
          },
          {
            "number": 64,
            "ticks": 1855,
            "time": 6.440961916666667,
            "value": 1
          },
          {
            "number": 64,
            "ticks": 1908,
            "time": 6.6249894,
            "value": 0
          },
          {
            "number": 64,
            "ticks": 2448,
            "time": 8.4999864,
            "value": 1
          },
          {
            "number": 64,
            "ticks": 2515,
            "time": 8.732624916666666,
            "value": 0
          },
          {
            "number": 64,
            "ticks": 2688,
            "time": 9.3333184,
            "value": 1
          },
          {
            "number": 64,
            "ticks": 2771,
            "time": 9.621512383333332,
            "value": 0
          },
          {
            "number": 64,
            "ticks": 4972,
            "time": 17.263861266666666,
            "value": 1
          },
          {
            "number": 64,
            "ticks": 5294,
            "time": 18.381915033333332,
            "value": 0
          },
          {
            "number": 64,
            "ticks": 5406,
            "time": 18.770803299999997,
            "value": 1
          },
          {
            "number": 64,
            "ticks": 5757,
            "time": 19.98955135,
            "value": 0
          },
          {
            "number": 64,
            "ticks": 5810,
            "time": 20.17357883333333,
            "value": 1
          },
          {
            "number": 64,
            "ticks": 6250,
            "time": 21.70135416666667,
            "value": 0
          },
          {
            "number": 64,
            "ticks": 6296,
            "time": 21.861076133333334,
            "value": 1
          },
          {
            "number": 64,
            "ticks": 6584,
            "time": 22.861074533333333,
            "value": 0
          },
          {
            "number": 64,
            "ticks": 6632,
            "time": 23.02774093333333,
            "value": 1
          },
          {
            "number": 64,
            "ticks": 6703,
            "time": 23.274268316666667,
            "value": 0
          },
          {
            "number": 64,
            "ticks": 6836,
            "time": 23.736073133333335,
            "value": 1
          },
          {
            "number": 64,
            "ticks": 7198,
            "time": 24.993015566666667,
            "value": 0
          },
          {
            "number": 64,
            "ticks": 7250,
            "time": 25.173570833333333,
            "value": 1
          },
          {
            "number": 64,
            "ticks": 7660,
            "time": 26.597179666666666,
            "value": 0
          },
          {
            "number": 64,
            "ticks": 7723,
            "time": 26.815929316666665,
            "value": 1
          },
          {
            "number": 64,
            "ticks": 8151,
            "time": 28.302038049999997,
            "value": 0
          },
          {
            "number": 64,
            "ticks": 8202,
            "time": 28.479121099999997,
            "value": 1
          },
          {
            "number": 64,
            "ticks": 8624,
            "time": 29.94439653333333,
            "value": 0
          },
          {
            "number": 64,
            "ticks": 8749,
            "time": 30.378423616666666,
            "value": 1
          },
          {
            "number": 64,
            "ticks": 9107,
            "time": 31.621477183333333,
            "value": 0
          },
          {
            "number": 64,
            "ticks": 9161,
            "time": 31.808976883333333,
            "value": 1
          },
          {
            "number": 64,
            "ticks": 9590,
            "time": 33.298557833333334,
            "value": 0
          },
          {
            "number": 64,
            "ticks": 9645,
            "time": 33.489529749999996,
            "value": 1
          },
          {
            "number": 64,
            "ticks": 10057,
            "time": 34.920083016666666,
            "value": 0
          },
          {
            "number": 64,
            "ticks": 10110,
            "time": 35.1041105,
            "value": 1
          },
          {
            "number": 64,
            "ticks": 10464,
            "time": 36.3332752,
            "value": 0
          },
          {
            "number": 64,
            "ticks": 10638,
            "time": 36.9374409,
            "value": 1
          },
          {
            "number": 64,
            "ticks": 11029,
            "time": 38.29507761666667,
            "value": 0
          },
          {
            "number": 64,
            "ticks": 11084,
            "time": 38.48604953333333,
            "value": 1
          },
          {
            "number": 64,
            "ticks": 11515,
            "time": 39.982574916666664,
            "value": 0
          },
          {
            "number": 64,
            "ticks": 11596,
            "time": 40.26382446666667,
            "value": 1
          },
          {
            "number": 64,
            "ticks": 11748,
            "time": 40.7916014,
            "value": 0
          },
          {
            "number": 64,
            "ticks": 11758,
            "time": 40.826323566666666,
            "value": 1
          },
          {
            "number": 64,
            "ticks": 11992,
            "time": 41.638822266666665,
            "value": 0
          },
          {
            "number": 64,
            "ticks": 12030,
            "time": 41.7707665,
            "value": 1
          },
          {
            "number": 64,
            "ticks": 12118,
            "time": 42.076321566666664,
            "value": 0
          },
          {
            "number": 64,
            "ticks": 12155,
            "time": 42.204793583333334,
            "value": 1
          },
          {
            "number": 64,
            "ticks": 12474,
            "time": 43.3124307,
            "value": 0
          },
          {
            "number": 64,
            "ticks": 12523,
            "time": 43.48256931666666,
            "value": 1
          },
          {
            "number": 64,
            "ticks": 12588,
            "time": 43.7082634,
            "value": 0
          },
          {
            "number": 64,
            "ticks": 12600,
            "time": 43.74993,
            "value": 1
          },
          {
            "number": 64,
            "ticks": 12958,
            "time": 44.992983566666666,
            "value": 0
          },
          {
            "number": 64,
            "ticks": 13010,
            "time": 45.17353883333333,
            "value": 1
          },
          {
            "number": 64,
            "ticks": 13431,
            "time": 46.63534205,
            "value": 0
          },
          {
            "number": 64,
            "ticks": 13481,
            "time": 46.80895288333333,
            "value": 1
          },
          {
            "number": 64,
            "ticks": 13562,
            "time": 47.09020243333333,
            "value": 0
          },
          {
            "number": 64,
            "ticks": 13577,
            "time": 47.142285683333334,
            "value": 1
          },
          {
            "number": 64,
            "ticks": 13896,
            "time": 48.24992279999999,
            "value": 0
          },
          {
            "number": 64,
            "ticks": 14001,
            "time": 48.61450555,
            "value": 1
          },
          {
            "number": 64,
            "ticks": 14109,
            "time": 48.98950495,
            "value": 0
          },
          {
            "number": 64,
            "ticks": 16492,
            "time": 57.263797266666664,
            "value": 1
          },
          {
            "number": 64,
            "ticks": 16814,
            "time": 58.381851033333334,
            "value": 0
          },
          {
            "number": 64,
            "ticks": 16926,
            "time": 58.7707393,
            "value": 1
          },
          {
            "number": 64,
            "ticks": 17277,
            "time": 59.98948735,
            "value": 0
          },
          {
            "number": 64,
            "ticks": 17330,
            "time": 60.17351483333333,
            "value": 1
          },
          {
            "number": 64,
            "ticks": 17770,
            "time": 61.701290166666666,
            "value": 0
          },
          {
            "number": 64,
            "ticks": 17816,
            "time": 61.86101213333333,
            "value": 1
          },
          {
            "number": 64,
            "ticks": 18104,
            "time": 62.861010533333335,
            "value": 0
          },
          {
            "number": 64,
            "ticks": 18152,
            "time": 63.02767693333334,
            "value": 1
          },
          {
            "number": 64,
            "ticks": 18223,
            "time": 63.274204316666655,
            "value": 0
          },
          {
            "number": 64,
            "ticks": 18356,
            "time": 63.73600913333333,
            "value": 1
          },
          {
            "number": 64,
            "ticks": 18718,
            "time": 64.99295156666666,
            "value": 0
          },
          {
            "number": 64,
            "ticks": 18770,
            "time": 65.17350683333332,
            "value": 1
          },
          {
            "number": 64,
            "ticks": 19180,
            "time": 66.59711566666667,
            "value": 0
          },
          {
            "number": 64,
            "ticks": 19243,
            "time": 66.81586531666666,
            "value": 1
          },
          {
            "number": 64,
            "ticks": 19671,
            "time": 68.30197405,
            "value": 0
          },
          {
            "number": 64,
            "ticks": 19722,
            "time": 68.47905709999999,
            "value": 1
          },
          {
            "number": 64,
            "ticks": 20144,
            "time": 69.94433253333334,
            "value": 0
          },
          {
            "number": 64,
            "ticks": 20269,
            "time": 70.37835961666666,
            "value": 1
          },
          {
            "number": 64,
            "ticks": 20627,
            "time": 71.62141318333333,
            "value": 0
          },
          {
            "number": 64,
            "ticks": 20681,
            "time": 71.80891288333333,
            "value": 1
          },
          {
            "number": 64,
            "ticks": 21110,
            "time": 73.29849383333332,
            "value": 0
          },
          {
            "number": 64,
            "ticks": 21165,
            "time": 73.48946575,
            "value": 1
          },
          {
            "number": 64,
            "ticks": 21577,
            "time": 74.92001901666667,
            "value": 0
          },
          {
            "number": 64,
            "ticks": 21630,
            "time": 75.1040465,
            "value": 1
          },
          {
            "number": 64,
            "ticks": 21984,
            "time": 76.3332112,
            "value": 0
          },
          {
            "number": 64,
            "ticks": 22085,
            "time": 76.68390508333333,
            "value": 1
          },
          {
            "number": 64,
            "ticks": 22510,
            "time": 78.15959716666667,
            "value": 0
          },
          {
            "number": 64,
            "ticks": 22638,
            "time": 78.6040409,
            "value": 1
          },
          {
            "number": 64,
            "ticks": 23029,
            "time": 79.96167761666666,
            "value": 0
          },
          {
            "number": 64,
            "ticks": 23084,
            "time": 80.15264953333333,
            "value": 1
          },
          {
            "number": 64,
            "ticks": 23515,
            "time": 81.64917491666667,
            "value": 0
          },
          {
            "number": 64,
            "ticks": 23596,
            "time": 81.93042446666666,
            "value": 1
          },
          {
            "number": 64,
            "ticks": 23748,
            "time": 82.4582014,
            "value": 0
          },
          {
            "number": 64,
            "ticks": 23758,
            "time": 82.49292356666666,
            "value": 1
          },
          {
            "number": 64,
            "ticks": 23992,
            "time": 83.30542226666667,
            "value": 0
          },
          {
            "number": 64,
            "ticks": 24030,
            "time": 83.4373665,
            "value": 1
          },
          {
            "number": 64,
            "ticks": 24118,
            "time": 83.74292156666665,
            "value": 0
          },
          {
            "number": 64,
            "ticks": 24155,
            "time": 83.87139358333333,
            "value": 1
          },
          {
            "number": 64,
            "ticks": 24474,
            "time": 84.9790307,
            "value": 0
          },
          {
            "number": 64,
            "ticks": 24523,
            "time": 85.14916931666666,
            "value": 1
          },
          {
            "number": 64,
            "ticks": 24588,
            "time": 85.3748634,
            "value": 0
          },
          {
            "number": 64,
            "ticks": 24600,
            "time": 85.41653,
            "value": 1
          },
          {
            "number": 64,
            "ticks": 24958,
            "time": 86.65958356666665,
            "value": 0
          },
          {
            "number": 64,
            "ticks": 25010,
            "time": 86.84013883333333,
            "value": 1
          },
          {
            "number": 64,
            "ticks": 25431,
            "time": 88.30194205,
            "value": 0
          },
          {
            "number": 64,
            "ticks": 25481,
            "time": 88.47555288333334,
            "value": 1
          },
          {
            "number": 64,
            "ticks": 25562,
            "time": 88.75680243333333,
            "value": 0
          },
          {
            "number": 64,
            "ticks": 25577,
            "time": 88.80888568333333,
            "value": 1
          },
          {
            "number": 64,
            "ticks": 25896,
            "time": 89.9165228,
            "value": 0
          },
          {
            "number": 64,
            "ticks": 26001,
            "time": 90.28110555,
            "value": 1
          },
          {
            "number": 64,
            "ticks": 26109,
            "time": 90.65610494999999,
            "value": 0
          },
          {
            "number": 64,
            "ticks": 26810,
            "time": 93.09012883333332,
            "value": 1
          },
          {
            "number": 64,
            "ticks": 27098,
            "time": 94.09012723333333,
            "value": 0
          },
          {
            "number": 64,
            "ticks": 27181,
            "time": 94.37832121666666,
            "value": 1
          },
          {
            "number": 64,
            "ticks": 27246,
            "time": 94.6040153,
            "value": 0
          },
          {
            "number": 64,
            "ticks": 27295,
            "time": 94.77415391666666,
            "value": 1
          },
          {
            "number": 64,
            "ticks": 27348,
            "time": 94.9581814,
            "value": 0
          },
          {
            "number": 64,
            "ticks": 27988,
            "time": 97.18040006666665,
            "value": 1
          },
          {
            "number": 64,
            "ticks": 28324,
            "time": 98.34706486666666,
            "value": 0
          },
          {
            "number": 64,
            "ticks": 29908,
            "time": 103.84705606666665,
            "value": 1
          },
          {
            "number": 64,
            "ticks": 30244,
            "time": 105.01372086666666,
            "value": 0
          },
          {
            "number": 64,
            "ticks": 31305,
            "time": 108.69774274999999,
            "value": 1
          },
          {
            "number": 64,
            "ticks": 32159,
            "time": 111.66301578333334,
            "value": 0
          },
          {
            "number": 64,
            "ticks": 32227,
            "time": 111.89912651666667,
            "value": 1
          },
          {
            "number": 64,
            "ticks": 32638,
            "time": 113.32620756666667,
            "value": 0
          },
          {
            "number": 64,
            "ticks": 32696,
            "time": 113.52759613333332,
            "value": 1
          },
          {
            "number": 64,
            "ticks": 33117,
            "time": 114.98939935,
            "value": 0
          },
          {
            "number": 64,
            "ticks": 33246,
            "time": 115.4373153,
            "value": 1
          },
          {
            "number": 64,
            "ticks": 33841,
            "time": 117.50328421666666,
            "value": 0
          },
          {
            "number": 64,
            "ticks": 43534,
            "time": 151.15948036666668,
            "value": 1
          },
          {
            "number": 64,
            "ticks": 43644,
            "time": 151.5414242,
            "value": 0
          },
          {
            "number": 64,
            "ticks": 46372,
            "time": 161.01363126666666,
            "value": 1
          },
          {
            "number": 64,
            "ticks": 46571,
            "time": 161.7046023833333,
            "value": 0
          },
          {
            "number": 64,
            "ticks": 46748,
            "time": 162.31918473333332,
            "value": 1
          },
          {
            "number": 64,
            "ticks": 47040,
            "time": 163.333072,
            "value": 0
          },
          {
            "number": 64,
            "ticks": 47158,
            "time": 163.74279356666668,
            "value": 1
          },
          {
            "number": 64,
            "ticks": 47519,
            "time": 164.99626378333332,
            "value": 0
          },
          {
            "number": 64,
            "ticks": 47635,
            "time": 165.39904091666665,
            "value": 1
          },
          {
            "number": 64,
            "ticks": 47980,
            "time": 166.59695566666664,
            "value": 0
          },
          {
            "number": 64,
            "ticks": 48292,
            "time": 167.68028726666665,
            "value": 1
          },
          {
            "number": 64,
            "ticks": 48491,
            "time": 168.37125838333333,
            "value": 0
          },
          {
            "number": 64,
            "ticks": 48668,
            "time": 168.98584073333333,
            "value": 1
          },
          {
            "number": 64,
            "ticks": 48960,
            "time": 169.999728,
            "value": 0
          },
          {
            "number": 64,
            "ticks": 49078,
            "time": 170.40944956666667,
            "value": 1
          },
          {
            "number": 64,
            "ticks": 49439,
            "time": 171.66291978333334,
            "value": 0
          },
          {
            "number": 64,
            "ticks": 49555,
            "time": 172.06569691666664,
            "value": 1
          },
          {
            "number": 64,
            "ticks": 49900,
            "time": 173.26361166666666,
            "value": 0
          },
          {
            "number": 64,
            "ticks": 49984,
            "time": 173.55527786666667,
            "value": 1
          },
          {
            "number": 64,
            "ticks": 50388,
            "time": 174.95805339999998,
            "value": 0
          },
          {
            "number": 64,
            "ticks": 50441,
            "time": 175.1420808833333,
            "value": 1
          },
          {
            "number": 64,
            "ticks": 50870,
            "time": 176.63166183333334,
            "value": 0
          },
          {
            "number": 64,
            "ticks": 50921,
            "time": 176.8087448833333,
            "value": 1
          },
          {
            "number": 64,
            "ticks": 51339,
            "time": 178.26013145,
            "value": 0
          },
          {
            "number": 64,
            "ticks": 51383,
            "time": 178.41290898333332,
            "value": 1
          },
          {
            "number": 64,
            "ticks": 51822,
            "time": 179.9372121,
            "value": 0
          },
          {
            "number": 64,
            "ticks": 51893,
            "time": 180.1837394833333,
            "value": 1
          },
          {
            "number": 64,
            "ticks": 52312,
            "time": 181.63859826666666,
            "value": 0
          },
          {
            "number": 64,
            "ticks": 52367,
            "time": 181.82957018333332,
            "value": 1
          },
          {
            "number": 64,
            "ticks": 52784,
            "time": 183.27748453333334,
            "value": 0
          },
          {
            "number": 64,
            "ticks": 52842,
            "time": 183.4788731,
            "value": 1
          },
          {
            "number": 64,
            "ticks": 53272,
            "time": 184.97192626666666,
            "value": 0
          },
          {
            "number": 64,
            "ticks": 53325,
            "time": 185.15595374999998,
            "value": 1
          },
          {
            "number": 64,
            "ticks": 53700,
            "time": 186.458035,
            "value": 0
          },
          {
            "number": 64,
            "ticks": 54052,
            "time": 187.68025526666665,
            "value": 1
          },
          {
            "number": 64,
            "ticks": 54251,
            "time": 188.37122638333332,
            "value": 0
          },
          {
            "number": 64,
            "ticks": 54428,
            "time": 188.98580873333333,
            "value": 1
          },
          {
            "number": 64,
            "ticks": 54720,
            "time": 189.999696,
            "value": 0
          },
          {
            "number": 64,
            "ticks": 54838,
            "time": 190.40941756666666,
            "value": 1
          },
          {
            "number": 64,
            "ticks": 55199,
            "time": 191.66288778333333,
            "value": 0
          },
          {
            "number": 64,
            "ticks": 55315,
            "time": 192.06566491666666,
            "value": 1
          },
          {
            "number": 64,
            "ticks": 55660,
            "time": 193.26357966666666,
            "value": 0
          },
          {
            "number": 64,
            "ticks": 55732,
            "time": 193.51357926666665,
            "value": 1
          },
          {
            "number": 64,
            "ticks": 56173,
            "time": 195.04482681666667,
            "value": 0
          },
          {
            "number": 64,
            "ticks": 56231,
            "time": 195.24621538333332,
            "value": 1
          },
          {
            "number": 64,
            "ticks": 56639,
            "time": 196.66287978333332,
            "value": 0
          },
          {
            "number": 64,
            "ticks": 56700,
            "time": 196.874685,
            "value": 1
          },
          {
            "number": 64,
            "ticks": 57047,
            "time": 198.07954418333333,
            "value": 0
          }
        ]
      },
      "pitchBends": [],
      "instrument": {
        "family": "guitar",
        "number": 29,
        "name": "overdriven guitar"
      },
      "name": "",
      "notes": [
        {
          "duration": 1.7326361166666668,
          "durationTicks": 499,
          "midi": 57,
          "name": "A3",
          "ticks": 960,
          "time": 3.333328,
          "velocity": 0.7716535433070866
        },
        {
          "duration": 1.746524983333333,
          "durationTicks": 503,
          "midi": 62,
          "name": "D4",
          "ticks": 960,
          "time": 3.333328,
          "velocity": 0.889763779527559
        },
        {
          "duration": 1.7256916833333333,
          "durationTicks": 497,
          "midi": 50,
          "name": "D3",
          "ticks": 960,
          "time": 3.333328,
          "velocity": 0.84251968503937
        },
        {
          "duration": 0.2986106333333334,
          "durationTicks": 86,
          "midi": 67,
          "name": "G4",
          "ticks": 1680,
          "time": 5.833323999999999,
          "velocity": 0.889763779527559
        },
        {
          "duration": 0.3159717166666667,
          "durationTicks": 91,
          "midi": 55,
          "name": "G3",
          "ticks": 1680,
          "time": 5.833323999999999,
          "velocity": 0.84251968503937
        },
        {
          "duration": 0.3055550666666669,
          "durationTicks": 88,
          "midi": 62,
          "name": "D4",
          "ticks": 1680,
          "time": 5.833323999999999,
          "velocity": 0.8031496062992126
        },
        {
          "duration": 0.17361083333333305,
          "durationTicks": 50,
          "midi": 53,
          "name": "F3",
          "ticks": 1800,
          "time": 6.2499899999999995,
          "velocity": 0.8031496062992126
        },
        {
          "duration": 0.20138856666666616,
          "durationTicks": 58,
          "midi": 65,
          "name": "F4",
          "ticks": 1800,
          "time": 6.2499899999999995,
          "velocity": 0.7716535433070866
        },
        {
          "duration": 0.22222186666666666,
          "durationTicks": 64,
          "midi": 60,
          "name": "C4",
          "ticks": 1800,
          "time": 6.2499899999999995,
          "velocity": 0.7322834645669292
        },
        {
          "duration": 2.1805520666666673,
          "durationTicks": 628,
          "midi": 57,
          "name": "A3",
          "ticks": 1920,
          "time": 6.666656,
          "velocity": 0.7322834645669292
        },
        {
          "duration": 2.1701354166666658,
          "durationTicks": 625,
          "midi": 62,
          "name": "D4",
          "ticks": 1920,
          "time": 6.666656,
          "velocity": 0.84251968503937
        },
        {
          "duration": 2.159718766666666,
          "durationTicks": 622,
          "midi": 50,
          "name": "D3",
          "ticks": 1920,
          "time": 6.666656,
          "velocity": 0.7322834645669292
        },
        {
          "duration": 0.23263851666666646,
          "durationTicks": 67,
          "midi": 60,
          "name": "C4",
          "ticks": 2640,
          "time": 9.166652,
          "velocity": 0.7322834645669292
        },
        {
          "duration": 0.21874964999999946,
          "durationTicks": 63,
          "midi": 65,
          "name": "F4",
          "ticks": 2640,
          "time": 9.166652,
          "velocity": 0.7322834645669292
        },
        {
          "duration": 0.23611073333333366,
          "durationTicks": 68,
          "midi": 53,
          "name": "F3",
          "ticks": 2640,
          "time": 9.166652,
          "velocity": 0.84251968503937
        },
        {
          "duration": 0.3124994999999995,
          "durationTicks": 90,
          "midi": 60,
          "name": "C4",
          "ticks": 2760,
          "time": 9.583318,
          "velocity": 0.84251968503937
        },
        {
          "duration": 0.3090272833333323,
          "durationTicks": 89,
          "midi": 55,
          "name": "G3",
          "ticks": 2760,
          "time": 9.583318,
          "velocity": 0.7716535433070866
        },
        {
          "duration": 0.3541661000000005,
          "durationTicks": 102,
          "midi": 48,
          "name": "C3",
          "ticks": 2760,
          "time": 9.583318,
          "velocity": 0.5984251968503937
        },
        {
          "duration": 0.10069428333333441,
          "durationTicks": 29,
          "midi": 48,
          "name": "C3",
          "ticks": 2880,
          "time": 9.999984,
          "velocity": 0.84251968503937
        },
        {
          "duration": 0.10069428333333441,
          "durationTicks": 29,
          "midi": 60,
          "name": "C4",
          "ticks": 2880,
          "time": 9.999984,
          "velocity": 0.84251968503937
        },
        {
          "duration": 0.06249990000000061,
          "durationTicks": 18,
          "midi": 50,
          "name": "D3",
          "ticks": 2920,
          "time": 10.138872666666666,
          "velocity": 0.84251968503937
        },
        {
          "duration": 0.06249990000000061,
          "durationTicks": 18,
          "midi": 62,
          "name": "D4",
          "ticks": 2920,
          "time": 10.138872666666666,
          "velocity": 0.84251968503937
        },
        {
          "duration": 0.07291654999999864,
          "durationTicks": 21,
          "midi": 50,
          "name": "D3",
          "ticks": 2960,
          "time": 10.277761333333334,
          "velocity": 0.84251968503937
        },
        {
          "duration": 0.07291654999999864,
          "durationTicks": 21,
          "midi": 62,
          "name": "D4",
          "ticks": 2960,
          "time": 10.277761333333334,
          "velocity": 0.84251968503937
        },
        {
          "duration": 0.3993049166666669,
          "durationTicks": 115,
          "midi": 50,
          "name": "D3",
          "ticks": 3000,
          "time": 10.416649999999999,
          "velocity": 0.889763779527559
        },
        {
          "duration": 0.3993049166666669,
          "durationTicks": 115,
          "midi": 62,
          "name": "D4",
          "ticks": 3000,
          "time": 10.416649999999999,
          "velocity": 0.889763779527559
        },
        {
          "duration": 0.13888866666666644,
          "durationTicks": 40,
          "midi": 48,
          "name": "C3",
          "ticks": 3120,
          "time": 10.833316,
          "velocity": 0.8031496062992126
        },
        {
          "duration": 0.13888866666666644,
          "durationTicks": 40,
          "midi": 60,
          "name": "C4",
          "ticks": 3120,
          "time": 10.833316,
          "velocity": 0.8031496062992126
        },
        {
          "duration": 0.08333320000000022,
          "durationTicks": 24,
          "midi": 50,
          "name": "D3",
          "ticks": 3160,
          "time": 10.972204666666666,
          "velocity": 0.8031496062992126
        },
        {
          "duration": 0.08333320000000022,
          "durationTicks": 24,
          "midi": 62,
          "name": "D4",
          "ticks": 3160,
          "time": 10.972204666666666,
          "velocity": 0.8031496062992126
        },
        {
          "duration": 0.09722206666666544,
          "durationTicks": 28,
          "midi": 50,
          "name": "D3",
          "ticks": 3200,
          "time": 11.111093333333333,
          "velocity": 0.84251968503937
        },
        {
          "duration": 0.09722206666666544,
          "durationTicks": 28,
          "midi": 62,
          "name": "D4",
          "ticks": 3200,
          "time": 11.111093333333333,
          "velocity": 0.84251968503937
        },
        {
          "duration": 0.3715271833333329,
          "durationTicks": 107,
          "midi": 50,
          "name": "D3",
          "ticks": 3240,
          "time": 11.249982,
          "velocity": 0.84251968503937
        },
        {
          "duration": 0.3715271833333329,
          "durationTicks": 107,
          "midi": 62,
          "name": "D4",
          "ticks": 3240,
          "time": 11.249982,
          "velocity": 0.84251968503937
        },
        {
          "duration": 0.12499980000000122,
          "durationTicks": 36,
          "midi": 48,
          "name": "C3",
          "ticks": 3360,
          "time": 11.666647999999999,
          "velocity": 0.8031496062992126
        },
        {
          "duration": 0.12499980000000122,
          "durationTicks": 36,
          "midi": 60,
          "name": "C4",
          "ticks": 3360,
          "time": 11.666647999999999,
          "velocity": 0.8031496062992126
        },
        {
          "duration": 0.062499900000002384,
          "durationTicks": 18,
          "midi": 50,
          "name": "D3",
          "ticks": 3400,
          "time": 11.805536666666665,
          "velocity": 0.8031496062992126
        },
        {
          "duration": 0.062499900000002384,
          "durationTicks": 18,
          "midi": 62,
          "name": "D4",
          "ticks": 3400,
          "time": 11.805536666666665,
          "velocity": 0.8031496062992126
        },
        {
          "duration": 0.0763887666666676,
          "durationTicks": 22,
          "midi": 50,
          "name": "D3",
          "ticks": 3440,
          "time": 11.944425333333333,
          "velocity": 0.7716535433070866
        },
        {
          "duration": 0.0763887666666676,
          "durationTicks": 22,
          "midi": 62,
          "name": "D4",
          "ticks": 3440,
          "time": 11.944425333333333,
          "velocity": 0.7716535433070866
        },
        {
          "duration": 0.2638884666666659,
          "durationTicks": 76,
          "midi": 50,
          "name": "D3",
          "ticks": 3480,
          "time": 12.083314,
          "velocity": 0.84251968503937
        },
        {
          "duration": 0.2638884666666659,
          "durationTicks": 76,
          "midi": 62,
          "name": "D4",
          "ticks": 3480,
          "time": 12.083314,
          "velocity": 0.84251968503937
        },
        {
          "duration": 0.10069428333333441,
          "durationTicks": 29,
          "midi": 48,
          "name": "C3",
          "ticks": 3560,
          "time": 12.361091333333333,
          "velocity": 0.7716535433070866
        },
        {
          "duration": 0.10069428333333441,
          "durationTicks": 29,
          "midi": 60,
          "name": "C4",
          "ticks": 3560,
          "time": 12.361091333333333,
          "velocity": 0.7716535433070866
        },
        {
          "duration": 0.4270826499999991,
          "durationTicks": 123,
          "midi": 71,
          "name": "B4",
          "ticks": 3600,
          "time": 12.499979999999999,
          "velocity": 0.84251968503937
        },
        {
          "duration": 0.3298605833333337,
          "durationTicks": 95,
          "midi": 55,
          "name": "G3",
          "ticks": 3600,
          "time": 12.499979999999999,
          "velocity": 0.937007874015748
        },
        {
          "duration": 0.3298605833333337,
          "durationTicks": 95,
          "midi": 67,
          "name": "G4",
          "ticks": 3600,
          "time": 12.499979999999999,
          "velocity": 0.937007874015748
        },
        {
          "duration": 0.3958326999999997,
          "durationTicks": 114,
          "midi": 69,
          "name": "A4",
          "ticks": 3720,
          "time": 12.916646,
          "velocity": 0.84251968503937
        },
        {
          "duration": 0.3715271833333329,
          "durationTicks": 107,
          "midi": 53,
          "name": "F3",
          "ticks": 3720,
          "time": 12.916646,
          "velocity": 0.889763779527559
        },
        {
          "duration": 0.3715271833333329,
          "durationTicks": 107,
          "midi": 65,
          "name": "F4",
          "ticks": 3720,
          "time": 12.916646,
          "velocity": 0.889763779527559
        },
        {
          "duration": 0.0902776333333346,
          "durationTicks": 26,
          "midi": 48,
          "name": "C3",
          "ticks": 3840,
          "time": 13.333312,
          "velocity": 0.84251968503937
        },
        {
          "duration": 0.0902776333333346,
          "durationTicks": 26,
          "midi": 60,
          "name": "C4",
          "ticks": 3840,
          "time": 13.333312,
          "velocity": 0.84251968503937
        },
        {
          "duration": 0.07291654999999864,
          "durationTicks": 21,
          "midi": 50,
          "name": "D3",
          "ticks": 3880,
          "time": 13.472200666666668,
          "velocity": 0.889763779527559
        },
        {
          "duration": 0.07291654999999864,
          "durationTicks": 21,
          "midi": 62,
          "name": "D4",
          "ticks": 3880,
          "time": 13.472200666666668,
          "velocity": 0.889763779527559
        },
        {
          "duration": 0.08333320000000022,
          "durationTicks": 24,
          "midi": 50,
          "name": "D3",
          "ticks": 3920,
          "time": 13.611089333333332,
          "velocity": 0.84251968503937
        },
        {
          "duration": 0.08333320000000022,
          "durationTicks": 24,
          "midi": 62,
          "name": "D4",
          "ticks": 3920,
          "time": 13.611089333333332,
          "velocity": 0.84251968503937
        },
        {
          "duration": 0.3749994000000001,
          "durationTicks": 108,
          "midi": 50,
          "name": "D3",
          "ticks": 3960,
          "time": 13.749977999999999,
          "velocity": 0.889763779527559
        },
        {
          "duration": 0.3749994000000001,
          "durationTicks": 108,
          "midi": 62,
          "name": "D4",
          "ticks": 3960,
          "time": 13.749977999999999,
          "velocity": 0.889763779527559
        },
        {
          "duration": 0.11111093333333244,
          "durationTicks": 32,
          "midi": 48,
          "name": "C3",
          "ticks": 4080,
          "time": 14.166644,
          "velocity": 0.7322834645669292
        },
        {
          "duration": 0.11111093333333244,
          "durationTicks": 32,
          "midi": 60,
          "name": "C4",
          "ticks": 4080,
          "time": 14.166644,
          "velocity": 0.7322834645669292
        },
        {
          "duration": 0.07291655000000041,
          "durationTicks": 21,
          "midi": 50,
          "name": "D3",
          "ticks": 4120,
          "time": 14.305532666666666,
          "velocity": 0.7716535433070866
        },
        {
          "duration": 0.07291655000000041,
          "durationTicks": 21,
          "midi": 62,
          "name": "D4",
          "ticks": 4120,
          "time": 14.305532666666666,
          "velocity": 0.7716535433070866
        },
        {
          "duration": 0.083333200000002,
          "durationTicks": 24,
          "midi": 50,
          "name": "D3",
          "ticks": 4160,
          "time": 14.444421333333331,
          "velocity": 0.7007874015748031
        },
        {
          "duration": 0.083333200000002,
          "durationTicks": 24,
          "midi": 62,
          "name": "D4",
          "ticks": 4160,
          "time": 14.444421333333331,
          "velocity": 0.7007874015748031
        },
        {
          "duration": 0.3923604833333343,
          "durationTicks": 113,
          "midi": 50,
          "name": "D3",
          "ticks": 4200,
          "time": 14.583309999999999,
          "velocity": 0.889763779527559
        },
        {
          "duration": 0.3923604833333343,
          "durationTicks": 113,
          "midi": 62,
          "name": "D4",
          "ticks": 4200,
          "time": 14.583309999999999,
          "velocity": 0.889763779527559
        },
        {
          "duration": 0.12499979999999766,
          "durationTicks": 36,
          "midi": 48,
          "name": "C3",
          "ticks": 4320,
          "time": 14.999976,
          "velocity": 0.7322834645669292
        },
        {
          "duration": 0.12499979999999766,
          "durationTicks": 36,
          "midi": 60,
          "name": "C4",
          "ticks": 4320,
          "time": 14.999976,
          "velocity": 0.7322834645669292
        },
        {
          "duration": 0.07986098333333125,
          "durationTicks": 23,
          "midi": 50,
          "name": "D3",
          "ticks": 4360,
          "time": 15.138864666666667,
          "velocity": 0.7322834645669292
        },
        {
          "duration": 0.07986098333333125,
          "durationTicks": 23,
          "midi": 62,
          "name": "D4",
          "ticks": 4360,
          "time": 15.138864666666667,
          "velocity": 0.7322834645669292
        },
        {
          "duration": 0.08680541666666741,
          "durationTicks": 25,
          "midi": 50,
          "name": "D3",
          "ticks": 4400,
          "time": 15.277753333333331,
          "velocity": 0.84251968503937
        },
        {
          "duration": 0.08680541666666741,
          "durationTicks": 25,
          "midi": 62,
          "name": "D4",
          "ticks": 4400,
          "time": 15.277753333333331,
          "velocity": 0.84251968503937
        },
        {
          "duration": 0.2708328999999985,
          "durationTicks": 78,
          "midi": 50,
          "name": "D3",
          "ticks": 4440,
          "time": 15.416642,
          "velocity": 0.84251968503937
        },
        {
          "duration": 0.2708328999999985,
          "durationTicks": 78,
          "midi": 62,
          "name": "D4",
          "ticks": 4440,
          "time": 15.416642,
          "velocity": 0.84251968503937
        },
        {
          "duration": 0.11111093333333244,
          "durationTicks": 32,
          "midi": 48,
          "name": "C3",
          "ticks": 4520,
          "time": 15.694419333333332,
          "velocity": 0.84251968503937
        },
        {
          "duration": 0.11111093333333244,
          "durationTicks": 32,
          "midi": 60,
          "name": "C4",
          "ticks": 4520,
          "time": 15.694419333333332,
          "velocity": 0.84251968503937
        },
        {
          "duration": 0.4062493499999995,
          "durationTicks": 117,
          "midi": 69,
          "name": "A4",
          "ticks": 4560,
          "time": 15.833307999999999,
          "velocity": 0.8031496062992126
        },
        {
          "duration": 0.3680549666666657,
          "durationTicks": 106,
          "midi": 53,
          "name": "F3",
          "ticks": 4560,
          "time": 15.833307999999999,
          "velocity": 0.889763779527559
        },
        {
          "duration": 0.3680549666666657,
          "durationTicks": 106,
          "midi": 65,
          "name": "F4",
          "ticks": 4560,
          "time": 15.833307999999999,
          "velocity": 0.889763779527559
        },
        {
          "duration": 0.2777773333333329,
          "durationTicks": 80,
          "midi": 72,
          "name": "C5",
          "ticks": 4680,
          "time": 16.249973999999998,
          "velocity": 0.8031496062992126
        },
        {
          "duration": 0.24305516666666804,
          "durationTicks": 70,
          "midi": 52,
          "name": "E3",
          "ticks": 4680,
          "time": 16.249973999999998,
          "velocity": 0.889763779527559
        },
        {
          "duration": 0.24305516666666804,
          "durationTicks": 70,
          "midi": 64,
          "name": "E4",
          "ticks": 4680,
          "time": 16.249973999999998,
          "velocity": 0.889763779527559
        },
        {
          "duration": 1.052081649999998,
          "durationTicks": 303,
          "midi": 57,
          "name": "A3",
          "ticks": 4800,
          "time": 16.66664,
          "velocity": 0.7007874015748031
        },
        {
          "duration": 1.027776133333333,
          "durationTicks": 296,
          "midi": 50,
          "name": "D3",
          "ticks": 4800,
          "time": 16.66664,
          "velocity": 0.7007874015748031
        },
        {
          "duration": 0.07638876666666405,
          "durationTicks": 22,
          "midi": 50,
          "name": "D3",
          "ticks": 5160,
          "time": 17.916638,
          "velocity": 0.4881889763779528
        },
        {
          "duration": 0.09722206666666722,
          "durationTicks": 28,
          "midi": 57,
          "name": "A3",
          "ticks": 5160,
          "time": 17.916638,
          "velocity": 0.6299212598425197
        },
        {
          "duration": 1.1562481499999997,
          "durationTicks": 333,
          "midi": 50,
          "name": "D3",
          "ticks": 5280,
          "time": 18.333304,
          "velocity": 0.4881889763779528
        },
        {
          "duration": 1.170137016666665,
          "durationTicks": 337,
          "midi": 57,
          "name": "A3",
          "ticks": 5280,
          "time": 18.333304,
          "velocity": 0.5984251968503937
        },
        {
          "duration": 0.11805536666666683,
          "durationTicks": 34,
          "midi": 57,
          "name": "A3",
          "ticks": 5640,
          "time": 19.583302,
          "velocity": 0.5984251968503937
        },
        {
          "duration": 0.1319442333333356,
          "durationTicks": 38,
          "midi": 50,
          "name": "D3",
          "ticks": 5640,
          "time": 19.583302,
          "velocity": 0.5984251968503937
        },
        {
          "duration": 1.1145815500000005,
          "durationTicks": 321,
          "midi": 53,
          "name": "F3",
          "ticks": 5760,
          "time": 19.999968,
          "velocity": 0.7007874015748031
        },
        {
          "duration": 1.1284704166666693,
          "durationTicks": 325,
          "midi": 46,
          "name": "A#2",
          "ticks": 5760,
          "time": 19.999968,
          "velocity": 0.5984251968503937
        },
        {
          "duration": 0.11805536666666328,
          "durationTicks": 34,
          "midi": 53,
          "name": "F3",
          "ticks": 6120,
          "time": 21.249966,
          "velocity": 0.5984251968503937
        },
        {
          "duration": 0.08680541666666741,
          "durationTicks": 25,
          "midi": 46,
          "name": "A#2",
          "ticks": 6120,
          "time": 21.249966,
          "velocity": 0.6299212598425197
        },
        {
          "duration": 0.6354156499999988,
          "durationTicks": 183,
          "midi": 53,
          "name": "F3",
          "ticks": 6240,
          "time": 21.666632,
          "velocity": 0.6692913385826772
        },
        {
          "duration": 0.6076379166666683,
          "durationTicks": 175,
          "midi": 46,
          "name": "A#2",
          "ticks": 6240,
          "time": 21.666632,
          "velocity": 0.6692913385826772
        },
        {
          "duration": 0.12499979999999766,
          "durationTicks": 36,
          "midi": 53,
          "name": "F3",
          "ticks": 6480,
          "time": 22.499964,
          "velocity": 0.7716535433070866
        },
        {
          "duration": 0.10069428333333263,
          "durationTicks": 29,
          "midi": 46,
          "name": "A#2",
          "ticks": 6480,
          "time": 22.499964,
          "velocity": 0.7322834645669292
        },
        {
          "duration": 0.24999960000000243,
          "durationTicks": 72,
          "midi": 48,
          "name": "C3",
          "ticks": 6600,
          "time": 22.916629999999998,
          "velocity": 0.7716535433070866
        },
        {
          "duration": 0.24999960000000243,
          "durationTicks": 72,
          "midi": 55,
          "name": "G3",
          "ticks": 6600,
          "time": 22.916629999999998,
          "velocity": 0.84251968503937
        },
        {
          "duration": 1.468747650000001,
          "durationTicks": 423,
          "midi": 50,
          "name": "D3",
          "ticks": 6720,
          "time": 23.333295999999997,
          "velocity": 0.7322834645669292
        },
        {
          "duration": 1.496525383333335,
          "durationTicks": 431,
          "midi": 57,
          "name": "A3",
          "ticks": 6720,
          "time": 23.333295999999997,
          "velocity": 0.7322834645669292
        },
        {
          "duration": 1.0902760333333354,
          "durationTicks": 314,
          "midi": 50,
          "name": "D3",
          "ticks": 7200,
          "time": 24.999959999999998,
          "velocity": 0.5354330708661418
        },
        {
          "duration": 1.1423592833333345,
          "durationTicks": 329,
          "midi": 57,
          "name": "A3",
          "ticks": 7200,
          "time": 24.999959999999998,
          "velocity": 0.6692913385826772
        },
        {
          "duration": 0.12152758333333225,
          "durationTicks": 35,
          "midi": 57,
          "name": "A3",
          "ticks": 7560,
          "time": 26.249958,
          "velocity": 0.7007874015748031
        },
        {
          "duration": 0.10763871666666702,
          "durationTicks": 31,
          "midi": 50,
          "name": "D3",
          "ticks": 7560,
          "time": 26.249958,
          "velocity": 0.6692913385826772
        },
        {
          "duration": 1.4895809500000006,
          "durationTicks": 429,
          "midi": 53,
          "name": "F3",
          "ticks": 7680,
          "time": 26.666624,
          "velocity": 0.7322834645669292
        },
        {
          "duration": 1.4722198666666664,
          "durationTicks": 424,
          "midi": 46,
          "name": "A#2",
          "ticks": 7680,
          "time": 26.666624,
          "velocity": 0.7007874015748031
        },
        {
          "duration": 0.6388878666666642,
          "durationTicks": 184,
          "midi": 46,
          "name": "A#2",
          "ticks": 8160,
          "time": 28.333288,
          "velocity": 0.5669291338582677
        },
        {
          "duration": 0.6840266833333324,
          "durationTicks": 197,
          "midi": 53,
          "name": "F3",
          "ticks": 8160,
          "time": 28.333288,
          "velocity": 0.6299212598425197
        },
        {
          "duration": 0.1423608833333354,
          "durationTicks": 41,
          "midi": 46,
          "name": "A#2",
          "ticks": 8400,
          "time": 29.166619999999998,
          "velocity": 0.84251968503937
        },
        {
          "duration": 0.2812495499999983,
          "durationTicks": 81,
          "midi": 53,
          "name": "F3",
          "ticks": 8400,
          "time": 29.166619999999998,
          "velocity": 0.8031496062992126
        },
        {
          "duration": 0.1423608833333354,
          "durationTicks": 41,
          "midi": 53,
          "name": "F3",
          "ticks": 8520,
          "time": 29.583285999999998,
          "velocity": 0.84251968503937
        },
        {
          "duration": 1.4861087333333316,
          "durationTicks": 428,
          "midi": 43,
          "name": "G2",
          "ticks": 8640,
          "time": 29.999952,
          "velocity": 0.7716535433070866
        },
        {
          "duration": 1.4791642999999972,
          "durationTicks": 426,
          "midi": 50,
          "name": "D3",
          "ticks": 8640,
          "time": 29.999952,
          "velocity": 0.889763779527559
        },
        {
          "duration": 1.409719966666671,
          "durationTicks": 406,
          "midi": 45,
          "name": "A2",
          "ticks": 9120,
          "time": 31.666615999999998,
          "velocity": 0.7322834645669292
        },
        {
          "duration": 1.4548587833333286,
          "durationTicks": 419,
          "midi": 52,
          "name": "E3",
          "ticks": 9120,
          "time": 31.666615999999998,
          "velocity": 0.7322834645669292
        },
        {
          "duration": 1.4201366166666602,
          "durationTicks": 409,
          "midi": 43,
          "name": "G2",
          "ticks": 9600,
          "time": 33.33328,
          "velocity": 0.8031496062992126
        },
        {
          "duration": 1.4409699166666599,
          "durationTicks": 415,
          "midi": 50,
          "name": "D3",
          "ticks": 9600,
          "time": 33.33328,
          "velocity": 0.84251968503937
        },
        {
          "duration": 0.3229161500000046,
          "durationTicks": 93,
          "midi": 52,
          "name": "E3",
          "ticks": 10080,
          "time": 34.999944,
          "velocity": 0.7716535433070866
        },
        {
          "duration": 0.3194439333333321,
          "durationTicks": 92,
          "midi": 45,
          "name": "A2",
          "ticks": 10080,
          "time": 34.999944,
          "velocity": 0.7322834645669292
        },
        {
          "duration": 0.23611073333333366,
          "durationTicks": 68,
          "midi": 45,
          "name": "A2",
          "ticks": 10200,
          "time": 35.41661,
          "velocity": 0.7007874015748031
        },
        {
          "duration": 0.27083290000000204,
          "durationTicks": 78,
          "midi": 52,
          "name": "E3",
          "ticks": 10200,
          "time": 35.41661,
          "velocity": 0.7007874015748031
        },
        {
          "duration": 0.2847217666666708,
          "durationTicks": 82,
          "midi": 45,
          "name": "A2",
          "ticks": 10320,
          "time": 35.833276,
          "velocity": 0.7716535433070866
        },
        {
          "duration": 0.29513841666666707,
          "durationTicks": 85,
          "midi": 52,
          "name": "E3",
          "ticks": 10320,
          "time": 35.833276,
          "velocity": 0.7322834645669292
        },
        {
          "duration": 0.23263851666666824,
          "durationTicks": 67,
          "midi": 45,
          "name": "A2",
          "ticks": 10440,
          "time": 36.249942,
          "velocity": 0.7716535433070866
        },
        {
          "duration": 0.22916630000000282,
          "durationTicks": 66,
          "midi": 52,
          "name": "E3",
          "ticks": 10440,
          "time": 36.249942,
          "velocity": 0.7007874015748031
        },
        {
          "duration": 0.32986058333333546,
          "durationTicks": 95,
          "midi": 57,
          "name": "A3",
          "ticks": 10560,
          "time": 36.666608,
          "velocity": 0.7007874015748031
        },
        {
          "duration": 0.32986058333333546,
          "durationTicks": 95,
          "midi": 50,
          "name": "D3",
          "ticks": 10560,
          "time": 36.666608,
          "velocity": 0.7716535433070866
        },
        {
          "duration": 0.10416650000000516,
          "durationTicks": 30,
          "midi": 50,
          "name": "D3",
          "ticks": 10680,
          "time": 37.083273999999996,
          "velocity": 0.7007874015748031
        },
        {
          "duration": 0.10416650000000516,
          "durationTicks": 30,
          "midi": 57,
          "name": "A3",
          "ticks": 10680,
          "time": 37.083273999999996,
          "velocity": 0.6299212598425197
        },
        {
          "duration": 0.44097151666666434,
          "durationTicks": 127,
          "midi": 41,
          "name": "F2",
          "ticks": 11040,
          "time": 38.333272,
          "velocity": 0.7322834645669292
        },
        {
          "duration": 0.11111093333332889,
          "durationTicks": 32,
          "midi": 53,
          "name": "F3",
          "ticks": 11160,
          "time": 38.749938,
          "velocity": 0.7007874015748031
        },
        {
          "duration": 0.13541645000000102,
          "durationTicks": 39,
          "midi": 57,
          "name": "A3",
          "ticks": 11160,
          "time": 38.749938,
          "velocity": 0.8031496062992126
        },
        {
          "duration": 0.10763871666667058,
          "durationTicks": 31,
          "midi": 53,
          "name": "F3",
          "ticks": 11400,
          "time": 39.58327,
          "velocity": 0.7322834645669292
        },
        {
          "duration": 0.09722206666666722,
          "durationTicks": 28,
          "midi": 41,
          "name": "F2",
          "ticks": 11400,
          "time": 39.58327,
          "velocity": 0.7322834645669292
        },
        {
          "duration": 0.36458274999999674,
          "durationTicks": 105,
          "midi": 43,
          "name": "G2",
          "ticks": 11520,
          "time": 39.999936,
          "velocity": 0.8031496062992126
        },
        {
          "duration": 0.13888866666666644,
          "durationTicks": 40,
          "midi": 43,
          "name": "G2",
          "ticks": 11640,
          "time": 40.416602,
          "velocity": 0.7322834645669292
        },
        {
          "duration": 0.1527775333333281,
          "durationTicks": 44,
          "midi": 55,
          "name": "G3",
          "ticks": 11640,
          "time": 40.416602,
          "velocity": 0.6299212598425197
        },
        {
          "duration": 0.16319418333333147,
          "durationTicks": 47,
          "midi": 59,
          "name": "B3",
          "ticks": 11640,
          "time": 40.416602,
          "velocity": 0.7322834645669292
        },
        {
          "duration": 0.25694403333333327,
          "durationTicks": 74,
          "midi": 55,
          "name": "G3",
          "ticks": 11760,
          "time": 40.833268,
          "velocity": 0.7007874015748031
        },
        {
          "duration": 0.11111093333333599,
          "durationTicks": 32,
          "midi": 55,
          "name": "G3",
          "ticks": 11880,
          "time": 41.249933999999996,
          "velocity": 0.6692913385826772
        },
        {
          "duration": 0.09722206666666722,
          "durationTicks": 28,
          "midi": 43,
          "name": "G2",
          "ticks": 11880,
          "time": 41.249933999999996,
          "velocity": 0.7716535433070866
        },
        {
          "duration": 0.18055526666666566,
          "durationTicks": 52,
          "midi": 46,
          "name": "A#2",
          "ticks": 12040,
          "time": 41.80548866666666,
          "velocity": 0.5039370078740157
        },
        {
          "duration": 0.3368050166666734,
          "durationTicks": 97,
          "midi": 58,
          "name": "A#3",
          "ticks": 12120,
          "time": 42.083265999999995,
          "velocity": 0.5984251968503937
        },
        {
          "duration": 0.3333328000000009,
          "durationTicks": 96,
          "midi": 53,
          "name": "F3",
          "ticks": 12120,
          "time": 42.083265999999995,
          "velocity": 0.5984251968503937
        },
        {
          "duration": 0.30902728333333584,
          "durationTicks": 89,
          "midi": 62,
          "name": "D4",
          "ticks": 12120,
          "time": 42.083265999999995,
          "velocity": 0.7322834645669292
        },
        {
          "duration": 0.21874964999999946,
          "durationTicks": 63,
          "midi": 58,
          "name": "A#3",
          "ticks": 12240,
          "time": 42.499932,
          "velocity": 0.4881889763779528
        },
        {
          "duration": 0.2048607833333307,
          "durationTicks": 59,
          "midi": 53,
          "name": "F3",
          "ticks": 12240,
          "time": 42.499932,
          "velocity": 0.5039370078740157
        },
        {
          "duration": 0.18402748333333108,
          "durationTicks": 53,
          "midi": 62,
          "name": "D4",
          "ticks": 12240,
          "time": 42.499932,
          "velocity": 0.6692913385826772
        },
        {
          "duration": 0.10416649999999805,
          "durationTicks": 30,
          "midi": 53,
          "name": "F3",
          "ticks": 12360,
          "time": 42.916598,
          "velocity": 0.4881889763779528
        },
        {
          "duration": 0.12847201666666308,
          "durationTicks": 37,
          "midi": 58,
          "name": "A#3",
          "ticks": 12360,
          "time": 42.916598,
          "velocity": 0.5039370078740157
        },
        {
          "duration": 0.12847201666666308,
          "durationTicks": 37,
          "midi": 62,
          "name": "D4",
          "ticks": 12360,
          "time": 42.916598,
          "velocity": 0.7007874015748031
        },
        {
          "duration": 0.2847217666666637,
          "durationTicks": 82,
          "midi": 50,
          "name": "D3",
          "ticks": 12480,
          "time": 43.333264,
          "velocity": 0.84251968503937
        },
        {
          "duration": 0.10069428333333263,
          "durationTicks": 29,
          "midi": 57,
          "name": "A3",
          "ticks": 12600,
          "time": 43.74993,
          "velocity": 0.5669291338582677
        },
        {
          "duration": 0.09722206666666722,
          "durationTicks": 28,
          "midi": 50,
          "name": "D3",
          "ticks": 12600,
          "time": 43.74993,
          "velocity": 0.7322834645669292
        },
        {
          "duration": 0.11805536666666683,
          "durationTicks": 34,
          "midi": 62,
          "name": "D4",
          "ticks": 12600,
          "time": 43.74993,
          "velocity": 0.7716535433070866
        },
        {
          "duration": 0.06944433333333677,
          "durationTicks": 20,
          "midi": 57,
          "name": "A3",
          "ticks": 12720,
          "time": 44.166596,
          "velocity": 0.4094488188976378
        },
        {
          "duration": 0.09027763333333638,
          "durationTicks": 26,
          "midi": 62,
          "name": "D4",
          "ticks": 12720,
          "time": 44.166596,
          "velocity": 0.5669291338582677
        },
        {
          "duration": 0.10763871666667058,
          "durationTicks": 31,
          "midi": 57,
          "name": "A3",
          "ticks": 12840,
          "time": 44.583262,
          "velocity": 0.4881889763779528
        },
        {
          "duration": 0.0937498499999947,
          "durationTicks": 27,
          "midi": 62,
          "name": "D4",
          "ticks": 12840,
          "time": 44.583262,
          "velocity": 0.7322834645669292
        },
        {
          "duration": 0.07291655000000219,
          "durationTicks": 21,
          "midi": 50,
          "name": "D3",
          "ticks": 12840,
          "time": 44.583262,
          "velocity": 0.6299212598425197
        },
        {
          "duration": 0.30902728333332874,
          "durationTicks": 89,
          "midi": 41,
          "name": "F2",
          "ticks": 12960,
          "time": 44.999928,
          "velocity": 0.7716535433070866
        },
        {
          "duration": 0.11805536666666683,
          "durationTicks": 34,
          "midi": 53,
          "name": "F3",
          "ticks": 13080,
          "time": 45.416593999999996,
          "velocity": 0.7716535433070866
        },
        {
          "duration": 0.12152758333333935,
          "durationTicks": 35,
          "midi": 41,
          "name": "F2",
          "ticks": 13080,
          "time": 45.416593999999996,
          "velocity": 0.7322834645669292
        },
        {
          "duration": 0.09722206666666722,
          "durationTicks": 28,
          "midi": 53,
          "name": "F3",
          "ticks": 13320,
          "time": 46.249925999999995,
          "velocity": 0.7322834645669292
        },
        {
          "duration": 0.10069428333333263,
          "durationTicks": 29,
          "midi": 41,
          "name": "F2",
          "ticks": 13320,
          "time": 46.249925999999995,
          "velocity": 0.7716535433070866
        },
        {
          "duration": 0.2638884666666712,
          "durationTicks": 76,
          "midi": 43,
          "name": "G2",
          "ticks": 13440,
          "time": 46.666591999999994,
          "velocity": 0.7322834645669292
        },
        {
          "duration": 0.2847217666666708,
          "durationTicks": 82,
          "midi": 55,
          "name": "G3",
          "ticks": 13440,
          "time": 46.666591999999994,
          "velocity": 0.7322834645669292
        },
        {
          "duration": 0.2812495499999983,
          "durationTicks": 81,
          "midi": 55,
          "name": "G3",
          "ticks": 13560,
          "time": 47.083258,
          "velocity": 0.7322834645669292
        },
        {
          "duration": 0.1909719166666619,
          "durationTicks": 55,
          "midi": 43,
          "name": "G2",
          "ticks": 13560,
          "time": 47.083258,
          "velocity": 0.7322834645669292
        },
        {
          "duration": 0.12499979999999766,
          "durationTicks": 36,
          "midi": 55,
          "name": "G3",
          "ticks": 13680,
          "time": 47.499924,
          "velocity": 0.7322834645669292
        },
        {
          "duration": 0.13888866666665933,
          "durationTicks": 40,
          "midi": 43,
          "name": "G2",
          "ticks": 13680,
          "time": 47.499924,
          "velocity": 0.7007874015748031
        },
        {
          "duration": 0.10416649999999805,
          "durationTicks": 30,
          "midi": 55,
          "name": "G3",
          "ticks": 13800,
          "time": 47.91659,
          "velocity": 0.7322834645669292
        },
        {
          "duration": 0.4305548666666681,
          "durationTicks": 124,
          "midi": 46,
          "name": "A#2",
          "ticks": 13920,
          "time": 48.333256,
          "velocity": 0.8031496062992126
        },
        {
          "duration": 0.4895825500000015,
          "durationTicks": 141,
          "midi": 53,
          "name": "F3",
          "ticks": 14040,
          "time": 48.749922,
          "velocity": 0.7007874015748031
        },
        {
          "duration": 0.4930547666666669,
          "durationTicks": 142,
          "midi": 58,
          "name": "A#3",
          "ticks": 14040,
          "time": 48.749922,
          "velocity": 0.6692913385826772
        },
        {
          "duration": 0.5243047166666699,
          "durationTicks": 151,
          "midi": 62,
          "name": "D4",
          "ticks": 14040,
          "time": 48.749922,
          "velocity": 0.84251968503937
        },
        {
          "duration": 0.10069428333333263,
          "durationTicks": 29,
          "midi": 48,
          "name": "C3",
          "ticks": 14400,
          "time": 49.999919999999996,
          "velocity": 0.84251968503937
        },
        {
          "duration": 0.10069428333333263,
          "durationTicks": 29,
          "midi": 60,
          "name": "C4",
          "ticks": 14400,
          "time": 49.999919999999996,
          "velocity": 0.84251968503937
        },
        {
          "duration": 0.06249990000000594,
          "durationTicks": 18,
          "midi": 50,
          "name": "D3",
          "ticks": 14440,
          "time": 50.13880866666666,
          "velocity": 0.84251968503937
        },
        {
          "duration": 0.06249990000000594,
          "durationTicks": 18,
          "midi": 62,
          "name": "D4",
          "ticks": 14440,
          "time": 50.13880866666666,
          "velocity": 0.84251968503937
        },
        {
          "duration": 0.07291654999999508,
          "durationTicks": 21,
          "midi": 50,
          "name": "D3",
          "ticks": 14480,
          "time": 50.277697333333336,
          "velocity": 0.84251968503937
        },
        {
          "duration": 0.07291654999999508,
          "durationTicks": 21,
          "midi": 62,
          "name": "D4",
          "ticks": 14480,
          "time": 50.277697333333336,
          "velocity": 0.84251968503937
        },
        {
          "duration": 0.3993049166666651,
          "durationTicks": 115,
          "midi": 50,
          "name": "D3",
          "ticks": 14520,
          "time": 50.416585999999995,
          "velocity": 0.889763779527559
        },
        {
          "duration": 0.3993049166666651,
          "durationTicks": 115,
          "midi": 62,
          "name": "D4",
          "ticks": 14520,
          "time": 50.416585999999995,
          "velocity": 0.889763779527559
        },
        {
          "duration": 0.13888866666666644,
          "durationTicks": 40,
          "midi": 48,
          "name": "C3",
          "ticks": 14640,
          "time": 50.833251999999995,
          "velocity": 0.8031496062992126
        },
        {
          "duration": 0.13888866666666644,
          "durationTicks": 40,
          "midi": 60,
          "name": "C4",
          "ticks": 14640,
          "time": 50.833251999999995,
          "velocity": 0.8031496062992126
        },
        {
          "duration": 0.08333320000000555,
          "durationTicks": 24,
          "midi": 50,
          "name": "D3",
          "ticks": 14680,
          "time": 50.97214066666666,
          "velocity": 0.8031496062992126
        },
        {
          "duration": 0.08333320000000555,
          "durationTicks": 24,
          "midi": 62,
          "name": "D4",
          "ticks": 14680,
          "time": 50.97214066666666,
          "velocity": 0.8031496062992126
        },
        {
          "duration": 0.09722206666666722,
          "durationTicks": 28,
          "midi": 50,
          "name": "D3",
          "ticks": 14720,
          "time": 51.111029333333335,
          "velocity": 0.84251968503937
        },
        {
          "duration": 0.09722206666666722,
          "durationTicks": 28,
          "midi": 62,
          "name": "D4",
          "ticks": 14720,
          "time": 51.111029333333335,
          "velocity": 0.84251968503937
        },
        {
          "duration": 0.37152718333332757,
          "durationTicks": 107,
          "midi": 50,
          "name": "D3",
          "ticks": 14760,
          "time": 51.249918,
          "velocity": 0.84251968503937
        },
        {
          "duration": 0.37152718333332757,
          "durationTicks": 107,
          "midi": 62,
          "name": "D4",
          "ticks": 14760,
          "time": 51.249918,
          "velocity": 0.84251968503937
        },
        {
          "duration": 0.12499979999999766,
          "durationTicks": 36,
          "midi": 48,
          "name": "C3",
          "ticks": 14880,
          "time": 51.666584,
          "velocity": 0.8031496062992126
        },
        {
          "duration": 0.12499979999999766,
          "durationTicks": 36,
          "midi": 60,
          "name": "C4",
          "ticks": 14880,
          "time": 51.666584,
          "velocity": 0.8031496062992126
        },
        {
          "duration": 0.06249990000000594,
          "durationTicks": 18,
          "midi": 50,
          "name": "D3",
          "ticks": 14920,
          "time": 51.80547266666666,
          "velocity": 0.8031496062992126
        },
        {
          "duration": 0.06249990000000594,
          "durationTicks": 18,
          "midi": 62,
          "name": "D4",
          "ticks": 14920,
          "time": 51.80547266666666,
          "velocity": 0.8031496062992126
        },
        {
          "duration": 0.0763887666666605,
          "durationTicks": 22,
          "midi": 50,
          "name": "D3",
          "ticks": 14960,
          "time": 51.94436133333333,
          "velocity": 0.7716535433070866
        },
        {
          "duration": 0.0763887666666605,
          "durationTicks": 22,
          "midi": 62,
          "name": "D4",
          "ticks": 14960,
          "time": 51.94436133333333,
          "velocity": 0.7716535433070866
        },
        {
          "duration": 0.2638884666666641,
          "durationTicks": 76,
          "midi": 50,
          "name": "D3",
          "ticks": 15000,
          "time": 52.08325,
          "velocity": 0.84251968503937
        },
        {
          "duration": 0.2638884666666641,
          "durationTicks": 76,
          "midi": 62,
          "name": "D4",
          "ticks": 15000,
          "time": 52.08325,
          "velocity": 0.84251968503937
        },
        {
          "duration": 0.10069428333333263,
          "durationTicks": 29,
          "midi": 48,
          "name": "C3",
          "ticks": 15080,
          "time": 52.36102733333333,
          "velocity": 0.7716535433070866
        },
        {
          "duration": 0.10069428333333263,
          "durationTicks": 29,
          "midi": 60,
          "name": "C4",
          "ticks": 15080,
          "time": 52.36102733333333,
          "velocity": 0.7716535433070866
        },
        {
          "duration": 0.4270826500000027,
          "durationTicks": 123,
          "midi": 71,
          "name": "B4",
          "ticks": 15120,
          "time": 52.499916,
          "velocity": 0.84251968503937
        },
        {
          "duration": 0.32986058333333546,
          "durationTicks": 95,
          "midi": 55,
          "name": "G3",
          "ticks": 15120,
          "time": 52.499916,
          "velocity": 0.937007874015748
        },
        {
          "duration": 0.32986058333333546,
          "durationTicks": 95,
          "midi": 67,
          "name": "G4",
          "ticks": 15120,
          "time": 52.499916,
          "velocity": 0.937007874015748
        },
        {
          "duration": 0.3958326999999997,
          "durationTicks": 114,
          "midi": 69,
          "name": "A4",
          "ticks": 15240,
          "time": 52.916582,
          "velocity": 0.84251968503937
        },
        {
          "duration": 0.3715271833333347,
          "durationTicks": 107,
          "midi": 53,
          "name": "F3",
          "ticks": 15240,
          "time": 52.916582,
          "velocity": 0.889763779527559
        },
        {
          "duration": 0.3715271833333347,
          "durationTicks": 107,
          "midi": 65,
          "name": "F4",
          "ticks": 15240,
          "time": 52.916582,
          "velocity": 0.889763779527559
        },
        {
          "duration": 0.09027763333333638,
          "durationTicks": 26,
          "midi": 48,
          "name": "C3",
          "ticks": 15360,
          "time": 53.333248,
          "velocity": 0.84251968503937
        },
        {
          "duration": 0.09027763333333638,
          "durationTicks": 26,
          "midi": 60,
          "name": "C4",
          "ticks": 15360,
          "time": 53.333248,
          "velocity": 0.84251968503937
        },
        {
          "duration": 0.07291654999998798,
          "durationTicks": 21,
          "midi": 50,
          "name": "D3",
          "ticks": 15400,
          "time": 53.47213666666667,
          "velocity": 0.889763779527559
        },
        {
          "duration": 0.07291654999998798,
          "durationTicks": 21,
          "midi": 62,
          "name": "D4",
          "ticks": 15400,
          "time": 53.47213666666667,
          "velocity": 0.889763779527559
        },
        {
          "duration": 0.08333320000000555,
          "durationTicks": 24,
          "midi": 50,
          "name": "D3",
          "ticks": 15440,
          "time": 53.61102533333333,
          "velocity": 0.84251968503937
        },
        {
          "duration": 0.08333320000000555,
          "durationTicks": 24,
          "midi": 62,
          "name": "D4",
          "ticks": 15440,
          "time": 53.61102533333333,
          "velocity": 0.84251968503937
        },
        {
          "duration": 0.3749994000000001,
          "durationTicks": 108,
          "midi": 50,
          "name": "D3",
          "ticks": 15480,
          "time": 53.749914,
          "velocity": 0.889763779527559
        },
        {
          "duration": 0.3749994000000001,
          "durationTicks": 108,
          "midi": 62,
          "name": "D4",
          "ticks": 15480,
          "time": 53.749914,
          "velocity": 0.889763779527559
        },
        {
          "duration": 0.1111109333333431,
          "durationTicks": 32,
          "midi": 48,
          "name": "C3",
          "ticks": 15600,
          "time": 54.166579999999996,
          "velocity": 0.7322834645669292
        },
        {
          "duration": 0.1111109333333431,
          "durationTicks": 32,
          "midi": 60,
          "name": "C4",
          "ticks": 15600,
          "time": 54.166579999999996,
          "velocity": 0.7322834645669292
        },
        {
          "duration": 0.07291654999998798,
          "durationTicks": 21,
          "midi": 50,
          "name": "D3",
          "ticks": 15640,
          "time": 54.30546866666667,
          "velocity": 0.7716535433070866
        },
        {
          "duration": 0.07291654999998798,
          "durationTicks": 21,
          "midi": 62,
          "name": "D4",
          "ticks": 15640,
          "time": 54.30546866666667,
          "velocity": 0.7716535433070866
        },
        {
          "duration": 0.08333320000000555,
          "durationTicks": 24,
          "midi": 50,
          "name": "D3",
          "ticks": 15680,
          "time": 54.44435733333333,
          "velocity": 0.7007874015748031
        },
        {
          "duration": 0.08333320000000555,
          "durationTicks": 24,
          "midi": 62,
          "name": "D4",
          "ticks": 15680,
          "time": 54.44435733333333,
          "velocity": 0.7007874015748031
        },
        {
          "duration": 0.3923604833333343,
          "durationTicks": 113,
          "midi": 50,
          "name": "D3",
          "ticks": 15720,
          "time": 54.583245999999995,
          "velocity": 0.889763779527559
        },
        {
          "duration": 0.3923604833333343,
          "durationTicks": 113,
          "midi": 62,
          "name": "D4",
          "ticks": 15720,
          "time": 54.583245999999995,
          "velocity": 0.889763779527559
        },
        {
          "duration": 0.12499980000000477,
          "durationTicks": 36,
          "midi": 48,
          "name": "C3",
          "ticks": 15840,
          "time": 54.999911999999995,
          "velocity": 0.7322834645669292
        },
        {
          "duration": 0.12499980000000477,
          "durationTicks": 36,
          "midi": 60,
          "name": "C4",
          "ticks": 15840,
          "time": 54.999911999999995,
          "velocity": 0.7322834645669292
        },
        {
          "duration": 0.07986098333333302,
          "durationTicks": 23,
          "midi": 50,
          "name": "D3",
          "ticks": 15880,
          "time": 55.13880066666667,
          "velocity": 0.7322834645669292
        },
        {
          "duration": 0.07986098333333302,
          "durationTicks": 23,
          "midi": 62,
          "name": "D4",
          "ticks": 15880,
          "time": 55.13880066666667,
          "velocity": 0.7322834645669292
        },
        {
          "duration": 0.08680541666667096,
          "durationTicks": 25,
          "midi": 50,
          "name": "D3",
          "ticks": 15920,
          "time": 55.27768933333333,
          "velocity": 0.84251968503937
        },
        {
          "duration": 0.08680541666667096,
          "durationTicks": 25,
          "midi": 62,
          "name": "D4",
          "ticks": 15920,
          "time": 55.27768933333333,
          "velocity": 0.84251968503937
        },
        {
          "duration": 0.27083290000000915,
          "durationTicks": 78,
          "midi": 50,
          "name": "D3",
          "ticks": 15960,
          "time": 55.416577999999994,
          "velocity": 0.84251968503937
        },
        {
          "duration": 0.27083290000000915,
          "durationTicks": 78,
          "midi": 62,
          "name": "D4",
          "ticks": 15960,
          "time": 55.416577999999994,
          "velocity": 0.84251968503937
        },
        {
          "duration": 0.11111093333333599,
          "durationTicks": 32,
          "midi": 48,
          "name": "C3",
          "ticks": 16040,
          "time": 55.69435533333333,
          "velocity": 0.84251968503937
        },
        {
          "duration": 0.11111093333333599,
          "durationTicks": 32,
          "midi": 60,
          "name": "C4",
          "ticks": 16040,
          "time": 55.69435533333333,
          "velocity": 0.84251968503937
        },
        {
          "duration": 0.40624934999999596,
          "durationTicks": 117,
          "midi": 69,
          "name": "A4",
          "ticks": 16080,
          "time": 55.833244,
          "velocity": 0.8031496062992126
        },
        {
          "duration": 0.36805496666666215,
          "durationTicks": 106,
          "midi": 53,
          "name": "F3",
          "ticks": 16080,
          "time": 55.833244,
          "velocity": 0.889763779527559
        },
        {
          "duration": 0.36805496666666215,
          "durationTicks": 106,
          "midi": 65,
          "name": "F4",
          "ticks": 16080,
          "time": 55.833244,
          "velocity": 0.889763779527559
        },
        {
          "duration": 0.27777733333332577,
          "durationTicks": 80,
          "midi": 72,
          "name": "C5",
          "ticks": 16200,
          "time": 56.24991,
          "velocity": 0.8031496062992126
        },
        {
          "duration": 0.2430551666666716,
          "durationTicks": 70,
          "midi": 52,
          "name": "E3",
          "ticks": 16200,
          "time": 56.24991,
          "velocity": 0.889763779527559
        },
        {
          "duration": 0.2430551666666716,
          "durationTicks": 70,
          "midi": 64,
          "name": "E4",
          "ticks": 16200,
          "time": 56.24991,
          "velocity": 0.889763779527559
        },
        {
          "duration": 1.052081649999998,
          "durationTicks": 303,
          "midi": 57,
          "name": "A3",
          "ticks": 16320,
          "time": 56.666576,
          "velocity": 0.7007874015748031
        },
        {
          "duration": 1.027776133333333,
          "durationTicks": 296,
          "midi": 50,
          "name": "D3",
          "ticks": 16320,
          "time": 56.666576,
          "velocity": 0.7007874015748031
        },
        {
          "duration": 0.0763887666666676,
          "durationTicks": 22,
          "midi": 50,
          "name": "D3",
          "ticks": 16680,
          "time": 57.916574,
          "velocity": 0.4881889763779528
        },
        {
          "duration": 0.09722206666666011,
          "durationTicks": 28,
          "midi": 57,
          "name": "A3",
          "ticks": 16680,
          "time": 57.916574,
          "velocity": 0.6299212598425197
        },
        {
          "duration": 1.1562481500000032,
          "durationTicks": 333,
          "midi": 50,
          "name": "D3",
          "ticks": 16800,
          "time": 58.333239999999996,
          "velocity": 0.4881889763779528
        },
        {
          "duration": 1.170137016666672,
          "durationTicks": 337,
          "midi": 57,
          "name": "A3",
          "ticks": 16800,
          "time": 58.333239999999996,
          "velocity": 0.5984251968503937
        },
        {
          "duration": 0.11805536666666683,
          "durationTicks": 34,
          "midi": 57,
          "name": "A3",
          "ticks": 17160,
          "time": 59.583237999999994,
          "velocity": 0.5984251968503937
        },
        {
          "duration": 0.1319442333333356,
          "durationTicks": 38,
          "midi": 50,
          "name": "D3",
          "ticks": 17160,
          "time": 59.583237999999994,
          "velocity": 0.5984251968503937
        },
        {
          "duration": 1.114581550000004,
          "durationTicks": 321,
          "midi": 53,
          "name": "F3",
          "ticks": 17280,
          "time": 59.999904,
          "velocity": 0.7007874015748031
        },
        {
          "duration": 1.1284704166666657,
          "durationTicks": 325,
          "midi": 46,
          "name": "A#2",
          "ticks": 17280,
          "time": 59.999904,
          "velocity": 0.5984251968503937
        },
        {
          "duration": 0.11805536666666683,
          "durationTicks": 34,
          "midi": 53,
          "name": "F3",
          "ticks": 17640,
          "time": 61.249902,
          "velocity": 0.5984251968503937
        },
        {
          "duration": 0.08680541666667096,
          "durationTicks": 25,
          "midi": 46,
          "name": "A#2",
          "ticks": 17640,
          "time": 61.249902,
          "velocity": 0.6299212598425197
        },
        {
          "duration": 0.6354156499999988,
          "durationTicks": 183,
          "midi": 53,
          "name": "F3",
          "ticks": 17760,
          "time": 61.666568,
          "velocity": 0.6692913385826772
        },
        {
          "duration": 0.6076379166666683,
          "durationTicks": 175,
          "midi": 46,
          "name": "A#2",
          "ticks": 17760,
          "time": 61.666568,
          "velocity": 0.6692913385826772
        },
        {
          "duration": 0.12499980000000477,
          "durationTicks": 36,
          "midi": 53,
          "name": "F3",
          "ticks": 18000,
          "time": 62.4999,
          "velocity": 0.7716535433070866
        },
        {
          "duration": 0.10069428333333974,
          "durationTicks": 29,
          "midi": 46,
          "name": "A#2",
          "ticks": 18000,
          "time": 62.4999,
          "velocity": 0.7322834645669292
        },
        {
          "duration": 0.24999959999999533,
          "durationTicks": 72,
          "midi": 48,
          "name": "C3",
          "ticks": 18120,
          "time": 62.916565999999996,
          "velocity": 0.7716535433070866
        },
        {
          "duration": 0.24999959999999533,
          "durationTicks": 72,
          "midi": 55,
          "name": "G3",
          "ticks": 18120,
          "time": 62.916565999999996,
          "velocity": 0.84251968503937
        },
        {
          "duration": 1.4687476499999974,
          "durationTicks": 423,
          "midi": 50,
          "name": "D3",
          "ticks": 18240,
          "time": 63.333231999999995,
          "velocity": 0.7322834645669292
        },
        {
          "duration": 1.496525383333335,
          "durationTicks": 431,
          "midi": 57,
          "name": "A3",
          "ticks": 18240,
          "time": 63.333231999999995,
          "velocity": 0.7322834645669292
        },
        {
          "duration": 1.090276033333339,
          "durationTicks": 314,
          "midi": 50,
          "name": "D3",
          "ticks": 18720,
          "time": 64.99989599999999,
          "velocity": 0.5354330708661418
        },
        {
          "duration": 1.1423592833333345,
          "durationTicks": 329,
          "midi": 57,
          "name": "A3",
          "ticks": 18720,
          "time": 64.99989599999999,
          "velocity": 0.6692913385826772
        },
        {
          "duration": 0.12152758333333225,
          "durationTicks": 35,
          "midi": 57,
          "name": "A3",
          "ticks": 19080,
          "time": 66.249894,
          "velocity": 0.7007874015748031
        },
        {
          "duration": 0.10763871666665636,
          "durationTicks": 31,
          "midi": 50,
          "name": "D3",
          "ticks": 19080,
          "time": 66.249894,
          "velocity": 0.6692913385826772
        },
        {
          "duration": 1.48958094999999,
          "durationTicks": 429,
          "midi": 53,
          "name": "F3",
          "ticks": 19200,
          "time": 66.66656,
          "velocity": 0.7322834645669292
        },
        {
          "duration": 1.4722198666666628,
          "durationTicks": 424,
          "midi": 46,
          "name": "A#2",
          "ticks": 19200,
          "time": 66.66656,
          "velocity": 0.7007874015748031
        },
        {
          "duration": 0.6388878666666642,
          "durationTicks": 184,
          "midi": 46,
          "name": "A#2",
          "ticks": 19680,
          "time": 68.333224,
          "velocity": 0.5669291338582677
        },
        {
          "duration": 0.6840266833333288,
          "durationTicks": 197,
          "midi": 53,
          "name": "F3",
          "ticks": 19680,
          "time": 68.333224,
          "velocity": 0.6299212598425197
        },
        {
          "duration": 0.14236088333332475,
          "durationTicks": 41,
          "midi": 46,
          "name": "A#2",
          "ticks": 19920,
          "time": 69.166556,
          "velocity": 0.84251968503937
        },
        {
          "duration": 0.2812495499999983,
          "durationTicks": 81,
          "midi": 53,
          "name": "F3",
          "ticks": 19920,
          "time": 69.166556,
          "velocity": 0.8031496062992126
        },
        {
          "duration": 0.14236088333333896,
          "durationTicks": 41,
          "midi": 53,
          "name": "F3",
          "ticks": 20040,
          "time": 69.58322199999999,
          "velocity": 0.84251968503937
        },
        {
          "duration": 1.4861087333333245,
          "durationTicks": 428,
          "midi": 43,
          "name": "G2",
          "ticks": 20160,
          "time": 69.999888,
          "velocity": 0.7716535433070866
        },
        {
          "duration": 1.4791643000000079,
          "durationTicks": 426,
          "midi": 50,
          "name": "D3",
          "ticks": 20160,
          "time": 69.999888,
          "velocity": 0.889763779527559
        },
        {
          "duration": 1.409719966666671,
          "durationTicks": 406,
          "midi": 45,
          "name": "A2",
          "ticks": 20640,
          "time": 71.666552,
          "velocity": 0.7322834645669292
        },
        {
          "duration": 1.4548587833333357,
          "durationTicks": 419,
          "midi": 52,
          "name": "E3",
          "ticks": 20640,
          "time": 71.666552,
          "velocity": 0.7322834645669292
        },
        {
          "duration": 1.4201366166666674,
          "durationTicks": 409,
          "midi": 43,
          "name": "G2",
          "ticks": 21120,
          "time": 73.333216,
          "velocity": 0.8031496062992126
        },
        {
          "duration": 1.440969916666674,
          "durationTicks": 415,
          "midi": 50,
          "name": "D3",
          "ticks": 21120,
          "time": 73.333216,
          "velocity": 0.84251968503937
        },
        {
          "duration": 0.3229161500000117,
          "durationTicks": 93,
          "midi": 52,
          "name": "E3",
          "ticks": 21600,
          "time": 74.99987999999999,
          "velocity": 0.7716535433070866
        },
        {
          "duration": 0.3194439333333463,
          "durationTicks": 92,
          "midi": 45,
          "name": "A2",
          "ticks": 21600,
          "time": 74.99987999999999,
          "velocity": 0.7322834645669292
        },
        {
          "duration": 0.23611073333333366,
          "durationTicks": 68,
          "midi": 45,
          "name": "A2",
          "ticks": 21720,
          "time": 75.416546,
          "velocity": 0.7007874015748031
        },
        {
          "duration": 0.27083290000000204,
          "durationTicks": 78,
          "midi": 52,
          "name": "E3",
          "ticks": 21720,
          "time": 75.416546,
          "velocity": 0.7007874015748031
        },
        {
          "duration": 0.2847217666666637,
          "durationTicks": 82,
          "midi": 45,
          "name": "A2",
          "ticks": 21840,
          "time": 75.833212,
          "velocity": 0.7716535433070866
        },
        {
          "duration": 0.29513841666665996,
          "durationTicks": 85,
          "midi": 52,
          "name": "E3",
          "ticks": 21840,
          "time": 75.833212,
          "velocity": 0.7322834645669292
        },
        {
          "duration": 0.23263851666666824,
          "durationTicks": 67,
          "midi": 45,
          "name": "A2",
          "ticks": 21960,
          "time": 76.249878,
          "velocity": 0.7716535433070866
        },
        {
          "duration": 0.22916630000000282,
          "durationTicks": 66,
          "midi": 52,
          "name": "E3",
          "ticks": 21960,
          "time": 76.249878,
          "velocity": 0.7007874015748031
        },
        {
          "duration": 0.14236088333332475,
          "durationTicks": 41,
          "midi": 45,
          "name": "A2",
          "ticks": 22040,
          "time": 76.52765533333333,
          "velocity": 0.8031496062992126
        },
        {
          "duration": 0.2604162499999916,
          "durationTicks": 75,
          "midi": 52,
          "name": "E3",
          "ticks": 22080,
          "time": 76.666544,
          "velocity": 0.6692913385826772
        },
        {
          "duration": 0.29513841666665996,
          "durationTicks": 85,
          "midi": 57,
          "name": "A3",
          "ticks": 22080,
          "time": 76.666544,
          "velocity": 0.7322834645669292
        },
        {
          "duration": 0.10763871666668479,
          "durationTicks": 31,
          "midi": 45,
          "name": "A2",
          "ticks": 22160,
          "time": 76.94432133333332,
          "velocity": 0.7716535433070866
        },
        {
          "duration": 0.28819398333332913,
          "durationTicks": 83,
          "midi": 52,
          "name": "E3",
          "ticks": 22200,
          "time": 77.08321,
          "velocity": 0.5984251968503937
        },
        {
          "duration": 0.31249950000000126,
          "durationTicks": 90,
          "midi": 57,
          "name": "A3",
          "ticks": 22200,
          "time": 77.08321,
          "velocity": 0.7322834645669292
        },
        {
          "duration": 0.12152758333334646,
          "durationTicks": 35,
          "midi": 45,
          "name": "A2",
          "ticks": 22280,
          "time": 77.36098733333333,
          "velocity": 0.84251968503937
        },
        {
          "duration": 0.22222186666665777,
          "durationTicks": 64,
          "midi": 52,
          "name": "E3",
          "ticks": 22320,
          "time": 77.499876,
          "velocity": 0.5669291338582677
        },
        {
          "duration": 0.2430551666666645,
          "durationTicks": 70,
          "midi": 57,
          "name": "A3",
          "ticks": 22320,
          "time": 77.499876,
          "velocity": 0.6299212598425197
        },
        {
          "duration": 0.23611073333333366,
          "durationTicks": 68,
          "midi": 64,
          "name": "E4",
          "ticks": 22320,
          "time": 77.499876,
          "velocity": 0.7322834645669292
        },
        {
          "duration": 0.14236088333333896,
          "durationTicks": 41,
          "midi": 45,
          "name": "A2",
          "ticks": 22400,
          "time": 77.77765333333332,
          "velocity": 0.6299212598425197
        },
        {
          "duration": 0.17708305000000735,
          "durationTicks": 51,
          "midi": 52,
          "name": "E3",
          "ticks": 22440,
          "time": 77.91654199999999,
          "velocity": 0.5984251968503937
        },
        {
          "duration": 0.20833300000001032,
          "durationTicks": 60,
          "midi": 57,
          "name": "A3",
          "ticks": 22440,
          "time": 77.91654199999999,
          "velocity": 0.7716535433070866
        },
        {
          "duration": 0.32986058333332835,
          "durationTicks": 95,
          "midi": 57,
          "name": "A3",
          "ticks": 22560,
          "time": 78.333208,
          "velocity": 0.7007874015748031
        },
        {
          "duration": 0.32986058333332835,
          "durationTicks": 95,
          "midi": 50,
          "name": "D3",
          "ticks": 22560,
          "time": 78.333208,
          "velocity": 0.7716535433070866
        },
        {
          "duration": 0.10416650000000516,
          "durationTicks": 30,
          "midi": 50,
          "name": "D3",
          "ticks": 22680,
          "time": 78.74987399999999,
          "velocity": 0.7007874015748031
        },
        {
          "duration": 0.10416650000000516,
          "durationTicks": 30,
          "midi": 57,
          "name": "A3",
          "ticks": 22680,
          "time": 78.74987399999999,
          "velocity": 0.6299212598425197
        },
        {
          "duration": 0.44097151666666434,
          "durationTicks": 127,
          "midi": 41,
          "name": "F2",
          "ticks": 23040,
          "time": 79.999872,
          "velocity": 0.7322834645669292
        },
        {
          "duration": 0.11111093333333599,
          "durationTicks": 32,
          "midi": 53,
          "name": "F3",
          "ticks": 23160,
          "time": 80.416538,
          "velocity": 0.7007874015748031
        },
        {
          "duration": 0.13541644999999392,
          "durationTicks": 39,
          "midi": 57,
          "name": "A3",
          "ticks": 23160,
          "time": 80.416538,
          "velocity": 0.8031496062992126
        },
        {
          "duration": 0.10763871666665636,
          "durationTicks": 31,
          "midi": 53,
          "name": "F3",
          "ticks": 23400,
          "time": 81.24987,
          "velocity": 0.7322834645669292
        },
        {
          "duration": 0.09722206666666011,
          "durationTicks": 28,
          "midi": 41,
          "name": "F2",
          "ticks": 23400,
          "time": 81.24987,
          "velocity": 0.7322834645669292
        },
        {
          "duration": 0.36458274999999674,
          "durationTicks": 105,
          "midi": 43,
          "name": "G2",
          "ticks": 23520,
          "time": 81.666536,
          "velocity": 0.8031496062992126
        },
        {
          "duration": 0.13888866666667354,
          "durationTicks": 40,
          "midi": 43,
          "name": "G2",
          "ticks": 23640,
          "time": 82.083202,
          "velocity": 0.7322834645669292
        },
        {
          "duration": 0.1527775333333352,
          "durationTicks": 44,
          "midi": 55,
          "name": "G3",
          "ticks": 23640,
          "time": 82.083202,
          "velocity": 0.6299212598425197
        },
        {
          "duration": 0.16319418333333147,
          "durationTicks": 47,
          "midi": 59,
          "name": "B3",
          "ticks": 23640,
          "time": 82.083202,
          "velocity": 0.7322834645669292
        },
        {
          "duration": 0.25694403333334037,
          "durationTicks": 74,
          "midi": 55,
          "name": "G3",
          "ticks": 23760,
          "time": 82.49986799999999,
          "velocity": 0.7007874015748031
        },
        {
          "duration": 0.11111093333333599,
          "durationTicks": 32,
          "midi": 55,
          "name": "G3",
          "ticks": 23880,
          "time": 82.916534,
          "velocity": 0.6692913385826772
        },
        {
          "duration": 0.09722206666666011,
          "durationTicks": 28,
          "midi": 43,
          "name": "G2",
          "ticks": 23880,
          "time": 82.916534,
          "velocity": 0.7716535433070866
        },
        {
          "duration": 0.18055526666667276,
          "durationTicks": 52,
          "midi": 46,
          "name": "A#2",
          "ticks": 24040,
          "time": 83.47208866666666,
          "velocity": 0.5039370078740157
        },
        {
          "duration": 0.3368050166666734,
          "durationTicks": 97,
          "midi": 58,
          "name": "A#3",
          "ticks": 24120,
          "time": 83.749866,
          "velocity": 0.5984251968503937
        },
        {
          "duration": 0.333332800000008,
          "durationTicks": 96,
          "midi": 53,
          "name": "F3",
          "ticks": 24120,
          "time": 83.749866,
          "velocity": 0.5984251968503937
        },
        {
          "duration": 0.30902728333333584,
          "durationTicks": 89,
          "midi": 62,
          "name": "D4",
          "ticks": 24120,
          "time": 83.749866,
          "velocity": 0.7322834645669292
        },
        {
          "duration": 0.21874965000000657,
          "durationTicks": 63,
          "midi": 58,
          "name": "A#3",
          "ticks": 24240,
          "time": 84.16653199999999,
          "velocity": 0.4881889763779528
        },
        {
          "duration": 0.2048607833333449,
          "durationTicks": 59,
          "midi": 53,
          "name": "F3",
          "ticks": 24240,
          "time": 84.16653199999999,
          "velocity": 0.5039370078740157
        },
        {
          "duration": 0.18402748333333818,
          "durationTicks": 53,
          "midi": 62,
          "name": "D4",
          "ticks": 24240,
          "time": 84.16653199999999,
          "velocity": 0.6692913385826772
        },
        {
          "duration": 0.10416650000000516,
          "durationTicks": 30,
          "midi": 53,
          "name": "F3",
          "ticks": 24360,
          "time": 84.583198,
          "velocity": 0.4881889763779528
        },
        {
          "duration": 0.12847201666666308,
          "durationTicks": 37,
          "midi": 58,
          "name": "A#3",
          "ticks": 24360,
          "time": 84.583198,
          "velocity": 0.5039370078740157
        },
        {
          "duration": 0.12847201666666308,
          "durationTicks": 37,
          "midi": 62,
          "name": "D4",
          "ticks": 24360,
          "time": 84.583198,
          "velocity": 0.7007874015748031
        },
        {
          "duration": 0.2847217666666637,
          "durationTicks": 82,
          "midi": 50,
          "name": "D3",
          "ticks": 24480,
          "time": 84.999864,
          "velocity": 0.84251968503937
        },
        {
          "duration": 0.10069428333333974,
          "durationTicks": 29,
          "midi": 57,
          "name": "A3",
          "ticks": 24600,
          "time": 85.41653,
          "velocity": 0.5669291338582677
        },
        {
          "duration": 0.09722206666666011,
          "durationTicks": 28,
          "midi": 50,
          "name": "D3",
          "ticks": 24600,
          "time": 85.41653,
          "velocity": 0.7322834645669292
        },
        {
          "duration": 0.11805536666666683,
          "durationTicks": 34,
          "midi": 62,
          "name": "D4",
          "ticks": 24600,
          "time": 85.41653,
          "velocity": 0.7716535433070866
        },
        {
          "duration": 0.06944433333332256,
          "durationTicks": 20,
          "midi": 57,
          "name": "A3",
          "ticks": 24720,
          "time": 85.833196,
          "velocity": 0.4094488188976378
        },
        {
          "duration": 0.09027763333332928,
          "durationTicks": 26,
          "midi": 62,
          "name": "D4",
          "ticks": 24720,
          "time": 85.833196,
          "velocity": 0.5669291338582677
        },
        {
          "duration": 0.10763871666667058,
          "durationTicks": 31,
          "midi": 57,
          "name": "A3",
          "ticks": 24840,
          "time": 86.249862,
          "velocity": 0.4881889763779528
        },
        {
          "duration": 0.0937498499999947,
          "durationTicks": 27,
          "midi": 62,
          "name": "D4",
          "ticks": 24840,
          "time": 86.249862,
          "velocity": 0.7322834645669292
        },
        {
          "duration": 0.07291655000000219,
          "durationTicks": 21,
          "midi": 50,
          "name": "D3",
          "ticks": 24840,
          "time": 86.249862,
          "velocity": 0.6299212598425197
        },
        {
          "duration": 0.30902728333333584,
          "durationTicks": 89,
          "midi": 41,
          "name": "F2",
          "ticks": 24960,
          "time": 86.666528,
          "velocity": 0.7716535433070866
        },
        {
          "duration": 0.11805536666666683,
          "durationTicks": 34,
          "midi": 53,
          "name": "F3",
          "ticks": 25080,
          "time": 87.08319399999999,
          "velocity": 0.7716535433070866
        },
        {
          "duration": 0.12152758333333225,
          "durationTicks": 35,
          "midi": 41,
          "name": "F2",
          "ticks": 25080,
          "time": 87.08319399999999,
          "velocity": 0.7322834645669292
        },
        {
          "duration": 0.09722206666666011,
          "durationTicks": 28,
          "midi": 53,
          "name": "F3",
          "ticks": 25320,
          "time": 87.91652599999999,
          "velocity": 0.7322834645669292
        },
        {
          "duration": 0.10069428333333974,
          "durationTicks": 29,
          "midi": 41,
          "name": "F2",
          "ticks": 25320,
          "time": 87.91652599999999,
          "velocity": 0.7716535433070866
        },
        {
          "duration": 0.263888466666657,
          "durationTicks": 76,
          "midi": 43,
          "name": "G2",
          "ticks": 25440,
          "time": 88.333192,
          "velocity": 0.7322834645669292
        },
        {
          "duration": 0.2847217666666637,
          "durationTicks": 82,
          "midi": 55,
          "name": "G3",
          "ticks": 25440,
          "time": 88.333192,
          "velocity": 0.7322834645669292
        },
        {
          "duration": 0.2812495500000125,
          "durationTicks": 81,
          "midi": 55,
          "name": "G3",
          "ticks": 25560,
          "time": 88.74985799999999,
          "velocity": 0.7322834645669292
        },
        {
          "duration": 0.19097191666668323,
          "durationTicks": 55,
          "midi": 43,
          "name": "G2",
          "ticks": 25560,
          "time": 88.74985799999999,
          "velocity": 0.7322834645669292
        },
        {
          "duration": 0.12499980000001187,
          "durationTicks": 36,
          "midi": 55,
          "name": "G3",
          "ticks": 25680,
          "time": 89.166524,
          "velocity": 0.7322834645669292
        },
        {
          "duration": 0.13888866666667354,
          "durationTicks": 40,
          "midi": 43,
          "name": "G2",
          "ticks": 25680,
          "time": 89.166524,
          "velocity": 0.7007874015748031
        },
        {
          "duration": 0.10416649999999095,
          "durationTicks": 30,
          "midi": 55,
          "name": "G3",
          "ticks": 25800,
          "time": 89.58319,
          "velocity": 0.7322834645669292
        },
        {
          "duration": 0.4305548666666681,
          "durationTicks": 124,
          "midi": 46,
          "name": "A#2",
          "ticks": 25920,
          "time": 89.999856,
          "velocity": 0.8031496062992126
        },
        {
          "duration": 0.4895825499999944,
          "durationTicks": 141,
          "midi": 53,
          "name": "F3",
          "ticks": 26040,
          "time": 90.416522,
          "velocity": 0.7007874015748031
        },
        {
          "duration": 0.4930547666666598,
          "durationTicks": 142,
          "midi": 58,
          "name": "A#3",
          "ticks": 26040,
          "time": 90.416522,
          "velocity": 0.6692913385826772
        },
        {
          "duration": 0.5243047166666628,
          "durationTicks": 151,
          "midi": 62,
          "name": "D4",
          "ticks": 26040,
          "time": 90.416522,
          "velocity": 0.84251968503937
        },
        {
          "duration": 1.7326361166666686,
          "durationTicks": 499,
          "midi": 57,
          "name": "A3",
          "ticks": 26400,
          "time": 91.66651999999999,
          "velocity": 0.7716535433070866
        },
        {
          "duration": 1.7465249833333303,
          "durationTicks": 503,
          "midi": 62,
          "name": "D4",
          "ticks": 26400,
          "time": 91.66651999999999,
          "velocity": 0.889763779527559
        },
        {
          "duration": 1.7256916833333378,
          "durationTicks": 497,
          "midi": 50,
          "name": "D3",
          "ticks": 26400,
          "time": 91.66651999999999,
          "velocity": 0.84251968503937
        },
        {
          "duration": 0.2986106333333254,
          "durationTicks": 86,
          "midi": 67,
          "name": "G4",
          "ticks": 27120,
          "time": 94.166516,
          "velocity": 0.889763779527559
        },
        {
          "duration": 0.31597171666665247,
          "durationTicks": 91,
          "midi": 55,
          "name": "G3",
          "ticks": 27120,
          "time": 94.166516,
          "velocity": 0.84251968503937
        },
        {
          "duration": 0.3055550666666562,
          "durationTicks": 88,
          "midi": 62,
          "name": "D4",
          "ticks": 27120,
          "time": 94.166516,
          "velocity": 0.8031496062992126
        },
        {
          "duration": 0.17361083333332772,
          "durationTicks": 50,
          "midi": 53,
          "name": "F3",
          "ticks": 27240,
          "time": 94.583182,
          "velocity": 0.8031496062992126
        },
        {
          "duration": 0.20138856666666527,
          "durationTicks": 58,
          "midi": 65,
          "name": "F4",
          "ticks": 27240,
          "time": 94.583182,
          "velocity": 0.7716535433070866
        },
        {
          "duration": 0.22222186666667199,
          "durationTicks": 64,
          "midi": 60,
          "name": "C4",
          "ticks": 27240,
          "time": 94.583182,
          "velocity": 0.7322834645669292
        },
        {
          "duration": 2.4340238833333245,
          "durationTicks": 701,
          "midi": 52,
          "name": "E3",
          "ticks": 27360,
          "time": 94.999848,
          "velocity": 0.7007874015748031
        },
        {
          "duration": 2.4409683166666554,
          "durationTicks": 703,
          "midi": 59,
          "name": "B3",
          "ticks": 27360,
          "time": 94.999848,
          "velocity": 0.7322834645669292
        },
        {
          "duration": 2.8159677166666626,
          "durationTicks": 811,
          "midi": 64,
          "name": "E4",
          "ticks": 27360,
          "time": 94.999848,
          "velocity": 0.7007874015748031
        },
        {
          "duration": 0.11111093333333599,
          "durationTicks": 32,
          "midi": 52,
          "name": "E3",
          "ticks": 28160,
          "time": 97.77762133333333,
          "velocity": 0.7716535433070866
        },
        {
          "duration": 0.11458315000000141,
          "durationTicks": 33,
          "midi": 59,
          "name": "B3",
          "ticks": 28160,
          "time": 97.77762133333333,
          "velocity": 0.7716535433070866
        },
        {
          "duration": 0.0937498499999947,
          "durationTicks": 27,
          "midi": 64,
          "name": "E4",
          "ticks": 28200,
          "time": 97.91651,
          "velocity": 0.6692913385826772
        },
        {
          "duration": 1.5347197666666688,
          "durationTicks": 442,
          "midi": 57,
          "name": "A3",
          "ticks": 28320,
          "time": 98.333176,
          "velocity": 0.4881889763779528
        },
        {
          "duration": 1.545136416666665,
          "durationTicks": 445,
          "midi": 66,
          "name": "F#4",
          "ticks": 28320,
          "time": 98.333176,
          "velocity": 0.6299212598425197
        },
        {
          "duration": 1.545136416666665,
          "durationTicks": 445,
          "midi": 62,
          "name": "D4",
          "ticks": 28320,
          "time": 98.333176,
          "velocity": 0.6692913385826772
        },
        {
          "duration": 0.10069428333333974,
          "durationTicks": 29,
          "midi": 45,
          "name": "A2",
          "ticks": 28920,
          "time": 100.416506,
          "velocity": 0.889763779527559
        },
        {
          "duration": 0.12499979999998345,
          "durationTicks": 36,
          "midi": 50,
          "name": "D3",
          "ticks": 28960,
          "time": 100.55539466666667,
          "velocity": 0.7007874015748031
        },
        {
          "duration": 0.10763871666667058,
          "durationTicks": 31,
          "midi": 52,
          "name": "E3",
          "ticks": 29000,
          "time": 100.69428333333333,
          "velocity": 0.7322834645669292
        },
        {
          "duration": 0.1666664000000111,
          "durationTicks": 48,
          "midi": 54,
          "name": "F#3",
          "ticks": 29040,
          "time": 100.83317199999999,
          "velocity": 0.84251968503937
        },
        {
          "duration": 0.14236088333333896,
          "durationTicks": 41,
          "midi": 52,
          "name": "E3",
          "ticks": 29080,
          "time": 100.97206066666666,
          "velocity": 0.7007874015748031
        },
        {
          "duration": 0.23958295000001328,
          "durationTicks": 69,
          "midi": 50,
          "name": "D3",
          "ticks": 29120,
          "time": 101.11094933333332,
          "velocity": 0.84251968503937
        },
        {
          "duration": 0.13541644999999392,
          "durationTicks": 39,
          "midi": 45,
          "name": "A2",
          "ticks": 29160,
          "time": 101.249838,
          "velocity": 0.7716535433070866
        },
        {
          "duration": 0.13541644999999392,
          "durationTicks": 39,
          "midi": 52,
          "name": "E3",
          "ticks": 29200,
          "time": 101.38872666666667,
          "velocity": 0.7322834645669292
        },
        {
          "duration": 0.12847201666666308,
          "durationTicks": 37,
          "midi": 50,
          "name": "D3",
          "ticks": 29240,
          "time": 101.52761533333333,
          "velocity": 0.7322834645669292
        },
        {
          "duration": 2.4340238833333387,
          "durationTicks": 701,
          "midi": 52,
          "name": "E3",
          "ticks": 29280,
          "time": 101.66650399999999,
          "velocity": 0.7007874015748031
        },
        {
          "duration": 2.4409683166666696,
          "durationTicks": 703,
          "midi": 59,
          "name": "B3",
          "ticks": 29280,
          "time": 101.66650399999999,
          "velocity": 0.7322834645669292
        },
        {
          "duration": 2.8159677166666626,
          "durationTicks": 811,
          "midi": 64,
          "name": "E4",
          "ticks": 29280,
          "time": 101.66650399999999,
          "velocity": 0.7007874015748031
        },
        {
          "duration": 0.1111109333333502,
          "durationTicks": 32,
          "midi": 52,
          "name": "E3",
          "ticks": 30080,
          "time": 104.44427733333332,
          "velocity": 0.7716535433070866
        },
        {
          "duration": 0.11458315000001562,
          "durationTicks": 33,
          "midi": 59,
          "name": "B3",
          "ticks": 30080,
          "time": 104.44427733333332,
          "velocity": 0.7716535433070866
        },
        {
          "duration": 0.0937498499999947,
          "durationTicks": 27,
          "midi": 64,
          "name": "E4",
          "ticks": 30120,
          "time": 104.58316599999999,
          "velocity": 0.6692913385826772
        },
        {
          "duration": 1.5347197666666688,
          "durationTicks": 442,
          "midi": 57,
          "name": "A3",
          "ticks": 30240,
          "time": 104.999832,
          "velocity": 0.4881889763779528
        },
        {
          "duration": 1.545136416666665,
          "durationTicks": 445,
          "midi": 66,
          "name": "F#4",
          "ticks": 30240,
          "time": 104.999832,
          "velocity": 0.6299212598425197
        },
        {
          "duration": 1.545136416666665,
          "durationTicks": 445,
          "midi": 62,
          "name": "D4",
          "ticks": 30240,
          "time": 104.999832,
          "velocity": 0.6692913385826772
        },
        {
          "duration": 1.9479135500000098,
          "durationTicks": 561,
          "midi": 60,
          "name": "C4",
          "ticks": 31200,
          "time": 108.33315999999999,
          "velocity": 0.6299212598425197
        },
        {
          "duration": 1.9374968999999993,
          "durationTicks": 558,
          "midi": 65,
          "name": "F4",
          "ticks": 31200,
          "time": 108.33315999999999,
          "velocity": 0.7322834645669292
        },
        {
          "duration": 1.9201358166666722,
          "durationTicks": 553,
          "midi": 69,
          "name": "A4",
          "ticks": 31200,
          "time": 108.33315999999999,
          "velocity": 0.7007874015748031
        },
        {
          "duration": 0.10416650000000516,
          "durationTicks": 30,
          "midi": 53,
          "name": "F3",
          "ticks": 31760,
          "time": 110.27760133333334,
          "velocity": 0.8031496062992126
        },
        {
          "duration": 0.6215267833333371,
          "durationTicks": 179,
          "midi": 69,
          "name": "A4",
          "ticks": 31800,
          "time": 110.41649,
          "velocity": 0.7007874015748031
        },
        {
          "duration": 0.6180545666666717,
          "durationTicks": 178,
          "midi": 60,
          "name": "C4",
          "ticks": 31800,
          "time": 110.41649,
          "velocity": 0.7007874015748031
        },
        {
          "duration": 0.6458323000000092,
          "durationTicks": 186,
          "midi": 65,
          "name": "F4",
          "ticks": 31800,
          "time": 110.41649,
          "velocity": 0.7322834645669292
        },
        {
          "duration": 0.18055526666667276,
          "durationTicks": 52,
          "midi": 60,
          "name": "C4",
          "ticks": 32040,
          "time": 111.249822,
          "velocity": 0.5669291338582677
        },
        {
          "duration": 0.1319442333333285,
          "durationTicks": 38,
          "midi": 69,
          "name": "A4",
          "ticks": 32040,
          "time": 111.249822,
          "velocity": 0.7007874015748031
        },
        {
          "duration": 0.16319418333333147,
          "durationTicks": 47,
          "midi": 65,
          "name": "F4",
          "ticks": 32040,
          "time": 111.249822,
          "velocity": 0.7007874015748031
        },
        {
          "duration": 0.49999919999999065,
          "durationTicks": 144,
          "midi": 64,
          "name": "E4",
          "ticks": 32160,
          "time": 111.666488,
          "velocity": 0.7322834645669292
        },
        {
          "duration": 0.4756936833333185,
          "durationTicks": 137,
          "midi": 67,
          "name": "G4",
          "ticks": 32160,
          "time": 111.666488,
          "velocity": 0.6692913385826772
        },
        {
          "duration": 0.5243047166666628,
          "durationTicks": 151,
          "midi": 60,
          "name": "C4",
          "ticks": 32160,
          "time": 111.666488,
          "velocity": 0.6692913385826772
        },
        {
          "duration": 1.4618032166666524,
          "durationTicks": 421,
          "midi": 48,
          "name": "C3",
          "ticks": 32160,
          "time": 111.666488,
          "velocity": 0.7322834645669292
        },
        {
          "duration": 0.6805544666666634,
          "durationTicks": 196,
          "midi": 55,
          "name": "G3",
          "ticks": 32640,
          "time": 113.333152,
          "velocity": 0.5984251968503937
        },
        {
          "duration": 0.6909711166666739,
          "durationTicks": 199,
          "midi": 60,
          "name": "C4",
          "ticks": 32640,
          "time": 113.333152,
          "velocity": 0.7322834645669292
        },
        {
          "duration": 0.7118044166666522,
          "durationTicks": 205,
          "midi": 48,
          "name": "C3",
          "ticks": 32640,
          "time": 113.333152,
          "velocity": 0.7322834645669292
        },
        {
          "duration": 0.15972196666666605,
          "durationTicks": 46,
          "midi": 64,
          "name": "E4",
          "ticks": 32880,
          "time": 114.166484,
          "velocity": 0.7007874015748031
        },
        {
          "duration": 0.11805536666668104,
          "durationTicks": 34,
          "midi": 55,
          "name": "G3",
          "ticks": 32880,
          "time": 114.166484,
          "velocity": 0.5669291338582677
        },
        {
          "duration": 0.16666639999998267,
          "durationTicks": 48,
          "midi": 48,
          "name": "C3",
          "ticks": 32880,
          "time": 114.166484,
          "velocity": 0.7007874015748031
        },
        {
          "duration": 0.16666639999998267,
          "durationTicks": 48,
          "midi": 60,
          "name": "C4",
          "ticks": 32880,
          "time": 114.166484,
          "velocity": 0.7322834645669292
        },
        {
          "duration": 1.5347197666666688,
          "durationTicks": 442,
          "midi": 57,
          "name": "A3",
          "ticks": 33120,
          "time": 114.999816,
          "velocity": 0.5669291338582677
        },
        {
          "duration": 1.5173586833333275,
          "durationTicks": 437,
          "midi": 50,
          "name": "D3",
          "ticks": 33120,
          "time": 114.999816,
          "velocity": 0.6692913385826772
        },
        {
          "duration": 1.5173586833333275,
          "durationTicks": 437,
          "midi": 65,
          "name": "F4",
          "ticks": 33120,
          "time": 114.999816,
          "velocity": 0.7322834645669292
        },
        {
          "duration": 1.5451364166666508,
          "durationTicks": 445,
          "midi": 62,
          "name": "D4",
          "ticks": 33120,
          "time": 114.999816,
          "velocity": 0.7716535433070866
        },
        {
          "duration": 0.17361083333334193,
          "durationTicks": 50,
          "midi": 65,
          "name": "F4",
          "ticks": 33600,
          "time": 116.66647999999999,
          "velocity": 0.7716535433070866
        },
        {
          "duration": 0.2048607833333449,
          "durationTicks": 59,
          "midi": 57,
          "name": "A3",
          "ticks": 33600,
          "time": 116.66647999999999,
          "velocity": 0.6692913385826772
        },
        {
          "duration": 0.2048607833333449,
          "durationTicks": 59,
          "midi": 62,
          "name": "D4",
          "ticks": 33600,
          "time": 116.66647999999999,
          "velocity": 0.7716535433070866
        },
        {
          "duration": 0.10416650000000516,
          "durationTicks": 30,
          "midi": 50,
          "name": "D3",
          "ticks": 33600,
          "time": 116.66647999999999,
          "velocity": 0.6692913385826772
        },
        {
          "duration": 2.819439933333328,
          "durationTicks": 812,
          "midi": 62,
          "name": "D4",
          "ticks": 33840,
          "time": 117.49981199999999,
          "velocity": 0.8031496062992126
        },
        {
          "duration": 2.8159677166666626,
          "durationTicks": 811,
          "midi": 65,
          "name": "F4",
          "ticks": 33840,
          "time": 117.49981199999999,
          "velocity": 0.7322834645669292
        },
        {
          "duration": 2.8229121499999934,
          "durationTicks": 813,
          "midi": 58,
          "name": "A#3",
          "ticks": 33840,
          "time": 117.49981199999999,
          "velocity": 0.5669291338582677
        },
        {
          "duration": 2.8298565833333384,
          "durationTicks": 815,
          "midi": 46,
          "name": "A#2",
          "ticks": 33840,
          "time": 117.49981199999999,
          "velocity": 0.7716535433070866
        },
        {
          "duration": 0.1527775333333352,
          "durationTicks": 44,
          "midi": 46,
          "name": "A#2",
          "ticks": 34680,
          "time": 120.416474,
          "velocity": 0.7716535433070866
        },
        {
          "duration": 0.16666639999999688,
          "durationTicks": 48,
          "midi": 58,
          "name": "A#3",
          "ticks": 34680,
          "time": 120.416474,
          "velocity": 0.5669291338582677
        },
        {
          "duration": 0.16319418333333147,
          "durationTicks": 47,
          "midi": 62,
          "name": "D4",
          "ticks": 34680,
          "time": 120.416474,
          "velocity": 0.7007874015748031
        },
        {
          "duration": 0.19444413333332022,
          "durationTicks": 56,
          "midi": 65,
          "name": "F4",
          "ticks": 34680,
          "time": 120.416474,
          "velocity": 0.7007874015748031
        },
        {
          "duration": 3.329855783333329,
          "durationTicks": 959,
          "midi": 55,
          "name": "G3",
          "ticks": 34800,
          "time": 120.83314,
          "velocity": 0.8031496062992126
        },
        {
          "duration": 2.7847177666666596,
          "durationTicks": 802,
          "midi": 43,
          "name": "G2",
          "ticks": 34800,
          "time": 120.83314,
          "velocity": 0.7322834645669292
        },
        {
          "duration": 2.722217866666668,
          "durationTicks": 784,
          "midi": 50,
          "name": "D3",
          "ticks": 34800,
          "time": 120.83314,
          "velocity": 0.7007874015748031
        },
        {
          "duration": 0.24999960000000954,
          "durationTicks": 72,
          "midi": 43,
          "name": "G2",
          "ticks": 35640,
          "time": 123.74980199999999,
          "velocity": 0.889763779527559
        },
        {
          "duration": 0.05555546666666089,
          "durationTicks": 16,
          "midi": 47,
          "name": "B2",
          "ticks": 35760,
          "time": 124.166468,
          "velocity": 0.8031496062992126
        },
        {
          "duration": 1.4131921833333223,
          "durationTicks": 407,
          "midi": 45,
          "name": "A2",
          "ticks": 35760,
          "time": 124.166468,
          "velocity": 0.84251968503937
        },
        {
          "duration": 0.49652698333332523,
          "durationTicks": 143,
          "midi": 57,
          "name": "A3",
          "ticks": 35880,
          "time": 124.583134,
          "velocity": 0.84251968503937
        },
        {
          "duration": 0.5451380166666695,
          "durationTicks": 157,
          "midi": 52,
          "name": "E3",
          "ticks": 36000,
          "time": 124.9998,
          "velocity": 0.889763779527559
        },
        {
          "duration": 0.10416650000000516,
          "durationTicks": 30,
          "midi": 45,
          "name": "A2",
          "ticks": 36240,
          "time": 125.83313199999999,
          "velocity": 0.889763779527559
        },
        {
          "duration": 0.10416650000000516,
          "durationTicks": 30,
          "midi": 57,
          "name": "A3",
          "ticks": 36240,
          "time": 125.83313199999999,
          "velocity": 0.889763779527559
        },
        {
          "duration": 0.1319442333333285,
          "durationTicks": 38,
          "midi": 47,
          "name": "B2",
          "ticks": 36280,
          "time": 125.97202066666665,
          "velocity": 0.7716535433070866
        },
        {
          "duration": 0.1319442333333285,
          "durationTicks": 38,
          "midi": 59,
          "name": "B3",
          "ticks": 36280,
          "time": 125.97202066666665,
          "velocity": 0.7716535433070866
        },
        {
          "duration": 0.08680541666664965,
          "durationTicks": 25,
          "midi": 49,
          "name": "C#3",
          "ticks": 36320,
          "time": 126.11090933333334,
          "velocity": 0.7716535433070866
        },
        {
          "duration": 0.08680541666664965,
          "durationTicks": 25,
          "midi": 61,
          "name": "C#4",
          "ticks": 36320,
          "time": 126.11090933333334,
          "velocity": 0.7716535433070866
        },
        {
          "duration": 0.10763871666665636,
          "durationTicks": 31,
          "midi": 49,
          "name": "C#3",
          "ticks": 36360,
          "time": 126.249798,
          "velocity": 1
        },
        {
          "duration": 0.10763871666665636,
          "durationTicks": 31,
          "midi": 61,
          "name": "C#4",
          "ticks": 36360,
          "time": 126.249798,
          "velocity": 1
        },
        {
          "duration": 0.09722206666667432,
          "durationTicks": 28,
          "midi": 50,
          "name": "D3",
          "ticks": 36400,
          "time": 126.38868666666666,
          "velocity": 0.889763779527559
        },
        {
          "duration": 0.09722206666667432,
          "durationTicks": 28,
          "midi": 62,
          "name": "D4",
          "ticks": 36400,
          "time": 126.38868666666666,
          "velocity": 0.889763779527559
        },
        {
          "duration": 0.10069428333333974,
          "durationTicks": 29,
          "midi": 52,
          "name": "E3",
          "ticks": 36440,
          "time": 126.52757533333333,
          "velocity": 0.8031496062992126
        },
        {
          "duration": 0.10069428333333974,
          "durationTicks": 29,
          "midi": 64,
          "name": "E4",
          "ticks": 36440,
          "time": 126.52757533333333,
          "velocity": 0.8031496062992126
        },
        {
          "duration": 0.10069428333333974,
          "durationTicks": 29,
          "midi": 54,
          "name": "F#3",
          "ticks": 36480,
          "time": 126.66646399999999,
          "velocity": 0.937007874015748
        },
        {
          "duration": 0.10069428333333974,
          "durationTicks": 29,
          "midi": 66,
          "name": "F#4",
          "ticks": 36480,
          "time": 126.66646399999999,
          "velocity": 0.937007874015748
        },
        {
          "duration": 0.10416650000000516,
          "durationTicks": 30,
          "midi": 50,
          "name": "D3",
          "ticks": 36520,
          "time": 126.80535266666665,
          "velocity": 0.84251968503937
        },
        {
          "duration": 0.10416650000000516,
          "durationTicks": 30,
          "midi": 62,
          "name": "D4",
          "ticks": 36520,
          "time": 126.80535266666665,
          "velocity": 0.84251968503937
        },
        {
          "duration": 0.09374984999998048,
          "durationTicks": 27,
          "midi": 52,
          "name": "E3",
          "ticks": 36560,
          "time": 126.94424133333334,
          "velocity": 0.8031496062992126
        },
        {
          "duration": 0.09374984999998048,
          "durationTicks": 27,
          "midi": 64,
          "name": "E4",
          "ticks": 36560,
          "time": 126.94424133333334,
          "velocity": 0.8031496062992126
        },
        {
          "duration": 0.10763871666665636,
          "durationTicks": 31,
          "midi": 54,
          "name": "F#3",
          "ticks": 36600,
          "time": 127.08313,
          "velocity": 0.889763779527559
        },
        {
          "duration": 0.10763871666665636,
          "durationTicks": 31,
          "midi": 66,
          "name": "F#4",
          "ticks": 36600,
          "time": 127.08313,
          "velocity": 0.889763779527559
        },
        {
          "duration": 0.12847201666666308,
          "durationTicks": 37,
          "midi": 55,
          "name": "G3",
          "ticks": 36640,
          "time": 127.22201866666666,
          "velocity": 0.7716535433070866
        },
        {
          "duration": 0.12847201666666308,
          "durationTicks": 37,
          "midi": 67,
          "name": "G4",
          "ticks": 36640,
          "time": 127.22201866666666,
          "velocity": 0.7716535433070866
        },
        {
          "duration": 0.1284720166666773,
          "durationTicks": 37,
          "midi": 57,
          "name": "A3",
          "ticks": 36680,
          "time": 127.36090733333333,
          "velocity": 0.889763779527559
        },
        {
          "duration": 0.1284720166666773,
          "durationTicks": 37,
          "midi": 69,
          "name": "A4",
          "ticks": 36680,
          "time": 127.36090733333333,
          "velocity": 0.889763779527559
        },
        {
          "duration": 1.0868038166666878,
          "durationTicks": 313,
          "midi": 71,
          "name": "B4",
          "ticks": 36720,
          "time": 127.49979599999999,
          "velocity": 1
        },
        {
          "duration": 0.19097191666668323,
          "durationTicks": 55,
          "midi": 71,
          "name": "B4",
          "ticks": 37080,
          "time": 128.74979399999998,
          "velocity": 0.889763779527559
        },
        {
          "duration": 0.15624975000000063,
          "durationTicks": 45,
          "midi": 69,
          "name": "A4",
          "ticks": 37120,
          "time": 128.88868266666665,
          "velocity": 0.889763779527559
        },
        {
          "duration": 0.1284720166666773,
          "durationTicks": 37,
          "midi": 67,
          "name": "G4",
          "ticks": 37160,
          "time": 129.02757133333333,
          "velocity": 0.84251968503937
        },
        {
          "duration": 0.7395821499999897,
          "durationTicks": 213,
          "midi": 66,
          "name": "F#4",
          "ticks": 37200,
          "time": 129.16646,
          "velocity": 0.937007874015748
        },
        {
          "duration": 0.16666639999999688,
          "durationTicks": 48,
          "midi": 66,
          "name": "F#4",
          "ticks": 37440,
          "time": 129.99979199999999,
          "velocity": 0.889763779527559
        },
        {
          "duration": 0.14236088333333896,
          "durationTicks": 41,
          "midi": 67,
          "name": "G4",
          "ticks": 37480,
          "time": 130.13868066666666,
          "velocity": 0.84251968503937
        },
        {
          "duration": 0.21527743333334115,
          "durationTicks": 62,
          "midi": 69,
          "name": "A4",
          "ticks": 37520,
          "time": 130.27756933333333,
          "velocity": 0.8031496062992126
        },
        {
          "duration": 0.1874996999999894,
          "durationTicks": 54,
          "midi": 66,
          "name": "F#4",
          "ticks": 37560,
          "time": 130.416458,
          "velocity": 1
        },
        {
          "duration": 0.1527775333333352,
          "durationTicks": 44,
          "midi": 67,
          "name": "G4",
          "ticks": 37600,
          "time": 130.55534666666665,
          "velocity": 0.8031496062992126
        },
        {
          "duration": 0.13888866666667354,
          "durationTicks": 40,
          "midi": 69,
          "name": "A4",
          "ticks": 37640,
          "time": 130.69423533333332,
          "velocity": 0.8031496062992126
        },
        {
          "duration": 1.249998000000005,
          "durationTicks": 360,
          "midi": 66,
          "name": "F#4",
          "ticks": 37680,
          "time": 130.833124,
          "velocity": 1
        },
        {
          "duration": 0.4097215666666614,
          "durationTicks": 118,
          "midi": 62,
          "name": "D4",
          "ticks": 38040,
          "time": 132.083122,
          "velocity": 0.937007874015748
        },
        {
          "duration": 1.4861087333333387,
          "durationTicks": 428,
          "midi": 59,
          "name": "B3",
          "ticks": 38160,
          "time": 132.499788,
          "velocity": 1
        },
        {
          "duration": 1.0868038166666736,
          "durationTicks": 313,
          "midi": 71,
          "name": "B4",
          "ticks": 38640,
          "time": 134.166452,
          "velocity": 1
        },
        {
          "duration": 1.0868038166666736,
          "durationTicks": 313,
          "midi": 83,
          "name": "B5",
          "ticks": 38640,
          "time": 134.166452,
          "velocity": 1
        },
        {
          "duration": 0.1909719166666548,
          "durationTicks": 55,
          "midi": 71,
          "name": "B4",
          "ticks": 39000,
          "time": 135.41645,
          "velocity": 0.889763779527559
        },
        {
          "duration": 0.1909719166666548,
          "durationTicks": 55,
          "midi": 83,
          "name": "B5",
          "ticks": 39000,
          "time": 135.41645,
          "velocity": 0.889763779527559
        },
        {
          "duration": 0.15624975000000063,
          "durationTicks": 45,
          "midi": 69,
          "name": "A4",
          "ticks": 39040,
          "time": 135.55533866666664,
          "velocity": 0.889763779527559
        },
        {
          "duration": 0.15624975000000063,
          "durationTicks": 45,
          "midi": 81,
          "name": "A5",
          "ticks": 39040,
          "time": 135.55533866666664,
          "velocity": 0.889763779527559
        },
        {
          "duration": 0.12847201666664887,
          "durationTicks": 37,
          "midi": 67,
          "name": "G4",
          "ticks": 39080,
          "time": 135.69422733333334,
          "velocity": 0.84251968503937
        },
        {
          "duration": 0.12847201666664887,
          "durationTicks": 37,
          "midi": 79,
          "name": "G5",
          "ticks": 39080,
          "time": 135.69422733333334,
          "velocity": 0.84251968503937
        },
        {
          "duration": 0.7395821499999897,
          "durationTicks": 213,
          "midi": 66,
          "name": "F#4",
          "ticks": 39120,
          "time": 135.833116,
          "velocity": 0.937007874015748
        },
        {
          "duration": 0.7395821499999897,
          "durationTicks": 213,
          "midi": 78,
          "name": "F#5",
          "ticks": 39120,
          "time": 135.833116,
          "velocity": 0.937007874015748
        },
        {
          "duration": 0.16666639999996846,
          "durationTicks": 48,
          "midi": 66,
          "name": "F#4",
          "ticks": 39360,
          "time": 136.666448,
          "velocity": 0.889763779527559
        },
        {
          "duration": 0.16666639999996846,
          "durationTicks": 48,
          "midi": 78,
          "name": "F#5",
          "ticks": 39360,
          "time": 136.666448,
          "velocity": 0.889763779527559
        },
        {
          "duration": 0.14236088333333896,
          "durationTicks": 41,
          "midi": 67,
          "name": "G4",
          "ticks": 39400,
          "time": 136.80533666666665,
          "velocity": 0.84251968503937
        },
        {
          "duration": 0.14236088333333896,
          "durationTicks": 41,
          "midi": 79,
          "name": "G5",
          "ticks": 39400,
          "time": 136.80533666666665,
          "velocity": 0.84251968503937
        },
        {
          "duration": 0.21527743333334115,
          "durationTicks": 62,
          "midi": 69,
          "name": "A4",
          "ticks": 39440,
          "time": 136.94422533333332,
          "velocity": 0.8031496062992126
        },
        {
          "duration": 0.21527743333334115,
          "durationTicks": 62,
          "midi": 81,
          "name": "A5",
          "ticks": 39440,
          "time": 136.94422533333332,
          "velocity": 0.8031496062992126
        },
        {
          "duration": 0.1874996999999894,
          "durationTicks": 54,
          "midi": 66,
          "name": "F#4",
          "ticks": 39480,
          "time": 137.083114,
          "velocity": 1
        },
        {
          "duration": 0.1874996999999894,
          "durationTicks": 54,
          "midi": 78,
          "name": "F#5",
          "ticks": 39480,
          "time": 137.083114,
          "velocity": 1
        },
        {
          "duration": 0.1527775333333352,
          "durationTicks": 44,
          "midi": 67,
          "name": "G4",
          "ticks": 39520,
          "time": 137.22200266666664,
          "velocity": 0.8031496062992126
        },
        {
          "duration": 0.1527775333333352,
          "durationTicks": 44,
          "midi": 79,
          "name": "G5",
          "ticks": 39520,
          "time": 137.22200266666664,
          "velocity": 0.8031496062992126
        },
        {
          "duration": 0.13888866666664512,
          "durationTicks": 40,
          "midi": 81,
          "name": "A5",
          "ticks": 39560,
          "time": 137.36089133333334,
          "velocity": 0.8031496062992126
        },
        {
          "duration": 0.13888866666664512,
          "durationTicks": 40,
          "midi": 69,
          "name": "A4",
          "ticks": 39560,
          "time": 137.36089133333334,
          "velocity": 0.8031496062992126
        },
        {
          "duration": 1.249998000000005,
          "durationTicks": 360,
          "midi": 66,
          "name": "F#4",
          "ticks": 39600,
          "time": 137.49978,
          "velocity": 1
        },
        {
          "duration": 1.249998000000005,
          "durationTicks": 360,
          "midi": 78,
          "name": "F#5",
          "ticks": 39600,
          "time": 137.49978,
          "velocity": 1
        },
        {
          "duration": 0.4097215666666614,
          "durationTicks": 118,
          "midi": 62,
          "name": "D4",
          "ticks": 39960,
          "time": 138.749778,
          "velocity": 0.937007874015748
        },
        {
          "duration": 0.4097215666666614,
          "durationTicks": 118,
          "midi": 74,
          "name": "D5",
          "ticks": 39960,
          "time": 138.749778,
          "velocity": 0.937007874015748
        },
        {
          "duration": 1.4861087333333387,
          "durationTicks": 428,
          "midi": 59,
          "name": "B3",
          "ticks": 40080,
          "time": 139.16644399999998,
          "velocity": 1
        },
        {
          "duration": 1.4861087333333387,
          "durationTicks": 428,
          "midi": 71,
          "name": "B4",
          "ticks": 40080,
          "time": 139.16644399999998,
          "velocity": 1
        },
        {
          "duration": 1.2673590833333606,
          "durationTicks": 365,
          "midi": 81,
          "name": "A5",
          "ticks": 40560,
          "time": 140.83310799999998,
          "velocity": 0.937007874015748
        },
        {
          "duration": 0.16666639999999688,
          "durationTicks": 48,
          "midi": 81,
          "name": "A5",
          "ticks": 40960,
          "time": 142.22199466666666,
          "velocity": 0.7716535433070866
        },
        {
          "duration": 0.14583309999997596,
          "durationTicks": 42,
          "midi": 79,
          "name": "G5",
          "ticks": 41000,
          "time": 142.36088333333333,
          "velocity": 0.7716535433070866
        },
        {
          "duration": 0.7708321000000069,
          "durationTicks": 222,
          "midi": 77,
          "name": "F5",
          "ticks": 41040,
          "time": 142.499772,
          "velocity": 0.84251968503937
        },
        {
          "duration": 0.15624975000000063,
          "durationTicks": 45,
          "midi": 69,
          "name": "A4",
          "ticks": 41280,
          "time": 143.333104,
          "velocity": 0.8031496062992126
        },
        {
          "duration": 0.1111109333333502,
          "durationTicks": 32,
          "midi": 70,
          "name": "A#4",
          "ticks": 41320,
          "time": 143.47199266666667,
          "velocity": 0.84251968503937
        },
        {
          "duration": 0.1527775333333352,
          "durationTicks": 44,
          "midi": 72,
          "name": "C5",
          "ticks": 41360,
          "time": 143.61088133333334,
          "velocity": 0.8031496062992126
        },
        {
          "duration": 0.18055526666668698,
          "durationTicks": 52,
          "midi": 69,
          "name": "A4",
          "ticks": 41400,
          "time": 143.74976999999998,
          "velocity": 0.889763779527559
        },
        {
          "duration": 0.12499980000001187,
          "durationTicks": 36,
          "midi": 70,
          "name": "A#4",
          "ticks": 41440,
          "time": 143.88865866666666,
          "velocity": 0.889763779527559
        },
        {
          "duration": 0.15972196666666605,
          "durationTicks": 46,
          "midi": 72,
          "name": "C5",
          "ticks": 41480,
          "time": 144.02754733333333,
          "velocity": 0.84251968503937
        },
        {
          "duration": 0.5034714166666561,
          "durationTicks": 145,
          "midi": 84,
          "name": "C6",
          "ticks": 41520,
          "time": 144.166436,
          "velocity": 0.889763779527559
        },
        {
          "duration": 0.17013861666669072,
          "durationTicks": 49,
          "midi": 84,
          "name": "C6",
          "ticks": 41680,
          "time": 144.72199066666664,
          "velocity": 0.8031496062992126
        },
        {
          "duration": 0.13888866666664512,
          "durationTicks": 40,
          "midi": 79,
          "name": "G5",
          "ticks": 41720,
          "time": 144.86087933333334,
          "velocity": 0.7322834645669292
        },
        {
          "duration": 0.5138880666666807,
          "durationTicks": 148,
          "midi": 76,
          "name": "E5",
          "ticks": 41760,
          "time": 144.999768,
          "velocity": 0.8031496062992126
        },
        {
          "duration": 0.1631941833333599,
          "durationTicks": 47,
          "midi": 79,
          "name": "G5",
          "ticks": 41920,
          "time": 145.55532266666665,
          "velocity": 0.7007874015748031
        },
        {
          "duration": 0.13888866666667354,
          "durationTicks": 40,
          "midi": 76,
          "name": "E5",
          "ticks": 41960,
          "time": 145.69421133333333,
          "velocity": 0.4881889763779528
        },
        {
          "duration": 0.5868046166666829,
          "durationTicks": 169,
          "midi": 74,
          "name": "D5",
          "ticks": 42000,
          "time": 145.8331,
          "velocity": 0.889763779527559
        },
        {
          "duration": 0.1319442333333427,
          "durationTicks": 38,
          "midi": 76,
          "name": "E5",
          "ticks": 42160,
          "time": 146.38865466666664,
          "velocity": 0.5984251968503937
        },
        {
          "duration": 0.12152758333331803,
          "durationTicks": 35,
          "midi": 74,
          "name": "D5",
          "ticks": 42200,
          "time": 146.52754333333334,
          "velocity": 0.7716535433070866
        },
        {
          "duration": 0.524304716666677,
          "durationTicks": 151,
          "midi": 72,
          "name": "C5",
          "ticks": 42240,
          "time": 146.666432,
          "velocity": 0.8031496062992126
        },
        {
          "duration": 0.8368042166666498,
          "durationTicks": 241,
          "midi": 62,
          "name": "D4",
          "ticks": 42480,
          "time": 147.499764,
          "velocity": 0.84251968503937
        },
        {
          "duration": 0.8819430333333571,
          "durationTicks": 254,
          "midi": 65,
          "name": "F4",
          "ticks": 42720,
          "time": 148.33309599999998,
          "velocity": 0.937007874015748
        },
        {
          "duration": 0.3958326999999997,
          "durationTicks": 114,
          "midi": 69,
          "name": "A4",
          "ticks": 42960,
          "time": 149.166428,
          "velocity": 0.889763779527559
        },
        {
          "duration": 0.38888826666666887,
          "durationTicks": 112,
          "midi": 74,
          "name": "D5",
          "ticks": 43080,
          "time": 149.583094,
          "velocity": 0.889763779527559
        },
        {
          "duration": 1.368053366666686,
          "durationTicks": 394,
          "midi": 77,
          "name": "F5",
          "ticks": 43200,
          "time": 149.99975999999998,
          "velocity": 0.889763779527559
        },
        {
          "duration": 0.14236088333331054,
          "durationTicks": 41,
          "midi": 76,
          "name": "E5",
          "ticks": 43640,
          "time": 151.52753533333333,
          "velocity": 0.84251968503937
        },
        {
          "duration": 1.1597203666666758,
          "durationTicks": 334,
          "midi": 74,
          "name": "D5",
          "ticks": 43680,
          "time": 151.666424,
          "velocity": 0.889763779527559
        },
        {
          "duration": 0.6597211666666567,
          "durationTicks": 190,
          "midi": 77,
          "name": "F5",
          "ticks": 44160,
          "time": 153.333088,
          "velocity": 0.889763779527559
        },
        {
          "duration": 0.12499979999998345,
          "durationTicks": 36,
          "midi": 76,
          "name": "E5",
          "ticks": 44360,
          "time": 154.02753133333334,
          "velocity": 0.8031496062992126
        },
        {
          "duration": 0.6249990000000025,
          "durationTicks": 180,
          "midi": 74,
          "name": "D5",
          "ticks": 44400,
          "time": 154.16642,
          "velocity": 0.889763779527559
        },
        {
          "duration": 0.13541645000000813,
          "durationTicks": 39,
          "midi": 72,
          "name": "C5",
          "ticks": 44600,
          "time": 154.86086333333333,
          "velocity": 0.889763779527559
        },
        {
          "duration": 0.5486102333333349,
          "durationTicks": 158,
          "midi": 71,
          "name": "B4",
          "ticks": 44640,
          "time": 154.999752,
          "velocity": 0.84251968503937
        },
        {
          "duration": 0.34722166666665544,
          "durationTicks": 100,
          "midi": 74,
          "name": "D5",
          "ticks": 44880,
          "time": 155.83308399999999,
          "velocity": 0.84251968503937
        },
        {
          "duration": 0.3229161499999691,
          "durationTicks": 93,
          "midi": 74,
          "name": "D5",
          "ticks": 45000,
          "time": 156.24975,
          "velocity": 0.889763779527559
        },
        {
          "duration": 0.8194431333333227,
          "durationTicks": 236,
          "midi": 76,
          "name": "E5",
          "ticks": 45120,
          "time": 156.666416,
          "velocity": 0.8031496062992126
        },
        {
          "duration": 0.4062493500000244,
          "durationTicks": 117,
          "midi": 73,
          "name": "C#5",
          "ticks": 45360,
          "time": 157.49974799999998,
          "velocity": 0.8031496062992126
        },
        {
          "duration": 0.42708264999998846,
          "durationTicks": 123,
          "midi": 69,
          "name": "A4",
          "ticks": 45480,
          "time": 157.916414,
          "velocity": 0.84251968503937
        },
        {
          "duration": 0.7916653999999994,
          "durationTicks": 228,
          "midi": 64,
          "name": "E4",
          "ticks": 45600,
          "time": 158.33308,
          "velocity": 0.889763779527559
        },
        {
          "duration": 0.30902728333333584,
          "durationTicks": 89,
          "midi": 57,
          "name": "A3",
          "ticks": 45840,
          "time": 159.16641199999998,
          "velocity": 0.889763779527559
        },
        {
          "duration": 0.9374985000000038,
          "durationTicks": 270,
          "midi": 57,
          "name": "A3",
          "ticks": 46080,
          "time": 159.999744,
          "velocity": 0.6299212598425197
        },
        {
          "duration": 0.94791515,
          "durationTicks": 273,
          "midi": 50,
          "name": "D3",
          "ticks": 46080,
          "time": 159.999744,
          "velocity": 0.7716535433070866
        },
        {
          "duration": 1.090276033333339,
          "durationTicks": 314,
          "midi": 62,
          "name": "D4",
          "ticks": 46080,
          "time": 159.999744,
          "velocity": 0.84251968503937
        },
        {
          "duration": 0.10069428333335395,
          "durationTicks": 29,
          "midi": 50,
          "name": "D3",
          "ticks": 46400,
          "time": 161.11085333333332,
          "velocity": 0.7716535433070866
        },
        {
          "duration": 0.09027763333332928,
          "durationTicks": 26,
          "midi": 57,
          "name": "A3",
          "ticks": 46400,
          "time": 161.11085333333332,
          "velocity": 0.7716535433070866
        },
        {
          "duration": 0.07986098333333302,
          "durationTicks": 23,
          "midi": 62,
          "name": "D4",
          "ticks": 46440,
          "time": 161.249742,
          "velocity": 0.84251968503937
        },
        {
          "duration": 0.7743043166666723,
          "durationTicks": 223,
          "midi": 48,
          "name": "C3",
          "ticks": 46560,
          "time": 161.666408,
          "velocity": 0.5669291338582677
        },
        {
          "duration": 0.7673598833333131,
          "durationTicks": 221,
          "midi": 41,
          "name": "F2",
          "ticks": 46560,
          "time": 161.666408,
          "velocity": 0.7007874015748031
        },
        {
          "duration": 0.7569432333333452,
          "durationTicks": 218,
          "midi": 53,
          "name": "F3",
          "ticks": 46560,
          "time": 161.666408,
          "velocity": 0.7322834645669292
        },
        {
          "duration": 0.12152758333331803,
          "durationTicks": 35,
          "midi": 41,
          "name": "F2",
          "ticks": 46800,
          "time": 162.49974,
          "velocity": 0.7007874015748031
        },
        {
          "duration": 0.11805536666668104,
          "durationTicks": 34,
          "midi": 48,
          "name": "C3",
          "ticks": 46800,
          "time": 162.49974,
          "velocity": 0.5984251968503937
        },
        {
          "duration": 0.14236088333331054,
          "durationTicks": 41,
          "midi": 53,
          "name": "F3",
          "ticks": 46800,
          "time": 162.49974,
          "velocity": 0.7322834645669292
        },
        {
          "duration": 0.684026683333343,
          "durationTicks": 197,
          "midi": 50,
          "name": "D3",
          "ticks": 47040,
          "time": 163.333072,
          "velocity": 0.5984251968503937
        },
        {
          "duration": 0.6736100333333468,
          "durationTicks": 194,
          "midi": 43,
          "name": "G2",
          "ticks": 47040,
          "time": 163.333072,
          "velocity": 0.6299212598425197
        },
        {
          "duration": 0.684026683333343,
          "durationTicks": 197,
          "midi": 55,
          "name": "G3",
          "ticks": 47040,
          "time": 163.333072,
          "velocity": 0.7007874015748031
        },
        {
          "duration": 0.1145831499999872,
          "durationTicks": 33,
          "midi": 55,
          "name": "G3",
          "ticks": 47280,
          "time": 164.166404,
          "velocity": 0.7322834645669292
        },
        {
          "duration": 0.10069428333332553,
          "durationTicks": 29,
          "midi": 50,
          "name": "D3",
          "ticks": 47280,
          "time": 164.166404,
          "velocity": 0.7007874015748031
        },
        {
          "duration": 0.14236088333331054,
          "durationTicks": 41,
          "midi": 43,
          "name": "G2",
          "ticks": 47280,
          "time": 164.166404,
          "velocity": 0.6692913385826772
        },
        {
          "duration": 0.6562489499999913,
          "durationTicks": 189,
          "midi": 53,
          "name": "F3",
          "ticks": 47520,
          "time": 164.99973599999998,
          "velocity": 0.5669291338582677
        },
        {
          "duration": 0.6770822500000122,
          "durationTicks": 195,
          "midi": 58,
          "name": "A#3",
          "ticks": 47520,
          "time": 164.99973599999998,
          "velocity": 0.7007874015748031
        },
        {
          "duration": 0.60416570000001,
          "durationTicks": 174,
          "midi": 46,
          "name": "A#2",
          "ticks": 47520,
          "time": 164.99973599999998,
          "velocity": 0.7007874015748031
        },
        {
          "duration": 0.09027763333332928,
          "durationTicks": 26,
          "midi": 53,
          "name": "F3",
          "ticks": 47760,
          "time": 165.833068,
          "velocity": 0.5669291338582677
        },
        {
          "duration": 0.10763871666665636,
          "durationTicks": 31,
          "midi": 58,
          "name": "A#3",
          "ticks": 47760,
          "time": 165.833068,
          "velocity": 0.7007874015748031
        },
        {
          "duration": 0.10763871666665636,
          "durationTicks": 31,
          "midi": 46,
          "name": "A#2",
          "ticks": 47760,
          "time": 165.833068,
          "velocity": 0.6692913385826772
        },
        {
          "duration": 0.9374985000000038,
          "durationTicks": 270,
          "midi": 57,
          "name": "A3",
          "ticks": 48000,
          "time": 166.66639999999998,
          "velocity": 0.6299212598425197
        },
        {
          "duration": 0.94791515,
          "durationTicks": 273,
          "midi": 50,
          "name": "D3",
          "ticks": 48000,
          "time": 166.66639999999998,
          "velocity": 0.7716535433070866
        },
        {
          "duration": 1.090276033333339,
          "durationTicks": 314,
          "midi": 62,
          "name": "D4",
          "ticks": 48000,
          "time": 166.66639999999998,
          "velocity": 0.84251968503937
        },
        {
          "duration": 0.10069428333332553,
          "durationTicks": 29,
          "midi": 50,
          "name": "D3",
          "ticks": 48320,
          "time": 167.77750933333334,
          "velocity": 0.7716535433070866
        },
        {
          "duration": 0.09027763333330086,
          "durationTicks": 26,
          "midi": 57,
          "name": "A3",
          "ticks": 48320,
          "time": 167.77750933333334,
          "velocity": 0.7716535433070866
        },
        {
          "duration": 0.07986098333333302,
          "durationTicks": 23,
          "midi": 62,
          "name": "D4",
          "ticks": 48360,
          "time": 167.916398,
          "velocity": 0.84251968503937
        },
        {
          "duration": 0.7743043166666723,
          "durationTicks": 223,
          "midi": 48,
          "name": "C3",
          "ticks": 48480,
          "time": 168.33306399999998,
          "velocity": 0.5669291338582677
        },
        {
          "duration": 0.7673598833333415,
          "durationTicks": 221,
          "midi": 41,
          "name": "F2",
          "ticks": 48480,
          "time": 168.33306399999998,
          "velocity": 0.7007874015748031
        },
        {
          "duration": 0.7569432333333452,
          "durationTicks": 218,
          "midi": 53,
          "name": "F3",
          "ticks": 48480,
          "time": 168.33306399999998,
          "velocity": 0.7322834645669292
        },
        {
          "duration": 0.12152758333334646,
          "durationTicks": 35,
          "midi": 41,
          "name": "F2",
          "ticks": 48720,
          "time": 169.166396,
          "velocity": 0.7007874015748031
        },
        {
          "duration": 0.11805536666668104,
          "durationTicks": 34,
          "midi": 48,
          "name": "C3",
          "ticks": 48720,
          "time": 169.166396,
          "velocity": 0.5984251968503937
        },
        {
          "duration": 0.14236088333331054,
          "durationTicks": 41,
          "midi": 53,
          "name": "F3",
          "ticks": 48720,
          "time": 169.166396,
          "velocity": 0.7322834645669292
        },
        {
          "duration": 0.6840266833333146,
          "durationTicks": 197,
          "midi": 50,
          "name": "D3",
          "ticks": 48960,
          "time": 169.999728,
          "velocity": 0.5984251968503937
        },
        {
          "duration": 0.6736100333333184,
          "durationTicks": 194,
          "midi": 43,
          "name": "G2",
          "ticks": 48960,
          "time": 169.999728,
          "velocity": 0.6299212598425197
        },
        {
          "duration": 0.6840266833333146,
          "durationTicks": 197,
          "midi": 55,
          "name": "G3",
          "ticks": 48960,
          "time": 169.999728,
          "velocity": 0.7007874015748031
        },
        {
          "duration": 0.1145831499999872,
          "durationTicks": 33,
          "midi": 55,
          "name": "G3",
          "ticks": 49200,
          "time": 170.83306,
          "velocity": 0.7322834645669292
        },
        {
          "duration": 0.10069428333332553,
          "durationTicks": 29,
          "midi": 50,
          "name": "D3",
          "ticks": 49200,
          "time": 170.83306,
          "velocity": 0.7007874015748031
        },
        {
          "duration": 0.14236088333333896,
          "durationTicks": 41,
          "midi": 43,
          "name": "G2",
          "ticks": 49200,
          "time": 170.83306,
          "velocity": 0.6692913385826772
        },
        {
          "duration": 0.6562489499999913,
          "durationTicks": 189,
          "midi": 53,
          "name": "F3",
          "ticks": 49440,
          "time": 171.666392,
          "velocity": 0.5669291338582677
        },
        {
          "duration": 0.6770822499999838,
          "durationTicks": 195,
          "midi": 58,
          "name": "A#3",
          "ticks": 49440,
          "time": 171.666392,
          "velocity": 0.7007874015748031
        },
        {
          "duration": 0.6041656999999816,
          "durationTicks": 174,
          "midi": 46,
          "name": "A#2",
          "ticks": 49440,
          "time": 171.666392,
          "velocity": 0.7007874015748031
        },
        {
          "duration": 0.09027763333332928,
          "durationTicks": 26,
          "midi": 53,
          "name": "F3",
          "ticks": 49680,
          "time": 172.499724,
          "velocity": 0.5669291338582677
        },
        {
          "duration": 0.10763871666665636,
          "durationTicks": 31,
          "midi": 58,
          "name": "A#3",
          "ticks": 49680,
          "time": 172.499724,
          "velocity": 0.7007874015748031
        },
        {
          "duration": 0.10763871666665636,
          "durationTicks": 31,
          "midi": 46,
          "name": "A#2",
          "ticks": 49680,
          "time": 172.499724,
          "velocity": 0.6692913385826772
        },
        {
          "duration": 0.989581749999985,
          "durationTicks": 285,
          "midi": 57,
          "name": "A3",
          "ticks": 49920,
          "time": 173.333056,
          "velocity": 0.5984251968503937
        },
        {
          "duration": 1.0937482500000044,
          "durationTicks": 315,
          "midi": 50,
          "name": "D3",
          "ticks": 49920,
          "time": 173.333056,
          "velocity": 0.7322834645669292
        },
        {
          "duration": 0.12499980000001187,
          "durationTicks": 36,
          "midi": 62,
          "name": "D4",
          "ticks": 50040,
          "time": 173.749722,
          "velocity": 0.5984251968503937
        },
        {
          "duration": 0.15972196666666605,
          "durationTicks": 46,
          "midi": 65,
          "name": "F4",
          "ticks": 50040,
          "time": 173.749722,
          "velocity": 0.6692913385826772
        },
        {
          "duration": 0.09722206666666011,
          "durationTicks": 28,
          "midi": 62,
          "name": "D4",
          "ticks": 50280,
          "time": 174.583054,
          "velocity": 0.6299212598425197
        },
        {
          "duration": 0.08333319999997002,
          "durationTicks": 24,
          "midi": 65,
          "name": "F4",
          "ticks": 50280,
          "time": 174.583054,
          "velocity": 0.7007874015748031
        },
        {
          "duration": 0.10763871666665636,
          "durationTicks": 31,
          "midi": 69,
          "name": "A4",
          "ticks": 50280,
          "time": 174.583054,
          "velocity": 0.7322834645669292
        },
        {
          "duration": 0.9374985000000038,
          "durationTicks": 270,
          "midi": 41,
          "name": "F2",
          "ticks": 50400,
          "time": 174.99972,
          "velocity": 0.7322834645669292
        },
        {
          "duration": 0.12499980000001187,
          "durationTicks": 36,
          "midi": 53,
          "name": "F3",
          "ticks": 50520,
          "time": 175.416386,
          "velocity": 0.5039370078740157
        },
        {
          "duration": 0.11805536666668104,
          "durationTicks": 34,
          "midi": 57,
          "name": "A3",
          "ticks": 50520,
          "time": 175.416386,
          "velocity": 0.6692913385826772
        },
        {
          "duration": 0.13888866666667354,
          "durationTicks": 40,
          "midi": 60,
          "name": "C4",
          "ticks": 50520,
          "time": 175.416386,
          "velocity": 0.7007874015748031
        },
        {
          "duration": 0.09027763333330086,
          "durationTicks": 26,
          "midi": 53,
          "name": "F3",
          "ticks": 50760,
          "time": 176.249718,
          "velocity": 0.4881889763779528
        },
        {
          "duration": 0.10069428333332553,
          "durationTicks": 29,
          "midi": 57,
          "name": "A3",
          "ticks": 50760,
          "time": 176.249718,
          "velocity": 0.7007874015748031
        },
        {
          "duration": 0.11805536666668104,
          "durationTicks": 34,
          "midi": 60,
          "name": "C4",
          "ticks": 50760,
          "time": 176.249718,
          "velocity": 0.7007874015748031
        },
        {
          "duration": 0.8333319999999844,
          "durationTicks": 240,
          "midi": 43,
          "name": "G2",
          "ticks": 50880,
          "time": 176.666384,
          "velocity": 0.7322834645669292
        },
        {
          "duration": 0.16319418333333147,
          "durationTicks": 47,
          "midi": 55,
          "name": "G3",
          "ticks": 51000,
          "time": 177.08305,
          "velocity": 0.7322834645669292
        },
        {
          "duration": 0.21527743333334115,
          "durationTicks": 62,
          "midi": 55,
          "name": "G3",
          "ticks": 51120,
          "time": 177.49971599999998,
          "velocity": 0.4645669291338583
        },
        {
          "duration": 0.14583310000000438,
          "durationTicks": 42,
          "midi": 43,
          "name": "G2",
          "ticks": 51200,
          "time": 177.77749333333333,
          "velocity": 0.6692913385826772
        },
        {
          "duration": 0.15624975000000063,
          "durationTicks": 45,
          "midi": 55,
          "name": "G3",
          "ticks": 51240,
          "time": 177.916382,
          "velocity": 0.7322834645669292
        },
        {
          "duration": 0.15624975000000063,
          "durationTicks": 45,
          "midi": 46,
          "name": "A#2",
          "ticks": 51360,
          "time": 178.333048,
          "velocity": 0.7322834645669292
        },
        {
          "duration": 0.12499979999998345,
          "durationTicks": 36,
          "midi": 58,
          "name": "A#3",
          "ticks": 51400,
          "time": 178.47193666666666,
          "velocity": 0.5669291338582677
        },
        {
          "duration": 0.1145831499999872,
          "durationTicks": 33,
          "midi": 46,
          "name": "A#2",
          "ticks": 51440,
          "time": 178.61082533333334,
          "velocity": 0.6299212598425197
        },
        {
          "duration": 0.2569440333333546,
          "durationTicks": 74,
          "midi": 58,
          "name": "A#3",
          "ticks": 51480,
          "time": 178.74971399999998,
          "velocity": 0.84251968503937
        },
        {
          "duration": 0.09027763333330086,
          "durationTicks": 26,
          "midi": 46,
          "name": "A#2",
          "ticks": 51600,
          "time": 179.16638,
          "velocity": 0.7716535433070866
        },
        {
          "duration": 0.6527767333333259,
          "durationTicks": 188,
          "midi": 57,
          "name": "A3",
          "ticks": 51840,
          "time": 179.999712,
          "velocity": 0.7007874015748031
        },
        {
          "duration": 0.6493045166666604,
          "durationTicks": 187,
          "midi": 50,
          "name": "D3",
          "ticks": 51840,
          "time": 179.999712,
          "velocity": 0.7716535433070866
        },
        {
          "duration": 0.7152766333333318,
          "durationTicks": 206,
          "midi": 62,
          "name": "D4",
          "ticks": 51840,
          "time": 179.999712,
          "velocity": 0.7716535433070866
        },
        {
          "duration": 0.09027763333330086,
          "durationTicks": 26,
          "midi": 57,
          "name": "A3",
          "ticks": 52080,
          "time": 180.833044,
          "velocity": 0.7007874015748031
        },
        {
          "duration": 0.10069428333332553,
          "durationTicks": 29,
          "midi": 50,
          "name": "D3",
          "ticks": 52080,
          "time": 180.833044,
          "velocity": 0.7716535433070866
        },
        {
          "duration": 0.08333319999999844,
          "durationTicks": 24,
          "midi": 62,
          "name": "D4",
          "ticks": 52200,
          "time": 181.24971,
          "velocity": 0.7322834645669292
        },
        {
          "duration": 0.4166659999999922,
          "durationTicks": 120,
          "midi": 41,
          "name": "F2",
          "ticks": 52320,
          "time": 181.66637599999999,
          "velocity": 0.7007874015748031
        },
        {
          "duration": 0.3715271833333418,
          "durationTicks": 107,
          "midi": 48,
          "name": "C3",
          "ticks": 52320,
          "time": 181.66637599999999,
          "velocity": 0.7007874015748031
        },
        {
          "duration": 0.14236088333333896,
          "durationTicks": 41,
          "midi": 53,
          "name": "F3",
          "ticks": 52440,
          "time": 182.08304199999998,
          "velocity": 0.5354330708661418
        },
        {
          "duration": 0.1319442333333427,
          "durationTicks": 38,
          "midi": 60,
          "name": "C4",
          "ticks": 52440,
          "time": 182.08304199999998,
          "velocity": 0.6692913385826772
        },
        {
          "duration": 0.13541645000000813,
          "durationTicks": 39,
          "midi": 57,
          "name": "A3",
          "ticks": 52440,
          "time": 182.08304199999998,
          "velocity": 0.6299212598425197
        },
        {
          "duration": 0.12499979999995503,
          "durationTicks": 36,
          "midi": 41,
          "name": "F2",
          "ticks": 52640,
          "time": 182.77748533333335,
          "velocity": 0.7007874015748031
        },
        {
          "duration": 0.09374985000002312,
          "durationTicks": 27,
          "midi": 53,
          "name": "F3",
          "ticks": 52680,
          "time": 182.916374,
          "velocity": 0.5669291338582677
        },
        {
          "duration": 0.09374985000002312,
          "durationTicks": 27,
          "midi": 57,
          "name": "A3",
          "ticks": 52680,
          "time": 182.916374,
          "velocity": 0.7322834645669292
        },
        {
          "duration": 0.10763871666665636,
          "durationTicks": 31,
          "midi": 60,
          "name": "C4",
          "ticks": 52680,
          "time": 182.916374,
          "velocity": 0.7007874015748031
        },
        {
          "duration": 0.8298597833333474,
          "durationTicks": 239,
          "midi": 43,
          "name": "G2",
          "ticks": 52800,
          "time": 183.33303999999998,
          "velocity": 0.7716535433070866
        },
        {
          "duration": 0.09027763333330086,
          "durationTicks": 26,
          "midi": 55,
          "name": "G3",
          "ticks": 52920,
          "time": 183.749706,
          "velocity": 0.6299212598425197
        },
        {
          "duration": 0.10069428333332553,
          "durationTicks": 29,
          "midi": 59,
          "name": "B3",
          "ticks": 52920,
          "time": 183.749706,
          "velocity": 0.7322834645669292
        },
        {
          "duration": 0.10069428333332553,
          "durationTicks": 29,
          "midi": 62,
          "name": "D4",
          "ticks": 52920,
          "time": 183.749706,
          "velocity": 0.7322834645669292
        },
        {
          "duration": 0.11111093333332178,
          "durationTicks": 32,
          "midi": 55,
          "name": "G3",
          "ticks": 53040,
          "time": 184.166372,
          "velocity": 0.47244094488188976
        },
        {
          "duration": 0.11458315000001562,
          "durationTicks": 33,
          "midi": 43,
          "name": "G2",
          "ticks": 53100,
          "time": 184.37470499999998,
          "velocity": 0.7322834645669292
        },
        {
          "duration": 0.08333319999999844,
          "durationTicks": 24,
          "midi": 55,
          "name": "G3",
          "ticks": 53160,
          "time": 184.583038,
          "velocity": 0.5984251968503937
        },
        {
          "duration": 0.08333319999999844,
          "durationTicks": 24,
          "midi": 59,
          "name": "B3",
          "ticks": 53160,
          "time": 184.583038,
          "velocity": 0.7322834645669292
        },
        {
          "duration": 0.08680541666666386,
          "durationTicks": 25,
          "midi": 62,
          "name": "D4",
          "ticks": 53160,
          "time": 184.583038,
          "velocity": 0.7007874015748031
        },
        {
          "duration": 0.4722214666666673,
          "durationTicks": 136,
          "midi": 46,
          "name": "A#2",
          "ticks": 53280,
          "time": 184.99970399999998,
          "velocity": 0.7716535433070866
        },
        {
          "duration": 0.1354164499999797,
          "durationTicks": 39,
          "midi": 62,
          "name": "D4",
          "ticks": 53400,
          "time": 185.41637,
          "velocity": 0.8031496062992126
        },
        {
          "duration": 0.15624975000000063,
          "durationTicks": 45,
          "midi": 58,
          "name": "A#3",
          "ticks": 53400,
          "time": 185.41637,
          "velocity": 0.7322834645669292
        },
        {
          "duration": 0.20833300000001032,
          "durationTicks": 60,
          "midi": 62,
          "name": "D4",
          "ticks": 53520,
          "time": 185.833036,
          "velocity": 0.7322834645669292
        },
        {
          "duration": 0.23263851666666824,
          "durationTicks": 67,
          "midi": 58,
          "name": "A#3",
          "ticks": 53520,
          "time": 185.833036,
          "velocity": 0.7322834645669292
        },
        {
          "duration": 0.10416649999999095,
          "durationTicks": 30,
          "midi": 46,
          "name": "A#2",
          "ticks": 53600,
          "time": 186.11081333333334,
          "velocity": 0.84251968503937
        },
        {
          "duration": 0.11805536666668104,
          "durationTicks": 34,
          "midi": 62,
          "name": "D4",
          "ticks": 53640,
          "time": 186.24970199999998,
          "velocity": 0.7716535433070866
        },
        {
          "duration": 0.1145831499999872,
          "durationTicks": 33,
          "midi": 58,
          "name": "A#3",
          "ticks": 53640,
          "time": 186.24970199999998,
          "velocity": 0.6692913385826772
        },
        {
          "duration": 0.9374985000000038,
          "durationTicks": 270,
          "midi": 57,
          "name": "A3",
          "ticks": 53760,
          "time": 186.66636799999998,
          "velocity": 0.6299212598425197
        },
        {
          "duration": 0.94791515,
          "durationTicks": 273,
          "midi": 50,
          "name": "D3",
          "ticks": 53760,
          "time": 186.66636799999998,
          "velocity": 0.7716535433070866
        },
        {
          "duration": 1.090276033333339,
          "durationTicks": 314,
          "midi": 62,
          "name": "D4",
          "ticks": 53760,
          "time": 186.66636799999998,
          "velocity": 0.84251968503937
        },
        {
          "duration": 0.10069428333332553,
          "durationTicks": 29,
          "midi": 50,
          "name": "D3",
          "ticks": 54080,
          "time": 187.77747733333334,
          "velocity": 0.7716535433070866
        },
        {
          "duration": 0.09027763333332928,
          "durationTicks": 26,
          "midi": 57,
          "name": "A3",
          "ticks": 54080,
          "time": 187.77747733333334,
          "velocity": 0.7716535433070866
        },
        {
          "duration": 0.07986098333333302,
          "durationTicks": 23,
          "midi": 62,
          "name": "D4",
          "ticks": 54120,
          "time": 187.91636599999998,
          "velocity": 0.84251968503937
        },
        {
          "duration": 0.7743043166666723,
          "durationTicks": 223,
          "midi": 48,
          "name": "C3",
          "ticks": 54240,
          "time": 188.333032,
          "velocity": 0.5669291338582677
        },
        {
          "duration": 0.7673598833333131,
          "durationTicks": 221,
          "midi": 41,
          "name": "F2",
          "ticks": 54240,
          "time": 188.333032,
          "velocity": 0.7007874015748031
        },
        {
          "duration": 0.7569432333333168,
          "durationTicks": 218,
          "midi": 53,
          "name": "F3",
          "ticks": 54240,
          "time": 188.333032,
          "velocity": 0.7322834645669292
        },
        {
          "duration": 0.12152758333334646,
          "durationTicks": 35,
          "midi": 41,
          "name": "F2",
          "ticks": 54480,
          "time": 189.166364,
          "velocity": 0.7007874015748031
        },
        {
          "duration": 0.11805536666668104,
          "durationTicks": 34,
          "midi": 48,
          "name": "C3",
          "ticks": 54480,
          "time": 189.166364,
          "velocity": 0.5984251968503937
        },
        {
          "duration": 0.14236088333333896,
          "durationTicks": 41,
          "midi": 53,
          "name": "F3",
          "ticks": 54480,
          "time": 189.166364,
          "velocity": 0.7322834645669292
        },
        {
          "duration": 0.6840266833333146,
          "durationTicks": 197,
          "midi": 50,
          "name": "D3",
          "ticks": 54720,
          "time": 189.999696,
          "velocity": 0.5984251968503937
        },
        {
          "duration": 0.6736100333333184,
          "durationTicks": 194,
          "midi": 43,
          "name": "G2",
          "ticks": 54720,
          "time": 189.999696,
          "velocity": 0.6299212598425197
        },
        {
          "duration": 0.6840266833333146,
          "durationTicks": 197,
          "midi": 55,
          "name": "G3",
          "ticks": 54720,
          "time": 189.999696,
          "velocity": 0.7007874015748031
        },
        {
          "duration": 0.1145831499999872,
          "durationTicks": 33,
          "midi": 55,
          "name": "G3",
          "ticks": 54960,
          "time": 190.83302799999998,
          "velocity": 0.7322834645669292
        },
        {
          "duration": 0.10069428333335395,
          "durationTicks": 29,
          "midi": 50,
          "name": "D3",
          "ticks": 54960,
          "time": 190.83302799999998,
          "velocity": 0.7007874015748031
        },
        {
          "duration": 0.14236088333333896,
          "durationTicks": 41,
          "midi": 43,
          "name": "G2",
          "ticks": 54960,
          "time": 190.83302799999998,
          "velocity": 0.6692913385826772
        },
        {
          "duration": 0.6562489499999913,
          "durationTicks": 189,
          "midi": 53,
          "name": "F3",
          "ticks": 55200,
          "time": 191.66636,
          "velocity": 0.5669291338582677
        },
        {
          "duration": 0.6770822499999838,
          "durationTicks": 195,
          "midi": 58,
          "name": "A#3",
          "ticks": 55200,
          "time": 191.66636,
          "velocity": 0.7007874015748031
        },
        {
          "duration": 0.6041656999999816,
          "durationTicks": 174,
          "midi": 46,
          "name": "A#2",
          "ticks": 55200,
          "time": 191.66636,
          "velocity": 0.7007874015748031
        },
        {
          "duration": 0.09027763333332928,
          "durationTicks": 26,
          "midi": 53,
          "name": "F3",
          "ticks": 55440,
          "time": 192.49969199999998,
          "velocity": 0.5669291338582677
        },
        {
          "duration": 0.10763871666668479,
          "durationTicks": 31,
          "midi": 58,
          "name": "A#3",
          "ticks": 55440,
          "time": 192.49969199999998,
          "velocity": 0.7007874015748031
        },
        {
          "duration": 0.10763871666668479,
          "durationTicks": 31,
          "midi": 46,
          "name": "A#2",
          "ticks": 55440,
          "time": 192.49969199999998,
          "velocity": 0.6692913385826772
        },
        {
          "duration": 1.0659705166666527,
          "durationTicks": 307,
          "midi": 50,
          "name": "D3",
          "ticks": 55680,
          "time": 193.333024,
          "velocity": 0.7716535433070866
        },
        {
          "duration": 0.16319418333333147,
          "durationTicks": 47,
          "midi": 62,
          "name": "D4",
          "ticks": 55800,
          "time": 193.74969,
          "velocity": 0.7007874015748031
        },
        {
          "duration": 0.1527775333333352,
          "durationTicks": 44,
          "midi": 65,
          "name": "F4",
          "ticks": 55800,
          "time": 193.74969,
          "velocity": 0.7322834645669292
        },
        {
          "duration": 0.17361083333335614,
          "durationTicks": 50,
          "midi": 69,
          "name": "A4",
          "ticks": 55800,
          "time": 193.74969,
          "velocity": 0.7322834645669292
        },
        {
          "duration": 0.0937498499999947,
          "durationTicks": 27,
          "midi": 62,
          "name": "D4",
          "ticks": 56040,
          "time": 194.583022,
          "velocity": 0.7716535433070866
        },
        {
          "duration": 0.930554066666673,
          "durationTicks": 268,
          "midi": 41,
          "name": "F2",
          "ticks": 56160,
          "time": 194.999688,
          "velocity": 0.7716535433070866
        },
        {
          "duration": 0.16666639999999688,
          "durationTicks": 48,
          "midi": 53,
          "name": "F3",
          "ticks": 56280,
          "time": 195.41635399999998,
          "velocity": 0.5984251968503937
        },
        {
          "duration": 0.1527775333333352,
          "durationTicks": 44,
          "midi": 57,
          "name": "A3",
          "ticks": 56280,
          "time": 195.41635399999998,
          "velocity": 0.7007874015748031
        },
        {
          "duration": 0.15624975000000063,
          "durationTicks": 45,
          "midi": 60,
          "name": "C4",
          "ticks": 56280,
          "time": 195.41635399999998,
          "velocity": 0.7716535433070866
        },
        {
          "duration": 0.1284720166666773,
          "durationTicks": 37,
          "midi": 41,
          "name": "F2",
          "ticks": 56480,
          "time": 196.11079733333332,
          "velocity": 0.7007874015748031
        },
        {
          "duration": 0.07986098333333302,
          "durationTicks": 23,
          "midi": 53,
          "name": "F3",
          "ticks": 56520,
          "time": 196.249686,
          "velocity": 0.5984251968503937
        },
        {
          "duration": 0.10763871666665636,
          "durationTicks": 31,
          "midi": 57,
          "name": "A3",
          "ticks": 56520,
          "time": 196.249686,
          "velocity": 0.7007874015748031
        },
        {
          "duration": 0.1354164499999797,
          "durationTicks": 39,
          "midi": 60,
          "name": "C4",
          "ticks": 56520,
          "time": 196.249686,
          "velocity": 0.7007874015748031
        },
        {
          "duration": 1.0069428333333406,
          "durationTicks": 290,
          "midi": 43,
          "name": "G2",
          "ticks": 56640,
          "time": 196.666352,
          "velocity": 0.8031496062992126
        },
        {
          "duration": 0.14236088333333896,
          "durationTicks": 41,
          "midi": 59,
          "name": "B3",
          "ticks": 56760,
          "time": 197.08301799999998,
          "velocity": 0.7716535433070866
        },
        {
          "duration": 0.1458331000000328,
          "durationTicks": 42,
          "midi": 55,
          "name": "G3",
          "ticks": 56760,
          "time": 197.08301799999998,
          "velocity": 0.6692913385826772
        },
        {
          "duration": 0.15972196666666605,
          "durationTicks": 46,
          "midi": 62,
          "name": "D4",
          "ticks": 56760,
          "time": 197.08301799999998,
          "velocity": 0.8031496062992126
        },
        {
          "duration": 0.13888866666664512,
          "durationTicks": 40,
          "midi": 43,
          "name": "G2",
          "ticks": 57000,
          "time": 197.91635,
          "velocity": 0.5984251968503937
        },
        {
          "duration": 0.12499980000001187,
          "durationTicks": 36,
          "midi": 62,
          "name": "D4",
          "ticks": 57000,
          "time": 197.91635,
          "velocity": 0.7716535433070866
        },
        {
          "duration": 0.1145831499999872,
          "durationTicks": 33,
          "midi": 55,
          "name": "G3",
          "ticks": 57000,
          "time": 197.91635,
          "velocity": 0.7007874015748031
        },
        {
          "duration": 0.12499980000001187,
          "durationTicks": 36,
          "midi": 59,
          "name": "B3",
          "ticks": 57000,
          "time": 197.91635,
          "velocity": 0.84251968503937
        },
        {
          "duration": 0.15624975000000063,
          "durationTicks": 45,
          "midi": 65,
          "name": "F4",
          "ticks": 57120,
          "time": 198.333016,
          "velocity": 0.937007874015748
        },
        {
          "duration": 0.1701386166666623,
          "durationTicks": 49,
          "midi": 69,
          "name": "A4",
          "ticks": 57160,
          "time": 198.47190466666666,
          "velocity": 0.5354330708661418
        },
        {
          "duration": 0.1284720166666773,
          "durationTicks": 37,
          "midi": 70,
          "name": "A#4",
          "ticks": 57200,
          "time": 198.61079333333333,
          "velocity": 0.7716535433070866
        },
        {
          "duration": 0.18055526666668698,
          "durationTicks": 52,
          "midi": 74,
          "name": "D5",
          "ticks": 57240,
          "time": 198.74968199999998,
          "velocity": 0.8031496062992126
        },
        {
          "duration": 0.11458315000001562,
          "durationTicks": 33,
          "midi": 70,
          "name": "A#4",
          "ticks": 57280,
          "time": 198.88857066666665,
          "velocity": 0.84251968503937
        },
        {
          "duration": 0.0937498499999947,
          "durationTicks": 27,
          "midi": 69,
          "name": "A4",
          "ticks": 57320,
          "time": 199.02745933333333,
          "velocity": 0.889763779527559
        },
        {
          "duration": 0.14236088333331054,
          "durationTicks": 41,
          "midi": 69,
          "name": "A4",
          "ticks": 57360,
          "time": 199.166348,
          "velocity": 0.937007874015748
        },
        {
          "duration": 0.15624975000000063,
          "durationTicks": 45,
          "midi": 73,
          "name": "C#5",
          "ticks": 57400,
          "time": 199.30523666666664,
          "velocity": 0.84251968503937
        },
        {
          "duration": 0.1284720166666773,
          "durationTicks": 37,
          "midi": 76,
          "name": "E5",
          "ticks": 57440,
          "time": 199.44412533333332,
          "velocity": 0.8031496062992126
        },
        {
          "duration": 0.1493053166666698,
          "durationTicks": 43,
          "midi": 74,
          "name": "D5",
          "ticks": 57480,
          "time": 199.583014,
          "velocity": 0.5039370078740157
        },
        {
          "duration": 0.16319418333333147,
          "durationTicks": 47,
          "midi": 86,
          "name": "D6",
          "ticks": 57480,
          "time": 199.583014,
          "velocity": 0.8031496062992126
        },
        {
          "duration": 0.17013861666669072,
          "durationTicks": 49,
          "midi": 81,
          "name": "A5",
          "ticks": 57480,
          "time": 199.583014,
          "velocity": 0.7716535433070866
        },
        {
          "duration": 0.1909719166666548,
          "durationTicks": 55,
          "midi": 81,
          "name": "A5",
          "ticks": 57560,
          "time": 199.86079133333334,
          "velocity": 0.8031496062992126
        },
        {
          "duration": 0.1736108333332993,
          "durationTicks": 50,
          "midi": 86,
          "name": "D6",
          "ticks": 57560,
          "time": 199.86079133333334,
          "velocity": 0.889763779527559
        },
        {
          "duration": 0.1909719166666548,
          "durationTicks": 55,
          "midi": 74,
          "name": "D5",
          "ticks": 57560,
          "time": 199.86079133333334,
          "velocity": 0.6692913385826772
        }
      ]
    },
    {
      "channel": 0,
      "controlChanges": {
        "0": [
          {
            "number": 0,
            "ticks": 0,
            "time": 0,
            "value": 0
          }
        ],
        "7": [
          {
            "number": 7,
            "ticks": 0,
            "time": 0,
            "value": 0.7086614173228346
          }
        ],
        "10": [
          {
            "number": 10,
            "ticks": 0,
            "time": 0,
            "value": 0.31496062992125984
          }
        ],
        "32": [
          {
            "number": 32,
            "ticks": 0,
            "time": 0,
            "value": 0
          }
        ],
        "91": [
          {
            "number": 91,
            "ticks": 0,
            "time": 0,
            "value": 0.7874015748031497
          }
        ],
        "93": [
          {
            "number": 93,
            "ticks": 0,
            "time": 0,
            "value": 0.5275590551181102
          }
        ]
      },
      "pitchBends": [],
      "instrument": {
        "family": "piano",
        "number": 0,
        "name": "acoustic grand piano"
      },
      "name": "",
      "notes": [],
      "endOfTrackTicks": 57615
    },
    {
      "channel": 3,
      "controlChanges": {
        "64": [
          {
            "number": 64,
            "ticks": 1370,
            "time": 4.756936833333333,
            "value": 1
          },
          {
            "number": 64,
            "ticks": 1658,
            "time": 5.756935233333333,
            "value": 0
          },
          {
            "number": 64,
            "ticks": 1741,
            "time": 6.045129216666666,
            "value": 1
          },
          {
            "number": 64,
            "ticks": 1806,
            "time": 6.2708233,
            "value": 0
          },
          {
            "number": 64,
            "ticks": 1855,
            "time": 6.440961916666667,
            "value": 1
          },
          {
            "number": 64,
            "ticks": 1908,
            "time": 6.6249894,
            "value": 0
          },
          {
            "number": 64,
            "ticks": 2448,
            "time": 8.4999864,
            "value": 1
          },
          {
            "number": 64,
            "ticks": 2515,
            "time": 8.732624916666666,
            "value": 0
          },
          {
            "number": 64,
            "ticks": 2688,
            "time": 9.3333184,
            "value": 1
          },
          {
            "number": 64,
            "ticks": 2771,
            "time": 9.621512383333332,
            "value": 0
          },
          {
            "number": 64,
            "ticks": 4972,
            "time": 17.263861266666666,
            "value": 1
          },
          {
            "number": 64,
            "ticks": 5294,
            "time": 18.381915033333332,
            "value": 0
          },
          {
            "number": 64,
            "ticks": 5406,
            "time": 18.770803299999997,
            "value": 1
          },
          {
            "number": 64,
            "ticks": 5757,
            "time": 19.98955135,
            "value": 0
          },
          {
            "number": 64,
            "ticks": 5810,
            "time": 20.17357883333333,
            "value": 1
          },
          {
            "number": 64,
            "ticks": 6250,
            "time": 21.70135416666667,
            "value": 0
          },
          {
            "number": 64,
            "ticks": 6296,
            "time": 21.861076133333334,
            "value": 1
          },
          {
            "number": 64,
            "ticks": 6584,
            "time": 22.861074533333333,
            "value": 0
          },
          {
            "number": 64,
            "ticks": 6632,
            "time": 23.02774093333333,
            "value": 1
          },
          {
            "number": 64,
            "ticks": 6703,
            "time": 23.274268316666667,
            "value": 0
          },
          {
            "number": 64,
            "ticks": 6836,
            "time": 23.736073133333335,
            "value": 1
          },
          {
            "number": 64,
            "ticks": 7198,
            "time": 24.993015566666667,
            "value": 0
          },
          {
            "number": 64,
            "ticks": 7250,
            "time": 25.173570833333333,
            "value": 1
          },
          {
            "number": 64,
            "ticks": 7660,
            "time": 26.597179666666666,
            "value": 0
          },
          {
            "number": 64,
            "ticks": 7723,
            "time": 26.815929316666665,
            "value": 1
          },
          {
            "number": 64,
            "ticks": 8151,
            "time": 28.302038049999997,
            "value": 0
          },
          {
            "number": 64,
            "ticks": 8202,
            "time": 28.479121099999997,
            "value": 1
          },
          {
            "number": 64,
            "ticks": 8624,
            "time": 29.94439653333333,
            "value": 0
          },
          {
            "number": 64,
            "ticks": 8749,
            "time": 30.378423616666666,
            "value": 1
          },
          {
            "number": 64,
            "ticks": 9107,
            "time": 31.621477183333333,
            "value": 0
          },
          {
            "number": 64,
            "ticks": 9161,
            "time": 31.808976883333333,
            "value": 1
          },
          {
            "number": 64,
            "ticks": 9590,
            "time": 33.298557833333334,
            "value": 0
          },
          {
            "number": 64,
            "ticks": 9645,
            "time": 33.489529749999996,
            "value": 1
          },
          {
            "number": 64,
            "ticks": 10057,
            "time": 34.920083016666666,
            "value": 0
          },
          {
            "number": 64,
            "ticks": 10110,
            "time": 35.1041105,
            "value": 1
          },
          {
            "number": 64,
            "ticks": 10464,
            "time": 36.3332752,
            "value": 0
          },
          {
            "number": 64,
            "ticks": 10638,
            "time": 36.9374409,
            "value": 1
          },
          {
            "number": 64,
            "ticks": 11029,
            "time": 38.29507761666667,
            "value": 0
          },
          {
            "number": 64,
            "ticks": 11084,
            "time": 38.48604953333333,
            "value": 1
          },
          {
            "number": 64,
            "ticks": 11515,
            "time": 39.982574916666664,
            "value": 0
          },
          {
            "number": 64,
            "ticks": 11596,
            "time": 40.26382446666667,
            "value": 1
          },
          {
            "number": 64,
            "ticks": 11748,
            "time": 40.7916014,
            "value": 0
          },
          {
            "number": 64,
            "ticks": 11758,
            "time": 40.826323566666666,
            "value": 1
          },
          {
            "number": 64,
            "ticks": 11992,
            "time": 41.638822266666665,
            "value": 0
          },
          {
            "number": 64,
            "ticks": 12030,
            "time": 41.7707665,
            "value": 1
          },
          {
            "number": 64,
            "ticks": 12118,
            "time": 42.076321566666664,
            "value": 0
          },
          {
            "number": 64,
            "ticks": 12155,
            "time": 42.204793583333334,
            "value": 1
          },
          {
            "number": 64,
            "ticks": 12474,
            "time": 43.3124307,
            "value": 0
          },
          {
            "number": 64,
            "ticks": 12523,
            "time": 43.48256931666666,
            "value": 1
          },
          {
            "number": 64,
            "ticks": 12588,
            "time": 43.7082634,
            "value": 0
          },
          {
            "number": 64,
            "ticks": 12600,
            "time": 43.74993,
            "value": 1
          },
          {
            "number": 64,
            "ticks": 12958,
            "time": 44.992983566666666,
            "value": 0
          },
          {
            "number": 64,
            "ticks": 13010,
            "time": 45.17353883333333,
            "value": 1
          },
          {
            "number": 64,
            "ticks": 13431,
            "time": 46.63534205,
            "value": 0
          },
          {
            "number": 64,
            "ticks": 13481,
            "time": 46.80895288333333,
            "value": 1
          },
          {
            "number": 64,
            "ticks": 13562,
            "time": 47.09020243333333,
            "value": 0
          },
          {
            "number": 64,
            "ticks": 13577,
            "time": 47.142285683333334,
            "value": 1
          },
          {
            "number": 64,
            "ticks": 13896,
            "time": 48.24992279999999,
            "value": 0
          },
          {
            "number": 64,
            "ticks": 14001,
            "time": 48.61450555,
            "value": 1
          },
          {
            "number": 64,
            "ticks": 14109,
            "time": 48.98950495,
            "value": 0
          },
          {
            "number": 64,
            "ticks": 16492,
            "time": 57.263797266666664,
            "value": 1
          },
          {
            "number": 64,
            "ticks": 16814,
            "time": 58.381851033333334,
            "value": 0
          },
          {
            "number": 64,
            "ticks": 16926,
            "time": 58.7707393,
            "value": 1
          },
          {
            "number": 64,
            "ticks": 17277,
            "time": 59.98948735,
            "value": 0
          },
          {
            "number": 64,
            "ticks": 17330,
            "time": 60.17351483333333,
            "value": 1
          },
          {
            "number": 64,
            "ticks": 17770,
            "time": 61.701290166666666,
            "value": 0
          },
          {
            "number": 64,
            "ticks": 17816,
            "time": 61.86101213333333,
            "value": 1
          },
          {
            "number": 64,
            "ticks": 18104,
            "time": 62.861010533333335,
            "value": 0
          },
          {
            "number": 64,
            "ticks": 18152,
            "time": 63.02767693333334,
            "value": 1
          },
          {
            "number": 64,
            "ticks": 18223,
            "time": 63.274204316666655,
            "value": 0
          },
          {
            "number": 64,
            "ticks": 18356,
            "time": 63.73600913333333,
            "value": 1
          },
          {
            "number": 64,
            "ticks": 18718,
            "time": 64.99295156666666,
            "value": 0
          },
          {
            "number": 64,
            "ticks": 18770,
            "time": 65.17350683333332,
            "value": 1
          },
          {
            "number": 64,
            "ticks": 19180,
            "time": 66.59711566666667,
            "value": 0
          },
          {
            "number": 64,
            "ticks": 19243,
            "time": 66.81586531666666,
            "value": 1
          },
          {
            "number": 64,
            "ticks": 19671,
            "time": 68.30197405,
            "value": 0
          },
          {
            "number": 64,
            "ticks": 19722,
            "time": 68.47905709999999,
            "value": 1
          },
          {
            "number": 64,
            "ticks": 20144,
            "time": 69.94433253333334,
            "value": 0
          },
          {
            "number": 64,
            "ticks": 20269,
            "time": 70.37835961666666,
            "value": 1
          },
          {
            "number": 64,
            "ticks": 20627,
            "time": 71.62141318333333,
            "value": 0
          },
          {
            "number": 64,
            "ticks": 20681,
            "time": 71.80891288333333,
            "value": 1
          },
          {
            "number": 64,
            "ticks": 21110,
            "time": 73.29849383333332,
            "value": 0
          },
          {
            "number": 64,
            "ticks": 21165,
            "time": 73.48946575,
            "value": 1
          },
          {
            "number": 64,
            "ticks": 21577,
            "time": 74.92001901666667,
            "value": 0
          },
          {
            "number": 64,
            "ticks": 21630,
            "time": 75.1040465,
            "value": 1
          },
          {
            "number": 64,
            "ticks": 21984,
            "time": 76.3332112,
            "value": 0
          },
          {
            "number": 64,
            "ticks": 22085,
            "time": 76.68390508333333,
            "value": 1
          },
          {
            "number": 64,
            "ticks": 22510,
            "time": 78.15959716666667,
            "value": 0
          },
          {
            "number": 64,
            "ticks": 22638,
            "time": 78.6040409,
            "value": 1
          },
          {
            "number": 64,
            "ticks": 23029,
            "time": 79.96167761666666,
            "value": 0
          },
          {
            "number": 64,
            "ticks": 23084,
            "time": 80.15264953333333,
            "value": 1
          },
          {
            "number": 64,
            "ticks": 23515,
            "time": 81.64917491666667,
            "value": 0
          },
          {
            "number": 64,
            "ticks": 23596,
            "time": 81.93042446666666,
            "value": 1
          },
          {
            "number": 64,
            "ticks": 23748,
            "time": 82.4582014,
            "value": 0
          },
          {
            "number": 64,
            "ticks": 23758,
            "time": 82.49292356666666,
            "value": 1
          },
          {
            "number": 64,
            "ticks": 23992,
            "time": 83.30542226666667,
            "value": 0
          },
          {
            "number": 64,
            "ticks": 24030,
            "time": 83.4373665,
            "value": 1
          },
          {
            "number": 64,
            "ticks": 24118,
            "time": 83.74292156666665,
            "value": 0
          },
          {
            "number": 64,
            "ticks": 24155,
            "time": 83.87139358333333,
            "value": 1
          },
          {
            "number": 64,
            "ticks": 24474,
            "time": 84.9790307,
            "value": 0
          },
          {
            "number": 64,
            "ticks": 24523,
            "time": 85.14916931666666,
            "value": 1
          },
          {
            "number": 64,
            "ticks": 24588,
            "time": 85.3748634,
            "value": 0
          },
          {
            "number": 64,
            "ticks": 24600,
            "time": 85.41653,
            "value": 1
          },
          {
            "number": 64,
            "ticks": 24958,
            "time": 86.65958356666665,
            "value": 0
          },
          {
            "number": 64,
            "ticks": 25010,
            "time": 86.84013883333333,
            "value": 1
          },
          {
            "number": 64,
            "ticks": 25431,
            "time": 88.30194205,
            "value": 0
          },
          {
            "number": 64,
            "ticks": 25481,
            "time": 88.47555288333334,
            "value": 1
          },
          {
            "number": 64,
            "ticks": 25562,
            "time": 88.75680243333333,
            "value": 0
          },
          {
            "number": 64,
            "ticks": 25577,
            "time": 88.80888568333333,
            "value": 1
          },
          {
            "number": 64,
            "ticks": 25896,
            "time": 89.9165228,
            "value": 0
          },
          {
            "number": 64,
            "ticks": 26001,
            "time": 90.28110555,
            "value": 1
          },
          {
            "number": 64,
            "ticks": 26109,
            "time": 90.65610494999999,
            "value": 0
          },
          {
            "number": 64,
            "ticks": 26810,
            "time": 93.09012883333332,
            "value": 1
          },
          {
            "number": 64,
            "ticks": 27098,
            "time": 94.09012723333333,
            "value": 0
          },
          {
            "number": 64,
            "ticks": 27181,
            "time": 94.37832121666666,
            "value": 1
          },
          {
            "number": 64,
            "ticks": 27246,
            "time": 94.6040153,
            "value": 0
          },
          {
            "number": 64,
            "ticks": 27295,
            "time": 94.77415391666666,
            "value": 1
          },
          {
            "number": 64,
            "ticks": 27348,
            "time": 94.9581814,
            "value": 0
          },
          {
            "number": 64,
            "ticks": 27988,
            "time": 97.18040006666665,
            "value": 1
          },
          {
            "number": 64,
            "ticks": 28324,
            "time": 98.34706486666666,
            "value": 0
          },
          {
            "number": 64,
            "ticks": 29908,
            "time": 103.84705606666665,
            "value": 1
          },
          {
            "number": 64,
            "ticks": 30244,
            "time": 105.01372086666666,
            "value": 0
          },
          {
            "number": 64,
            "ticks": 31305,
            "time": 108.69774274999999,
            "value": 1
          },
          {
            "number": 64,
            "ticks": 32159,
            "time": 111.66301578333334,
            "value": 0
          },
          {
            "number": 64,
            "ticks": 32227,
            "time": 111.89912651666667,
            "value": 1
          },
          {
            "number": 64,
            "ticks": 32638,
            "time": 113.32620756666667,
            "value": 0
          },
          {
            "number": 64,
            "ticks": 32696,
            "time": 113.52759613333332,
            "value": 1
          },
          {
            "number": 64,
            "ticks": 33117,
            "time": 114.98939935,
            "value": 0
          },
          {
            "number": 64,
            "ticks": 33246,
            "time": 115.4373153,
            "value": 1
          },
          {
            "number": 64,
            "ticks": 33841,
            "time": 117.50328421666666,
            "value": 0
          },
          {
            "number": 64,
            "ticks": 43534,
            "time": 151.15948036666668,
            "value": 1
          },
          {
            "number": 64,
            "ticks": 43644,
            "time": 151.5414242,
            "value": 0
          },
          {
            "number": 64,
            "ticks": 46372,
            "time": 161.01363126666666,
            "value": 1
          },
          {
            "number": 64,
            "ticks": 46571,
            "time": 161.7046023833333,
            "value": 0
          },
          {
            "number": 64,
            "ticks": 46748,
            "time": 162.31918473333332,
            "value": 1
          },
          {
            "number": 64,
            "ticks": 47040,
            "time": 163.333072,
            "value": 0
          },
          {
            "number": 64,
            "ticks": 47158,
            "time": 163.74279356666668,
            "value": 1
          },
          {
            "number": 64,
            "ticks": 47519,
            "time": 164.99626378333332,
            "value": 0
          },
          {
            "number": 64,
            "ticks": 47635,
            "time": 165.39904091666665,
            "value": 1
          },
          {
            "number": 64,
            "ticks": 47980,
            "time": 166.59695566666664,
            "value": 0
          },
          {
            "number": 64,
            "ticks": 48292,
            "time": 167.68028726666665,
            "value": 1
          },
          {
            "number": 64,
            "ticks": 48491,
            "time": 168.37125838333333,
            "value": 0
          },
          {
            "number": 64,
            "ticks": 48668,
            "time": 168.98584073333333,
            "value": 1
          },
          {
            "number": 64,
            "ticks": 48960,
            "time": 169.999728,
            "value": 0
          },
          {
            "number": 64,
            "ticks": 49078,
            "time": 170.40944956666667,
            "value": 1
          },
          {
            "number": 64,
            "ticks": 49439,
            "time": 171.66291978333334,
            "value": 0
          },
          {
            "number": 64,
            "ticks": 49555,
            "time": 172.06569691666664,
            "value": 1
          },
          {
            "number": 64,
            "ticks": 49900,
            "time": 173.26361166666666,
            "value": 0
          },
          {
            "number": 64,
            "ticks": 49984,
            "time": 173.55527786666667,
            "value": 1
          },
          {
            "number": 64,
            "ticks": 50388,
            "time": 174.95805339999998,
            "value": 0
          },
          {
            "number": 64,
            "ticks": 50441,
            "time": 175.1420808833333,
            "value": 1
          },
          {
            "number": 64,
            "ticks": 50870,
            "time": 176.63166183333334,
            "value": 0
          },
          {
            "number": 64,
            "ticks": 50921,
            "time": 176.8087448833333,
            "value": 1
          },
          {
            "number": 64,
            "ticks": 51339,
            "time": 178.26013145,
            "value": 0
          },
          {
            "number": 64,
            "ticks": 51383,
            "time": 178.41290898333332,
            "value": 1
          },
          {
            "number": 64,
            "ticks": 51822,
            "time": 179.9372121,
            "value": 0
          },
          {
            "number": 64,
            "ticks": 51893,
            "time": 180.1837394833333,
            "value": 1
          },
          {
            "number": 64,
            "ticks": 52312,
            "time": 181.63859826666666,
            "value": 0
          },
          {
            "number": 64,
            "ticks": 52367,
            "time": 181.82957018333332,
            "value": 1
          },
          {
            "number": 64,
            "ticks": 52784,
            "time": 183.27748453333334,
            "value": 0
          },
          {
            "number": 64,
            "ticks": 52842,
            "time": 183.4788731,
            "value": 1
          },
          {
            "number": 64,
            "ticks": 53272,
            "time": 184.97192626666666,
            "value": 0
          },
          {
            "number": 64,
            "ticks": 53325,
            "time": 185.15595374999998,
            "value": 1
          },
          {
            "number": 64,
            "ticks": 53700,
            "time": 186.458035,
            "value": 0
          },
          {
            "number": 64,
            "ticks": 54052,
            "time": 187.68025526666665,
            "value": 1
          },
          {
            "number": 64,
            "ticks": 54251,
            "time": 188.37122638333332,
            "value": 0
          },
          {
            "number": 64,
            "ticks": 54428,
            "time": 188.98580873333333,
            "value": 1
          },
          {
            "number": 64,
            "ticks": 54720,
            "time": 189.999696,
            "value": 0
          },
          {
            "number": 64,
            "ticks": 54838,
            "time": 190.40941756666666,
            "value": 1
          },
          {
            "number": 64,
            "ticks": 55199,
            "time": 191.66288778333333,
            "value": 0
          },
          {
            "number": 64,
            "ticks": 55315,
            "time": 192.06566491666666,
            "value": 1
          },
          {
            "number": 64,
            "ticks": 55660,
            "time": 193.26357966666666,
            "value": 0
          },
          {
            "number": 64,
            "ticks": 55732,
            "time": 193.51357926666665,
            "value": 1
          },
          {
            "number": 64,
            "ticks": 56173,
            "time": 195.04482681666667,
            "value": 0
          },
          {
            "number": 64,
            "ticks": 56231,
            "time": 195.24621538333332,
            "value": 1
          },
          {
            "number": 64,
            "ticks": 56639,
            "time": 196.66287978333332,
            "value": 0
          },
          {
            "number": 64,
            "ticks": 56700,
            "time": 196.874685,
            "value": 1
          },
          {
            "number": 64,
            "ticks": 57047,
            "time": 198.07954418333333,
            "value": 0
          }
        ]
      },
      "pitchBends": [],
      "instrument": {
        "family": "guitar",
        "number": 30,
        "name": "distortion guitar"
      },
      "name": "",
      "notes": [
        {
          "duration": 1.7326361166666668,
          "durationTicks": 499,
          "midi": 57,
          "name": "A3",
          "ticks": 960,
          "time": 3.333328,
          "velocity": 0.7716535433070866
        },
        {
          "duration": 1.746524983333333,
          "durationTicks": 503,
          "midi": 62,
          "name": "D4",
          "ticks": 960,
          "time": 3.333328,
          "velocity": 0.889763779527559
        },
        {
          "duration": 1.7256916833333333,
          "durationTicks": 497,
          "midi": 50,
          "name": "D3",
          "ticks": 960,
          "time": 3.333328,
          "velocity": 0.84251968503937
        },
        {
          "duration": 0.2986106333333334,
          "durationTicks": 86,
          "midi": 67,
          "name": "G4",
          "ticks": 1680,
          "time": 5.833323999999999,
          "velocity": 0.889763779527559
        },
        {
          "duration": 0.3159717166666667,
          "durationTicks": 91,
          "midi": 55,
          "name": "G3",
          "ticks": 1680,
          "time": 5.833323999999999,
          "velocity": 0.84251968503937
        },
        {
          "duration": 0.3055550666666669,
          "durationTicks": 88,
          "midi": 62,
          "name": "D4",
          "ticks": 1680,
          "time": 5.833323999999999,
          "velocity": 0.8031496062992126
        },
        {
          "duration": 0.17361083333333305,
          "durationTicks": 50,
          "midi": 53,
          "name": "F3",
          "ticks": 1800,
          "time": 6.2499899999999995,
          "velocity": 0.8031496062992126
        },
        {
          "duration": 0.20138856666666616,
          "durationTicks": 58,
          "midi": 65,
          "name": "F4",
          "ticks": 1800,
          "time": 6.2499899999999995,
          "velocity": 0.7716535433070866
        },
        {
          "duration": 0.22222186666666666,
          "durationTicks": 64,
          "midi": 60,
          "name": "C4",
          "ticks": 1800,
          "time": 6.2499899999999995,
          "velocity": 0.7322834645669292
        },
        {
          "duration": 2.1805520666666673,
          "durationTicks": 628,
          "midi": 57,
          "name": "A3",
          "ticks": 1920,
          "time": 6.666656,
          "velocity": 0.7322834645669292
        },
        {
          "duration": 2.1701354166666658,
          "durationTicks": 625,
          "midi": 62,
          "name": "D4",
          "ticks": 1920,
          "time": 6.666656,
          "velocity": 0.84251968503937
        },
        {
          "duration": 2.159718766666666,
          "durationTicks": 622,
          "midi": 50,
          "name": "D3",
          "ticks": 1920,
          "time": 6.666656,
          "velocity": 0.7322834645669292
        },
        {
          "duration": 0.23263851666666646,
          "durationTicks": 67,
          "midi": 60,
          "name": "C4",
          "ticks": 2640,
          "time": 9.166652,
          "velocity": 0.7322834645669292
        },
        {
          "duration": 0.21874964999999946,
          "durationTicks": 63,
          "midi": 65,
          "name": "F4",
          "ticks": 2640,
          "time": 9.166652,
          "velocity": 0.7322834645669292
        },
        {
          "duration": 0.23611073333333366,
          "durationTicks": 68,
          "midi": 53,
          "name": "F3",
          "ticks": 2640,
          "time": 9.166652,
          "velocity": 0.84251968503937
        },
        {
          "duration": 0.3124994999999995,
          "durationTicks": 90,
          "midi": 60,
          "name": "C4",
          "ticks": 2760,
          "time": 9.583318,
          "velocity": 0.84251968503937
        },
        {
          "duration": 0.3090272833333323,
          "durationTicks": 89,
          "midi": 55,
          "name": "G3",
          "ticks": 2760,
          "time": 9.583318,
          "velocity": 0.7716535433070866
        },
        {
          "duration": 0.3541661000000005,
          "durationTicks": 102,
          "midi": 48,
          "name": "C3",
          "ticks": 2760,
          "time": 9.583318,
          "velocity": 0.5984251968503937
        },
        {
          "duration": 0.10069428333333441,
          "durationTicks": 29,
          "midi": 48,
          "name": "C3",
          "ticks": 2880,
          "time": 9.999984,
          "velocity": 0.84251968503937
        },
        {
          "duration": 0.10069428333333441,
          "durationTicks": 29,
          "midi": 60,
          "name": "C4",
          "ticks": 2880,
          "time": 9.999984,
          "velocity": 0.84251968503937
        },
        {
          "duration": 0.06249990000000061,
          "durationTicks": 18,
          "midi": 50,
          "name": "D3",
          "ticks": 2920,
          "time": 10.138872666666666,
          "velocity": 0.84251968503937
        },
        {
          "duration": 0.06249990000000061,
          "durationTicks": 18,
          "midi": 62,
          "name": "D4",
          "ticks": 2920,
          "time": 10.138872666666666,
          "velocity": 0.84251968503937
        },
        {
          "duration": 0.07291654999999864,
          "durationTicks": 21,
          "midi": 50,
          "name": "D3",
          "ticks": 2960,
          "time": 10.277761333333334,
          "velocity": 0.84251968503937
        },
        {
          "duration": 0.07291654999999864,
          "durationTicks": 21,
          "midi": 62,
          "name": "D4",
          "ticks": 2960,
          "time": 10.277761333333334,
          "velocity": 0.84251968503937
        },
        {
          "duration": 0.3993049166666669,
          "durationTicks": 115,
          "midi": 50,
          "name": "D3",
          "ticks": 3000,
          "time": 10.416649999999999,
          "velocity": 0.889763779527559
        },
        {
          "duration": 0.3993049166666669,
          "durationTicks": 115,
          "midi": 62,
          "name": "D4",
          "ticks": 3000,
          "time": 10.416649999999999,
          "velocity": 0.889763779527559
        },
        {
          "duration": 0.13888866666666644,
          "durationTicks": 40,
          "midi": 48,
          "name": "C3",
          "ticks": 3120,
          "time": 10.833316,
          "velocity": 0.8031496062992126
        },
        {
          "duration": 0.13888866666666644,
          "durationTicks": 40,
          "midi": 60,
          "name": "C4",
          "ticks": 3120,
          "time": 10.833316,
          "velocity": 0.8031496062992126
        },
        {
          "duration": 0.08333320000000022,
          "durationTicks": 24,
          "midi": 50,
          "name": "D3",
          "ticks": 3160,
          "time": 10.972204666666666,
          "velocity": 0.8031496062992126
        },
        {
          "duration": 0.08333320000000022,
          "durationTicks": 24,
          "midi": 62,
          "name": "D4",
          "ticks": 3160,
          "time": 10.972204666666666,
          "velocity": 0.8031496062992126
        },
        {
          "duration": 0.09722206666666544,
          "durationTicks": 28,
          "midi": 50,
          "name": "D3",
          "ticks": 3200,
          "time": 11.111093333333333,
          "velocity": 0.84251968503937
        },
        {
          "duration": 0.09722206666666544,
          "durationTicks": 28,
          "midi": 62,
          "name": "D4",
          "ticks": 3200,
          "time": 11.111093333333333,
          "velocity": 0.84251968503937
        },
        {
          "duration": 0.3715271833333329,
          "durationTicks": 107,
          "midi": 50,
          "name": "D3",
          "ticks": 3240,
          "time": 11.249982,
          "velocity": 0.84251968503937
        },
        {
          "duration": 0.3715271833333329,
          "durationTicks": 107,
          "midi": 62,
          "name": "D4",
          "ticks": 3240,
          "time": 11.249982,
          "velocity": 0.84251968503937
        },
        {
          "duration": 0.12499980000000122,
          "durationTicks": 36,
          "midi": 48,
          "name": "C3",
          "ticks": 3360,
          "time": 11.666647999999999,
          "velocity": 0.8031496062992126
        },
        {
          "duration": 0.12499980000000122,
          "durationTicks": 36,
          "midi": 60,
          "name": "C4",
          "ticks": 3360,
          "time": 11.666647999999999,
          "velocity": 0.8031496062992126
        },
        {
          "duration": 0.062499900000002384,
          "durationTicks": 18,
          "midi": 50,
          "name": "D3",
          "ticks": 3400,
          "time": 11.805536666666665,
          "velocity": 0.8031496062992126
        },
        {
          "duration": 0.062499900000002384,
          "durationTicks": 18,
          "midi": 62,
          "name": "D4",
          "ticks": 3400,
          "time": 11.805536666666665,
          "velocity": 0.8031496062992126
        },
        {
          "duration": 0.0763887666666676,
          "durationTicks": 22,
          "midi": 50,
          "name": "D3",
          "ticks": 3440,
          "time": 11.944425333333333,
          "velocity": 0.7716535433070866
        },
        {
          "duration": 0.0763887666666676,
          "durationTicks": 22,
          "midi": 62,
          "name": "D4",
          "ticks": 3440,
          "time": 11.944425333333333,
          "velocity": 0.7716535433070866
        },
        {
          "duration": 0.2638884666666659,
          "durationTicks": 76,
          "midi": 50,
          "name": "D3",
          "ticks": 3480,
          "time": 12.083314,
          "velocity": 0.84251968503937
        },
        {
          "duration": 0.2638884666666659,
          "durationTicks": 76,
          "midi": 62,
          "name": "D4",
          "ticks": 3480,
          "time": 12.083314,
          "velocity": 0.84251968503937
        },
        {
          "duration": 0.10069428333333441,
          "durationTicks": 29,
          "midi": 48,
          "name": "C3",
          "ticks": 3560,
          "time": 12.361091333333333,
          "velocity": 0.7716535433070866
        },
        {
          "duration": 0.10069428333333441,
          "durationTicks": 29,
          "midi": 60,
          "name": "C4",
          "ticks": 3560,
          "time": 12.361091333333333,
          "velocity": 0.7716535433070866
        },
        {
          "duration": 0.4270826499999991,
          "durationTicks": 123,
          "midi": 71,
          "name": "B4",
          "ticks": 3600,
          "time": 12.499979999999999,
          "velocity": 0.84251968503937
        },
        {
          "duration": 0.3298605833333337,
          "durationTicks": 95,
          "midi": 55,
          "name": "G3",
          "ticks": 3600,
          "time": 12.499979999999999,
          "velocity": 0.937007874015748
        },
        {
          "duration": 0.3298605833333337,
          "durationTicks": 95,
          "midi": 67,
          "name": "G4",
          "ticks": 3600,
          "time": 12.499979999999999,
          "velocity": 0.937007874015748
        },
        {
          "duration": 0.3958326999999997,
          "durationTicks": 114,
          "midi": 69,
          "name": "A4",
          "ticks": 3720,
          "time": 12.916646,
          "velocity": 0.84251968503937
        },
        {
          "duration": 0.3715271833333329,
          "durationTicks": 107,
          "midi": 53,
          "name": "F3",
          "ticks": 3720,
          "time": 12.916646,
          "velocity": 0.889763779527559
        },
        {
          "duration": 0.3715271833333329,
          "durationTicks": 107,
          "midi": 65,
          "name": "F4",
          "ticks": 3720,
          "time": 12.916646,
          "velocity": 0.889763779527559
        },
        {
          "duration": 0.0902776333333346,
          "durationTicks": 26,
          "midi": 48,
          "name": "C3",
          "ticks": 3840,
          "time": 13.333312,
          "velocity": 0.84251968503937
        },
        {
          "duration": 0.0902776333333346,
          "durationTicks": 26,
          "midi": 60,
          "name": "C4",
          "ticks": 3840,
          "time": 13.333312,
          "velocity": 0.84251968503937
        },
        {
          "duration": 0.07291654999999864,
          "durationTicks": 21,
          "midi": 50,
          "name": "D3",
          "ticks": 3880,
          "time": 13.472200666666668,
          "velocity": 0.889763779527559
        },
        {
          "duration": 0.07291654999999864,
          "durationTicks": 21,
          "midi": 62,
          "name": "D4",
          "ticks": 3880,
          "time": 13.472200666666668,
          "velocity": 0.889763779527559
        },
        {
          "duration": 0.08333320000000022,
          "durationTicks": 24,
          "midi": 50,
          "name": "D3",
          "ticks": 3920,
          "time": 13.611089333333332,
          "velocity": 0.84251968503937
        },
        {
          "duration": 0.08333320000000022,
          "durationTicks": 24,
          "midi": 62,
          "name": "D4",
          "ticks": 3920,
          "time": 13.611089333333332,
          "velocity": 0.84251968503937
        },
        {
          "duration": 0.3749994000000001,
          "durationTicks": 108,
          "midi": 50,
          "name": "D3",
          "ticks": 3960,
          "time": 13.749977999999999,
          "velocity": 0.889763779527559
        },
        {
          "duration": 0.3749994000000001,
          "durationTicks": 108,
          "midi": 62,
          "name": "D4",
          "ticks": 3960,
          "time": 13.749977999999999,
          "velocity": 0.889763779527559
        },
        {
          "duration": 0.11111093333333244,
          "durationTicks": 32,
          "midi": 48,
          "name": "C3",
          "ticks": 4080,
          "time": 14.166644,
          "velocity": 0.7322834645669292
        },
        {
          "duration": 0.11111093333333244,
          "durationTicks": 32,
          "midi": 60,
          "name": "C4",
          "ticks": 4080,
          "time": 14.166644,
          "velocity": 0.7322834645669292
        },
        {
          "duration": 0.07291655000000041,
          "durationTicks": 21,
          "midi": 50,
          "name": "D3",
          "ticks": 4120,
          "time": 14.305532666666666,
          "velocity": 0.7716535433070866
        },
        {
          "duration": 0.07291655000000041,
          "durationTicks": 21,
          "midi": 62,
          "name": "D4",
          "ticks": 4120,
          "time": 14.305532666666666,
          "velocity": 0.7716535433070866
        },
        {
          "duration": 0.083333200000002,
          "durationTicks": 24,
          "midi": 50,
          "name": "D3",
          "ticks": 4160,
          "time": 14.444421333333331,
          "velocity": 0.7007874015748031
        },
        {
          "duration": 0.083333200000002,
          "durationTicks": 24,
          "midi": 62,
          "name": "D4",
          "ticks": 4160,
          "time": 14.444421333333331,
          "velocity": 0.7007874015748031
        },
        {
          "duration": 0.3923604833333343,
          "durationTicks": 113,
          "midi": 50,
          "name": "D3",
          "ticks": 4200,
          "time": 14.583309999999999,
          "velocity": 0.889763779527559
        },
        {
          "duration": 0.3923604833333343,
          "durationTicks": 113,
          "midi": 62,
          "name": "D4",
          "ticks": 4200,
          "time": 14.583309999999999,
          "velocity": 0.889763779527559
        },
        {
          "duration": 0.12499979999999766,
          "durationTicks": 36,
          "midi": 48,
          "name": "C3",
          "ticks": 4320,
          "time": 14.999976,
          "velocity": 0.7322834645669292
        },
        {
          "duration": 0.12499979999999766,
          "durationTicks": 36,
          "midi": 60,
          "name": "C4",
          "ticks": 4320,
          "time": 14.999976,
          "velocity": 0.7322834645669292
        },
        {
          "duration": 0.07986098333333125,
          "durationTicks": 23,
          "midi": 50,
          "name": "D3",
          "ticks": 4360,
          "time": 15.138864666666667,
          "velocity": 0.7322834645669292
        },
        {
          "duration": 0.07986098333333125,
          "durationTicks": 23,
          "midi": 62,
          "name": "D4",
          "ticks": 4360,
          "time": 15.138864666666667,
          "velocity": 0.7322834645669292
        },
        {
          "duration": 0.08680541666666741,
          "durationTicks": 25,
          "midi": 50,
          "name": "D3",
          "ticks": 4400,
          "time": 15.277753333333331,
          "velocity": 0.84251968503937
        },
        {
          "duration": 0.08680541666666741,
          "durationTicks": 25,
          "midi": 62,
          "name": "D4",
          "ticks": 4400,
          "time": 15.277753333333331,
          "velocity": 0.84251968503937
        },
        {
          "duration": 0.2708328999999985,
          "durationTicks": 78,
          "midi": 50,
          "name": "D3",
          "ticks": 4440,
          "time": 15.416642,
          "velocity": 0.84251968503937
        },
        {
          "duration": 0.2708328999999985,
          "durationTicks": 78,
          "midi": 62,
          "name": "D4",
          "ticks": 4440,
          "time": 15.416642,
          "velocity": 0.84251968503937
        },
        {
          "duration": 0.11111093333333244,
          "durationTicks": 32,
          "midi": 48,
          "name": "C3",
          "ticks": 4520,
          "time": 15.694419333333332,
          "velocity": 0.84251968503937
        },
        {
          "duration": 0.11111093333333244,
          "durationTicks": 32,
          "midi": 60,
          "name": "C4",
          "ticks": 4520,
          "time": 15.694419333333332,
          "velocity": 0.84251968503937
        },
        {
          "duration": 0.4062493499999995,
          "durationTicks": 117,
          "midi": 69,
          "name": "A4",
          "ticks": 4560,
          "time": 15.833307999999999,
          "velocity": 0.8031496062992126
        },
        {
          "duration": 0.3680549666666657,
          "durationTicks": 106,
          "midi": 53,
          "name": "F3",
          "ticks": 4560,
          "time": 15.833307999999999,
          "velocity": 0.889763779527559
        },
        {
          "duration": 0.3680549666666657,
          "durationTicks": 106,
          "midi": 65,
          "name": "F4",
          "ticks": 4560,
          "time": 15.833307999999999,
          "velocity": 0.889763779527559
        },
        {
          "duration": 0.2777773333333329,
          "durationTicks": 80,
          "midi": 72,
          "name": "C5",
          "ticks": 4680,
          "time": 16.249973999999998,
          "velocity": 0.8031496062992126
        },
        {
          "duration": 0.24305516666666804,
          "durationTicks": 70,
          "midi": 52,
          "name": "E3",
          "ticks": 4680,
          "time": 16.249973999999998,
          "velocity": 0.889763779527559
        },
        {
          "duration": 0.24305516666666804,
          "durationTicks": 70,
          "midi": 64,
          "name": "E4",
          "ticks": 4680,
          "time": 16.249973999999998,
          "velocity": 0.889763779527559
        },
        {
          "duration": 1.052081649999998,
          "durationTicks": 303,
          "midi": 57,
          "name": "A3",
          "ticks": 4800,
          "time": 16.66664,
          "velocity": 0.7007874015748031
        },
        {
          "duration": 1.027776133333333,
          "durationTicks": 296,
          "midi": 50,
          "name": "D3",
          "ticks": 4800,
          "time": 16.66664,
          "velocity": 0.7007874015748031
        },
        {
          "duration": 0.07638876666666405,
          "durationTicks": 22,
          "midi": 50,
          "name": "D3",
          "ticks": 5160,
          "time": 17.916638,
          "velocity": 0.4881889763779528
        },
        {
          "duration": 0.09722206666666722,
          "durationTicks": 28,
          "midi": 57,
          "name": "A3",
          "ticks": 5160,
          "time": 17.916638,
          "velocity": 0.6299212598425197
        },
        {
          "duration": 1.1562481499999997,
          "durationTicks": 333,
          "midi": 50,
          "name": "D3",
          "ticks": 5280,
          "time": 18.333304,
          "velocity": 0.4881889763779528
        },
        {
          "duration": 1.170137016666665,
          "durationTicks": 337,
          "midi": 57,
          "name": "A3",
          "ticks": 5280,
          "time": 18.333304,
          "velocity": 0.5984251968503937
        },
        {
          "duration": 0.11805536666666683,
          "durationTicks": 34,
          "midi": 57,
          "name": "A3",
          "ticks": 5640,
          "time": 19.583302,
          "velocity": 0.5984251968503937
        },
        {
          "duration": 0.1319442333333356,
          "durationTicks": 38,
          "midi": 50,
          "name": "D3",
          "ticks": 5640,
          "time": 19.583302,
          "velocity": 0.5984251968503937
        },
        {
          "duration": 1.1145815500000005,
          "durationTicks": 321,
          "midi": 53,
          "name": "F3",
          "ticks": 5760,
          "time": 19.999968,
          "velocity": 0.7007874015748031
        },
        {
          "duration": 1.1284704166666693,
          "durationTicks": 325,
          "midi": 46,
          "name": "A#2",
          "ticks": 5760,
          "time": 19.999968,
          "velocity": 0.5984251968503937
        },
        {
          "duration": 0.11805536666666328,
          "durationTicks": 34,
          "midi": 53,
          "name": "F3",
          "ticks": 6120,
          "time": 21.249966,
          "velocity": 0.5984251968503937
        },
        {
          "duration": 0.08680541666666741,
          "durationTicks": 25,
          "midi": 46,
          "name": "A#2",
          "ticks": 6120,
          "time": 21.249966,
          "velocity": 0.6299212598425197
        },
        {
          "duration": 0.6354156499999988,
          "durationTicks": 183,
          "midi": 53,
          "name": "F3",
          "ticks": 6240,
          "time": 21.666632,
          "velocity": 0.6692913385826772
        },
        {
          "duration": 0.6076379166666683,
          "durationTicks": 175,
          "midi": 46,
          "name": "A#2",
          "ticks": 6240,
          "time": 21.666632,
          "velocity": 0.6692913385826772
        },
        {
          "duration": 0.12499979999999766,
          "durationTicks": 36,
          "midi": 53,
          "name": "F3",
          "ticks": 6480,
          "time": 22.499964,
          "velocity": 0.7716535433070866
        },
        {
          "duration": 0.10069428333333263,
          "durationTicks": 29,
          "midi": 46,
          "name": "A#2",
          "ticks": 6480,
          "time": 22.499964,
          "velocity": 0.7322834645669292
        },
        {
          "duration": 0.24999960000000243,
          "durationTicks": 72,
          "midi": 48,
          "name": "C3",
          "ticks": 6600,
          "time": 22.916629999999998,
          "velocity": 0.7716535433070866
        },
        {
          "duration": 0.24999960000000243,
          "durationTicks": 72,
          "midi": 55,
          "name": "G3",
          "ticks": 6600,
          "time": 22.916629999999998,
          "velocity": 0.84251968503937
        },
        {
          "duration": 1.468747650000001,
          "durationTicks": 423,
          "midi": 50,
          "name": "D3",
          "ticks": 6720,
          "time": 23.333295999999997,
          "velocity": 0.7322834645669292
        },
        {
          "duration": 1.496525383333335,
          "durationTicks": 431,
          "midi": 57,
          "name": "A3",
          "ticks": 6720,
          "time": 23.333295999999997,
          "velocity": 0.7322834645669292
        },
        {
          "duration": 1.0902760333333354,
          "durationTicks": 314,
          "midi": 50,
          "name": "D3",
          "ticks": 7200,
          "time": 24.999959999999998,
          "velocity": 0.5354330708661418
        },
        {
          "duration": 1.1423592833333345,
          "durationTicks": 329,
          "midi": 57,
          "name": "A3",
          "ticks": 7200,
          "time": 24.999959999999998,
          "velocity": 0.6692913385826772
        },
        {
          "duration": 0.12152758333333225,
          "durationTicks": 35,
          "midi": 57,
          "name": "A3",
          "ticks": 7560,
          "time": 26.249958,
          "velocity": 0.7007874015748031
        },
        {
          "duration": 0.10763871666666702,
          "durationTicks": 31,
          "midi": 50,
          "name": "D3",
          "ticks": 7560,
          "time": 26.249958,
          "velocity": 0.6692913385826772
        },
        {
          "duration": 1.4895809500000006,
          "durationTicks": 429,
          "midi": 53,
          "name": "F3",
          "ticks": 7680,
          "time": 26.666624,
          "velocity": 0.7322834645669292
        },
        {
          "duration": 1.4722198666666664,
          "durationTicks": 424,
          "midi": 46,
          "name": "A#2",
          "ticks": 7680,
          "time": 26.666624,
          "velocity": 0.7007874015748031
        },
        {
          "duration": 0.6388878666666642,
          "durationTicks": 184,
          "midi": 46,
          "name": "A#2",
          "ticks": 8160,
          "time": 28.333288,
          "velocity": 0.5669291338582677
        },
        {
          "duration": 0.6840266833333324,
          "durationTicks": 197,
          "midi": 53,
          "name": "F3",
          "ticks": 8160,
          "time": 28.333288,
          "velocity": 0.6299212598425197
        },
        {
          "duration": 0.1423608833333354,
          "durationTicks": 41,
          "midi": 46,
          "name": "A#2",
          "ticks": 8400,
          "time": 29.166619999999998,
          "velocity": 0.84251968503937
        },
        {
          "duration": 0.2812495499999983,
          "durationTicks": 81,
          "midi": 53,
          "name": "F3",
          "ticks": 8400,
          "time": 29.166619999999998,
          "velocity": 0.8031496062992126
        },
        {
          "duration": 0.1423608833333354,
          "durationTicks": 41,
          "midi": 53,
          "name": "F3",
          "ticks": 8520,
          "time": 29.583285999999998,
          "velocity": 0.84251968503937
        },
        {
          "duration": 1.4861087333333316,
          "durationTicks": 428,
          "midi": 43,
          "name": "G2",
          "ticks": 8640,
          "time": 29.999952,
          "velocity": 0.7716535433070866
        },
        {
          "duration": 1.4791642999999972,
          "durationTicks": 426,
          "midi": 50,
          "name": "D3",
          "ticks": 8640,
          "time": 29.999952,
          "velocity": 0.889763779527559
        },
        {
          "duration": 1.409719966666671,
          "durationTicks": 406,
          "midi": 45,
          "name": "A2",
          "ticks": 9120,
          "time": 31.666615999999998,
          "velocity": 0.7322834645669292
        },
        {
          "duration": 1.4548587833333286,
          "durationTicks": 419,
          "midi": 52,
          "name": "E3",
          "ticks": 9120,
          "time": 31.666615999999998,
          "velocity": 0.7322834645669292
        },
        {
          "duration": 1.4201366166666602,
          "durationTicks": 409,
          "midi": 43,
          "name": "G2",
          "ticks": 9600,
          "time": 33.33328,
          "velocity": 0.8031496062992126
        },
        {
          "duration": 1.4409699166666599,
          "durationTicks": 415,
          "midi": 50,
          "name": "D3",
          "ticks": 9600,
          "time": 33.33328,
          "velocity": 0.84251968503937
        },
        {
          "duration": 0.3229161500000046,
          "durationTicks": 93,
          "midi": 52,
          "name": "E3",
          "ticks": 10080,
          "time": 34.999944,
          "velocity": 0.7716535433070866
        },
        {
          "duration": 0.3194439333333321,
          "durationTicks": 92,
          "midi": 45,
          "name": "A2",
          "ticks": 10080,
          "time": 34.999944,
          "velocity": 0.7322834645669292
        },
        {
          "duration": 0.23611073333333366,
          "durationTicks": 68,
          "midi": 45,
          "name": "A2",
          "ticks": 10200,
          "time": 35.41661,
          "velocity": 0.7007874015748031
        },
        {
          "duration": 0.27083290000000204,
          "durationTicks": 78,
          "midi": 52,
          "name": "E3",
          "ticks": 10200,
          "time": 35.41661,
          "velocity": 0.7007874015748031
        },
        {
          "duration": 0.2847217666666708,
          "durationTicks": 82,
          "midi": 45,
          "name": "A2",
          "ticks": 10320,
          "time": 35.833276,
          "velocity": 0.7716535433070866
        },
        {
          "duration": 0.29513841666666707,
          "durationTicks": 85,
          "midi": 52,
          "name": "E3",
          "ticks": 10320,
          "time": 35.833276,
          "velocity": 0.7322834645669292
        },
        {
          "duration": 0.23263851666666824,
          "durationTicks": 67,
          "midi": 45,
          "name": "A2",
          "ticks": 10440,
          "time": 36.249942,
          "velocity": 0.7716535433070866
        },
        {
          "duration": 0.22916630000000282,
          "durationTicks": 66,
          "midi": 52,
          "name": "E3",
          "ticks": 10440,
          "time": 36.249942,
          "velocity": 0.7007874015748031
        },
        {
          "duration": 0.32986058333333546,
          "durationTicks": 95,
          "midi": 57,
          "name": "A3",
          "ticks": 10560,
          "time": 36.666608,
          "velocity": 0.7007874015748031
        },
        {
          "duration": 0.32986058333333546,
          "durationTicks": 95,
          "midi": 50,
          "name": "D3",
          "ticks": 10560,
          "time": 36.666608,
          "velocity": 0.7716535433070866
        },
        {
          "duration": 0.10416650000000516,
          "durationTicks": 30,
          "midi": 50,
          "name": "D3",
          "ticks": 10680,
          "time": 37.083273999999996,
          "velocity": 0.7007874015748031
        },
        {
          "duration": 0.10416650000000516,
          "durationTicks": 30,
          "midi": 57,
          "name": "A3",
          "ticks": 10680,
          "time": 37.083273999999996,
          "velocity": 0.6299212598425197
        },
        {
          "duration": 0.44097151666666434,
          "durationTicks": 127,
          "midi": 41,
          "name": "F2",
          "ticks": 11040,
          "time": 38.333272,
          "velocity": 0.7322834645669292
        },
        {
          "duration": 0.11111093333332889,
          "durationTicks": 32,
          "midi": 53,
          "name": "F3",
          "ticks": 11160,
          "time": 38.749938,
          "velocity": 0.7007874015748031
        },
        {
          "duration": 0.13541645000000102,
          "durationTicks": 39,
          "midi": 57,
          "name": "A3",
          "ticks": 11160,
          "time": 38.749938,
          "velocity": 0.8031496062992126
        },
        {
          "duration": 0.10763871666667058,
          "durationTicks": 31,
          "midi": 53,
          "name": "F3",
          "ticks": 11400,
          "time": 39.58327,
          "velocity": 0.7322834645669292
        },
        {
          "duration": 0.09722206666666722,
          "durationTicks": 28,
          "midi": 41,
          "name": "F2",
          "ticks": 11400,
          "time": 39.58327,
          "velocity": 0.7322834645669292
        },
        {
          "duration": 0.36458274999999674,
          "durationTicks": 105,
          "midi": 43,
          "name": "G2",
          "ticks": 11520,
          "time": 39.999936,
          "velocity": 0.8031496062992126
        },
        {
          "duration": 0.13888866666666644,
          "durationTicks": 40,
          "midi": 43,
          "name": "G2",
          "ticks": 11640,
          "time": 40.416602,
          "velocity": 0.7322834645669292
        },
        {
          "duration": 0.1527775333333281,
          "durationTicks": 44,
          "midi": 55,
          "name": "G3",
          "ticks": 11640,
          "time": 40.416602,
          "velocity": 0.6299212598425197
        },
        {
          "duration": 0.16319418333333147,
          "durationTicks": 47,
          "midi": 59,
          "name": "B3",
          "ticks": 11640,
          "time": 40.416602,
          "velocity": 0.7322834645669292
        },
        {
          "duration": 0.25694403333333327,
          "durationTicks": 74,
          "midi": 55,
          "name": "G3",
          "ticks": 11760,
          "time": 40.833268,
          "velocity": 0.7007874015748031
        },
        {
          "duration": 0.11111093333333599,
          "durationTicks": 32,
          "midi": 55,
          "name": "G3",
          "ticks": 11880,
          "time": 41.249933999999996,
          "velocity": 0.6692913385826772
        },
        {
          "duration": 0.09722206666666722,
          "durationTicks": 28,
          "midi": 43,
          "name": "G2",
          "ticks": 11880,
          "time": 41.249933999999996,
          "velocity": 0.7716535433070866
        },
        {
          "duration": 0.18055526666666566,
          "durationTicks": 52,
          "midi": 46,
          "name": "A#2",
          "ticks": 12040,
          "time": 41.80548866666666,
          "velocity": 0.5039370078740157
        },
        {
          "duration": 0.3368050166666734,
          "durationTicks": 97,
          "midi": 58,
          "name": "A#3",
          "ticks": 12120,
          "time": 42.083265999999995,
          "velocity": 0.5984251968503937
        },
        {
          "duration": 0.3333328000000009,
          "durationTicks": 96,
          "midi": 53,
          "name": "F3",
          "ticks": 12120,
          "time": 42.083265999999995,
          "velocity": 0.5984251968503937
        },
        {
          "duration": 0.30902728333333584,
          "durationTicks": 89,
          "midi": 62,
          "name": "D4",
          "ticks": 12120,
          "time": 42.083265999999995,
          "velocity": 0.7322834645669292
        },
        {
          "duration": 0.21874964999999946,
          "durationTicks": 63,
          "midi": 58,
          "name": "A#3",
          "ticks": 12240,
          "time": 42.499932,
          "velocity": 0.4881889763779528
        },
        {
          "duration": 0.2048607833333307,
          "durationTicks": 59,
          "midi": 53,
          "name": "F3",
          "ticks": 12240,
          "time": 42.499932,
          "velocity": 0.5039370078740157
        },
        {
          "duration": 0.18402748333333108,
          "durationTicks": 53,
          "midi": 62,
          "name": "D4",
          "ticks": 12240,
          "time": 42.499932,
          "velocity": 0.6692913385826772
        },
        {
          "duration": 0.10416649999999805,
          "durationTicks": 30,
          "midi": 53,
          "name": "F3",
          "ticks": 12360,
          "time": 42.916598,
          "velocity": 0.4881889763779528
        },
        {
          "duration": 0.12847201666666308,
          "durationTicks": 37,
          "midi": 58,
          "name": "A#3",
          "ticks": 12360,
          "time": 42.916598,
          "velocity": 0.5039370078740157
        },
        {
          "duration": 0.12847201666666308,
          "durationTicks": 37,
          "midi": 62,
          "name": "D4",
          "ticks": 12360,
          "time": 42.916598,
          "velocity": 0.7007874015748031
        },
        {
          "duration": 0.2847217666666637,
          "durationTicks": 82,
          "midi": 50,
          "name": "D3",
          "ticks": 12480,
          "time": 43.333264,
          "velocity": 0.84251968503937
        },
        {
          "duration": 0.10069428333333263,
          "durationTicks": 29,
          "midi": 57,
          "name": "A3",
          "ticks": 12600,
          "time": 43.74993,
          "velocity": 0.5669291338582677
        },
        {
          "duration": 0.09722206666666722,
          "durationTicks": 28,
          "midi": 50,
          "name": "D3",
          "ticks": 12600,
          "time": 43.74993,
          "velocity": 0.7322834645669292
        },
        {
          "duration": 0.11805536666666683,
          "durationTicks": 34,
          "midi": 62,
          "name": "D4",
          "ticks": 12600,
          "time": 43.74993,
          "velocity": 0.7716535433070866
        },
        {
          "duration": 0.06944433333333677,
          "durationTicks": 20,
          "midi": 57,
          "name": "A3",
          "ticks": 12720,
          "time": 44.166596,
          "velocity": 0.4094488188976378
        },
        {
          "duration": 0.09027763333333638,
          "durationTicks": 26,
          "midi": 62,
          "name": "D4",
          "ticks": 12720,
          "time": 44.166596,
          "velocity": 0.5669291338582677
        },
        {
          "duration": 0.10763871666667058,
          "durationTicks": 31,
          "midi": 57,
          "name": "A3",
          "ticks": 12840,
          "time": 44.583262,
          "velocity": 0.4881889763779528
        },
        {
          "duration": 0.0937498499999947,
          "durationTicks": 27,
          "midi": 62,
          "name": "D4",
          "ticks": 12840,
          "time": 44.583262,
          "velocity": 0.7322834645669292
        },
        {
          "duration": 0.07291655000000219,
          "durationTicks": 21,
          "midi": 50,
          "name": "D3",
          "ticks": 12840,
          "time": 44.583262,
          "velocity": 0.6299212598425197
        },
        {
          "duration": 0.30902728333332874,
          "durationTicks": 89,
          "midi": 41,
          "name": "F2",
          "ticks": 12960,
          "time": 44.999928,
          "velocity": 0.7716535433070866
        },
        {
          "duration": 0.11805536666666683,
          "durationTicks": 34,
          "midi": 53,
          "name": "F3",
          "ticks": 13080,
          "time": 45.416593999999996,
          "velocity": 0.7716535433070866
        },
        {
          "duration": 0.12152758333333935,
          "durationTicks": 35,
          "midi": 41,
          "name": "F2",
          "ticks": 13080,
          "time": 45.416593999999996,
          "velocity": 0.7322834645669292
        },
        {
          "duration": 0.09722206666666722,
          "durationTicks": 28,
          "midi": 53,
          "name": "F3",
          "ticks": 13320,
          "time": 46.249925999999995,
          "velocity": 0.7322834645669292
        },
        {
          "duration": 0.10069428333333263,
          "durationTicks": 29,
          "midi": 41,
          "name": "F2",
          "ticks": 13320,
          "time": 46.249925999999995,
          "velocity": 0.7716535433070866
        },
        {
          "duration": 0.2638884666666712,
          "durationTicks": 76,
          "midi": 43,
          "name": "G2",
          "ticks": 13440,
          "time": 46.666591999999994,
          "velocity": 0.7322834645669292
        },
        {
          "duration": 0.2847217666666708,
          "durationTicks": 82,
          "midi": 55,
          "name": "G3",
          "ticks": 13440,
          "time": 46.666591999999994,
          "velocity": 0.7322834645669292
        },
        {
          "duration": 0.2812495499999983,
          "durationTicks": 81,
          "midi": 55,
          "name": "G3",
          "ticks": 13560,
          "time": 47.083258,
          "velocity": 0.7322834645669292
        },
        {
          "duration": 0.1909719166666619,
          "durationTicks": 55,
          "midi": 43,
          "name": "G2",
          "ticks": 13560,
          "time": 47.083258,
          "velocity": 0.7322834645669292
        },
        {
          "duration": 0.12499979999999766,
          "durationTicks": 36,
          "midi": 55,
          "name": "G3",
          "ticks": 13680,
          "time": 47.499924,
          "velocity": 0.7322834645669292
        },
        {
          "duration": 0.13888866666665933,
          "durationTicks": 40,
          "midi": 43,
          "name": "G2",
          "ticks": 13680,
          "time": 47.499924,
          "velocity": 0.7007874015748031
        },
        {
          "duration": 0.10416649999999805,
          "durationTicks": 30,
          "midi": 55,
          "name": "G3",
          "ticks": 13800,
          "time": 47.91659,
          "velocity": 0.7322834645669292
        },
        {
          "duration": 0.4305548666666681,
          "durationTicks": 124,
          "midi": 46,
          "name": "A#2",
          "ticks": 13920,
          "time": 48.333256,
          "velocity": 0.8031496062992126
        },
        {
          "duration": 0.4895825500000015,
          "durationTicks": 141,
          "midi": 53,
          "name": "F3",
          "ticks": 14040,
          "time": 48.749922,
          "velocity": 0.7007874015748031
        },
        {
          "duration": 0.4930547666666669,
          "durationTicks": 142,
          "midi": 58,
          "name": "A#3",
          "ticks": 14040,
          "time": 48.749922,
          "velocity": 0.6692913385826772
        },
        {
          "duration": 0.5243047166666699,
          "durationTicks": 151,
          "midi": 62,
          "name": "D4",
          "ticks": 14040,
          "time": 48.749922,
          "velocity": 0.84251968503937
        },
        {
          "duration": 0.10069428333333263,
          "durationTicks": 29,
          "midi": 48,
          "name": "C3",
          "ticks": 14400,
          "time": 49.999919999999996,
          "velocity": 0.84251968503937
        },
        {
          "duration": 0.10069428333333263,
          "durationTicks": 29,
          "midi": 60,
          "name": "C4",
          "ticks": 14400,
          "time": 49.999919999999996,
          "velocity": 0.84251968503937
        },
        {
          "duration": 0.06249990000000594,
          "durationTicks": 18,
          "midi": 50,
          "name": "D3",
          "ticks": 14440,
          "time": 50.13880866666666,
          "velocity": 0.84251968503937
        },
        {
          "duration": 0.06249990000000594,
          "durationTicks": 18,
          "midi": 62,
          "name": "D4",
          "ticks": 14440,
          "time": 50.13880866666666,
          "velocity": 0.84251968503937
        },
        {
          "duration": 0.07291654999999508,
          "durationTicks": 21,
          "midi": 50,
          "name": "D3",
          "ticks": 14480,
          "time": 50.277697333333336,
          "velocity": 0.84251968503937
        },
        {
          "duration": 0.07291654999999508,
          "durationTicks": 21,
          "midi": 62,
          "name": "D4",
          "ticks": 14480,
          "time": 50.277697333333336,
          "velocity": 0.84251968503937
        },
        {
          "duration": 0.3993049166666651,
          "durationTicks": 115,
          "midi": 50,
          "name": "D3",
          "ticks": 14520,
          "time": 50.416585999999995,
          "velocity": 0.889763779527559
        },
        {
          "duration": 0.3993049166666651,
          "durationTicks": 115,
          "midi": 62,
          "name": "D4",
          "ticks": 14520,
          "time": 50.416585999999995,
          "velocity": 0.889763779527559
        },
        {
          "duration": 0.13888866666666644,
          "durationTicks": 40,
          "midi": 48,
          "name": "C3",
          "ticks": 14640,
          "time": 50.833251999999995,
          "velocity": 0.8031496062992126
        },
        {
          "duration": 0.13888866666666644,
          "durationTicks": 40,
          "midi": 60,
          "name": "C4",
          "ticks": 14640,
          "time": 50.833251999999995,
          "velocity": 0.8031496062992126
        },
        {
          "duration": 0.08333320000000555,
          "durationTicks": 24,
          "midi": 50,
          "name": "D3",
          "ticks": 14680,
          "time": 50.97214066666666,
          "velocity": 0.8031496062992126
        },
        {
          "duration": 0.08333320000000555,
          "durationTicks": 24,
          "midi": 62,
          "name": "D4",
          "ticks": 14680,
          "time": 50.97214066666666,
          "velocity": 0.8031496062992126
        },
        {
          "duration": 0.09722206666666722,
          "durationTicks": 28,
          "midi": 50,
          "name": "D3",
          "ticks": 14720,
          "time": 51.111029333333335,
          "velocity": 0.84251968503937
        },
        {
          "duration": 0.09722206666666722,
          "durationTicks": 28,
          "midi": 62,
          "name": "D4",
          "ticks": 14720,
          "time": 51.111029333333335,
          "velocity": 0.84251968503937
        },
        {
          "duration": 0.37152718333332757,
          "durationTicks": 107,
          "midi": 50,
          "name": "D3",
          "ticks": 14760,
          "time": 51.249918,
          "velocity": 0.84251968503937
        },
        {
          "duration": 0.37152718333332757,
          "durationTicks": 107,
          "midi": 62,
          "name": "D4",
          "ticks": 14760,
          "time": 51.249918,
          "velocity": 0.84251968503937
        },
        {
          "duration": 0.12499979999999766,
          "durationTicks": 36,
          "midi": 48,
          "name": "C3",
          "ticks": 14880,
          "time": 51.666584,
          "velocity": 0.8031496062992126
        },
        {
          "duration": 0.12499979999999766,
          "durationTicks": 36,
          "midi": 60,
          "name": "C4",
          "ticks": 14880,
          "time": 51.666584,
          "velocity": 0.8031496062992126
        },
        {
          "duration": 0.06249990000000594,
          "durationTicks": 18,
          "midi": 50,
          "name": "D3",
          "ticks": 14920,
          "time": 51.80547266666666,
          "velocity": 0.8031496062992126
        },
        {
          "duration": 0.06249990000000594,
          "durationTicks": 18,
          "midi": 62,
          "name": "D4",
          "ticks": 14920,
          "time": 51.80547266666666,
          "velocity": 0.8031496062992126
        },
        {
          "duration": 0.0763887666666605,
          "durationTicks": 22,
          "midi": 50,
          "name": "D3",
          "ticks": 14960,
          "time": 51.94436133333333,
          "velocity": 0.7716535433070866
        },
        {
          "duration": 0.0763887666666605,
          "durationTicks": 22,
          "midi": 62,
          "name": "D4",
          "ticks": 14960,
          "time": 51.94436133333333,
          "velocity": 0.7716535433070866
        },
        {
          "duration": 0.2638884666666641,
          "durationTicks": 76,
          "midi": 50,
          "name": "D3",
          "ticks": 15000,
          "time": 52.08325,
          "velocity": 0.84251968503937
        },
        {
          "duration": 0.2638884666666641,
          "durationTicks": 76,
          "midi": 62,
          "name": "D4",
          "ticks": 15000,
          "time": 52.08325,
          "velocity": 0.84251968503937
        },
        {
          "duration": 0.10069428333333263,
          "durationTicks": 29,
          "midi": 48,
          "name": "C3",
          "ticks": 15080,
          "time": 52.36102733333333,
          "velocity": 0.7716535433070866
        },
        {
          "duration": 0.10069428333333263,
          "durationTicks": 29,
          "midi": 60,
          "name": "C4",
          "ticks": 15080,
          "time": 52.36102733333333,
          "velocity": 0.7716535433070866
        },
        {
          "duration": 0.4270826500000027,
          "durationTicks": 123,
          "midi": 71,
          "name": "B4",
          "ticks": 15120,
          "time": 52.499916,
          "velocity": 0.84251968503937
        },
        {
          "duration": 0.32986058333333546,
          "durationTicks": 95,
          "midi": 55,
          "name": "G3",
          "ticks": 15120,
          "time": 52.499916,
          "velocity": 0.937007874015748
        },
        {
          "duration": 0.32986058333333546,
          "durationTicks": 95,
          "midi": 67,
          "name": "G4",
          "ticks": 15120,
          "time": 52.499916,
          "velocity": 0.937007874015748
        },
        {
          "duration": 0.3958326999999997,
          "durationTicks": 114,
          "midi": 69,
          "name": "A4",
          "ticks": 15240,
          "time": 52.916582,
          "velocity": 0.84251968503937
        },
        {
          "duration": 0.3715271833333347,
          "durationTicks": 107,
          "midi": 53,
          "name": "F3",
          "ticks": 15240,
          "time": 52.916582,
          "velocity": 0.889763779527559
        },
        {
          "duration": 0.3715271833333347,
          "durationTicks": 107,
          "midi": 65,
          "name": "F4",
          "ticks": 15240,
          "time": 52.916582,
          "velocity": 0.889763779527559
        },
        {
          "duration": 0.09027763333333638,
          "durationTicks": 26,
          "midi": 48,
          "name": "C3",
          "ticks": 15360,
          "time": 53.333248,
          "velocity": 0.84251968503937
        },
        {
          "duration": 0.09027763333333638,
          "durationTicks": 26,
          "midi": 60,
          "name": "C4",
          "ticks": 15360,
          "time": 53.333248,
          "velocity": 0.84251968503937
        },
        {
          "duration": 0.07291654999998798,
          "durationTicks": 21,
          "midi": 50,
          "name": "D3",
          "ticks": 15400,
          "time": 53.47213666666667,
          "velocity": 0.889763779527559
        },
        {
          "duration": 0.07291654999998798,
          "durationTicks": 21,
          "midi": 62,
          "name": "D4",
          "ticks": 15400,
          "time": 53.47213666666667,
          "velocity": 0.889763779527559
        },
        {
          "duration": 0.08333320000000555,
          "durationTicks": 24,
          "midi": 50,
          "name": "D3",
          "ticks": 15440,
          "time": 53.61102533333333,
          "velocity": 0.84251968503937
        },
        {
          "duration": 0.08333320000000555,
          "durationTicks": 24,
          "midi": 62,
          "name": "D4",
          "ticks": 15440,
          "time": 53.61102533333333,
          "velocity": 0.84251968503937
        },
        {
          "duration": 0.3749994000000001,
          "durationTicks": 108,
          "midi": 50,
          "name": "D3",
          "ticks": 15480,
          "time": 53.749914,
          "velocity": 0.889763779527559
        },
        {
          "duration": 0.3749994000000001,
          "durationTicks": 108,
          "midi": 62,
          "name": "D4",
          "ticks": 15480,
          "time": 53.749914,
          "velocity": 0.889763779527559
        },
        {
          "duration": 0.1111109333333431,
          "durationTicks": 32,
          "midi": 48,
          "name": "C3",
          "ticks": 15600,
          "time": 54.166579999999996,
          "velocity": 0.7322834645669292
        },
        {
          "duration": 0.1111109333333431,
          "durationTicks": 32,
          "midi": 60,
          "name": "C4",
          "ticks": 15600,
          "time": 54.166579999999996,
          "velocity": 0.7322834645669292
        },
        {
          "duration": 0.07291654999998798,
          "durationTicks": 21,
          "midi": 50,
          "name": "D3",
          "ticks": 15640,
          "time": 54.30546866666667,
          "velocity": 0.7716535433070866
        },
        {
          "duration": 0.07291654999998798,
          "durationTicks": 21,
          "midi": 62,
          "name": "D4",
          "ticks": 15640,
          "time": 54.30546866666667,
          "velocity": 0.7716535433070866
        },
        {
          "duration": 0.08333320000000555,
          "durationTicks": 24,
          "midi": 50,
          "name": "D3",
          "ticks": 15680,
          "time": 54.44435733333333,
          "velocity": 0.7007874015748031
        },
        {
          "duration": 0.08333320000000555,
          "durationTicks": 24,
          "midi": 62,
          "name": "D4",
          "ticks": 15680,
          "time": 54.44435733333333,
          "velocity": 0.7007874015748031
        },
        {
          "duration": 0.3923604833333343,
          "durationTicks": 113,
          "midi": 50,
          "name": "D3",
          "ticks": 15720,
          "time": 54.583245999999995,
          "velocity": 0.889763779527559
        },
        {
          "duration": 0.3923604833333343,
          "durationTicks": 113,
          "midi": 62,
          "name": "D4",
          "ticks": 15720,
          "time": 54.583245999999995,
          "velocity": 0.889763779527559
        },
        {
          "duration": 0.12499980000000477,
          "durationTicks": 36,
          "midi": 48,
          "name": "C3",
          "ticks": 15840,
          "time": 54.999911999999995,
          "velocity": 0.7322834645669292
        },
        {
          "duration": 0.12499980000000477,
          "durationTicks": 36,
          "midi": 60,
          "name": "C4",
          "ticks": 15840,
          "time": 54.999911999999995,
          "velocity": 0.7322834645669292
        },
        {
          "duration": 0.07986098333333302,
          "durationTicks": 23,
          "midi": 50,
          "name": "D3",
          "ticks": 15880,
          "time": 55.13880066666667,
          "velocity": 0.7322834645669292
        },
        {
          "duration": 0.07986098333333302,
          "durationTicks": 23,
          "midi": 62,
          "name": "D4",
          "ticks": 15880,
          "time": 55.13880066666667,
          "velocity": 0.7322834645669292
        },
        {
          "duration": 0.08680541666667096,
          "durationTicks": 25,
          "midi": 50,
          "name": "D3",
          "ticks": 15920,
          "time": 55.27768933333333,
          "velocity": 0.84251968503937
        },
        {
          "duration": 0.08680541666667096,
          "durationTicks": 25,
          "midi": 62,
          "name": "D4",
          "ticks": 15920,
          "time": 55.27768933333333,
          "velocity": 0.84251968503937
        },
        {
          "duration": 0.27083290000000915,
          "durationTicks": 78,
          "midi": 50,
          "name": "D3",
          "ticks": 15960,
          "time": 55.416577999999994,
          "velocity": 0.84251968503937
        },
        {
          "duration": 0.27083290000000915,
          "durationTicks": 78,
          "midi": 62,
          "name": "D4",
          "ticks": 15960,
          "time": 55.416577999999994,
          "velocity": 0.84251968503937
        },
        {
          "duration": 0.11111093333333599,
          "durationTicks": 32,
          "midi": 48,
          "name": "C3",
          "ticks": 16040,
          "time": 55.69435533333333,
          "velocity": 0.84251968503937
        },
        {
          "duration": 0.11111093333333599,
          "durationTicks": 32,
          "midi": 60,
          "name": "C4",
          "ticks": 16040,
          "time": 55.69435533333333,
          "velocity": 0.84251968503937
        },
        {
          "duration": 0.40624934999999596,
          "durationTicks": 117,
          "midi": 69,
          "name": "A4",
          "ticks": 16080,
          "time": 55.833244,
          "velocity": 0.8031496062992126
        },
        {
          "duration": 0.36805496666666215,
          "durationTicks": 106,
          "midi": 53,
          "name": "F3",
          "ticks": 16080,
          "time": 55.833244,
          "velocity": 0.889763779527559
        },
        {
          "duration": 0.36805496666666215,
          "durationTicks": 106,
          "midi": 65,
          "name": "F4",
          "ticks": 16080,
          "time": 55.833244,
          "velocity": 0.889763779527559
        },
        {
          "duration": 0.27777733333332577,
          "durationTicks": 80,
          "midi": 72,
          "name": "C5",
          "ticks": 16200,
          "time": 56.24991,
          "velocity": 0.8031496062992126
        },
        {
          "duration": 0.2430551666666716,
          "durationTicks": 70,
          "midi": 52,
          "name": "E3",
          "ticks": 16200,
          "time": 56.24991,
          "velocity": 0.889763779527559
        },
        {
          "duration": 0.2430551666666716,
          "durationTicks": 70,
          "midi": 64,
          "name": "E4",
          "ticks": 16200,
          "time": 56.24991,
          "velocity": 0.889763779527559
        },
        {
          "duration": 1.052081649999998,
          "durationTicks": 303,
          "midi": 57,
          "name": "A3",
          "ticks": 16320,
          "time": 56.666576,
          "velocity": 0.7007874015748031
        },
        {
          "duration": 1.027776133333333,
          "durationTicks": 296,
          "midi": 50,
          "name": "D3",
          "ticks": 16320,
          "time": 56.666576,
          "velocity": 0.7007874015748031
        },
        {
          "duration": 0.0763887666666676,
          "durationTicks": 22,
          "midi": 50,
          "name": "D3",
          "ticks": 16680,
          "time": 57.916574,
          "velocity": 0.4881889763779528
        },
        {
          "duration": 0.09722206666666011,
          "durationTicks": 28,
          "midi": 57,
          "name": "A3",
          "ticks": 16680,
          "time": 57.916574,
          "velocity": 0.6299212598425197
        },
        {
          "duration": 1.1562481500000032,
          "durationTicks": 333,
          "midi": 50,
          "name": "D3",
          "ticks": 16800,
          "time": 58.333239999999996,
          "velocity": 0.4881889763779528
        },
        {
          "duration": 1.170137016666672,
          "durationTicks": 337,
          "midi": 57,
          "name": "A3",
          "ticks": 16800,
          "time": 58.333239999999996,
          "velocity": 0.5984251968503937
        },
        {
          "duration": 0.11805536666666683,
          "durationTicks": 34,
          "midi": 57,
          "name": "A3",
          "ticks": 17160,
          "time": 59.583237999999994,
          "velocity": 0.5984251968503937
        },
        {
          "duration": 0.1319442333333356,
          "durationTicks": 38,
          "midi": 50,
          "name": "D3",
          "ticks": 17160,
          "time": 59.583237999999994,
          "velocity": 0.5984251968503937
        },
        {
          "duration": 1.114581550000004,
          "durationTicks": 321,
          "midi": 53,
          "name": "F3",
          "ticks": 17280,
          "time": 59.999904,
          "velocity": 0.7007874015748031
        },
        {
          "duration": 1.1284704166666657,
          "durationTicks": 325,
          "midi": 46,
          "name": "A#2",
          "ticks": 17280,
          "time": 59.999904,
          "velocity": 0.5984251968503937
        },
        {
          "duration": 0.11805536666666683,
          "durationTicks": 34,
          "midi": 53,
          "name": "F3",
          "ticks": 17640,
          "time": 61.249902,
          "velocity": 0.5984251968503937
        },
        {
          "duration": 0.08680541666667096,
          "durationTicks": 25,
          "midi": 46,
          "name": "A#2",
          "ticks": 17640,
          "time": 61.249902,
          "velocity": 0.6299212598425197
        },
        {
          "duration": 0.6354156499999988,
          "durationTicks": 183,
          "midi": 53,
          "name": "F3",
          "ticks": 17760,
          "time": 61.666568,
          "velocity": 0.6692913385826772
        },
        {
          "duration": 0.6076379166666683,
          "durationTicks": 175,
          "midi": 46,
          "name": "A#2",
          "ticks": 17760,
          "time": 61.666568,
          "velocity": 0.6692913385826772
        },
        {
          "duration": 0.12499980000000477,
          "durationTicks": 36,
          "midi": 53,
          "name": "F3",
          "ticks": 18000,
          "time": 62.4999,
          "velocity": 0.7716535433070866
        },
        {
          "duration": 0.10069428333333974,
          "durationTicks": 29,
          "midi": 46,
          "name": "A#2",
          "ticks": 18000,
          "time": 62.4999,
          "velocity": 0.7322834645669292
        },
        {
          "duration": 0.24999959999999533,
          "durationTicks": 72,
          "midi": 48,
          "name": "C3",
          "ticks": 18120,
          "time": 62.916565999999996,
          "velocity": 0.7716535433070866
        },
        {
          "duration": 0.24999959999999533,
          "durationTicks": 72,
          "midi": 55,
          "name": "G3",
          "ticks": 18120,
          "time": 62.916565999999996,
          "velocity": 0.84251968503937
        },
        {
          "duration": 1.4687476499999974,
          "durationTicks": 423,
          "midi": 50,
          "name": "D3",
          "ticks": 18240,
          "time": 63.333231999999995,
          "velocity": 0.7322834645669292
        },
        {
          "duration": 1.496525383333335,
          "durationTicks": 431,
          "midi": 57,
          "name": "A3",
          "ticks": 18240,
          "time": 63.333231999999995,
          "velocity": 0.7322834645669292
        },
        {
          "duration": 1.090276033333339,
          "durationTicks": 314,
          "midi": 50,
          "name": "D3",
          "ticks": 18720,
          "time": 64.99989599999999,
          "velocity": 0.5354330708661418
        },
        {
          "duration": 1.1423592833333345,
          "durationTicks": 329,
          "midi": 57,
          "name": "A3",
          "ticks": 18720,
          "time": 64.99989599999999,
          "velocity": 0.6692913385826772
        },
        {
          "duration": 0.12152758333333225,
          "durationTicks": 35,
          "midi": 57,
          "name": "A3",
          "ticks": 19080,
          "time": 66.249894,
          "velocity": 0.7007874015748031
        },
        {
          "duration": 0.10763871666665636,
          "durationTicks": 31,
          "midi": 50,
          "name": "D3",
          "ticks": 19080,
          "time": 66.249894,
          "velocity": 0.6692913385826772
        },
        {
          "duration": 1.48958094999999,
          "durationTicks": 429,
          "midi": 53,
          "name": "F3",
          "ticks": 19200,
          "time": 66.66656,
          "velocity": 0.7322834645669292
        },
        {
          "duration": 1.4722198666666628,
          "durationTicks": 424,
          "midi": 46,
          "name": "A#2",
          "ticks": 19200,
          "time": 66.66656,
          "velocity": 0.7007874015748031
        },
        {
          "duration": 0.6388878666666642,
          "durationTicks": 184,
          "midi": 46,
          "name": "A#2",
          "ticks": 19680,
          "time": 68.333224,
          "velocity": 0.5669291338582677
        },
        {
          "duration": 0.6840266833333288,
          "durationTicks": 197,
          "midi": 53,
          "name": "F3",
          "ticks": 19680,
          "time": 68.333224,
          "velocity": 0.6299212598425197
        },
        {
          "duration": 0.14236088333332475,
          "durationTicks": 41,
          "midi": 46,
          "name": "A#2",
          "ticks": 19920,
          "time": 69.166556,
          "velocity": 0.84251968503937
        },
        {
          "duration": 0.2812495499999983,
          "durationTicks": 81,
          "midi": 53,
          "name": "F3",
          "ticks": 19920,
          "time": 69.166556,
          "velocity": 0.8031496062992126
        },
        {
          "duration": 0.14236088333333896,
          "durationTicks": 41,
          "midi": 53,
          "name": "F3",
          "ticks": 20040,
          "time": 69.58322199999999,
          "velocity": 0.84251968503937
        },
        {
          "duration": 1.4861087333333245,
          "durationTicks": 428,
          "midi": 43,
          "name": "G2",
          "ticks": 20160,
          "time": 69.999888,
          "velocity": 0.7716535433070866
        },
        {
          "duration": 1.4791643000000079,
          "durationTicks": 426,
          "midi": 50,
          "name": "D3",
          "ticks": 20160,
          "time": 69.999888,
          "velocity": 0.889763779527559
        },
        {
          "duration": 1.409719966666671,
          "durationTicks": 406,
          "midi": 45,
          "name": "A2",
          "ticks": 20640,
          "time": 71.666552,
          "velocity": 0.7322834645669292
        },
        {
          "duration": 1.4548587833333357,
          "durationTicks": 419,
          "midi": 52,
          "name": "E3",
          "ticks": 20640,
          "time": 71.666552,
          "velocity": 0.7322834645669292
        },
        {
          "duration": 1.4201366166666674,
          "durationTicks": 409,
          "midi": 43,
          "name": "G2",
          "ticks": 21120,
          "time": 73.333216,
          "velocity": 0.8031496062992126
        },
        {
          "duration": 1.440969916666674,
          "durationTicks": 415,
          "midi": 50,
          "name": "D3",
          "ticks": 21120,
          "time": 73.333216,
          "velocity": 0.84251968503937
        },
        {
          "duration": 0.3229161500000117,
          "durationTicks": 93,
          "midi": 52,
          "name": "E3",
          "ticks": 21600,
          "time": 74.99987999999999,
          "velocity": 0.7716535433070866
        },
        {
          "duration": 0.3194439333333463,
          "durationTicks": 92,
          "midi": 45,
          "name": "A2",
          "ticks": 21600,
          "time": 74.99987999999999,
          "velocity": 0.7322834645669292
        },
        {
          "duration": 0.23611073333333366,
          "durationTicks": 68,
          "midi": 45,
          "name": "A2",
          "ticks": 21720,
          "time": 75.416546,
          "velocity": 0.7007874015748031
        },
        {
          "duration": 0.27083290000000204,
          "durationTicks": 78,
          "midi": 52,
          "name": "E3",
          "ticks": 21720,
          "time": 75.416546,
          "velocity": 0.7007874015748031
        },
        {
          "duration": 0.2847217666666637,
          "durationTicks": 82,
          "midi": 45,
          "name": "A2",
          "ticks": 21840,
          "time": 75.833212,
          "velocity": 0.7716535433070866
        },
        {
          "duration": 0.29513841666665996,
          "durationTicks": 85,
          "midi": 52,
          "name": "E3",
          "ticks": 21840,
          "time": 75.833212,
          "velocity": 0.7322834645669292
        },
        {
          "duration": 0.23263851666666824,
          "durationTicks": 67,
          "midi": 45,
          "name": "A2",
          "ticks": 21960,
          "time": 76.249878,
          "velocity": 0.7716535433070866
        },
        {
          "duration": 0.22916630000000282,
          "durationTicks": 66,
          "midi": 52,
          "name": "E3",
          "ticks": 21960,
          "time": 76.249878,
          "velocity": 0.7007874015748031
        },
        {
          "duration": 0.14236088333332475,
          "durationTicks": 41,
          "midi": 45,
          "name": "A2",
          "ticks": 22040,
          "time": 76.52765533333333,
          "velocity": 0.8031496062992126
        },
        {
          "duration": 0.2604162499999916,
          "durationTicks": 75,
          "midi": 52,
          "name": "E3",
          "ticks": 22080,
          "time": 76.666544,
          "velocity": 0.6692913385826772
        },
        {
          "duration": 0.29513841666665996,
          "durationTicks": 85,
          "midi": 57,
          "name": "A3",
          "ticks": 22080,
          "time": 76.666544,
          "velocity": 0.7322834645669292
        },
        {
          "duration": 0.10763871666668479,
          "durationTicks": 31,
          "midi": 45,
          "name": "A2",
          "ticks": 22160,
          "time": 76.94432133333332,
          "velocity": 0.7716535433070866
        },
        {
          "duration": 0.28819398333332913,
          "durationTicks": 83,
          "midi": 52,
          "name": "E3",
          "ticks": 22200,
          "time": 77.08321,
          "velocity": 0.5984251968503937
        },
        {
          "duration": 0.31249950000000126,
          "durationTicks": 90,
          "midi": 57,
          "name": "A3",
          "ticks": 22200,
          "time": 77.08321,
          "velocity": 0.7322834645669292
        },
        {
          "duration": 0.12152758333334646,
          "durationTicks": 35,
          "midi": 45,
          "name": "A2",
          "ticks": 22280,
          "time": 77.36098733333333,
          "velocity": 0.84251968503937
        },
        {
          "duration": 0.22222186666665777,
          "durationTicks": 64,
          "midi": 52,
          "name": "E3",
          "ticks": 22320,
          "time": 77.499876,
          "velocity": 0.5669291338582677
        },
        {
          "duration": 0.2430551666666645,
          "durationTicks": 70,
          "midi": 57,
          "name": "A3",
          "ticks": 22320,
          "time": 77.499876,
          "velocity": 0.6299212598425197
        },
        {
          "duration": 0.23611073333333366,
          "durationTicks": 68,
          "midi": 64,
          "name": "E4",
          "ticks": 22320,
          "time": 77.499876,
          "velocity": 0.7322834645669292
        },
        {
          "duration": 0.14236088333333896,
          "durationTicks": 41,
          "midi": 45,
          "name": "A2",
          "ticks": 22400,
          "time": 77.77765333333332,
          "velocity": 0.6299212598425197
        },
        {
          "duration": 0.17708305000000735,
          "durationTicks": 51,
          "midi": 52,
          "name": "E3",
          "ticks": 22440,
          "time": 77.91654199999999,
          "velocity": 0.5984251968503937
        },
        {
          "duration": 0.20833300000001032,
          "durationTicks": 60,
          "midi": 57,
          "name": "A3",
          "ticks": 22440,
          "time": 77.91654199999999,
          "velocity": 0.7716535433070866
        },
        {
          "duration": 0.32986058333332835,
          "durationTicks": 95,
          "midi": 57,
          "name": "A3",
          "ticks": 22560,
          "time": 78.333208,
          "velocity": 0.7007874015748031
        },
        {
          "duration": 0.32986058333332835,
          "durationTicks": 95,
          "midi": 50,
          "name": "D3",
          "ticks": 22560,
          "time": 78.333208,
          "velocity": 0.7716535433070866
        },
        {
          "duration": 0.10416650000000516,
          "durationTicks": 30,
          "midi": 50,
          "name": "D3",
          "ticks": 22680,
          "time": 78.74987399999999,
          "velocity": 0.7007874015748031
        },
        {
          "duration": 0.10416650000000516,
          "durationTicks": 30,
          "midi": 57,
          "name": "A3",
          "ticks": 22680,
          "time": 78.74987399999999,
          "velocity": 0.6299212598425197
        },
        {
          "duration": 0.44097151666666434,
          "durationTicks": 127,
          "midi": 41,
          "name": "F2",
          "ticks": 23040,
          "time": 79.999872,
          "velocity": 0.7322834645669292
        },
        {
          "duration": 0.11111093333333599,
          "durationTicks": 32,
          "midi": 53,
          "name": "F3",
          "ticks": 23160,
          "time": 80.416538,
          "velocity": 0.7007874015748031
        },
        {
          "duration": 0.13541644999999392,
          "durationTicks": 39,
          "midi": 57,
          "name": "A3",
          "ticks": 23160,
          "time": 80.416538,
          "velocity": 0.8031496062992126
        },
        {
          "duration": 0.10763871666665636,
          "durationTicks": 31,
          "midi": 53,
          "name": "F3",
          "ticks": 23400,
          "time": 81.24987,
          "velocity": 0.7322834645669292
        },
        {
          "duration": 0.09722206666666011,
          "durationTicks": 28,
          "midi": 41,
          "name": "F2",
          "ticks": 23400,
          "time": 81.24987,
          "velocity": 0.7322834645669292
        },
        {
          "duration": 0.36458274999999674,
          "durationTicks": 105,
          "midi": 43,
          "name": "G2",
          "ticks": 23520,
          "time": 81.666536,
          "velocity": 0.8031496062992126
        },
        {
          "duration": 0.13888866666667354,
          "durationTicks": 40,
          "midi": 43,
          "name": "G2",
          "ticks": 23640,
          "time": 82.083202,
          "velocity": 0.7322834645669292
        },
        {
          "duration": 0.1527775333333352,
          "durationTicks": 44,
          "midi": 55,
          "name": "G3",
          "ticks": 23640,
          "time": 82.083202,
          "velocity": 0.6299212598425197
        },
        {
          "duration": 0.16319418333333147,
          "durationTicks": 47,
          "midi": 59,
          "name": "B3",
          "ticks": 23640,
          "time": 82.083202,
          "velocity": 0.7322834645669292
        },
        {
          "duration": 0.25694403333334037,
          "durationTicks": 74,
          "midi": 55,
          "name": "G3",
          "ticks": 23760,
          "time": 82.49986799999999,
          "velocity": 0.7007874015748031
        },
        {
          "duration": 0.11111093333333599,
          "durationTicks": 32,
          "midi": 55,
          "name": "G3",
          "ticks": 23880,
          "time": 82.916534,
          "velocity": 0.6692913385826772
        },
        {
          "duration": 0.09722206666666011,
          "durationTicks": 28,
          "midi": 43,
          "name": "G2",
          "ticks": 23880,
          "time": 82.916534,
          "velocity": 0.7716535433070866
        },
        {
          "duration": 0.18055526666667276,
          "durationTicks": 52,
          "midi": 46,
          "name": "A#2",
          "ticks": 24040,
          "time": 83.47208866666666,
          "velocity": 0.5039370078740157
        },
        {
          "duration": 0.3368050166666734,
          "durationTicks": 97,
          "midi": 58,
          "name": "A#3",
          "ticks": 24120,
          "time": 83.749866,
          "velocity": 0.5984251968503937
        },
        {
          "duration": 0.333332800000008,
          "durationTicks": 96,
          "midi": 53,
          "name": "F3",
          "ticks": 24120,
          "time": 83.749866,
          "velocity": 0.5984251968503937
        },
        {
          "duration": 0.30902728333333584,
          "durationTicks": 89,
          "midi": 62,
          "name": "D4",
          "ticks": 24120,
          "time": 83.749866,
          "velocity": 0.7322834645669292
        },
        {
          "duration": 0.21874965000000657,
          "durationTicks": 63,
          "midi": 58,
          "name": "A#3",
          "ticks": 24240,
          "time": 84.16653199999999,
          "velocity": 0.4881889763779528
        },
        {
          "duration": 0.2048607833333449,
          "durationTicks": 59,
          "midi": 53,
          "name": "F3",
          "ticks": 24240,
          "time": 84.16653199999999,
          "velocity": 0.5039370078740157
        },
        {
          "duration": 0.18402748333333818,
          "durationTicks": 53,
          "midi": 62,
          "name": "D4",
          "ticks": 24240,
          "time": 84.16653199999999,
          "velocity": 0.6692913385826772
        },
        {
          "duration": 0.10416650000000516,
          "durationTicks": 30,
          "midi": 53,
          "name": "F3",
          "ticks": 24360,
          "time": 84.583198,
          "velocity": 0.4881889763779528
        },
        {
          "duration": 0.12847201666666308,
          "durationTicks": 37,
          "midi": 58,
          "name": "A#3",
          "ticks": 24360,
          "time": 84.583198,
          "velocity": 0.5039370078740157
        },
        {
          "duration": 0.12847201666666308,
          "durationTicks": 37,
          "midi": 62,
          "name": "D4",
          "ticks": 24360,
          "time": 84.583198,
          "velocity": 0.7007874015748031
        },
        {
          "duration": 0.2847217666666637,
          "durationTicks": 82,
          "midi": 50,
          "name": "D3",
          "ticks": 24480,
          "time": 84.999864,
          "velocity": 0.84251968503937
        },
        {
          "duration": 0.10069428333333974,
          "durationTicks": 29,
          "midi": 57,
          "name": "A3",
          "ticks": 24600,
          "time": 85.41653,
          "velocity": 0.5669291338582677
        },
        {
          "duration": 0.09722206666666011,
          "durationTicks": 28,
          "midi": 50,
          "name": "D3",
          "ticks": 24600,
          "time": 85.41653,
          "velocity": 0.7322834645669292
        },
        {
          "duration": 0.11805536666666683,
          "durationTicks": 34,
          "midi": 62,
          "name": "D4",
          "ticks": 24600,
          "time": 85.41653,
          "velocity": 0.7716535433070866
        },
        {
          "duration": 0.06944433333332256,
          "durationTicks": 20,
          "midi": 57,
          "name": "A3",
          "ticks": 24720,
          "time": 85.833196,
          "velocity": 0.4094488188976378
        },
        {
          "duration": 0.09027763333332928,
          "durationTicks": 26,
          "midi": 62,
          "name": "D4",
          "ticks": 24720,
          "time": 85.833196,
          "velocity": 0.5669291338582677
        },
        {
          "duration": 0.10763871666667058,
          "durationTicks": 31,
          "midi": 57,
          "name": "A3",
          "ticks": 24840,
          "time": 86.249862,
          "velocity": 0.4881889763779528
        },
        {
          "duration": 0.0937498499999947,
          "durationTicks": 27,
          "midi": 62,
          "name": "D4",
          "ticks": 24840,
          "time": 86.249862,
          "velocity": 0.7322834645669292
        },
        {
          "duration": 0.07291655000000219,
          "durationTicks": 21,
          "midi": 50,
          "name": "D3",
          "ticks": 24840,
          "time": 86.249862,
          "velocity": 0.6299212598425197
        },
        {
          "duration": 0.30902728333333584,
          "durationTicks": 89,
          "midi": 41,
          "name": "F2",
          "ticks": 24960,
          "time": 86.666528,
          "velocity": 0.7716535433070866
        },
        {
          "duration": 0.11805536666666683,
          "durationTicks": 34,
          "midi": 53,
          "name": "F3",
          "ticks": 25080,
          "time": 87.08319399999999,
          "velocity": 0.7716535433070866
        },
        {
          "duration": 0.12152758333333225,
          "durationTicks": 35,
          "midi": 41,
          "name": "F2",
          "ticks": 25080,
          "time": 87.08319399999999,
          "velocity": 0.7322834645669292
        },
        {
          "duration": 0.09722206666666011,
          "durationTicks": 28,
          "midi": 53,
          "name": "F3",
          "ticks": 25320,
          "time": 87.91652599999999,
          "velocity": 0.7322834645669292
        },
        {
          "duration": 0.10069428333333974,
          "durationTicks": 29,
          "midi": 41,
          "name": "F2",
          "ticks": 25320,
          "time": 87.91652599999999,
          "velocity": 0.7716535433070866
        },
        {
          "duration": 0.263888466666657,
          "durationTicks": 76,
          "midi": 43,
          "name": "G2",
          "ticks": 25440,
          "time": 88.333192,
          "velocity": 0.7322834645669292
        },
        {
          "duration": 0.2847217666666637,
          "durationTicks": 82,
          "midi": 55,
          "name": "G3",
          "ticks": 25440,
          "time": 88.333192,
          "velocity": 0.7322834645669292
        },
        {
          "duration": 0.2812495500000125,
          "durationTicks": 81,
          "midi": 55,
          "name": "G3",
          "ticks": 25560,
          "time": 88.74985799999999,
          "velocity": 0.7322834645669292
        },
        {
          "duration": 0.19097191666668323,
          "durationTicks": 55,
          "midi": 43,
          "name": "G2",
          "ticks": 25560,
          "time": 88.74985799999999,
          "velocity": 0.7322834645669292
        },
        {
          "duration": 0.12499980000001187,
          "durationTicks": 36,
          "midi": 55,
          "name": "G3",
          "ticks": 25680,
          "time": 89.166524,
          "velocity": 0.7322834645669292
        },
        {
          "duration": 0.13888866666667354,
          "durationTicks": 40,
          "midi": 43,
          "name": "G2",
          "ticks": 25680,
          "time": 89.166524,
          "velocity": 0.7007874015748031
        },
        {
          "duration": 0.10416649999999095,
          "durationTicks": 30,
          "midi": 55,
          "name": "G3",
          "ticks": 25800,
          "time": 89.58319,
          "velocity": 0.7322834645669292
        },
        {
          "duration": 0.4305548666666681,
          "durationTicks": 124,
          "midi": 46,
          "name": "A#2",
          "ticks": 25920,
          "time": 89.999856,
          "velocity": 0.8031496062992126
        },
        {
          "duration": 0.4895825499999944,
          "durationTicks": 141,
          "midi": 53,
          "name": "F3",
          "ticks": 26040,
          "time": 90.416522,
          "velocity": 0.7007874015748031
        },
        {
          "duration": 0.4930547666666598,
          "durationTicks": 142,
          "midi": 58,
          "name": "A#3",
          "ticks": 26040,
          "time": 90.416522,
          "velocity": 0.6692913385826772
        },
        {
          "duration": 0.5243047166666628,
          "durationTicks": 151,
          "midi": 62,
          "name": "D4",
          "ticks": 26040,
          "time": 90.416522,
          "velocity": 0.84251968503937
        },
        {
          "duration": 1.7326361166666686,
          "durationTicks": 499,
          "midi": 57,
          "name": "A3",
          "ticks": 26400,
          "time": 91.66651999999999,
          "velocity": 0.7716535433070866
        },
        {
          "duration": 1.7465249833333303,
          "durationTicks": 503,
          "midi": 62,
          "name": "D4",
          "ticks": 26400,
          "time": 91.66651999999999,
          "velocity": 0.889763779527559
        },
        {
          "duration": 1.7256916833333378,
          "durationTicks": 497,
          "midi": 50,
          "name": "D3",
          "ticks": 26400,
          "time": 91.66651999999999,
          "velocity": 0.84251968503937
        },
        {
          "duration": 0.2986106333333254,
          "durationTicks": 86,
          "midi": 67,
          "name": "G4",
          "ticks": 27120,
          "time": 94.166516,
          "velocity": 0.889763779527559
        },
        {
          "duration": 0.31597171666665247,
          "durationTicks": 91,
          "midi": 55,
          "name": "G3",
          "ticks": 27120,
          "time": 94.166516,
          "velocity": 0.84251968503937
        },
        {
          "duration": 0.3055550666666562,
          "durationTicks": 88,
          "midi": 62,
          "name": "D4",
          "ticks": 27120,
          "time": 94.166516,
          "velocity": 0.8031496062992126
        },
        {
          "duration": 0.17361083333332772,
          "durationTicks": 50,
          "midi": 53,
          "name": "F3",
          "ticks": 27240,
          "time": 94.583182,
          "velocity": 0.8031496062992126
        },
        {
          "duration": 0.20138856666666527,
          "durationTicks": 58,
          "midi": 65,
          "name": "F4",
          "ticks": 27240,
          "time": 94.583182,
          "velocity": 0.7716535433070866
        },
        {
          "duration": 0.22222186666667199,
          "durationTicks": 64,
          "midi": 60,
          "name": "C4",
          "ticks": 27240,
          "time": 94.583182,
          "velocity": 0.7322834645669292
        },
        {
          "duration": 2.4340238833333245,
          "durationTicks": 701,
          "midi": 52,
          "name": "E3",
          "ticks": 27360,
          "time": 94.999848,
          "velocity": 0.7007874015748031
        },
        {
          "duration": 2.4409683166666554,
          "durationTicks": 703,
          "midi": 59,
          "name": "B3",
          "ticks": 27360,
          "time": 94.999848,
          "velocity": 0.7322834645669292
        },
        {
          "duration": 2.8159677166666626,
          "durationTicks": 811,
          "midi": 64,
          "name": "E4",
          "ticks": 27360,
          "time": 94.999848,
          "velocity": 0.7007874015748031
        },
        {
          "duration": 0.11111093333333599,
          "durationTicks": 32,
          "midi": 52,
          "name": "E3",
          "ticks": 28160,
          "time": 97.77762133333333,
          "velocity": 0.7716535433070866
        },
        {
          "duration": 0.11458315000000141,
          "durationTicks": 33,
          "midi": 59,
          "name": "B3",
          "ticks": 28160,
          "time": 97.77762133333333,
          "velocity": 0.7716535433070866
        },
        {
          "duration": 0.0937498499999947,
          "durationTicks": 27,
          "midi": 64,
          "name": "E4",
          "ticks": 28200,
          "time": 97.91651,
          "velocity": 0.6692913385826772
        },
        {
          "duration": 1.5347197666666688,
          "durationTicks": 442,
          "midi": 57,
          "name": "A3",
          "ticks": 28320,
          "time": 98.333176,
          "velocity": 0.4881889763779528
        },
        {
          "duration": 1.545136416666665,
          "durationTicks": 445,
          "midi": 66,
          "name": "F#4",
          "ticks": 28320,
          "time": 98.333176,
          "velocity": 0.6299212598425197
        },
        {
          "duration": 1.545136416666665,
          "durationTicks": 445,
          "midi": 62,
          "name": "D4",
          "ticks": 28320,
          "time": 98.333176,
          "velocity": 0.6692913385826772
        },
        {
          "duration": 0.10069428333333974,
          "durationTicks": 29,
          "midi": 45,
          "name": "A2",
          "ticks": 28920,
          "time": 100.416506,
          "velocity": 0.889763779527559
        },
        {
          "duration": 0.12499979999998345,
          "durationTicks": 36,
          "midi": 50,
          "name": "D3",
          "ticks": 28960,
          "time": 100.55539466666667,
          "velocity": 0.7007874015748031
        },
        {
          "duration": 0.10763871666667058,
          "durationTicks": 31,
          "midi": 52,
          "name": "E3",
          "ticks": 29000,
          "time": 100.69428333333333,
          "velocity": 0.7322834645669292
        },
        {
          "duration": 0.1666664000000111,
          "durationTicks": 48,
          "midi": 54,
          "name": "F#3",
          "ticks": 29040,
          "time": 100.83317199999999,
          "velocity": 0.84251968503937
        },
        {
          "duration": 0.14236088333333896,
          "durationTicks": 41,
          "midi": 52,
          "name": "E3",
          "ticks": 29080,
          "time": 100.97206066666666,
          "velocity": 0.7007874015748031
        },
        {
          "duration": 0.23958295000001328,
          "durationTicks": 69,
          "midi": 50,
          "name": "D3",
          "ticks": 29120,
          "time": 101.11094933333332,
          "velocity": 0.84251968503937
        },
        {
          "duration": 0.13541644999999392,
          "durationTicks": 39,
          "midi": 45,
          "name": "A2",
          "ticks": 29160,
          "time": 101.249838,
          "velocity": 0.7716535433070866
        },
        {
          "duration": 0.13541644999999392,
          "durationTicks": 39,
          "midi": 52,
          "name": "E3",
          "ticks": 29200,
          "time": 101.38872666666667,
          "velocity": 0.7322834645669292
        },
        {
          "duration": 0.12847201666666308,
          "durationTicks": 37,
          "midi": 50,
          "name": "D3",
          "ticks": 29240,
          "time": 101.52761533333333,
          "velocity": 0.7322834645669292
        },
        {
          "duration": 2.4340238833333387,
          "durationTicks": 701,
          "midi": 52,
          "name": "E3",
          "ticks": 29280,
          "time": 101.66650399999999,
          "velocity": 0.7007874015748031
        },
        {
          "duration": 2.4409683166666696,
          "durationTicks": 703,
          "midi": 59,
          "name": "B3",
          "ticks": 29280,
          "time": 101.66650399999999,
          "velocity": 0.7322834645669292
        },
        {
          "duration": 2.8159677166666626,
          "durationTicks": 811,
          "midi": 64,
          "name": "E4",
          "ticks": 29280,
          "time": 101.66650399999999,
          "velocity": 0.7007874015748031
        },
        {
          "duration": 0.1111109333333502,
          "durationTicks": 32,
          "midi": 52,
          "name": "E3",
          "ticks": 30080,
          "time": 104.44427733333332,
          "velocity": 0.7716535433070866
        },
        {
          "duration": 0.11458315000001562,
          "durationTicks": 33,
          "midi": 59,
          "name": "B3",
          "ticks": 30080,
          "time": 104.44427733333332,
          "velocity": 0.7716535433070866
        },
        {
          "duration": 0.0937498499999947,
          "durationTicks": 27,
          "midi": 64,
          "name": "E4",
          "ticks": 30120,
          "time": 104.58316599999999,
          "velocity": 0.6692913385826772
        },
        {
          "duration": 1.5347197666666688,
          "durationTicks": 442,
          "midi": 57,
          "name": "A3",
          "ticks": 30240,
          "time": 104.999832,
          "velocity": 0.4881889763779528
        },
        {
          "duration": 1.545136416666665,
          "durationTicks": 445,
          "midi": 66,
          "name": "F#4",
          "ticks": 30240,
          "time": 104.999832,
          "velocity": 0.6299212598425197
        },
        {
          "duration": 1.545136416666665,
          "durationTicks": 445,
          "midi": 62,
          "name": "D4",
          "ticks": 30240,
          "time": 104.999832,
          "velocity": 0.6692913385826772
        },
        {
          "duration": 1.9479135500000098,
          "durationTicks": 561,
          "midi": 60,
          "name": "C4",
          "ticks": 31200,
          "time": 108.33315999999999,
          "velocity": 0.6299212598425197
        },
        {
          "duration": 1.9374968999999993,
          "durationTicks": 558,
          "midi": 65,
          "name": "F4",
          "ticks": 31200,
          "time": 108.33315999999999,
          "velocity": 0.7322834645669292
        },
        {
          "duration": 1.9201358166666722,
          "durationTicks": 553,
          "midi": 69,
          "name": "A4",
          "ticks": 31200,
          "time": 108.33315999999999,
          "velocity": 0.7007874015748031
        },
        {
          "duration": 0.10416650000000516,
          "durationTicks": 30,
          "midi": 53,
          "name": "F3",
          "ticks": 31760,
          "time": 110.27760133333334,
          "velocity": 0.8031496062992126
        },
        {
          "duration": 0.6215267833333371,
          "durationTicks": 179,
          "midi": 69,
          "name": "A4",
          "ticks": 31800,
          "time": 110.41649,
          "velocity": 0.7007874015748031
        },
        {
          "duration": 0.6180545666666717,
          "durationTicks": 178,
          "midi": 60,
          "name": "C4",
          "ticks": 31800,
          "time": 110.41649,
          "velocity": 0.7007874015748031
        },
        {
          "duration": 0.6458323000000092,
          "durationTicks": 186,
          "midi": 65,
          "name": "F4",
          "ticks": 31800,
          "time": 110.41649,
          "velocity": 0.7322834645669292
        },
        {
          "duration": 0.18055526666667276,
          "durationTicks": 52,
          "midi": 60,
          "name": "C4",
          "ticks": 32040,
          "time": 111.249822,
          "velocity": 0.5669291338582677
        },
        {
          "duration": 0.1319442333333285,
          "durationTicks": 38,
          "midi": 69,
          "name": "A4",
          "ticks": 32040,
          "time": 111.249822,
          "velocity": 0.7007874015748031
        },
        {
          "duration": 0.16319418333333147,
          "durationTicks": 47,
          "midi": 65,
          "name": "F4",
          "ticks": 32040,
          "time": 111.249822,
          "velocity": 0.7007874015748031
        },
        {
          "duration": 0.49999919999999065,
          "durationTicks": 144,
          "midi": 64,
          "name": "E4",
          "ticks": 32160,
          "time": 111.666488,
          "velocity": 0.7322834645669292
        },
        {
          "duration": 0.4756936833333185,
          "durationTicks": 137,
          "midi": 67,
          "name": "G4",
          "ticks": 32160,
          "time": 111.666488,
          "velocity": 0.6692913385826772
        },
        {
          "duration": 0.5243047166666628,
          "durationTicks": 151,
          "midi": 60,
          "name": "C4",
          "ticks": 32160,
          "time": 111.666488,
          "velocity": 0.6692913385826772
        },
        {
          "duration": 1.4618032166666524,
          "durationTicks": 421,
          "midi": 48,
          "name": "C3",
          "ticks": 32160,
          "time": 111.666488,
          "velocity": 0.7322834645669292
        },
        {
          "duration": 0.6805544666666634,
          "durationTicks": 196,
          "midi": 55,
          "name": "G3",
          "ticks": 32640,
          "time": 113.333152,
          "velocity": 0.5984251968503937
        },
        {
          "duration": 0.6909711166666739,
          "durationTicks": 199,
          "midi": 60,
          "name": "C4",
          "ticks": 32640,
          "time": 113.333152,
          "velocity": 0.7322834645669292
        },
        {
          "duration": 0.7118044166666522,
          "durationTicks": 205,
          "midi": 48,
          "name": "C3",
          "ticks": 32640,
          "time": 113.333152,
          "velocity": 0.7322834645669292
        },
        {
          "duration": 0.15972196666666605,
          "durationTicks": 46,
          "midi": 64,
          "name": "E4",
          "ticks": 32880,
          "time": 114.166484,
          "velocity": 0.7007874015748031
        },
        {
          "duration": 0.11805536666668104,
          "durationTicks": 34,
          "midi": 55,
          "name": "G3",
          "ticks": 32880,
          "time": 114.166484,
          "velocity": 0.5669291338582677
        },
        {
          "duration": 0.16666639999998267,
          "durationTicks": 48,
          "midi": 48,
          "name": "C3",
          "ticks": 32880,
          "time": 114.166484,
          "velocity": 0.7007874015748031
        },
        {
          "duration": 0.16666639999998267,
          "durationTicks": 48,
          "midi": 60,
          "name": "C4",
          "ticks": 32880,
          "time": 114.166484,
          "velocity": 0.7322834645669292
        },
        {
          "duration": 1.5347197666666688,
          "durationTicks": 442,
          "midi": 57,
          "name": "A3",
          "ticks": 33120,
          "time": 114.999816,
          "velocity": 0.5669291338582677
        },
        {
          "duration": 1.5173586833333275,
          "durationTicks": 437,
          "midi": 50,
          "name": "D3",
          "ticks": 33120,
          "time": 114.999816,
          "velocity": 0.6692913385826772
        },
        {
          "duration": 1.5173586833333275,
          "durationTicks": 437,
          "midi": 65,
          "name": "F4",
          "ticks": 33120,
          "time": 114.999816,
          "velocity": 0.7322834645669292
        },
        {
          "duration": 1.5451364166666508,
          "durationTicks": 445,
          "midi": 62,
          "name": "D4",
          "ticks": 33120,
          "time": 114.999816,
          "velocity": 0.7716535433070866
        },
        {
          "duration": 0.17361083333334193,
          "durationTicks": 50,
          "midi": 65,
          "name": "F4",
          "ticks": 33600,
          "time": 116.66647999999999,
          "velocity": 0.7716535433070866
        },
        {
          "duration": 0.2048607833333449,
          "durationTicks": 59,
          "midi": 57,
          "name": "A3",
          "ticks": 33600,
          "time": 116.66647999999999,
          "velocity": 0.6692913385826772
        },
        {
          "duration": 0.2048607833333449,
          "durationTicks": 59,
          "midi": 62,
          "name": "D4",
          "ticks": 33600,
          "time": 116.66647999999999,
          "velocity": 0.7716535433070866
        },
        {
          "duration": 0.10416650000000516,
          "durationTicks": 30,
          "midi": 50,
          "name": "D3",
          "ticks": 33600,
          "time": 116.66647999999999,
          "velocity": 0.6692913385826772
        },
        {
          "duration": 2.819439933333328,
          "durationTicks": 812,
          "midi": 62,
          "name": "D4",
          "ticks": 33840,
          "time": 117.49981199999999,
          "velocity": 0.8031496062992126
        },
        {
          "duration": 2.8159677166666626,
          "durationTicks": 811,
          "midi": 65,
          "name": "F4",
          "ticks": 33840,
          "time": 117.49981199999999,
          "velocity": 0.7322834645669292
        },
        {
          "duration": 2.8229121499999934,
          "durationTicks": 813,
          "midi": 58,
          "name": "A#3",
          "ticks": 33840,
          "time": 117.49981199999999,
          "velocity": 0.5669291338582677
        },
        {
          "duration": 2.8298565833333384,
          "durationTicks": 815,
          "midi": 46,
          "name": "A#2",
          "ticks": 33840,
          "time": 117.49981199999999,
          "velocity": 0.7716535433070866
        },
        {
          "duration": 0.1527775333333352,
          "durationTicks": 44,
          "midi": 46,
          "name": "A#2",
          "ticks": 34680,
          "time": 120.416474,
          "velocity": 0.7716535433070866
        },
        {
          "duration": 0.16666639999999688,
          "durationTicks": 48,
          "midi": 58,
          "name": "A#3",
          "ticks": 34680,
          "time": 120.416474,
          "velocity": 0.5669291338582677
        },
        {
          "duration": 0.16319418333333147,
          "durationTicks": 47,
          "midi": 62,
          "name": "D4",
          "ticks": 34680,
          "time": 120.416474,
          "velocity": 0.7007874015748031
        },
        {
          "duration": 0.19444413333332022,
          "durationTicks": 56,
          "midi": 65,
          "name": "F4",
          "ticks": 34680,
          "time": 120.416474,
          "velocity": 0.7007874015748031
        },
        {
          "duration": 3.329855783333329,
          "durationTicks": 959,
          "midi": 55,
          "name": "G3",
          "ticks": 34800,
          "time": 120.83314,
          "velocity": 0.8031496062992126
        },
        {
          "duration": 2.7847177666666596,
          "durationTicks": 802,
          "midi": 43,
          "name": "G2",
          "ticks": 34800,
          "time": 120.83314,
          "velocity": 0.7322834645669292
        },
        {
          "duration": 2.722217866666668,
          "durationTicks": 784,
          "midi": 50,
          "name": "D3",
          "ticks": 34800,
          "time": 120.83314,
          "velocity": 0.7007874015748031
        },
        {
          "duration": 0.24999960000000954,
          "durationTicks": 72,
          "midi": 43,
          "name": "G2",
          "ticks": 35640,
          "time": 123.74980199999999,
          "velocity": 0.889763779527559
        },
        {
          "duration": 0.05555546666666089,
          "durationTicks": 16,
          "midi": 47,
          "name": "B2",
          "ticks": 35760,
          "time": 124.166468,
          "velocity": 0.8031496062992126
        },
        {
          "duration": 1.4131921833333223,
          "durationTicks": 407,
          "midi": 45,
          "name": "A2",
          "ticks": 35760,
          "time": 124.166468,
          "velocity": 0.84251968503937
        },
        {
          "duration": 0.49652698333332523,
          "durationTicks": 143,
          "midi": 57,
          "name": "A3",
          "ticks": 35880,
          "time": 124.583134,
          "velocity": 0.84251968503937
        },
        {
          "duration": 0.5451380166666695,
          "durationTicks": 157,
          "midi": 52,
          "name": "E3",
          "ticks": 36000,
          "time": 124.9998,
          "velocity": 0.889763779527559
        },
        {
          "duration": 0.10416650000000516,
          "durationTicks": 30,
          "midi": 45,
          "name": "A2",
          "ticks": 36240,
          "time": 125.83313199999999,
          "velocity": 0.889763779527559
        },
        {
          "duration": 0.10416650000000516,
          "durationTicks": 30,
          "midi": 57,
          "name": "A3",
          "ticks": 36240,
          "time": 125.83313199999999,
          "velocity": 0.889763779527559
        },
        {
          "duration": 0.1319442333333285,
          "durationTicks": 38,
          "midi": 47,
          "name": "B2",
          "ticks": 36280,
          "time": 125.97202066666665,
          "velocity": 0.7716535433070866
        },
        {
          "duration": 0.1319442333333285,
          "durationTicks": 38,
          "midi": 59,
          "name": "B3",
          "ticks": 36280,
          "time": 125.97202066666665,
          "velocity": 0.7716535433070866
        },
        {
          "duration": 0.08680541666664965,
          "durationTicks": 25,
          "midi": 49,
          "name": "C#3",
          "ticks": 36320,
          "time": 126.11090933333334,
          "velocity": 0.7716535433070866
        },
        {
          "duration": 0.08680541666664965,
          "durationTicks": 25,
          "midi": 61,
          "name": "C#4",
          "ticks": 36320,
          "time": 126.11090933333334,
          "velocity": 0.7716535433070866
        },
        {
          "duration": 0.10763871666665636,
          "durationTicks": 31,
          "midi": 49,
          "name": "C#3",
          "ticks": 36360,
          "time": 126.249798,
          "velocity": 1
        },
        {
          "duration": 0.10763871666665636,
          "durationTicks": 31,
          "midi": 61,
          "name": "C#4",
          "ticks": 36360,
          "time": 126.249798,
          "velocity": 1
        },
        {
          "duration": 0.09722206666667432,
          "durationTicks": 28,
          "midi": 50,
          "name": "D3",
          "ticks": 36400,
          "time": 126.38868666666666,
          "velocity": 0.889763779527559
        },
        {
          "duration": 0.09722206666667432,
          "durationTicks": 28,
          "midi": 62,
          "name": "D4",
          "ticks": 36400,
          "time": 126.38868666666666,
          "velocity": 0.889763779527559
        },
        {
          "duration": 0.10069428333333974,
          "durationTicks": 29,
          "midi": 52,
          "name": "E3",
          "ticks": 36440,
          "time": 126.52757533333333,
          "velocity": 0.8031496062992126
        },
        {
          "duration": 0.10069428333333974,
          "durationTicks": 29,
          "midi": 64,
          "name": "E4",
          "ticks": 36440,
          "time": 126.52757533333333,
          "velocity": 0.8031496062992126
        },
        {
          "duration": 0.10069428333333974,
          "durationTicks": 29,
          "midi": 54,
          "name": "F#3",
          "ticks": 36480,
          "time": 126.66646399999999,
          "velocity": 0.937007874015748
        },
        {
          "duration": 0.10069428333333974,
          "durationTicks": 29,
          "midi": 66,
          "name": "F#4",
          "ticks": 36480,
          "time": 126.66646399999999,
          "velocity": 0.937007874015748
        },
        {
          "duration": 0.10416650000000516,
          "durationTicks": 30,
          "midi": 50,
          "name": "D3",
          "ticks": 36520,
          "time": 126.80535266666665,
          "velocity": 0.84251968503937
        },
        {
          "duration": 0.10416650000000516,
          "durationTicks": 30,
          "midi": 62,
          "name": "D4",
          "ticks": 36520,
          "time": 126.80535266666665,
          "velocity": 0.84251968503937
        },
        {
          "duration": 0.09374984999998048,
          "durationTicks": 27,
          "midi": 52,
          "name": "E3",
          "ticks": 36560,
          "time": 126.94424133333334,
          "velocity": 0.8031496062992126
        },
        {
          "duration": 0.09374984999998048,
          "durationTicks": 27,
          "midi": 64,
          "name": "E4",
          "ticks": 36560,
          "time": 126.94424133333334,
          "velocity": 0.8031496062992126
        },
        {
          "duration": 0.10763871666665636,
          "durationTicks": 31,
          "midi": 54,
          "name": "F#3",
          "ticks": 36600,
          "time": 127.08313,
          "velocity": 0.889763779527559
        },
        {
          "duration": 0.10763871666665636,
          "durationTicks": 31,
          "midi": 66,
          "name": "F#4",
          "ticks": 36600,
          "time": 127.08313,
          "velocity": 0.889763779527559
        },
        {
          "duration": 0.12847201666666308,
          "durationTicks": 37,
          "midi": 55,
          "name": "G3",
          "ticks": 36640,
          "time": 127.22201866666666,
          "velocity": 0.7716535433070866
        },
        {
          "duration": 0.12847201666666308,
          "durationTicks": 37,
          "midi": 67,
          "name": "G4",
          "ticks": 36640,
          "time": 127.22201866666666,
          "velocity": 0.7716535433070866
        },
        {
          "duration": 0.1284720166666773,
          "durationTicks": 37,
          "midi": 57,
          "name": "A3",
          "ticks": 36680,
          "time": 127.36090733333333,
          "velocity": 0.889763779527559
        },
        {
          "duration": 0.1284720166666773,
          "durationTicks": 37,
          "midi": 69,
          "name": "A4",
          "ticks": 36680,
          "time": 127.36090733333333,
          "velocity": 0.889763779527559
        },
        {
          "duration": 1.0868038166666878,
          "durationTicks": 313,
          "midi": 71,
          "name": "B4",
          "ticks": 36720,
          "time": 127.49979599999999,
          "velocity": 1
        },
        {
          "duration": 0.19097191666668323,
          "durationTicks": 55,
          "midi": 71,
          "name": "B4",
          "ticks": 37080,
          "time": 128.74979399999998,
          "velocity": 0.889763779527559
        },
        {
          "duration": 0.15624975000000063,
          "durationTicks": 45,
          "midi": 69,
          "name": "A4",
          "ticks": 37120,
          "time": 128.88868266666665,
          "velocity": 0.889763779527559
        },
        {
          "duration": 0.1284720166666773,
          "durationTicks": 37,
          "midi": 67,
          "name": "G4",
          "ticks": 37160,
          "time": 129.02757133333333,
          "velocity": 0.84251968503937
        },
        {
          "duration": 0.7395821499999897,
          "durationTicks": 213,
          "midi": 66,
          "name": "F#4",
          "ticks": 37200,
          "time": 129.16646,
          "velocity": 0.937007874015748
        },
        {
          "duration": 0.16666639999999688,
          "durationTicks": 48,
          "midi": 66,
          "name": "F#4",
          "ticks": 37440,
          "time": 129.99979199999999,
          "velocity": 0.889763779527559
        },
        {
          "duration": 0.14236088333333896,
          "durationTicks": 41,
          "midi": 67,
          "name": "G4",
          "ticks": 37480,
          "time": 130.13868066666666,
          "velocity": 0.84251968503937
        },
        {
          "duration": 0.21527743333334115,
          "durationTicks": 62,
          "midi": 69,
          "name": "A4",
          "ticks": 37520,
          "time": 130.27756933333333,
          "velocity": 0.8031496062992126
        },
        {
          "duration": 0.1874996999999894,
          "durationTicks": 54,
          "midi": 66,
          "name": "F#4",
          "ticks": 37560,
          "time": 130.416458,
          "velocity": 1
        },
        {
          "duration": 0.1527775333333352,
          "durationTicks": 44,
          "midi": 67,
          "name": "G4",
          "ticks": 37600,
          "time": 130.55534666666665,
          "velocity": 0.8031496062992126
        },
        {
          "duration": 0.13888866666667354,
          "durationTicks": 40,
          "midi": 69,
          "name": "A4",
          "ticks": 37640,
          "time": 130.69423533333332,
          "velocity": 0.8031496062992126
        },
        {
          "duration": 1.249998000000005,
          "durationTicks": 360,
          "midi": 66,
          "name": "F#4",
          "ticks": 37680,
          "time": 130.833124,
          "velocity": 1
        },
        {
          "duration": 0.4097215666666614,
          "durationTicks": 118,
          "midi": 62,
          "name": "D4",
          "ticks": 38040,
          "time": 132.083122,
          "velocity": 0.937007874015748
        },
        {
          "duration": 1.4861087333333387,
          "durationTicks": 428,
          "midi": 59,
          "name": "B3",
          "ticks": 38160,
          "time": 132.499788,
          "velocity": 1
        },
        {
          "duration": 1.0868038166666736,
          "durationTicks": 313,
          "midi": 71,
          "name": "B4",
          "ticks": 38640,
          "time": 134.166452,
          "velocity": 1
        },
        {
          "duration": 1.0868038166666736,
          "durationTicks": 313,
          "midi": 83,
          "name": "B5",
          "ticks": 38640,
          "time": 134.166452,
          "velocity": 1
        },
        {
          "duration": 0.1909719166666548,
          "durationTicks": 55,
          "midi": 71,
          "name": "B4",
          "ticks": 39000,
          "time": 135.41645,
          "velocity": 0.889763779527559
        },
        {
          "duration": 0.1909719166666548,
          "durationTicks": 55,
          "midi": 83,
          "name": "B5",
          "ticks": 39000,
          "time": 135.41645,
          "velocity": 0.889763779527559
        },
        {
          "duration": 0.15624975000000063,
          "durationTicks": 45,
          "midi": 69,
          "name": "A4",
          "ticks": 39040,
          "time": 135.55533866666664,
          "velocity": 0.889763779527559
        },
        {
          "duration": 0.15624975000000063,
          "durationTicks": 45,
          "midi": 81,
          "name": "A5",
          "ticks": 39040,
          "time": 135.55533866666664,
          "velocity": 0.889763779527559
        },
        {
          "duration": 0.12847201666664887,
          "durationTicks": 37,
          "midi": 67,
          "name": "G4",
          "ticks": 39080,
          "time": 135.69422733333334,
          "velocity": 0.84251968503937
        },
        {
          "duration": 0.12847201666664887,
          "durationTicks": 37,
          "midi": 79,
          "name": "G5",
          "ticks": 39080,
          "time": 135.69422733333334,
          "velocity": 0.84251968503937
        },
        {
          "duration": 0.7395821499999897,
          "durationTicks": 213,
          "midi": 66,
          "name": "F#4",
          "ticks": 39120,
          "time": 135.833116,
          "velocity": 0.937007874015748
        },
        {
          "duration": 0.7395821499999897,
          "durationTicks": 213,
          "midi": 78,
          "name": "F#5",
          "ticks": 39120,
          "time": 135.833116,
          "velocity": 0.937007874015748
        },
        {
          "duration": 0.16666639999996846,
          "durationTicks": 48,
          "midi": 66,
          "name": "F#4",
          "ticks": 39360,
          "time": 136.666448,
          "velocity": 0.889763779527559
        },
        {
          "duration": 0.16666639999996846,
          "durationTicks": 48,
          "midi": 78,
          "name": "F#5",
          "ticks": 39360,
          "time": 136.666448,
          "velocity": 0.889763779527559
        },
        {
          "duration": 0.14236088333333896,
          "durationTicks": 41,
          "midi": 67,
          "name": "G4",
          "ticks": 39400,
          "time": 136.80533666666665,
          "velocity": 0.84251968503937
        },
        {
          "duration": 0.14236088333333896,
          "durationTicks": 41,
          "midi": 79,
          "name": "G5",
          "ticks": 39400,
          "time": 136.80533666666665,
          "velocity": 0.84251968503937
        },
        {
          "duration": 0.21527743333334115,
          "durationTicks": 62,
          "midi": 69,
          "name": "A4",
          "ticks": 39440,
          "time": 136.94422533333332,
          "velocity": 0.8031496062992126
        },
        {
          "duration": 0.21527743333334115,
          "durationTicks": 62,
          "midi": 81,
          "name": "A5",
          "ticks": 39440,
          "time": 136.94422533333332,
          "velocity": 0.8031496062992126
        },
        {
          "duration": 0.1874996999999894,
          "durationTicks": 54,
          "midi": 66,
          "name": "F#4",
          "ticks": 39480,
          "time": 137.083114,
          "velocity": 1
        },
        {
          "duration": 0.1874996999999894,
          "durationTicks": 54,
          "midi": 78,
          "name": "F#5",
          "ticks": 39480,
          "time": 137.083114,
          "velocity": 1
        },
        {
          "duration": 0.1527775333333352,
          "durationTicks": 44,
          "midi": 67,
          "name": "G4",
          "ticks": 39520,
          "time": 137.22200266666664,
          "velocity": 0.8031496062992126
        },
        {
          "duration": 0.1527775333333352,
          "durationTicks": 44,
          "midi": 79,
          "name": "G5",
          "ticks": 39520,
          "time": 137.22200266666664,
          "velocity": 0.8031496062992126
        },
        {
          "duration": 0.13888866666664512,
          "durationTicks": 40,
          "midi": 81,
          "name": "A5",
          "ticks": 39560,
          "time": 137.36089133333334,
          "velocity": 0.8031496062992126
        },
        {
          "duration": 0.13888866666664512,
          "durationTicks": 40,
          "midi": 69,
          "name": "A4",
          "ticks": 39560,
          "time": 137.36089133333334,
          "velocity": 0.8031496062992126
        },
        {
          "duration": 1.249998000000005,
          "durationTicks": 360,
          "midi": 66,
          "name": "F#4",
          "ticks": 39600,
          "time": 137.49978,
          "velocity": 1
        },
        {
          "duration": 1.249998000000005,
          "durationTicks": 360,
          "midi": 78,
          "name": "F#5",
          "ticks": 39600,
          "time": 137.49978,
          "velocity": 1
        },
        {
          "duration": 0.4097215666666614,
          "durationTicks": 118,
          "midi": 62,
          "name": "D4",
          "ticks": 39960,
          "time": 138.749778,
          "velocity": 0.937007874015748
        },
        {
          "duration": 0.4097215666666614,
          "durationTicks": 118,
          "midi": 74,
          "name": "D5",
          "ticks": 39960,
          "time": 138.749778,
          "velocity": 0.937007874015748
        },
        {
          "duration": 1.4861087333333387,
          "durationTicks": 428,
          "midi": 59,
          "name": "B3",
          "ticks": 40080,
          "time": 139.16644399999998,
          "velocity": 1
        },
        {
          "duration": 1.4861087333333387,
          "durationTicks": 428,
          "midi": 71,
          "name": "B4",
          "ticks": 40080,
          "time": 139.16644399999998,
          "velocity": 1
        },
        {
          "duration": 1.2673590833333606,
          "durationTicks": 365,
          "midi": 81,
          "name": "A5",
          "ticks": 40560,
          "time": 140.83310799999998,
          "velocity": 0.937007874015748
        },
        {
          "duration": 0.16666639999999688,
          "durationTicks": 48,
          "midi": 81,
          "name": "A5",
          "ticks": 40960,
          "time": 142.22199466666666,
          "velocity": 0.7716535433070866
        },
        {
          "duration": 0.14583309999997596,
          "durationTicks": 42,
          "midi": 79,
          "name": "G5",
          "ticks": 41000,
          "time": 142.36088333333333,
          "velocity": 0.7716535433070866
        },
        {
          "duration": 0.7708321000000069,
          "durationTicks": 222,
          "midi": 77,
          "name": "F5",
          "ticks": 41040,
          "time": 142.499772,
          "velocity": 0.84251968503937
        },
        {
          "duration": 0.15624975000000063,
          "durationTicks": 45,
          "midi": 69,
          "name": "A4",
          "ticks": 41280,
          "time": 143.333104,
          "velocity": 0.8031496062992126
        },
        {
          "duration": 0.1111109333333502,
          "durationTicks": 32,
          "midi": 70,
          "name": "A#4",
          "ticks": 41320,
          "time": 143.47199266666667,
          "velocity": 0.84251968503937
        },
        {
          "duration": 0.1527775333333352,
          "durationTicks": 44,
          "midi": 72,
          "name": "C5",
          "ticks": 41360,
          "time": 143.61088133333334,
          "velocity": 0.8031496062992126
        },
        {
          "duration": 0.18055526666668698,
          "durationTicks": 52,
          "midi": 69,
          "name": "A4",
          "ticks": 41400,
          "time": 143.74976999999998,
          "velocity": 0.889763779527559
        },
        {
          "duration": 0.12499980000001187,
          "durationTicks": 36,
          "midi": 70,
          "name": "A#4",
          "ticks": 41440,
          "time": 143.88865866666666,
          "velocity": 0.889763779527559
        },
        {
          "duration": 0.15972196666666605,
          "durationTicks": 46,
          "midi": 72,
          "name": "C5",
          "ticks": 41480,
          "time": 144.02754733333333,
          "velocity": 0.84251968503937
        },
        {
          "duration": 0.5034714166666561,
          "durationTicks": 145,
          "midi": 84,
          "name": "C6",
          "ticks": 41520,
          "time": 144.166436,
          "velocity": 0.889763779527559
        },
        {
          "duration": 0.17013861666669072,
          "durationTicks": 49,
          "midi": 84,
          "name": "C6",
          "ticks": 41680,
          "time": 144.72199066666664,
          "velocity": 0.8031496062992126
        },
        {
          "duration": 0.13888866666664512,
          "durationTicks": 40,
          "midi": 79,
          "name": "G5",
          "ticks": 41720,
          "time": 144.86087933333334,
          "velocity": 0.7322834645669292
        },
        {
          "duration": 0.5138880666666807,
          "durationTicks": 148,
          "midi": 76,
          "name": "E5",
          "ticks": 41760,
          "time": 144.999768,
          "velocity": 0.8031496062992126
        },
        {
          "duration": 0.1631941833333599,
          "durationTicks": 47,
          "midi": 79,
          "name": "G5",
          "ticks": 41920,
          "time": 145.55532266666665,
          "velocity": 0.7007874015748031
        },
        {
          "duration": 0.13888866666667354,
          "durationTicks": 40,
          "midi": 76,
          "name": "E5",
          "ticks": 41960,
          "time": 145.69421133333333,
          "velocity": 0.4881889763779528
        },
        {
          "duration": 0.5868046166666829,
          "durationTicks": 169,
          "midi": 74,
          "name": "D5",
          "ticks": 42000,
          "time": 145.8331,
          "velocity": 0.889763779527559
        },
        {
          "duration": 0.1319442333333427,
          "durationTicks": 38,
          "midi": 76,
          "name": "E5",
          "ticks": 42160,
          "time": 146.38865466666664,
          "velocity": 0.5984251968503937
        },
        {
          "duration": 0.12152758333331803,
          "durationTicks": 35,
          "midi": 74,
          "name": "D5",
          "ticks": 42200,
          "time": 146.52754333333334,
          "velocity": 0.7716535433070866
        },
        {
          "duration": 0.524304716666677,
          "durationTicks": 151,
          "midi": 72,
          "name": "C5",
          "ticks": 42240,
          "time": 146.666432,
          "velocity": 0.8031496062992126
        },
        {
          "duration": 0.8368042166666498,
          "durationTicks": 241,
          "midi": 62,
          "name": "D4",
          "ticks": 42480,
          "time": 147.499764,
          "velocity": 0.84251968503937
        },
        {
          "duration": 0.8819430333333571,
          "durationTicks": 254,
          "midi": 65,
          "name": "F4",
          "ticks": 42720,
          "time": 148.33309599999998,
          "velocity": 0.937007874015748
        },
        {
          "duration": 0.3958326999999997,
          "durationTicks": 114,
          "midi": 69,
          "name": "A4",
          "ticks": 42960,
          "time": 149.166428,
          "velocity": 0.889763779527559
        },
        {
          "duration": 0.38888826666666887,
          "durationTicks": 112,
          "midi": 74,
          "name": "D5",
          "ticks": 43080,
          "time": 149.583094,
          "velocity": 0.889763779527559
        },
        {
          "duration": 1.368053366666686,
          "durationTicks": 394,
          "midi": 77,
          "name": "F5",
          "ticks": 43200,
          "time": 149.99975999999998,
          "velocity": 0.889763779527559
        },
        {
          "duration": 0.14236088333331054,
          "durationTicks": 41,
          "midi": 76,
          "name": "E5",
          "ticks": 43640,
          "time": 151.52753533333333,
          "velocity": 0.84251968503937
        },
        {
          "duration": 1.1597203666666758,
          "durationTicks": 334,
          "midi": 74,
          "name": "D5",
          "ticks": 43680,
          "time": 151.666424,
          "velocity": 0.889763779527559
        },
        {
          "duration": 0.6597211666666567,
          "durationTicks": 190,
          "midi": 77,
          "name": "F5",
          "ticks": 44160,
          "time": 153.333088,
          "velocity": 0.889763779527559
        },
        {
          "duration": 0.12499979999998345,
          "durationTicks": 36,
          "midi": 76,
          "name": "E5",
          "ticks": 44360,
          "time": 154.02753133333334,
          "velocity": 0.8031496062992126
        },
        {
          "duration": 0.6249990000000025,
          "durationTicks": 180,
          "midi": 74,
          "name": "D5",
          "ticks": 44400,
          "time": 154.16642,
          "velocity": 0.889763779527559
        },
        {
          "duration": 0.13541645000000813,
          "durationTicks": 39,
          "midi": 72,
          "name": "C5",
          "ticks": 44600,
          "time": 154.86086333333333,
          "velocity": 0.889763779527559
        },
        {
          "duration": 0.5486102333333349,
          "durationTicks": 158,
          "midi": 71,
          "name": "B4",
          "ticks": 44640,
          "time": 154.999752,
          "velocity": 0.84251968503937
        },
        {
          "duration": 0.34722166666665544,
          "durationTicks": 100,
          "midi": 74,
          "name": "D5",
          "ticks": 44880,
          "time": 155.83308399999999,
          "velocity": 0.84251968503937
        },
        {
          "duration": 0.3229161499999691,
          "durationTicks": 93,
          "midi": 74,
          "name": "D5",
          "ticks": 45000,
          "time": 156.24975,
          "velocity": 0.889763779527559
        },
        {
          "duration": 0.8194431333333227,
          "durationTicks": 236,
          "midi": 76,
          "name": "E5",
          "ticks": 45120,
          "time": 156.666416,
          "velocity": 0.8031496062992126
        },
        {
          "duration": 0.4062493500000244,
          "durationTicks": 117,
          "midi": 73,
          "name": "C#5",
          "ticks": 45360,
          "time": 157.49974799999998,
          "velocity": 0.8031496062992126
        },
        {
          "duration": 0.42708264999998846,
          "durationTicks": 123,
          "midi": 69,
          "name": "A4",
          "ticks": 45480,
          "time": 157.916414,
          "velocity": 0.84251968503937
        },
        {
          "duration": 0.7916653999999994,
          "durationTicks": 228,
          "midi": 64,
          "name": "E4",
          "ticks": 45600,
          "time": 158.33308,
          "velocity": 0.889763779527559
        },
        {
          "duration": 0.30902728333333584,
          "durationTicks": 89,
          "midi": 57,
          "name": "A3",
          "ticks": 45840,
          "time": 159.16641199999998,
          "velocity": 0.889763779527559
        },
        {
          "duration": 0.9374985000000038,
          "durationTicks": 270,
          "midi": 57,
          "name": "A3",
          "ticks": 46080,
          "time": 159.999744,
          "velocity": 0.6299212598425197
        },
        {
          "duration": 0.94791515,
          "durationTicks": 273,
          "midi": 50,
          "name": "D3",
          "ticks": 46080,
          "time": 159.999744,
          "velocity": 0.7716535433070866
        },
        {
          "duration": 1.090276033333339,
          "durationTicks": 314,
          "midi": 62,
          "name": "D4",
          "ticks": 46080,
          "time": 159.999744,
          "velocity": 0.84251968503937
        },
        {
          "duration": 0.10069428333335395,
          "durationTicks": 29,
          "midi": 50,
          "name": "D3",
          "ticks": 46400,
          "time": 161.11085333333332,
          "velocity": 0.7716535433070866
        },
        {
          "duration": 0.09027763333332928,
          "durationTicks": 26,
          "midi": 57,
          "name": "A3",
          "ticks": 46400,
          "time": 161.11085333333332,
          "velocity": 0.7716535433070866
        },
        {
          "duration": 0.07986098333333302,
          "durationTicks": 23,
          "midi": 62,
          "name": "D4",
          "ticks": 46440,
          "time": 161.249742,
          "velocity": 0.84251968503937
        },
        {
          "duration": 0.7743043166666723,
          "durationTicks": 223,
          "midi": 48,
          "name": "C3",
          "ticks": 46560,
          "time": 161.666408,
          "velocity": 0.5669291338582677
        },
        {
          "duration": 0.7673598833333131,
          "durationTicks": 221,
          "midi": 41,
          "name": "F2",
          "ticks": 46560,
          "time": 161.666408,
          "velocity": 0.7007874015748031
        },
        {
          "duration": 0.7569432333333452,
          "durationTicks": 218,
          "midi": 53,
          "name": "F3",
          "ticks": 46560,
          "time": 161.666408,
          "velocity": 0.7322834645669292
        },
        {
          "duration": 0.12152758333331803,
          "durationTicks": 35,
          "midi": 41,
          "name": "F2",
          "ticks": 46800,
          "time": 162.49974,
          "velocity": 0.7007874015748031
        },
        {
          "duration": 0.11805536666668104,
          "durationTicks": 34,
          "midi": 48,
          "name": "C3",
          "ticks": 46800,
          "time": 162.49974,
          "velocity": 0.5984251968503937
        },
        {
          "duration": 0.14236088333331054,
          "durationTicks": 41,
          "midi": 53,
          "name": "F3",
          "ticks": 46800,
          "time": 162.49974,
          "velocity": 0.7322834645669292
        },
        {
          "duration": 0.684026683333343,
          "durationTicks": 197,
          "midi": 50,
          "name": "D3",
          "ticks": 47040,
          "time": 163.333072,
          "velocity": 0.5984251968503937
        },
        {
          "duration": 0.6736100333333468,
          "durationTicks": 194,
          "midi": 43,
          "name": "G2",
          "ticks": 47040,
          "time": 163.333072,
          "velocity": 0.6299212598425197
        },
        {
          "duration": 0.684026683333343,
          "durationTicks": 197,
          "midi": 55,
          "name": "G3",
          "ticks": 47040,
          "time": 163.333072,
          "velocity": 0.7007874015748031
        },
        {
          "duration": 0.1145831499999872,
          "durationTicks": 33,
          "midi": 55,
          "name": "G3",
          "ticks": 47280,
          "time": 164.166404,
          "velocity": 0.7322834645669292
        },
        {
          "duration": 0.10069428333332553,
          "durationTicks": 29,
          "midi": 50,
          "name": "D3",
          "ticks": 47280,
          "time": 164.166404,
          "velocity": 0.7007874015748031
        },
        {
          "duration": 0.14236088333331054,
          "durationTicks": 41,
          "midi": 43,
          "name": "G2",
          "ticks": 47280,
          "time": 164.166404,
          "velocity": 0.6692913385826772
        },
        {
          "duration": 0.6562489499999913,
          "durationTicks": 189,
          "midi": 53,
          "name": "F3",
          "ticks": 47520,
          "time": 164.99973599999998,
          "velocity": 0.5669291338582677
        },
        {
          "duration": 0.6770822500000122,
          "durationTicks": 195,
          "midi": 58,
          "name": "A#3",
          "ticks": 47520,
          "time": 164.99973599999998,
          "velocity": 0.7007874015748031
        },
        {
          "duration": 0.60416570000001,
          "durationTicks": 174,
          "midi": 46,
          "name": "A#2",
          "ticks": 47520,
          "time": 164.99973599999998,
          "velocity": 0.7007874015748031
        },
        {
          "duration": 0.09027763333332928,
          "durationTicks": 26,
          "midi": 53,
          "name": "F3",
          "ticks": 47760,
          "time": 165.833068,
          "velocity": 0.5669291338582677
        },
        {
          "duration": 0.10763871666665636,
          "durationTicks": 31,
          "midi": 58,
          "name": "A#3",
          "ticks": 47760,
          "time": 165.833068,
          "velocity": 0.7007874015748031
        },
        {
          "duration": 0.10763871666665636,
          "durationTicks": 31,
          "midi": 46,
          "name": "A#2",
          "ticks": 47760,
          "time": 165.833068,
          "velocity": 0.6692913385826772
        },
        {
          "duration": 0.9374985000000038,
          "durationTicks": 270,
          "midi": 57,
          "name": "A3",
          "ticks": 48000,
          "time": 166.66639999999998,
          "velocity": 0.6299212598425197
        },
        {
          "duration": 0.94791515,
          "durationTicks": 273,
          "midi": 50,
          "name": "D3",
          "ticks": 48000,
          "time": 166.66639999999998,
          "velocity": 0.7716535433070866
        },
        {
          "duration": 1.090276033333339,
          "durationTicks": 314,
          "midi": 62,
          "name": "D4",
          "ticks": 48000,
          "time": 166.66639999999998,
          "velocity": 0.84251968503937
        },
        {
          "duration": 0.10069428333332553,
          "durationTicks": 29,
          "midi": 50,
          "name": "D3",
          "ticks": 48320,
          "time": 167.77750933333334,
          "velocity": 0.7716535433070866
        },
        {
          "duration": 0.09027763333330086,
          "durationTicks": 26,
          "midi": 57,
          "name": "A3",
          "ticks": 48320,
          "time": 167.77750933333334,
          "velocity": 0.7716535433070866
        },
        {
          "duration": 0.07986098333333302,
          "durationTicks": 23,
          "midi": 62,
          "name": "D4",
          "ticks": 48360,
          "time": 167.916398,
          "velocity": 0.84251968503937
        },
        {
          "duration": 0.7743043166666723,
          "durationTicks": 223,
          "midi": 48,
          "name": "C3",
          "ticks": 48480,
          "time": 168.33306399999998,
          "velocity": 0.5669291338582677
        },
        {
          "duration": 0.7673598833333415,
          "durationTicks": 221,
          "midi": 41,
          "name": "F2",
          "ticks": 48480,
          "time": 168.33306399999998,
          "velocity": 0.7007874015748031
        },
        {
          "duration": 0.7569432333333452,
          "durationTicks": 218,
          "midi": 53,
          "name": "F3",
          "ticks": 48480,
          "time": 168.33306399999998,
          "velocity": 0.7322834645669292
        },
        {
          "duration": 0.12152758333334646,
          "durationTicks": 35,
          "midi": 41,
          "name": "F2",
          "ticks": 48720,
          "time": 169.166396,
          "velocity": 0.7007874015748031
        },
        {
          "duration": 0.11805536666668104,
          "durationTicks": 34,
          "midi": 48,
          "name": "C3",
          "ticks": 48720,
          "time": 169.166396,
          "velocity": 0.5984251968503937
        },
        {
          "duration": 0.14236088333331054,
          "durationTicks": 41,
          "midi": 53,
          "name": "F3",
          "ticks": 48720,
          "time": 169.166396,
          "velocity": 0.7322834645669292
        },
        {
          "duration": 0.6840266833333146,
          "durationTicks": 197,
          "midi": 50,
          "name": "D3",
          "ticks": 48960,
          "time": 169.999728,
          "velocity": 0.5984251968503937
        },
        {
          "duration": 0.6736100333333184,
          "durationTicks": 194,
          "midi": 43,
          "name": "G2",
          "ticks": 48960,
          "time": 169.999728,
          "velocity": 0.6299212598425197
        },
        {
          "duration": 0.6840266833333146,
          "durationTicks": 197,
          "midi": 55,
          "name": "G3",
          "ticks": 48960,
          "time": 169.999728,
          "velocity": 0.7007874015748031
        },
        {
          "duration": 0.1145831499999872,
          "durationTicks": 33,
          "midi": 55,
          "name": "G3",
          "ticks": 49200,
          "time": 170.83306,
          "velocity": 0.7322834645669292
        },
        {
          "duration": 0.10069428333332553,
          "durationTicks": 29,
          "midi": 50,
          "name": "D3",
          "ticks": 49200,
          "time": 170.83306,
          "velocity": 0.7007874015748031
        },
        {
          "duration": 0.14236088333333896,
          "durationTicks": 41,
          "midi": 43,
          "name": "G2",
          "ticks": 49200,
          "time": 170.83306,
          "velocity": 0.6692913385826772
        },
        {
          "duration": 0.6562489499999913,
          "durationTicks": 189,
          "midi": 53,
          "name": "F3",
          "ticks": 49440,
          "time": 171.666392,
          "velocity": 0.5669291338582677
        },
        {
          "duration": 0.6770822499999838,
          "durationTicks": 195,
          "midi": 58,
          "name": "A#3",
          "ticks": 49440,
          "time": 171.666392,
          "velocity": 0.7007874015748031
        },
        {
          "duration": 0.6041656999999816,
          "durationTicks": 174,
          "midi": 46,
          "name": "A#2",
          "ticks": 49440,
          "time": 171.666392,
          "velocity": 0.7007874015748031
        },
        {
          "duration": 0.09027763333332928,
          "durationTicks": 26,
          "midi": 53,
          "name": "F3",
          "ticks": 49680,
          "time": 172.499724,
          "velocity": 0.5669291338582677
        },
        {
          "duration": 0.10763871666665636,
          "durationTicks": 31,
          "midi": 58,
          "name": "A#3",
          "ticks": 49680,
          "time": 172.499724,
          "velocity": 0.7007874015748031
        },
        {
          "duration": 0.10763871666665636,
          "durationTicks": 31,
          "midi": 46,
          "name": "A#2",
          "ticks": 49680,
          "time": 172.499724,
          "velocity": 0.6692913385826772
        },
        {
          "duration": 0.989581749999985,
          "durationTicks": 285,
          "midi": 57,
          "name": "A3",
          "ticks": 49920,
          "time": 173.333056,
          "velocity": 0.5984251968503937
        },
        {
          "duration": 1.0937482500000044,
          "durationTicks": 315,
          "midi": 50,
          "name": "D3",
          "ticks": 49920,
          "time": 173.333056,
          "velocity": 0.7322834645669292
        },
        {
          "duration": 0.12499980000001187,
          "durationTicks": 36,
          "midi": 62,
          "name": "D4",
          "ticks": 50040,
          "time": 173.749722,
          "velocity": 0.5984251968503937
        },
        {
          "duration": 0.15972196666666605,
          "durationTicks": 46,
          "midi": 65,
          "name": "F4",
          "ticks": 50040,
          "time": 173.749722,
          "velocity": 0.6692913385826772
        },
        {
          "duration": 0.09722206666666011,
          "durationTicks": 28,
          "midi": 62,
          "name": "D4",
          "ticks": 50280,
          "time": 174.583054,
          "velocity": 0.6299212598425197
        },
        {
          "duration": 0.08333319999997002,
          "durationTicks": 24,
          "midi": 65,
          "name": "F4",
          "ticks": 50280,
          "time": 174.583054,
          "velocity": 0.7007874015748031
        },
        {
          "duration": 0.10763871666665636,
          "durationTicks": 31,
          "midi": 69,
          "name": "A4",
          "ticks": 50280,
          "time": 174.583054,
          "velocity": 0.7322834645669292
        },
        {
          "duration": 0.9374985000000038,
          "durationTicks": 270,
          "midi": 41,
          "name": "F2",
          "ticks": 50400,
          "time": 174.99972,
          "velocity": 0.7322834645669292
        },
        {
          "duration": 0.12499980000001187,
          "durationTicks": 36,
          "midi": 53,
          "name": "F3",
          "ticks": 50520,
          "time": 175.416386,
          "velocity": 0.5039370078740157
        },
        {
          "duration": 0.11805536666668104,
          "durationTicks": 34,
          "midi": 57,
          "name": "A3",
          "ticks": 50520,
          "time": 175.416386,
          "velocity": 0.6692913385826772
        },
        {
          "duration": 0.13888866666667354,
          "durationTicks": 40,
          "midi": 60,
          "name": "C4",
          "ticks": 50520,
          "time": 175.416386,
          "velocity": 0.7007874015748031
        },
        {
          "duration": 0.09027763333330086,
          "durationTicks": 26,
          "midi": 53,
          "name": "F3",
          "ticks": 50760,
          "time": 176.249718,
          "velocity": 0.4881889763779528
        },
        {
          "duration": 0.10069428333332553,
          "durationTicks": 29,
          "midi": 57,
          "name": "A3",
          "ticks": 50760,
          "time": 176.249718,
          "velocity": 0.7007874015748031
        },
        {
          "duration": 0.11805536666668104,
          "durationTicks": 34,
          "midi": 60,
          "name": "C4",
          "ticks": 50760,
          "time": 176.249718,
          "velocity": 0.7007874015748031
        },
        {
          "duration": 0.8333319999999844,
          "durationTicks": 240,
          "midi": 43,
          "name": "G2",
          "ticks": 50880,
          "time": 176.666384,
          "velocity": 0.7322834645669292
        },
        {
          "duration": 0.16319418333333147,
          "durationTicks": 47,
          "midi": 55,
          "name": "G3",
          "ticks": 51000,
          "time": 177.08305,
          "velocity": 0.7322834645669292
        },
        {
          "duration": 0.21527743333334115,
          "durationTicks": 62,
          "midi": 55,
          "name": "G3",
          "ticks": 51120,
          "time": 177.49971599999998,
          "velocity": 0.4645669291338583
        },
        {
          "duration": 0.14583310000000438,
          "durationTicks": 42,
          "midi": 43,
          "name": "G2",
          "ticks": 51200,
          "time": 177.77749333333333,
          "velocity": 0.6692913385826772
        },
        {
          "duration": 0.15624975000000063,
          "durationTicks": 45,
          "midi": 55,
          "name": "G3",
          "ticks": 51240,
          "time": 177.916382,
          "velocity": 0.7322834645669292
        },
        {
          "duration": 0.15624975000000063,
          "durationTicks": 45,
          "midi": 46,
          "name": "A#2",
          "ticks": 51360,
          "time": 178.333048,
          "velocity": 0.7322834645669292
        },
        {
          "duration": 0.12499979999998345,
          "durationTicks": 36,
          "midi": 58,
          "name": "A#3",
          "ticks": 51400,
          "time": 178.47193666666666,
          "velocity": 0.5669291338582677
        },
        {
          "duration": 0.1145831499999872,
          "durationTicks": 33,
          "midi": 46,
          "name": "A#2",
          "ticks": 51440,
          "time": 178.61082533333334,
          "velocity": 0.6299212598425197
        },
        {
          "duration": 0.2569440333333546,
          "durationTicks": 74,
          "midi": 58,
          "name": "A#3",
          "ticks": 51480,
          "time": 178.74971399999998,
          "velocity": 0.84251968503937
        },
        {
          "duration": 0.09027763333330086,
          "durationTicks": 26,
          "midi": 46,
          "name": "A#2",
          "ticks": 51600,
          "time": 179.16638,
          "velocity": 0.7716535433070866
        },
        {
          "duration": 0.6527767333333259,
          "durationTicks": 188,
          "midi": 57,
          "name": "A3",
          "ticks": 51840,
          "time": 179.999712,
          "velocity": 0.7007874015748031
        },
        {
          "duration": 0.6493045166666604,
          "durationTicks": 187,
          "midi": 50,
          "name": "D3",
          "ticks": 51840,
          "time": 179.999712,
          "velocity": 0.7716535433070866
        },
        {
          "duration": 0.7152766333333318,
          "durationTicks": 206,
          "midi": 62,
          "name": "D4",
          "ticks": 51840,
          "time": 179.999712,
          "velocity": 0.7716535433070866
        },
        {
          "duration": 0.09027763333330086,
          "durationTicks": 26,
          "midi": 57,
          "name": "A3",
          "ticks": 52080,
          "time": 180.833044,
          "velocity": 0.7007874015748031
        },
        {
          "duration": 0.10069428333332553,
          "durationTicks": 29,
          "midi": 50,
          "name": "D3",
          "ticks": 52080,
          "time": 180.833044,
          "velocity": 0.7716535433070866
        },
        {
          "duration": 0.08333319999999844,
          "durationTicks": 24,
          "midi": 62,
          "name": "D4",
          "ticks": 52200,
          "time": 181.24971,
          "velocity": 0.7322834645669292
        },
        {
          "duration": 0.4166659999999922,
          "durationTicks": 120,
          "midi": 41,
          "name": "F2",
          "ticks": 52320,
          "time": 181.66637599999999,
          "velocity": 0.7007874015748031
        },
        {
          "duration": 0.3715271833333418,
          "durationTicks": 107,
          "midi": 48,
          "name": "C3",
          "ticks": 52320,
          "time": 181.66637599999999,
          "velocity": 0.7007874015748031
        },
        {
          "duration": 0.14236088333333896,
          "durationTicks": 41,
          "midi": 53,
          "name": "F3",
          "ticks": 52440,
          "time": 182.08304199999998,
          "velocity": 0.5354330708661418
        },
        {
          "duration": 0.1319442333333427,
          "durationTicks": 38,
          "midi": 60,
          "name": "C4",
          "ticks": 52440,
          "time": 182.08304199999998,
          "velocity": 0.6692913385826772
        },
        {
          "duration": 0.13541645000000813,
          "durationTicks": 39,
          "midi": 57,
          "name": "A3",
          "ticks": 52440,
          "time": 182.08304199999998,
          "velocity": 0.6299212598425197
        },
        {
          "duration": 0.12499979999995503,
          "durationTicks": 36,
          "midi": 41,
          "name": "F2",
          "ticks": 52640,
          "time": 182.77748533333335,
          "velocity": 0.7007874015748031
        },
        {
          "duration": 0.09374985000002312,
          "durationTicks": 27,
          "midi": 53,
          "name": "F3",
          "ticks": 52680,
          "time": 182.916374,
          "velocity": 0.5669291338582677
        },
        {
          "duration": 0.09374985000002312,
          "durationTicks": 27,
          "midi": 57,
          "name": "A3",
          "ticks": 52680,
          "time": 182.916374,
          "velocity": 0.7322834645669292
        },
        {
          "duration": 0.10763871666665636,
          "durationTicks": 31,
          "midi": 60,
          "name": "C4",
          "ticks": 52680,
          "time": 182.916374,
          "velocity": 0.7007874015748031
        },
        {
          "duration": 0.8298597833333474,
          "durationTicks": 239,
          "midi": 43,
          "name": "G2",
          "ticks": 52800,
          "time": 183.33303999999998,
          "velocity": 0.7716535433070866
        },
        {
          "duration": 0.09027763333330086,
          "durationTicks": 26,
          "midi": 55,
          "name": "G3",
          "ticks": 52920,
          "time": 183.749706,
          "velocity": 0.6299212598425197
        },
        {
          "duration": 0.10069428333332553,
          "durationTicks": 29,
          "midi": 59,
          "name": "B3",
          "ticks": 52920,
          "time": 183.749706,
          "velocity": 0.7322834645669292
        },
        {
          "duration": 0.10069428333332553,
          "durationTicks": 29,
          "midi": 62,
          "name": "D4",
          "ticks": 52920,
          "time": 183.749706,
          "velocity": 0.7322834645669292
        },
        {
          "duration": 0.11111093333332178,
          "durationTicks": 32,
          "midi": 55,
          "name": "G3",
          "ticks": 53040,
          "time": 184.166372,
          "velocity": 0.47244094488188976
        },
        {
          "duration": 0.11458315000001562,
          "durationTicks": 33,
          "midi": 43,
          "name": "G2",
          "ticks": 53100,
          "time": 184.37470499999998,
          "velocity": 0.7322834645669292
        },
        {
          "duration": 0.08333319999999844,
          "durationTicks": 24,
          "midi": 55,
          "name": "G3",
          "ticks": 53160,
          "time": 184.583038,
          "velocity": 0.5984251968503937
        },
        {
          "duration": 0.08333319999999844,
          "durationTicks": 24,
          "midi": 59,
          "name": "B3",
          "ticks": 53160,
          "time": 184.583038,
          "velocity": 0.7322834645669292
        },
        {
          "duration": 0.08680541666666386,
          "durationTicks": 25,
          "midi": 62,
          "name": "D4",
          "ticks": 53160,
          "time": 184.583038,
          "velocity": 0.7007874015748031
        },
        {
          "duration": 0.4722214666666673,
          "durationTicks": 136,
          "midi": 46,
          "name": "A#2",
          "ticks": 53280,
          "time": 184.99970399999998,
          "velocity": 0.7716535433070866
        },
        {
          "duration": 0.1354164499999797,
          "durationTicks": 39,
          "midi": 62,
          "name": "D4",
          "ticks": 53400,
          "time": 185.41637,
          "velocity": 0.8031496062992126
        },
        {
          "duration": 0.15624975000000063,
          "durationTicks": 45,
          "midi": 58,
          "name": "A#3",
          "ticks": 53400,
          "time": 185.41637,
          "velocity": 0.7322834645669292
        },
        {
          "duration": 0.20833300000001032,
          "durationTicks": 60,
          "midi": 62,
          "name": "D4",
          "ticks": 53520,
          "time": 185.833036,
          "velocity": 0.7322834645669292
        },
        {
          "duration": 0.23263851666666824,
          "durationTicks": 67,
          "midi": 58,
          "name": "A#3",
          "ticks": 53520,
          "time": 185.833036,
          "velocity": 0.7322834645669292
        },
        {
          "duration": 0.10416649999999095,
          "durationTicks": 30,
          "midi": 46,
          "name": "A#2",
          "ticks": 53600,
          "time": 186.11081333333334,
          "velocity": 0.84251968503937
        },
        {
          "duration": 0.11805536666668104,
          "durationTicks": 34,
          "midi": 62,
          "name": "D4",
          "ticks": 53640,
          "time": 186.24970199999998,
          "velocity": 0.7716535433070866
        },
        {
          "duration": 0.1145831499999872,
          "durationTicks": 33,
          "midi": 58,
          "name": "A#3",
          "ticks": 53640,
          "time": 186.24970199999998,
          "velocity": 0.6692913385826772
        },
        {
          "duration": 0.9374985000000038,
          "durationTicks": 270,
          "midi": 57,
          "name": "A3",
          "ticks": 53760,
          "time": 186.66636799999998,
          "velocity": 0.6299212598425197
        },
        {
          "duration": 0.94791515,
          "durationTicks": 273,
          "midi": 50,
          "name": "D3",
          "ticks": 53760,
          "time": 186.66636799999998,
          "velocity": 0.7716535433070866
        },
        {
          "duration": 1.090276033333339,
          "durationTicks": 314,
          "midi": 62,
          "name": "D4",
          "ticks": 53760,
          "time": 186.66636799999998,
          "velocity": 0.84251968503937
        },
        {
          "duration": 0.10069428333332553,
          "durationTicks": 29,
          "midi": 50,
          "name": "D3",
          "ticks": 54080,
          "time": 187.77747733333334,
          "velocity": 0.7716535433070866
        },
        {
          "duration": 0.09027763333332928,
          "durationTicks": 26,
          "midi": 57,
          "name": "A3",
          "ticks": 54080,
          "time": 187.77747733333334,
          "velocity": 0.7716535433070866
        },
        {
          "duration": 0.07986098333333302,
          "durationTicks": 23,
          "midi": 62,
          "name": "D4",
          "ticks": 54120,
          "time": 187.91636599999998,
          "velocity": 0.84251968503937
        },
        {
          "duration": 0.7743043166666723,
          "durationTicks": 223,
          "midi": 48,
          "name": "C3",
          "ticks": 54240,
          "time": 188.333032,
          "velocity": 0.5669291338582677
        },
        {
          "duration": 0.7673598833333131,
          "durationTicks": 221,
          "midi": 41,
          "name": "F2",
          "ticks": 54240,
          "time": 188.333032,
          "velocity": 0.7007874015748031
        },
        {
          "duration": 0.7569432333333168,
          "durationTicks": 218,
          "midi": 53,
          "name": "F3",
          "ticks": 54240,
          "time": 188.333032,
          "velocity": 0.7322834645669292
        },
        {
          "duration": 0.12152758333334646,
          "durationTicks": 35,
          "midi": 41,
          "name": "F2",
          "ticks": 54480,
          "time": 189.166364,
          "velocity": 0.7007874015748031
        },
        {
          "duration": 0.11805536666668104,
          "durationTicks": 34,
          "midi": 48,
          "name": "C3",
          "ticks": 54480,
          "time": 189.166364,
          "velocity": 0.5984251968503937
        },
        {
          "duration": 0.14236088333333896,
          "durationTicks": 41,
          "midi": 53,
          "name": "F3",
          "ticks": 54480,
          "time": 189.166364,
          "velocity": 0.7322834645669292
        },
        {
          "duration": 0.6840266833333146,
          "durationTicks": 197,
          "midi": 50,
          "name": "D3",
          "ticks": 54720,
          "time": 189.999696,
          "velocity": 0.5984251968503937
        },
        {
          "duration": 0.6736100333333184,
          "durationTicks": 194,
          "midi": 43,
          "name": "G2",
          "ticks": 54720,
          "time": 189.999696,
          "velocity": 0.6299212598425197
        },
        {
          "duration": 0.6840266833333146,
          "durationTicks": 197,
          "midi": 55,
          "name": "G3",
          "ticks": 54720,
          "time": 189.999696,
          "velocity": 0.7007874015748031
        },
        {
          "duration": 0.1145831499999872,
          "durationTicks": 33,
          "midi": 55,
          "name": "G3",
          "ticks": 54960,
          "time": 190.83302799999998,
          "velocity": 0.7322834645669292
        },
        {
          "duration": 0.10069428333335395,
          "durationTicks": 29,
          "midi": 50,
          "name": "D3",
          "ticks": 54960,
          "time": 190.83302799999998,
          "velocity": 0.7007874015748031
        },
        {
          "duration": 0.14236088333333896,
          "durationTicks": 41,
          "midi": 43,
          "name": "G2",
          "ticks": 54960,
          "time": 190.83302799999998,
          "velocity": 0.6692913385826772
        },
        {
          "duration": 0.6562489499999913,
          "durationTicks": 189,
          "midi": 53,
          "name": "F3",
          "ticks": 55200,
          "time": 191.66636,
          "velocity": 0.5669291338582677
        },
        {
          "duration": 0.6770822499999838,
          "durationTicks": 195,
          "midi": 58,
          "name": "A#3",
          "ticks": 55200,
          "time": 191.66636,
          "velocity": 0.7007874015748031
        },
        {
          "duration": 0.6041656999999816,
          "durationTicks": 174,
          "midi": 46,
          "name": "A#2",
          "ticks": 55200,
          "time": 191.66636,
          "velocity": 0.7007874015748031
        },
        {
          "duration": 0.09027763333332928,
          "durationTicks": 26,
          "midi": 53,
          "name": "F3",
          "ticks": 55440,
          "time": 192.49969199999998,
          "velocity": 0.5669291338582677
        },
        {
          "duration": 0.10763871666668479,
          "durationTicks": 31,
          "midi": 58,
          "name": "A#3",
          "ticks": 55440,
          "time": 192.49969199999998,
          "velocity": 0.7007874015748031
        },
        {
          "duration": 0.10763871666668479,
          "durationTicks": 31,
          "midi": 46,
          "name": "A#2",
          "ticks": 55440,
          "time": 192.49969199999998,
          "velocity": 0.6692913385826772
        },
        {
          "duration": 1.0659705166666527,
          "durationTicks": 307,
          "midi": 50,
          "name": "D3",
          "ticks": 55680,
          "time": 193.333024,
          "velocity": 0.7716535433070866
        },
        {
          "duration": 0.16319418333333147,
          "durationTicks": 47,
          "midi": 62,
          "name": "D4",
          "ticks": 55800,
          "time": 193.74969,
          "velocity": 0.7007874015748031
        },
        {
          "duration": 0.1527775333333352,
          "durationTicks": 44,
          "midi": 65,
          "name": "F4",
          "ticks": 55800,
          "time": 193.74969,
          "velocity": 0.7322834645669292
        },
        {
          "duration": 0.17361083333335614,
          "durationTicks": 50,
          "midi": 69,
          "name": "A4",
          "ticks": 55800,
          "time": 193.74969,
          "velocity": 0.7322834645669292
        },
        {
          "duration": 0.0937498499999947,
          "durationTicks": 27,
          "midi": 62,
          "name": "D4",
          "ticks": 56040,
          "time": 194.583022,
          "velocity": 0.7716535433070866
        },
        {
          "duration": 0.930554066666673,
          "durationTicks": 268,
          "midi": 41,
          "name": "F2",
          "ticks": 56160,
          "time": 194.999688,
          "velocity": 0.7716535433070866
        },
        {
          "duration": 0.16666639999999688,
          "durationTicks": 48,
          "midi": 53,
          "name": "F3",
          "ticks": 56280,
          "time": 195.41635399999998,
          "velocity": 0.5984251968503937
        },
        {
          "duration": 0.1527775333333352,
          "durationTicks": 44,
          "midi": 57,
          "name": "A3",
          "ticks": 56280,
          "time": 195.41635399999998,
          "velocity": 0.7007874015748031
        },
        {
          "duration": 0.15624975000000063,
          "durationTicks": 45,
          "midi": 60,
          "name": "C4",
          "ticks": 56280,
          "time": 195.41635399999998,
          "velocity": 0.7716535433070866
        },
        {
          "duration": 0.1284720166666773,
          "durationTicks": 37,
          "midi": 41,
          "name": "F2",
          "ticks": 56480,
          "time": 196.11079733333332,
          "velocity": 0.7007874015748031
        },
        {
          "duration": 0.07986098333333302,
          "durationTicks": 23,
          "midi": 53,
          "name": "F3",
          "ticks": 56520,
          "time": 196.249686,
          "velocity": 0.5984251968503937
        },
        {
          "duration": 0.10763871666665636,
          "durationTicks": 31,
          "midi": 57,
          "name": "A3",
          "ticks": 56520,
          "time": 196.249686,
          "velocity": 0.7007874015748031
        },
        {
          "duration": 0.1354164499999797,
          "durationTicks": 39,
          "midi": 60,
          "name": "C4",
          "ticks": 56520,
          "time": 196.249686,
          "velocity": 0.7007874015748031
        },
        {
          "duration": 1.0069428333333406,
          "durationTicks": 290,
          "midi": 43,
          "name": "G2",
          "ticks": 56640,
          "time": 196.666352,
          "velocity": 0.8031496062992126
        },
        {
          "duration": 0.14236088333333896,
          "durationTicks": 41,
          "midi": 59,
          "name": "B3",
          "ticks": 56760,
          "time": 197.08301799999998,
          "velocity": 0.7716535433070866
        },
        {
          "duration": 0.1458331000000328,
          "durationTicks": 42,
          "midi": 55,
          "name": "G3",
          "ticks": 56760,
          "time": 197.08301799999998,
          "velocity": 0.6692913385826772
        },
        {
          "duration": 0.15972196666666605,
          "durationTicks": 46,
          "midi": 62,
          "name": "D4",
          "ticks": 56760,
          "time": 197.08301799999998,
          "velocity": 0.8031496062992126
        },
        {
          "duration": 0.13888866666664512,
          "durationTicks": 40,
          "midi": 43,
          "name": "G2",
          "ticks": 57000,
          "time": 197.91635,
          "velocity": 0.5984251968503937
        },
        {
          "duration": 0.12499980000001187,
          "durationTicks": 36,
          "midi": 62,
          "name": "D4",
          "ticks": 57000,
          "time": 197.91635,
          "velocity": 0.7716535433070866
        },
        {
          "duration": 0.1145831499999872,
          "durationTicks": 33,
          "midi": 55,
          "name": "G3",
          "ticks": 57000,
          "time": 197.91635,
          "velocity": 0.7007874015748031
        },
        {
          "duration": 0.12499980000001187,
          "durationTicks": 36,
          "midi": 59,
          "name": "B3",
          "ticks": 57000,
          "time": 197.91635,
          "velocity": 0.84251968503937
        },
        {
          "duration": 0.15624975000000063,
          "durationTicks": 45,
          "midi": 65,
          "name": "F4",
          "ticks": 57120,
          "time": 198.333016,
          "velocity": 0.937007874015748
        },
        {
          "duration": 0.1701386166666623,
          "durationTicks": 49,
          "midi": 69,
          "name": "A4",
          "ticks": 57160,
          "time": 198.47190466666666,
          "velocity": 0.5354330708661418
        },
        {
          "duration": 0.1284720166666773,
          "durationTicks": 37,
          "midi": 70,
          "name": "A#4",
          "ticks": 57200,
          "time": 198.61079333333333,
          "velocity": 0.7716535433070866
        },
        {
          "duration": 0.18055526666668698,
          "durationTicks": 52,
          "midi": 74,
          "name": "D5",
          "ticks": 57240,
          "time": 198.74968199999998,
          "velocity": 0.8031496062992126
        },
        {
          "duration": 0.11458315000001562,
          "durationTicks": 33,
          "midi": 70,
          "name": "A#4",
          "ticks": 57280,
          "time": 198.88857066666665,
          "velocity": 0.84251968503937
        },
        {
          "duration": 0.0937498499999947,
          "durationTicks": 27,
          "midi": 69,
          "name": "A4",
          "ticks": 57320,
          "time": 199.02745933333333,
          "velocity": 0.889763779527559
        },
        {
          "duration": 0.14236088333331054,
          "durationTicks": 41,
          "midi": 69,
          "name": "A4",
          "ticks": 57360,
          "time": 199.166348,
          "velocity": 0.937007874015748
        },
        {
          "duration": 0.15624975000000063,
          "durationTicks": 45,
          "midi": 73,
          "name": "C#5",
          "ticks": 57400,
          "time": 199.30523666666664,
          "velocity": 0.84251968503937
        },
        {
          "duration": 0.1284720166666773,
          "durationTicks": 37,
          "midi": 76,
          "name": "E5",
          "ticks": 57440,
          "time": 199.44412533333332,
          "velocity": 0.8031496062992126
        },
        {
          "duration": 0.1493053166666698,
          "durationTicks": 43,
          "midi": 74,
          "name": "D5",
          "ticks": 57480,
          "time": 199.583014,
          "velocity": 0.5039370078740157
        },
        {
          "duration": 0.16319418333333147,
          "durationTicks": 47,
          "midi": 86,
          "name": "D6",
          "ticks": 57480,
          "time": 199.583014,
          "velocity": 0.8031496062992126
        },
        {
          "duration": 0.17013861666669072,
          "durationTicks": 49,
          "midi": 81,
          "name": "A5",
          "ticks": 57480,
          "time": 199.583014,
          "velocity": 0.7716535433070866
        },
        {
          "duration": 0.1909719166666548,
          "durationTicks": 55,
          "midi": 81,
          "name": "A5",
          "ticks": 57560,
          "time": 199.86079133333334,
          "velocity": 0.8031496062992126
        },
        {
          "duration": 0.1736108333332993,
          "durationTicks": 50,
          "midi": 86,
          "name": "D6",
          "ticks": 57560,
          "time": 199.86079133333334,
          "velocity": 0.889763779527559
        },
        {
          "duration": 0.1909719166666548,
          "durationTicks": 55,
          "midi": 74,
          "name": "D5",
          "ticks": 57560,
          "time": 199.86079133333334,
          "velocity": 0.6692913385826772
        }
      ]
    },
    {
      "channel": 0,
      "controlChanges": {
        "0": [
          {
            "number": 0,
            "ticks": 0,
            "time": 0,
            "value": 0
          }
        ],
        "7": [
          {
            "number": 7,
            "ticks": 0,
            "time": 0,
            "value": 0.8188976377952756
          }
        ],
        "10": [
          {
            "number": 10,
            "ticks": 0,
            "time": 0,
            "value": 0.5275590551181102
          }
        ],
        "32": [
          {
            "number": 32,
            "ticks": 0,
            "time": 0,
            "value": 0
          }
        ],
        "91": [
          {
            "number": 91,
            "ticks": 0,
            "time": 0,
            "value": 0.31496062992125984
          }
        ],
        "93": [
          {
            "number": 93,
            "ticks": 0,
            "time": 0,
            "value": 0.2125984251968504
          }
        ]
      },
      "pitchBends": [],
      "instrument": {
        "family": "piano",
        "number": 0,
        "name": "acoustic grand piano"
      },
      "name": "",
      "notes": [],
      "endOfTrackTicks": 57617
    },
    {
      "channel": 4,
      "controlChanges": {
        "64": [
          {
            "number": 64,
            "ticks": 4868,
            "time": 16.902750733333335,
            "value": 1
          },
          {
            "number": 64,
            "ticks": 4911,
            "time": 17.052056049999997,
            "value": 0
          },
          {
            "number": 64,
            "ticks": 4987,
            "time": 17.315944516666665,
            "value": 1
          },
          {
            "number": 64,
            "ticks": 5136,
            "time": 17.833304799999997,
            "value": 0
          },
          {
            "number": 64,
            "ticks": 5203,
            "time": 18.065943316666665,
            "value": 1
          },
          {
            "number": 64,
            "ticks": 5293,
            "time": 18.378442816666666,
            "value": 0
          },
          {
            "number": 64,
            "ticks": 5341,
            "time": 18.545109216666667,
            "value": 1
          },
          {
            "number": 64,
            "ticks": 5485,
            "time": 19.045108416666668,
            "value": 0
          },
          {
            "number": 64,
            "ticks": 5530,
            "time": 19.201358166666665,
            "value": 1
          },
          {
            "number": 64,
            "ticks": 5770,
            "time": 20.034690166666667,
            "value": 0
          },
          {
            "number": 64,
            "ticks": 5806,
            "time": 20.159689966666665,
            "value": 1
          },
          {
            "number": 64,
            "ticks": 5863,
            "time": 20.357606316666665,
            "value": 0
          },
          {
            "number": 64,
            "ticks": 5937,
            "time": 20.61455035,
            "value": 1
          },
          {
            "number": 64,
            "ticks": 6126,
            "time": 21.270799299999997,
            "value": 0
          },
          {
            "number": 64,
            "ticks": 6189,
            "time": 21.48954895,
            "value": 1
          },
          {
            "number": 64,
            "ticks": 6286,
            "time": 21.826353966666666,
            "value": 0
          },
          {
            "number": 64,
            "ticks": 6341,
            "time": 22.01732588333333,
            "value": 1
          },
          {
            "number": 64,
            "ticks": 6608,
            "time": 22.944407733333335,
            "value": 0
          },
          {
            "number": 64,
            "ticks": 6655,
            "time": 23.107601916666667,
            "value": 1
          },
          {
            "number": 64,
            "ticks": 6732,
            "time": 23.3749626,
            "value": 0
          },
          {
            "number": 64,
            "ticks": 6773,
            "time": 23.517323483333335,
            "value": 1
          },
          {
            "number": 64,
            "ticks": 7070,
            "time": 24.54857183333333,
            "value": 0
          },
          {
            "number": 64,
            "ticks": 7113,
            "time": 24.697877149999997,
            "value": 1
          },
          {
            "number": 64,
            "ticks": 7195,
            "time": 24.982598916666667,
            "value": 0
          },
          {
            "number": 64,
            "ticks": 7225,
            "time": 25.086765416666665,
            "value": 1
          },
          {
            "number": 64,
            "ticks": 7327,
            "time": 25.440931516666666,
            "value": 0
          },
          {
            "number": 64,
            "ticks": 7365,
            "time": 25.572875749999998,
            "value": 1
          },
          {
            "number": 64,
            "ticks": 7691,
            "time": 26.704818383333333,
            "value": 0
          },
          {
            "number": 64,
            "ticks": 7742,
            "time": 26.881901433333333,
            "value": 1
          },
          {
            "number": 64,
            "ticks": 7926,
            "time": 27.520789299999997,
            "value": 0
          },
          {
            "number": 64,
            "ticks": 7958,
            "time": 27.63190023333333,
            "value": 1
          },
          {
            "number": 64,
            "ticks": 8168,
            "time": 28.36106573333333,
            "value": 0
          },
          {
            "number": 64,
            "ticks": 8198,
            "time": 28.46523223333333,
            "value": 1
          },
          {
            "number": 64,
            "ticks": 8276,
            "time": 28.736065133333334,
            "value": 0
          },
          {
            "number": 64,
            "ticks": 8323,
            "time": 28.899259316666665,
            "value": 1
          },
          {
            "number": 64,
            "ticks": 8411,
            "time": 29.204814383333332,
            "value": 0
          },
          {
            "number": 64,
            "ticks": 8524,
            "time": 29.597174866666663,
            "value": 1
          },
          {
            "number": 64,
            "ticks": 8639,
            "time": 29.996479783333328,
            "value": 0
          },
          {
            "number": 64,
            "ticks": 8689,
            "time": 30.170090616666666,
            "value": 1
          },
          {
            "number": 64,
            "ticks": 8763,
            "time": 30.42703465,
            "value": 0
          },
          {
            "number": 64,
            "ticks": 8804,
            "time": 30.569395533333328,
            "value": 1
          },
          {
            "number": 64,
            "ticks": 8886,
            "time": 30.8541173,
            "value": 0
          },
          {
            "number": 64,
            "ticks": 8917,
            "time": 30.961756016666666,
            "value": 1
          },
          {
            "number": 64,
            "ticks": 9116,
            "time": 31.652727133333332,
            "value": 0
          },
          {
            "number": 64,
            "ticks": 9161,
            "time": 31.808976883333333,
            "value": 1
          },
          {
            "number": 64,
            "ticks": 9590,
            "time": 33.298557833333334,
            "value": 0
          },
          {
            "number": 64,
            "ticks": 9648,
            "time": 33.4999464,
            "value": 1
          },
          {
            "number": 64,
            "ticks": 9847,
            "time": 34.190917516666666,
            "value": 0
          },
          {
            "number": 64,
            "ticks": 9894,
            "time": 34.3541117,
            "value": 1
          },
          {
            "number": 64,
            "ticks": 10079,
            "time": 34.99647178333333,
            "value": 0
          },
          {
            "number": 64,
            "ticks": 10127,
            "time": 35.16313818333333,
            "value": 1
          },
          {
            "number": 64,
            "ticks": 10530,
            "time": 36.5624415,
            "value": 0
          },
          {
            "number": 64,
            "ticks": 16388,
            "time": 56.902686733333326,
            "value": 1
          },
          {
            "number": 64,
            "ticks": 16431,
            "time": 57.05199205,
            "value": 0
          },
          {
            "number": 64,
            "ticks": 16507,
            "time": 57.31588051666667,
            "value": 1
          },
          {
            "number": 64,
            "ticks": 16656,
            "time": 57.8332408,
            "value": 0
          },
          {
            "number": 64,
            "ticks": 16723,
            "time": 58.06587931666666,
            "value": 1
          },
          {
            "number": 64,
            "ticks": 16813,
            "time": 58.37837881666666,
            "value": 0
          },
          {
            "number": 64,
            "ticks": 16861,
            "time": 58.54504521666666,
            "value": 1
          },
          {
            "number": 64,
            "ticks": 17005,
            "time": 59.04504441666667,
            "value": 0
          },
          {
            "number": 64,
            "ticks": 17050,
            "time": 59.20129416666667,
            "value": 1
          },
          {
            "number": 64,
            "ticks": 17290,
            "time": 60.03462616666667,
            "value": 0
          },
          {
            "number": 64,
            "ticks": 17326,
            "time": 60.15962596666666,
            "value": 1
          },
          {
            "number": 64,
            "ticks": 17383,
            "time": 60.35754231666666,
            "value": 0
          },
          {
            "number": 64,
            "ticks": 17457,
            "time": 60.61448634999999,
            "value": 1
          },
          {
            "number": 64,
            "ticks": 17646,
            "time": 61.270735300000005,
            "value": 0
          },
          {
            "number": 64,
            "ticks": 17709,
            "time": 61.48948494999999,
            "value": 1
          },
          {
            "number": 64,
            "ticks": 17806,
            "time": 61.826289966666664,
            "value": 0
          },
          {
            "number": 64,
            "ticks": 17861,
            "time": 62.01726188333333,
            "value": 1
          },
          {
            "number": 64,
            "ticks": 18128,
            "time": 62.944343733333326,
            "value": 0
          },
          {
            "number": 64,
            "ticks": 18175,
            "time": 63.107537916666665,
            "value": 1
          },
          {
            "number": 64,
            "ticks": 18252,
            "time": 63.374898599999995,
            "value": 0
          },
          {
            "number": 64,
            "ticks": 18293,
            "time": 63.517259483333326,
            "value": 1
          },
          {
            "number": 64,
            "ticks": 18590,
            "time": 64.54850783333333,
            "value": 0
          },
          {
            "number": 64,
            "ticks": 18633,
            "time": 64.69781315,
            "value": 1
          },
          {
            "number": 64,
            "ticks": 18715,
            "time": 64.98253491666667,
            "value": 0
          },
          {
            "number": 64,
            "ticks": 18745,
            "time": 65.08670141666667,
            "value": 1
          },
          {
            "number": 64,
            "ticks": 18847,
            "time": 65.44086751666667,
            "value": 0
          },
          {
            "number": 64,
            "ticks": 18885,
            "time": 65.57281175,
            "value": 1
          },
          {
            "number": 64,
            "ticks": 19211,
            "time": 66.70475438333334,
            "value": 0
          },
          {
            "number": 64,
            "ticks": 19262,
            "time": 66.88183743333333,
            "value": 1
          },
          {
            "number": 64,
            "ticks": 19446,
            "time": 67.5207253,
            "value": 0
          },
          {
            "number": 64,
            "ticks": 19478,
            "time": 67.63183623333333,
            "value": 1
          },
          {
            "number": 64,
            "ticks": 19688,
            "time": 68.36100173333332,
            "value": 0
          },
          {
            "number": 64,
            "ticks": 19718,
            "time": 68.46516823333333,
            "value": 1
          },
          {
            "number": 64,
            "ticks": 19796,
            "time": 68.73600113333333,
            "value": 0
          },
          {
            "number": 64,
            "ticks": 19843,
            "time": 68.89919531666666,
            "value": 1
          },
          {
            "number": 64,
            "ticks": 19931,
            "time": 69.20475038333333,
            "value": 0
          },
          {
            "number": 64,
            "ticks": 20044,
            "time": 69.59711086666667,
            "value": 1
          },
          {
            "number": 64,
            "ticks": 20159,
            "time": 69.99641578333333,
            "value": 0
          },
          {
            "number": 64,
            "ticks": 20209,
            "time": 70.17002661666666,
            "value": 1
          },
          {
            "number": 64,
            "ticks": 20283,
            "time": 70.42697065,
            "value": 0
          },
          {
            "number": 64,
            "ticks": 20324,
            "time": 70.56933153333334,
            "value": 1
          },
          {
            "number": 64,
            "ticks": 20406,
            "time": 70.8540533,
            "value": 0
          },
          {
            "number": 64,
            "ticks": 20437,
            "time": 70.96169201666666,
            "value": 1
          },
          {
            "number": 64,
            "ticks": 20636,
            "time": 71.65266313333333,
            "value": 0
          },
          {
            "number": 64,
            "ticks": 20681,
            "time": 71.80891288333333,
            "value": 1
          },
          {
            "number": 64,
            "ticks": 21110,
            "time": 73.29849383333332,
            "value": 0
          },
          {
            "number": 64,
            "ticks": 21168,
            "time": 73.4998824,
            "value": 1
          },
          {
            "number": 64,
            "ticks": 21367,
            "time": 74.19085351666666,
            "value": 0
          },
          {
            "number": 64,
            "ticks": 21414,
            "time": 74.3540477,
            "value": 1
          },
          {
            "number": 64,
            "ticks": 21599,
            "time": 74.99640778333334,
            "value": 0
          },
          {
            "number": 64,
            "ticks": 21647,
            "time": 75.16307418333334,
            "value": 1
          },
          {
            "number": 64,
            "ticks": 22050,
            "time": 76.5623775,
            "value": 0
          },
          {
            "number": 64,
            "ticks": 22135,
            "time": 76.85751591666667,
            "value": 1
          },
          {
            "number": 64,
            "ticks": 22525,
            "time": 78.21168041666667,
            "value": 0
          },
          {
            "number": 64,
            "ticks": 27440,
            "time": 95.27762533333332,
            "value": 1
          },
          {
            "number": 64,
            "ticks": 27608,
            "time": 95.86095773333332,
            "value": 0
          },
          {
            "number": 64,
            "ticks": 27666,
            "time": 96.0623463,
            "value": 1
          },
          {
            "number": 64,
            "ticks": 27728,
            "time": 96.27762373333333,
            "value": 0
          },
          {
            "number": 64,
            "ticks": 27748,
            "time": 96.34706806666665,
            "value": 1
          },
          {
            "number": 64,
            "ticks": 28325,
            "time": 98.35053708333332,
            "value": 0
          },
          {
            "number": 64,
            "ticks": 28389,
            "time": 98.57275895,
            "value": 1
          },
          {
            "number": 64,
            "ticks": 28572,
            "time": 99.20817459999999,
            "value": 0
          },
          {
            "number": 64,
            "ticks": 28619,
            "time": 99.37136878333334,
            "value": 1
          },
          {
            "number": 64,
            "ticks": 29297,
            "time": 101.72553168333333,
            "value": 0
          },
          {
            "number": 64,
            "ticks": 29357,
            "time": 101.93386468333334,
            "value": 1
          },
          {
            "number": 64,
            "ticks": 30249,
            "time": 105.03108194999999,
            "value": 0
          },
          {
            "number": 64,
            "ticks": 30305,
            "time": 105.22552608333332,
            "value": 1
          },
          {
            "number": 64,
            "ticks": 30725,
            "time": 106.68385708333334,
            "value": 0
          },
          {
            "number": 64,
            "ticks": 30776,
            "time": 106.86094013333332,
            "value": 1
          },
          {
            "number": 64,
            "ticks": 31156,
            "time": 108.18038246666666,
            "value": 0
          },
          {
            "number": 64,
            "ticks": 36800,
            "time": 127.77757333333334,
            "value": 1
          },
          {
            "number": 64,
            "ticks": 36968,
            "time": 128.36090573333334,
            "value": 0
          },
          {
            "number": 64,
            "ticks": 37026,
            "time": 128.5622943,
            "value": 1
          },
          {
            "number": 64,
            "ticks": 37088,
            "time": 128.77757173333333,
            "value": 0
          },
          {
            "number": 64,
            "ticks": 37108,
            "time": 128.84701606666667,
            "value": 1
          },
          {
            "number": 64,
            "ticks": 37685,
            "time": 130.85048508333333,
            "value": 0
          },
          {
            "number": 64,
            "ticks": 37749,
            "time": 131.07270695,
            "value": 1
          },
          {
            "number": 64,
            "ticks": 37932,
            "time": 131.7081226,
            "value": 0
          },
          {
            "number": 64,
            "ticks": 37979,
            "time": 131.87131678333333,
            "value": 1
          },
          {
            "number": 64,
            "ticks": 38657,
            "time": 134.22547968333333,
            "value": 0
          },
          {
            "number": 64,
            "ticks": 38717,
            "time": 134.43381268333331,
            "value": 1
          },
          {
            "number": 64,
            "ticks": 39609,
            "time": 137.53102994999998,
            "value": 0
          },
          {
            "number": 64,
            "ticks": 39665,
            "time": 137.72547408333332,
            "value": 1
          },
          {
            "number": 64,
            "ticks": 40085,
            "time": 139.18380508333334,
            "value": 0
          },
          {
            "number": 64,
            "ticks": 40136,
            "time": 139.3608881333333,
            "value": 1
          },
          {
            "number": 64,
            "ticks": 40516,
            "time": 140.68033046666665,
            "value": 0
          },
          {
            "number": 64,
            "ticks": 57074,
            "time": 198.17329403333332,
            "value": 1
          },
          {
            "number": 64,
            "ticks": 57102,
            "time": 198.2705161,
            "value": 0
          },
          {
            "number": 64,
            "ticks": 57162,
            "time": 198.4788491,
            "value": 1
          },
          {
            "number": 64,
            "ticks": 57176,
            "time": 198.5274601333333,
            "value": 0
          },
          {
            "number": 64,
            "ticks": 57244,
            "time": 198.76357086666667,
            "value": 1
          },
          {
            "number": 64,
            "ticks": 57343,
            "time": 199.10732031666666,
            "value": 0
          },
          {
            "number": 64,
            "ticks": 57402,
            "time": 199.3121811,
            "value": 1
          },
          {
            "number": 64,
            "ticks": 57476,
            "time": 199.5691251333333,
            "value": 0
          }
        ]
      },
      "pitchBends": [],
      "instrument": {
        "family": "guitar",
        "number": 27,
        "name": "electric guitar (clean)"
      },
      "name": "",
      "notes": [
        {
          "duration": 0.1423608833333332,
          "durationTicks": 41,
          "midi": 57,
          "name": "A3",
          "ticks": 1080,
          "time": 3.749994,
          "velocity": 0.5905511811023622
        },
        {
          "duration": 0.12499979999999988,
          "durationTicks": 36,
          "midi": 62,
          "name": "D4",
          "ticks": 1080,
          "time": 3.749994,
          "velocity": 0.7086614173228346
        },
        {
          "duration": 0.12847201666666663,
          "durationTicks": 37,
          "midi": 65,
          "name": "F4",
          "ticks": 1080,
          "time": 3.749994,
          "velocity": 0.6535433070866141
        },
        {
          "duration": 0.09722206666666722,
          "durationTicks": 28,
          "midi": 65,
          "name": "F4",
          "ticks": 1160,
          "time": 4.027771333333333,
          "velocity": 0.6220472440944882
        },
        {
          "duration": 0.11805536666666683,
          "durationTicks": 34,
          "midi": 57,
          "name": "A3",
          "ticks": 1160,
          "time": 4.027771333333333,
          "velocity": 0.5669291338582677
        },
        {
          "duration": 0.12152758333333402,
          "durationTicks": 35,
          "midi": 62,
          "name": "D4",
          "ticks": 1160,
          "time": 4.027771333333333,
          "velocity": 0.7086614173228346
        },
        {
          "duration": 0.11805536666666683,
          "durationTicks": 34,
          "midi": 65,
          "name": "F4",
          "ticks": 1320,
          "time": 4.583326,
          "velocity": 0.6535433070866141
        },
        {
          "duration": 0.12847201666666663,
          "durationTicks": 37,
          "midi": 57,
          "name": "A3",
          "ticks": 1320,
          "time": 4.583326,
          "velocity": 0.6220472440944882
        },
        {
          "duration": 0.11458315000000052,
          "durationTicks": 33,
          "midi": 62,
          "name": "D4",
          "ticks": 1320,
          "time": 4.583326,
          "velocity": 0.7086614173228346
        },
        {
          "duration": 0.11111093333333422,
          "durationTicks": 32,
          "midi": 62,
          "name": "D4",
          "ticks": 1400,
          "time": 4.861103333333332,
          "velocity": 0.7559055118110236
        },
        {
          "duration": 0.10416650000000072,
          "durationTicks": 30,
          "midi": 57,
          "name": "A3",
          "ticks": 1400,
          "time": 4.861103333333332,
          "velocity": 0.6220472440944882
        },
        {
          "duration": 0.11805536666666683,
          "durationTicks": 34,
          "midi": 65,
          "name": "F4",
          "ticks": 1400,
          "time": 4.861103333333332,
          "velocity": 0.6771653543307087
        },
        {
          "duration": 0.11458314999999963,
          "durationTicks": 33,
          "midi": 57,
          "name": "A3",
          "ticks": 1560,
          "time": 5.416658,
          "velocity": 0.5669291338582677
        },
        {
          "duration": 0.12152758333333313,
          "durationTicks": 35,
          "midi": 62,
          "name": "D4",
          "ticks": 1560,
          "time": 5.416658,
          "velocity": 0.6771653543307087
        },
        {
          "duration": 0.12152758333333313,
          "durationTicks": 35,
          "midi": 65,
          "name": "F4",
          "ticks": 1560,
          "time": 5.416658,
          "velocity": 0.6535433070866141
        },
        {
          "duration": 0.3333328000000009,
          "durationTicks": 96,
          "midi": 59,
          "name": "B3",
          "ticks": 1680,
          "time": 5.833323999999999,
          "velocity": 0.7086614173228346
        },
        {
          "duration": 0.3402772333333335,
          "durationTicks": 98,
          "midi": 67,
          "name": "G4",
          "ticks": 1680,
          "time": 5.833323999999999,
          "velocity": 0.7559055118110236
        },
        {
          "duration": 0.347221666666667,
          "durationTicks": 100,
          "midi": 62,
          "name": "D4",
          "ticks": 1680,
          "time": 5.833323999999999,
          "velocity": 0.7559055118110236
        },
        {
          "duration": 0.3715271833333338,
          "durationTicks": 107,
          "midi": 57,
          "name": "A3",
          "ticks": 1800,
          "time": 6.2499899999999995,
          "velocity": 0.6220472440944882
        },
        {
          "duration": 0.3854160500000008,
          "durationTicks": 111,
          "midi": 65,
          "name": "F4",
          "ticks": 1800,
          "time": 6.2499899999999995,
          "velocity": 0.6771653543307087
        },
        {
          "duration": 0.3784716166666664,
          "durationTicks": 109,
          "midi": 60,
          "name": "C4",
          "ticks": 1800,
          "time": 6.2499899999999995,
          "velocity": 0.7559055118110236
        },
        {
          "duration": 0.12847201666666663,
          "durationTicks": 37,
          "midi": 57,
          "name": "A3",
          "ticks": 2040,
          "time": 7.083322,
          "velocity": 0.5669291338582677
        },
        {
          "duration": 0.13194423333333294,
          "durationTicks": 38,
          "midi": 65,
          "name": "F4",
          "ticks": 2040,
          "time": 7.083322,
          "velocity": 0.6220472440944882
        },
        {
          "duration": 0.14583309999999994,
          "durationTicks": 42,
          "midi": 62,
          "name": "D4",
          "ticks": 2040,
          "time": 7.083322,
          "velocity": 0.7086614173228346
        },
        {
          "duration": 0.12152758333333225,
          "durationTicks": 35,
          "midi": 57,
          "name": "A3",
          "ticks": 2120,
          "time": 7.361099333333334,
          "velocity": 0.5669291338582677
        },
        {
          "duration": 0.10763871666666613,
          "durationTicks": 31,
          "midi": 62,
          "name": "D4",
          "ticks": 2120,
          "time": 7.361099333333334,
          "velocity": 0.6535433070866141
        },
        {
          "duration": 0.12152758333333225,
          "durationTicks": 35,
          "midi": 65,
          "name": "F4",
          "ticks": 2120,
          "time": 7.361099333333334,
          "velocity": 0.6771653543307087
        },
        {
          "duration": 0.12847201666666663,
          "durationTicks": 37,
          "midi": 57,
          "name": "A3",
          "ticks": 2280,
          "time": 7.916653999999999,
          "velocity": 0.5905511811023622
        },
        {
          "duration": 0.12499980000000122,
          "durationTicks": 36,
          "midi": 62,
          "name": "D4",
          "ticks": 2280,
          "time": 7.916653999999999,
          "velocity": 0.6771653543307087
        },
        {
          "duration": 0.12847201666666663,
          "durationTicks": 37,
          "midi": 65,
          "name": "F4",
          "ticks": 2280,
          "time": 7.916653999999999,
          "velocity": 0.6220472440944882
        },
        {
          "duration": 0.12499979999999766,
          "durationTicks": 36,
          "midi": 57,
          "name": "A3",
          "ticks": 2360,
          "time": 8.194431333333334,
          "velocity": 0.5905511811023622
        },
        {
          "duration": 0.12499979999999766,
          "durationTicks": 36,
          "midi": 62,
          "name": "D4",
          "ticks": 2360,
          "time": 8.194431333333334,
          "velocity": 0.7086614173228346
        },
        {
          "duration": 0.12847201666666663,
          "durationTicks": 37,
          "midi": 65,
          "name": "F4",
          "ticks": 2360,
          "time": 8.194431333333334,
          "velocity": 0.6535433070866141
        },
        {
          "duration": 0.13541644999999924,
          "durationTicks": 39,
          "midi": 57,
          "name": "A3",
          "ticks": 2520,
          "time": 8.749986,
          "velocity": 0.6220472440944882
        },
        {
          "duration": 0.12152758333333402,
          "durationTicks": 35,
          "midi": 62,
          "name": "D4",
          "ticks": 2520,
          "time": 8.749986,
          "velocity": 0.7086614173228346
        },
        {
          "duration": 0.15277753333333344,
          "durationTicks": 44,
          "midi": 65,
          "name": "F4",
          "ticks": 2520,
          "time": 8.749986,
          "velocity": 0.6771653543307087
        },
        {
          "duration": 0.3159717166666667,
          "durationTicks": 91,
          "midi": 57,
          "name": "A3",
          "ticks": 2640,
          "time": 9.166652,
          "velocity": 0.6535433070866141
        },
        {
          "duration": 0.30902728333333407,
          "durationTicks": 89,
          "midi": 65,
          "name": "F4",
          "ticks": 2640,
          "time": 9.166652,
          "velocity": 0.7086614173228346
        },
        {
          "duration": 0.3333328000000009,
          "durationTicks": 96,
          "midi": 60,
          "name": "C4",
          "ticks": 2640,
          "time": 9.166652,
          "velocity": 0.7086614173228346
        },
        {
          "duration": 0.3263883666666665,
          "durationTicks": 94,
          "midi": 55,
          "name": "G3",
          "ticks": 2760,
          "time": 9.583318,
          "velocity": 0.6535433070866141
        },
        {
          "duration": 0.3298605833333337,
          "durationTicks": 95,
          "midi": 64,
          "name": "E4",
          "ticks": 2760,
          "time": 9.583318,
          "velocity": 0.7559055118110236
        },
        {
          "duration": 0.3229161499999993,
          "durationTicks": 93,
          "midi": 60,
          "name": "C4",
          "ticks": 2760,
          "time": 9.583318,
          "velocity": 0.7086614173228346
        },
        {
          "duration": 0.14236088333333363,
          "durationTicks": 41,
          "midi": 57,
          "name": "A3",
          "ticks": 3000,
          "time": 10.416649999999999,
          "velocity": 0.5905511811023622
        },
        {
          "duration": 0.12499980000000122,
          "durationTicks": 36,
          "midi": 62,
          "name": "D4",
          "ticks": 3000,
          "time": 10.416649999999999,
          "velocity": 0.7086614173228346
        },
        {
          "duration": 0.12847201666666663,
          "durationTicks": 37,
          "midi": 65,
          "name": "F4",
          "ticks": 3000,
          "time": 10.416649999999999,
          "velocity": 0.6535433070866141
        },
        {
          "duration": 0.09722206666666544,
          "durationTicks": 28,
          "midi": 65,
          "name": "F4",
          "ticks": 3080,
          "time": 10.694427333333334,
          "velocity": 0.6220472440944882
        },
        {
          "duration": 0.11805536666666505,
          "durationTicks": 34,
          "midi": 57,
          "name": "A3",
          "ticks": 3080,
          "time": 10.694427333333334,
          "velocity": 0.5669291338582677
        },
        {
          "duration": 0.12152758333333225,
          "durationTicks": 35,
          "midi": 62,
          "name": "D4",
          "ticks": 3080,
          "time": 10.694427333333334,
          "velocity": 0.7086614173228346
        },
        {
          "duration": 0.11805536666666683,
          "durationTicks": 34,
          "midi": 65,
          "name": "F4",
          "ticks": 3240,
          "time": 11.249982,
          "velocity": 0.6535433070866141
        },
        {
          "duration": 0.12847201666666663,
          "durationTicks": 37,
          "midi": 57,
          "name": "A3",
          "ticks": 3240,
          "time": 11.249982,
          "velocity": 0.6220472440944882
        },
        {
          "duration": 0.11458314999999963,
          "durationTicks": 33,
          "midi": 62,
          "name": "D4",
          "ticks": 3240,
          "time": 11.249982,
          "velocity": 0.7086614173228346
        },
        {
          "duration": 0.11111093333333244,
          "durationTicks": 32,
          "midi": 62,
          "name": "D4",
          "ticks": 3320,
          "time": 11.527759333333334,
          "velocity": 0.7559055118110236
        },
        {
          "duration": 0.10416649999999983,
          "durationTicks": 30,
          "midi": 57,
          "name": "A3",
          "ticks": 3320,
          "time": 11.527759333333334,
          "velocity": 0.6220472440944882
        },
        {
          "duration": 0.11805536666666505,
          "durationTicks": 34,
          "midi": 65,
          "name": "F4",
          "ticks": 3320,
          "time": 11.527759333333334,
          "velocity": 0.6771653543307087
        },
        {
          "duration": 0.11458314999999963,
          "durationTicks": 33,
          "midi": 57,
          "name": "A3",
          "ticks": 3480,
          "time": 12.083314,
          "velocity": 0.5669291338582677
        },
        {
          "duration": 0.12152758333333402,
          "durationTicks": 35,
          "midi": 62,
          "name": "D4",
          "ticks": 3480,
          "time": 12.083314,
          "velocity": 0.6771653543307087
        },
        {
          "duration": 0.12152758333333402,
          "durationTicks": 35,
          "midi": 65,
          "name": "F4",
          "ticks": 3480,
          "time": 12.083314,
          "velocity": 0.6535433070866141
        },
        {
          "duration": 0.3333328000000009,
          "durationTicks": 96,
          "midi": 59,
          "name": "B3",
          "ticks": 3600,
          "time": 12.499979999999999,
          "velocity": 0.7086614173228346
        },
        {
          "duration": 0.3402772333333335,
          "durationTicks": 98,
          "midi": 67,
          "name": "G4",
          "ticks": 3600,
          "time": 12.499979999999999,
          "velocity": 0.7559055118110236
        },
        {
          "duration": 0.3472216666666661,
          "durationTicks": 100,
          "midi": 62,
          "name": "D4",
          "ticks": 3600,
          "time": 12.499979999999999,
          "velocity": 0.7559055118110236
        },
        {
          "duration": 0.3715271833333329,
          "durationTicks": 107,
          "midi": 57,
          "name": "A3",
          "ticks": 3720,
          "time": 12.916646,
          "velocity": 0.6220472440944882
        },
        {
          "duration": 0.3854160499999999,
          "durationTicks": 111,
          "midi": 65,
          "name": "F4",
          "ticks": 3720,
          "time": 12.916646,
          "velocity": 0.6771653543307087
        },
        {
          "duration": 0.3784716166666673,
          "durationTicks": 109,
          "midi": 60,
          "name": "C4",
          "ticks": 3720,
          "time": 12.916646,
          "velocity": 0.7559055118110236
        },
        {
          "duration": 0.12847201666666663,
          "durationTicks": 37,
          "midi": 57,
          "name": "A3",
          "ticks": 3960,
          "time": 13.749977999999999,
          "velocity": 0.5669291338582677
        },
        {
          "duration": 0.1319442333333356,
          "durationTicks": 38,
          "midi": 65,
          "name": "F4",
          "ticks": 3960,
          "time": 13.749977999999999,
          "velocity": 0.6220472440944882
        },
        {
          "duration": 0.14583310000000083,
          "durationTicks": 42,
          "midi": 62,
          "name": "D4",
          "ticks": 3960,
          "time": 13.749977999999999,
          "velocity": 0.7086614173228346
        },
        {
          "duration": 0.1215275833333358,
          "durationTicks": 35,
          "midi": 57,
          "name": "A3",
          "ticks": 4040,
          "time": 14.027755333333332,
          "velocity": 0.5669291338582677
        },
        {
          "duration": 0.10763871666666702,
          "durationTicks": 31,
          "midi": 62,
          "name": "D4",
          "ticks": 4040,
          "time": 14.027755333333332,
          "velocity": 0.6535433070866141
        },
        {
          "duration": 0.1215275833333358,
          "durationTicks": 35,
          "midi": 65,
          "name": "F4",
          "ticks": 4040,
          "time": 14.027755333333332,
          "velocity": 0.6771653543307087
        },
        {
          "duration": 0.12847201666666486,
          "durationTicks": 37,
          "midi": 57,
          "name": "A3",
          "ticks": 4200,
          "time": 14.583309999999999,
          "velocity": 0.5905511811023622
        },
        {
          "duration": 0.12499979999999944,
          "durationTicks": 36,
          "midi": 62,
          "name": "D4",
          "ticks": 4200,
          "time": 14.583309999999999,
          "velocity": 0.6771653543307087
        },
        {
          "duration": 0.12847201666666486,
          "durationTicks": 37,
          "midi": 65,
          "name": "F4",
          "ticks": 4200,
          "time": 14.583309999999999,
          "velocity": 0.6220472440944882
        },
        {
          "duration": 0.12499980000000122,
          "durationTicks": 36,
          "midi": 57,
          "name": "A3",
          "ticks": 4280,
          "time": 14.861087333333332,
          "velocity": 0.5905511811023622
        },
        {
          "duration": 0.12499980000000122,
          "durationTicks": 36,
          "midi": 62,
          "name": "D4",
          "ticks": 4280,
          "time": 14.861087333333332,
          "velocity": 0.7086614173228346
        },
        {
          "duration": 0.1284720166666684,
          "durationTicks": 37,
          "midi": 65,
          "name": "F4",
          "ticks": 4280,
          "time": 14.861087333333332,
          "velocity": 0.6535433070866141
        },
        {
          "duration": 0.13541645000000102,
          "durationTicks": 39,
          "midi": 57,
          "name": "A3",
          "ticks": 4440,
          "time": 15.416642,
          "velocity": 0.6220472440944882
        },
        {
          "duration": 0.12152758333333225,
          "durationTicks": 35,
          "midi": 62,
          "name": "D4",
          "ticks": 4440,
          "time": 15.416642,
          "velocity": 0.7086614173228346
        },
        {
          "duration": 0.15277753333333344,
          "durationTicks": 44,
          "midi": 65,
          "name": "F4",
          "ticks": 4440,
          "time": 15.416642,
          "velocity": 0.6771653543307087
        },
        {
          "duration": 0.3159717166666667,
          "durationTicks": 91,
          "midi": 57,
          "name": "A3",
          "ticks": 4560,
          "time": 15.833307999999999,
          "velocity": 0.6535433070866141
        },
        {
          "duration": 0.3090272833333323,
          "durationTicks": 89,
          "midi": 65,
          "name": "F4",
          "ticks": 4560,
          "time": 15.833307999999999,
          "velocity": 0.7086614173228346
        },
        {
          "duration": 0.3333328000000009,
          "durationTicks": 96,
          "midi": 60,
          "name": "C4",
          "ticks": 4560,
          "time": 15.833307999999999,
          "velocity": 0.7086614173228346
        },
        {
          "duration": 0.3263883666666665,
          "durationTicks": 94,
          "midi": 55,
          "name": "G3",
          "ticks": 4680,
          "time": 16.249973999999998,
          "velocity": 0.6535433070866141
        },
        {
          "duration": 0.3298605833333319,
          "durationTicks": 95,
          "midi": 64,
          "name": "E4",
          "ticks": 4680,
          "time": 16.249973999999998,
          "velocity": 0.7559055118110236
        },
        {
          "duration": 0.32291615000000107,
          "durationTicks": 93,
          "midi": 60,
          "name": "C4",
          "ticks": 4680,
          "time": 16.249973999999998,
          "velocity": 0.7086614173228346
        },
        {
          "duration": 0.10763871666666347,
          "durationTicks": 31,
          "midi": 57,
          "name": "A3",
          "ticks": 4800,
          "time": 16.66664,
          "velocity": 0.5354330708661418
        },
        {
          "duration": 0.09374984999999825,
          "durationTicks": 27,
          "midi": 50,
          "name": "D3",
          "ticks": 4800,
          "time": 16.66664,
          "velocity": 0.5905511811023622
        },
        {
          "duration": 0.14236088333333186,
          "durationTicks": 41,
          "midi": 62,
          "name": "D4",
          "ticks": 4840,
          "time": 16.805528666666667,
          "velocity": 0.4094488188976378
        },
        {
          "duration": 0.07986098333333658,
          "durationTicks": 23,
          "midi": 50,
          "name": "D3",
          "ticks": 4880,
          "time": 16.94441733333333,
          "velocity": 0.5039370078740157
        },
        {
          "duration": 0.09722206666666722,
          "durationTicks": 28,
          "midi": 57,
          "name": "A3",
          "ticks": 4880,
          "time": 16.94441733333333,
          "velocity": 0.48031496062992124
        },
        {
          "duration": 0.12152758333333225,
          "durationTicks": 35,
          "midi": 62,
          "name": "D4",
          "ticks": 4920,
          "time": 17.083306,
          "velocity": 0.5905511811023622
        },
        {
          "duration": 0.11111093333333244,
          "durationTicks": 32,
          "midi": 57,
          "name": "A3",
          "ticks": 4960,
          "time": 17.222194666666667,
          "velocity": 0.4015748031496063
        },
        {
          "duration": 0.1041665000000016,
          "durationTicks": 30,
          "midi": 50,
          "name": "D3",
          "ticks": 4960,
          "time": 17.222194666666667,
          "velocity": 0.48031496062992124
        },
        {
          "duration": 0.13541645000000102,
          "durationTicks": 39,
          "midi": 62,
          "name": "D4",
          "ticks": 5000,
          "time": 17.361083333333333,
          "velocity": 0.5905511811023622
        },
        {
          "duration": 0.10416649999999805,
          "durationTicks": 30,
          "midi": 50,
          "name": "D3",
          "ticks": 5040,
          "time": 17.499972,
          "velocity": 0.5039370078740157
        },
        {
          "duration": 0.11805536666666683,
          "durationTicks": 34,
          "midi": 57,
          "name": "A3",
          "ticks": 5040,
          "time": 17.499972,
          "velocity": 0.48031496062992124
        },
        {
          "duration": 0.10763871666666702,
          "durationTicks": 31,
          "midi": 62,
          "name": "D4",
          "ticks": 5080,
          "time": 17.638860666666666,
          "velocity": 0.5039370078740157
        },
        {
          "duration": 0.15277753333333166,
          "durationTicks": 44,
          "midi": 50,
          "name": "D3",
          "ticks": 5120,
          "time": 17.777749333333333,
          "velocity": 0.6220472440944882
        },
        {
          "duration": 0.15972196666666605,
          "durationTicks": 46,
          "midi": 57,
          "name": "A3",
          "ticks": 5120,
          "time": 17.777749333333333,
          "velocity": 0.5905511811023622
        },
        {
          "duration": 0.14583310000000083,
          "durationTicks": 42,
          "midi": 62,
          "name": "D4",
          "ticks": 5160,
          "time": 17.916638,
          "velocity": 0.6535433070866141
        },
        {
          "duration": 0.10069428333333619,
          "durationTicks": 29,
          "midi": 57,
          "name": "A3",
          "ticks": 5200,
          "time": 18.055526666666665,
          "velocity": 0.48031496062992124
        },
        {
          "duration": 0.09374984999999825,
          "durationTicks": 27,
          "midi": 50,
          "name": "D3",
          "ticks": 5200,
          "time": 18.055526666666665,
          "velocity": 0.5905511811023622
        },
        {
          "duration": 0.11458315000000141,
          "durationTicks": 33,
          "midi": 62,
          "name": "D4",
          "ticks": 5240,
          "time": 18.194415333333332,
          "velocity": 0.5905511811023622
        },
        {
          "duration": 0.1423608833333354,
          "durationTicks": 41,
          "midi": 50,
          "name": "D3",
          "ticks": 5280,
          "time": 18.333304,
          "velocity": 0.5905511811023622
        },
        {
          "duration": 0.15972196666666605,
          "durationTicks": 46,
          "midi": 57,
          "name": "A3",
          "ticks": 5280,
          "time": 18.333304,
          "velocity": 0.5905511811023622
        },
        {
          "duration": 0.12847201666666308,
          "durationTicks": 37,
          "midi": 62,
          "name": "D4",
          "ticks": 5320,
          "time": 18.47219266666667,
          "velocity": 0.5905511811023622
        },
        {
          "duration": 0.10069428333333263,
          "durationTicks": 29,
          "midi": 50,
          "name": "D3",
          "ticks": 5360,
          "time": 18.61108133333333,
          "velocity": 0.5039370078740157
        },
        {
          "duration": 0.11111093333333244,
          "durationTicks": 32,
          "midi": 57,
          "name": "A3",
          "ticks": 5360,
          "time": 18.61108133333333,
          "velocity": 0.48031496062992124
        },
        {
          "duration": 0.12152758333333225,
          "durationTicks": 35,
          "midi": 62,
          "name": "D4",
          "ticks": 5400,
          "time": 18.749969999999998,
          "velocity": 0.6535433070866141
        },
        {
          "duration": 0.09722206666666722,
          "durationTicks": 28,
          "midi": 57,
          "name": "A3",
          "ticks": 5440,
          "time": 18.888858666666668,
          "velocity": 0.5039370078740157
        },
        {
          "duration": 0.09027763333332928,
          "durationTicks": 26,
          "midi": 50,
          "name": "D3",
          "ticks": 5440,
          "time": 18.888858666666668,
          "velocity": 0.5354330708661418
        },
        {
          "duration": 0.15972196666666605,
          "durationTicks": 46,
          "midi": 62,
          "name": "D4",
          "ticks": 5480,
          "time": 19.02774733333333,
          "velocity": 0.6220472440944882
        },
        {
          "duration": 0.11458314999999786,
          "durationTicks": 33,
          "midi": 50,
          "name": "D3",
          "ticks": 5520,
          "time": 19.166636,
          "velocity": 0.5039370078740157
        },
        {
          "duration": 0.12847201666666308,
          "durationTicks": 37,
          "midi": 57,
          "name": "A3",
          "ticks": 5520,
          "time": 19.166636,
          "velocity": 0.5354330708661418
        },
        {
          "duration": 0.11111093333333244,
          "durationTicks": 32,
          "midi": 62,
          "name": "D4",
          "ticks": 5560,
          "time": 19.305524666666667,
          "velocity": 0.5669291338582677
        },
        {
          "duration": 0.09722206666666722,
          "durationTicks": 28,
          "midi": 57,
          "name": "A3",
          "ticks": 5600,
          "time": 19.44441333333333,
          "velocity": 0.5039370078740157
        },
        {
          "duration": 0.09027763333333638,
          "durationTicks": 26,
          "midi": 50,
          "name": "D3",
          "ticks": 5600,
          "time": 19.44441333333333,
          "velocity": 0.5905511811023622
        },
        {
          "duration": 0.13541645000000102,
          "durationTicks": 39,
          "midi": 62,
          "name": "D4",
          "ticks": 5640,
          "time": 19.583302,
          "velocity": 0.6220472440944882
        },
        {
          "duration": 0.10069428333333263,
          "durationTicks": 29,
          "midi": 50,
          "name": "D3",
          "ticks": 5680,
          "time": 19.722190666666666,
          "velocity": 0.5669291338582677
        },
        {
          "duration": 0.0659721166666678,
          "durationTicks": 19,
          "midi": 57,
          "name": "A3",
          "ticks": 5680,
          "time": 19.722190666666666,
          "velocity": 0.5669291338582677
        },
        {
          "duration": 0.08333319999999844,
          "durationTicks": 24,
          "midi": 62,
          "name": "D4",
          "ticks": 5720,
          "time": 19.861079333333333,
          "velocity": 0.6535433070866141
        },
        {
          "duration": 0.15624975000000063,
          "durationTicks": 45,
          "midi": 46,
          "name": "A#2",
          "ticks": 5760,
          "time": 19.999968,
          "velocity": 0.5905511811023622
        },
        {
          "duration": 0.08680541666666741,
          "durationTicks": 25,
          "midi": 53,
          "name": "F3",
          "ticks": 5800,
          "time": 20.138856666666666,
          "velocity": 0.2992125984251969
        },
        {
          "duration": 0.09374984999999825,
          "durationTicks": 27,
          "midi": 58,
          "name": "A#3",
          "ticks": 5800,
          "time": 20.138856666666666,
          "velocity": 0.48031496062992124
        },
        {
          "duration": 0.11805536666666683,
          "durationTicks": 34,
          "midi": 62,
          "name": "D4",
          "ticks": 5800,
          "time": 20.138856666666666,
          "velocity": 0.4094488188976378
        },
        {
          "duration": 0.10763871666666702,
          "durationTicks": 31,
          "midi": 46,
          "name": "A#2",
          "ticks": 5840,
          "time": 20.277745333333332,
          "velocity": 0.5905511811023622
        },
        {
          "duration": 0.11458315000000141,
          "durationTicks": 33,
          "midi": 58,
          "name": "A#3",
          "ticks": 5880,
          "time": 20.416634,
          "velocity": 0.36220472440944884
        },
        {
          "duration": 0.12152758333333225,
          "durationTicks": 35,
          "midi": 62,
          "name": "D4",
          "ticks": 5880,
          "time": 20.416634,
          "velocity": 0.5669291338582677
        },
        {
          "duration": 0.12152758333333225,
          "durationTicks": 35,
          "midi": 53,
          "name": "F3",
          "ticks": 5880,
          "time": 20.416634,
          "velocity": 0.4015748031496063
        },
        {
          "duration": 0.16319418333333147,
          "durationTicks": 47,
          "midi": 46,
          "name": "A#2",
          "ticks": 5920,
          "time": 20.55552266666667,
          "velocity": 0.5905511811023622
        },
        {
          "duration": 0.06944433333333677,
          "durationTicks": 20,
          "midi": 58,
          "name": "A#3",
          "ticks": 5960,
          "time": 20.69441133333333,
          "velocity": 0.3779527559055118
        },
        {
          "duration": 0.07986098333333658,
          "durationTicks": 23,
          "midi": 53,
          "name": "F3",
          "ticks": 5960,
          "time": 20.69441133333333,
          "velocity": 0.3700787401574803
        },
        {
          "duration": 0.07291655000000219,
          "durationTicks": 21,
          "midi": 62,
          "name": "D4",
          "ticks": 5960,
          "time": 20.69441133333333,
          "velocity": 0.5039370078740157
        },
        {
          "duration": 0.06944433333333322,
          "durationTicks": 20,
          "midi": 53,
          "name": "F3",
          "ticks": 6000,
          "time": 20.833299999999998,
          "velocity": 0.4094488188976378
        },
        {
          "duration": 0.06944433333333322,
          "durationTicks": 20,
          "midi": 58,
          "name": "A#3",
          "ticks": 6000,
          "time": 20.833299999999998,
          "velocity": 0.48031496062992124
        },
        {
          "duration": 0.08680541666666741,
          "durationTicks": 25,
          "midi": 62,
          "name": "D4",
          "ticks": 6000,
          "time": 20.833299999999998,
          "velocity": 0.6220472440944882
        },
        {
          "duration": 0.10416649999999805,
          "durationTicks": 30,
          "midi": 46,
          "name": "A#2",
          "ticks": 6040,
          "time": 20.972188666666668,
          "velocity": 0.44881889763779526
        },
        {
          "duration": 0.052083249999999026,
          "durationTicks": 15,
          "midi": 53,
          "name": "F3",
          "ticks": 6080,
          "time": 21.11107733333333,
          "velocity": 0.2992125984251969
        },
        {
          "duration": 0.052083249999999026,
          "durationTicks": 15,
          "midi": 58,
          "name": "A#3",
          "ticks": 6080,
          "time": 21.11107733333333,
          "velocity": 0.4094488188976378
        },
        {
          "duration": 0.052083249999999026,
          "durationTicks": 15,
          "midi": 62,
          "name": "D4",
          "ticks": 6080,
          "time": 21.11107733333333,
          "velocity": 0.5354330708661418
        },
        {
          "duration": 0.13888866666666644,
          "durationTicks": 40,
          "midi": 58,
          "name": "A#3",
          "ticks": 6120,
          "time": 21.249966,
          "velocity": 0.48031496062992124
        },
        {
          "duration": 0.14236088333333186,
          "durationTicks": 41,
          "midi": 53,
          "name": "F3",
          "ticks": 6120,
          "time": 21.249966,
          "velocity": 0.3937007874015748
        },
        {
          "duration": 0.13541645000000102,
          "durationTicks": 39,
          "midi": 62,
          "name": "D4",
          "ticks": 6120,
          "time": 21.249966,
          "velocity": 0.5905511811023622
        },
        {
          "duration": 0.13888866666666289,
          "durationTicks": 40,
          "midi": 46,
          "name": "A#2",
          "ticks": 6160,
          "time": 21.388854666666667,
          "velocity": 0.5669291338582677
        },
        {
          "duration": 0.11805536666667038,
          "durationTicks": 34,
          "midi": 53,
          "name": "F3",
          "ticks": 6200,
          "time": 21.52774333333333,
          "velocity": 0.3700787401574803
        },
        {
          "duration": 0.12499980000000477,
          "durationTicks": 36,
          "midi": 62,
          "name": "D4",
          "ticks": 6200,
          "time": 21.52774333333333,
          "velocity": 0.5669291338582677
        },
        {
          "duration": 0.1319442333333356,
          "durationTicks": 38,
          "midi": 58,
          "name": "A#3",
          "ticks": 6200,
          "time": 21.52774333333333,
          "velocity": 0.4094488188976378
        },
        {
          "duration": 0.11805536666666328,
          "durationTicks": 34,
          "midi": 46,
          "name": "A#2",
          "ticks": 6240,
          "time": 21.666632,
          "velocity": 0.5039370078740157
        },
        {
          "duration": 0.15624975000000063,
          "durationTicks": 45,
          "midi": 53,
          "name": "F3",
          "ticks": 6280,
          "time": 21.805520666666666,
          "velocity": 0.2047244094488189
        },
        {
          "duration": 0.16319418333333502,
          "durationTicks": 47,
          "midi": 58,
          "name": "A#3",
          "ticks": 6280,
          "time": 21.805520666666666,
          "velocity": 0.33858267716535434
        },
        {
          "duration": 0.16666640000000044,
          "durationTicks": 48,
          "midi": 62,
          "name": "D4",
          "ticks": 6280,
          "time": 21.805520666666666,
          "velocity": 0.48031496062992124
        },
        {
          "duration": 0.17013861666666585,
          "durationTicks": 49,
          "midi": 46,
          "name": "A#2",
          "ticks": 6320,
          "time": 21.944409333333333,
          "velocity": 0.5905511811023622
        },
        {
          "duration": 0.13541645000000102,
          "durationTicks": 39,
          "midi": 58,
          "name": "A#3",
          "ticks": 6360,
          "time": 22.083298,
          "velocity": 0.48031496062992124
        },
        {
          "duration": 0.13888866666666644,
          "durationTicks": 40,
          "midi": 53,
          "name": "F3",
          "ticks": 6360,
          "time": 22.083298,
          "velocity": 0.4015748031496063
        },
        {
          "duration": 0.1319442333333356,
          "durationTicks": 38,
          "midi": 62,
          "name": "D4",
          "ticks": 6360,
          "time": 22.083298,
          "velocity": 0.5905511811023622
        },
        {
          "duration": 0.10069428333333619,
          "durationTicks": 29,
          "midi": 46,
          "name": "A#2",
          "ticks": 6400,
          "time": 22.222186666666666,
          "velocity": 0.5039370078740157
        },
        {
          "duration": 0.16319418333333147,
          "durationTicks": 47,
          "midi": 58,
          "name": "A#3",
          "ticks": 6440,
          "time": 22.361075333333332,
          "velocity": 0.44881889763779526
        },
        {
          "duration": 0.17361083333333482,
          "durationTicks": 50,
          "midi": 53,
          "name": "F3",
          "ticks": 6440,
          "time": 22.361075333333332,
          "velocity": 0.4015748031496063
        },
        {
          "duration": 0.15972196666666605,
          "durationTicks": 46,
          "midi": 62,
          "name": "D4",
          "ticks": 6440,
          "time": 22.361075333333332,
          "velocity": 0.5905511811023622
        },
        {
          "duration": 0.12847201666666663,
          "durationTicks": 37,
          "midi": 46,
          "name": "A#2",
          "ticks": 6480,
          "time": 22.499964,
          "velocity": 0.6771653543307087
        },
        {
          "duration": 0.14236088333333186,
          "durationTicks": 41,
          "midi": 53,
          "name": "F3",
          "ticks": 6520,
          "time": 22.638852666666665,
          "velocity": 0.4094488188976378
        },
        {
          "duration": 0.1527775333333352,
          "durationTicks": 44,
          "midi": 62,
          "name": "D4",
          "ticks": 6520,
          "time": 22.638852666666665,
          "velocity": 0.6535433070866141
        },
        {
          "duration": 0.15624975000000063,
          "durationTicks": 45,
          "midi": 58,
          "name": "A#3",
          "ticks": 6520,
          "time": 22.638852666666665,
          "velocity": 0.48031496062992124
        },
        {
          "duration": 0.07986098333333302,
          "durationTicks": 23,
          "midi": 46,
          "name": "A#2",
          "ticks": 6560,
          "time": 22.77774133333333,
          "velocity": 0.6771653543307087
        },
        {
          "duration": 0.29166620000000165,
          "durationTicks": 84,
          "midi": 48,
          "name": "C3",
          "ticks": 6600,
          "time": 22.916629999999998,
          "velocity": 0.7086614173228346
        },
        {
          "duration": 0.1215275833333358,
          "durationTicks": 35,
          "midi": 60,
          "name": "C4",
          "ticks": 6680,
          "time": 23.19440733333333,
          "velocity": 0.48031496062992124
        },
        {
          "duration": 0.1319442333333356,
          "durationTicks": 38,
          "midi": 55,
          "name": "G3",
          "ticks": 6680,
          "time": 23.19440733333333,
          "velocity": 0.48031496062992124
        },
        {
          "duration": 0.26041625000000224,
          "durationTicks": 75,
          "midi": 50,
          "name": "D3",
          "ticks": 6720,
          "time": 23.333295999999997,
          "velocity": 0.7086614173228346
        },
        {
          "duration": 0.09722206666666722,
          "durationTicks": 28,
          "midi": 57,
          "name": "A3",
          "ticks": 6800,
          "time": 23.61107333333333,
          "velocity": 0.4251968503937008
        },
        {
          "duration": 0.09374984999999825,
          "durationTicks": 27,
          "midi": 50,
          "name": "D3",
          "ticks": 6840,
          "time": 23.749962,
          "velocity": 0.6220472440944882
        },
        {
          "duration": 0.11111093333333244,
          "durationTicks": 32,
          "midi": 50,
          "name": "D3",
          "ticks": 6920,
          "time": 24.027739333333333,
          "velocity": 0.48031496062992124
        },
        {
          "duration": 0.08680541666666741,
          "durationTicks": 25,
          "midi": 57,
          "name": "A3",
          "ticks": 6960,
          "time": 24.166628,
          "velocity": 0.3700787401574803
        },
        {
          "duration": 0.09722206666666722,
          "durationTicks": 28,
          "midi": 62,
          "name": "D4",
          "ticks": 6960,
          "time": 24.166628,
          "velocity": 0.5354330708661418
        },
        {
          "duration": 0.0763887666666676,
          "durationTicks": 22,
          "midi": 50,
          "name": "D3",
          "ticks": 7000,
          "time": 24.305516666666666,
          "velocity": 0.48031496062992124
        },
        {
          "duration": 0.17361083333333482,
          "durationTicks": 50,
          "midi": 57,
          "name": "A3",
          "ticks": 7040,
          "time": 24.444405333333332,
          "velocity": 0.4015748031496063
        },
        {
          "duration": 0.18055526666666566,
          "durationTicks": 52,
          "midi": 62,
          "name": "D4",
          "ticks": 7040,
          "time": 24.444405333333332,
          "velocity": 0.5905511811023622
        },
        {
          "duration": 0.15972196666666605,
          "durationTicks": 46,
          "midi": 50,
          "name": "D3",
          "ticks": 7080,
          "time": 24.583294,
          "velocity": 0.6220472440944882
        },
        {
          "duration": 0.12499980000000122,
          "durationTicks": 36,
          "midi": 57,
          "name": "A3",
          "ticks": 7120,
          "time": 24.722182666666665,
          "velocity": 0.33858267716535434
        },
        {
          "duration": 0.13194423333333205,
          "durationTicks": 38,
          "midi": 62,
          "name": "D4",
          "ticks": 7120,
          "time": 24.722182666666665,
          "velocity": 0.4251968503937008
        },
        {
          "duration": 0.1215275833333358,
          "durationTicks": 35,
          "midi": 50,
          "name": "D3",
          "ticks": 7160,
          "time": 24.86107133333333,
          "velocity": 0.5354330708661418
        },
        {
          "duration": 0.12499980000000122,
          "durationTicks": 36,
          "midi": 57,
          "name": "A3",
          "ticks": 7200,
          "time": 24.999959999999998,
          "velocity": 0.3700787401574803
        },
        {
          "duration": 0.12499980000000122,
          "durationTicks": 36,
          "midi": 65,
          "name": "F4",
          "ticks": 7200,
          "time": 24.999959999999998,
          "velocity": 0.48031496062992124
        },
        {
          "duration": 0.12847201666666663,
          "durationTicks": 37,
          "midi": 62,
          "name": "D4",
          "ticks": 7200,
          "time": 24.999959999999998,
          "velocity": 0.48031496062992124
        },
        {
          "duration": 0.09722206666666722,
          "durationTicks": 28,
          "midi": 50,
          "name": "D3",
          "ticks": 7240,
          "time": 25.138848666666668,
          "velocity": 0.48031496062992124
        },
        {
          "duration": 0.09027763333333283,
          "durationTicks": 26,
          "midi": 57,
          "name": "A3",
          "ticks": 7280,
          "time": 25.27773733333333,
          "velocity": 0.36220472440944884
        },
        {
          "duration": 0.11458315000000141,
          "durationTicks": 33,
          "midi": 62,
          "name": "D4",
          "ticks": 7280,
          "time": 25.27773733333333,
          "velocity": 0.5039370078740157
        },
        {
          "duration": 0.12847201666667019,
          "durationTicks": 37,
          "midi": 65,
          "name": "F4",
          "ticks": 7280,
          "time": 25.27773733333333,
          "velocity": 0.48031496062992124
        },
        {
          "duration": 0.12152758333333225,
          "durationTicks": 35,
          "midi": 50,
          "name": "D3",
          "ticks": 7320,
          "time": 25.416625999999997,
          "velocity": 0.5354330708661418
        },
        {
          "duration": 0.13888866666666289,
          "durationTicks": 40,
          "midi": 57,
          "name": "A3",
          "ticks": 7360,
          "time": 25.555514666666667,
          "velocity": 0.4015748031496063
        },
        {
          "duration": 0.14583309999999727,
          "durationTicks": 42,
          "midi": 62,
          "name": "D4",
          "ticks": 7360,
          "time": 25.555514666666667,
          "velocity": 0.48031496062992124
        },
        {
          "duration": 0.10763871666666702,
          "durationTicks": 31,
          "midi": 50,
          "name": "D3",
          "ticks": 7400,
          "time": 25.69440333333333,
          "velocity": 0.5039370078740157
        },
        {
          "duration": 0.12499979999999766,
          "durationTicks": 36,
          "midi": 57,
          "name": "A3",
          "ticks": 7440,
          "time": 25.833292,
          "velocity": 0.4094488188976378
        },
        {
          "duration": 0.13194423333333205,
          "durationTicks": 38,
          "midi": 62,
          "name": "D4",
          "ticks": 7440,
          "time": 25.833292,
          "velocity": 0.5905511811023622
        },
        {
          "duration": 0.08333319999999844,
          "durationTicks": 24,
          "midi": 50,
          "name": "D3",
          "ticks": 7480,
          "time": 25.972180666666667,
          "velocity": 0.5039370078740157
        },
        {
          "duration": 0.1805552666666692,
          "durationTicks": 52,
          "midi": 57,
          "name": "A3",
          "ticks": 7520,
          "time": 26.11106933333333,
          "velocity": 0.4094488188976378
        },
        {
          "duration": 0.1770830500000038,
          "durationTicks": 51,
          "midi": 62,
          "name": "D4",
          "ticks": 7520,
          "time": 26.11106933333333,
          "velocity": 0.6220472440944882
        },
        {
          "duration": 0.09722206666666722,
          "durationTicks": 28,
          "midi": 50,
          "name": "D3",
          "ticks": 7560,
          "time": 26.249958,
          "velocity": 0.5905511811023622
        },
        {
          "duration": 0.12847201666666663,
          "durationTicks": 37,
          "midi": 57,
          "name": "A3",
          "ticks": 7600,
          "time": 26.388846666666666,
          "velocity": 0.4015748031496063
        },
        {
          "duration": 0.13888866666666644,
          "durationTicks": 40,
          "midi": 62,
          "name": "D4",
          "ticks": 7600,
          "time": 26.388846666666666,
          "velocity": 0.5905511811023622
        },
        {
          "duration": 0.0763887666666676,
          "durationTicks": 22,
          "midi": 50,
          "name": "D3",
          "ticks": 7640,
          "time": 26.527735333333332,
          "velocity": 0.5905511811023622
        },
        {
          "duration": 0.4201382166666683,
          "durationTicks": 121,
          "midi": 46,
          "name": "A#2",
          "ticks": 7680,
          "time": 26.666624,
          "velocity": 0.7086614173228346
        },
        {
          "duration": 0.09374984999999825,
          "durationTicks": 27,
          "midi": 58,
          "name": "A#3",
          "ticks": 7800,
          "time": 27.083289999999998,
          "velocity": 0.4015748031496063
        },
        {
          "duration": 0.1041665000000016,
          "durationTicks": 30,
          "midi": 53,
          "name": "F3",
          "ticks": 7800,
          "time": 27.083289999999998,
          "velocity": 0.3700787401574803
        },
        {
          "duration": 0.1041665000000016,
          "durationTicks": 30,
          "midi": 62,
          "name": "D4",
          "ticks": 7800,
          "time": 27.083289999999998,
          "velocity": 0.48031496062992124
        },
        {
          "duration": 0.06944433333333322,
          "durationTicks": 20,
          "midi": 46,
          "name": "A#2",
          "ticks": 7840,
          "time": 27.222178666666665,
          "velocity": 0.5039370078740157
        },
        {
          "duration": 0.1770830499999967,
          "durationTicks": 51,
          "midi": 53,
          "name": "F3",
          "ticks": 7880,
          "time": 27.361067333333335,
          "velocity": 0.3228346456692913
        },
        {
          "duration": 0.19097191666666546,
          "durationTicks": 55,
          "midi": 58,
          "name": "A#3",
          "ticks": 7880,
          "time": 27.361067333333335,
          "velocity": 0.4015748031496063
        },
        {
          "duration": 0.1979163499999963,
          "durationTicks": 57,
          "midi": 62,
          "name": "D4",
          "ticks": 7880,
          "time": 27.361067333333335,
          "velocity": 0.5354330708661418
        },
        {
          "duration": 0.15624975000000063,
          "durationTicks": 45,
          "midi": 46,
          "name": "A#2",
          "ticks": 7920,
          "time": 27.499955999999997,
          "velocity": 0.6771653543307087
        },
        {
          "duration": 0.10416649999999805,
          "durationTicks": 30,
          "midi": 58,
          "name": "A#3",
          "ticks": 7960,
          "time": 27.638844666666664,
          "velocity": 0.3779527559055118
        },
        {
          "duration": 0.08680541666667096,
          "durationTicks": 25,
          "midi": 62,
          "name": "D4",
          "ticks": 7960,
          "time": 27.638844666666664,
          "velocity": 0.3464566929133858
        },
        {
          "duration": 0.10069428333333619,
          "durationTicks": 29,
          "midi": 53,
          "name": "F3",
          "ticks": 7960,
          "time": 27.638844666666664,
          "velocity": 0.31496062992125984
        },
        {
          "duration": 0.10069428333332908,
          "durationTicks": 29,
          "midi": 46,
          "name": "A#2",
          "ticks": 8000,
          "time": 27.777733333333334,
          "velocity": 0.5039370078740157
        },
        {
          "duration": 0.10416649999999805,
          "durationTicks": 30,
          "midi": 53,
          "name": "F3",
          "ticks": 8040,
          "time": 27.916622,
          "velocity": 0.3700787401574803
        },
        {
          "duration": 0.11111093333333244,
          "durationTicks": 32,
          "midi": 58,
          "name": "A#3",
          "ticks": 8040,
          "time": 27.916622,
          "velocity": 0.48031496062992124
        },
        {
          "duration": 0.10416649999999805,
          "durationTicks": 30,
          "midi": 62,
          "name": "D4",
          "ticks": 8040,
          "time": 27.916622,
          "velocity": 0.5669291338582677
        },
        {
          "duration": 0.07291655000000574,
          "durationTicks": 21,
          "midi": 46,
          "name": "A#2",
          "ticks": 8080,
          "time": 28.055510666666663,
          "velocity": 0.48031496062992124
        },
        {
          "duration": 0.1805552666666621,
          "durationTicks": 52,
          "midi": 62,
          "name": "D4",
          "ticks": 8120,
          "time": 28.194399333333333,
          "velocity": 0.5905511811023622
        },
        {
          "duration": 0.19097191666666546,
          "durationTicks": 55,
          "midi": 58,
          "name": "A#3",
          "ticks": 8120,
          "time": 28.194399333333333,
          "velocity": 0.4251968503937008
        },
        {
          "duration": 0.17013861666666585,
          "durationTicks": 49,
          "midi": 53,
          "name": "F3",
          "ticks": 8120,
          "time": 28.194399333333333,
          "velocity": 0.36220472440944884
        },
        {
          "duration": 0.17361083333333482,
          "durationTicks": 50,
          "midi": 46,
          "name": "A#2",
          "ticks": 8160,
          "time": 28.333288,
          "velocity": 0.6771653543307087
        },
        {
          "duration": 0.12499980000000477,
          "durationTicks": 36,
          "midi": 58,
          "name": "A#3",
          "ticks": 8200,
          "time": 28.472176666666662,
          "velocity": 0.4015748031496063
        },
        {
          "duration": 0.12847201666667019,
          "durationTicks": 37,
          "midi": 53,
          "name": "F3",
          "ticks": 8200,
          "time": 28.472176666666662,
          "velocity": 0.36220472440944884
        },
        {
          "duration": 0.11458315000000496,
          "durationTicks": 33,
          "midi": 62,
          "name": "D4",
          "ticks": 8200,
          "time": 28.472176666666662,
          "velocity": 0.5039370078740157
        },
        {
          "duration": 0.12152758333333225,
          "durationTicks": 35,
          "midi": 46,
          "name": "A#2",
          "ticks": 8240,
          "time": 28.611065333333332,
          "velocity": 0.48031496062992124
        },
        {
          "duration": 0.14583309999999727,
          "durationTicks": 42,
          "midi": 53,
          "name": "F3",
          "ticks": 8280,
          "time": 28.749954,
          "velocity": 0.4251968503937008
        },
        {
          "duration": 0.15624975000000063,
          "durationTicks": 45,
          "midi": 58,
          "name": "A#3",
          "ticks": 8280,
          "time": 28.749954,
          "velocity": 0.5354330708661418
        },
        {
          "duration": 0.15277753333333166,
          "durationTicks": 44,
          "midi": 62,
          "name": "D4",
          "ticks": 8280,
          "time": 28.749954,
          "velocity": 0.6220472440944882
        },
        {
          "duration": 0.12847201666667019,
          "durationTicks": 37,
          "midi": 46,
          "name": "A#2",
          "ticks": 8320,
          "time": 28.888842666666662,
          "velocity": 0.6220472440944882
        },
        {
          "duration": 0.1597219666666625,
          "durationTicks": 46,
          "midi": 58,
          "name": "A#3",
          "ticks": 8360,
          "time": 29.027731333333335,
          "velocity": 0.5354330708661418
        },
        {
          "duration": 0.14236088333333186,
          "durationTicks": 41,
          "midi": 62,
          "name": "D4",
          "ticks": 8360,
          "time": 29.027731333333335,
          "velocity": 0.5905511811023622
        },
        {
          "duration": 0.14930531666666624,
          "durationTicks": 43,
          "midi": 53,
          "name": "F3",
          "ticks": 8360,
          "time": 29.027731333333335,
          "velocity": 0.5039370078740157
        },
        {
          "duration": 0.13541645000000102,
          "durationTicks": 39,
          "midi": 46,
          "name": "A#2",
          "ticks": 8400,
          "time": 29.166619999999998,
          "velocity": 0.6535433070866141
        },
        {
          "duration": 0.16666640000000044,
          "durationTicks": 48,
          "midi": 53,
          "name": "F3",
          "ticks": 8440,
          "time": 29.305508666666665,
          "velocity": 0.48031496062992124
        },
        {
          "duration": 0.17013861666666585,
          "durationTicks": 49,
          "midi": 58,
          "name": "A#3",
          "ticks": 8440,
          "time": 29.305508666666665,
          "velocity": 0.48031496062992124
        },
        {
          "duration": 0.17013861666666585,
          "durationTicks": 49,
          "midi": 62,
          "name": "D4",
          "ticks": 8440,
          "time": 29.305508666666665,
          "velocity": 0.6220472440944882
        },
        {
          "duration": 0.1597219666666625,
          "durationTicks": 46,
          "midi": 46,
          "name": "A#2",
          "ticks": 8480,
          "time": 29.444397333333335,
          "velocity": 0.7086614173228346
        },
        {
          "duration": 0.18402748333333463,
          "durationTicks": 53,
          "midi": 58,
          "name": "A#3",
          "ticks": 8520,
          "time": 29.583285999999998,
          "velocity": 0.5039370078740157
        },
        {
          "duration": 0.1805552666666692,
          "durationTicks": 52,
          "midi": 53,
          "name": "F3",
          "ticks": 8520,
          "time": 29.583285999999998,
          "velocity": 0.5039370078740157
        },
        {
          "duration": 0.17013861666666585,
          "durationTicks": 49,
          "midi": 62,
          "name": "D4",
          "ticks": 8520,
          "time": 29.583285999999998,
          "velocity": 0.6220472440944882
        },
        {
          "duration": 0.11111093333333244,
          "durationTicks": 32,
          "midi": 46,
          "name": "A#2",
          "ticks": 8560,
          "time": 29.722174666666664,
          "velocity": 0.5905511811023622
        },
        {
          "duration": 0.14930531666666624,
          "durationTicks": 43,
          "midi": 53,
          "name": "F3",
          "ticks": 8600,
          "time": 29.861063333333334,
          "velocity": 0.4251968503937008
        },
        {
          "duration": 0.17708305000000024,
          "durationTicks": 51,
          "midi": 62,
          "name": "D4",
          "ticks": 8600,
          "time": 29.861063333333334,
          "velocity": 0.5905511811023622
        },
        {
          "duration": 0.17013861666666585,
          "durationTicks": 49,
          "midi": 58,
          "name": "A#3",
          "ticks": 8600,
          "time": 29.861063333333334,
          "velocity": 0.48031496062992124
        },
        {
          "duration": 0.20138856666666527,
          "durationTicks": 58,
          "midi": 43,
          "name": "G2",
          "ticks": 8640,
          "time": 29.999952,
          "velocity": 0.6771653543307087
        },
        {
          "duration": 0.13541645000000102,
          "durationTicks": 39,
          "midi": 58,
          "name": "A#3",
          "ticks": 8680,
          "time": 30.138840666666663,
          "velocity": 0.4251968503937008
        },
        {
          "duration": 0.12847201666666663,
          "durationTicks": 37,
          "midi": 55,
          "name": "G3",
          "ticks": 8680,
          "time": 30.138840666666663,
          "velocity": 0.4015748031496063
        },
        {
          "duration": 0.14583310000000438,
          "durationTicks": 42,
          "midi": 62,
          "name": "D4",
          "ticks": 8680,
          "time": 30.138840666666663,
          "velocity": 0.48031496062992124
        },
        {
          "duration": 0.11805536666666683,
          "durationTicks": 34,
          "midi": 43,
          "name": "G2",
          "ticks": 8720,
          "time": 30.277729333333333,
          "velocity": 0.6220472440944882
        },
        {
          "duration": 0.1597219666666696,
          "durationTicks": 46,
          "midi": 55,
          "name": "G3",
          "ticks": 8760,
          "time": 30.416618,
          "velocity": 0.48031496062992124
        },
        {
          "duration": 0.1597219666666696,
          "durationTicks": 46,
          "midi": 58,
          "name": "A#3",
          "ticks": 8760,
          "time": 30.416618,
          "velocity": 0.48031496062992124
        },
        {
          "duration": 0.16319418333333147,
          "durationTicks": 47,
          "midi": 62,
          "name": "D4",
          "ticks": 8760,
          "time": 30.416618,
          "velocity": 0.5905511811023622
        },
        {
          "duration": 0.11458315000000141,
          "durationTicks": 33,
          "midi": 43,
          "name": "G2",
          "ticks": 8800,
          "time": 30.555506666666663,
          "velocity": 0.6220472440944882
        },
        {
          "duration": 0.17361083333333127,
          "durationTicks": 50,
          "midi": 58,
          "name": "A#3",
          "ticks": 8840,
          "time": 30.694395333333333,
          "velocity": 0.48031496062992124
        },
        {
          "duration": 0.15624975000000063,
          "durationTicks": 45,
          "midi": 55,
          "name": "G3",
          "ticks": 8840,
          "time": 30.694395333333333,
          "velocity": 0.48031496062992124
        },
        {
          "duration": 0.16319418333333502,
          "durationTicks": 47,
          "midi": 62,
          "name": "D4",
          "ticks": 8840,
          "time": 30.694395333333333,
          "velocity": 0.5905511811023622
        },
        {
          "duration": 0.17013861666666585,
          "durationTicks": 49,
          "midi": 43,
          "name": "G2",
          "ticks": 8880,
          "time": 30.833284,
          "velocity": 0.5905511811023622
        },
        {
          "duration": 0.1215275833333358,
          "durationTicks": 35,
          "midi": 58,
          "name": "A#3",
          "ticks": 8920,
          "time": 30.972172666666662,
          "velocity": 0.4015748031496063
        },
        {
          "duration": 0.11111093333333599,
          "durationTicks": 32,
          "midi": 62,
          "name": "D4",
          "ticks": 8920,
          "time": 30.972172666666662,
          "velocity": 0.5354330708661418
        },
        {
          "duration": 0.11458315000000496,
          "durationTicks": 33,
          "midi": 55,
          "name": "G3",
          "ticks": 8920,
          "time": 30.972172666666662,
          "velocity": 0.4015748031496063
        },
        {
          "duration": 0.11805536666666328,
          "durationTicks": 34,
          "midi": 43,
          "name": "G2",
          "ticks": 8960,
          "time": 31.111061333333335,
          "velocity": 0.5354330708661418
        },
        {
          "duration": 0.14930531666666624,
          "durationTicks": 43,
          "midi": 58,
          "name": "A#3",
          "ticks": 9000,
          "time": 31.24995,
          "velocity": 0.5039370078740157
        },
        {
          "duration": 0.13541645000000102,
          "durationTicks": 39,
          "midi": 62,
          "name": "D4",
          "ticks": 9000,
          "time": 31.24995,
          "velocity": 0.6220472440944882
        },
        {
          "duration": 0.14583309999999727,
          "durationTicks": 42,
          "midi": 55,
          "name": "G3",
          "ticks": 9000,
          "time": 31.24995,
          "velocity": 0.48031496062992124
        },
        {
          "duration": 0.11805536666666328,
          "durationTicks": 34,
          "midi": 43,
          "name": "G2",
          "ticks": 9040,
          "time": 31.388838666666665,
          "velocity": 0.5669291338582677
        },
        {
          "duration": 0.13888866666666289,
          "durationTicks": 40,
          "midi": 58,
          "name": "A#3",
          "ticks": 9080,
          "time": 31.527727333333335,
          "velocity": 0.5354330708661418
        },
        {
          "duration": 0.11111093333333244,
          "durationTicks": 32,
          "midi": 55,
          "name": "G3",
          "ticks": 9080,
          "time": 31.527727333333335,
          "velocity": 0.5354330708661418
        },
        {
          "duration": 0.13194423333333205,
          "durationTicks": 38,
          "midi": 62,
          "name": "D4",
          "ticks": 9080,
          "time": 31.527727333333335,
          "velocity": 0.6220472440944882
        },
        {
          "duration": 0.18402748333333108,
          "durationTicks": 53,
          "midi": 45,
          "name": "A2",
          "ticks": 9120,
          "time": 31.666615999999998,
          "velocity": 0.7086614173228346
        },
        {
          "duration": 0.07291655000000219,
          "durationTicks": 21,
          "midi": 57,
          "name": "A3",
          "ticks": 9160,
          "time": 31.805504666666664,
          "velocity": 0.33070866141732286
        },
        {
          "duration": 0.09374984999999825,
          "durationTicks": 27,
          "midi": 45,
          "name": "A2",
          "ticks": 9200,
          "time": 31.944393333333334,
          "velocity": 0.5354330708661418
        },
        {
          "duration": 0.12499979999999766,
          "durationTicks": 36,
          "midi": 61,
          "name": "C#4",
          "ticks": 9240,
          "time": 32.083282,
          "velocity": 0.5669291338582677
        },
        {
          "duration": 0.12152758333333935,
          "durationTicks": 35,
          "midi": 57,
          "name": "A3",
          "ticks": 9240,
          "time": 32.083282,
          "velocity": 0.4251968503937008
        },
        {
          "duration": 0.09027763333333638,
          "durationTicks": 26,
          "midi": 45,
          "name": "A2",
          "ticks": 9280,
          "time": 32.22217066666666,
          "velocity": 0.6220472440944882
        },
        {
          "duration": 0.10763871666666347,
          "durationTicks": 31,
          "midi": 57,
          "name": "A3",
          "ticks": 9320,
          "time": 32.36105933333334,
          "velocity": 0.4251968503937008
        },
        {
          "duration": 0.1145831499999943,
          "durationTicks": 33,
          "midi": 64,
          "name": "E4",
          "ticks": 9320,
          "time": 32.36105933333334,
          "velocity": 0.5905511811023622
        },
        {
          "duration": 0.11805536666665972,
          "durationTicks": 34,
          "midi": 61,
          "name": "C#4",
          "ticks": 9320,
          "time": 32.36105933333334,
          "velocity": 0.5354330708661418
        },
        {
          "duration": 0.0937498500000018,
          "durationTicks": 27,
          "midi": 45,
          "name": "A2",
          "ticks": 9360,
          "time": 32.499947999999996,
          "velocity": 0.5905511811023622
        },
        {
          "duration": 0.0937498500000018,
          "durationTicks": 27,
          "midi": 61,
          "name": "C#4",
          "ticks": 9400,
          "time": 32.63883666666666,
          "velocity": 0.48031496062992124
        },
        {
          "duration": 0.10416649999999805,
          "durationTicks": 30,
          "midi": 57,
          "name": "A3",
          "ticks": 9400,
          "time": 32.63883666666666,
          "velocity": 0.48031496062992124
        },
        {
          "duration": 0.10763871666667058,
          "durationTicks": 31,
          "midi": 64,
          "name": "E4",
          "ticks": 9400,
          "time": 32.63883666666666,
          "velocity": 0.5669291338582677
        },
        {
          "duration": 0.10763871666666347,
          "durationTicks": 31,
          "midi": 45,
          "name": "A2",
          "ticks": 9440,
          "time": 32.777725333333336,
          "velocity": 0.5905511811023622
        },
        {
          "duration": 0.10763871666667058,
          "durationTicks": 31,
          "midi": 64,
          "name": "E4",
          "ticks": 9480,
          "time": 32.916613999999996,
          "velocity": 0.6535433070866141
        },
        {
          "duration": 0.11805536666666683,
          "durationTicks": 34,
          "midi": 61,
          "name": "C#4",
          "ticks": 9480,
          "time": 32.916613999999996,
          "velocity": 0.5905511811023622
        },
        {
          "duration": 0.11111093333333599,
          "durationTicks": 32,
          "midi": 57,
          "name": "A3",
          "ticks": 9480,
          "time": 32.916613999999996,
          "velocity": 0.6220472440944882
        },
        {
          "duration": 0.08680541666667096,
          "durationTicks": 25,
          "midi": 45,
          "name": "A2",
          "ticks": 9520,
          "time": 33.05550266666666,
          "velocity": 0.6220472440944882
        },
        {
          "duration": 0.11805536666666683,
          "durationTicks": 34,
          "midi": 57,
          "name": "A3",
          "ticks": 9560,
          "time": 33.194391333333336,
          "velocity": 0.5354330708661418
        },
        {
          "duration": 0.10069428333332553,
          "durationTicks": 29,
          "midi": 64,
          "name": "E4",
          "ticks": 9560,
          "time": 33.194391333333336,
          "velocity": 0.6220472440944882
        },
        {
          "duration": 0.11111093333332889,
          "durationTicks": 32,
          "midi": 61,
          "name": "C#4",
          "ticks": 9560,
          "time": 33.194391333333336,
          "velocity": 0.6220472440944882
        },
        {
          "duration": 0.1874996999999965,
          "durationTicks": 54,
          "midi": 43,
          "name": "G2",
          "ticks": 9600,
          "time": 33.33328,
          "velocity": 0.6771653543307087
        },
        {
          "duration": 0.055555466666667996,
          "durationTicks": 16,
          "midi": 58,
          "name": "A#3",
          "ticks": 9640,
          "time": 33.47216866666666,
          "velocity": 0.3700787401574803
        },
        {
          "duration": 0.09027763333333638,
          "durationTicks": 26,
          "midi": 55,
          "name": "G3",
          "ticks": 9640,
          "time": 33.47216866666666,
          "velocity": 0.33858267716535434
        },
        {
          "duration": 0.12152758333333935,
          "durationTicks": 35,
          "midi": 62,
          "name": "D4",
          "ticks": 9640,
          "time": 33.47216866666666,
          "velocity": 0.5669291338582677
        },
        {
          "duration": 0.08680541666666386,
          "durationTicks": 25,
          "midi": 43,
          "name": "G2",
          "ticks": 9680,
          "time": 33.611057333333335,
          "velocity": 0.4094488188976378
        },
        {
          "duration": 0.13541645000000102,
          "durationTicks": 39,
          "midi": 58,
          "name": "A#3",
          "ticks": 9720,
          "time": 33.749946,
          "velocity": 0.4015748031496063
        },
        {
          "duration": 0.1319442333333285,
          "durationTicks": 38,
          "midi": 55,
          "name": "G3",
          "ticks": 9720,
          "time": 33.749946,
          "velocity": 0.4094488188976378
        },
        {
          "duration": 0.1319442333333285,
          "durationTicks": 38,
          "midi": 62,
          "name": "D4",
          "ticks": 9720,
          "time": 33.749946,
          "velocity": 0.5669291338582677
        },
        {
          "duration": 0.0937498500000089,
          "durationTicks": 27,
          "midi": 43,
          "name": "G2",
          "ticks": 9760,
          "time": 33.88883466666666,
          "velocity": 0.6220472440944882
        },
        {
          "duration": 0.10069428333333263,
          "durationTicks": 29,
          "midi": 55,
          "name": "G3",
          "ticks": 9800,
          "time": 34.027723333333334,
          "velocity": 0.33070866141732286
        },
        {
          "duration": 0.1319442333333285,
          "durationTicks": 38,
          "midi": 58,
          "name": "A#3",
          "ticks": 9800,
          "time": 34.027723333333334,
          "velocity": 0.48031496062992124
        },
        {
          "duration": 0.12499979999999766,
          "durationTicks": 36,
          "midi": 62,
          "name": "D4",
          "ticks": 9800,
          "time": 34.027723333333334,
          "velocity": 0.5905511811023622
        },
        {
          "duration": 0.1527775333333281,
          "durationTicks": 44,
          "midi": 43,
          "name": "G2",
          "ticks": 9840,
          "time": 34.166612,
          "velocity": 0.7086614173228346
        },
        {
          "duration": 0.14236088333333896,
          "durationTicks": 41,
          "midi": 55,
          "name": "G3",
          "ticks": 9880,
          "time": 34.30550066666666,
          "velocity": 0.48031496062992124
        },
        {
          "duration": 0.16319418333333857,
          "durationTicks": 47,
          "midi": 58,
          "name": "A#3",
          "ticks": 9880,
          "time": 34.30550066666666,
          "velocity": 0.48031496062992124
        },
        {
          "duration": 0.15624975000000063,
          "durationTicks": 45,
          "midi": 62,
          "name": "D4",
          "ticks": 9880,
          "time": 34.30550066666666,
          "velocity": 0.5905511811023622
        },
        {
          "duration": 0.12499979999999766,
          "durationTicks": 36,
          "midi": 43,
          "name": "G2",
          "ticks": 9920,
          "time": 34.44438933333333,
          "velocity": 0.6220472440944882
        },
        {
          "duration": 0.1493053166666627,
          "durationTicks": 43,
          "midi": 58,
          "name": "A#3",
          "ticks": 9960,
          "time": 34.583278,
          "velocity": 0.48031496062992124
        },
        {
          "duration": 0.1319442333333285,
          "durationTicks": 38,
          "midi": 55,
          "name": "G3",
          "ticks": 9960,
          "time": 34.583278,
          "velocity": 0.48031496062992124
        },
        {
          "duration": 0.13541645000000102,
          "durationTicks": 39,
          "midi": 62,
          "name": "D4",
          "ticks": 9960,
          "time": 34.583278,
          "velocity": 0.6220472440944882
        },
        {
          "duration": 0.11805536666665972,
          "durationTicks": 34,
          "midi": 43,
          "name": "G2",
          "ticks": 10000,
          "time": 34.722166666666666,
          "velocity": 0.7086614173228346
        },
        {
          "duration": 0.12152758333333225,
          "durationTicks": 35,
          "midi": 62,
          "name": "D4",
          "ticks": 10040,
          "time": 34.86105533333333,
          "velocity": 0.6220472440944882
        },
        {
          "duration": 0.09722206666666722,
          "durationTicks": 28,
          "midi": 55,
          "name": "G3",
          "ticks": 10040,
          "time": 34.86105533333333,
          "velocity": 0.5354330708661418
        },
        {
          "duration": 0.12499979999999766,
          "durationTicks": 36,
          "midi": 58,
          "name": "A#3",
          "ticks": 10040,
          "time": 34.86105533333333,
          "velocity": 0.5669291338582677
        },
        {
          "duration": 0.20138856666666527,
          "durationTicks": 58,
          "midi": 45,
          "name": "A2",
          "ticks": 10080,
          "time": 34.999944,
          "velocity": 0.6771653543307087
        },
        {
          "duration": 0.10416649999999805,
          "durationTicks": 30,
          "midi": 61,
          "name": "C#4",
          "ticks": 10120,
          "time": 35.138832666666666,
          "velocity": 0.4015748031496063
        },
        {
          "duration": 0.10416649999999805,
          "durationTicks": 30,
          "midi": 64,
          "name": "E4",
          "ticks": 10120,
          "time": 35.138832666666666,
          "velocity": 0.4015748031496063
        },
        {
          "duration": 0.11458315000000141,
          "durationTicks": 33,
          "midi": 57,
          "name": "A3",
          "ticks": 10120,
          "time": 35.138832666666666,
          "velocity": 0.3700787401574803
        },
        {
          "duration": 0.09722206666666722,
          "durationTicks": 28,
          "midi": 45,
          "name": "A2",
          "ticks": 10160,
          "time": 35.27772133333333,
          "velocity": 0.5905511811023622
        },
        {
          "duration": 0.10763871666667058,
          "durationTicks": 31,
          "midi": 64,
          "name": "E4",
          "ticks": 10200,
          "time": 35.41661,
          "velocity": 0.5905511811023622
        },
        {
          "duration": 0.10416649999999805,
          "durationTicks": 30,
          "midi": 61,
          "name": "C#4",
          "ticks": 10200,
          "time": 35.41661,
          "velocity": 0.5905511811023622
        },
        {
          "duration": 0.09027763333333638,
          "durationTicks": 26,
          "midi": 57,
          "name": "A3",
          "ticks": 10200,
          "time": 35.41661,
          "velocity": 0.5039370078740157
        },
        {
          "duration": 0.0763887666666676,
          "durationTicks": 22,
          "midi": 45,
          "name": "A2",
          "ticks": 10240,
          "time": 35.555498666666665,
          "velocity": 0.6220472440944882
        },
        {
          "duration": 0.0937498500000018,
          "durationTicks": 27,
          "midi": 45,
          "name": "A2",
          "ticks": 10280,
          "time": 35.69438733333333,
          "velocity": 0.6220472440944882
        },
        {
          "duration": 0.06249989999999883,
          "durationTicks": 18,
          "midi": 69,
          "name": "A4",
          "ticks": 10360,
          "time": 35.972164666666664,
          "velocity": 0.5905511811023622
        },
        {
          "duration": 0.055555466666667996,
          "durationTicks": 16,
          "midi": 61,
          "name": "C#4",
          "ticks": 10360,
          "time": 35.972164666666664,
          "velocity": 0.44881889763779526
        },
        {
          "duration": 0.059027683333333414,
          "durationTicks": 17,
          "midi": 61,
          "name": "C#4",
          "ticks": 10400,
          "time": 36.11105333333333,
          "velocity": 0.4094488188976378
        },
        {
          "duration": 0.06597211666667135,
          "durationTicks": 19,
          "midi": 69,
          "name": "A4",
          "ticks": 10400,
          "time": 36.11105333333333,
          "velocity": 0.5669291338582677
        },
        {
          "duration": 0.05208325000000258,
          "durationTicks": 15,
          "midi": 61,
          "name": "C#4",
          "ticks": 10440,
          "time": 36.249942,
          "velocity": 0.5905511811023622
        },
        {
          "duration": 0.06944433333333677,
          "durationTicks": 20,
          "midi": 69,
          "name": "A4",
          "ticks": 10440,
          "time": 36.249942,
          "velocity": 0.6771653543307087
        },
        {
          "duration": 0.04861103333333716,
          "durationTicks": 14,
          "midi": 61,
          "name": "C#4",
          "ticks": 10480,
          "time": 36.388830666666664,
          "velocity": 0.5905511811023622
        },
        {
          "duration": 0.06249989999999883,
          "durationTicks": 18,
          "midi": 69,
          "name": "A4",
          "ticks": 10480,
          "time": 36.388830666666664,
          "velocity": 0.6771653543307087
        },
        {
          "duration": 0.05208325000000258,
          "durationTicks": 15,
          "midi": 61,
          "name": "C#4",
          "ticks": 10520,
          "time": 36.52771933333333,
          "velocity": 0.6535433070866141
        },
        {
          "duration": 0.06944433333332967,
          "durationTicks": 20,
          "midi": 69,
          "name": "A4",
          "ticks": 10520,
          "time": 36.52771933333333,
          "velocity": 0.7086614173228346
        },
        {
          "duration": 0.15624975000000063,
          "durationTicks": 45,
          "midi": 57,
          "name": "A3",
          "ticks": 10680,
          "time": 37.083273999999996,
          "velocity": 0.6535433070866141
        },
        {
          "duration": 0.1493053166666698,
          "durationTicks": 43,
          "midi": 65,
          "name": "F4",
          "ticks": 10680,
          "time": 37.083273999999996,
          "velocity": 0.7086614173228346
        },
        {
          "duration": 0.15624975000000063,
          "durationTicks": 45,
          "midi": 62,
          "name": "D4",
          "ticks": 10680,
          "time": 37.083273999999996,
          "velocity": 0.7559055118110236
        },
        {
          "duration": 0.17708304999999314,
          "durationTicks": 51,
          "midi": 57,
          "name": "A3",
          "ticks": 10920,
          "time": 37.916606,
          "velocity": 0.5669291338582677
        },
        {
          "duration": 0.1701386166666623,
          "durationTicks": 49,
          "midi": 65,
          "name": "F4",
          "ticks": 10920,
          "time": 37.916606,
          "velocity": 0.7086614173228346
        },
        {
          "duration": 0.17361083333333482,
          "durationTicks": 50,
          "midi": 62,
          "name": "D4",
          "ticks": 10920,
          "time": 37.916606,
          "velocity": 0.7559055118110236
        },
        {
          "duration": 0.15972196666666605,
          "durationTicks": 46,
          "midi": 60,
          "name": "C4",
          "ticks": 11160,
          "time": 38.749938,
          "velocity": 0.6535433070866141
        },
        {
          "duration": 0.1527775333333281,
          "durationTicks": 44,
          "midi": 65,
          "name": "F4",
          "ticks": 11160,
          "time": 38.749938,
          "velocity": 0.6771653543307087
        },
        {
          "duration": 0.15624975000000063,
          "durationTicks": 45,
          "midi": 69,
          "name": "A4",
          "ticks": 11160,
          "time": 38.749938,
          "velocity": 0.6771653543307087
        },
        {
          "duration": 0.15972196666666605,
          "durationTicks": 46,
          "midi": 65,
          "name": "F4",
          "ticks": 11400,
          "time": 39.58327,
          "velocity": 0.6771653543307087
        },
        {
          "duration": 0.17361083333333482,
          "durationTicks": 50,
          "midi": 60,
          "name": "C4",
          "ticks": 11400,
          "time": 39.58327,
          "velocity": 0.6771653543307087
        },
        {
          "duration": 0.15624975000000063,
          "durationTicks": 45,
          "midi": 69,
          "name": "A4",
          "ticks": 11400,
          "time": 39.58327,
          "velocity": 0.7086614173228346
        },
        {
          "duration": 0.1493053166666698,
          "durationTicks": 43,
          "midi": 55,
          "name": "G3",
          "ticks": 11640,
          "time": 40.416602,
          "velocity": 0.6535433070866141
        },
        {
          "duration": 0.1527775333333281,
          "durationTicks": 44,
          "midi": 62,
          "name": "D4",
          "ticks": 11640,
          "time": 40.416602,
          "velocity": 0.7559055118110236
        },
        {
          "duration": 0.1527775333333281,
          "durationTicks": 44,
          "midi": 59,
          "name": "B3",
          "ticks": 11640,
          "time": 40.416602,
          "velocity": 0.7559055118110236
        },
        {
          "duration": 0.17361083333333482,
          "durationTicks": 50,
          "midi": 62,
          "name": "D4",
          "ticks": 11880,
          "time": 41.249933999999996,
          "velocity": 0.7086614173228346
        },
        {
          "duration": 0.13541645000000102,
          "durationTicks": 39,
          "midi": 55,
          "name": "G3",
          "ticks": 11880,
          "time": 41.249933999999996,
          "velocity": 0.6535433070866141
        },
        {
          "duration": 0.17361083333333482,
          "durationTicks": 50,
          "midi": 59,
          "name": "B3",
          "ticks": 11880,
          "time": 41.249933999999996,
          "velocity": 0.7086614173228346
        },
        {
          "duration": 0.17361083333334193,
          "durationTicks": 50,
          "midi": 58,
          "name": "A#3",
          "ticks": 12120,
          "time": 42.083265999999995,
          "velocity": 0.5669291338582677
        },
        {
          "duration": 0.166666400000004,
          "durationTicks": 48,
          "midi": 62,
          "name": "D4",
          "ticks": 12120,
          "time": 42.083265999999995,
          "velocity": 0.7559055118110236
        },
        {
          "duration": 0.17708305000000024,
          "durationTicks": 51,
          "midi": 65,
          "name": "F4",
          "ticks": 12120,
          "time": 42.083265999999995,
          "velocity": 0.6771653543307087
        },
        {
          "duration": 0.1874996999999965,
          "durationTicks": 54,
          "midi": 58,
          "name": "A#3",
          "ticks": 12360,
          "time": 42.916598,
          "velocity": 0.5669291338582677
        },
        {
          "duration": 0.18402748333333108,
          "durationTicks": 53,
          "midi": 65,
          "name": "F4",
          "ticks": 12360,
          "time": 42.916598,
          "velocity": 0.6535433070866141
        },
        {
          "duration": 0.16666639999999688,
          "durationTicks": 48,
          "midi": 62,
          "name": "D4",
          "ticks": 12360,
          "time": 42.916598,
          "velocity": 0.7559055118110236
        },
        {
          "duration": 0.1874997000000036,
          "durationTicks": 54,
          "midi": 69,
          "name": "A4",
          "ticks": 12600,
          "time": 43.74993,
          "velocity": 0.6220472440944882
        },
        {
          "duration": 0.1874997000000036,
          "durationTicks": 54,
          "midi": 62,
          "name": "D4",
          "ticks": 12600,
          "time": 43.74993,
          "velocity": 0.6535433070866141
        },
        {
          "duration": 0.1909719166666619,
          "durationTicks": 55,
          "midi": 65,
          "name": "F4",
          "ticks": 12600,
          "time": 43.74993,
          "velocity": 0.6771653543307087
        },
        {
          "duration": 0.1527775333333281,
          "durationTicks": 44,
          "midi": 69,
          "name": "A4",
          "ticks": 12840,
          "time": 44.583262,
          "velocity": 0.6771653543307087
        },
        {
          "duration": 0.16319418333333147,
          "durationTicks": 47,
          "midi": 65,
          "name": "F4",
          "ticks": 12840,
          "time": 44.583262,
          "velocity": 0.7086614173228346
        },
        {
          "duration": 0.17708305000000024,
          "durationTicks": 51,
          "midi": 62,
          "name": "D4",
          "ticks": 12840,
          "time": 44.583262,
          "velocity": 0.6535433070866141
        },
        {
          "duration": 0.18402748333333108,
          "durationTicks": 53,
          "midi": 53,
          "name": "F3",
          "ticks": 13080,
          "time": 45.416593999999996,
          "velocity": 0.6220472440944882
        },
        {
          "duration": 0.17361083333333482,
          "durationTicks": 50,
          "midi": 57,
          "name": "A3",
          "ticks": 13080,
          "time": 45.416593999999996,
          "velocity": 0.7086614173228346
        },
        {
          "duration": 0.1701386166666694,
          "durationTicks": 49,
          "midi": 60,
          "name": "C4",
          "ticks": 13080,
          "time": 45.416593999999996,
          "velocity": 0.7086614173228346
        },
        {
          "duration": 0.18402748333333818,
          "durationTicks": 53,
          "midi": 60,
          "name": "C4",
          "ticks": 13320,
          "time": 46.249925999999995,
          "velocity": 0.6771653543307087
        },
        {
          "duration": 0.166666400000004,
          "durationTicks": 48,
          "midi": 53,
          "name": "F3",
          "ticks": 13320,
          "time": 46.249925999999995,
          "velocity": 0.6771653543307087
        },
        {
          "duration": 0.19444413333333443,
          "durationTicks": 56,
          "midi": 57,
          "name": "A3",
          "ticks": 13320,
          "time": 46.249925999999995,
          "velocity": 0.7086614173228346
        },
        {
          "duration": 0.1701386166666623,
          "durationTicks": 49,
          "midi": 62,
          "name": "D4",
          "ticks": 13560,
          "time": 47.083258,
          "velocity": 0.7086614173228346
        },
        {
          "duration": 0.16319418333333147,
          "durationTicks": 47,
          "midi": 55,
          "name": "G3",
          "ticks": 13560,
          "time": 47.083258,
          "velocity": 0.6535433070866141
        },
        {
          "duration": 0.17708304999999314,
          "durationTicks": 51,
          "midi": 59,
          "name": "B3",
          "ticks": 13560,
          "time": 47.083258,
          "velocity": 0.7559055118110236
        },
        {
          "duration": 0.17361083333333482,
          "durationTicks": 50,
          "midi": 62,
          "name": "D4",
          "ticks": 13800,
          "time": 47.91659,
          "velocity": 0.7559055118110236
        },
        {
          "duration": 0.14583309999999727,
          "durationTicks": 42,
          "midi": 55,
          "name": "G3",
          "ticks": 13800,
          "time": 47.91659,
          "velocity": 0.6771653543307087
        },
        {
          "duration": 0.17708305000000024,
          "durationTicks": 51,
          "midi": 59,
          "name": "B3",
          "ticks": 13800,
          "time": 47.91659,
          "velocity": 0.7086614173228346
        },
        {
          "duration": 0.1874997000000036,
          "durationTicks": 54,
          "midi": 65,
          "name": "F4",
          "ticks": 14040,
          "time": 48.749922,
          "velocity": 0.7086614173228346
        },
        {
          "duration": 0.1909719166666619,
          "durationTicks": 55,
          "midi": 58,
          "name": "A#3",
          "ticks": 14040,
          "time": 48.749922,
          "velocity": 0.6535433070866141
        },
        {
          "duration": 0.1701386166666623,
          "durationTicks": 49,
          "midi": 62,
          "name": "D4",
          "ticks": 14040,
          "time": 48.749922,
          "velocity": 0.7559055118110236
        },
        {
          "duration": 0.14236088333333896,
          "durationTicks": 41,
          "midi": 57,
          "name": "A3",
          "ticks": 14520,
          "time": 50.416585999999995,
          "velocity": 0.5905511811023622
        },
        {
          "duration": 0.12499980000000477,
          "durationTicks": 36,
          "midi": 62,
          "name": "D4",
          "ticks": 14520,
          "time": 50.416585999999995,
          "velocity": 0.7086614173228346
        },
        {
          "duration": 0.12847201666667019,
          "durationTicks": 37,
          "midi": 65,
          "name": "F4",
          "ticks": 14520,
          "time": 50.416585999999995,
          "velocity": 0.6535433070866141
        },
        {
          "duration": 0.09722206666666722,
          "durationTicks": 28,
          "midi": 65,
          "name": "F4",
          "ticks": 14600,
          "time": 50.694363333333335,
          "velocity": 0.6220472440944882
        },
        {
          "duration": 0.11805536666666683,
          "durationTicks": 34,
          "midi": 57,
          "name": "A3",
          "ticks": 14600,
          "time": 50.694363333333335,
          "velocity": 0.5669291338582677
        },
        {
          "duration": 0.12152758333332514,
          "durationTicks": 35,
          "midi": 62,
          "name": "D4",
          "ticks": 14600,
          "time": 50.694363333333335,
          "velocity": 0.7086614173228346
        },
        {
          "duration": 0.11805536666665972,
          "durationTicks": 34,
          "midi": 65,
          "name": "F4",
          "ticks": 14760,
          "time": 51.249918,
          "velocity": 0.6535433070866141
        },
        {
          "duration": 0.12847201666666308,
          "durationTicks": 37,
          "midi": 57,
          "name": "A3",
          "ticks": 14760,
          "time": 51.249918,
          "velocity": 0.6220472440944882
        },
        {
          "duration": 0.11458315000000141,
          "durationTicks": 33,
          "midi": 62,
          "name": "D4",
          "ticks": 14760,
          "time": 51.249918,
          "velocity": 0.7086614173228346
        },
        {
          "duration": 0.11111093333332889,
          "durationTicks": 32,
          "midi": 62,
          "name": "D4",
          "ticks": 14840,
          "time": 51.527695333333334,
          "velocity": 0.7559055118110236
        },
        {
          "duration": 0.10416649999999805,
          "durationTicks": 30,
          "midi": 57,
          "name": "A3",
          "ticks": 14840,
          "time": 51.527695333333334,
          "velocity": 0.6220472440944882
        },
        {
          "duration": 0.11805536666666683,
          "durationTicks": 34,
          "midi": 65,
          "name": "F4",
          "ticks": 14840,
          "time": 51.527695333333334,
          "velocity": 0.6771653543307087
        },
        {
          "duration": 0.11458315000000141,
          "durationTicks": 33,
          "midi": 57,
          "name": "A3",
          "ticks": 15000,
          "time": 52.08325,
          "velocity": 0.5669291338582677
        },
        {
          "duration": 0.12152758333333225,
          "durationTicks": 35,
          "midi": 62,
          "name": "D4",
          "ticks": 15000,
          "time": 52.08325,
          "velocity": 0.6771653543307087
        },
        {
          "duration": 0.12152758333333225,
          "durationTicks": 35,
          "midi": 65,
          "name": "F4",
          "ticks": 15000,
          "time": 52.08325,
          "velocity": 0.6535433070866141
        },
        {
          "duration": 0.3333328000000009,
          "durationTicks": 96,
          "midi": 59,
          "name": "B3",
          "ticks": 15120,
          "time": 52.499916,
          "velocity": 0.7086614173228346
        },
        {
          "duration": 0.3402772333333317,
          "durationTicks": 98,
          "midi": 67,
          "name": "G4",
          "ticks": 15120,
          "time": 52.499916,
          "velocity": 0.7559055118110236
        },
        {
          "duration": 0.34722166666666254,
          "durationTicks": 100,
          "midi": 62,
          "name": "D4",
          "ticks": 15120,
          "time": 52.499916,
          "velocity": 0.7559055118110236
        },
        {
          "duration": 0.3715271833333347,
          "durationTicks": 107,
          "midi": 57,
          "name": "A3",
          "ticks": 15240,
          "time": 52.916582,
          "velocity": 0.6220472440944882
        },
        {
          "duration": 0.38541604999999635,
          "durationTicks": 111,
          "midi": 65,
          "name": "F4",
          "ticks": 15240,
          "time": 52.916582,
          "velocity": 0.6771653543307087
        },
        {
          "duration": 0.3784716166666655,
          "durationTicks": 109,
          "midi": 60,
          "name": "C4",
          "ticks": 15240,
          "time": 52.916582,
          "velocity": 0.7559055118110236
        },
        {
          "duration": 0.12847201666667019,
          "durationTicks": 37,
          "midi": 57,
          "name": "A3",
          "ticks": 15480,
          "time": 53.749914,
          "velocity": 0.5669291338582677
        },
        {
          "duration": 0.1319442333333356,
          "durationTicks": 38,
          "midi": 65,
          "name": "F4",
          "ticks": 15480,
          "time": 53.749914,
          "velocity": 0.6220472440944882
        },
        {
          "duration": 0.14583309999999727,
          "durationTicks": 42,
          "midi": 62,
          "name": "D4",
          "ticks": 15480,
          "time": 53.749914,
          "velocity": 0.7086614173228346
        },
        {
          "duration": 0.12152758333333935,
          "durationTicks": 35,
          "midi": 57,
          "name": "A3",
          "ticks": 15560,
          "time": 54.02769133333333,
          "velocity": 0.5669291338582677
        },
        {
          "duration": 0.10763871666667058,
          "durationTicks": 31,
          "midi": 62,
          "name": "D4",
          "ticks": 15560,
          "time": 54.02769133333333,
          "velocity": 0.6535433070866141
        },
        {
          "duration": 0.12152758333333935,
          "durationTicks": 35,
          "midi": 65,
          "name": "F4",
          "ticks": 15560,
          "time": 54.02769133333333,
          "velocity": 0.6771653543307087
        },
        {
          "duration": 0.12847201666667019,
          "durationTicks": 37,
          "midi": 57,
          "name": "A3",
          "ticks": 15720,
          "time": 54.583245999999995,
          "velocity": 0.5905511811023622
        },
        {
          "duration": 0.12499980000000477,
          "durationTicks": 36,
          "midi": 62,
          "name": "D4",
          "ticks": 15720,
          "time": 54.583245999999995,
          "velocity": 0.6771653543307087
        },
        {
          "duration": 0.12847201666667019,
          "durationTicks": 37,
          "midi": 65,
          "name": "F4",
          "ticks": 15720,
          "time": 54.583245999999995,
          "velocity": 0.6220472440944882
        },
        {
          "duration": 0.12499980000000477,
          "durationTicks": 36,
          "midi": 57,
          "name": "A3",
          "ticks": 15800,
          "time": 54.86102333333333,
          "velocity": 0.5905511811023622
        },
        {
          "duration": 0.12499980000000477,
          "durationTicks": 36,
          "midi": 62,
          "name": "D4",
          "ticks": 15800,
          "time": 54.86102333333333,
          "velocity": 0.7086614173228346
        },
        {
          "duration": 0.12847201666667019,
          "durationTicks": 37,
          "midi": 65,
          "name": "F4",
          "ticks": 15800,
          "time": 54.86102333333333,
          "velocity": 0.6535433070866141
        },
        {
          "duration": 0.13541645000000102,
          "durationTicks": 39,
          "midi": 57,
          "name": "A3",
          "ticks": 15960,
          "time": 55.416577999999994,
          "velocity": 0.6220472440944882
        },
        {
          "duration": 0.12152758333333225,
          "durationTicks": 35,
          "midi": 62,
          "name": "D4",
          "ticks": 15960,
          "time": 55.416577999999994,
          "velocity": 0.7086614173228346
        },
        {
          "duration": 0.15277753333334232,
          "durationTicks": 44,
          "midi": 65,
          "name": "F4",
          "ticks": 15960,
          "time": 55.416577999999994,
          "velocity": 0.6771653543307087
        },
        {
          "duration": 0.3159717166666596,
          "durationTicks": 91,
          "midi": 57,
          "name": "A3",
          "ticks": 16080,
          "time": 55.833244,
          "velocity": 0.6535433070866141
        },
        {
          "duration": 0.30902728333333584,
          "durationTicks": 89,
          "midi": 65,
          "name": "F4",
          "ticks": 16080,
          "time": 55.833244,
          "velocity": 0.7086614173228346
        },
        {
          "duration": 0.3333328000000009,
          "durationTicks": 96,
          "midi": 60,
          "name": "C4",
          "ticks": 16080,
          "time": 55.833244,
          "velocity": 0.7086614173228346
        },
        {
          "duration": 0.32638836666666293,
          "durationTicks": 94,
          "midi": 55,
          "name": "G3",
          "ticks": 16200,
          "time": 56.24991,
          "velocity": 0.6535433070866141
        },
        {
          "duration": 0.32986058333332835,
          "durationTicks": 95,
          "midi": 64,
          "name": "E4",
          "ticks": 16200,
          "time": 56.24991,
          "velocity": 0.7559055118110236
        },
        {
          "duration": 0.3229161499999975,
          "durationTicks": 93,
          "midi": 60,
          "name": "C4",
          "ticks": 16200,
          "time": 56.24991,
          "velocity": 0.7086614173228346
        },
        {
          "duration": 0.10763871666666347,
          "durationTicks": 31,
          "midi": 57,
          "name": "A3",
          "ticks": 16320,
          "time": 56.666576,
          "velocity": 0.5354330708661418
        },
        {
          "duration": 0.0937498499999947,
          "durationTicks": 27,
          "midi": 50,
          "name": "D3",
          "ticks": 16320,
          "time": 56.666576,
          "velocity": 0.5905511811023622
        },
        {
          "duration": 0.14236088333333896,
          "durationTicks": 41,
          "midi": 62,
          "name": "D4",
          "ticks": 16360,
          "time": 56.805464666666666,
          "velocity": 0.4094488188976378
        },
        {
          "duration": 0.07986098333333302,
          "durationTicks": 23,
          "midi": 50,
          "name": "D3",
          "ticks": 16400,
          "time": 56.944353333333325,
          "velocity": 0.5039370078740157
        },
        {
          "duration": 0.09722206666667432,
          "durationTicks": 28,
          "midi": 57,
          "name": "A3",
          "ticks": 16400,
          "time": 56.944353333333325,
          "velocity": 0.48031496062992124
        },
        {
          "duration": 0.12152758333332514,
          "durationTicks": 35,
          "midi": 62,
          "name": "D4",
          "ticks": 16440,
          "time": 57.083242,
          "velocity": 0.5905511811023622
        },
        {
          "duration": 0.11111093333332889,
          "durationTicks": 32,
          "midi": 57,
          "name": "A3",
          "ticks": 16480,
          "time": 57.222130666666665,
          "velocity": 0.4015748031496063
        },
        {
          "duration": 0.10416650000000516,
          "durationTicks": 30,
          "midi": 50,
          "name": "D3",
          "ticks": 16480,
          "time": 57.222130666666665,
          "velocity": 0.48031496062992124
        },
        {
          "duration": 0.13541645000000813,
          "durationTicks": 39,
          "midi": 62,
          "name": "D4",
          "ticks": 16520,
          "time": 57.361019333333324,
          "velocity": 0.5905511811023622
        },
        {
          "duration": 0.10416649999999805,
          "durationTicks": 30,
          "midi": 50,
          "name": "D3",
          "ticks": 16560,
          "time": 57.499908,
          "velocity": 0.5039370078740157
        },
        {
          "duration": 0.11805536666666683,
          "durationTicks": 34,
          "midi": 57,
          "name": "A3",
          "ticks": 16560,
          "time": 57.499908,
          "velocity": 0.48031496062992124
        },
        {
          "duration": 0.10763871666666347,
          "durationTicks": 31,
          "midi": 62,
          "name": "D4",
          "ticks": 16600,
          "time": 57.63879666666667,
          "velocity": 0.5039370078740157
        },
        {
          "duration": 0.15277753333334232,
          "durationTicks": 44,
          "midi": 50,
          "name": "D3",
          "ticks": 16640,
          "time": 57.777685333333324,
          "velocity": 0.6220472440944882
        },
        {
          "duration": 0.15972196666668026,
          "durationTicks": 46,
          "midi": 57,
          "name": "A3",
          "ticks": 16640,
          "time": 57.777685333333324,
          "velocity": 0.5905511811023622
        },
        {
          "duration": 0.14583309999999727,
          "durationTicks": 42,
          "midi": 62,
          "name": "D4",
          "ticks": 16680,
          "time": 57.916574,
          "velocity": 0.6535433070866141
        },
        {
          "duration": 0.10069428333331842,
          "durationTicks": 29,
          "midi": 57,
          "name": "A3",
          "ticks": 16720,
          "time": 58.05546266666667,
          "velocity": 0.48031496062992124
        },
        {
          "duration": 0.0937498499999947,
          "durationTicks": 27,
          "midi": 50,
          "name": "D3",
          "ticks": 16720,
          "time": 58.05546266666667,
          "velocity": 0.5905511811023622
        },
        {
          "duration": 0.11458315000000141,
          "durationTicks": 33,
          "midi": 62,
          "name": "D4",
          "ticks": 16760,
          "time": 58.19435133333333,
          "velocity": 0.5905511811023622
        },
        {
          "duration": 0.14236088333333186,
          "durationTicks": 41,
          "midi": 50,
          "name": "D3",
          "ticks": 16800,
          "time": 58.333239999999996,
          "velocity": 0.5905511811023622
        },
        {
          "duration": 0.15972196666666605,
          "durationTicks": 46,
          "midi": 57,
          "name": "A3",
          "ticks": 16800,
          "time": 58.333239999999996,
          "velocity": 0.5905511811023622
        },
        {
          "duration": 0.12847201666666308,
          "durationTicks": 37,
          "midi": 62,
          "name": "D4",
          "ticks": 16840,
          "time": 58.47212866666667,
          "velocity": 0.5905511811023622
        },
        {
          "duration": 0.10069428333333263,
          "durationTicks": 29,
          "midi": 50,
          "name": "D3",
          "ticks": 16880,
          "time": 58.61101733333333,
          "velocity": 0.5039370078740157
        },
        {
          "duration": 0.11111093333333599,
          "durationTicks": 32,
          "midi": 57,
          "name": "A3",
          "ticks": 16880,
          "time": 58.61101733333333,
          "velocity": 0.48031496062992124
        },
        {
          "duration": 0.12152758333333225,
          "durationTicks": 35,
          "midi": 62,
          "name": "D4",
          "ticks": 16920,
          "time": 58.749905999999996,
          "velocity": 0.6535433070866141
        },
        {
          "duration": 0.09722206666666011,
          "durationTicks": 28,
          "midi": 57,
          "name": "A3",
          "ticks": 16960,
          "time": 58.88879466666667,
          "velocity": 0.5039370078740157
        },
        {
          "duration": 0.09027763333332928,
          "durationTicks": 26,
          "midi": 50,
          "name": "D3",
          "ticks": 16960,
          "time": 58.88879466666667,
          "velocity": 0.5354330708661418
        },
        {
          "duration": 0.15972196666667315,
          "durationTicks": 46,
          "midi": 62,
          "name": "D4",
          "ticks": 17000,
          "time": 59.02768333333333,
          "velocity": 0.6220472440944882
        },
        {
          "duration": 0.11458315000000141,
          "durationTicks": 33,
          "midi": 50,
          "name": "D3",
          "ticks": 17040,
          "time": 59.166571999999995,
          "velocity": 0.5039370078740157
        },
        {
          "duration": 0.12847201666667019,
          "durationTicks": 37,
          "midi": 57,
          "name": "A3",
          "ticks": 17040,
          "time": 59.166571999999995,
          "velocity": 0.5354330708661418
        },
        {
          "duration": 0.11111093333332889,
          "durationTicks": 32,
          "midi": 62,
          "name": "D4",
          "ticks": 17080,
          "time": 59.30546066666667,
          "velocity": 0.5669291338582677
        },
        {
          "duration": 0.09722206666667432,
          "durationTicks": 28,
          "midi": 57,
          "name": "A3",
          "ticks": 17120,
          "time": 59.44434933333333,
          "velocity": 0.5039370078740157
        },
        {
          "duration": 0.09027763333333638,
          "durationTicks": 26,
          "midi": 50,
          "name": "D3",
          "ticks": 17120,
          "time": 59.44434933333333,
          "velocity": 0.5905511811023622
        },
        {
          "duration": 0.13541645000000102,
          "durationTicks": 39,
          "midi": 62,
          "name": "D4",
          "ticks": 17160,
          "time": 59.583237999999994,
          "velocity": 0.6220472440944882
        },
        {
          "duration": 0.10069428333332553,
          "durationTicks": 29,
          "midi": 50,
          "name": "D3",
          "ticks": 17200,
          "time": 59.72212666666667,
          "velocity": 0.5669291338582677
        },
        {
          "duration": 0.06597211666666425,
          "durationTicks": 19,
          "midi": 57,
          "name": "A3",
          "ticks": 17200,
          "time": 59.72212666666667,
          "velocity": 0.5669291338582677
        },
        {
          "duration": 0.08333320000000555,
          "durationTicks": 24,
          "midi": 62,
          "name": "D4",
          "ticks": 17240,
          "time": 59.86101533333333,
          "velocity": 0.6535433070866141
        },
        {
          "duration": 0.15624974999999353,
          "durationTicks": 45,
          "midi": 46,
          "name": "A#2",
          "ticks": 17280,
          "time": 59.999904,
          "velocity": 0.5905511811023622
        },
        {
          "duration": 0.08680541666665675,
          "durationTicks": 25,
          "midi": 53,
          "name": "F3",
          "ticks": 17320,
          "time": 60.13879266666667,
          "velocity": 0.2992125984251969
        },
        {
          "duration": 0.0937498499999947,
          "durationTicks": 27,
          "midi": 58,
          "name": "A#3",
          "ticks": 17320,
          "time": 60.13879266666667,
          "velocity": 0.48031496062992124
        },
        {
          "duration": 0.11805536666666683,
          "durationTicks": 34,
          "midi": 62,
          "name": "D4",
          "ticks": 17320,
          "time": 60.13879266666667,
          "velocity": 0.4094488188976378
        },
        {
          "duration": 0.10763871666667768,
          "durationTicks": 31,
          "midi": 46,
          "name": "A#2",
          "ticks": 17360,
          "time": 60.27768133333333,
          "velocity": 0.5905511811023622
        },
        {
          "duration": 0.11458315000000141,
          "durationTicks": 33,
          "midi": 58,
          "name": "A#3",
          "ticks": 17400,
          "time": 60.41657,
          "velocity": 0.36220472440944884
        },
        {
          "duration": 0.12152758333332514,
          "durationTicks": 35,
          "midi": 62,
          "name": "D4",
          "ticks": 17400,
          "time": 60.41657,
          "velocity": 0.5669291338582677
        },
        {
          "duration": 0.12152758333332514,
          "durationTicks": 35,
          "midi": 53,
          "name": "F3",
          "ticks": 17400,
          "time": 60.41657,
          "velocity": 0.4015748031496063
        },
        {
          "duration": 0.16319418333333147,
          "durationTicks": 47,
          "midi": 46,
          "name": "A#2",
          "ticks": 17440,
          "time": 60.55545866666667,
          "velocity": 0.5905511811023622
        },
        {
          "duration": 0.06944433333334388,
          "durationTicks": 20,
          "midi": 58,
          "name": "A#3",
          "ticks": 17480,
          "time": 60.694347333333326,
          "velocity": 0.3779527559055118
        },
        {
          "duration": 0.07986098333333302,
          "durationTicks": 23,
          "midi": 53,
          "name": "F3",
          "ticks": 17480,
          "time": 60.694347333333326,
          "velocity": 0.3700787401574803
        },
        {
          "duration": 0.07291655000000219,
          "durationTicks": 21,
          "midi": 62,
          "name": "D4",
          "ticks": 17480,
          "time": 60.694347333333326,
          "velocity": 0.5039370078740157
        },
        {
          "duration": 0.06944433333332967,
          "durationTicks": 20,
          "midi": 53,
          "name": "F3",
          "ticks": 17520,
          "time": 60.833236,
          "velocity": 0.4094488188976378
        },
        {
          "duration": 0.06944433333332967,
          "durationTicks": 20,
          "midi": 58,
          "name": "A#3",
          "ticks": 17520,
          "time": 60.833236,
          "velocity": 0.48031496062992124
        },
        {
          "duration": 0.08680541666667096,
          "durationTicks": 25,
          "midi": 62,
          "name": "D4",
          "ticks": 17520,
          "time": 60.833236,
          "velocity": 0.6220472440944882
        },
        {
          "duration": 0.10416650000000516,
          "durationTicks": 30,
          "midi": 46,
          "name": "A#2",
          "ticks": 17560,
          "time": 60.972124666666666,
          "velocity": 0.44881889763779526
        },
        {
          "duration": 0.05208325000000258,
          "durationTicks": 15,
          "midi": 53,
          "name": "F3",
          "ticks": 17600,
          "time": 61.111013333333325,
          "velocity": 0.2992125984251969
        },
        {
          "duration": 0.05208325000000258,
          "durationTicks": 15,
          "midi": 58,
          "name": "A#3",
          "ticks": 17600,
          "time": 61.111013333333325,
          "velocity": 0.4094488188976378
        },
        {
          "duration": 0.05208325000000258,
          "durationTicks": 15,
          "midi": 62,
          "name": "D4",
          "ticks": 17600,
          "time": 61.111013333333325,
          "velocity": 0.5354330708661418
        },
        {
          "duration": 0.13888866666666644,
          "durationTicks": 40,
          "midi": 58,
          "name": "A#3",
          "ticks": 17640,
          "time": 61.249902,
          "velocity": 0.48031496062992124
        },
        {
          "duration": 0.14236088333333186,
          "durationTicks": 41,
          "midi": 53,
          "name": "F3",
          "ticks": 17640,
          "time": 61.249902,
          "velocity": 0.3937007874015748
        },
        {
          "duration": 0.13541644999999392,
          "durationTicks": 39,
          "midi": 62,
          "name": "D4",
          "ticks": 17640,
          "time": 61.249902,
          "velocity": 0.5905511811023622
        },
        {
          "duration": 0.13888866666665933,
          "durationTicks": 40,
          "midi": 46,
          "name": "A#2",
          "ticks": 17680,
          "time": 61.388790666666665,
          "velocity": 0.5669291338582677
        },
        {
          "duration": 0.11805536666666683,
          "durationTicks": 34,
          "midi": 53,
          "name": "F3",
          "ticks": 17720,
          "time": 61.527679333333325,
          "velocity": 0.3700787401574803
        },
        {
          "duration": 0.12499980000000477,
          "durationTicks": 36,
          "midi": 62,
          "name": "D4",
          "ticks": 17720,
          "time": 61.527679333333325,
          "velocity": 0.5669291338582677
        },
        {
          "duration": 0.1319442333333356,
          "durationTicks": 38,
          "midi": 58,
          "name": "A#3",
          "ticks": 17720,
          "time": 61.527679333333325,
          "velocity": 0.4094488188976378
        },
        {
          "duration": 0.11805536666666683,
          "durationTicks": 34,
          "midi": 46,
          "name": "A#2",
          "ticks": 17760,
          "time": 61.666568,
          "velocity": 0.5039370078740157
        },
        {
          "duration": 0.15624975000000063,
          "durationTicks": 45,
          "midi": 53,
          "name": "F3",
          "ticks": 17800,
          "time": 61.805456666666664,
          "velocity": 0.2047244094488189
        },
        {
          "duration": 0.16319418333333147,
          "durationTicks": 47,
          "midi": 58,
          "name": "A#3",
          "ticks": 17800,
          "time": 61.805456666666664,
          "velocity": 0.33858267716535434
        },
        {
          "duration": 0.16666639999999688,
          "durationTicks": 48,
          "midi": 62,
          "name": "D4",
          "ticks": 17800,
          "time": 61.805456666666664,
          "velocity": 0.48031496062992124
        },
        {
          "duration": 0.1701386166666694,
          "durationTicks": 49,
          "midi": 46,
          "name": "A#2",
          "ticks": 17840,
          "time": 61.944345333333324,
          "velocity": 0.5905511811023622
        },
        {
          "duration": 0.13541644999999392,
          "durationTicks": 39,
          "midi": 58,
          "name": "A#3",
          "ticks": 17880,
          "time": 62.083234,
          "velocity": 0.48031496062992124
        },
        {
          "duration": 0.13888866666667354,
          "durationTicks": 40,
          "midi": 53,
          "name": "F3",
          "ticks": 17880,
          "time": 62.083234,
          "velocity": 0.4015748031496063
        },
        {
          "duration": 0.1319442333333285,
          "durationTicks": 38,
          "midi": 62,
          "name": "D4",
          "ticks": 17880,
          "time": 62.083234,
          "velocity": 0.5905511811023622
        },
        {
          "duration": 0.10069428333331842,
          "durationTicks": 29,
          "midi": 46,
          "name": "A#2",
          "ticks": 17920,
          "time": 62.22212266666667,
          "velocity": 0.5039370078740157
        },
        {
          "duration": 0.16319418333334568,
          "durationTicks": 47,
          "midi": 58,
          "name": "A#3",
          "ticks": 17960,
          "time": 62.36101133333332,
          "velocity": 0.44881889763779526
        },
        {
          "duration": 0.17361083333334193,
          "durationTicks": 50,
          "midi": 53,
          "name": "F3",
          "ticks": 17960,
          "time": 62.36101133333332,
          "velocity": 0.4015748031496063
        },
        {
          "duration": 0.15972196666668026,
          "durationTicks": 46,
          "midi": 62,
          "name": "D4",
          "ticks": 17960,
          "time": 62.36101133333332,
          "velocity": 0.5905511811023622
        },
        {
          "duration": 0.12847201666667019,
          "durationTicks": 37,
          "midi": 46,
          "name": "A#2",
          "ticks": 18000,
          "time": 62.4999,
          "velocity": 0.6771653543307087
        },
        {
          "duration": 0.14236088333333186,
          "durationTicks": 41,
          "midi": 53,
          "name": "F3",
          "ticks": 18040,
          "time": 62.63878866666667,
          "velocity": 0.4094488188976378
        },
        {
          "duration": 0.152777533333321,
          "durationTicks": 44,
          "midi": 62,
          "name": "D4",
          "ticks": 18040,
          "time": 62.63878866666667,
          "velocity": 0.6535433070866141
        },
        {
          "duration": 0.15624975000000063,
          "durationTicks": 45,
          "midi": 58,
          "name": "A#3",
          "ticks": 18040,
          "time": 62.63878866666667,
          "velocity": 0.48031496062992124
        },
        {
          "duration": 0.07986098333332592,
          "durationTicks": 23,
          "midi": 46,
          "name": "A#2",
          "ticks": 18080,
          "time": 62.77767733333333,
          "velocity": 0.6771653543307087
        },
        {
          "duration": 0.29166619999999455,
          "durationTicks": 84,
          "midi": 48,
          "name": "C3",
          "ticks": 18120,
          "time": 62.916565999999996,
          "velocity": 0.7086614173228346
        },
        {
          "duration": 0.12152758333333935,
          "durationTicks": 35,
          "midi": 60,
          "name": "C4",
          "ticks": 18200,
          "time": 63.19434333333333,
          "velocity": 0.48031496062992124
        },
        {
          "duration": 0.1319442333333285,
          "durationTicks": 38,
          "midi": 55,
          "name": "G3",
          "ticks": 18200,
          "time": 63.19434333333333,
          "velocity": 0.48031496062992124
        },
        {
          "duration": 0.2604162499999987,
          "durationTicks": 75,
          "midi": 50,
          "name": "D3",
          "ticks": 18240,
          "time": 63.333231999999995,
          "velocity": 0.7086614173228346
        },
        {
          "duration": 0.09722206666667432,
          "durationTicks": 28,
          "midi": 57,
          "name": "A3",
          "ticks": 18320,
          "time": 63.61100933333333,
          "velocity": 0.4251968503937008
        },
        {
          "duration": 0.0937498500000018,
          "durationTicks": 27,
          "midi": 50,
          "name": "D3",
          "ticks": 18360,
          "time": 63.749897999999995,
          "velocity": 0.6220472440944882
        },
        {
          "duration": 0.1111109333333502,
          "durationTicks": 32,
          "midi": 50,
          "name": "D3",
          "ticks": 18440,
          "time": 64.02767533333332,
          "velocity": 0.48031496062992124
        },
        {
          "duration": 0.08680541666667807,
          "durationTicks": 25,
          "midi": 57,
          "name": "A3",
          "ticks": 18480,
          "time": 64.166564,
          "velocity": 0.3700787401574803
        },
        {
          "duration": 0.09722206666666011,
          "durationTicks": 28,
          "midi": 62,
          "name": "D4",
          "ticks": 18480,
          "time": 64.166564,
          "velocity": 0.5354330708661418
        },
        {
          "duration": 0.0763887666666676,
          "durationTicks": 22,
          "midi": 50,
          "name": "D3",
          "ticks": 18520,
          "time": 64.30545266666667,
          "velocity": 0.48031496062992124
        },
        {
          "duration": 0.17361083333334193,
          "durationTicks": 50,
          "midi": 57,
          "name": "A3",
          "ticks": 18560,
          "time": 64.44434133333333,
          "velocity": 0.4015748031496063
        },
        {
          "duration": 0.18055526666667276,
          "durationTicks": 52,
          "midi": 62,
          "name": "D4",
          "ticks": 18560,
          "time": 64.44434133333333,
          "velocity": 0.5905511811023622
        },
        {
          "duration": 0.15972196666666605,
          "durationTicks": 46,
          "midi": 50,
          "name": "D3",
          "ticks": 18600,
          "time": 64.58323,
          "velocity": 0.6220472440944882
        },
        {
          "duration": 0.12499979999998345,
          "durationTicks": 36,
          "midi": 57,
          "name": "A3",
          "ticks": 18640,
          "time": 64.72211866666667,
          "velocity": 0.33858267716535434
        },
        {
          "duration": 0.1319442333333285,
          "durationTicks": 38,
          "midi": 62,
          "name": "D4",
          "ticks": 18640,
          "time": 64.72211866666667,
          "velocity": 0.4251968503937008
        },
        {
          "duration": 0.12152758333333225,
          "durationTicks": 35,
          "midi": 50,
          "name": "D3",
          "ticks": 18680,
          "time": 64.86100733333333,
          "velocity": 0.5354330708661418
        },
        {
          "duration": 0.12499980000001187,
          "durationTicks": 36,
          "midi": 57,
          "name": "A3",
          "ticks": 18720,
          "time": 64.99989599999999,
          "velocity": 0.3700787401574803
        },
        {
          "duration": 0.12499980000001187,
          "durationTicks": 36,
          "midi": 65,
          "name": "F4",
          "ticks": 18720,
          "time": 64.99989599999999,
          "velocity": 0.48031496062992124
        },
        {
          "duration": 0.1284720166666773,
          "durationTicks": 37,
          "midi": 62,
          "name": "D4",
          "ticks": 18720,
          "time": 64.99989599999999,
          "velocity": 0.48031496062992124
        },
        {
          "duration": 0.09722206666666011,
          "durationTicks": 28,
          "midi": 50,
          "name": "D3",
          "ticks": 18760,
          "time": 65.13878466666667,
          "velocity": 0.48031496062992124
        },
        {
          "duration": 0.09027763333332928,
          "durationTicks": 26,
          "midi": 57,
          "name": "A3",
          "ticks": 18800,
          "time": 65.27767333333333,
          "velocity": 0.36220472440944884
        },
        {
          "duration": 0.11458315000000141,
          "durationTicks": 33,
          "midi": 62,
          "name": "D4",
          "ticks": 18800,
          "time": 65.27767333333333,
          "velocity": 0.5039370078740157
        },
        {
          "duration": 0.12847201666666308,
          "durationTicks": 37,
          "midi": 65,
          "name": "F4",
          "ticks": 18800,
          "time": 65.27767333333333,
          "velocity": 0.48031496062992124
        },
        {
          "duration": 0.12152758333333225,
          "durationTicks": 35,
          "midi": 50,
          "name": "D3",
          "ticks": 18840,
          "time": 65.416562,
          "velocity": 0.5354330708661418
        },
        {
          "duration": 0.13888866666665933,
          "durationTicks": 40,
          "midi": 57,
          "name": "A3",
          "ticks": 18880,
          "time": 65.55545066666667,
          "velocity": 0.4015748031496063
        },
        {
          "duration": 0.14583309999999017,
          "durationTicks": 42,
          "midi": 62,
          "name": "D4",
          "ticks": 18880,
          "time": 65.55545066666667,
          "velocity": 0.48031496062992124
        },
        {
          "duration": 0.10763871666667058,
          "durationTicks": 31,
          "midi": 50,
          "name": "D3",
          "ticks": 18920,
          "time": 65.69433933333333,
          "velocity": 0.5039370078740157
        },
        {
          "duration": 0.12499980000001187,
          "durationTicks": 36,
          "midi": 57,
          "name": "A3",
          "ticks": 18960,
          "time": 65.83322799999999,
          "velocity": 0.4094488188976378
        },
        {
          "duration": 0.1319442333333427,
          "durationTicks": 38,
          "midi": 62,
          "name": "D4",
          "ticks": 18960,
          "time": 65.83322799999999,
          "velocity": 0.5905511811023622
        },
        {
          "duration": 0.08333319999999844,
          "durationTicks": 24,
          "midi": 50,
          "name": "D3",
          "ticks": 19000,
          "time": 65.97211666666666,
          "velocity": 0.5039370078740157
        },
        {
          "duration": 0.18055526666667276,
          "durationTicks": 52,
          "midi": 57,
          "name": "A3",
          "ticks": 19040,
          "time": 66.11100533333332,
          "velocity": 0.4094488188976378
        },
        {
          "duration": 0.17708305000000735,
          "durationTicks": 51,
          "midi": 62,
          "name": "D4",
          "ticks": 19040,
          "time": 66.11100533333332,
          "velocity": 0.6220472440944882
        },
        {
          "duration": 0.09722206666666011,
          "durationTicks": 28,
          "midi": 50,
          "name": "D3",
          "ticks": 19080,
          "time": 66.249894,
          "velocity": 0.5905511811023622
        },
        {
          "duration": 0.12847201666666308,
          "durationTicks": 37,
          "midi": 57,
          "name": "A3",
          "ticks": 19120,
          "time": 66.38878266666667,
          "velocity": 0.4015748031496063
        },
        {
          "duration": 0.13888866666665933,
          "durationTicks": 40,
          "midi": 62,
          "name": "D4",
          "ticks": 19120,
          "time": 66.38878266666667,
          "velocity": 0.5905511811023622
        },
        {
          "duration": 0.0763887666666676,
          "durationTicks": 22,
          "midi": 50,
          "name": "D3",
          "ticks": 19160,
          "time": 66.52767133333333,
          "velocity": 0.5905511811023622
        },
        {
          "duration": 0.4201382166666576,
          "durationTicks": 121,
          "midi": 46,
          "name": "A#2",
          "ticks": 19200,
          "time": 66.66656,
          "velocity": 0.7086614173228346
        },
        {
          "duration": 0.0937498499999947,
          "durationTicks": 27,
          "midi": 58,
          "name": "A#3",
          "ticks": 19320,
          "time": 67.083226,
          "velocity": 0.4015748031496063
        },
        {
          "duration": 0.10416650000000516,
          "durationTicks": 30,
          "midi": 53,
          "name": "F3",
          "ticks": 19320,
          "time": 67.083226,
          "velocity": 0.3700787401574803
        },
        {
          "duration": 0.10416650000000516,
          "durationTicks": 30,
          "midi": 62,
          "name": "D4",
          "ticks": 19320,
          "time": 67.083226,
          "velocity": 0.48031496062992124
        },
        {
          "duration": 0.06944433333332256,
          "durationTicks": 20,
          "midi": 46,
          "name": "A#2",
          "ticks": 19360,
          "time": 67.22211466666667,
          "velocity": 0.5039370078740157
        },
        {
          "duration": 0.17708305000000735,
          "durationTicks": 51,
          "midi": 53,
          "name": "F3",
          "ticks": 19400,
          "time": 67.36100333333333,
          "velocity": 0.3228346456692913
        },
        {
          "duration": 0.19097191666666902,
          "durationTicks": 55,
          "midi": 58,
          "name": "A#3",
          "ticks": 19400,
          "time": 67.36100333333333,
          "velocity": 0.4015748031496063
        },
        {
          "duration": 0.19791634999999985,
          "durationTicks": 57,
          "midi": 62,
          "name": "D4",
          "ticks": 19400,
          "time": 67.36100333333333,
          "velocity": 0.5354330708661418
        },
        {
          "duration": 0.15624975000000063,
          "durationTicks": 45,
          "midi": 46,
          "name": "A#2",
          "ticks": 19440,
          "time": 67.499892,
          "velocity": 0.6771653543307087
        },
        {
          "duration": 0.10416650000000516,
          "durationTicks": 30,
          "midi": 58,
          "name": "A#3",
          "ticks": 19480,
          "time": 67.63878066666666,
          "velocity": 0.3779527559055118
        },
        {
          "duration": 0.08680541666666386,
          "durationTicks": 25,
          "midi": 62,
          "name": "D4",
          "ticks": 19480,
          "time": 67.63878066666666,
          "velocity": 0.3464566929133858
        },
        {
          "duration": 0.10069428333332553,
          "durationTicks": 29,
          "midi": 53,
          "name": "F3",
          "ticks": 19480,
          "time": 67.63878066666666,
          "velocity": 0.31496062992125984
        },
        {
          "duration": 0.10069428333333974,
          "durationTicks": 29,
          "midi": 46,
          "name": "A#2",
          "ticks": 19520,
          "time": 67.77766933333332,
          "velocity": 0.5039370078740157
        },
        {
          "duration": 0.10416650000000516,
          "durationTicks": 30,
          "midi": 53,
          "name": "F3",
          "ticks": 19560,
          "time": 67.916558,
          "velocity": 0.3700787401574803
        },
        {
          "duration": 0.11111093333333599,
          "durationTicks": 32,
          "midi": 58,
          "name": "A#3",
          "ticks": 19560,
          "time": 67.916558,
          "velocity": 0.48031496062992124
        },
        {
          "duration": 0.10416650000000516,
          "durationTicks": 30,
          "midi": 62,
          "name": "D4",
          "ticks": 19560,
          "time": 67.916558,
          "velocity": 0.5669291338582677
        },
        {
          "duration": 0.07291654999998798,
          "durationTicks": 21,
          "midi": 46,
          "name": "A#2",
          "ticks": 19600,
          "time": 68.05544666666667,
          "velocity": 0.48031496062992124
        },
        {
          "duration": 0.18055526666667276,
          "durationTicks": 52,
          "midi": 62,
          "name": "D4",
          "ticks": 19640,
          "time": 68.19433533333333,
          "velocity": 0.5905511811023622
        },
        {
          "duration": 0.19097191666666902,
          "durationTicks": 55,
          "midi": 58,
          "name": "A#3",
          "ticks": 19640,
          "time": 68.19433533333333,
          "velocity": 0.4251968503937008
        },
        {
          "duration": 0.1701386166666623,
          "durationTicks": 49,
          "midi": 53,
          "name": "F3",
          "ticks": 19640,
          "time": 68.19433533333333,
          "velocity": 0.36220472440944884
        },
        {
          "duration": 0.17361083333332772,
          "durationTicks": 50,
          "midi": 46,
          "name": "A#2",
          "ticks": 19680,
          "time": 68.333224,
          "velocity": 0.6771653543307087
        },
        {
          "duration": 0.12499979999999766,
          "durationTicks": 36,
          "midi": 58,
          "name": "A#3",
          "ticks": 19720,
          "time": 68.47211266666666,
          "velocity": 0.4015748031496063
        },
        {
          "duration": 0.1284720166666773,
          "durationTicks": 37,
          "midi": 53,
          "name": "F3",
          "ticks": 19720,
          "time": 68.47211266666666,
          "velocity": 0.36220472440944884
        },
        {
          "duration": 0.11458315000000141,
          "durationTicks": 33,
          "midi": 62,
          "name": "D4",
          "ticks": 19720,
          "time": 68.47211266666666,
          "velocity": 0.5039370078740157
        },
        {
          "duration": 0.12152758333334646,
          "durationTicks": 35,
          "midi": 46,
          "name": "A#2",
          "ticks": 19760,
          "time": 68.61100133333332,
          "velocity": 0.48031496062992124
        },
        {
          "duration": 0.14583310000000438,
          "durationTicks": 42,
          "midi": 53,
          "name": "F3",
          "ticks": 19800,
          "time": 68.74989,
          "velocity": 0.4251968503937008
        },
        {
          "duration": 0.15624975000000063,
          "durationTicks": 45,
          "midi": 58,
          "name": "A#3",
          "ticks": 19800,
          "time": 68.74989,
          "velocity": 0.5354330708661418
        },
        {
          "duration": 0.1527775333333352,
          "durationTicks": 44,
          "midi": 62,
          "name": "D4",
          "ticks": 19800,
          "time": 68.74989,
          "velocity": 0.6220472440944882
        },
        {
          "duration": 0.12847201666666308,
          "durationTicks": 37,
          "midi": 46,
          "name": "A#2",
          "ticks": 19840,
          "time": 68.88877866666667,
          "velocity": 0.6220472440944882
        },
        {
          "duration": 0.15972196666668026,
          "durationTicks": 46,
          "midi": 58,
          "name": "A#3",
          "ticks": 19880,
          "time": 69.02766733333333,
          "velocity": 0.5354330708661418
        },
        {
          "duration": 0.14236088333333896,
          "durationTicks": 41,
          "midi": 62,
          "name": "D4",
          "ticks": 19880,
          "time": 69.02766733333333,
          "velocity": 0.5905511811023622
        },
        {
          "duration": 0.1493053166666698,
          "durationTicks": 43,
          "midi": 53,
          "name": "F3",
          "ticks": 19880,
          "time": 69.02766733333333,
          "velocity": 0.5039370078740157
        },
        {
          "duration": 0.13541644999999392,
          "durationTicks": 39,
          "midi": 46,
          "name": "A#2",
          "ticks": 19920,
          "time": 69.166556,
          "velocity": 0.6535433070866141
        },
        {
          "duration": 0.16666639999998267,
          "durationTicks": 48,
          "midi": 53,
          "name": "F3",
          "ticks": 19960,
          "time": 69.30544466666667,
          "velocity": 0.48031496062992124
        },
        {
          "duration": 0.1701386166666623,
          "durationTicks": 49,
          "midi": 58,
          "name": "A#3",
          "ticks": 19960,
          "time": 69.30544466666667,
          "velocity": 0.48031496062992124
        },
        {
          "duration": 0.1701386166666623,
          "durationTicks": 49,
          "midi": 62,
          "name": "D4",
          "ticks": 19960,
          "time": 69.30544466666667,
          "velocity": 0.6220472440944882
        },
        {
          "duration": 0.15972196666666605,
          "durationTicks": 46,
          "midi": 46,
          "name": "A#2",
          "ticks": 20000,
          "time": 69.44433333333333,
          "velocity": 0.7086614173228346
        },
        {
          "duration": 0.18402748333333818,
          "durationTicks": 53,
          "midi": 58,
          "name": "A#3",
          "ticks": 20040,
          "time": 69.58322199999999,
          "velocity": 0.5039370078740157
        },
        {
          "duration": 0.18055526666667276,
          "durationTicks": 52,
          "midi": 53,
          "name": "F3",
          "ticks": 20040,
          "time": 69.58322199999999,
          "velocity": 0.5039370078740157
        },
        {
          "duration": 0.1701386166666765,
          "durationTicks": 49,
          "midi": 62,
          "name": "D4",
          "ticks": 20040,
          "time": 69.58322199999999,
          "velocity": 0.6220472440944882
        },
        {
          "duration": 0.11111093333332178,
          "durationTicks": 32,
          "midi": 46,
          "name": "A#2",
          "ticks": 20080,
          "time": 69.72211066666667,
          "velocity": 0.5905511811023622
        },
        {
          "duration": 0.1493053166666698,
          "durationTicks": 43,
          "midi": 53,
          "name": "F3",
          "ticks": 20120,
          "time": 69.86099933333333,
          "velocity": 0.4251968503937008
        },
        {
          "duration": 0.17708305000000735,
          "durationTicks": 51,
          "midi": 62,
          "name": "D4",
          "ticks": 20120,
          "time": 69.86099933333333,
          "velocity": 0.5905511811023622
        },
        {
          "duration": 0.1701386166666623,
          "durationTicks": 49,
          "midi": 58,
          "name": "A#3",
          "ticks": 20120,
          "time": 69.86099933333333,
          "velocity": 0.48031496062992124
        },
        {
          "duration": 0.20138856666666527,
          "durationTicks": 58,
          "midi": 43,
          "name": "G2",
          "ticks": 20160,
          "time": 69.999888,
          "velocity": 0.6771653543307087
        },
        {
          "duration": 0.13541644999999392,
          "durationTicks": 39,
          "midi": 58,
          "name": "A#3",
          "ticks": 20200,
          "time": 70.13877666666667,
          "velocity": 0.4251968503937008
        },
        {
          "duration": 0.12847201666666308,
          "durationTicks": 37,
          "midi": 55,
          "name": "G3",
          "ticks": 20200,
          "time": 70.13877666666667,
          "velocity": 0.4015748031496063
        },
        {
          "duration": 0.14583309999999017,
          "durationTicks": 42,
          "midi": 62,
          "name": "D4",
          "ticks": 20200,
          "time": 70.13877666666667,
          "velocity": 0.48031496062992124
        },
        {
          "duration": 0.11805536666666683,
          "durationTicks": 34,
          "midi": 43,
          "name": "G2",
          "ticks": 20240,
          "time": 70.27766533333333,
          "velocity": 0.6220472440944882
        },
        {
          "duration": 0.15972196666666605,
          "durationTicks": 46,
          "midi": 55,
          "name": "G3",
          "ticks": 20280,
          "time": 70.41655399999999,
          "velocity": 0.48031496062992124
        },
        {
          "duration": 0.15972196666666605,
          "durationTicks": 46,
          "midi": 58,
          "name": "A#3",
          "ticks": 20280,
          "time": 70.41655399999999,
          "velocity": 0.48031496062992124
        },
        {
          "duration": 0.16319418333334568,
          "durationTicks": 47,
          "midi": 62,
          "name": "D4",
          "ticks": 20280,
          "time": 70.41655399999999,
          "velocity": 0.5905511811023622
        },
        {
          "duration": 0.1145831499999872,
          "durationTicks": 33,
          "midi": 43,
          "name": "G2",
          "ticks": 20320,
          "time": 70.55544266666666,
          "velocity": 0.6220472440944882
        },
        {
          "duration": 0.17361083333334193,
          "durationTicks": 50,
          "midi": 58,
          "name": "A#3",
          "ticks": 20360,
          "time": 70.69433133333332,
          "velocity": 0.48031496062992124
        },
        {
          "duration": 0.15624975000000063,
          "durationTicks": 45,
          "midi": 55,
          "name": "G3",
          "ticks": 20360,
          "time": 70.69433133333332,
          "velocity": 0.48031496062992124
        },
        {
          "duration": 0.16319418333334568,
          "durationTicks": 47,
          "midi": 62,
          "name": "D4",
          "ticks": 20360,
          "time": 70.69433133333332,
          "velocity": 0.5905511811023622
        },
        {
          "duration": 0.1701386166666623,
          "durationTicks": 49,
          "midi": 43,
          "name": "G2",
          "ticks": 20400,
          "time": 70.83322,
          "velocity": 0.5905511811023622
        },
        {
          "duration": 0.12152758333333225,
          "durationTicks": 35,
          "midi": 58,
          "name": "A#3",
          "ticks": 20440,
          "time": 70.97210866666667,
          "velocity": 0.4015748031496063
        },
        {
          "duration": 0.11111093333332178,
          "durationTicks": 32,
          "midi": 62,
          "name": "D4",
          "ticks": 20440,
          "time": 70.97210866666667,
          "velocity": 0.5354330708661418
        },
        {
          "duration": 0.1145831499999872,
          "durationTicks": 33,
          "midi": 55,
          "name": "G3",
          "ticks": 20440,
          "time": 70.97210866666667,
          "velocity": 0.4015748031496063
        },
        {
          "duration": 0.11805536666666683,
          "durationTicks": 34,
          "midi": 43,
          "name": "G2",
          "ticks": 20480,
          "time": 71.11099733333333,
          "velocity": 0.5354330708661418
        },
        {
          "duration": 0.14930531666665559,
          "durationTicks": 43,
          "midi": 58,
          "name": "A#3",
          "ticks": 20520,
          "time": 71.249886,
          "velocity": 0.5039370078740157
        },
        {
          "duration": 0.13541644999999392,
          "durationTicks": 39,
          "midi": 62,
          "name": "D4",
          "ticks": 20520,
          "time": 71.249886,
          "velocity": 0.6220472440944882
        },
        {
          "duration": 0.14583309999999017,
          "durationTicks": 42,
          "midi": 55,
          "name": "G3",
          "ticks": 20520,
          "time": 71.249886,
          "velocity": 0.48031496062992124
        },
        {
          "duration": 0.11805536666666683,
          "durationTicks": 34,
          "midi": 43,
          "name": "G2",
          "ticks": 20560,
          "time": 71.38877466666666,
          "velocity": 0.5669291338582677
        },
        {
          "duration": 0.13888866666667354,
          "durationTicks": 40,
          "midi": 58,
          "name": "A#3",
          "ticks": 20600,
          "time": 71.52766333333332,
          "velocity": 0.5354330708661418
        },
        {
          "duration": 0.11111093333333599,
          "durationTicks": 32,
          "midi": 55,
          "name": "G3",
          "ticks": 20600,
          "time": 71.52766333333332,
          "velocity": 0.5354330708661418
        },
        {
          "duration": 0.1319442333333285,
          "durationTicks": 38,
          "midi": 62,
          "name": "D4",
          "ticks": 20600,
          "time": 71.52766333333332,
          "velocity": 0.6220472440944882
        },
        {
          "duration": 0.18402748333333818,
          "durationTicks": 53,
          "midi": 45,
          "name": "A2",
          "ticks": 20640,
          "time": 71.666552,
          "velocity": 0.7086614173228346
        },
        {
          "duration": 0.07291654999998798,
          "durationTicks": 21,
          "midi": 57,
          "name": "A3",
          "ticks": 20680,
          "time": 71.80544066666667,
          "velocity": 0.33070866141732286
        },
        {
          "duration": 0.0937498500000089,
          "durationTicks": 27,
          "midi": 45,
          "name": "A2",
          "ticks": 20720,
          "time": 71.94432933333333,
          "velocity": 0.5354330708661418
        },
        {
          "duration": 0.12499979999999766,
          "durationTicks": 36,
          "midi": 61,
          "name": "C#4",
          "ticks": 20760,
          "time": 72.083218,
          "velocity": 0.5669291338582677
        },
        {
          "duration": 0.12152758333331803,
          "durationTicks": 35,
          "midi": 57,
          "name": "A3",
          "ticks": 20760,
          "time": 72.083218,
          "velocity": 0.4251968503937008
        },
        {
          "duration": 0.09027763333334349,
          "durationTicks": 26,
          "midi": 45,
          "name": "A2",
          "ticks": 20800,
          "time": 72.22210666666666,
          "velocity": 0.6220472440944882
        },
        {
          "duration": 0.10763871666668479,
          "durationTicks": 31,
          "midi": 57,
          "name": "A3",
          "ticks": 20840,
          "time": 72.36099533333332,
          "velocity": 0.4251968503937008
        },
        {
          "duration": 0.11458315000000141,
          "durationTicks": 33,
          "midi": 64,
          "name": "E4",
          "ticks": 20840,
          "time": 72.36099533333332,
          "velocity": 0.5905511811023622
        },
        {
          "duration": 0.11805536666666683,
          "durationTicks": 34,
          "midi": 61,
          "name": "C#4",
          "ticks": 20840,
          "time": 72.36099533333332,
          "velocity": 0.5354330708661418
        },
        {
          "duration": 0.0937498499999947,
          "durationTicks": 27,
          "midi": 45,
          "name": "A2",
          "ticks": 20880,
          "time": 72.499884,
          "velocity": 0.5905511811023622
        },
        {
          "duration": 0.0937498499999947,
          "durationTicks": 27,
          "midi": 61,
          "name": "C#4",
          "ticks": 20920,
          "time": 72.63877266666667,
          "velocity": 0.48031496062992124
        },
        {
          "duration": 0.10416650000000516,
          "durationTicks": 30,
          "midi": 57,
          "name": "A3",
          "ticks": 20920,
          "time": 72.63877266666667,
          "velocity": 0.48031496062992124
        },
        {
          "duration": 0.10763871666665636,
          "durationTicks": 31,
          "midi": 64,
          "name": "E4",
          "ticks": 20920,
          "time": 72.63877266666667,
          "velocity": 0.5669291338582677
        },
        {
          "duration": 0.10763871666667058,
          "durationTicks": 31,
          "midi": 45,
          "name": "A2",
          "ticks": 20960,
          "time": 72.77766133333333,
          "velocity": 0.5905511811023622
        },
        {
          "duration": 0.10763871666665636,
          "durationTicks": 31,
          "midi": 64,
          "name": "E4",
          "ticks": 21000,
          "time": 72.91655,
          "velocity": 0.6535433070866141
        },
        {
          "duration": 0.11805536666666683,
          "durationTicks": 34,
          "midi": 61,
          "name": "C#4",
          "ticks": 21000,
          "time": 72.91655,
          "velocity": 0.5905511811023622
        },
        {
          "duration": 0.11111093333333599,
          "durationTicks": 32,
          "midi": 57,
          "name": "A3",
          "ticks": 21000,
          "time": 72.91655,
          "velocity": 0.6220472440944882
        },
        {
          "duration": 0.08680541666666386,
          "durationTicks": 25,
          "midi": 45,
          "name": "A2",
          "ticks": 21040,
          "time": 73.05543866666666,
          "velocity": 0.6220472440944882
        },
        {
          "duration": 0.11805536666666683,
          "durationTicks": 34,
          "midi": 57,
          "name": "A3",
          "ticks": 21080,
          "time": 73.19432733333332,
          "velocity": 0.5354330708661418
        },
        {
          "duration": 0.10069428333333974,
          "durationTicks": 29,
          "midi": 64,
          "name": "E4",
          "ticks": 21080,
          "time": 73.19432733333332,
          "velocity": 0.6220472440944882
        },
        {
          "duration": 0.1111109333333502,
          "durationTicks": 32,
          "midi": 61,
          "name": "C#4",
          "ticks": 21080,
          "time": 73.19432733333332,
          "velocity": 0.6220472440944882
        },
        {
          "duration": 0.1874997000000036,
          "durationTicks": 54,
          "midi": 43,
          "name": "G2",
          "ticks": 21120,
          "time": 73.333216,
          "velocity": 0.6771653543307087
        },
        {
          "duration": 0.05555546666666089,
          "durationTicks": 16,
          "midi": 58,
          "name": "A#3",
          "ticks": 21160,
          "time": 73.47210466666667,
          "velocity": 0.3700787401574803
        },
        {
          "duration": 0.09027763333332928,
          "durationTicks": 26,
          "midi": 55,
          "name": "G3",
          "ticks": 21160,
          "time": 73.47210466666667,
          "velocity": 0.33858267716535434
        },
        {
          "duration": 0.12152758333333225,
          "durationTicks": 35,
          "midi": 62,
          "name": "D4",
          "ticks": 21160,
          "time": 73.47210466666667,
          "velocity": 0.5669291338582677
        },
        {
          "duration": 0.08680541666666386,
          "durationTicks": 25,
          "midi": 43,
          "name": "G2",
          "ticks": 21200,
          "time": 73.61099333333333,
          "velocity": 0.4094488188976378
        },
        {
          "duration": 0.13541644999999392,
          "durationTicks": 39,
          "midi": 58,
          "name": "A#3",
          "ticks": 21240,
          "time": 73.749882,
          "velocity": 0.4015748031496063
        },
        {
          "duration": 0.1319442333333285,
          "durationTicks": 38,
          "midi": 55,
          "name": "G3",
          "ticks": 21240,
          "time": 73.749882,
          "velocity": 0.4094488188976378
        },
        {
          "duration": 0.1319442333333285,
          "durationTicks": 38,
          "midi": 62,
          "name": "D4",
          "ticks": 21240,
          "time": 73.749882,
          "velocity": 0.5669291338582677
        },
        {
          "duration": 0.0937498499999947,
          "durationTicks": 27,
          "midi": 43,
          "name": "G2",
          "ticks": 21280,
          "time": 73.88877066666667,
          "velocity": 0.6220472440944882
        },
        {
          "duration": 0.10069428333332553,
          "durationTicks": 29,
          "midi": 55,
          "name": "G3",
          "ticks": 21320,
          "time": 74.02765933333333,
          "velocity": 0.33070866141732286
        },
        {
          "duration": 0.1319442333333285,
          "durationTicks": 38,
          "midi": 58,
          "name": "A#3",
          "ticks": 21320,
          "time": 74.02765933333333,
          "velocity": 0.48031496062992124
        },
        {
          "duration": 0.12499979999999766,
          "durationTicks": 36,
          "midi": 62,
          "name": "D4",
          "ticks": 21320,
          "time": 74.02765933333333,
          "velocity": 0.5905511811023622
        },
        {
          "duration": 0.1527775333333352,
          "durationTicks": 44,
          "midi": 43,
          "name": "G2",
          "ticks": 21360,
          "time": 74.16654799999999,
          "velocity": 0.7086614173228346
        },
        {
          "duration": 0.14236088333333896,
          "durationTicks": 41,
          "midi": 55,
          "name": "G3",
          "ticks": 21400,
          "time": 74.30543666666667,
          "velocity": 0.48031496062992124
        },
        {
          "duration": 0.16319418333333147,
          "durationTicks": 47,
          "midi": 58,
          "name": "A#3",
          "ticks": 21400,
          "time": 74.30543666666667,
          "velocity": 0.48031496062992124
        },
        {
          "duration": 0.15624975000000063,
          "durationTicks": 45,
          "midi": 62,
          "name": "D4",
          "ticks": 21400,
          "time": 74.30543666666667,
          "velocity": 0.5905511811023622
        },
        {
          "duration": 0.12499980000001187,
          "durationTicks": 36,
          "midi": 43,
          "name": "G2",
          "ticks": 21440,
          "time": 74.44432533333332,
          "velocity": 0.6220472440944882
        },
        {
          "duration": 0.14930531666665559,
          "durationTicks": 43,
          "midi": 58,
          "name": "A#3",
          "ticks": 21480,
          "time": 74.583214,
          "velocity": 0.48031496062992124
        },
        {
          "duration": 0.1319442333333285,
          "durationTicks": 38,
          "midi": 55,
          "name": "G3",
          "ticks": 21480,
          "time": 74.583214,
          "velocity": 0.48031496062992124
        },
        {
          "duration": 0.13541644999999392,
          "durationTicks": 39,
          "midi": 62,
          "name": "D4",
          "ticks": 21480,
          "time": 74.583214,
          "velocity": 0.6220472440944882
        },
        {
          "duration": 0.11805536666666683,
          "durationTicks": 34,
          "midi": 43,
          "name": "G2",
          "ticks": 21520,
          "time": 74.72210266666667,
          "velocity": 0.7086614173228346
        },
        {
          "duration": 0.12152758333333225,
          "durationTicks": 35,
          "midi": 62,
          "name": "D4",
          "ticks": 21560,
          "time": 74.86099133333333,
          "velocity": 0.6220472440944882
        },
        {
          "duration": 0.09722206666667432,
          "durationTicks": 28,
          "midi": 55,
          "name": "G3",
          "ticks": 21560,
          "time": 74.86099133333333,
          "velocity": 0.5354330708661418
        },
        {
          "duration": 0.12499979999999766,
          "durationTicks": 36,
          "midi": 58,
          "name": "A#3",
          "ticks": 21560,
          "time": 74.86099133333333,
          "velocity": 0.5669291338582677
        },
        {
          "duration": 0.20138856666666527,
          "durationTicks": 58,
          "midi": 45,
          "name": "A2",
          "ticks": 21600,
          "time": 74.99987999999999,
          "velocity": 0.6771653543307087
        },
        {
          "duration": 0.10416650000000516,
          "durationTicks": 30,
          "midi": 61,
          "name": "C#4",
          "ticks": 21640,
          "time": 75.13876866666666,
          "velocity": 0.4015748031496063
        },
        {
          "duration": 0.10416650000000516,
          "durationTicks": 30,
          "midi": 64,
          "name": "E4",
          "ticks": 21640,
          "time": 75.13876866666666,
          "velocity": 0.4015748031496063
        },
        {
          "duration": 0.1145831499999872,
          "durationTicks": 33,
          "midi": 57,
          "name": "A3",
          "ticks": 21640,
          "time": 75.13876866666666,
          "velocity": 0.3700787401574803
        },
        {
          "duration": 0.09722206666667432,
          "durationTicks": 28,
          "midi": 45,
          "name": "A2",
          "ticks": 21680,
          "time": 75.27765733333332,
          "velocity": 0.5905511811023622
        },
        {
          "duration": 0.10763871666665636,
          "durationTicks": 31,
          "midi": 64,
          "name": "E4",
          "ticks": 21720,
          "time": 75.416546,
          "velocity": 0.5905511811023622
        },
        {
          "duration": 0.10416650000000516,
          "durationTicks": 30,
          "midi": 61,
          "name": "C#4",
          "ticks": 21720,
          "time": 75.416546,
          "velocity": 0.5905511811023622
        },
        {
          "duration": 0.09027763333332928,
          "durationTicks": 26,
          "midi": 57,
          "name": "A3",
          "ticks": 21720,
          "time": 75.416546,
          "velocity": 0.5039370078740157
        },
        {
          "duration": 0.0763887666666676,
          "durationTicks": 22,
          "midi": 45,
          "name": "A2",
          "ticks": 21760,
          "time": 75.55543466666667,
          "velocity": 0.6220472440944882
        },
        {
          "duration": 0.0937498500000089,
          "durationTicks": 27,
          "midi": 45,
          "name": "A2",
          "ticks": 21800,
          "time": 75.69432333333333,
          "velocity": 0.6220472440944882
        },
        {
          "duration": 0.062499899999991726,
          "durationTicks": 18,
          "midi": 69,
          "name": "A4",
          "ticks": 21880,
          "time": 75.97210066666666,
          "velocity": 0.5905511811023622
        },
        {
          "duration": 0.0555554666666751,
          "durationTicks": 16,
          "midi": 61,
          "name": "C#4",
          "ticks": 21880,
          "time": 75.97210066666666,
          "velocity": 0.44881889763779526
        },
        {
          "duration": 0.05902768333334052,
          "durationTicks": 17,
          "midi": 61,
          "name": "C#4",
          "ticks": 21920,
          "time": 76.11098933333332,
          "velocity": 0.4094488188976378
        },
        {
          "duration": 0.06597211666667135,
          "durationTicks": 19,
          "midi": 69,
          "name": "A4",
          "ticks": 21920,
          "time": 76.11098933333332,
          "velocity": 0.5669291338582677
        },
        {
          "duration": 0.05208324999999547,
          "durationTicks": 15,
          "midi": 61,
          "name": "C#4",
          "ticks": 21960,
          "time": 76.249878,
          "velocity": 0.5905511811023622
        },
        {
          "duration": 0.06944433333333677,
          "durationTicks": 20,
          "midi": 69,
          "name": "A4",
          "ticks": 21960,
          "time": 76.249878,
          "velocity": 0.6771653543307087
        },
        {
          "duration": 0.048611033333315845,
          "durationTicks": 14,
          "midi": 61,
          "name": "C#4",
          "ticks": 22000,
          "time": 76.38876666666667,
          "velocity": 0.5905511811023622
        },
        {
          "duration": 0.062499899999991726,
          "durationTicks": 18,
          "midi": 69,
          "name": "A4",
          "ticks": 22000,
          "time": 76.38876666666667,
          "velocity": 0.6771653543307087
        },
        {
          "duration": 0.05208324999999547,
          "durationTicks": 15,
          "midi": 61,
          "name": "C#4",
          "ticks": 22040,
          "time": 76.52765533333333,
          "velocity": 0.6535433070866141
        },
        {
          "duration": 0.06944433333333677,
          "durationTicks": 20,
          "midi": 69,
          "name": "A4",
          "ticks": 22040,
          "time": 76.52765533333333,
          "velocity": 0.7086614173228346
        },
        {
          "duration": 0.1319442333333285,
          "durationTicks": 38,
          "midi": 64,
          "name": "E4",
          "ticks": 22080,
          "time": 76.666544,
          "velocity": 0.5669291338582677
        },
        {
          "duration": 0.1527775333333352,
          "durationTicks": 44,
          "midi": 57,
          "name": "A3",
          "ticks": 22080,
          "time": 76.666544,
          "velocity": 0.5039370078740157
        },
        {
          "duration": 0.13888866666665933,
          "durationTicks": 40,
          "midi": 61,
          "name": "C#4",
          "ticks": 22080,
          "time": 76.666544,
          "velocity": 0.5354330708661418
        },
        {
          "duration": 0.09027763333334349,
          "durationTicks": 26,
          "midi": 45,
          "name": "A2",
          "ticks": 22120,
          "time": 76.80543266666666,
          "velocity": 0.4251968503937008
        },
        {
          "duration": 0.1111109333333502,
          "durationTicks": 32,
          "midi": 57,
          "name": "A3",
          "ticks": 22160,
          "time": 76.94432133333332,
          "velocity": 0.4094488188976378
        },
        {
          "duration": 0.10416650000000516,
          "durationTicks": 30,
          "midi": 64,
          "name": "E4",
          "ticks": 22160,
          "time": 76.94432133333332,
          "velocity": 0.5669291338582677
        },
        {
          "duration": 0.10069428333333974,
          "durationTicks": 29,
          "midi": 61,
          "name": "C#4",
          "ticks": 22160,
          "time": 76.94432133333332,
          "velocity": 0.5039370078740157
        },
        {
          "duration": 0.08680541666667807,
          "durationTicks": 25,
          "midi": 45,
          "name": "A2",
          "ticks": 22200,
          "time": 77.08321,
          "velocity": 0.6220472440944882
        },
        {
          "duration": 0.09027763333332928,
          "durationTicks": 26,
          "midi": 57,
          "name": "A3",
          "ticks": 22240,
          "time": 77.22209866666667,
          "velocity": 0.4251968503937008
        },
        {
          "duration": 0.0937498499999947,
          "durationTicks": 27,
          "midi": 64,
          "name": "E4",
          "ticks": 22240,
          "time": 77.22209866666667,
          "velocity": 0.5669291338582677
        },
        {
          "duration": 0.08680541666666386,
          "durationTicks": 25,
          "midi": 61,
          "name": "C#4",
          "ticks": 22240,
          "time": 77.22209866666667,
          "velocity": 0.5905511811023622
        },
        {
          "duration": 0.0763887666666676,
          "durationTicks": 22,
          "midi": 45,
          "name": "A2",
          "ticks": 22280,
          "time": 77.36098733333333,
          "velocity": 0.6771653543307087
        },
        {
          "duration": 0.0937498499999947,
          "durationTicks": 27,
          "midi": 57,
          "name": "A3",
          "ticks": 22320,
          "time": 77.499876,
          "velocity": 0.5905511811023622
        },
        {
          "duration": 0.10416649999999095,
          "durationTicks": 30,
          "midi": 64,
          "name": "E4",
          "ticks": 22320,
          "time": 77.499876,
          "velocity": 0.6771653543307087
        },
        {
          "duration": 0.10416649999999095,
          "durationTicks": 30,
          "midi": 61,
          "name": "C#4",
          "ticks": 22320,
          "time": 77.499876,
          "velocity": 0.6220472440944882
        },
        {
          "duration": 0.0763887666666676,
          "durationTicks": 22,
          "midi": 45,
          "name": "A2",
          "ticks": 22360,
          "time": 77.63876466666667,
          "velocity": 0.7086614173228346
        },
        {
          "duration": 0.10069428333333974,
          "durationTicks": 29,
          "midi": 64,
          "name": "E4",
          "ticks": 22400,
          "time": 77.77765333333332,
          "velocity": 0.6771653543307087
        },
        {
          "duration": 0.09027763333334349,
          "durationTicks": 26,
          "midi": 57,
          "name": "A3",
          "ticks": 22400,
          "time": 77.77765333333332,
          "velocity": 0.5669291338582677
        },
        {
          "duration": 0.10416650000000516,
          "durationTicks": 30,
          "midi": 61,
          "name": "C#4",
          "ticks": 22400,
          "time": 77.77765333333332,
          "velocity": 0.6771653543307087
        },
        {
          "duration": 0.10416650000000516,
          "durationTicks": 30,
          "midi": 45,
          "name": "A2",
          "ticks": 22440,
          "time": 77.91654199999999,
          "velocity": 0.7559055118110236
        },
        {
          "duration": 0.11111093333332178,
          "durationTicks": 32,
          "midi": 64,
          "name": "E4",
          "ticks": 22480,
          "time": 78.05543066666667,
          "velocity": 0.6771653543307087
        },
        {
          "duration": 0.10763871666667058,
          "durationTicks": 31,
          "midi": 57,
          "name": "A3",
          "ticks": 22480,
          "time": 78.05543066666667,
          "velocity": 0.5905511811023622
        },
        {
          "duration": 0.1145831499999872,
          "durationTicks": 33,
          "midi": 61,
          "name": "C#4",
          "ticks": 22480,
          "time": 78.05543066666667,
          "velocity": 0.6535433070866141
        },
        {
          "duration": 0.10069428333333974,
          "durationTicks": 29,
          "midi": 45,
          "name": "A2",
          "ticks": 22520,
          "time": 78.19431933333333,
          "velocity": 0.7559055118110236
        },
        {
          "duration": 0.15624975000000063,
          "durationTicks": 45,
          "midi": 57,
          "name": "A3",
          "ticks": 22680,
          "time": 78.74987399999999,
          "velocity": 0.6535433070866141
        },
        {
          "duration": 0.1493053166666698,
          "durationTicks": 43,
          "midi": 65,
          "name": "F4",
          "ticks": 22680,
          "time": 78.74987399999999,
          "velocity": 0.7086614173228346
        },
        {
          "duration": 0.15624975000000063,
          "durationTicks": 45,
          "midi": 62,
          "name": "D4",
          "ticks": 22680,
          "time": 78.74987399999999,
          "velocity": 0.7559055118110236
        },
        {
          "duration": 0.17708305000000735,
          "durationTicks": 51,
          "midi": 57,
          "name": "A3",
          "ticks": 22920,
          "time": 79.58320599999999,
          "velocity": 0.5669291338582677
        },
        {
          "duration": 0.1701386166666765,
          "durationTicks": 49,
          "midi": 65,
          "name": "F4",
          "ticks": 22920,
          "time": 79.58320599999999,
          "velocity": 0.7086614173228346
        },
        {
          "duration": 0.17361083333334193,
          "durationTicks": 50,
          "midi": 62,
          "name": "D4",
          "ticks": 22920,
          "time": 79.58320599999999,
          "velocity": 0.7559055118110236
        },
        {
          "duration": 0.15972196666665184,
          "durationTicks": 46,
          "midi": 60,
          "name": "C4",
          "ticks": 23160,
          "time": 80.416538,
          "velocity": 0.6535433070866141
        },
        {
          "duration": 0.1527775333333352,
          "durationTicks": 44,
          "midi": 65,
          "name": "F4",
          "ticks": 23160,
          "time": 80.416538,
          "velocity": 0.6771653543307087
        },
        {
          "duration": 0.15624975000000063,
          "durationTicks": 45,
          "midi": 69,
          "name": "A4",
          "ticks": 23160,
          "time": 80.416538,
          "velocity": 0.6771653543307087
        },
        {
          "duration": 0.15972196666665184,
          "durationTicks": 46,
          "midi": 65,
          "name": "F4",
          "ticks": 23400,
          "time": 81.24987,
          "velocity": 0.6771653543307087
        },
        {
          "duration": 0.17361083333332772,
          "durationTicks": 50,
          "midi": 60,
          "name": "C4",
          "ticks": 23400,
          "time": 81.24987,
          "velocity": 0.6771653543307087
        },
        {
          "duration": 0.15624975000000063,
          "durationTicks": 45,
          "midi": 69,
          "name": "A4",
          "ticks": 23400,
          "time": 81.24987,
          "velocity": 0.7086614173228346
        },
        {
          "duration": 0.14930531666665559,
          "durationTicks": 43,
          "midi": 55,
          "name": "G3",
          "ticks": 23640,
          "time": 82.083202,
          "velocity": 0.6535433070866141
        },
        {
          "duration": 0.1527775333333352,
          "durationTicks": 44,
          "midi": 62,
          "name": "D4",
          "ticks": 23640,
          "time": 82.083202,
          "velocity": 0.7559055118110236
        },
        {
          "duration": 0.1527775333333352,
          "durationTicks": 44,
          "midi": 59,
          "name": "B3",
          "ticks": 23640,
          "time": 82.083202,
          "velocity": 0.7559055118110236
        },
        {
          "duration": 0.17361083333332772,
          "durationTicks": 50,
          "midi": 62,
          "name": "D4",
          "ticks": 23880,
          "time": 82.916534,
          "velocity": 0.7086614173228346
        },
        {
          "duration": 0.13541644999999392,
          "durationTicks": 39,
          "midi": 55,
          "name": "G3",
          "ticks": 23880,
          "time": 82.916534,
          "velocity": 0.6535433070866141
        },
        {
          "duration": 0.17361083333332772,
          "durationTicks": 50,
          "midi": 59,
          "name": "B3",
          "ticks": 23880,
          "time": 82.916534,
          "velocity": 0.7086614173228346
        },
        {
          "duration": 0.17361083333332772,
          "durationTicks": 50,
          "midi": 58,
          "name": "A#3",
          "ticks": 24120,
          "time": 83.749866,
          "velocity": 0.5669291338582677
        },
        {
          "duration": 0.16666639999999688,
          "durationTicks": 48,
          "midi": 62,
          "name": "D4",
          "ticks": 24120,
          "time": 83.749866,
          "velocity": 0.7559055118110236
        },
        {
          "duration": 0.17708305000000735,
          "durationTicks": 51,
          "midi": 65,
          "name": "F4",
          "ticks": 24120,
          "time": 83.749866,
          "velocity": 0.6771653543307087
        },
        {
          "duration": 0.1874996999999894,
          "durationTicks": 54,
          "midi": 58,
          "name": "A#3",
          "ticks": 24360,
          "time": 84.583198,
          "velocity": 0.5669291338582677
        },
        {
          "duration": 0.18402748333333818,
          "durationTicks": 53,
          "midi": 65,
          "name": "F4",
          "ticks": 24360,
          "time": 84.583198,
          "velocity": 0.6535433070866141
        },
        {
          "duration": 0.16666639999999688,
          "durationTicks": 48,
          "midi": 62,
          "name": "D4",
          "ticks": 24360,
          "time": 84.583198,
          "velocity": 0.7559055118110236
        },
        {
          "duration": 0.1874997000000036,
          "durationTicks": 54,
          "midi": 69,
          "name": "A4",
          "ticks": 24600,
          "time": 85.41653,
          "velocity": 0.6220472440944882
        },
        {
          "duration": 0.1874997000000036,
          "durationTicks": 54,
          "midi": 62,
          "name": "D4",
          "ticks": 24600,
          "time": 85.41653,
          "velocity": 0.6535433070866141
        },
        {
          "duration": 0.19097191666666902,
          "durationTicks": 55,
          "midi": 65,
          "name": "F4",
          "ticks": 24600,
          "time": 85.41653,
          "velocity": 0.6771653543307087
        },
        {
          "duration": 0.1527775333333352,
          "durationTicks": 44,
          "midi": 69,
          "name": "A4",
          "ticks": 24840,
          "time": 86.249862,
          "velocity": 0.6771653543307087
        },
        {
          "duration": 0.16319418333334568,
          "durationTicks": 47,
          "midi": 65,
          "name": "F4",
          "ticks": 24840,
          "time": 86.249862,
          "velocity": 0.7086614173228346
        },
        {
          "duration": 0.17708305000000735,
          "durationTicks": 51,
          "midi": 62,
          "name": "D4",
          "ticks": 24840,
          "time": 86.249862,
          "velocity": 0.6535433070866141
        },
        {
          "duration": 0.18402748333333818,
          "durationTicks": 53,
          "midi": 53,
          "name": "F3",
          "ticks": 25080,
          "time": 87.08319399999999,
          "velocity": 0.6220472440944882
        },
        {
          "duration": 0.17361083333332772,
          "durationTicks": 50,
          "midi": 57,
          "name": "A3",
          "ticks": 25080,
          "time": 87.08319399999999,
          "velocity": 0.7086614173228346
        },
        {
          "duration": 0.1701386166666765,
          "durationTicks": 49,
          "midi": 60,
          "name": "C4",
          "ticks": 25080,
          "time": 87.08319399999999,
          "velocity": 0.7086614173228346
        },
        {
          "duration": 0.18402748333333818,
          "durationTicks": 53,
          "midi": 60,
          "name": "C4",
          "ticks": 25320,
          "time": 87.91652599999999,
          "velocity": 0.6771653543307087
        },
        {
          "duration": 0.1666664000000111,
          "durationTicks": 48,
          "midi": 53,
          "name": "F3",
          "ticks": 25320,
          "time": 87.91652599999999,
          "velocity": 0.6771653543307087
        },
        {
          "duration": 0.19444413333333443,
          "durationTicks": 56,
          "midi": 57,
          "name": "A3",
          "ticks": 25320,
          "time": 87.91652599999999,
          "velocity": 0.7086614173228346
        },
        {
          "duration": 0.1701386166666765,
          "durationTicks": 49,
          "midi": 62,
          "name": "D4",
          "ticks": 25560,
          "time": 88.74985799999999,
          "velocity": 0.7086614173228346
        },
        {
          "duration": 0.16319418333334568,
          "durationTicks": 47,
          "midi": 55,
          "name": "G3",
          "ticks": 25560,
          "time": 88.74985799999999,
          "velocity": 0.6535433070866141
        },
        {
          "duration": 0.17708305000000735,
          "durationTicks": 51,
          "midi": 59,
          "name": "B3",
          "ticks": 25560,
          "time": 88.74985799999999,
          "velocity": 0.7559055118110236
        },
        {
          "duration": 0.17361083333332772,
          "durationTicks": 50,
          "midi": 62,
          "name": "D4",
          "ticks": 25800,
          "time": 89.58319,
          "velocity": 0.7559055118110236
        },
        {
          "duration": 0.14583309999999017,
          "durationTicks": 42,
          "midi": 55,
          "name": "G3",
          "ticks": 25800,
          "time": 89.58319,
          "velocity": 0.6771653543307087
        },
        {
          "duration": 0.17708304999999314,
          "durationTicks": 51,
          "midi": 59,
          "name": "B3",
          "ticks": 25800,
          "time": 89.58319,
          "velocity": 0.7086614173228346
        },
        {
          "duration": 0.1874996999999894,
          "durationTicks": 54,
          "midi": 65,
          "name": "F4",
          "ticks": 26040,
          "time": 90.416522,
          "velocity": 0.7086614173228346
        },
        {
          "duration": 0.19097191666666902,
          "durationTicks": 55,
          "midi": 58,
          "name": "A#3",
          "ticks": 26040,
          "time": 90.416522,
          "velocity": 0.6535433070866141
        },
        {
          "duration": 0.1701386166666623,
          "durationTicks": 49,
          "midi": 62,
          "name": "D4",
          "ticks": 26040,
          "time": 90.416522,
          "velocity": 0.7559055118110236
        },
        {
          "duration": 0.14236088333333896,
          "durationTicks": 41,
          "midi": 57,
          "name": "A3",
          "ticks": 26520,
          "time": 92.083186,
          "velocity": 0.5905511811023622
        },
        {
          "duration": 0.12499979999999766,
          "durationTicks": 36,
          "midi": 62,
          "name": "D4",
          "ticks": 26520,
          "time": 92.083186,
          "velocity": 0.7086614173228346
        },
        {
          "duration": 0.12847201666666308,
          "durationTicks": 37,
          "midi": 65,
          "name": "F4",
          "ticks": 26520,
          "time": 92.083186,
          "velocity": 0.6535433070866141
        },
        {
          "duration": 0.09722206666667432,
          "durationTicks": 28,
          "midi": 65,
          "name": "F4",
          "ticks": 26600,
          "time": 92.36096333333333,
          "velocity": 0.6220472440944882
        },
        {
          "duration": 0.11805536666666683,
          "durationTicks": 34,
          "midi": 57,
          "name": "A3",
          "ticks": 26600,
          "time": 92.36096333333333,
          "velocity": 0.5669291338582677
        },
        {
          "duration": 0.12152758333333225,
          "durationTicks": 35,
          "midi": 62,
          "name": "D4",
          "ticks": 26600,
          "time": 92.36096333333333,
          "velocity": 0.7086614173228346
        },
        {
          "duration": 0.11805536666666683,
          "durationTicks": 34,
          "midi": 65,
          "name": "F4",
          "ticks": 26760,
          "time": 92.916518,
          "velocity": 0.6535433070866141
        },
        {
          "duration": 0.12847201666666308,
          "durationTicks": 37,
          "midi": 57,
          "name": "A3",
          "ticks": 26760,
          "time": 92.916518,
          "velocity": 0.6220472440944882
        },
        {
          "duration": 0.11458315000000141,
          "durationTicks": 33,
          "midi": 62,
          "name": "D4",
          "ticks": 26760,
          "time": 92.916518,
          "velocity": 0.7086614173228346
        },
        {
          "duration": 0.11111093333333599,
          "durationTicks": 32,
          "midi": 62,
          "name": "D4",
          "ticks": 26840,
          "time": 93.19429533333333,
          "velocity": 0.7559055118110236
        },
        {
          "duration": 0.10416649999999095,
          "durationTicks": 30,
          "midi": 57,
          "name": "A3",
          "ticks": 26840,
          "time": 93.19429533333333,
          "velocity": 0.6220472440944882
        },
        {
          "duration": 0.11805536666666683,
          "durationTicks": 34,
          "midi": 65,
          "name": "F4",
          "ticks": 26840,
          "time": 93.19429533333333,
          "velocity": 0.6771653543307087
        },
        {
          "duration": 0.11458315000000141,
          "durationTicks": 33,
          "midi": 57,
          "name": "A3",
          "ticks": 27000,
          "time": 93.74985,
          "velocity": 0.5669291338582677
        },
        {
          "duration": 0.12152758333333225,
          "durationTicks": 35,
          "midi": 62,
          "name": "D4",
          "ticks": 27000,
          "time": 93.74985,
          "velocity": 0.6771653543307087
        },
        {
          "duration": 0.12152758333333225,
          "durationTicks": 35,
          "midi": 65,
          "name": "F4",
          "ticks": 27000,
          "time": 93.74985,
          "velocity": 0.6535433070866141
        },
        {
          "duration": 0.33333279999999377,
          "durationTicks": 96,
          "midi": 59,
          "name": "B3",
          "ticks": 27120,
          "time": 94.166516,
          "velocity": 0.7086614173228346
        },
        {
          "duration": 0.3402772333333246,
          "durationTicks": 98,
          "midi": 67,
          "name": "G4",
          "ticks": 27120,
          "time": 94.166516,
          "velocity": 0.7559055118110236
        },
        {
          "duration": 0.34722166666666965,
          "durationTicks": 100,
          "midi": 62,
          "name": "D4",
          "ticks": 27120,
          "time": 94.166516,
          "velocity": 0.7559055118110236
        },
        {
          "duration": 0.3715271833333418,
          "durationTicks": 107,
          "midi": 57,
          "name": "A3",
          "ticks": 27240,
          "time": 94.583182,
          "velocity": 0.6220472440944882
        },
        {
          "duration": 0.38541605000000345,
          "durationTicks": 111,
          "midi": 65,
          "name": "F4",
          "ticks": 27240,
          "time": 94.583182,
          "velocity": 0.6771653543307087
        },
        {
          "duration": 0.3784716166666726,
          "durationTicks": 109,
          "midi": 60,
          "name": "C4",
          "ticks": 27240,
          "time": 94.583182,
          "velocity": 0.7559055118110236
        },
        {
          "duration": 0.32986058333332835,
          "durationTicks": 95,
          "midi": 52,
          "name": "E3",
          "ticks": 27360,
          "time": 94.999848,
          "velocity": 0.6535433070866141
        },
        {
          "duration": 0.32638836666666293,
          "durationTicks": 94,
          "midi": 59,
          "name": "B3",
          "ticks": 27360,
          "time": 94.999848,
          "velocity": 0.6535433070866141
        },
        {
          "duration": 0.1701386166666623,
          "durationTicks": 49,
          "midi": 52,
          "name": "E3",
          "ticks": 27480,
          "time": 95.41651399999999,
          "velocity": 0.6220472440944882
        },
        {
          "duration": 0.19791634999999985,
          "durationTicks": 57,
          "midi": 59,
          "name": "B3",
          "ticks": 27480,
          "time": 95.41651399999999,
          "velocity": 0.6220472440944882
        },
        {
          "duration": 0.28819398333332913,
          "durationTicks": 83,
          "midi": 52,
          "name": "E3",
          "ticks": 27600,
          "time": 95.83318,
          "velocity": 0.6535433070866141
        },
        {
          "duration": 0.2986106333333254,
          "durationTicks": 86,
          "midi": 59,
          "name": "B3",
          "ticks": 27600,
          "time": 95.83318,
          "velocity": 0.6535433070866141
        },
        {
          "duration": 0.2430551666666787,
          "durationTicks": 70,
          "midi": 52,
          "name": "E3",
          "ticks": 27720,
          "time": 96.24984599999999,
          "velocity": 0.6220472440944882
        },
        {
          "duration": 0.2638884666666712,
          "durationTicks": 76,
          "midi": 59,
          "name": "B3",
          "ticks": 27720,
          "time": 96.24984599999999,
          "velocity": 0.5905511811023622
        },
        {
          "duration": 0.19791634999999985,
          "durationTicks": 57,
          "midi": 59,
          "name": "B3",
          "ticks": 27840,
          "time": 96.666512,
          "velocity": 0.5905511811023622
        },
        {
          "duration": 0.16319418333333147,
          "durationTicks": 47,
          "midi": 52,
          "name": "E3",
          "ticks": 27840,
          "time": 96.666512,
          "velocity": 0.5905511811023622
        },
        {
          "duration": 0.18055526666667276,
          "durationTicks": 52,
          "midi": 59,
          "name": "B3",
          "ticks": 27960,
          "time": 97.08317799999999,
          "velocity": 0.6535433070866141
        },
        {
          "duration": 0.1493053166666698,
          "durationTicks": 43,
          "midi": 52,
          "name": "E3",
          "ticks": 27960,
          "time": 97.08317799999999,
          "velocity": 0.5905511811023622
        },
        {
          "duration": 0.1319442333333285,
          "durationTicks": 38,
          "midi": 52,
          "name": "E3",
          "ticks": 28080,
          "time": 97.499844,
          "velocity": 0.5905511811023622
        },
        {
          "duration": 0.18402748333333818,
          "durationTicks": 53,
          "midi": 59,
          "name": "B3",
          "ticks": 28080,
          "time": 97.499844,
          "velocity": 0.6535433070866141
        },
        {
          "duration": 0.10069428333332553,
          "durationTicks": 29,
          "midi": 52,
          "name": "E3",
          "ticks": 28200,
          "time": 97.91651,
          "velocity": 0.6535433070866141
        },
        {
          "duration": 0.10416649999999095,
          "durationTicks": 30,
          "midi": 59,
          "name": "B3",
          "ticks": 28200,
          "time": 97.91651,
          "velocity": 0.7086614173228346
        },
        {
          "duration": 0.27430511666666746,
          "durationTicks": 79,
          "midi": 47,
          "name": "B2",
          "ticks": 28320,
          "time": 98.333176,
          "velocity": 0.6535433070866141
        },
        {
          "duration": 0.2986106333333396,
          "durationTicks": 86,
          "midi": 54,
          "name": "F#3",
          "ticks": 28320,
          "time": 98.333176,
          "velocity": 0.6771653543307087
        },
        {
          "duration": 0.21527743333332694,
          "durationTicks": 62,
          "midi": 47,
          "name": "B2",
          "ticks": 28440,
          "time": 98.749842,
          "velocity": 0.6220472440944882
        },
        {
          "duration": 0.22916630000000282,
          "durationTicks": 66,
          "midi": 54,
          "name": "F#3",
          "ticks": 28440,
          "time": 98.749842,
          "velocity": 0.5905511811023622
        },
        {
          "duration": 0.2638884666666712,
          "durationTicks": 76,
          "midi": 47,
          "name": "B2",
          "ticks": 28560,
          "time": 99.166508,
          "velocity": 0.6535433070866141
        },
        {
          "duration": 0.2847217666666637,
          "durationTicks": 82,
          "midi": 54,
          "name": "F#3",
          "ticks": 28560,
          "time": 99.166508,
          "velocity": 0.6535433070866141
        },
        {
          "duration": 0.2083329999999961,
          "durationTicks": 60,
          "midi": 47,
          "name": "B2",
          "ticks": 28680,
          "time": 99.583174,
          "velocity": 0.5905511811023622
        },
        {
          "duration": 0.2256940833333232,
          "durationTicks": 65,
          "midi": 54,
          "name": "F#3",
          "ticks": 28680,
          "time": 99.583174,
          "velocity": 0.6220472440944882
        },
        {
          "duration": 0.23958294999999907,
          "durationTicks": 69,
          "midi": 54,
          "name": "F#3",
          "ticks": 28800,
          "time": 99.99983999999999,
          "velocity": 0.6771653543307087
        },
        {
          "duration": 0.22222186666667199,
          "durationTicks": 64,
          "midi": 47,
          "name": "B2",
          "ticks": 28800,
          "time": 99.99983999999999,
          "velocity": 0.5905511811023622
        },
        {
          "duration": 0.18055526666665855,
          "durationTicks": 52,
          "midi": 47,
          "name": "B2",
          "ticks": 28920,
          "time": 100.416506,
          "velocity": 0.6535433070866141
        },
        {
          "duration": 0.2083329999999961,
          "durationTicks": 60,
          "midi": 54,
          "name": "F#3",
          "ticks": 28920,
          "time": 100.416506,
          "velocity": 0.7086614173228346
        },
        {
          "duration": 0.1874997000000036,
          "durationTicks": 54,
          "midi": 54,
          "name": "F#3",
          "ticks": 29040,
          "time": 100.83317199999999,
          "velocity": 0.7086614173228346
        },
        {
          "duration": 0.15972196666666605,
          "durationTicks": 46,
          "midi": 47,
          "name": "B2",
          "ticks": 29040,
          "time": 100.83317199999999,
          "velocity": 0.6220472440944882
        },
        {
          "duration": 0.12847201666666308,
          "durationTicks": 37,
          "midi": 47,
          "name": "B2",
          "ticks": 29160,
          "time": 101.249838,
          "velocity": 0.6535433070866141
        },
        {
          "duration": 0.11805536666666683,
          "durationTicks": 34,
          "midi": 54,
          "name": "F#3",
          "ticks": 29160,
          "time": 101.249838,
          "velocity": 0.7086614173228346
        },
        {
          "duration": 0.27083290000000204,
          "durationTicks": 78,
          "midi": 52,
          "name": "E3",
          "ticks": 29280,
          "time": 101.66650399999999,
          "velocity": 0.6220472440944882
        },
        {
          "duration": 0.26736068333335083,
          "durationTicks": 77,
          "midi": 59,
          "name": "B3",
          "ticks": 29280,
          "time": 101.66650399999999,
          "velocity": 0.6771653543307087
        },
        {
          "duration": 0.2083329999999961,
          "durationTicks": 60,
          "midi": 52,
          "name": "E3",
          "ticks": 29400,
          "time": 102.08317,
          "velocity": 0.6771653543307087
        },
        {
          "duration": 0.22916630000000282,
          "durationTicks": 66,
          "midi": 59,
          "name": "B3",
          "ticks": 29400,
          "time": 102.08317,
          "velocity": 0.6535433070866141
        },
        {
          "duration": 0.20138856666665106,
          "durationTicks": 58,
          "midi": 59,
          "name": "B3",
          "ticks": 29520,
          "time": 102.499836,
          "velocity": 0.6535433070866141
        },
        {
          "duration": 0.19097191666666902,
          "durationTicks": 55,
          "midi": 52,
          "name": "E3",
          "ticks": 29520,
          "time": 102.499836,
          "velocity": 0.6535433070866141
        },
        {
          "duration": 0.1874996999999894,
          "durationTicks": 54,
          "midi": 52,
          "name": "E3",
          "ticks": 29640,
          "time": 102.916502,
          "velocity": 0.6535433070866141
        },
        {
          "duration": 0.21527743333334115,
          "durationTicks": 62,
          "midi": 59,
          "name": "B3",
          "ticks": 29640,
          "time": 102.916502,
          "velocity": 0.6535433070866141
        },
        {
          "duration": 0.1874996999999894,
          "durationTicks": 54,
          "midi": 52,
          "name": "E3",
          "ticks": 29760,
          "time": 103.333168,
          "velocity": 0.6535433070866141
        },
        {
          "duration": 0.22222186666665777,
          "durationTicks": 64,
          "midi": 59,
          "name": "B3",
          "ticks": 29760,
          "time": 103.333168,
          "velocity": 0.6535433070866141
        },
        {
          "duration": 0.18055526666667276,
          "durationTicks": 52,
          "midi": 52,
          "name": "E3",
          "ticks": 29880,
          "time": 103.74983399999999,
          "velocity": 0.6220472440944882
        },
        {
          "duration": 0.21874965000000657,
          "durationTicks": 63,
          "midi": 59,
          "name": "B3",
          "ticks": 29880,
          "time": 103.74983399999999,
          "velocity": 0.6535433070866141
        },
        {
          "duration": 0.14930531666665559,
          "durationTicks": 43,
          "midi": 52,
          "name": "E3",
          "ticks": 30000,
          "time": 104.1665,
          "velocity": 0.6535433070866141
        },
        {
          "duration": 0.19444413333333443,
          "durationTicks": 56,
          "midi": 59,
          "name": "B3",
          "ticks": 30000,
          "time": 104.1665,
          "velocity": 0.6771653543307087
        },
        {
          "duration": 0.10069428333333974,
          "durationTicks": 29,
          "midi": 52,
          "name": "E3",
          "ticks": 30120,
          "time": 104.58316599999999,
          "velocity": 0.6771653543307087
        },
        {
          "duration": 0.10069428333333974,
          "durationTicks": 29,
          "midi": 59,
          "name": "B3",
          "ticks": 30120,
          "time": 104.58316599999999,
          "velocity": 0.7559055118110236
        },
        {
          "duration": 0.2604162499999916,
          "durationTicks": 75,
          "midi": 47,
          "name": "B2",
          "ticks": 30240,
          "time": 104.999832,
          "velocity": 0.6771653543307087
        },
        {
          "duration": 0.27083290000000204,
          "durationTicks": 78,
          "midi": 54,
          "name": "F#3",
          "ticks": 30240,
          "time": 104.999832,
          "velocity": 0.6771653543307087
        },
        {
          "duration": 0.2048607833333449,
          "durationTicks": 59,
          "midi": 47,
          "name": "B2",
          "ticks": 30360,
          "time": 105.41649799999999,
          "velocity": 0.6535433070866141
        },
        {
          "duration": 0.21527743333334115,
          "durationTicks": 62,
          "midi": 54,
          "name": "F#3",
          "ticks": 30360,
          "time": 105.41649799999999,
          "velocity": 0.6771653543307087
        },
        {
          "duration": 0.15624975000000063,
          "durationTicks": 45,
          "midi": 47,
          "name": "B2",
          "ticks": 30480,
          "time": 105.833164,
          "velocity": 0.6535433070866141
        },
        {
          "duration": 0.1874996999999894,
          "durationTicks": 54,
          "midi": 54,
          "name": "F#3",
          "ticks": 30480,
          "time": 105.833164,
          "velocity": 0.6771653543307087
        },
        {
          "duration": 0.22222186666667199,
          "durationTicks": 64,
          "midi": 54,
          "name": "F#3",
          "ticks": 30600,
          "time": 106.24982999999999,
          "velocity": 0.6771653543307087
        },
        {
          "duration": 0.2048607833333449,
          "durationTicks": 59,
          "midi": 47,
          "name": "B2",
          "ticks": 30600,
          "time": 106.24982999999999,
          "velocity": 0.6535433070866141
        },
        {
          "duration": 0.2604162500000058,
          "durationTicks": 75,
          "midi": 47,
          "name": "B2",
          "ticks": 30720,
          "time": 106.666496,
          "velocity": 0.6220472440944882
        },
        {
          "duration": 0.2812495499999983,
          "durationTicks": 81,
          "midi": 54,
          "name": "F#3",
          "ticks": 30720,
          "time": 106.666496,
          "velocity": 0.6771653543307087
        },
        {
          "duration": 0.1909719166666548,
          "durationTicks": 55,
          "midi": 47,
          "name": "B2",
          "ticks": 30840,
          "time": 107.083162,
          "velocity": 0.6220472440944882
        },
        {
          "duration": 0.21527743333332694,
          "durationTicks": 62,
          "midi": 54,
          "name": "F#3",
          "ticks": 30840,
          "time": 107.083162,
          "velocity": 0.6535433070866141
        },
        {
          "duration": 0.21874964999999236,
          "durationTicks": 63,
          "midi": 54,
          "name": "F#3",
          "ticks": 30960,
          "time": 107.499828,
          "velocity": 0.7086614173228346
        },
        {
          "duration": 0.1909719166666548,
          "durationTicks": 55,
          "midi": 47,
          "name": "B2",
          "ticks": 30960,
          "time": 107.499828,
          "velocity": 0.6771653543307087
        },
        {
          "duration": 0.13541644999999392,
          "durationTicks": 39,
          "midi": 54,
          "name": "F#3",
          "ticks": 31080,
          "time": 107.916494,
          "velocity": 0.7086614173228346
        },
        {
          "duration": 0.18055526666665855,
          "durationTicks": 52,
          "midi": 47,
          "name": "B2",
          "ticks": 31080,
          "time": 107.916494,
          "velocity": 0.6771653543307087
        },
        {
          "duration": 0.14236088333332475,
          "durationTicks": 41,
          "midi": 72,
          "name": "C5",
          "ticks": 31320,
          "time": 108.749826,
          "velocity": 0.6771653543307087
        },
        {
          "duration": 0.14583310000000438,
          "durationTicks": 42,
          "midi": 65,
          "name": "F4",
          "ticks": 31320,
          "time": 108.749826,
          "velocity": 0.6220472440944882
        },
        {
          "duration": 0.14583310000000438,
          "durationTicks": 42,
          "midi": 69,
          "name": "A4",
          "ticks": 31320,
          "time": 108.749826,
          "velocity": 0.6771653543307087
        },
        {
          "duration": 0.1527775333333352,
          "durationTicks": 44,
          "midi": 69,
          "name": "A4",
          "ticks": 31560,
          "time": 109.583158,
          "velocity": 0.7086614173228346
        },
        {
          "duration": 0.14583310000000438,
          "durationTicks": 42,
          "midi": 72,
          "name": "C5",
          "ticks": 31560,
          "time": 109.583158,
          "velocity": 0.7086614173228346
        },
        {
          "duration": 0.16319418333333147,
          "durationTicks": 47,
          "midi": 65,
          "name": "F4",
          "ticks": 31560,
          "time": 109.583158,
          "velocity": 0.6771653543307087
        },
        {
          "duration": 0.15972196666666605,
          "durationTicks": 46,
          "midi": 60,
          "name": "C4",
          "ticks": 31800,
          "time": 110.41649,
          "velocity": 0.6220472440944882
        },
        {
          "duration": 0.17708305000000735,
          "durationTicks": 51,
          "midi": 69,
          "name": "A4",
          "ticks": 31800,
          "time": 110.41649,
          "velocity": 0.6535433070866141
        },
        {
          "duration": 0.17708305000000735,
          "durationTicks": 51,
          "midi": 65,
          "name": "F4",
          "ticks": 31800,
          "time": 110.41649,
          "velocity": 0.7559055118110236
        },
        {
          "duration": 0.1527775333333352,
          "durationTicks": 44,
          "midi": 72,
          "name": "C5",
          "ticks": 32040,
          "time": 111.249822,
          "velocity": 0.7086614173228346
        },
        {
          "duration": 0.16319418333333147,
          "durationTicks": 47,
          "midi": 65,
          "name": "F4",
          "ticks": 32040,
          "time": 111.249822,
          "velocity": 0.6220472440944882
        },
        {
          "duration": 0.15972196666666605,
          "durationTicks": 46,
          "midi": 69,
          "name": "A4",
          "ticks": 32040,
          "time": 111.249822,
          "velocity": 0.6771653543307087
        },
        {
          "duration": 0.1493053166666698,
          "durationTicks": 43,
          "midi": 64,
          "name": "E4",
          "ticks": 32280,
          "time": 112.083154,
          "velocity": 0.5905511811023622
        },
        {
          "duration": 0.1527775333333352,
          "durationTicks": 44,
          "midi": 67,
          "name": "G4",
          "ticks": 32280,
          "time": 112.083154,
          "velocity": 0.6771653543307087
        },
        {
          "duration": 0.15624975000000063,
          "durationTicks": 45,
          "midi": 72,
          "name": "C5",
          "ticks": 32280,
          "time": 112.083154,
          "velocity": 0.6771653543307087
        },
        {
          "duration": 0.14236088333332475,
          "durationTicks": 41,
          "midi": 72,
          "name": "C5",
          "ticks": 32520,
          "time": 112.91648599999999,
          "velocity": 0.6771653543307087
        },
        {
          "duration": 0.1319442333333285,
          "durationTicks": 38,
          "midi": 64,
          "name": "E4",
          "ticks": 32520,
          "time": 112.91648599999999,
          "velocity": 0.6220472440944882
        },
        {
          "duration": 0.14236088333332475,
          "durationTicks": 41,
          "midi": 67,
          "name": "G4",
          "ticks": 32520,
          "time": 112.91648599999999,
          "velocity": 0.7086614173228346
        },
        {
          "duration": 0.14236088333332475,
          "durationTicks": 41,
          "midi": 72,
          "name": "C5",
          "ticks": 32760,
          "time": 113.74981799999999,
          "velocity": 0.6771653543307087
        },
        {
          "duration": 0.12499980000001187,
          "durationTicks": 36,
          "midi": 64,
          "name": "E4",
          "ticks": 32760,
          "time": 113.74981799999999,
          "velocity": 0.6220472440944882
        },
        {
          "duration": 0.13541644999999392,
          "durationTicks": 39,
          "midi": 67,
          "name": "G4",
          "ticks": 32760,
          "time": 113.74981799999999,
          "velocity": 0.7086614173228346
        },
        {
          "duration": 0.149305316666684,
          "durationTicks": 43,
          "midi": 64,
          "name": "E4",
          "ticks": 33000,
          "time": 114.58314999999999,
          "velocity": 0.5905511811023622
        },
        {
          "duration": 0.16319418333333147,
          "durationTicks": 47,
          "midi": 72,
          "name": "C5",
          "ticks": 33000,
          "time": 114.58314999999999,
          "velocity": 0.6535433070866141
        },
        {
          "duration": 0.15972196666666605,
          "durationTicks": 46,
          "midi": 67,
          "name": "G4",
          "ticks": 33000,
          "time": 114.58314999999999,
          "velocity": 0.6771653543307087
        },
        {
          "duration": 0.08333319999999844,
          "durationTicks": 24,
          "midi": 60,
          "name": "C4",
          "ticks": 33240,
          "time": 115.41648199999999,
          "velocity": 0.6771653543307087
        },
        {
          "duration": 0.09027763333332928,
          "durationTicks": 26,
          "midi": 65,
          "name": "F4",
          "ticks": 33240,
          "time": 115.41648199999999,
          "velocity": 0.6771653543307087
        },
        {
          "duration": 0.11805536666668104,
          "durationTicks": 34,
          "midi": 69,
          "name": "A4",
          "ticks": 33240,
          "time": 115.41648199999999,
          "velocity": 0.6771653543307087
        },
        {
          "duration": 0.09722206666666011,
          "durationTicks": 28,
          "midi": 65,
          "name": "F4",
          "ticks": 33480,
          "time": 116.249814,
          "velocity": 0.7559055118110236
        },
        {
          "duration": 0.08333319999998423,
          "durationTicks": 24,
          "midi": 62,
          "name": "D4",
          "ticks": 33480,
          "time": 116.249814,
          "velocity": 0.7086614173228346
        },
        {
          "duration": 0.1145831499999872,
          "durationTicks": 33,
          "midi": 69,
          "name": "A4",
          "ticks": 33480,
          "time": 116.249814,
          "velocity": 0.6771653543307087
        },
        {
          "duration": 0.10069428333332553,
          "durationTicks": 29,
          "midi": 62,
          "name": "D4",
          "ticks": 33720,
          "time": 117.083146,
          "velocity": 0.7086614173228346
        },
        {
          "duration": 0.11111093333332178,
          "durationTicks": 32,
          "midi": 65,
          "name": "F4",
          "ticks": 33720,
          "time": 117.083146,
          "velocity": 0.7559055118110236
        },
        {
          "duration": 0.1319442333333285,
          "durationTicks": 38,
          "midi": 69,
          "name": "A4",
          "ticks": 33720,
          "time": 117.083146,
          "velocity": 0.7086614173228346
        },
        {
          "duration": 0.12152758333333225,
          "durationTicks": 35,
          "midi": 70,
          "name": "A#4",
          "ticks": 33960,
          "time": 117.916478,
          "velocity": 0.7086614173228346
        },
        {
          "duration": 0.12152758333333225,
          "durationTicks": 35,
          "midi": 65,
          "name": "F4",
          "ticks": 33960,
          "time": 117.916478,
          "velocity": 0.7086614173228346
        },
        {
          "duration": 0.10763871666665636,
          "durationTicks": 31,
          "midi": 62,
          "name": "D4",
          "ticks": 34200,
          "time": 118.74981,
          "velocity": 0.6220472440944882
        },
        {
          "duration": 0.1145831499999872,
          "durationTicks": 33,
          "midi": 70,
          "name": "A#4",
          "ticks": 34200,
          "time": 118.74981,
          "velocity": 0.6220472440944882
        },
        {
          "duration": 0.10416649999999095,
          "durationTicks": 30,
          "midi": 65,
          "name": "F4",
          "ticks": 34200,
          "time": 118.74981,
          "velocity": 0.6771653543307087
        },
        {
          "duration": 0.10416650000000516,
          "durationTicks": 30,
          "midi": 70,
          "name": "A#4",
          "ticks": 34440,
          "time": 119.583142,
          "velocity": 0.6220472440944882
        },
        {
          "duration": 0.07986098333333302,
          "durationTicks": 23,
          "midi": 62,
          "name": "D4",
          "ticks": 34440,
          "time": 119.583142,
          "velocity": 0.6220472440944882
        },
        {
          "duration": 0.0937498500000089,
          "durationTicks": 27,
          "midi": 65,
          "name": "F4",
          "ticks": 34440,
          "time": 119.583142,
          "velocity": 0.7086614173228346
        },
        {
          "duration": 0.07986098333333302,
          "durationTicks": 23,
          "midi": 62,
          "name": "D4",
          "ticks": 34680,
          "time": 120.416474,
          "velocity": 0.6535433070866141
        },
        {
          "duration": 0.11805536666668104,
          "durationTicks": 34,
          "midi": 70,
          "name": "A#4",
          "ticks": 34680,
          "time": 120.416474,
          "velocity": 0.7086614173228346
        },
        {
          "duration": 0.09722206666667432,
          "durationTicks": 28,
          "midi": 65,
          "name": "F4",
          "ticks": 34680,
          "time": 120.416474,
          "velocity": 0.7086614173228346
        },
        {
          "duration": 0.08333319999999844,
          "durationTicks": 24,
          "midi": 62,
          "name": "D4",
          "ticks": 34920,
          "time": 121.24980599999999,
          "velocity": 0.6535433070866141
        },
        {
          "duration": 0.11111093333333599,
          "durationTicks": 32,
          "midi": 67,
          "name": "G4",
          "ticks": 34920,
          "time": 121.24980599999999,
          "velocity": 0.7086614173228346
        },
        {
          "duration": 0.1145831499999872,
          "durationTicks": 33,
          "midi": 71,
          "name": "B4",
          "ticks": 34920,
          "time": 121.24980599999999,
          "velocity": 0.6771653543307087
        },
        {
          "duration": 0.06597211666668557,
          "durationTicks": 19,
          "midi": 62,
          "name": "D4",
          "ticks": 35160,
          "time": 122.08313799999999,
          "velocity": 0.5905511811023622
        },
        {
          "duration": 0.1145831499999872,
          "durationTicks": 33,
          "midi": 71,
          "name": "B4",
          "ticks": 35160,
          "time": 122.08313799999999,
          "velocity": 0.7086614173228346
        },
        {
          "duration": 0.10763871666667058,
          "durationTicks": 31,
          "midi": 67,
          "name": "G4",
          "ticks": 35160,
          "time": 122.08313799999999,
          "velocity": 0.7086614173228346
        },
        {
          "duration": 0.0763887666666676,
          "durationTicks": 22,
          "midi": 62,
          "name": "D4",
          "ticks": 35400,
          "time": 122.91646999999999,
          "velocity": 0.6535433070866141
        },
        {
          "duration": 0.10416650000000516,
          "durationTicks": 30,
          "midi": 67,
          "name": "G4",
          "ticks": 35400,
          "time": 122.91646999999999,
          "velocity": 0.7086614173228346
        },
        {
          "duration": 0.10763871666667058,
          "durationTicks": 31,
          "midi": 71,
          "name": "B4",
          "ticks": 35400,
          "time": 122.91646999999999,
          "velocity": 0.7086614173228346
        },
        {
          "duration": 0.11458315000000141,
          "durationTicks": 33,
          "midi": 62,
          "name": "D4",
          "ticks": 35640,
          "time": 123.74980199999999,
          "velocity": 0.7086614173228346
        },
        {
          "duration": 0.12499980000001187,
          "durationTicks": 36,
          "midi": 67,
          "name": "G4",
          "ticks": 35640,
          "time": 123.74980199999999,
          "velocity": 0.7086614173228346
        },
        {
          "duration": 0.1284720166666773,
          "durationTicks": 37,
          "midi": 71,
          "name": "B4",
          "ticks": 35640,
          "time": 123.74980199999999,
          "velocity": 0.7086614173228346
        },
        {
          "duration": 0.12499979999999766,
          "durationTicks": 36,
          "midi": 61,
          "name": "C#4",
          "ticks": 35880,
          "time": 124.583134,
          "velocity": 0.5669291338582677
        },
        {
          "duration": 0.14236088333331054,
          "durationTicks": 41,
          "midi": 64,
          "name": "E4",
          "ticks": 35880,
          "time": 124.583134,
          "velocity": 0.7086614173228346
        },
        {
          "duration": 0.13541644999999392,
          "durationTicks": 39,
          "midi": 69,
          "name": "A4",
          "ticks": 35880,
          "time": 124.583134,
          "velocity": 0.6771653543307087
        },
        {
          "duration": 0.11111093333332178,
          "durationTicks": 32,
          "midi": 64,
          "name": "E4",
          "ticks": 36120,
          "time": 125.416466,
          "velocity": 0.7559055118110236
        },
        {
          "duration": 0.12152758333333225,
          "durationTicks": 35,
          "midi": 69,
          "name": "A4",
          "ticks": 36120,
          "time": 125.416466,
          "velocity": 0.6771653543307087
        },
        {
          "duration": 0.13541644999999392,
          "durationTicks": 39,
          "midi": 61,
          "name": "C#4",
          "ticks": 36120,
          "time": 125.416466,
          "velocity": 0.6220472440944882
        },
        {
          "duration": 0.14236088333332475,
          "durationTicks": 41,
          "midi": 69,
          "name": "A4",
          "ticks": 36360,
          "time": 126.249798,
          "velocity": 0.6535433070866141
        },
        {
          "duration": 0.1493053166666698,
          "durationTicks": 43,
          "midi": 64,
          "name": "E4",
          "ticks": 36360,
          "time": 126.249798,
          "velocity": 0.7086614173228346
        },
        {
          "duration": 0.14583310000000438,
          "durationTicks": 42,
          "midi": 61,
          "name": "C#4",
          "ticks": 36360,
          "time": 126.249798,
          "velocity": 0.6220472440944882
        },
        {
          "duration": 0.12847201666666308,
          "durationTicks": 37,
          "midi": 61,
          "name": "C#4",
          "ticks": 36600,
          "time": 127.08313,
          "velocity": 0.6535433070866141
        },
        {
          "duration": 0.13541644999999392,
          "durationTicks": 39,
          "midi": 64,
          "name": "E4",
          "ticks": 36600,
          "time": 127.08313,
          "velocity": 0.7086614173228346
        },
        {
          "duration": 0.15624975000000063,
          "durationTicks": 45,
          "midi": 69,
          "name": "A4",
          "ticks": 36600,
          "time": 127.08313,
          "velocity": 0.6771653543307087
        },
        {
          "duration": 0.32986058333334256,
          "durationTicks": 95,
          "midi": 52,
          "name": "E3",
          "ticks": 36720,
          "time": 127.49979599999999,
          "velocity": 0.6535433070866141
        },
        {
          "duration": 0.32638836666667714,
          "durationTicks": 94,
          "midi": 59,
          "name": "B3",
          "ticks": 36720,
          "time": 127.49979599999999,
          "velocity": 0.6535433070866141
        },
        {
          "duration": 0.1701386166666623,
          "durationTicks": 49,
          "midi": 52,
          "name": "E3",
          "ticks": 36840,
          "time": 127.916462,
          "velocity": 0.6220472440944882
        },
        {
          "duration": 0.19791635000001406,
          "durationTicks": 57,
          "midi": 59,
          "name": "B3",
          "ticks": 36840,
          "time": 127.916462,
          "velocity": 0.6220472440944882
        },
        {
          "duration": 0.28819398333334334,
          "durationTicks": 83,
          "midi": 52,
          "name": "E3",
          "ticks": 36960,
          "time": 128.333128,
          "velocity": 0.6535433070866141
        },
        {
          "duration": 0.2986106333333396,
          "durationTicks": 86,
          "midi": 59,
          "name": "B3",
          "ticks": 36960,
          "time": 128.333128,
          "velocity": 0.6535433070866141
        },
        {
          "duration": 0.2430551666666645,
          "durationTicks": 70,
          "midi": 52,
          "name": "E3",
          "ticks": 37080,
          "time": 128.74979399999998,
          "velocity": 0.6220472440944882
        },
        {
          "duration": 0.2638884666666854,
          "durationTicks": 76,
          "midi": 59,
          "name": "B3",
          "ticks": 37080,
          "time": 128.74979399999998,
          "velocity": 0.5905511811023622
        },
        {
          "duration": 0.19791635000001406,
          "durationTicks": 57,
          "midi": 59,
          "name": "B3",
          "ticks": 37200,
          "time": 129.16646,
          "velocity": 0.5905511811023622
        },
        {
          "duration": 0.16319418333333147,
          "durationTicks": 47,
          "midi": 52,
          "name": "E3",
          "ticks": 37200,
          "time": 129.16646,
          "velocity": 0.5905511811023622
        },
        {
          "duration": 0.18055526666665855,
          "durationTicks": 52,
          "midi": 59,
          "name": "B3",
          "ticks": 37320,
          "time": 129.583126,
          "velocity": 0.6535433070866141
        },
        {
          "duration": 0.1493053166666698,
          "durationTicks": 43,
          "midi": 52,
          "name": "E3",
          "ticks": 37320,
          "time": 129.583126,
          "velocity": 0.5905511811023622
        },
        {
          "duration": 0.1319442333333427,
          "durationTicks": 38,
          "midi": 52,
          "name": "E3",
          "ticks": 37440,
          "time": 129.99979199999999,
          "velocity": 0.5905511811023622
        },
        {
          "duration": 0.1840274833333524,
          "durationTicks": 53,
          "midi": 59,
          "name": "B3",
          "ticks": 37440,
          "time": 129.99979199999999,
          "velocity": 0.6535433070866141
        },
        {
          "duration": 0.10069428333332553,
          "durationTicks": 29,
          "midi": 52,
          "name": "E3",
          "ticks": 37560,
          "time": 130.416458,
          "velocity": 0.6535433070866141
        },
        {
          "duration": 0.10416649999999095,
          "durationTicks": 30,
          "midi": 59,
          "name": "B3",
          "ticks": 37560,
          "time": 130.416458,
          "velocity": 0.7086614173228346
        },
        {
          "duration": 0.27430511666668167,
          "durationTicks": 79,
          "midi": 47,
          "name": "B2",
          "ticks": 37680,
          "time": 130.833124,
          "velocity": 0.6535433070866141
        },
        {
          "duration": 0.29861063333331117,
          "durationTicks": 86,
          "midi": 54,
          "name": "F#3",
          "ticks": 37680,
          "time": 130.833124,
          "velocity": 0.6771653543307087
        },
        {
          "duration": 0.21527743333334115,
          "durationTicks": 62,
          "midi": 47,
          "name": "B2",
          "ticks": 37800,
          "time": 131.24979,
          "velocity": 0.6220472440944882
        },
        {
          "duration": 0.22916630000000282,
          "durationTicks": 66,
          "midi": 54,
          "name": "F#3",
          "ticks": 37800,
          "time": 131.24979,
          "velocity": 0.5905511811023622
        },
        {
          "duration": 0.2638884666666854,
          "durationTicks": 76,
          "midi": 47,
          "name": "B2",
          "ticks": 37920,
          "time": 131.66645599999998,
          "velocity": 0.6535433070866141
        },
        {
          "duration": 0.2847217666666779,
          "durationTicks": 82,
          "midi": 54,
          "name": "F#3",
          "ticks": 37920,
          "time": 131.66645599999998,
          "velocity": 0.6535433070866141
        },
        {
          "duration": 0.2083329999999819,
          "durationTicks": 60,
          "midi": 47,
          "name": "B2",
          "ticks": 38040,
          "time": 132.083122,
          "velocity": 0.5905511811023622
        },
        {
          "duration": 0.2256940833333374,
          "durationTicks": 65,
          "midi": 54,
          "name": "F#3",
          "ticks": 38040,
          "time": 132.083122,
          "velocity": 0.6220472440944882
        },
        {
          "duration": 0.23958294999999907,
          "durationTicks": 69,
          "midi": 54,
          "name": "F#3",
          "ticks": 38160,
          "time": 132.499788,
          "velocity": 0.6771653543307087
        },
        {
          "duration": 0.22222186666667199,
          "durationTicks": 64,
          "midi": 47,
          "name": "B2",
          "ticks": 38160,
          "time": 132.499788,
          "velocity": 0.5905511811023622
        },
        {
          "duration": 0.18055526666668698,
          "durationTicks": 52,
          "midi": 47,
          "name": "B2",
          "ticks": 38280,
          "time": 132.916454,
          "velocity": 0.6535433070866141
        },
        {
          "duration": 0.20833300000001032,
          "durationTicks": 60,
          "midi": 54,
          "name": "F#3",
          "ticks": 38280,
          "time": 132.916454,
          "velocity": 0.7086614173228346
        },
        {
          "duration": 0.1874996999999894,
          "durationTicks": 54,
          "midi": 54,
          "name": "F#3",
          "ticks": 38400,
          "time": 133.33312,
          "velocity": 0.7086614173228346
        },
        {
          "duration": 0.15972196666663763,
          "durationTicks": 46,
          "midi": 47,
          "name": "B2",
          "ticks": 38400,
          "time": 133.33312,
          "velocity": 0.6220472440944882
        },
        {
          "duration": 0.12847201666664887,
          "durationTicks": 37,
          "midi": 47,
          "name": "B2",
          "ticks": 38520,
          "time": 133.749786,
          "velocity": 0.6535433070866141
        },
        {
          "duration": 0.11805536666668104,
          "durationTicks": 34,
          "midi": 54,
          "name": "F#3",
          "ticks": 38520,
          "time": 133.749786,
          "velocity": 0.7086614173228346
        },
        {
          "duration": 0.27083289999998783,
          "durationTicks": 78,
          "midi": 52,
          "name": "E3",
          "ticks": 38640,
          "time": 134.166452,
          "velocity": 0.6220472440944882
        },
        {
          "duration": 0.2673606833333224,
          "durationTicks": 77,
          "midi": 59,
          "name": "B3",
          "ticks": 38640,
          "time": 134.166452,
          "velocity": 0.6771653543307087
        },
        {
          "duration": 0.20833300000001032,
          "durationTicks": 60,
          "midi": 52,
          "name": "E3",
          "ticks": 38760,
          "time": 134.58311799999998,
          "velocity": 0.6771653543307087
        },
        {
          "duration": 0.22916630000000282,
          "durationTicks": 66,
          "midi": 59,
          "name": "B3",
          "ticks": 38760,
          "time": 134.58311799999998,
          "velocity": 0.6535433070866141
        },
        {
          "duration": 0.20138856666665106,
          "durationTicks": 58,
          "midi": 59,
          "name": "B3",
          "ticks": 38880,
          "time": 134.999784,
          "velocity": 0.6535433070866141
        },
        {
          "duration": 0.1909719166666548,
          "durationTicks": 55,
          "midi": 52,
          "name": "E3",
          "ticks": 38880,
          "time": 134.999784,
          "velocity": 0.6535433070866141
        },
        {
          "duration": 0.1874996999999894,
          "durationTicks": 54,
          "midi": 52,
          "name": "E3",
          "ticks": 39000,
          "time": 135.41645,
          "velocity": 0.6535433070866141
        },
        {
          "duration": 0.21527743333331273,
          "durationTicks": 62,
          "midi": 59,
          "name": "B3",
          "ticks": 39000,
          "time": 135.41645,
          "velocity": 0.6535433070866141
        },
        {
          "duration": 0.1874996999999894,
          "durationTicks": 54,
          "midi": 52,
          "name": "E3",
          "ticks": 39120,
          "time": 135.833116,
          "velocity": 0.6535433070866141
        },
        {
          "duration": 0.22222186666667199,
          "durationTicks": 64,
          "midi": 59,
          "name": "B3",
          "ticks": 39120,
          "time": 135.833116,
          "velocity": 0.6535433070866141
        },
        {
          "duration": 0.18055526666668698,
          "durationTicks": 52,
          "midi": 52,
          "name": "E3",
          "ticks": 39240,
          "time": 136.24978199999998,
          "velocity": 0.6220472440944882
        },
        {
          "duration": 0.21874965000000657,
          "durationTicks": 63,
          "midi": 59,
          "name": "B3",
          "ticks": 39240,
          "time": 136.24978199999998,
          "velocity": 0.6535433070866141
        },
        {
          "duration": 0.1493053166666698,
          "durationTicks": 43,
          "midi": 52,
          "name": "E3",
          "ticks": 39360,
          "time": 136.666448,
          "velocity": 0.6535433070866141
        },
        {
          "duration": 0.19444413333332022,
          "durationTicks": 56,
          "midi": 59,
          "name": "B3",
          "ticks": 39360,
          "time": 136.666448,
          "velocity": 0.6771653543307087
        },
        {
          "duration": 0.10069428333332553,
          "durationTicks": 29,
          "midi": 52,
          "name": "E3",
          "ticks": 39480,
          "time": 137.083114,
          "velocity": 0.6771653543307087
        },
        {
          "duration": 0.10069428333332553,
          "durationTicks": 29,
          "midi": 59,
          "name": "B3",
          "ticks": 39480,
          "time": 137.083114,
          "velocity": 0.7559055118110236
        },
        {
          "duration": 0.26041625000002,
          "durationTicks": 75,
          "midi": 47,
          "name": "B2",
          "ticks": 39600,
          "time": 137.49978,
          "velocity": 0.6771653543307087
        },
        {
          "duration": 0.27083289999998783,
          "durationTicks": 78,
          "midi": 54,
          "name": "F#3",
          "ticks": 39600,
          "time": 137.49978,
          "velocity": 0.6771653543307087
        },
        {
          "duration": 0.20486078333331648,
          "durationTicks": 59,
          "midi": 47,
          "name": "B2",
          "ticks": 39720,
          "time": 137.916446,
          "velocity": 0.6535433070866141
        },
        {
          "duration": 0.21527743333331273,
          "durationTicks": 62,
          "midi": 54,
          "name": "F#3",
          "ticks": 39720,
          "time": 137.916446,
          "velocity": 0.6771653543307087
        },
        {
          "duration": 0.15624975000000063,
          "durationTicks": 45,
          "midi": 47,
          "name": "B2",
          "ticks": 39840,
          "time": 138.333112,
          "velocity": 0.6535433070866141
        },
        {
          "duration": 0.1874996999999894,
          "durationTicks": 54,
          "midi": 54,
          "name": "F#3",
          "ticks": 39840,
          "time": 138.333112,
          "velocity": 0.6771653543307087
        },
        {
          "duration": 0.22222186666667199,
          "durationTicks": 64,
          "midi": 54,
          "name": "F#3",
          "ticks": 39960,
          "time": 138.749778,
          "velocity": 0.6771653543307087
        },
        {
          "duration": 0.2048607833333449,
          "durationTicks": 59,
          "midi": 47,
          "name": "B2",
          "ticks": 39960,
          "time": 138.749778,
          "velocity": 0.6535433070866141
        },
        {
          "duration": 0.26041625000002,
          "durationTicks": 75,
          "midi": 47,
          "name": "B2",
          "ticks": 40080,
          "time": 139.16644399999998,
          "velocity": 0.6220472440944882
        },
        {
          "duration": 0.2812495500000125,
          "durationTicks": 81,
          "midi": 54,
          "name": "F#3",
          "ticks": 40080,
          "time": 139.16644399999998,
          "velocity": 0.6771653543307087
        },
        {
          "duration": 0.1909719166666548,
          "durationTicks": 55,
          "midi": 47,
          "name": "B2",
          "ticks": 40200,
          "time": 139.58311,
          "velocity": 0.6220472440944882
        },
        {
          "duration": 0.21527743333331273,
          "durationTicks": 62,
          "midi": 54,
          "name": "F#3",
          "ticks": 40200,
          "time": 139.58311,
          "velocity": 0.6535433070866141
        },
        {
          "duration": 0.21874964999997815,
          "durationTicks": 63,
          "midi": 54,
          "name": "F#3",
          "ticks": 40320,
          "time": 139.999776,
          "velocity": 0.7086614173228346
        },
        {
          "duration": 0.1909719166666548,
          "durationTicks": 55,
          "midi": 47,
          "name": "B2",
          "ticks": 40320,
          "time": 139.999776,
          "velocity": 0.6771653543307087
        },
        {
          "duration": 0.13541645000000813,
          "durationTicks": 39,
          "midi": 54,
          "name": "F#3",
          "ticks": 40440,
          "time": 140.416442,
          "velocity": 0.7086614173228346
        },
        {
          "duration": 0.18055526666665855,
          "durationTicks": 52,
          "midi": 47,
          "name": "B2",
          "ticks": 40440,
          "time": 140.416442,
          "velocity": 0.6771653543307087
        },
        {
          "duration": 0.14236088333331054,
          "durationTicks": 41,
          "midi": 72,
          "name": "C5",
          "ticks": 40680,
          "time": 141.249774,
          "velocity": 0.6771653543307087
        },
        {
          "duration": 0.14583310000000438,
          "durationTicks": 42,
          "midi": 65,
          "name": "F4",
          "ticks": 40680,
          "time": 141.249774,
          "velocity": 0.6220472440944882
        },
        {
          "duration": 0.14583310000000438,
          "durationTicks": 42,
          "midi": 69,
          "name": "A4",
          "ticks": 40680,
          "time": 141.249774,
          "velocity": 0.6771653543307087
        },
        {
          "duration": 0.1527775333333352,
          "durationTicks": 44,
          "midi": 69,
          "name": "A4",
          "ticks": 40920,
          "time": 142.083106,
          "velocity": 0.7086614173228346
        },
        {
          "duration": 0.14583310000000438,
          "durationTicks": 42,
          "midi": 72,
          "name": "C5",
          "ticks": 40920,
          "time": 142.083106,
          "velocity": 0.7086614173228346
        },
        {
          "duration": 0.16319418333333147,
          "durationTicks": 47,
          "midi": 65,
          "name": "F4",
          "ticks": 40920,
          "time": 142.083106,
          "velocity": 0.6771653543307087
        },
        {
          "duration": 0.15972196666666605,
          "durationTicks": 46,
          "midi": 60,
          "name": "C4",
          "ticks": 41160,
          "time": 142.916438,
          "velocity": 0.6220472440944882
        },
        {
          "duration": 0.17708304999999314,
          "durationTicks": 51,
          "midi": 69,
          "name": "A4",
          "ticks": 41160,
          "time": 142.916438,
          "velocity": 0.6535433070866141
        },
        {
          "duration": 0.17708304999999314,
          "durationTicks": 51,
          "midi": 65,
          "name": "F4",
          "ticks": 41160,
          "time": 142.916438,
          "velocity": 0.7559055118110236
        },
        {
          "duration": 0.1527775333333352,
          "durationTicks": 44,
          "midi": 72,
          "name": "C5",
          "ticks": 41400,
          "time": 143.74976999999998,
          "velocity": 0.7086614173228346
        },
        {
          "duration": 0.16319418333333147,
          "durationTicks": 47,
          "midi": 65,
          "name": "F4",
          "ticks": 41400,
          "time": 143.74976999999998,
          "velocity": 0.6220472440944882
        },
        {
          "duration": 0.15972196666666605,
          "durationTicks": 46,
          "midi": 69,
          "name": "A4",
          "ticks": 41400,
          "time": 143.74976999999998,
          "velocity": 0.6771653543307087
        },
        {
          "duration": 0.1493053166666698,
          "durationTicks": 43,
          "midi": 64,
          "name": "E4",
          "ticks": 41640,
          "time": 144.583102,
          "velocity": 0.5905511811023622
        },
        {
          "duration": 0.1527775333333352,
          "durationTicks": 44,
          "midi": 67,
          "name": "G4",
          "ticks": 41640,
          "time": 144.583102,
          "velocity": 0.6771653543307087
        },
        {
          "duration": 0.15624975000000063,
          "durationTicks": 45,
          "midi": 72,
          "name": "C5",
          "ticks": 41640,
          "time": 144.583102,
          "velocity": 0.6771653543307087
        },
        {
          "duration": 0.14236088333333896,
          "durationTicks": 41,
          "midi": 72,
          "name": "C5",
          "ticks": 41880,
          "time": 145.41643399999998,
          "velocity": 0.6771653543307087
        },
        {
          "duration": 0.1319442333333427,
          "durationTicks": 38,
          "midi": 64,
          "name": "E4",
          "ticks": 41880,
          "time": 145.41643399999998,
          "velocity": 0.6220472440944882
        },
        {
          "duration": 0.14236088333333896,
          "durationTicks": 41,
          "midi": 67,
          "name": "G4",
          "ticks": 41880,
          "time": 145.41643399999998,
          "velocity": 0.7086614173228346
        },
        {
          "duration": 0.14236088333331054,
          "durationTicks": 41,
          "midi": 72,
          "name": "C5",
          "ticks": 42120,
          "time": 146.249766,
          "velocity": 0.6771653543307087
        },
        {
          "duration": 0.12499980000001187,
          "durationTicks": 36,
          "midi": 64,
          "name": "E4",
          "ticks": 42120,
          "time": 146.249766,
          "velocity": 0.6220472440944882
        },
        {
          "duration": 0.13541645000000813,
          "durationTicks": 39,
          "midi": 67,
          "name": "G4",
          "ticks": 42120,
          "time": 146.249766,
          "velocity": 0.7086614173228346
        },
        {
          "duration": 0.1493053166666698,
          "durationTicks": 43,
          "midi": 64,
          "name": "E4",
          "ticks": 42360,
          "time": 147.083098,
          "velocity": 0.5905511811023622
        },
        {
          "duration": 0.16319418333330304,
          "durationTicks": 47,
          "midi": 72,
          "name": "C5",
          "ticks": 42360,
          "time": 147.083098,
          "velocity": 0.6535433070866141
        },
        {
          "duration": 0.15972196666663763,
          "durationTicks": 46,
          "midi": 67,
          "name": "G4",
          "ticks": 42360,
          "time": 147.083098,
          "velocity": 0.6771653543307087
        },
        {
          "duration": 0.08333319999999844,
          "durationTicks": 24,
          "midi": 60,
          "name": "C4",
          "ticks": 42600,
          "time": 147.91643,
          "velocity": 0.6771653543307087
        },
        {
          "duration": 0.09027763333332928,
          "durationTicks": 26,
          "midi": 65,
          "name": "F4",
          "ticks": 42600,
          "time": 147.91643,
          "velocity": 0.6771653543307087
        },
        {
          "duration": 0.11805536666668104,
          "durationTicks": 34,
          "midi": 69,
          "name": "A4",
          "ticks": 42600,
          "time": 147.91643,
          "velocity": 0.6771653543307087
        },
        {
          "duration": 0.09722206666666011,
          "durationTicks": 28,
          "midi": 65,
          "name": "F4",
          "ticks": 42840,
          "time": 148.749762,
          "velocity": 0.7559055118110236
        },
        {
          "duration": 0.08333319999999844,
          "durationTicks": 24,
          "midi": 62,
          "name": "D4",
          "ticks": 42840,
          "time": 148.749762,
          "velocity": 0.7086614173228346
        },
        {
          "duration": 0.1145831499999872,
          "durationTicks": 33,
          "midi": 69,
          "name": "A4",
          "ticks": 42840,
          "time": 148.749762,
          "velocity": 0.6771653543307087
        },
        {
          "duration": 0.10069428333335395,
          "durationTicks": 29,
          "midi": 62,
          "name": "D4",
          "ticks": 43080,
          "time": 149.583094,
          "velocity": 0.7086614173228346
        },
        {
          "duration": 0.11111093333332178,
          "durationTicks": 32,
          "midi": 65,
          "name": "F4",
          "ticks": 43080,
          "time": 149.583094,
          "velocity": 0.7559055118110236
        },
        {
          "duration": 0.1319442333333427,
          "durationTicks": 38,
          "midi": 69,
          "name": "A4",
          "ticks": 43080,
          "time": 149.583094,
          "velocity": 0.7086614173228346
        },
        {
          "duration": 0.12152758333334646,
          "durationTicks": 35,
          "midi": 70,
          "name": "A#4",
          "ticks": 43320,
          "time": 150.416426,
          "velocity": 0.7086614173228346
        },
        {
          "duration": 0.12152758333334646,
          "durationTicks": 35,
          "midi": 65,
          "name": "F4",
          "ticks": 43320,
          "time": 150.416426,
          "velocity": 0.7086614173228346
        },
        {
          "duration": 0.10763871666668479,
          "durationTicks": 31,
          "midi": 62,
          "name": "D4",
          "ticks": 43560,
          "time": 151.24975799999999,
          "velocity": 0.6220472440944882
        },
        {
          "duration": 0.1145831499999872,
          "durationTicks": 33,
          "midi": 70,
          "name": "A#4",
          "ticks": 43560,
          "time": 151.24975799999999,
          "velocity": 0.6220472440944882
        },
        {
          "duration": 0.10416650000001937,
          "durationTicks": 30,
          "midi": 65,
          "name": "F4",
          "ticks": 43560,
          "time": 151.24975799999999,
          "velocity": 0.6771653543307087
        },
        {
          "duration": 0.10416649999999095,
          "durationTicks": 30,
          "midi": 70,
          "name": "A#4",
          "ticks": 43800,
          "time": 152.08309,
          "velocity": 0.6220472440944882
        },
        {
          "duration": 0.07986098333333302,
          "durationTicks": 23,
          "midi": 62,
          "name": "D4",
          "ticks": 43800,
          "time": 152.08309,
          "velocity": 0.6220472440944882
        },
        {
          "duration": 0.0937498499999947,
          "durationTicks": 27,
          "midi": 65,
          "name": "F4",
          "ticks": 43800,
          "time": 152.08309,
          "velocity": 0.7086614173228346
        },
        {
          "duration": 0.07986098333333302,
          "durationTicks": 23,
          "midi": 62,
          "name": "D4",
          "ticks": 44040,
          "time": 152.91642199999998,
          "velocity": 0.6535433070866141
        },
        {
          "duration": 0.11805536666668104,
          "durationTicks": 34,
          "midi": 70,
          "name": "A#4",
          "ticks": 44040,
          "time": 152.91642199999998,
          "velocity": 0.7086614173228346
        },
        {
          "duration": 0.09722206666668853,
          "durationTicks": 28,
          "midi": 65,
          "name": "F4",
          "ticks": 44040,
          "time": 152.91642199999998,
          "velocity": 0.7086614173228346
        },
        {
          "duration": 0.08333319999999844,
          "durationTicks": 24,
          "midi": 62,
          "name": "D4",
          "ticks": 44280,
          "time": 153.749754,
          "velocity": 0.6535433070866141
        },
        {
          "duration": 0.11111093333332178,
          "durationTicks": 32,
          "midi": 67,
          "name": "G4",
          "ticks": 44280,
          "time": 153.749754,
          "velocity": 0.7086614173228346
        },
        {
          "duration": 0.1145831499999872,
          "durationTicks": 33,
          "midi": 71,
          "name": "B4",
          "ticks": 44280,
          "time": 153.749754,
          "velocity": 0.6771653543307087
        },
        {
          "duration": 0.06597211666669978,
          "durationTicks": 19,
          "midi": 62,
          "name": "D4",
          "ticks": 44520,
          "time": 154.58308599999998,
          "velocity": 0.5905511811023622
        },
        {
          "duration": 0.11458315000001562,
          "durationTicks": 33,
          "midi": 71,
          "name": "B4",
          "ticks": 44520,
          "time": 154.58308599999998,
          "velocity": 0.7086614173228346
        },
        {
          "duration": 0.10763871666668479,
          "durationTicks": 31,
          "midi": 67,
          "name": "G4",
          "ticks": 44520,
          "time": 154.58308599999998,
          "velocity": 0.7086614173228346
        },
        {
          "duration": 0.0763887666666676,
          "durationTicks": 22,
          "midi": 62,
          "name": "D4",
          "ticks": 44760,
          "time": 155.416418,
          "velocity": 0.6535433070866141
        },
        {
          "duration": 0.10416649999999095,
          "durationTicks": 30,
          "midi": 67,
          "name": "G4",
          "ticks": 44760,
          "time": 155.416418,
          "velocity": 0.7086614173228346
        },
        {
          "duration": 0.10763871666665636,
          "durationTicks": 31,
          "midi": 71,
          "name": "B4",
          "ticks": 44760,
          "time": 155.416418,
          "velocity": 0.7086614173228346
        },
        {
          "duration": 0.1145831499999872,
          "durationTicks": 33,
          "midi": 62,
          "name": "D4",
          "ticks": 45000,
          "time": 156.24975,
          "velocity": 0.7086614173228346
        },
        {
          "duration": 0.12499979999998345,
          "durationTicks": 36,
          "midi": 67,
          "name": "G4",
          "ticks": 45000,
          "time": 156.24975,
          "velocity": 0.7086614173228346
        },
        {
          "duration": 0.12847201666664887,
          "durationTicks": 37,
          "midi": 71,
          "name": "B4",
          "ticks": 45000,
          "time": 156.24975,
          "velocity": 0.7086614173228346
        },
        {
          "duration": 0.12499980000001187,
          "durationTicks": 36,
          "midi": 61,
          "name": "C#4",
          "ticks": 45240,
          "time": 157.083082,
          "velocity": 0.5669291338582677
        },
        {
          "duration": 0.14236088333331054,
          "durationTicks": 41,
          "midi": 64,
          "name": "E4",
          "ticks": 45240,
          "time": 157.083082,
          "velocity": 0.7086614173228346
        },
        {
          "duration": 0.13541645000000813,
          "durationTicks": 39,
          "midi": 69,
          "name": "A4",
          "ticks": 45240,
          "time": 157.083082,
          "velocity": 0.6771653543307087
        },
        {
          "duration": 0.11111093333332178,
          "durationTicks": 32,
          "midi": 64,
          "name": "E4",
          "ticks": 45480,
          "time": 157.916414,
          "velocity": 0.7559055118110236
        },
        {
          "duration": 0.12152758333331803,
          "durationTicks": 35,
          "midi": 69,
          "name": "A4",
          "ticks": 45480,
          "time": 157.916414,
          "velocity": 0.6771653543307087
        },
        {
          "duration": 0.1354164499999797,
          "durationTicks": 39,
          "midi": 61,
          "name": "C#4",
          "ticks": 45480,
          "time": 157.916414,
          "velocity": 0.6220472440944882
        },
        {
          "duration": 0.14236088333333896,
          "durationTicks": 41,
          "midi": 69,
          "name": "A4",
          "ticks": 45720,
          "time": 158.749746,
          "velocity": 0.6535433070866141
        },
        {
          "duration": 0.1493053166666698,
          "durationTicks": 43,
          "midi": 64,
          "name": "E4",
          "ticks": 45720,
          "time": 158.749746,
          "velocity": 0.7086614173228346
        },
        {
          "duration": 0.14583310000000438,
          "durationTicks": 42,
          "midi": 61,
          "name": "C#4",
          "ticks": 45720,
          "time": 158.749746,
          "velocity": 0.6220472440944882
        },
        {
          "duration": 0.12847201666664887,
          "durationTicks": 37,
          "midi": 61,
          "name": "C#4",
          "ticks": 45960,
          "time": 159.583078,
          "velocity": 0.6535433070866141
        },
        {
          "duration": 0.1354164499999797,
          "durationTicks": 39,
          "midi": 64,
          "name": "E4",
          "ticks": 45960,
          "time": 159.583078,
          "velocity": 0.7086614173228346
        },
        {
          "duration": 0.15624975000000063,
          "durationTicks": 45,
          "midi": 69,
          "name": "A4",
          "ticks": 45960,
          "time": 159.583078,
          "velocity": 0.6771653543307087
        },
        {
          "duration": 0.15624975000000063,
          "durationTicks": 45,
          "midi": 57,
          "name": "A3",
          "ticks": 46200,
          "time": 160.41640999999998,
          "velocity": 0.6535433070866141
        },
        {
          "duration": 0.1493053166666698,
          "durationTicks": 43,
          "midi": 65,
          "name": "F4",
          "ticks": 46200,
          "time": 160.41640999999998,
          "velocity": 0.7086614173228346
        },
        {
          "duration": 0.15624975000000063,
          "durationTicks": 45,
          "midi": 62,
          "name": "D4",
          "ticks": 46200,
          "time": 160.41640999999998,
          "velocity": 0.7559055118110236
        },
        {
          "duration": 0.17708304999999314,
          "durationTicks": 51,
          "midi": 57,
          "name": "A3",
          "ticks": 46440,
          "time": 161.249742,
          "velocity": 0.5669291338582677
        },
        {
          "duration": 0.1701386166666623,
          "durationTicks": 49,
          "midi": 65,
          "name": "F4",
          "ticks": 46440,
          "time": 161.249742,
          "velocity": 0.7086614173228346
        },
        {
          "duration": 0.17361083333332772,
          "durationTicks": 50,
          "midi": 62,
          "name": "D4",
          "ticks": 46440,
          "time": 161.249742,
          "velocity": 0.7559055118110236
        },
        {
          "duration": 0.15972196666666605,
          "durationTicks": 46,
          "midi": 60,
          "name": "C4",
          "ticks": 46680,
          "time": 162.08307399999998,
          "velocity": 0.6535433070866141
        },
        {
          "duration": 0.1527775333333352,
          "durationTicks": 44,
          "midi": 65,
          "name": "F4",
          "ticks": 46680,
          "time": 162.08307399999998,
          "velocity": 0.6771653543307087
        },
        {
          "duration": 0.15624975000000063,
          "durationTicks": 45,
          "midi": 69,
          "name": "A4",
          "ticks": 46680,
          "time": 162.08307399999998,
          "velocity": 0.6771653543307087
        },
        {
          "duration": 0.15972196666666605,
          "durationTicks": 46,
          "midi": 65,
          "name": "F4",
          "ticks": 46920,
          "time": 162.916406,
          "velocity": 0.6771653543307087
        },
        {
          "duration": 0.17361083333332772,
          "durationTicks": 50,
          "midi": 60,
          "name": "C4",
          "ticks": 46920,
          "time": 162.916406,
          "velocity": 0.6771653543307087
        },
        {
          "duration": 0.15624975000000063,
          "durationTicks": 45,
          "midi": 69,
          "name": "A4",
          "ticks": 46920,
          "time": 162.916406,
          "velocity": 0.7086614173228346
        },
        {
          "duration": 0.14930531666669822,
          "durationTicks": 43,
          "midi": 55,
          "name": "G3",
          "ticks": 47160,
          "time": 163.74973799999998,
          "velocity": 0.6535433070866141
        },
        {
          "duration": 0.15277753333336364,
          "durationTicks": 44,
          "midi": 62,
          "name": "D4",
          "ticks": 47160,
          "time": 163.74973799999998,
          "velocity": 0.7559055118110236
        },
        {
          "duration": 0.15277753333336364,
          "durationTicks": 44,
          "midi": 59,
          "name": "B3",
          "ticks": 47160,
          "time": 163.74973799999998,
          "velocity": 0.7559055118110236
        },
        {
          "duration": 0.17361083333332772,
          "durationTicks": 50,
          "midi": 62,
          "name": "D4",
          "ticks": 47400,
          "time": 164.58307,
          "velocity": 0.7086614173228346
        },
        {
          "duration": 0.13541645000000813,
          "durationTicks": 39,
          "midi": 55,
          "name": "G3",
          "ticks": 47400,
          "time": 164.58307,
          "velocity": 0.6535433070866141
        },
        {
          "duration": 0.17361083333332772,
          "durationTicks": 50,
          "midi": 59,
          "name": "B3",
          "ticks": 47400,
          "time": 164.58307,
          "velocity": 0.7086614173228346
        },
        {
          "duration": 0.17361083333332772,
          "durationTicks": 50,
          "midi": 58,
          "name": "A#3",
          "ticks": 47640,
          "time": 165.416402,
          "velocity": 0.5669291338582677
        },
        {
          "duration": 0.16666639999996846,
          "durationTicks": 48,
          "midi": 62,
          "name": "D4",
          "ticks": 47640,
          "time": 165.416402,
          "velocity": 0.7559055118110236
        },
        {
          "duration": 0.17708304999999314,
          "durationTicks": 51,
          "midi": 65,
          "name": "F4",
          "ticks": 47640,
          "time": 165.416402,
          "velocity": 0.6771653543307087
        },
        {
          "duration": 0.1874996999999894,
          "durationTicks": 54,
          "midi": 58,
          "name": "A#3",
          "ticks": 47880,
          "time": 166.249734,
          "velocity": 0.5669291338582677
        },
        {
          "duration": 0.18402748333332397,
          "durationTicks": 53,
          "midi": 65,
          "name": "F4",
          "ticks": 47880,
          "time": 166.249734,
          "velocity": 0.6535433070866141
        },
        {
          "duration": 0.16666639999999688,
          "durationTicks": 48,
          "midi": 62,
          "name": "D4",
          "ticks": 47880,
          "time": 166.249734,
          "velocity": 0.7559055118110236
        },
        {
          "duration": 0.1874996999999894,
          "durationTicks": 54,
          "midi": 69,
          "name": "A4",
          "ticks": 48120,
          "time": 167.083066,
          "velocity": 0.6220472440944882
        },
        {
          "duration": 0.1874996999999894,
          "durationTicks": 54,
          "midi": 62,
          "name": "D4",
          "ticks": 48120,
          "time": 167.083066,
          "velocity": 0.6535433070866141
        },
        {
          "duration": 0.1909719166666548,
          "durationTicks": 55,
          "midi": 65,
          "name": "F4",
          "ticks": 48120,
          "time": 167.083066,
          "velocity": 0.6771653543307087
        },
        {
          "duration": 0.1527775333333352,
          "durationTicks": 44,
          "midi": 69,
          "name": "A4",
          "ticks": 48360,
          "time": 167.916398,
          "velocity": 0.6771653543307087
        },
        {
          "duration": 0.16319418333333147,
          "durationTicks": 47,
          "midi": 65,
          "name": "F4",
          "ticks": 48360,
          "time": 167.916398,
          "velocity": 0.7086614173228346
        },
        {
          "duration": 0.17708305000002156,
          "durationTicks": 51,
          "midi": 62,
          "name": "D4",
          "ticks": 48360,
          "time": 167.916398,
          "velocity": 0.6535433070866141
        },
        {
          "duration": 0.18402748333332397,
          "durationTicks": 53,
          "midi": 53,
          "name": "F3",
          "ticks": 48600,
          "time": 168.74973,
          "velocity": 0.6220472440944882
        },
        {
          "duration": 0.17361083333332772,
          "durationTicks": 50,
          "midi": 57,
          "name": "A3",
          "ticks": 48600,
          "time": 168.74973,
          "velocity": 0.7086614173228346
        },
        {
          "duration": 0.1701386166666623,
          "durationTicks": 49,
          "midi": 60,
          "name": "C4",
          "ticks": 48600,
          "time": 168.74973,
          "velocity": 0.7086614173228346
        },
        {
          "duration": 0.1840274833333524,
          "durationTicks": 53,
          "midi": 60,
          "name": "C4",
          "ticks": 48840,
          "time": 169.58306199999998,
          "velocity": 0.6771653543307087
        },
        {
          "duration": 0.16666639999999688,
          "durationTicks": 48,
          "midi": 53,
          "name": "F3",
          "ticks": 48840,
          "time": 169.58306199999998,
          "velocity": 0.6771653543307087
        },
        {
          "duration": 0.19444413333332022,
          "durationTicks": 56,
          "midi": 57,
          "name": "A3",
          "ticks": 48840,
          "time": 169.58306199999998,
          "velocity": 0.7086614173228346
        },
        {
          "duration": 0.1701386166666623,
          "durationTicks": 49,
          "midi": 62,
          "name": "D4",
          "ticks": 49080,
          "time": 170.416394,
          "velocity": 0.7086614173228346
        },
        {
          "duration": 0.16319418333333147,
          "durationTicks": 47,
          "midi": 55,
          "name": "G3",
          "ticks": 49080,
          "time": 170.416394,
          "velocity": 0.6535433070866141
        },
        {
          "duration": 0.17708304999999314,
          "durationTicks": 51,
          "midi": 59,
          "name": "B3",
          "ticks": 49080,
          "time": 170.416394,
          "velocity": 0.7559055118110236
        },
        {
          "duration": 0.17361083333335614,
          "durationTicks": 50,
          "midi": 62,
          "name": "D4",
          "ticks": 49320,
          "time": 171.24972599999998,
          "velocity": 0.7559055118110236
        },
        {
          "duration": 0.1458331000000328,
          "durationTicks": 42,
          "midi": 55,
          "name": "G3",
          "ticks": 49320,
          "time": 171.24972599999998,
          "velocity": 0.6771653543307087
        },
        {
          "duration": 0.17708305000002156,
          "durationTicks": 51,
          "midi": 59,
          "name": "B3",
          "ticks": 49320,
          "time": 171.24972599999998,
          "velocity": 0.7086614173228346
        },
        {
          "duration": 0.1874996999999894,
          "durationTicks": 54,
          "midi": 65,
          "name": "F4",
          "ticks": 49560,
          "time": 172.083058,
          "velocity": 0.7086614173228346
        },
        {
          "duration": 0.1909719166666548,
          "durationTicks": 55,
          "midi": 58,
          "name": "A#3",
          "ticks": 49560,
          "time": 172.083058,
          "velocity": 0.6535433070866141
        },
        {
          "duration": 0.1701386166666623,
          "durationTicks": 49,
          "midi": 62,
          "name": "D4",
          "ticks": 49560,
          "time": 172.083058,
          "velocity": 0.7559055118110236
        },
        {
          "duration": 0.15624975000000063,
          "durationTicks": 45,
          "midi": 57,
          "name": "A3",
          "ticks": 50040,
          "time": 173.749722,
          "velocity": 0.6535433070866141
        },
        {
          "duration": 0.1493053166666698,
          "durationTicks": 43,
          "midi": 65,
          "name": "F4",
          "ticks": 50040,
          "time": 173.749722,
          "velocity": 0.7086614173228346
        },
        {
          "duration": 0.15624975000000063,
          "durationTicks": 45,
          "midi": 62,
          "name": "D4",
          "ticks": 50040,
          "time": 173.749722,
          "velocity": 0.7559055118110236
        },
        {
          "duration": 0.17708304999999314,
          "durationTicks": 51,
          "midi": 57,
          "name": "A3",
          "ticks": 50280,
          "time": 174.583054,
          "velocity": 0.5669291338582677
        },
        {
          "duration": 0.1701386166666623,
          "durationTicks": 49,
          "midi": 65,
          "name": "F4",
          "ticks": 50280,
          "time": 174.583054,
          "velocity": 0.7086614173228346
        },
        {
          "duration": 0.17361083333332772,
          "durationTicks": 50,
          "midi": 62,
          "name": "D4",
          "ticks": 50280,
          "time": 174.583054,
          "velocity": 0.7559055118110236
        },
        {
          "duration": 0.15972196666666605,
          "durationTicks": 46,
          "midi": 60,
          "name": "C4",
          "ticks": 50520,
          "time": 175.416386,
          "velocity": 0.6535433070866141
        },
        {
          "duration": 0.1527775333333352,
          "durationTicks": 44,
          "midi": 65,
          "name": "F4",
          "ticks": 50520,
          "time": 175.416386,
          "velocity": 0.6771653543307087
        },
        {
          "duration": 0.15624975000000063,
          "durationTicks": 45,
          "midi": 69,
          "name": "A4",
          "ticks": 50520,
          "time": 175.416386,
          "velocity": 0.6771653543307087
        },
        {
          "duration": 0.15972196666666605,
          "durationTicks": 46,
          "midi": 65,
          "name": "F4",
          "ticks": 50760,
          "time": 176.249718,
          "velocity": 0.6771653543307087
        },
        {
          "duration": 0.17361083333332772,
          "durationTicks": 50,
          "midi": 60,
          "name": "C4",
          "ticks": 50760,
          "time": 176.249718,
          "velocity": 0.6771653543307087
        },
        {
          "duration": 0.15624975000000063,
          "durationTicks": 45,
          "midi": 69,
          "name": "A4",
          "ticks": 50760,
          "time": 176.249718,
          "velocity": 0.7086614173228346
        },
        {
          "duration": 0.1493053166666698,
          "durationTicks": 43,
          "midi": 55,
          "name": "G3",
          "ticks": 51000,
          "time": 177.08305,
          "velocity": 0.6535433070866141
        },
        {
          "duration": 0.1527775333333352,
          "durationTicks": 44,
          "midi": 62,
          "name": "D4",
          "ticks": 51000,
          "time": 177.08305,
          "velocity": 0.7559055118110236
        },
        {
          "duration": 0.1527775333333352,
          "durationTicks": 44,
          "midi": 59,
          "name": "B3",
          "ticks": 51000,
          "time": 177.08305,
          "velocity": 0.7559055118110236
        },
        {
          "duration": 0.17361083333332772,
          "durationTicks": 50,
          "midi": 62,
          "name": "D4",
          "ticks": 51240,
          "time": 177.916382,
          "velocity": 0.7086614173228346
        },
        {
          "duration": 0.1354164499999797,
          "durationTicks": 39,
          "midi": 55,
          "name": "G3",
          "ticks": 51240,
          "time": 177.916382,
          "velocity": 0.6535433070866141
        },
        {
          "duration": 0.17361083333332772,
          "durationTicks": 50,
          "midi": 59,
          "name": "B3",
          "ticks": 51240,
          "time": 177.916382,
          "velocity": 0.7086614173228346
        },
        {
          "duration": 0.17361083333335614,
          "durationTicks": 50,
          "midi": 58,
          "name": "A#3",
          "ticks": 51480,
          "time": 178.74971399999998,
          "velocity": 0.5669291338582677
        },
        {
          "duration": 0.16666639999999688,
          "durationTicks": 48,
          "midi": 62,
          "name": "D4",
          "ticks": 51480,
          "time": 178.74971399999998,
          "velocity": 0.7559055118110236
        },
        {
          "duration": 0.17708305000002156,
          "durationTicks": 51,
          "midi": 65,
          "name": "F4",
          "ticks": 51480,
          "time": 178.74971399999998,
          "velocity": 0.6771653543307087
        },
        {
          "duration": 0.1874996999999894,
          "durationTicks": 54,
          "midi": 58,
          "name": "A#3",
          "ticks": 51720,
          "time": 179.583046,
          "velocity": 0.5669291338582677
        },
        {
          "duration": 0.18402748333332397,
          "durationTicks": 53,
          "midi": 65,
          "name": "F4",
          "ticks": 51720,
          "time": 179.583046,
          "velocity": 0.6535433070866141
        },
        {
          "duration": 0.16666639999999688,
          "durationTicks": 48,
          "midi": 62,
          "name": "D4",
          "ticks": 51720,
          "time": 179.583046,
          "velocity": 0.7559055118110236
        },
        {
          "duration": 0.1874997000000178,
          "durationTicks": 54,
          "midi": 69,
          "name": "A4",
          "ticks": 51960,
          "time": 180.41637799999998,
          "velocity": 0.6220472440944882
        },
        {
          "duration": 0.1874997000000178,
          "durationTicks": 54,
          "midi": 62,
          "name": "D4",
          "ticks": 51960,
          "time": 180.41637799999998,
          "velocity": 0.6535433070866141
        },
        {
          "duration": 0.19097191666668323,
          "durationTicks": 55,
          "midi": 65,
          "name": "F4",
          "ticks": 51960,
          "time": 180.41637799999998,
          "velocity": 0.6771653543307087
        },
        {
          "duration": 0.1527775333333352,
          "durationTicks": 44,
          "midi": 69,
          "name": "A4",
          "ticks": 52200,
          "time": 181.24971,
          "velocity": 0.6771653543307087
        },
        {
          "duration": 0.16319418333333147,
          "durationTicks": 47,
          "midi": 65,
          "name": "F4",
          "ticks": 52200,
          "time": 181.24971,
          "velocity": 0.7086614173228346
        },
        {
          "duration": 0.17708304999999314,
          "durationTicks": 51,
          "midi": 62,
          "name": "D4",
          "ticks": 52200,
          "time": 181.24971,
          "velocity": 0.6535433070866141
        },
        {
          "duration": 0.1840274833333524,
          "durationTicks": 53,
          "midi": 53,
          "name": "F3",
          "ticks": 52440,
          "time": 182.08304199999998,
          "velocity": 0.6220472440944882
        },
        {
          "duration": 0.17361083333335614,
          "durationTicks": 50,
          "midi": 57,
          "name": "A3",
          "ticks": 52440,
          "time": 182.08304199999998,
          "velocity": 0.7086614173228346
        },
        {
          "duration": 0.17013861666669072,
          "durationTicks": 49,
          "midi": 60,
          "name": "C4",
          "ticks": 52440,
          "time": 182.08304199999998,
          "velocity": 0.7086614173228346
        },
        {
          "duration": 0.18402748333332397,
          "durationTicks": 53,
          "midi": 60,
          "name": "C4",
          "ticks": 52680,
          "time": 182.916374,
          "velocity": 0.6771653543307087
        },
        {
          "duration": 0.16666639999999688,
          "durationTicks": 48,
          "midi": 53,
          "name": "F3",
          "ticks": 52680,
          "time": 182.916374,
          "velocity": 0.6771653543307087
        },
        {
          "duration": 0.19444413333332022,
          "durationTicks": 56,
          "midi": 57,
          "name": "A3",
          "ticks": 52680,
          "time": 182.916374,
          "velocity": 0.7086614173228346
        },
        {
          "duration": 0.1701386166666623,
          "durationTicks": 49,
          "midi": 62,
          "name": "D4",
          "ticks": 52920,
          "time": 183.749706,
          "velocity": 0.7086614173228346
        },
        {
          "duration": 0.16319418333330304,
          "durationTicks": 47,
          "midi": 55,
          "name": "G3",
          "ticks": 52920,
          "time": 183.749706,
          "velocity": 0.6535433070866141
        },
        {
          "duration": 0.17708304999999314,
          "durationTicks": 51,
          "midi": 59,
          "name": "B3",
          "ticks": 52920,
          "time": 183.749706,
          "velocity": 0.7559055118110236
        },
        {
          "duration": 0.17361083333335614,
          "durationTicks": 50,
          "midi": 62,
          "name": "D4",
          "ticks": 53160,
          "time": 184.583038,
          "velocity": 0.7559055118110236
        },
        {
          "duration": 0.14583310000000438,
          "durationTicks": 42,
          "midi": 55,
          "name": "G3",
          "ticks": 53160,
          "time": 184.583038,
          "velocity": 0.6771653543307087
        },
        {
          "duration": 0.17708305000002156,
          "durationTicks": 51,
          "midi": 59,
          "name": "B3",
          "ticks": 53160,
          "time": 184.583038,
          "velocity": 0.7086614173228346
        },
        {
          "duration": 0.1874996999999894,
          "durationTicks": 54,
          "midi": 65,
          "name": "F4",
          "ticks": 53400,
          "time": 185.41637,
          "velocity": 0.7086614173228346
        },
        {
          "duration": 0.1909719166666548,
          "durationTicks": 55,
          "midi": 58,
          "name": "A#3",
          "ticks": 53400,
          "time": 185.41637,
          "velocity": 0.6535433070866141
        },
        {
          "duration": 0.1701386166666623,
          "durationTicks": 49,
          "midi": 62,
          "name": "D4",
          "ticks": 53400,
          "time": 185.41637,
          "velocity": 0.7559055118110236
        },
        {
          "duration": 0.15624975000000063,
          "durationTicks": 45,
          "midi": 57,
          "name": "A3",
          "ticks": 53880,
          "time": 187.083034,
          "velocity": 0.6535433070866141
        },
        {
          "duration": 0.1493053166666698,
          "durationTicks": 43,
          "midi": 65,
          "name": "F4",
          "ticks": 53880,
          "time": 187.083034,
          "velocity": 0.7086614173228346
        },
        {
          "duration": 0.15624975000000063,
          "durationTicks": 45,
          "midi": 62,
          "name": "D4",
          "ticks": 53880,
          "time": 187.083034,
          "velocity": 0.7559055118110236
        },
        {
          "duration": 0.17708305000002156,
          "durationTicks": 51,
          "midi": 57,
          "name": "A3",
          "ticks": 54120,
          "time": 187.91636599999998,
          "velocity": 0.5669291338582677
        },
        {
          "duration": 0.17013861666669072,
          "durationTicks": 49,
          "midi": 65,
          "name": "F4",
          "ticks": 54120,
          "time": 187.91636599999998,
          "velocity": 0.7086614173228346
        },
        {
          "duration": 0.17361083333335614,
          "durationTicks": 50,
          "midi": 62,
          "name": "D4",
          "ticks": 54120,
          "time": 187.91636599999998,
          "velocity": 0.7559055118110236
        },
        {
          "duration": 0.15972196666666605,
          "durationTicks": 46,
          "midi": 60,
          "name": "C4",
          "ticks": 54360,
          "time": 188.749698,
          "velocity": 0.6535433070866141
        },
        {
          "duration": 0.1527775333333352,
          "durationTicks": 44,
          "midi": 65,
          "name": "F4",
          "ticks": 54360,
          "time": 188.749698,
          "velocity": 0.6771653543307087
        },
        {
          "duration": 0.15624975000000063,
          "durationTicks": 45,
          "midi": 69,
          "name": "A4",
          "ticks": 54360,
          "time": 188.749698,
          "velocity": 0.6771653543307087
        },
        {
          "duration": 0.15972196666666605,
          "durationTicks": 46,
          "midi": 65,
          "name": "F4",
          "ticks": 54600,
          "time": 189.58302999999998,
          "velocity": 0.6771653543307087
        },
        {
          "duration": 0.17361083333335614,
          "durationTicks": 50,
          "midi": 60,
          "name": "C4",
          "ticks": 54600,
          "time": 189.58302999999998,
          "velocity": 0.6771653543307087
        },
        {
          "duration": 0.15624975000000063,
          "durationTicks": 45,
          "midi": 69,
          "name": "A4",
          "ticks": 54600,
          "time": 189.58302999999998,
          "velocity": 0.7086614173228346
        },
        {
          "duration": 0.1493053166666698,
          "durationTicks": 43,
          "midi": 55,
          "name": "G3",
          "ticks": 54840,
          "time": 190.416362,
          "velocity": 0.6535433070866141
        },
        {
          "duration": 0.1527775333333352,
          "durationTicks": 44,
          "midi": 62,
          "name": "D4",
          "ticks": 54840,
          "time": 190.416362,
          "velocity": 0.7559055118110236
        },
        {
          "duration": 0.1527775333333352,
          "durationTicks": 44,
          "midi": 59,
          "name": "B3",
          "ticks": 54840,
          "time": 190.416362,
          "velocity": 0.7559055118110236
        },
        {
          "duration": 0.17361083333332772,
          "durationTicks": 50,
          "midi": 62,
          "name": "D4",
          "ticks": 55080,
          "time": 191.249694,
          "velocity": 0.7086614173228346
        },
        {
          "duration": 0.1354164499999797,
          "durationTicks": 39,
          "midi": 55,
          "name": "G3",
          "ticks": 55080,
          "time": 191.249694,
          "velocity": 0.6535433070866141
        },
        {
          "duration": 0.17361083333332772,
          "durationTicks": 50,
          "midi": 59,
          "name": "B3",
          "ticks": 55080,
          "time": 191.249694,
          "velocity": 0.7086614173228346
        },
        {
          "duration": 0.17361083333335614,
          "durationTicks": 50,
          "midi": 58,
          "name": "A#3",
          "ticks": 55320,
          "time": 192.083026,
          "velocity": 0.5669291338582677
        },
        {
          "duration": 0.16666639999999688,
          "durationTicks": 48,
          "midi": 62,
          "name": "D4",
          "ticks": 55320,
          "time": 192.083026,
          "velocity": 0.7559055118110236
        },
        {
          "duration": 0.17708304999999314,
          "durationTicks": 51,
          "midi": 65,
          "name": "F4",
          "ticks": 55320,
          "time": 192.083026,
          "velocity": 0.6771653543307087
        },
        {
          "duration": 0.1874996999999894,
          "durationTicks": 54,
          "midi": 58,
          "name": "A#3",
          "ticks": 55560,
          "time": 192.916358,
          "velocity": 0.5669291338582677
        },
        {
          "duration": 0.18402748333332397,
          "durationTicks": 53,
          "midi": 65,
          "name": "F4",
          "ticks": 55560,
          "time": 192.916358,
          "velocity": 0.6535433070866141
        },
        {
          "duration": 0.16666639999996846,
          "durationTicks": 48,
          "midi": 62,
          "name": "D4",
          "ticks": 55560,
          "time": 192.916358,
          "velocity": 0.7559055118110236
        },
        {
          "duration": 0.1874996999999894,
          "durationTicks": 54,
          "midi": 69,
          "name": "A4",
          "ticks": 55800,
          "time": 193.74969,
          "velocity": 0.6220472440944882
        },
        {
          "duration": 0.1874996999999894,
          "durationTicks": 54,
          "midi": 62,
          "name": "D4",
          "ticks": 55800,
          "time": 193.74969,
          "velocity": 0.6535433070866141
        },
        {
          "duration": 0.1909719166666548,
          "durationTicks": 55,
          "midi": 65,
          "name": "F4",
          "ticks": 55800,
          "time": 193.74969,
          "velocity": 0.6771653543307087
        },
        {
          "duration": 0.1527775333333352,
          "durationTicks": 44,
          "midi": 69,
          "name": "A4",
          "ticks": 56040,
          "time": 194.583022,
          "velocity": 0.6771653543307087
        },
        {
          "duration": 0.16319418333333147,
          "durationTicks": 47,
          "midi": 65,
          "name": "F4",
          "ticks": 56040,
          "time": 194.583022,
          "velocity": 0.7086614173228346
        },
        {
          "duration": 0.17708304999999314,
          "durationTicks": 51,
          "midi": 62,
          "name": "D4",
          "ticks": 56040,
          "time": 194.583022,
          "velocity": 0.6535433070866141
        },
        {
          "duration": 0.1840274833333524,
          "durationTicks": 53,
          "midi": 53,
          "name": "F3",
          "ticks": 56280,
          "time": 195.41635399999998,
          "velocity": 0.6220472440944882
        },
        {
          "duration": 0.17361083333335614,
          "durationTicks": 50,
          "midi": 57,
          "name": "A3",
          "ticks": 56280,
          "time": 195.41635399999998,
          "velocity": 0.7086614173228346
        },
        {
          "duration": 0.17013861666669072,
          "durationTicks": 49,
          "midi": 60,
          "name": "C4",
          "ticks": 56280,
          "time": 195.41635399999998,
          "velocity": 0.7086614173228346
        },
        {
          "duration": 0.18402748333332397,
          "durationTicks": 53,
          "midi": 60,
          "name": "C4",
          "ticks": 56520,
          "time": 196.249686,
          "velocity": 0.6771653543307087
        },
        {
          "duration": 0.16666639999999688,
          "durationTicks": 48,
          "midi": 53,
          "name": "F3",
          "ticks": 56520,
          "time": 196.249686,
          "velocity": 0.6771653543307087
        },
        {
          "duration": 0.19444413333332022,
          "durationTicks": 56,
          "midi": 57,
          "name": "A3",
          "ticks": 56520,
          "time": 196.249686,
          "velocity": 0.7086614173228346
        },
        {
          "duration": 0.17013861666669072,
          "durationTicks": 49,
          "midi": 62,
          "name": "D4",
          "ticks": 56760,
          "time": 197.08301799999998,
          "velocity": 0.7086614173228346
        },
        {
          "duration": 0.16319418333333147,
          "durationTicks": 47,
          "midi": 55,
          "name": "G3",
          "ticks": 56760,
          "time": 197.08301799999998,
          "velocity": 0.6535433070866141
        },
        {
          "duration": 0.17708305000002156,
          "durationTicks": 51,
          "midi": 59,
          "name": "B3",
          "ticks": 56760,
          "time": 197.08301799999998,
          "velocity": 0.7559055118110236
        },
        {
          "duration": 0.17361083333332772,
          "durationTicks": 50,
          "midi": 62,
          "name": "D4",
          "ticks": 57000,
          "time": 197.91635,
          "velocity": 0.7559055118110236
        },
        {
          "duration": 0.14583310000000438,
          "durationTicks": 42,
          "midi": 55,
          "name": "G3",
          "ticks": 57000,
          "time": 197.91635,
          "velocity": 0.6771653543307087
        },
        {
          "duration": 0.17708304999999314,
          "durationTicks": 51,
          "midi": 59,
          "name": "B3",
          "ticks": 57000,
          "time": 197.91635,
          "velocity": 0.7086614173228346
        },
        {
          "duration": 0.34722166666665544,
          "durationTicks": 100,
          "midi": 58,
          "name": "A#3",
          "ticks": 57120,
          "time": 198.333016,
          "velocity": 0.6220472440944882
        },
        {
          "duration": 0.32986058333335677,
          "durationTicks": 95,
          "midi": 46,
          "name": "A#2",
          "ticks": 57120,
          "time": 198.333016,
          "velocity": 0.6771653543307087
        },
        {
          "duration": 0.35069388333332085,
          "durationTicks": 101,
          "midi": 62,
          "name": "D4",
          "ticks": 57120,
          "time": 198.333016,
          "velocity": 0.6220472440944882
        },
        {
          "duration": 0.34722166666665544,
          "durationTicks": 100,
          "midi": 65,
          "name": "F4",
          "ticks": 57120,
          "time": 198.333016,
          "velocity": 0.5905511811023622
        },
        {
          "duration": 0.22569408333336582,
          "durationTicks": 65,
          "midi": 46,
          "name": "A#2",
          "ticks": 57240,
          "time": 198.74968199999998,
          "velocity": 0.7559055118110236
        },
        {
          "duration": 0.2430551666666645,
          "durationTicks": 70,
          "midi": 58,
          "name": "A#3",
          "ticks": 57240,
          "time": 198.74968199999998,
          "velocity": 0.44881889763779526
        },
        {
          "duration": 0.19791635000001406,
          "durationTicks": 57,
          "midi": 62,
          "name": "D4",
          "ticks": 57240,
          "time": 198.74968199999998,
          "velocity": 0.6771653543307087
        },
        {
          "duration": 0.17708305000002156,
          "durationTicks": 51,
          "midi": 65,
          "name": "F4",
          "ticks": 57240,
          "time": 198.74968199999998,
          "velocity": 0.6220472440944882
        },
        {
          "duration": 0.2604162499999916,
          "durationTicks": 75,
          "midi": 57,
          "name": "A3",
          "ticks": 57360,
          "time": 199.166348,
          "velocity": 0.5905511811023622
        },
        {
          "duration": 0.2881939833333149,
          "durationTicks": 83,
          "midi": 61,
          "name": "C#4",
          "ticks": 57360,
          "time": 199.166348,
          "velocity": 0.6220472440944882
        },
        {
          "duration": 0.302082850000005,
          "durationTicks": 87,
          "midi": 64,
          "name": "E4",
          "ticks": 57360,
          "time": 199.166348,
          "velocity": 0.6771653543307087
        },
        {
          "duration": 0.263888466666657,
          "durationTicks": 76,
          "midi": 45,
          "name": "A2",
          "ticks": 57360,
          "time": 199.166348,
          "velocity": 0.7086614173228346
        },
        {
          "duration": 0.263888466666657,
          "durationTicks": 76,
          "midi": 52,
          "name": "E3",
          "ticks": 57360,
          "time": 199.166348,
          "velocity": 0.6535433070866141
        },
        {
          "duration": 0.17708304999999314,
          "durationTicks": 51,
          "midi": 69,
          "name": "A4",
          "ticks": 57480,
          "time": 199.583014,
          "velocity": 0.7086614173228346
        },
        {
          "duration": 0.16666639999999688,
          "durationTicks": 48,
          "midi": 62,
          "name": "D4",
          "ticks": 57480,
          "time": 199.583014,
          "velocity": 0.6771653543307087
        },
        {
          "duration": 0.17361083333332772,
          "durationTicks": 50,
          "midi": 65,
          "name": "F4",
          "ticks": 57480,
          "time": 199.583014,
          "velocity": 0.7086614173228346
        },
        {
          "duration": 0.18402748333332397,
          "durationTicks": 53,
          "midi": 65,
          "name": "F4",
          "ticks": 57560,
          "time": 199.86079133333334,
          "velocity": 0.7952755905511811
        },
        {
          "duration": 0.19791634999998564,
          "durationTicks": 57,
          "midi": 69,
          "name": "A4",
          "ticks": 57560,
          "time": 199.86079133333334,
          "velocity": 0.7952755905511811
        },
        {
          "duration": 0.19791634999998564,
          "durationTicks": 57,
          "midi": 62,
          "name": "D4",
          "ticks": 57560,
          "time": 199.86079133333334,
          "velocity": 0.7559055118110236
        }
      ]
    },
    {
      "channel": 0,
      "controlChanges": {
        "0": [
          {
            "number": 0,
            "ticks": 0,
            "time": 0,
            "value": 0
          }
        ],
        "7": [
          {
            "number": 7,
            "ticks": 0,
            "time": 0,
            "value": 0.952755905511811
          }
        ],
        "10": [
          {
            "number": 10,
            "ticks": 0,
            "time": 0,
            "value": 0.41732283464566927
          }
        ],
        "32": [
          {
            "number": 32,
            "ticks": 0,
            "time": 0,
            "value": 0
          }
        ],
        "91": [
          {
            "number": 91,
            "ticks": 0,
            "time": 0,
            "value": 0.6850393700787402
          }
        ],
        "93": [
          {
            "number": 93,
            "ticks": 0,
            "time": 0,
            "value": 0.6299212598425197
          }
        ]
      },
      "pitchBends": [],
      "instrument": {
        "family": "piano",
        "number": 0,
        "name": "acoustic grand piano"
      },
      "name": "",
      "notes": [],
      "endOfTrackTicks": 57615
    },
    {
      "channel": 5,
      "controlChanges": {
        "64": [
          {
            "number": 64,
            "ticks": 8998,
            "time": 31.243005566666664,
            "value": 1
          },
          {
            "number": 64,
            "ticks": 9116,
            "time": 31.652727133333332,
            "value": 0
          },
          {
            "number": 64,
            "ticks": 9523,
            "time": 33.065919316666665,
            "value": 1
          },
          {
            "number": 64,
            "ticks": 9589,
            "time": 33.29508561666666,
            "value": 0
          },
          {
            "number": 64,
            "ticks": 11737,
            "time": 40.753407016666664,
            "value": 1
          },
          {
            "number": 64,
            "ticks": 11773,
            "time": 40.87840681666667,
            "value": 0
          },
          {
            "number": 64,
            "ticks": 20518,
            "time": 71.24294156666666,
            "value": 1
          },
          {
            "number": 64,
            "ticks": 20636,
            "time": 71.65266313333333,
            "value": 0
          },
          {
            "number": 64,
            "ticks": 21043,
            "time": 73.06585531666666,
            "value": 1
          },
          {
            "number": 64,
            "ticks": 21109,
            "time": 73.29502161666666,
            "value": 0
          },
          {
            "number": 64,
            "ticks": 23737,
            "time": 82.42000701666666,
            "value": 1
          },
          {
            "number": 64,
            "ticks": 23773,
            "time": 82.54500681666666,
            "value": 0
          },
          {
            "number": 64,
            "ticks": 43534,
            "time": 151.15948036666668,
            "value": 1
          },
          {
            "number": 64,
            "ticks": 43534,
            "time": 151.15948036666668,
            "value": 1
          },
          {
            "number": 64,
            "ticks": 43644,
            "time": 151.5414242,
            "value": 0
          },
          {
            "number": 64,
            "ticks": 43644,
            "time": 151.5414242,
            "value": 0
          },
          {
            "number": 64,
            "ticks": 47257,
            "time": 164.08654301666667,
            "value": 1
          },
          {
            "number": 64,
            "ticks": 47293,
            "time": 164.21154281666668,
            "value": 0
          },
          {
            "number": 64,
            "ticks": 51097,
            "time": 177.41985501666667,
            "value": 1
          },
          {
            "number": 64,
            "ticks": 51133,
            "time": 177.54485481666666,
            "value": 0
          },
          {
            "number": 64,
            "ticks": 54937,
            "time": 190.75316701666665,
            "value": 1
          },
          {
            "number": 64,
            "ticks": 54973,
            "time": 190.87816681666666,
            "value": 0
          }
        ]
      },
      "pitchBends": [],
      "instrument": {
        "family": "organ",
        "number": 18,
        "name": "rock organ"
      },
      "name": "",
      "notes": [
        {
          "duration": 3.263883666666665,
          "durationTicks": 940,
          "midi": 65,
          "name": "F4",
          "ticks": 4800,
          "time": 16.66664,
          "velocity": 0.5039370078740157
        },
        {
          "duration": 3.180550466666663,
          "durationTicks": 916,
          "midi": 69,
          "name": "A4",
          "ticks": 4800,
          "time": 16.66664,
          "velocity": 0.4881889763779528
        },
        {
          "duration": 3.2430503666666652,
          "durationTicks": 934,
          "midi": 74,
          "name": "D5",
          "ticks": 4800,
          "time": 16.66664,
          "velocity": 0.5354330708661418
        },
        {
          "duration": 3.2604114499999994,
          "durationTicks": 939,
          "midi": 50,
          "name": "D3",
          "ticks": 4800,
          "time": 16.66664,
          "velocity": 0.5354330708661418
        },
        {
          "duration": 2.9166619999999988,
          "durationTicks": 840,
          "midi": 65,
          "name": "F4",
          "ticks": 5760,
          "time": 19.999968,
          "velocity": 0.5354330708661418
        },
        {
          "duration": 2.909717566666668,
          "durationTicks": 838,
          "midi": 74,
          "name": "D5",
          "ticks": 5760,
          "time": 19.999968,
          "velocity": 0.7322834645669292
        },
        {
          "duration": 2.815967716666666,
          "durationTicks": 811,
          "midi": 46,
          "name": "A#2",
          "ticks": 5760,
          "time": 19.999968,
          "velocity": 0.5669291338582677
        },
        {
          "duration": 2.8854120499999993,
          "durationTicks": 831,
          "midi": 70,
          "name": "A#4",
          "ticks": 5760,
          "time": 19.999968,
          "velocity": 0.47244094488188976
        },
        {
          "duration": 0.3159717166666667,
          "durationTicks": 91,
          "midi": 48,
          "name": "C3",
          "ticks": 6600,
          "time": 22.916629999999998,
          "velocity": 0.84251968503937
        },
        {
          "duration": 3.2361059333333344,
          "durationTicks": 932,
          "midi": 50,
          "name": "D3",
          "ticks": 6720,
          "time": 23.333295999999997,
          "velocity": 0.889763779527559
        },
        {
          "duration": 3.152772733333336,
          "durationTicks": 908,
          "midi": 69,
          "name": "A4",
          "ticks": 6720,
          "time": 23.333295999999997,
          "velocity": 0.47244094488188976
        },
        {
          "duration": 3.208328200000004,
          "durationTicks": 924,
          "midi": 74,
          "name": "D5",
          "ticks": 6720,
          "time": 23.333295999999997,
          "velocity": 0.5354330708661418
        },
        {
          "duration": 3.187494900000001,
          "durationTicks": 918,
          "midi": 65,
          "name": "F4",
          "ticks": 6720,
          "time": 23.333295999999997,
          "velocity": 0.4881889763779528
        },
        {
          "duration": 3.197911549999997,
          "durationTicks": 921,
          "midi": 74,
          "name": "D5",
          "ticks": 7680,
          "time": 26.666624,
          "velocity": 0.7007874015748031
        },
        {
          "duration": 3.1597171666666632,
          "durationTicks": 910,
          "midi": 70,
          "name": "A#4",
          "ticks": 7680,
          "time": 26.666624,
          "velocity": 0.5984251968503937
        },
        {
          "duration": 3.1666615999999976,
          "durationTicks": 912,
          "midi": 46,
          "name": "A#2",
          "ticks": 7680,
          "time": 26.666624,
          "velocity": 0.6299212598425197
        },
        {
          "duration": 3.149300516666667,
          "durationTicks": 907,
          "midi": 65,
          "name": "F4",
          "ticks": 7680,
          "time": 26.666624,
          "velocity": 0.41732283464566927
        },
        {
          "duration": 1.2777757333333284,
          "durationTicks": 368,
          "midi": 74,
          "name": "D5",
          "ticks": 8640,
          "time": 29.999952,
          "velocity": 0.7716535433070866
        },
        {
          "duration": 1.2708312999999976,
          "durationTicks": 366,
          "midi": 67,
          "name": "G4",
          "ticks": 8640,
          "time": 29.999952,
          "velocity": 0.6299212598425197
        },
        {
          "duration": 1.2430535666666636,
          "durationTicks": 358,
          "midi": 70,
          "name": "A#4",
          "ticks": 8640,
          "time": 29.999952,
          "velocity": 0.7007874015748031
        },
        {
          "duration": 1.3680533666666648,
          "durationTicks": 394,
          "midi": 43,
          "name": "G2",
          "ticks": 8640,
          "time": 29.999952,
          "velocity": 0.7322834645669292
        },
        {
          "duration": 1.5902752333333297,
          "durationTicks": 458,
          "midi": 73,
          "name": "C#5",
          "ticks": 9120,
          "time": 31.666615999999998,
          "velocity": 0.5984251968503937
        },
        {
          "duration": 1.5416641999999996,
          "durationTicks": 444,
          "midi": 64,
          "name": "E4",
          "ticks": 9120,
          "time": 31.666615999999998,
          "velocity": 0.5669291338582677
        },
        {
          "duration": 1.5520808499999958,
          "durationTicks": 447,
          "midi": 69,
          "name": "A4",
          "ticks": 9120,
          "time": 31.666615999999998,
          "velocity": 0.7007874015748031
        },
        {
          "duration": 1.5937474500000022,
          "durationTicks": 459,
          "midi": 45,
          "name": "A2",
          "ticks": 9120,
          "time": 31.666615999999998,
          "velocity": 0.7322834645669292
        },
        {
          "duration": 1.5034698166666658,
          "durationTicks": 433,
          "midi": 67,
          "name": "G4",
          "ticks": 9600,
          "time": 33.33328,
          "velocity": 0.5984251968503937
        },
        {
          "duration": 1.2847201666666592,
          "durationTicks": 370,
          "midi": 70,
          "name": "A#4",
          "ticks": 9600,
          "time": 33.33328,
          "velocity": 0.7007874015748031
        },
        {
          "duration": 1.538191983333327,
          "durationTicks": 443,
          "midi": 74,
          "name": "D5",
          "ticks": 9600,
          "time": 33.33328,
          "velocity": 0.8031496062992126
        },
        {
          "duration": 1.6041640999999913,
          "durationTicks": 462,
          "midi": 43,
          "name": "G2",
          "ticks": 9600,
          "time": 33.33328,
          "velocity": 0.7007874015748031
        },
        {
          "duration": 1.4513865666666632,
          "durationTicks": 418,
          "midi": 73,
          "name": "C#5",
          "ticks": 10080,
          "time": 34.999944,
          "velocity": 0.5669291338582677
        },
        {
          "duration": 1.434025483333329,
          "durationTicks": 413,
          "midi": 64,
          "name": "E4",
          "ticks": 10080,
          "time": 34.999944,
          "velocity": 0.5039370078740157
        },
        {
          "duration": 1.4444421333333324,
          "durationTicks": 416,
          "midi": 45,
          "name": "A2",
          "ticks": 10080,
          "time": 34.999944,
          "velocity": 0.7716535433070866
        },
        {
          "duration": 1.4583310000000012,
          "durationTicks": 420,
          "midi": 69,
          "name": "A4",
          "ticks": 10080,
          "time": 34.999944,
          "velocity": 0.6299212598425197
        },
        {
          "duration": 1.5555530666666684,
          "durationTicks": 448,
          "midi": 77,
          "name": "F5",
          "ticks": 10560,
          "time": 36.666608,
          "velocity": 0.4881889763779528
        },
        {
          "duration": 1.5590252833333338,
          "durationTicks": 449,
          "midi": 86,
          "name": "D6",
          "ticks": 10560,
          "time": 36.666608,
          "velocity": 0.5669291338582677
        },
        {
          "duration": 1.5868030166666713,
          "durationTicks": 457,
          "midi": 81,
          "name": "A5",
          "ticks": 10560,
          "time": 36.666608,
          "velocity": 0.5354330708661418
        },
        {
          "duration": 1.5347197666666688,
          "durationTicks": 442,
          "midi": 84,
          "name": "C6",
          "ticks": 11040,
          "time": 38.333272,
          "velocity": 0.5984251968503937
        },
        {
          "duration": 1.5312475499999962,
          "durationTicks": 441,
          "midi": 77,
          "name": "F5",
          "ticks": 11040,
          "time": 38.333272,
          "velocity": 0.5354330708661418
        },
        {
          "duration": 1.5416641999999996,
          "durationTicks": 444,
          "midi": 81,
          "name": "A5",
          "ticks": 11040,
          "time": 38.333272,
          "velocity": 0.5669291338582677
        },
        {
          "duration": 0.7187488499999972,
          "durationTicks": 207,
          "midi": 83,
          "name": "B5",
          "ticks": 11640,
          "time": 40.416602,
          "velocity": 0.6692913385826772
        },
        {
          "duration": 0.7222210666666697,
          "durationTicks": 208,
          "midi": 79,
          "name": "G5",
          "ticks": 11640,
          "time": 40.416602,
          "velocity": 0.7007874015748031
        },
        {
          "duration": 0.34374945000000423,
          "durationTicks": 99,
          "midi": 79,
          "name": "G5",
          "ticks": 11880,
          "time": 41.249933999999996,
          "velocity": 0.7322834645669292
        },
        {
          "duration": 0.3611105333333313,
          "durationTicks": 104,
          "midi": 83,
          "name": "B5",
          "ticks": 11880,
          "time": 41.249933999999996,
          "velocity": 0.8031496062992126
        },
        {
          "duration": 0.6979155500000047,
          "durationTicks": 201,
          "midi": 82,
          "name": "A#5",
          "ticks": 12120,
          "time": 42.083265999999995,
          "velocity": 0.7322834645669292
        },
        {
          "duration": 0.652776733333333,
          "durationTicks": 188,
          "midi": 74,
          "name": "D5",
          "ticks": 12120,
          "time": 42.083265999999995,
          "velocity": 0.5669291338582677
        },
        {
          "duration": 0.6909711166666668,
          "durationTicks": 199,
          "midi": 77,
          "name": "F5",
          "ticks": 12120,
          "time": 42.083265999999995,
          "velocity": 0.7322834645669292
        },
        {
          "duration": 0.3055550666666633,
          "durationTicks": 88,
          "midi": 74,
          "name": "D5",
          "ticks": 12360,
          "time": 42.916598,
          "velocity": 0.5984251968503937
        },
        {
          "duration": 0.21180521666666863,
          "durationTicks": 61,
          "midi": 82,
          "name": "A#5",
          "ticks": 12360,
          "time": 42.916598,
          "velocity": 0.7716535433070866
        },
        {
          "duration": 0.27083290000000204,
          "durationTicks": 78,
          "midi": 77,
          "name": "F5",
          "ticks": 12360,
          "time": 42.916598,
          "velocity": 0.7322834645669292
        },
        {
          "duration": 1.5520808499999958,
          "durationTicks": 447,
          "midi": 74,
          "name": "D5",
          "ticks": 12480,
          "time": 43.333264,
          "velocity": 0.4645669291338583
        },
        {
          "duration": 1.5520808499999958,
          "durationTicks": 447,
          "midi": 81,
          "name": "A5",
          "ticks": 12480,
          "time": 43.333264,
          "velocity": 0.6692913385826772
        },
        {
          "duration": 1.5763863666666609,
          "durationTicks": 454,
          "midi": 77,
          "name": "F5",
          "ticks": 12480,
          "time": 43.333264,
          "velocity": 0.7007874015748031
        },
        {
          "duration": 1.4583310000000012,
          "durationTicks": 420,
          "midi": 72,
          "name": "C5",
          "ticks": 12960,
          "time": 44.999928,
          "velocity": 0.4645669291338583
        },
        {
          "duration": 1.5243031166666654,
          "durationTicks": 439,
          "midi": 81,
          "name": "A5",
          "ticks": 12960,
          "time": 44.999928,
          "velocity": 0.6299212598425197
        },
        {
          "duration": 1.5104142500000037,
          "durationTicks": 435,
          "midi": 77,
          "name": "F5",
          "ticks": 12960,
          "time": 44.999928,
          "velocity": 0.6692913385826772
        },
        {
          "duration": 1.47221986666667,
          "durationTicks": 424,
          "midi": 74,
          "name": "D5",
          "ticks": 13440,
          "time": 46.666591999999994,
          "velocity": 0.3858267716535433
        },
        {
          "duration": 1.4826365166666733,
          "durationTicks": 427,
          "midi": 79,
          "name": "G5",
          "ticks": 13440,
          "time": 46.666591999999994,
          "velocity": 0.5984251968503937
        },
        {
          "duration": 1.4791643000000008,
          "durationTicks": 426,
          "midi": 83,
          "name": "B5",
          "ticks": 13440,
          "time": 46.666591999999994,
          "velocity": 0.7007874015748031
        },
        {
          "duration": 0.8749985999999979,
          "durationTicks": 252,
          "midi": 82,
          "name": "A#5",
          "ticks": 13920,
          "time": 48.333256,
          "velocity": 0.5669291338582677
        },
        {
          "duration": 0.8784708166666633,
          "durationTicks": 253,
          "midi": 74,
          "name": "D5",
          "ticks": 13920,
          "time": 48.333256,
          "velocity": 0.5039370078740157
        },
        {
          "duration": 0.8784708166666633,
          "durationTicks": 253,
          "midi": 77,
          "name": "F5",
          "ticks": 13920,
          "time": 48.333256,
          "velocity": 0.7007874015748031
        },
        {
          "duration": 3.263883666666672,
          "durationTicks": 940,
          "midi": 65,
          "name": "F4",
          "ticks": 16320,
          "time": 56.666576,
          "velocity": 0.5039370078740157
        },
        {
          "duration": 3.1805504666666593,
          "durationTicks": 916,
          "midi": 69,
          "name": "A4",
          "ticks": 16320,
          "time": 56.666576,
          "velocity": 0.4881889763779528
        },
        {
          "duration": 3.2430503666666652,
          "durationTicks": 934,
          "midi": 74,
          "name": "D5",
          "ticks": 16320,
          "time": 56.666576,
          "velocity": 0.5354330708661418
        },
        {
          "duration": 3.2604114499999923,
          "durationTicks": 939,
          "midi": 50,
          "name": "D3",
          "ticks": 16320,
          "time": 56.666576,
          "velocity": 0.5354330708661418
        },
        {
          "duration": 2.916661999999995,
          "durationTicks": 840,
          "midi": 65,
          "name": "F4",
          "ticks": 17280,
          "time": 59.999904,
          "velocity": 0.5354330708661418
        },
        {
          "duration": 2.9097175666666573,
          "durationTicks": 838,
          "midi": 74,
          "name": "D5",
          "ticks": 17280,
          "time": 59.999904,
          "velocity": 0.7322834645669292
        },
        {
          "duration": 2.8159677166666626,
          "durationTicks": 811,
          "midi": 46,
          "name": "A#2",
          "ticks": 17280,
          "time": 59.999904,
          "velocity": 0.5669291338582677
        },
        {
          "duration": 2.8854120499999993,
          "durationTicks": 831,
          "midi": 70,
          "name": "A#4",
          "ticks": 17280,
          "time": 59.999904,
          "velocity": 0.47244094488188976
        },
        {
          "duration": 0.3159717166666667,
          "durationTicks": 91,
          "midi": 48,
          "name": "C3",
          "ticks": 18120,
          "time": 62.916565999999996,
          "velocity": 0.84251968503937
        },
        {
          "duration": 3.2361059333333344,
          "durationTicks": 932,
          "midi": 50,
          "name": "D3",
          "ticks": 18240,
          "time": 63.333231999999995,
          "velocity": 0.889763779527559
        },
        {
          "duration": 3.152772733333336,
          "durationTicks": 908,
          "midi": 69,
          "name": "A4",
          "ticks": 18240,
          "time": 63.333231999999995,
          "velocity": 0.47244094488188976
        },
        {
          "duration": 3.208328199999997,
          "durationTicks": 924,
          "midi": 74,
          "name": "D5",
          "ticks": 18240,
          "time": 63.333231999999995,
          "velocity": 0.5354330708661418
        },
        {
          "duration": 3.1874949000000043,
          "durationTicks": 918,
          "midi": 65,
          "name": "F4",
          "ticks": 18240,
          "time": 63.333231999999995,
          "velocity": 0.4881889763779528
        },
        {
          "duration": 3.1979115500000006,
          "durationTicks": 921,
          "midi": 74,
          "name": "D5",
          "ticks": 19200,
          "time": 66.66656,
          "velocity": 0.7007874015748031
        },
        {
          "duration": 3.159717166666667,
          "durationTicks": 910,
          "midi": 70,
          "name": "A#4",
          "ticks": 19200,
          "time": 66.66656,
          "velocity": 0.5984251968503937
        },
        {
          "duration": 3.1666615999999834,
          "durationTicks": 912,
          "midi": 46,
          "name": "A#2",
          "ticks": 19200,
          "time": 66.66656,
          "velocity": 0.6299212598425197
        },
        {
          "duration": 3.1493005166666563,
          "durationTicks": 907,
          "midi": 65,
          "name": "F4",
          "ticks": 19200,
          "time": 66.66656,
          "velocity": 0.41732283464566927
        },
        {
          "duration": 1.2777757333333284,
          "durationTicks": 368,
          "midi": 74,
          "name": "D5",
          "ticks": 20160,
          "time": 69.999888,
          "velocity": 0.7716535433070866
        },
        {
          "duration": 1.2708312999999976,
          "durationTicks": 366,
          "midi": 67,
          "name": "G4",
          "ticks": 20160,
          "time": 69.999888,
          "velocity": 0.6299212598425197
        },
        {
          "duration": 1.24305356666666,
          "durationTicks": 358,
          "midi": 70,
          "name": "A#4",
          "ticks": 20160,
          "time": 69.999888,
          "velocity": 0.7007874015748031
        },
        {
          "duration": 1.3680533666666577,
          "durationTicks": 394,
          "midi": 43,
          "name": "G2",
          "ticks": 20160,
          "time": 69.999888,
          "velocity": 0.7322834645669292
        },
        {
          "duration": 1.5902752333333297,
          "durationTicks": 458,
          "midi": 73,
          "name": "C#5",
          "ticks": 20640,
          "time": 71.666552,
          "velocity": 0.5984251968503937
        },
        {
          "duration": 1.5416641999999996,
          "durationTicks": 444,
          "midi": 64,
          "name": "E4",
          "ticks": 20640,
          "time": 71.666552,
          "velocity": 0.5669291338582677
        },
        {
          "duration": 1.5520808499999958,
          "durationTicks": 447,
          "midi": 69,
          "name": "A4",
          "ticks": 20640,
          "time": 71.666552,
          "velocity": 0.7007874015748031
        },
        {
          "duration": 1.593747449999995,
          "durationTicks": 459,
          "midi": 45,
          "name": "A2",
          "ticks": 20640,
          "time": 71.666552,
          "velocity": 0.7322834645669292
        },
        {
          "duration": 1.5034698166666658,
          "durationTicks": 433,
          "midi": 67,
          "name": "G4",
          "ticks": 21120,
          "time": 73.333216,
          "velocity": 0.5984251968503937
        },
        {
          "duration": 1.2847201666666734,
          "durationTicks": 370,
          "midi": 70,
          "name": "A#4",
          "ticks": 21120,
          "time": 73.333216,
          "velocity": 0.7007874015748031
        },
        {
          "duration": 1.5381919833333342,
          "durationTicks": 443,
          "midi": 74,
          "name": "D5",
          "ticks": 21120,
          "time": 73.333216,
          "velocity": 0.8031496062992126
        },
        {
          "duration": 1.6041641000000055,
          "durationTicks": 462,
          "midi": 43,
          "name": "G2",
          "ticks": 21120,
          "time": 73.333216,
          "velocity": 0.7007874015748031
        },
        {
          "duration": 1.4513865666666703,
          "durationTicks": 418,
          "midi": 73,
          "name": "C#5",
          "ticks": 21600,
          "time": 74.99987999999999,
          "velocity": 0.5669291338582677
        },
        {
          "duration": 1.4340254833333432,
          "durationTicks": 413,
          "midi": 64,
          "name": "E4",
          "ticks": 21600,
          "time": 74.99987999999999,
          "velocity": 0.5039370078740157
        },
        {
          "duration": 1.4444421333333395,
          "durationTicks": 416,
          "midi": 45,
          "name": "A2",
          "ticks": 21600,
          "time": 74.99987999999999,
          "velocity": 0.7716535433070866
        },
        {
          "duration": 1.4583310000000012,
          "durationTicks": 420,
          "midi": 69,
          "name": "A4",
          "ticks": 21600,
          "time": 74.99987999999999,
          "velocity": 0.6299212598425197
        },
        {
          "duration": 1.6041640999999913,
          "durationTicks": 462,
          "midi": 81,
          "name": "A5",
          "ticks": 22080,
          "time": 76.666544,
          "velocity": 0.7322834645669292
        },
        {
          "duration": 1.1597203666666616,
          "durationTicks": 334,
          "midi": 85,
          "name": "C#6",
          "ticks": 22200,
          "time": 77.08321,
          "velocity": 0.5039370078740157
        },
        {
          "duration": 0.7673598833333273,
          "durationTicks": 221,
          "midi": 88,
          "name": "E6",
          "ticks": 22320,
          "time": 77.499876,
          "velocity": 0.5984251968503937
        },
        {
          "duration": 1.5555530666666613,
          "durationTicks": 448,
          "midi": 77,
          "name": "F5",
          "ticks": 22560,
          "time": 78.333208,
          "velocity": 0.4881889763779528
        },
        {
          "duration": 1.5590252833333267,
          "durationTicks": 449,
          "midi": 86,
          "name": "D6",
          "ticks": 22560,
          "time": 78.333208,
          "velocity": 0.5669291338582677
        },
        {
          "duration": 1.5868030166666642,
          "durationTicks": 457,
          "midi": 81,
          "name": "A5",
          "ticks": 22560,
          "time": 78.333208,
          "velocity": 0.5354330708661418
        },
        {
          "duration": 1.5347197666666688,
          "durationTicks": 442,
          "midi": 84,
          "name": "C6",
          "ticks": 23040,
          "time": 79.999872,
          "velocity": 0.5984251968503937
        },
        {
          "duration": 1.5312475500000033,
          "durationTicks": 441,
          "midi": 77,
          "name": "F5",
          "ticks": 23040,
          "time": 79.999872,
          "velocity": 0.5354330708661418
        },
        {
          "duration": 1.5416641999999996,
          "durationTicks": 444,
          "midi": 81,
          "name": "A5",
          "ticks": 23040,
          "time": 79.999872,
          "velocity": 0.5669291338582677
        },
        {
          "duration": 0.7187488499999972,
          "durationTicks": 207,
          "midi": 83,
          "name": "B5",
          "ticks": 23640,
          "time": 82.083202,
          "velocity": 0.6692913385826772
        },
        {
          "duration": 0.7222210666666626,
          "durationTicks": 208,
          "midi": 79,
          "name": "G5",
          "ticks": 23640,
          "time": 82.083202,
          "velocity": 0.7007874015748031
        },
        {
          "duration": 0.34374944999999,
          "durationTicks": 99,
          "midi": 79,
          "name": "G5",
          "ticks": 23880,
          "time": 82.916534,
          "velocity": 0.7322834645669292
        },
        {
          "duration": 0.3611105333333313,
          "durationTicks": 104,
          "midi": 83,
          "name": "B5",
          "ticks": 23880,
          "time": 82.916534,
          "velocity": 0.8031496062992126
        },
        {
          "duration": 0.6979155500000047,
          "durationTicks": 201,
          "midi": 82,
          "name": "A#5",
          "ticks": 24120,
          "time": 83.749866,
          "velocity": 0.7322834645669292
        },
        {
          "duration": 0.6527767333333259,
          "durationTicks": 188,
          "midi": 74,
          "name": "D5",
          "ticks": 24120,
          "time": 83.749866,
          "velocity": 0.5669291338582677
        },
        {
          "duration": 0.6909711166666597,
          "durationTicks": 199,
          "midi": 77,
          "name": "F5",
          "ticks": 24120,
          "time": 83.749866,
          "velocity": 0.7322834645669292
        },
        {
          "duration": 0.3055550666666562,
          "durationTicks": 88,
          "midi": 74,
          "name": "D5",
          "ticks": 24360,
          "time": 84.583198,
          "velocity": 0.5984251968503937
        },
        {
          "duration": 0.21180521666666152,
          "durationTicks": 61,
          "midi": 82,
          "name": "A#5",
          "ticks": 24360,
          "time": 84.583198,
          "velocity": 0.7716535433070866
        },
        {
          "duration": 0.27083290000000204,
          "durationTicks": 78,
          "midi": 77,
          "name": "F5",
          "ticks": 24360,
          "time": 84.583198,
          "velocity": 0.7322834645669292
        },
        {
          "duration": 1.5520808499999958,
          "durationTicks": 447,
          "midi": 74,
          "name": "D5",
          "ticks": 24480,
          "time": 84.999864,
          "velocity": 0.4645669291338583
        },
        {
          "duration": 1.5520808499999958,
          "durationTicks": 447,
          "midi": 81,
          "name": "A5",
          "ticks": 24480,
          "time": 84.999864,
          "velocity": 0.6692913385826772
        },
        {
          "duration": 1.5763863666666538,
          "durationTicks": 454,
          "midi": 77,
          "name": "F5",
          "ticks": 24480,
          "time": 84.999864,
          "velocity": 0.7007874015748031
        },
        {
          "duration": 1.4583310000000012,
          "durationTicks": 420,
          "midi": 72,
          "name": "C5",
          "ticks": 24960,
          "time": 86.666528,
          "velocity": 0.4645669291338583
        },
        {
          "duration": 1.5243031166666583,
          "durationTicks": 439,
          "midi": 81,
          "name": "A5",
          "ticks": 24960,
          "time": 86.666528,
          "velocity": 0.6299212598425197
        },
        {
          "duration": 1.5104142499999966,
          "durationTicks": 435,
          "midi": 77,
          "name": "F5",
          "ticks": 24960,
          "time": 86.666528,
          "velocity": 0.6692913385826772
        },
        {
          "duration": 1.4722198666666628,
          "durationTicks": 424,
          "midi": 74,
          "name": "D5",
          "ticks": 25440,
          "time": 88.333192,
          "velocity": 0.3858267716535433
        },
        {
          "duration": 1.4826365166666733,
          "durationTicks": 427,
          "midi": 79,
          "name": "G5",
          "ticks": 25440,
          "time": 88.333192,
          "velocity": 0.5984251968503937
        },
        {
          "duration": 1.4791643000000079,
          "durationTicks": 426,
          "midi": 83,
          "name": "B5",
          "ticks": 25440,
          "time": 88.333192,
          "velocity": 0.7007874015748031
        },
        {
          "duration": 0.8749985999999979,
          "durationTicks": 252,
          "midi": 82,
          "name": "A#5",
          "ticks": 25920,
          "time": 89.999856,
          "velocity": 0.5669291338582677
        },
        {
          "duration": 0.8784708166666633,
          "durationTicks": 253,
          "midi": 74,
          "name": "D5",
          "ticks": 25920,
          "time": 89.999856,
          "velocity": 0.5039370078740157
        },
        {
          "duration": 0.8784708166666633,
          "durationTicks": 253,
          "midi": 77,
          "name": "F5",
          "ticks": 25920,
          "time": 89.999856,
          "velocity": 0.7007874015748031
        },
        {
          "duration": 0.40277713333333054,
          "durationTicks": 116,
          "midi": 83,
          "name": "B5",
          "ticks": 27360,
          "time": 94.999848,
          "velocity": 0.84251968503937
        },
        {
          "duration": 0.4687492500000019,
          "durationTicks": 135,
          "midi": 79,
          "name": "G5",
          "ticks": 27480,
          "time": 95.41651399999999,
          "velocity": 0.8031496062992126
        },
        {
          "duration": 0.38541605000000345,
          "durationTicks": 111,
          "midi": 76,
          "name": "E5",
          "ticks": 27600,
          "time": 95.83318,
          "velocity": 0.8031496062992126
        },
        {
          "duration": 0.38888826666666887,
          "durationTicks": 112,
          "midi": 83,
          "name": "B5",
          "ticks": 27720,
          "time": 96.24984599999999,
          "velocity": 0.7716535433070866
        },
        {
          "duration": 0.47916589999999815,
          "durationTicks": 138,
          "midi": 79,
          "name": "G5",
          "ticks": 27840,
          "time": 96.666512,
          "velocity": 0.7716535433070866
        },
        {
          "duration": 0.27083290000000204,
          "durationTicks": 78,
          "midi": 76,
          "name": "E5",
          "ticks": 27960,
          "time": 97.08317799999999,
          "velocity": 0.7716535433070866
        },
        {
          "duration": 0.4097215666666756,
          "durationTicks": 118,
          "midi": 83,
          "name": "B5",
          "ticks": 28040,
          "time": 97.36095533333332,
          "velocity": 0.8031496062992126
        },
        {
          "duration": 0.18402748333332397,
          "durationTicks": 53,
          "midi": 79,
          "name": "G5",
          "ticks": 28160,
          "time": 97.77762133333333,
          "velocity": 0.7007874015748031
        },
        {
          "duration": 0.38541605000000345,
          "durationTicks": 111,
          "midi": 76,
          "name": "E5",
          "ticks": 28200,
          "time": 97.91651,
          "velocity": 0.7716535433070866
        },
        {
          "duration": 0.32638836666666293,
          "durationTicks": 94,
          "midi": 81,
          "name": "A5",
          "ticks": 28320,
          "time": 98.333176,
          "velocity": 0.84251968503937
        },
        {
          "duration": 0.374999399999993,
          "durationTicks": 108,
          "midi": 78,
          "name": "F#5",
          "ticks": 28440,
          "time": 98.749842,
          "velocity": 0.8031496062992126
        },
        {
          "duration": 0.40624934999999596,
          "durationTicks": 117,
          "midi": 74,
          "name": "D5",
          "ticks": 28560,
          "time": 99.166508,
          "velocity": 0.889763779527559
        },
        {
          "duration": 0.40624934999999596,
          "durationTicks": 117,
          "midi": 81,
          "name": "A5",
          "ticks": 28680,
          "time": 99.583174,
          "velocity": 0.84251968503937
        },
        {
          "duration": 0.42361043333333726,
          "durationTicks": 122,
          "midi": 74,
          "name": "D5",
          "ticks": 28800,
          "time": 99.99983999999999,
          "velocity": 0.84251968503937
        },
        {
          "duration": 0.836804216666664,
          "durationTicks": 241,
          "midi": 78,
          "name": "F#5",
          "ticks": 28920,
          "time": 100.416506,
          "velocity": 0.8031496062992126
        },
        {
          "duration": 0.3784716166666726,
          "durationTicks": 109,
          "midi": 83,
          "name": "B5",
          "ticks": 29280,
          "time": 101.66650399999999,
          "velocity": 0.889763779527559
        },
        {
          "duration": 0.44097151666666434,
          "durationTicks": 127,
          "midi": 79,
          "name": "G5",
          "ticks": 29400,
          "time": 102.08317,
          "velocity": 0.7322834645669292
        },
        {
          "duration": 0.4097215666666614,
          "durationTicks": 118,
          "midi": 76,
          "name": "E5",
          "ticks": 29520,
          "time": 102.499836,
          "velocity": 0.8031496062992126
        },
        {
          "duration": 0.3819438333333238,
          "durationTicks": 110,
          "midi": 83,
          "name": "B5",
          "ticks": 29640,
          "time": 102.916502,
          "velocity": 0.7322834645669292
        },
        {
          "duration": 0.486110333333329,
          "durationTicks": 140,
          "midi": 79,
          "name": "G5",
          "ticks": 29760,
          "time": 103.333168,
          "velocity": 0.8031496062992126
        },
        {
          "duration": 0.3784716166666726,
          "durationTicks": 109,
          "midi": 76,
          "name": "E5",
          "ticks": 29880,
          "time": 103.74983399999999,
          "velocity": 0.7716535433070866
        },
        {
          "duration": 0.29166619999999455,
          "durationTicks": 84,
          "midi": 83,
          "name": "B5",
          "ticks": 30000,
          "time": 104.1665,
          "velocity": 0.7716535433070866
        },
        {
          "duration": 0.19444413333333443,
          "durationTicks": 56,
          "midi": 79,
          "name": "G5",
          "ticks": 30080,
          "time": 104.44427733333332,
          "velocity": 0.7007874015748031
        },
        {
          "duration": 0.38194383333333803,
          "durationTicks": 110,
          "midi": 76,
          "name": "E5",
          "ticks": 30120,
          "time": 104.58316599999999,
          "velocity": 0.8031496062992126
        },
        {
          "duration": 0.4340270833333335,
          "durationTicks": 125,
          "midi": 81,
          "name": "A5",
          "ticks": 30240,
          "time": 104.999832,
          "velocity": 0.7716535433070866
        },
        {
          "duration": 0.5173602833333462,
          "durationTicks": 149,
          "midi": 78,
          "name": "F#5",
          "ticks": 30360,
          "time": 105.41649799999999,
          "velocity": 0.7716535433070866
        },
        {
          "duration": 0.8124986999999919,
          "durationTicks": 234,
          "midi": 74,
          "name": "D5",
          "ticks": 30480,
          "time": 105.833164,
          "velocity": 0.7716535433070866
        },
        {
          "duration": 0.36805496666666215,
          "durationTicks": 106,
          "midi": 81,
          "name": "A5",
          "ticks": 31200,
          "time": 108.33315999999999,
          "velocity": 0.84251968503937
        },
        {
          "duration": 0.3958326999999855,
          "durationTicks": 114,
          "midi": 77,
          "name": "F5",
          "ticks": 31320,
          "time": 108.749826,
          "velocity": 0.7716535433070866
        },
        {
          "duration": 0.374999399999993,
          "durationTicks": 108,
          "midi": 72,
          "name": "C5",
          "ticks": 31440,
          "time": 109.16649199999999,
          "velocity": 0.84251968503937
        },
        {
          "duration": 0.3958326999999997,
          "durationTicks": 114,
          "midi": 81,
          "name": "A5",
          "ticks": 31560,
          "time": 109.583158,
          "velocity": 0.7322834645669292
        },
        {
          "duration": 0.44097151666667855,
          "durationTicks": 127,
          "midi": 77,
          "name": "F5",
          "ticks": 31680,
          "time": 109.99982399999999,
          "velocity": 0.7716535433070866
        },
        {
          "duration": 0.2812495499999983,
          "durationTicks": 81,
          "midi": 72,
          "name": "C5",
          "ticks": 31800,
          "time": 110.41649,
          "velocity": 0.8031496062992126
        },
        {
          "duration": 0.3194439333333179,
          "durationTicks": 92,
          "midi": 81,
          "name": "A5",
          "ticks": 31880,
          "time": 110.69426733333334,
          "velocity": 0.8031496062992126
        },
        {
          "duration": 0.14583309999999017,
          "durationTicks": 42,
          "midi": 77,
          "name": "F5",
          "ticks": 32000,
          "time": 111.11093333333334,
          "velocity": 0.7322834645669292
        },
        {
          "duration": 0.3159717166666667,
          "durationTicks": 91,
          "midi": 72,
          "name": "C5",
          "ticks": 32040,
          "time": 111.249822,
          "velocity": 0.84251968503937
        },
        {
          "duration": 0.3993049166666509,
          "durationTicks": 115,
          "midi": 79,
          "name": "G5",
          "ticks": 32160,
          "time": 111.666488,
          "velocity": 0.8031496062992126
        },
        {
          "duration": 0.36458274999999674,
          "durationTicks": 105,
          "midi": 76,
          "name": "E5",
          "ticks": 32280,
          "time": 112.083154,
          "velocity": 0.7716535433070866
        },
        {
          "duration": 0.6249989999999883,
          "durationTicks": 180,
          "midi": 72,
          "name": "C5",
          "ticks": 32400,
          "time": 112.49982,
          "velocity": 0.84251968503937
        },
        {
          "duration": 0.8472208666666745,
          "durationTicks": 244,
          "midi": 74,
          "name": "D5",
          "ticks": 33120,
          "time": 114.999816,
          "velocity": 0.7007874015748031
        },
        {
          "duration": 0.836804216666664,
          "durationTicks": 241,
          "midi": 77,
          "name": "F5",
          "ticks": 33360,
          "time": 115.833148,
          "velocity": 0.6299212598425197
        },
        {
          "duration": 0.7604154499999964,
          "durationTicks": 219,
          "midi": 81,
          "name": "A5",
          "ticks": 33600,
          "time": 116.66647999999999,
          "velocity": 0.6692913385826772
        },
        {
          "duration": 3.232633716666669,
          "durationTicks": 931,
          "midi": 86,
          "name": "D6",
          "ticks": 33840,
          "time": 117.49981199999999,
          "velocity": 0.6299212598425197
        },
        {
          "duration": 2.371523983333333,
          "durationTicks": 683,
          "midi": 82,
          "name": "A#5",
          "ticks": 34080,
          "time": 118.33314399999999,
          "velocity": 0.5984251968503937
        },
        {
          "duration": 1.5347197666666688,
          "durationTicks": 442,
          "midi": 77,
          "name": "F5",
          "ticks": 34320,
          "time": 119.16647599999999,
          "velocity": 0.5669291338582677
        },
        {
          "duration": 0.6909711166666739,
          "durationTicks": 199,
          "midi": 74,
          "name": "D5",
          "ticks": 34560,
          "time": 119.999808,
          "velocity": 0.7007874015748031
        },
        {
          "duration": 3.274300316666668,
          "durationTicks": 943,
          "midi": 83,
          "name": "B5",
          "ticks": 34800,
          "time": 120.83314,
          "velocity": 0.7007874015748031
        },
        {
          "duration": 3.2534670166666615,
          "durationTicks": 937,
          "midi": 79,
          "name": "G5",
          "ticks": 34800,
          "time": 120.83314,
          "velocity": 0.5669291338582677
        },
        {
          "duration": 3.225689283333324,
          "durationTicks": 929,
          "midi": 74,
          "name": "D5",
          "ticks": 34800,
          "time": 120.83314,
          "velocity": 0.4881889763779528
        },
        {
          "duration": 2.9166620000000023,
          "durationTicks": 840,
          "midi": 88,
          "name": "E6",
          "ticks": 35760,
          "time": 124.166468,
          "velocity": 0.6692913385826772
        },
        {
          "duration": 1.4583310000000012,
          "durationTicks": 420,
          "midi": 85,
          "name": "C#6",
          "ticks": 36000,
          "time": 124.9998,
          "velocity": 0.7007874015748031
        },
        {
          "duration": 1.0868038166666878,
          "durationTicks": 313,
          "midi": 83,
          "name": "B5",
          "ticks": 36720,
          "time": 127.49979599999999,
          "velocity": 1
        },
        {
          "duration": 1.0868038166666878,
          "durationTicks": 313,
          "midi": 71,
          "name": "B4",
          "ticks": 36720,
          "time": 127.49979599999999,
          "velocity": 1
        },
        {
          "duration": 0.19097191666668323,
          "durationTicks": 55,
          "midi": 83,
          "name": "B5",
          "ticks": 37080,
          "time": 128.74979399999998,
          "velocity": 0.889763779527559
        },
        {
          "duration": 0.19097191666668323,
          "durationTicks": 55,
          "midi": 71,
          "name": "B4",
          "ticks": 37080,
          "time": 128.74979399999998,
          "velocity": 0.889763779527559
        },
        {
          "duration": 0.15624975000000063,
          "durationTicks": 45,
          "midi": 81,
          "name": "A5",
          "ticks": 37120,
          "time": 128.88868266666665,
          "velocity": 0.889763779527559
        },
        {
          "duration": 0.15624975000000063,
          "durationTicks": 45,
          "midi": 69,
          "name": "A4",
          "ticks": 37120,
          "time": 128.88868266666665,
          "velocity": 0.889763779527559
        },
        {
          "duration": 0.1284720166666773,
          "durationTicks": 37,
          "midi": 79,
          "name": "G5",
          "ticks": 37160,
          "time": 129.02757133333333,
          "velocity": 0.84251968503937
        },
        {
          "duration": 0.1284720166666773,
          "durationTicks": 37,
          "midi": 67,
          "name": "G4",
          "ticks": 37160,
          "time": 129.02757133333333,
          "velocity": 0.84251968503937
        },
        {
          "duration": 0.7395821499999897,
          "durationTicks": 213,
          "midi": 78,
          "name": "F#5",
          "ticks": 37200,
          "time": 129.16646,
          "velocity": 0.937007874015748
        },
        {
          "duration": 0.7395821499999897,
          "durationTicks": 213,
          "midi": 66,
          "name": "F#4",
          "ticks": 37200,
          "time": 129.16646,
          "velocity": 0.937007874015748
        },
        {
          "duration": 0.16666639999999688,
          "durationTicks": 48,
          "midi": 78,
          "name": "F#5",
          "ticks": 37440,
          "time": 129.99979199999999,
          "velocity": 0.889763779527559
        },
        {
          "duration": 0.16666639999999688,
          "durationTicks": 48,
          "midi": 66,
          "name": "F#4",
          "ticks": 37440,
          "time": 129.99979199999999,
          "velocity": 0.889763779527559
        },
        {
          "duration": 0.14236088333333896,
          "durationTicks": 41,
          "midi": 79,
          "name": "G5",
          "ticks": 37480,
          "time": 130.13868066666666,
          "velocity": 0.84251968503937
        },
        {
          "duration": 0.14236088333333896,
          "durationTicks": 41,
          "midi": 67,
          "name": "G4",
          "ticks": 37480,
          "time": 130.13868066666666,
          "velocity": 0.84251968503937
        },
        {
          "duration": 0.21527743333334115,
          "durationTicks": 62,
          "midi": 81,
          "name": "A5",
          "ticks": 37520,
          "time": 130.27756933333333,
          "velocity": 0.8031496062992126
        },
        {
          "duration": 0.21527743333334115,
          "durationTicks": 62,
          "midi": 69,
          "name": "A4",
          "ticks": 37520,
          "time": 130.27756933333333,
          "velocity": 0.8031496062992126
        },
        {
          "duration": 0.1874996999999894,
          "durationTicks": 54,
          "midi": 78,
          "name": "F#5",
          "ticks": 37560,
          "time": 130.416458,
          "velocity": 1
        },
        {
          "duration": 0.1874996999999894,
          "durationTicks": 54,
          "midi": 66,
          "name": "F#4",
          "ticks": 37560,
          "time": 130.416458,
          "velocity": 1
        },
        {
          "duration": 0.1527775333333352,
          "durationTicks": 44,
          "midi": 79,
          "name": "G5",
          "ticks": 37600,
          "time": 130.55534666666665,
          "velocity": 0.8031496062992126
        },
        {
          "duration": 0.1527775333333352,
          "durationTicks": 44,
          "midi": 67,
          "name": "G4",
          "ticks": 37600,
          "time": 130.55534666666665,
          "velocity": 0.8031496062992126
        },
        {
          "duration": 0.13888866666667354,
          "durationTicks": 40,
          "midi": 69,
          "name": "A4",
          "ticks": 37640,
          "time": 130.69423533333332,
          "velocity": 0.8031496062992126
        },
        {
          "duration": 0.13888866666667354,
          "durationTicks": 40,
          "midi": 81,
          "name": "A5",
          "ticks": 37640,
          "time": 130.69423533333332,
          "velocity": 0.8031496062992126
        },
        {
          "duration": 1.249998000000005,
          "durationTicks": 360,
          "midi": 78,
          "name": "F#5",
          "ticks": 37680,
          "time": 130.833124,
          "velocity": 1
        },
        {
          "duration": 1.249998000000005,
          "durationTicks": 360,
          "midi": 66,
          "name": "F#4",
          "ticks": 37680,
          "time": 130.833124,
          "velocity": 1
        },
        {
          "duration": 0.4097215666666614,
          "durationTicks": 118,
          "midi": 74,
          "name": "D5",
          "ticks": 38040,
          "time": 132.083122,
          "velocity": 0.937007874015748
        },
        {
          "duration": 0.4097215666666614,
          "durationTicks": 118,
          "midi": 62,
          "name": "D4",
          "ticks": 38040,
          "time": 132.083122,
          "velocity": 0.937007874015748
        },
        {
          "duration": 1.4861087333333387,
          "durationTicks": 428,
          "midi": 71,
          "name": "B4",
          "ticks": 38160,
          "time": 132.499788,
          "velocity": 1
        },
        {
          "duration": 1.4861087333333387,
          "durationTicks": 428,
          "midi": 59,
          "name": "B3",
          "ticks": 38160,
          "time": 132.499788,
          "velocity": 1
        },
        {
          "duration": 1.0868038166666736,
          "durationTicks": 313,
          "midi": 83,
          "name": "B5",
          "ticks": 38640,
          "time": 134.166452,
          "velocity": 1
        },
        {
          "duration": 1.0868038166666736,
          "durationTicks": 313,
          "midi": 71,
          "name": "B4",
          "ticks": 38640,
          "time": 134.166452,
          "velocity": 1
        },
        {
          "duration": 0.1909719166666548,
          "durationTicks": 55,
          "midi": 83,
          "name": "B5",
          "ticks": 39000,
          "time": 135.41645,
          "velocity": 0.889763779527559
        },
        {
          "duration": 0.1909719166666548,
          "durationTicks": 55,
          "midi": 71,
          "name": "B4",
          "ticks": 39000,
          "time": 135.41645,
          "velocity": 0.889763779527559
        },
        {
          "duration": 0.15624975000000063,
          "durationTicks": 45,
          "midi": 81,
          "name": "A5",
          "ticks": 39040,
          "time": 135.55533866666664,
          "velocity": 0.889763779527559
        },
        {
          "duration": 0.15624975000000063,
          "durationTicks": 45,
          "midi": 69,
          "name": "A4",
          "ticks": 39040,
          "time": 135.55533866666664,
          "velocity": 0.889763779527559
        },
        {
          "duration": 0.12847201666664887,
          "durationTicks": 37,
          "midi": 79,
          "name": "G5",
          "ticks": 39080,
          "time": 135.69422733333334,
          "velocity": 0.84251968503937
        },
        {
          "duration": 0.12847201666664887,
          "durationTicks": 37,
          "midi": 67,
          "name": "G4",
          "ticks": 39080,
          "time": 135.69422733333334,
          "velocity": 0.84251968503937
        },
        {
          "duration": 0.7395821499999897,
          "durationTicks": 213,
          "midi": 78,
          "name": "F#5",
          "ticks": 39120,
          "time": 135.833116,
          "velocity": 0.937007874015748
        },
        {
          "duration": 0.7395821499999897,
          "durationTicks": 213,
          "midi": 66,
          "name": "F#4",
          "ticks": 39120,
          "time": 135.833116,
          "velocity": 0.937007874015748
        },
        {
          "duration": 0.16666639999996846,
          "durationTicks": 48,
          "midi": 78,
          "name": "F#5",
          "ticks": 39360,
          "time": 136.666448,
          "velocity": 0.889763779527559
        },
        {
          "duration": 0.16666639999996846,
          "durationTicks": 48,
          "midi": 66,
          "name": "F#4",
          "ticks": 39360,
          "time": 136.666448,
          "velocity": 0.889763779527559
        },
        {
          "duration": 0.14236088333333896,
          "durationTicks": 41,
          "midi": 79,
          "name": "G5",
          "ticks": 39400,
          "time": 136.80533666666665,
          "velocity": 0.84251968503937
        },
        {
          "duration": 0.14236088333333896,
          "durationTicks": 41,
          "midi": 67,
          "name": "G4",
          "ticks": 39400,
          "time": 136.80533666666665,
          "velocity": 0.84251968503937
        },
        {
          "duration": 0.21527743333334115,
          "durationTicks": 62,
          "midi": 81,
          "name": "A5",
          "ticks": 39440,
          "time": 136.94422533333332,
          "velocity": 0.8031496062992126
        },
        {
          "duration": 0.21527743333334115,
          "durationTicks": 62,
          "midi": 69,
          "name": "A4",
          "ticks": 39440,
          "time": 136.94422533333332,
          "velocity": 0.8031496062992126
        },
        {
          "duration": 0.1874996999999894,
          "durationTicks": 54,
          "midi": 78,
          "name": "F#5",
          "ticks": 39480,
          "time": 137.083114,
          "velocity": 1
        },
        {
          "duration": 0.1874996999999894,
          "durationTicks": 54,
          "midi": 66,
          "name": "F#4",
          "ticks": 39480,
          "time": 137.083114,
          "velocity": 1
        },
        {
          "duration": 0.1527775333333352,
          "durationTicks": 44,
          "midi": 79,
          "name": "G5",
          "ticks": 39520,
          "time": 137.22200266666664,
          "velocity": 0.8031496062992126
        },
        {
          "duration": 0.1527775333333352,
          "durationTicks": 44,
          "midi": 67,
          "name": "G4",
          "ticks": 39520,
          "time": 137.22200266666664,
          "velocity": 0.8031496062992126
        },
        {
          "duration": 0.13888866666664512,
          "durationTicks": 40,
          "midi": 69,
          "name": "A4",
          "ticks": 39560,
          "time": 137.36089133333334,
          "velocity": 0.8031496062992126
        },
        {
          "duration": 0.13888866666664512,
          "durationTicks": 40,
          "midi": 81,
          "name": "A5",
          "ticks": 39560,
          "time": 137.36089133333334,
          "velocity": 0.8031496062992126
        },
        {
          "duration": 1.249998000000005,
          "durationTicks": 360,
          "midi": 78,
          "name": "F#5",
          "ticks": 39600,
          "time": 137.49978,
          "velocity": 1
        },
        {
          "duration": 1.249998000000005,
          "durationTicks": 360,
          "midi": 66,
          "name": "F#4",
          "ticks": 39600,
          "time": 137.49978,
          "velocity": 1
        },
        {
          "duration": 0.4097215666666614,
          "durationTicks": 118,
          "midi": 74,
          "name": "D5",
          "ticks": 39960,
          "time": 138.749778,
          "velocity": 0.937007874015748
        },
        {
          "duration": 0.4097215666666614,
          "durationTicks": 118,
          "midi": 62,
          "name": "D4",
          "ticks": 39960,
          "time": 138.749778,
          "velocity": 0.937007874015748
        },
        {
          "duration": 1.4861087333333387,
          "durationTicks": 428,
          "midi": 71,
          "name": "B4",
          "ticks": 40080,
          "time": 139.16644399999998,
          "velocity": 1
        },
        {
          "duration": 1.4861087333333387,
          "durationTicks": 428,
          "midi": 59,
          "name": "B3",
          "ticks": 40080,
          "time": 139.16644399999998,
          "velocity": 1
        },
        {
          "duration": 1.2673590833333606,
          "durationTicks": 365,
          "midi": 81,
          "name": "A5",
          "ticks": 40560,
          "time": 140.83310799999998,
          "velocity": 0.937007874015748
        },
        {
          "duration": 1.2673590833333606,
          "durationTicks": 365,
          "midi": 93,
          "name": "A6",
          "ticks": 40560,
          "time": 140.83310799999998,
          "velocity": 0.937007874015748
        },
        {
          "duration": 0.16666639999999688,
          "durationTicks": 48,
          "midi": 81,
          "name": "A5",
          "ticks": 40960,
          "time": 142.22199466666666,
          "velocity": 0.7716535433070866
        },
        {
          "duration": 0.16666639999999688,
          "durationTicks": 48,
          "midi": 93,
          "name": "A6",
          "ticks": 40960,
          "time": 142.22199466666666,
          "velocity": 0.7716535433070866
        },
        {
          "duration": 0.14583309999997596,
          "durationTicks": 42,
          "midi": 91,
          "name": "G6",
          "ticks": 41000,
          "time": 142.36088333333333,
          "velocity": 0.7716535433070866
        },
        {
          "duration": 0.14583309999997596,
          "durationTicks": 42,
          "midi": 79,
          "name": "G5",
          "ticks": 41000,
          "time": 142.36088333333333,
          "velocity": 0.7716535433070866
        },
        {
          "duration": 0.7708321000000069,
          "durationTicks": 222,
          "midi": 77,
          "name": "F5",
          "ticks": 41040,
          "time": 142.499772,
          "velocity": 0.84251968503937
        },
        {
          "duration": 0.7708321000000069,
          "durationTicks": 222,
          "midi": 89,
          "name": "F6",
          "ticks": 41040,
          "time": 142.499772,
          "velocity": 0.84251968503937
        },
        {
          "duration": 0.15624975000000063,
          "durationTicks": 45,
          "midi": 69,
          "name": "A4",
          "ticks": 41280,
          "time": 143.333104,
          "velocity": 0.8031496062992126
        },
        {
          "duration": 0.15624975000000063,
          "durationTicks": 45,
          "midi": 81,
          "name": "A5",
          "ticks": 41280,
          "time": 143.333104,
          "velocity": 0.8031496062992126
        },
        {
          "duration": 0.1111109333333502,
          "durationTicks": 32,
          "midi": 70,
          "name": "A#4",
          "ticks": 41320,
          "time": 143.47199266666667,
          "velocity": 0.84251968503937
        },
        {
          "duration": 0.1111109333333502,
          "durationTicks": 32,
          "midi": 82,
          "name": "A#5",
          "ticks": 41320,
          "time": 143.47199266666667,
          "velocity": 0.84251968503937
        },
        {
          "duration": 0.1527775333333352,
          "durationTicks": 44,
          "midi": 72,
          "name": "C5",
          "ticks": 41360,
          "time": 143.61088133333334,
          "velocity": 0.8031496062992126
        },
        {
          "duration": 0.1527775333333352,
          "durationTicks": 44,
          "midi": 84,
          "name": "C6",
          "ticks": 41360,
          "time": 143.61088133333334,
          "velocity": 0.8031496062992126
        },
        {
          "duration": 0.18055526666668698,
          "durationTicks": 52,
          "midi": 69,
          "name": "A4",
          "ticks": 41400,
          "time": 143.74976999999998,
          "velocity": 0.889763779527559
        },
        {
          "duration": 0.18055526666668698,
          "durationTicks": 52,
          "midi": 81,
          "name": "A5",
          "ticks": 41400,
          "time": 143.74976999999998,
          "velocity": 0.889763779527559
        },
        {
          "duration": 0.12499980000001187,
          "durationTicks": 36,
          "midi": 70,
          "name": "A#4",
          "ticks": 41440,
          "time": 143.88865866666666,
          "velocity": 0.889763779527559
        },
        {
          "duration": 0.12499980000001187,
          "durationTicks": 36,
          "midi": 82,
          "name": "A#5",
          "ticks": 41440,
          "time": 143.88865866666666,
          "velocity": 0.889763779527559
        },
        {
          "duration": 0.15972196666666605,
          "durationTicks": 46,
          "midi": 84,
          "name": "C6",
          "ticks": 41480,
          "time": 144.02754733333333,
          "velocity": 0.84251968503937
        },
        {
          "duration": 0.15972196666666605,
          "durationTicks": 46,
          "midi": 72,
          "name": "C5",
          "ticks": 41480,
          "time": 144.02754733333333,
          "velocity": 0.84251968503937
        },
        {
          "duration": 0.5034714166666561,
          "durationTicks": 145,
          "midi": 84,
          "name": "C6",
          "ticks": 41520,
          "time": 144.166436,
          "velocity": 0.889763779527559
        },
        {
          "duration": 0.5034714166666561,
          "durationTicks": 145,
          "midi": 96,
          "name": "C7",
          "ticks": 41520,
          "time": 144.166436,
          "velocity": 0.889763779527559
        },
        {
          "duration": 0.17013861666669072,
          "durationTicks": 49,
          "midi": 84,
          "name": "C6",
          "ticks": 41680,
          "time": 144.72199066666664,
          "velocity": 0.8031496062992126
        },
        {
          "duration": 0.17013861666669072,
          "durationTicks": 49,
          "midi": 96,
          "name": "C7",
          "ticks": 41680,
          "time": 144.72199066666664,
          "velocity": 0.8031496062992126
        },
        {
          "duration": 0.13888866666664512,
          "durationTicks": 40,
          "midi": 79,
          "name": "G5",
          "ticks": 41720,
          "time": 144.86087933333334,
          "velocity": 0.7322834645669292
        },
        {
          "duration": 0.13888866666664512,
          "durationTicks": 40,
          "midi": 91,
          "name": "G6",
          "ticks": 41720,
          "time": 144.86087933333334,
          "velocity": 0.7322834645669292
        },
        {
          "duration": 0.5138880666666807,
          "durationTicks": 148,
          "midi": 76,
          "name": "E5",
          "ticks": 41760,
          "time": 144.999768,
          "velocity": 0.8031496062992126
        },
        {
          "duration": 0.5138880666666807,
          "durationTicks": 148,
          "midi": 88,
          "name": "E6",
          "ticks": 41760,
          "time": 144.999768,
          "velocity": 0.8031496062992126
        },
        {
          "duration": 0.1631941833333599,
          "durationTicks": 47,
          "midi": 79,
          "name": "G5",
          "ticks": 41920,
          "time": 145.55532266666665,
          "velocity": 0.7007874015748031
        },
        {
          "duration": 0.1631941833333599,
          "durationTicks": 47,
          "midi": 91,
          "name": "G6",
          "ticks": 41920,
          "time": 145.55532266666665,
          "velocity": 0.7007874015748031
        },
        {
          "duration": 0.13888866666667354,
          "durationTicks": 40,
          "midi": 88,
          "name": "E6",
          "ticks": 41960,
          "time": 145.69421133333333,
          "velocity": 0.4881889763779528
        },
        {
          "duration": 0.13888866666667354,
          "durationTicks": 40,
          "midi": 76,
          "name": "E5",
          "ticks": 41960,
          "time": 145.69421133333333,
          "velocity": 0.4881889763779528
        },
        {
          "duration": 0.5868046166666829,
          "durationTicks": 169,
          "midi": 74,
          "name": "D5",
          "ticks": 42000,
          "time": 145.8331,
          "velocity": 0.889763779527559
        },
        {
          "duration": 0.5868046166666829,
          "durationTicks": 169,
          "midi": 86,
          "name": "D6",
          "ticks": 42000,
          "time": 145.8331,
          "velocity": 0.889763779527559
        },
        {
          "duration": 0.1319442333333427,
          "durationTicks": 38,
          "midi": 76,
          "name": "E5",
          "ticks": 42160,
          "time": 146.38865466666664,
          "velocity": 0.5984251968503937
        },
        {
          "duration": 0.1319442333333427,
          "durationTicks": 38,
          "midi": 88,
          "name": "E6",
          "ticks": 42160,
          "time": 146.38865466666664,
          "velocity": 0.5984251968503937
        },
        {
          "duration": 0.12152758333331803,
          "durationTicks": 35,
          "midi": 74,
          "name": "D5",
          "ticks": 42200,
          "time": 146.52754333333334,
          "velocity": 0.7716535433070866
        },
        {
          "duration": 0.12152758333331803,
          "durationTicks": 35,
          "midi": 86,
          "name": "D6",
          "ticks": 42200,
          "time": 146.52754333333334,
          "velocity": 0.7716535433070866
        },
        {
          "duration": 0.524304716666677,
          "durationTicks": 151,
          "midi": 72,
          "name": "C5",
          "ticks": 42240,
          "time": 146.666432,
          "velocity": 0.8031496062992126
        },
        {
          "duration": 0.524304716666677,
          "durationTicks": 151,
          "midi": 84,
          "name": "C6",
          "ticks": 42240,
          "time": 146.666432,
          "velocity": 0.8031496062992126
        },
        {
          "duration": 0.8368042166666498,
          "durationTicks": 241,
          "midi": 62,
          "name": "D4",
          "ticks": 42480,
          "time": 147.499764,
          "velocity": 0.84251968503937
        },
        {
          "duration": 0.8368042166666498,
          "durationTicks": 241,
          "midi": 74,
          "name": "D5",
          "ticks": 42480,
          "time": 147.499764,
          "velocity": 0.84251968503937
        },
        {
          "duration": 0.8819430333333571,
          "durationTicks": 254,
          "midi": 77,
          "name": "F5",
          "ticks": 42720,
          "time": 148.33309599999998,
          "velocity": 0.937007874015748
        },
        {
          "duration": 0.8819430333333571,
          "durationTicks": 254,
          "midi": 65,
          "name": "F4",
          "ticks": 42720,
          "time": 148.33309599999998,
          "velocity": 0.937007874015748
        },
        {
          "duration": 0.3958326999999997,
          "durationTicks": 114,
          "midi": 69,
          "name": "A4",
          "ticks": 42960,
          "time": 149.166428,
          "velocity": 0.889763779527559
        },
        {
          "duration": 0.3958326999999997,
          "durationTicks": 114,
          "midi": 81,
          "name": "A5",
          "ticks": 42960,
          "time": 149.166428,
          "velocity": 0.889763779527559
        },
        {
          "duration": 0.38888826666666887,
          "durationTicks": 112,
          "midi": 74,
          "name": "D5",
          "ticks": 43080,
          "time": 149.583094,
          "velocity": 0.889763779527559
        },
        {
          "duration": 0.38888826666666887,
          "durationTicks": 112,
          "midi": 86,
          "name": "D6",
          "ticks": 43080,
          "time": 149.583094,
          "velocity": 0.889763779527559
        },
        {
          "duration": 1.368053366666686,
          "durationTicks": 394,
          "midi": 77,
          "name": "F5",
          "ticks": 43200,
          "time": 149.99975999999998,
          "velocity": 0.889763779527559
        },
        {
          "duration": 1.368053366666686,
          "durationTicks": 394,
          "midi": 89,
          "name": "F6",
          "ticks": 43200,
          "time": 149.99975999999998,
          "velocity": 0.889763779527559
        },
        {
          "duration": 0.14236088333331054,
          "durationTicks": 41,
          "midi": 88,
          "name": "E6",
          "ticks": 43640,
          "time": 151.52753533333333,
          "velocity": 0.84251968503937
        },
        {
          "duration": 0.14236088333331054,
          "durationTicks": 41,
          "midi": 76,
          "name": "E5",
          "ticks": 43640,
          "time": 151.52753533333333,
          "velocity": 0.84251968503937
        },
        {
          "duration": 1.1597203666666758,
          "durationTicks": 334,
          "midi": 74,
          "name": "D5",
          "ticks": 43680,
          "time": 151.666424,
          "velocity": 0.889763779527559
        },
        {
          "duration": 1.1597203666666758,
          "durationTicks": 334,
          "midi": 86,
          "name": "D6",
          "ticks": 43680,
          "time": 151.666424,
          "velocity": 0.889763779527559
        },
        {
          "duration": 0.6597211666666567,
          "durationTicks": 190,
          "midi": 77,
          "name": "F5",
          "ticks": 44160,
          "time": 153.333088,
          "velocity": 0.889763779527559
        },
        {
          "duration": 0.6597211666666567,
          "durationTicks": 190,
          "midi": 89,
          "name": "F6",
          "ticks": 44160,
          "time": 153.333088,
          "velocity": 0.889763779527559
        },
        {
          "duration": 0.12499979999998345,
          "durationTicks": 36,
          "midi": 76,
          "name": "E5",
          "ticks": 44360,
          "time": 154.02753133333334,
          "velocity": 0.8031496062992126
        },
        {
          "duration": 0.12499979999998345,
          "durationTicks": 36,
          "midi": 88,
          "name": "E6",
          "ticks": 44360,
          "time": 154.02753133333334,
          "velocity": 0.8031496062992126
        },
        {
          "duration": 0.6249990000000025,
          "durationTicks": 180,
          "midi": 74,
          "name": "D5",
          "ticks": 44400,
          "time": 154.16642,
          "velocity": 0.889763779527559
        },
        {
          "duration": 0.6249990000000025,
          "durationTicks": 180,
          "midi": 86,
          "name": "D6",
          "ticks": 44400,
          "time": 154.16642,
          "velocity": 0.889763779527559
        },
        {
          "duration": 0.13541645000000813,
          "durationTicks": 39,
          "midi": 72,
          "name": "C5",
          "ticks": 44600,
          "time": 154.86086333333333,
          "velocity": 0.889763779527559
        },
        {
          "duration": 0.13541645000000813,
          "durationTicks": 39,
          "midi": 84,
          "name": "C6",
          "ticks": 44600,
          "time": 154.86086333333333,
          "velocity": 0.889763779527559
        },
        {
          "duration": 0.5486102333333349,
          "durationTicks": 158,
          "midi": 71,
          "name": "B4",
          "ticks": 44640,
          "time": 154.999752,
          "velocity": 0.84251968503937
        },
        {
          "duration": 0.5486102333333349,
          "durationTicks": 158,
          "midi": 83,
          "name": "B5",
          "ticks": 44640,
          "time": 154.999752,
          "velocity": 0.84251968503937
        },
        {
          "duration": 0.34722166666665544,
          "durationTicks": 100,
          "midi": 74,
          "name": "D5",
          "ticks": 44880,
          "time": 155.83308399999999,
          "velocity": 0.84251968503937
        },
        {
          "duration": 0.34722166666665544,
          "durationTicks": 100,
          "midi": 86,
          "name": "D6",
          "ticks": 44880,
          "time": 155.83308399999999,
          "velocity": 0.84251968503937
        },
        {
          "duration": 0.3229161499999691,
          "durationTicks": 93,
          "midi": 74,
          "name": "D5",
          "ticks": 45000,
          "time": 156.24975,
          "velocity": 0.889763779527559
        },
        {
          "duration": 0.3229161499999691,
          "durationTicks": 93,
          "midi": 86,
          "name": "D6",
          "ticks": 45000,
          "time": 156.24975,
          "velocity": 0.889763779527559
        },
        {
          "duration": 0.8194431333333227,
          "durationTicks": 236,
          "midi": 76,
          "name": "E5",
          "ticks": 45120,
          "time": 156.666416,
          "velocity": 0.8031496062992126
        },
        {
          "duration": 0.8194431333333227,
          "durationTicks": 236,
          "midi": 88,
          "name": "E6",
          "ticks": 45120,
          "time": 156.666416,
          "velocity": 0.8031496062992126
        },
        {
          "duration": 0.4062493500000244,
          "durationTicks": 117,
          "midi": 73,
          "name": "C#5",
          "ticks": 45360,
          "time": 157.49974799999998,
          "velocity": 0.8031496062992126
        },
        {
          "duration": 0.4062493500000244,
          "durationTicks": 117,
          "midi": 85,
          "name": "C#6",
          "ticks": 45360,
          "time": 157.49974799999998,
          "velocity": 0.8031496062992126
        },
        {
          "duration": 0.42708264999998846,
          "durationTicks": 123,
          "midi": 81,
          "name": "A5",
          "ticks": 45480,
          "time": 157.916414,
          "velocity": 0.84251968503937
        },
        {
          "duration": 0.42708264999998846,
          "durationTicks": 123,
          "midi": 69,
          "name": "A4",
          "ticks": 45480,
          "time": 157.916414,
          "velocity": 0.84251968503937
        },
        {
          "duration": 0.7916653999999994,
          "durationTicks": 228,
          "midi": 64,
          "name": "E4",
          "ticks": 45600,
          "time": 158.33308,
          "velocity": 0.889763779527559
        },
        {
          "duration": 0.7916653999999994,
          "durationTicks": 228,
          "midi": 76,
          "name": "E5",
          "ticks": 45600,
          "time": 158.33308,
          "velocity": 0.889763779527559
        },
        {
          "duration": 0.30902728333333584,
          "durationTicks": 89,
          "midi": 57,
          "name": "A3",
          "ticks": 45840,
          "time": 159.16641199999998,
          "velocity": 0.889763779527559
        },
        {
          "duration": 0.30902728333333584,
          "durationTicks": 89,
          "midi": 69,
          "name": "A4",
          "ticks": 45840,
          "time": 159.16641199999998,
          "velocity": 0.889763779527559
        },
        {
          "duration": 1.5555530666666755,
          "durationTicks": 448,
          "midi": 77,
          "name": "F5",
          "ticks": 46080,
          "time": 159.999744,
          "velocity": 0.4881889763779528
        },
        {
          "duration": 1.559025283333341,
          "durationTicks": 449,
          "midi": 86,
          "name": "D6",
          "ticks": 46080,
          "time": 159.999744,
          "velocity": 0.5669291338582677
        },
        {
          "duration": 1.5868030166666642,
          "durationTicks": 457,
          "midi": 81,
          "name": "A5",
          "ticks": 46080,
          "time": 159.999744,
          "velocity": 0.5354330708661418
        },
        {
          "duration": 1.534719766666683,
          "durationTicks": 442,
          "midi": 84,
          "name": "C6",
          "ticks": 46560,
          "time": 161.666408,
          "velocity": 0.5984251968503937
        },
        {
          "duration": 1.5312475500000176,
          "durationTicks": 441,
          "midi": 77,
          "name": "F5",
          "ticks": 46560,
          "time": 161.666408,
          "velocity": 0.5354330708661418
        },
        {
          "duration": 1.5416641999999854,
          "durationTicks": 444,
          "midi": 81,
          "name": "A5",
          "ticks": 46560,
          "time": 161.666408,
          "velocity": 0.5669291338582677
        },
        {
          "duration": 0.7187488500000256,
          "durationTicks": 207,
          "midi": 83,
          "name": "B5",
          "ticks": 47160,
          "time": 163.74973799999998,
          "velocity": 0.6692913385826772
        },
        {
          "duration": 0.7222210666666911,
          "durationTicks": 208,
          "midi": 79,
          "name": "G5",
          "ticks": 47160,
          "time": 163.74973799999998,
          "velocity": 0.7007874015748031
        },
        {
          "duration": 0.34374944999999,
          "durationTicks": 99,
          "midi": 79,
          "name": "G5",
          "ticks": 47400,
          "time": 164.58307,
          "velocity": 0.7322834645669292
        },
        {
          "duration": 0.36111053333334553,
          "durationTicks": 104,
          "midi": 83,
          "name": "B5",
          "ticks": 47400,
          "time": 164.58307,
          "velocity": 0.8031496062992126
        },
        {
          "duration": 0.6979155500000047,
          "durationTicks": 201,
          "midi": 82,
          "name": "A#5",
          "ticks": 47640,
          "time": 165.416402,
          "velocity": 0.7322834645669292
        },
        {
          "duration": 0.6527767333333259,
          "durationTicks": 188,
          "midi": 74,
          "name": "D5",
          "ticks": 47640,
          "time": 165.416402,
          "velocity": 0.5669291338582677
        },
        {
          "duration": 0.6909711166666739,
          "durationTicks": 199,
          "midi": 77,
          "name": "F5",
          "ticks": 47640,
          "time": 165.416402,
          "velocity": 0.7322834645669292
        },
        {
          "duration": 0.3055550666666704,
          "durationTicks": 88,
          "midi": 74,
          "name": "D5",
          "ticks": 47880,
          "time": 166.249734,
          "velocity": 0.5984251968503937
        },
        {
          "duration": 0.21180521666667573,
          "durationTicks": 61,
          "midi": 82,
          "name": "A#5",
          "ticks": 47880,
          "time": 166.249734,
          "velocity": 0.7716535433070866
        },
        {
          "duration": 0.27083289999998783,
          "durationTicks": 78,
          "midi": 77,
          "name": "F5",
          "ticks": 47880,
          "time": 166.249734,
          "velocity": 0.7322834645669292
        },
        {
          "duration": 1.55208085000001,
          "durationTicks": 447,
          "midi": 74,
          "name": "D5",
          "ticks": 48000,
          "time": 166.66639999999998,
          "velocity": 0.4645669291338583
        },
        {
          "duration": 1.55208085000001,
          "durationTicks": 447,
          "midi": 81,
          "name": "A5",
          "ticks": 48000,
          "time": 166.66639999999998,
          "velocity": 0.6692913385826772
        },
        {
          "duration": 1.5763863666666964,
          "durationTicks": 454,
          "midi": 77,
          "name": "F5",
          "ticks": 48000,
          "time": 166.66639999999998,
          "velocity": 0.7007874015748031
        },
        {
          "duration": 1.4583310000000154,
          "durationTicks": 420,
          "midi": 72,
          "name": "C5",
          "ticks": 48480,
          "time": 168.33306399999998,
          "velocity": 0.4645669291338583
        },
        {
          "duration": 1.5243031166666867,
          "durationTicks": 439,
          "midi": 81,
          "name": "A5",
          "ticks": 48480,
          "time": 168.33306399999998,
          "velocity": 0.6299212598425197
        },
        {
          "duration": 1.510414250000025,
          "durationTicks": 435,
          "midi": 77,
          "name": "F5",
          "ticks": 48480,
          "time": 168.33306399999998,
          "velocity": 0.6692913385826772
        },
        {
          "duration": 1.472219866666677,
          "durationTicks": 424,
          "midi": 74,
          "name": "D5",
          "ticks": 48960,
          "time": 169.999728,
          "velocity": 0.3858267716535433
        },
        {
          "duration": 1.4826365166666449,
          "durationTicks": 427,
          "midi": 79,
          "name": "G5",
          "ticks": 48960,
          "time": 169.999728,
          "velocity": 0.5984251968503937
        },
        {
          "duration": 1.4791642999999794,
          "durationTicks": 426,
          "midi": 83,
          "name": "B5",
          "ticks": 48960,
          "time": 169.999728,
          "velocity": 0.7007874015748031
        },
        {
          "duration": 0.8749985999999979,
          "durationTicks": 252,
          "midi": 82,
          "name": "A#5",
          "ticks": 49440,
          "time": 171.666392,
          "velocity": 0.5669291338582677
        },
        {
          "duration": 0.8784708166666633,
          "durationTicks": 253,
          "midi": 74,
          "name": "D5",
          "ticks": 49440,
          "time": 171.666392,
          "velocity": 0.5039370078740157
        },
        {
          "duration": 0.8784708166666633,
          "durationTicks": 253,
          "midi": 77,
          "name": "F5",
          "ticks": 49440,
          "time": 171.666392,
          "velocity": 0.7007874015748031
        },
        {
          "duration": 1.5555530666666755,
          "durationTicks": 448,
          "midi": 77,
          "name": "F5",
          "ticks": 49920,
          "time": 173.333056,
          "velocity": 0.4881889763779528
        },
        {
          "duration": 1.559025283333341,
          "durationTicks": 449,
          "midi": 86,
          "name": "D6",
          "ticks": 49920,
          "time": 173.333056,
          "velocity": 0.5669291338582677
        },
        {
          "duration": 1.5868030166666642,
          "durationTicks": 457,
          "midi": 81,
          "name": "A5",
          "ticks": 49920,
          "time": 173.333056,
          "velocity": 0.5354330708661418
        },
        {
          "duration": 1.5347197666666546,
          "durationTicks": 442,
          "midi": 84,
          "name": "C6",
          "ticks": 50400,
          "time": 174.99972,
          "velocity": 0.5984251968503937
        },
        {
          "duration": 1.5312475499999891,
          "durationTicks": 441,
          "midi": 77,
          "name": "F5",
          "ticks": 50400,
          "time": 174.99972,
          "velocity": 0.5354330708661418
        },
        {
          "duration": 1.5416641999999854,
          "durationTicks": 444,
          "midi": 81,
          "name": "A5",
          "ticks": 50400,
          "time": 174.99972,
          "velocity": 0.5669291338582677
        },
        {
          "duration": 0.7187488500000256,
          "durationTicks": 207,
          "midi": 83,
          "name": "B5",
          "ticks": 51000,
          "time": 177.08305,
          "velocity": 0.6692913385826772
        },
        {
          "duration": 0.7222210666666911,
          "durationTicks": 208,
          "midi": 79,
          "name": "G5",
          "ticks": 51000,
          "time": 177.08305,
          "velocity": 0.7007874015748031
        },
        {
          "duration": 0.34374944999999,
          "durationTicks": 99,
          "midi": 79,
          "name": "G5",
          "ticks": 51240,
          "time": 177.916382,
          "velocity": 0.7322834645669292
        },
        {
          "duration": 0.3611105333333171,
          "durationTicks": 104,
          "midi": 83,
          "name": "B5",
          "ticks": 51240,
          "time": 177.916382,
          "velocity": 0.8031496062992126
        },
        {
          "duration": 0.6979155500000047,
          "durationTicks": 201,
          "midi": 82,
          "name": "A#5",
          "ticks": 51480,
          "time": 178.74971399999998,
          "velocity": 0.7322834645669292
        },
        {
          "duration": 0.6527767333333543,
          "durationTicks": 188,
          "midi": 74,
          "name": "D5",
          "ticks": 51480,
          "time": 178.74971399999998,
          "velocity": 0.5669291338582677
        },
        {
          "duration": 0.6909711166666739,
          "durationTicks": 199,
          "midi": 77,
          "name": "F5",
          "ticks": 51480,
          "time": 178.74971399999998,
          "velocity": 0.7322834645669292
        },
        {
          "duration": 0.3055550666666704,
          "durationTicks": 88,
          "midi": 74,
          "name": "D5",
          "ticks": 51720,
          "time": 179.583046,
          "velocity": 0.5984251968503937
        },
        {
          "duration": 0.2118052166666473,
          "durationTicks": 61,
          "midi": 82,
          "name": "A#5",
          "ticks": 51720,
          "time": 179.583046,
          "velocity": 0.7716535433070866
        },
        {
          "duration": 0.27083289999998783,
          "durationTicks": 78,
          "midi": 77,
          "name": "F5",
          "ticks": 51720,
          "time": 179.583046,
          "velocity": 0.7322834645669292
        },
        {
          "duration": 1.55208085000001,
          "durationTicks": 447,
          "midi": 74,
          "name": "D5",
          "ticks": 51840,
          "time": 179.999712,
          "velocity": 0.4645669291338583
        },
        {
          "duration": 1.55208085000001,
          "durationTicks": 447,
          "midi": 81,
          "name": "A5",
          "ticks": 51840,
          "time": 179.999712,
          "velocity": 0.6692913385826772
        },
        {
          "duration": 1.576386366666668,
          "durationTicks": 454,
          "midi": 77,
          "name": "F5",
          "ticks": 51840,
          "time": 179.999712,
          "velocity": 0.7007874015748031
        },
        {
          "duration": 1.4583310000000154,
          "durationTicks": 420,
          "midi": 72,
          "name": "C5",
          "ticks": 52320,
          "time": 181.66637599999999,
          "velocity": 0.4645669291338583
        },
        {
          "duration": 1.5243031166666867,
          "durationTicks": 439,
          "midi": 81,
          "name": "A5",
          "ticks": 52320,
          "time": 181.66637599999999,
          "velocity": 0.6299212598425197
        },
        {
          "duration": 1.5104142499999966,
          "durationTicks": 435,
          "midi": 77,
          "name": "F5",
          "ticks": 52320,
          "time": 181.66637599999999,
          "velocity": 0.6692913385826772
        },
        {
          "duration": 1.472219866666677,
          "durationTicks": 424,
          "midi": 74,
          "name": "D5",
          "ticks": 52800,
          "time": 183.33303999999998,
          "velocity": 0.3858267716535433
        },
        {
          "duration": 1.4826365166666733,
          "durationTicks": 427,
          "midi": 79,
          "name": "G5",
          "ticks": 52800,
          "time": 183.33303999999998,
          "velocity": 0.5984251968503937
        },
        {
          "duration": 1.4791643000000079,
          "durationTicks": 426,
          "midi": 83,
          "name": "B5",
          "ticks": 52800,
          "time": 183.33303999999998,
          "velocity": 0.7007874015748031
        },
        {
          "duration": 0.8749986000000263,
          "durationTicks": 252,
          "midi": 82,
          "name": "A#5",
          "ticks": 53280,
          "time": 184.99970399999998,
          "velocity": 0.5669291338582677
        },
        {
          "duration": 0.8784708166666917,
          "durationTicks": 253,
          "midi": 74,
          "name": "D5",
          "ticks": 53280,
          "time": 184.99970399999998,
          "velocity": 0.5039370078740157
        },
        {
          "duration": 0.8784708166666917,
          "durationTicks": 253,
          "midi": 77,
          "name": "F5",
          "ticks": 53280,
          "time": 184.99970399999998,
          "velocity": 0.7007874015748031
        },
        {
          "duration": 1.5555530666666755,
          "durationTicks": 448,
          "midi": 77,
          "name": "F5",
          "ticks": 53760,
          "time": 186.66636799999998,
          "velocity": 0.4881889763779528
        },
        {
          "duration": 1.559025283333341,
          "durationTicks": 449,
          "midi": 86,
          "name": "D6",
          "ticks": 53760,
          "time": 186.66636799999998,
          "velocity": 0.5669291338582677
        },
        {
          "duration": 1.5868030166666927,
          "durationTicks": 457,
          "midi": 81,
          "name": "A5",
          "ticks": 53760,
          "time": 186.66636799999998,
          "velocity": 0.5354330708661418
        },
        {
          "duration": 1.5347197666666546,
          "durationTicks": 442,
          "midi": 84,
          "name": "C6",
          "ticks": 54240,
          "time": 188.333032,
          "velocity": 0.5984251968503937
        },
        {
          "duration": 1.5312475499999891,
          "durationTicks": 441,
          "midi": 77,
          "name": "F5",
          "ticks": 54240,
          "time": 188.333032,
          "velocity": 0.5354330708661418
        },
        {
          "duration": 1.5416641999999854,
          "durationTicks": 444,
          "midi": 81,
          "name": "A5",
          "ticks": 54240,
          "time": 188.333032,
          "velocity": 0.5669291338582677
        },
        {
          "duration": 0.7187488499999972,
          "durationTicks": 207,
          "midi": 83,
          "name": "B5",
          "ticks": 54840,
          "time": 190.416362,
          "velocity": 0.6692913385826772
        },
        {
          "duration": 0.7222210666666626,
          "durationTicks": 208,
          "midi": 79,
          "name": "G5",
          "ticks": 54840,
          "time": 190.416362,
          "velocity": 0.7007874015748031
        },
        {
          "duration": 0.34374944999999,
          "durationTicks": 99,
          "midi": 79,
          "name": "G5",
          "ticks": 55080,
          "time": 191.249694,
          "velocity": 0.7322834645669292
        },
        {
          "duration": 0.3611105333333171,
          "durationTicks": 104,
          "midi": 83,
          "name": "B5",
          "ticks": 55080,
          "time": 191.249694,
          "velocity": 0.8031496062992126
        },
        {
          "duration": 0.6979155500000047,
          "durationTicks": 201,
          "midi": 82,
          "name": "A#5",
          "ticks": 55320,
          "time": 192.083026,
          "velocity": 0.7322834645669292
        },
        {
          "duration": 0.6527767333333259,
          "durationTicks": 188,
          "midi": 74,
          "name": "D5",
          "ticks": 55320,
          "time": 192.083026,
          "velocity": 0.5669291338582677
        },
        {
          "duration": 0.6909711166666739,
          "durationTicks": 199,
          "midi": 77,
          "name": "F5",
          "ticks": 55320,
          "time": 192.083026,
          "velocity": 0.7322834645669292
        },
        {
          "duration": 0.3055550666666704,
          "durationTicks": 88,
          "midi": 74,
          "name": "D5",
          "ticks": 55560,
          "time": 192.916358,
          "velocity": 0.5984251968503937
        },
        {
          "duration": 0.2118052166666473,
          "durationTicks": 61,
          "midi": 82,
          "name": "A#5",
          "ticks": 55560,
          "time": 192.916358,
          "velocity": 0.7716535433070866
        },
        {
          "duration": 0.27083289999998783,
          "durationTicks": 78,
          "midi": 77,
          "name": "F5",
          "ticks": 55560,
          "time": 192.916358,
          "velocity": 0.7322834645669292
        },
        {
          "duration": 1.55208085000001,
          "durationTicks": 447,
          "midi": 74,
          "name": "D5",
          "ticks": 55680,
          "time": 193.333024,
          "velocity": 0.4645669291338583
        },
        {
          "duration": 1.55208085000001,
          "durationTicks": 447,
          "midi": 81,
          "name": "A5",
          "ticks": 55680,
          "time": 193.333024,
          "velocity": 0.6692913385826772
        },
        {
          "duration": 1.576386366666668,
          "durationTicks": 454,
          "midi": 77,
          "name": "F5",
          "ticks": 55680,
          "time": 193.333024,
          "velocity": 0.7007874015748031
        },
        {
          "duration": 1.458330999999987,
          "durationTicks": 420,
          "midi": 72,
          "name": "C5",
          "ticks": 56160,
          "time": 194.999688,
          "velocity": 0.4645669291338583
        },
        {
          "duration": 1.5243031166666867,
          "durationTicks": 439,
          "midi": 81,
          "name": "A5",
          "ticks": 56160,
          "time": 194.999688,
          "velocity": 0.6299212598425197
        },
        {
          "duration": 1.5104142499999966,
          "durationTicks": 435,
          "midi": 77,
          "name": "F5",
          "ticks": 56160,
          "time": 194.999688,
          "velocity": 0.6692913385826772
        },
        {
          "duration": 1.472219866666677,
          "durationTicks": 424,
          "midi": 74,
          "name": "D5",
          "ticks": 56640,
          "time": 196.666352,
          "velocity": 0.3858267716535433
        },
        {
          "duration": 1.4826365166666733,
          "durationTicks": 427,
          "midi": 79,
          "name": "G5",
          "ticks": 56640,
          "time": 196.666352,
          "velocity": 0.5984251968503937
        },
        {
          "duration": 1.4791643000000079,
          "durationTicks": 426,
          "midi": 83,
          "name": "B5",
          "ticks": 56640,
          "time": 196.666352,
          "velocity": 0.7007874015748031
        },
        {
          "duration": 0.15624975000000063,
          "durationTicks": 45,
          "midi": 65,
          "name": "F4",
          "ticks": 57120,
          "time": 198.333016,
          "velocity": 0.937007874015748
        },
        {
          "duration": 0.1701386166666623,
          "durationTicks": 49,
          "midi": 69,
          "name": "A4",
          "ticks": 57160,
          "time": 198.47190466666666,
          "velocity": 0.5354330708661418
        },
        {
          "duration": 0.1284720166666773,
          "durationTicks": 37,
          "midi": 70,
          "name": "A#4",
          "ticks": 57200,
          "time": 198.61079333333333,
          "velocity": 0.7716535433070866
        },
        {
          "duration": 0.18055526666668698,
          "durationTicks": 52,
          "midi": 74,
          "name": "D5",
          "ticks": 57240,
          "time": 198.74968199999998,
          "velocity": 0.8031496062992126
        },
        {
          "duration": 0.11458315000001562,
          "durationTicks": 33,
          "midi": 70,
          "name": "A#4",
          "ticks": 57280,
          "time": 198.88857066666665,
          "velocity": 0.84251968503937
        },
        {
          "duration": 0.0937498499999947,
          "durationTicks": 27,
          "midi": 69,
          "name": "A4",
          "ticks": 57320,
          "time": 199.02745933333333,
          "velocity": 0.889763779527559
        },
        {
          "duration": 0.14236088333331054,
          "durationTicks": 41,
          "midi": 69,
          "name": "A4",
          "ticks": 57360,
          "time": 199.166348,
          "velocity": 0.937007874015748
        },
        {
          "duration": 0.15624975000000063,
          "durationTicks": 45,
          "midi": 73,
          "name": "C#5",
          "ticks": 57400,
          "time": 199.30523666666664,
          "velocity": 0.84251968503937
        },
        {
          "duration": 0.1284720166666773,
          "durationTicks": 37,
          "midi": 76,
          "name": "E5",
          "ticks": 57440,
          "time": 199.44412533333332,
          "velocity": 0.8031496062992126
        },
        {
          "duration": 0.1493053166666698,
          "durationTicks": 43,
          "midi": 74,
          "name": "D5",
          "ticks": 57480,
          "time": 199.583014,
          "velocity": 0.5039370078740157
        },
        {
          "duration": 0.16319418333333147,
          "durationTicks": 47,
          "midi": 86,
          "name": "D6",
          "ticks": 57480,
          "time": 199.583014,
          "velocity": 0.8031496062992126
        },
        {
          "duration": 0.17013861666669072,
          "durationTicks": 49,
          "midi": 81,
          "name": "A5",
          "ticks": 57480,
          "time": 199.583014,
          "velocity": 0.7716535433070866
        },
        {
          "duration": 0.1909719166666548,
          "durationTicks": 55,
          "midi": 81,
          "name": "A5",
          "ticks": 57560,
          "time": 199.86079133333334,
          "velocity": 0.8031496062992126
        },
        {
          "duration": 0.1736108333332993,
          "durationTicks": 50,
          "midi": 86,
          "name": "D6",
          "ticks": 57560,
          "time": 199.86079133333334,
          "velocity": 0.889763779527559
        },
        {
          "duration": 0.1909719166666548,
          "durationTicks": 55,
          "midi": 74,
          "name": "D5",
          "ticks": 57560,
          "time": 199.86079133333334,
          "velocity": 0.6692913385826772
        }
      ]
    },
    {
      "channel": 9,
      "controlChanges": {
        "7": [
          {
            "number": 7,
            "ticks": 0,
            "time": 0,
            "value": 0.952755905511811
          }
        ],
        "10": [
          {
            "number": 10,
            "ticks": 0,
            "time": 0,
            "value": 0.5275590551181102
          }
        ],
        "91": [
          {
            "number": 91,
            "ticks": 0,
            "time": 0,
            "value": 0.7401574803149606
          }
        ],
        "93": [
          {
            "number": 93,
            "ticks": 0,
            "time": 0,
            "value": 0.41732283464566927
          }
        ]
      },
      "pitchBends": [],
      "instrument": {
        "family": "drums",
        "number": 0,
        "name": "standard kit"
      },
      "name": "",
      "notes": [
        {
          "duration": 0.01041665,
          "durationTicks": 3,
          "midi": 42,
          "name": "F#2",
          "ticks": 2,
          "time": 0.006944433333333333,
          "velocity": 1
        },
        {
          "duration": 0.013888866666666722,
          "durationTicks": 4,
          "midi": 42,
          "name": "F#2",
          "ticks": 121,
          "time": 0.4201382166666666,
          "velocity": 1
        },
        {
          "duration": 0.013888866666666666,
          "durationTicks": 4,
          "midi": 42,
          "name": "F#2",
          "ticks": 241,
          "time": 0.8368042166666666,
          "velocity": 1
        },
        {
          "duration": 0.013888866666666555,
          "durationTicks": 4,
          "midi": 42,
          "name": "F#2",
          "ticks": 361,
          "time": 1.2534702166666667,
          "velocity": 1
        },
        {
          "duration": 0.013888866666666555,
          "durationTicks": 4,
          "midi": 38,
          "name": "D2",
          "ticks": 401,
          "time": 1.3923588833333334,
          "velocity": 0.3228346456692913
        },
        {
          "duration": 0.013888866666666555,
          "durationTicks": 4,
          "midi": 38,
          "name": "D2",
          "ticks": 421,
          "time": 1.4618032166666666,
          "velocity": 0.5590551181102362
        },
        {
          "duration": 0.013888866666666777,
          "durationTicks": 4,
          "midi": 38,
          "name": "D2",
          "ticks": 441,
          "time": 1.5312475499999998,
          "velocity": 1
        },
        {
          "duration": 0.013888866666666777,
          "durationTicks": 4,
          "midi": 38,
          "name": "D2",
          "ticks": 481,
          "time": 1.6701362166666667,
          "velocity": 1
        },
        {
          "duration": 0.013888866666666777,
          "durationTicks": 4,
          "midi": 46,
          "name": "A#2",
          "ticks": 481,
          "time": 1.6701362166666667,
          "velocity": 1
        },
        {
          "duration": 0.013888866666666555,
          "durationTicks": 4,
          "midi": 38,
          "name": "D2",
          "ticks": 521,
          "time": 1.8090248833333333,
          "velocity": 0.5590551181102362
        },
        {
          "duration": 0.013888866666666777,
          "durationTicks": 4,
          "midi": 41,
          "name": "F2",
          "ticks": 561,
          "time": 1.9479135499999998,
          "velocity": 1
        },
        {
          "duration": 0.013888866666666555,
          "durationTicks": 4,
          "midi": 36,
          "name": "C2",
          "ticks": 601,
          "time": 2.086802216666667,
          "velocity": 1
        },
        {
          "duration": 0.013888866666666555,
          "durationTicks": 4,
          "midi": 38,
          "name": "D2",
          "ticks": 601,
          "time": 2.086802216666667,
          "velocity": 0.5590551181102362
        },
        {
          "duration": 0.013888866666666555,
          "durationTicks": 4,
          "midi": 45,
          "name": "A2",
          "ticks": 641,
          "time": 2.2256908833333333,
          "velocity": 1
        },
        {
          "duration": 0.013888866666666555,
          "durationTicks": 4,
          "midi": 38,
          "name": "D2",
          "ticks": 681,
          "time": 2.3645795499999998,
          "velocity": 0.5590551181102362
        },
        {
          "duration": 0.013888866666666555,
          "durationTicks": 4,
          "midi": 36,
          "name": "C2",
          "ticks": 721,
          "time": 2.5034682166666666,
          "velocity": 1
        },
        {
          "duration": 0.013888866666666555,
          "durationTicks": 4,
          "midi": 48,
          "name": "C3",
          "ticks": 721,
          "time": 2.5034682166666666,
          "velocity": 1
        },
        {
          "duration": 0.013888866666666999,
          "durationTicks": 4,
          "midi": 38,
          "name": "D2",
          "ticks": 761,
          "time": 2.642356883333333,
          "velocity": 0.3228346456692913
        },
        {
          "duration": 0.013888866666666555,
          "durationTicks": 4,
          "midi": 38,
          "name": "D2",
          "ticks": 801,
          "time": 2.78124555,
          "velocity": 0.5590551181102362
        },
        {
          "duration": 0.013888866666666555,
          "durationTicks": 4,
          "midi": 36,
          "name": "C2",
          "ticks": 841,
          "time": 2.920134216666667,
          "velocity": 1
        },
        {
          "duration": 0.013888866666666555,
          "durationTicks": 4,
          "midi": 38,
          "name": "D2",
          "ticks": 841,
          "time": 2.920134216666667,
          "velocity": 0.3228346456692913
        },
        {
          "duration": 0.017361083333333305,
          "durationTicks": 5,
          "midi": 38,
          "name": "D2",
          "ticks": 881,
          "time": 3.0590228833333333,
          "velocity": 1
        },
        {
          "duration": 0.013888866666666555,
          "durationTicks": 4,
          "midi": 38,
          "name": "D2",
          "ticks": 921,
          "time": 3.1979115499999997,
          "velocity": 1
        },
        {
          "duration": 0.017361083333334193,
          "durationTicks": 5,
          "midi": 36,
          "name": "C2",
          "ticks": 961,
          "time": 3.336800216666666,
          "velocity": 1
        },
        {
          "duration": 0.013888866666666999,
          "durationTicks": 4,
          "midi": 42,
          "name": "F#2",
          "ticks": 961,
          "time": 3.336800216666666,
          "velocity": 1
        },
        {
          "duration": 0.013888866666666999,
          "durationTicks": 4,
          "midi": 49,
          "name": "C#3",
          "ticks": 961,
          "time": 3.336800216666666,
          "velocity": 1
        },
        {
          "duration": 0.013888866666666999,
          "durationTicks": 4,
          "midi": 42,
          "name": "F#2",
          "ticks": 1041,
          "time": 3.61457755,
          "velocity": 0.5590551181102362
        },
        {
          "duration": 0.013888866666666555,
          "durationTicks": 4,
          "midi": 36,
          "name": "C2",
          "ticks": 1081,
          "time": 3.7534662166666664,
          "velocity": 1
        },
        {
          "duration": 0.013888866666666555,
          "durationTicks": 4,
          "midi": 38,
          "name": "D2",
          "ticks": 1081,
          "time": 3.7534662166666664,
          "velocity": 1
        },
        {
          "duration": 0.013888866666666555,
          "durationTicks": 4,
          "midi": 42,
          "name": "F#2",
          "ticks": 1081,
          "time": 3.7534662166666664,
          "velocity": 1
        },
        {
          "duration": 0.013888866666666999,
          "durationTicks": 4,
          "midi": 46,
          "name": "A#2",
          "ticks": 1161,
          "time": 4.03124355,
          "velocity": 1
        },
        {
          "duration": 0.013888866666666111,
          "durationTicks": 4,
          "midi": 36,
          "name": "C2",
          "ticks": 1201,
          "time": 4.170132216666667,
          "velocity": 1
        },
        {
          "duration": 0.013888866666666111,
          "durationTicks": 4,
          "midi": 42,
          "name": "F#2",
          "ticks": 1201,
          "time": 4.170132216666667,
          "velocity": 1
        },
        {
          "duration": 0.013888866666666111,
          "durationTicks": 4,
          "midi": 42,
          "name": "F#2",
          "ticks": 1281,
          "time": 4.44790955,
          "velocity": 0.5590551181102362
        },
        {
          "duration": 0.017361083333334193,
          "durationTicks": 5,
          "midi": 36,
          "name": "C2",
          "ticks": 1321,
          "time": 4.586798216666666,
          "velocity": 1
        },
        {
          "duration": 0.013888866666666999,
          "durationTicks": 4,
          "midi": 38,
          "name": "D2",
          "ticks": 1321,
          "time": 4.586798216666666,
          "velocity": 1
        },
        {
          "duration": 0.013888866666666999,
          "durationTicks": 4,
          "midi": 42,
          "name": "F#2",
          "ticks": 1321,
          "time": 4.586798216666666,
          "velocity": 1
        },
        {
          "duration": 0.013888866666666999,
          "durationTicks": 4,
          "midi": 42,
          "name": "F#2",
          "ticks": 1401,
          "time": 4.86457555,
          "velocity": 0.5590551181102362
        },
        {
          "duration": 0.013888866666666999,
          "durationTicks": 4,
          "midi": 36,
          "name": "C2",
          "ticks": 1441,
          "time": 5.003464216666666,
          "velocity": 1
        },
        {
          "duration": 0.013888866666666999,
          "durationTicks": 4,
          "midi": 42,
          "name": "F#2",
          "ticks": 1441,
          "time": 5.003464216666666,
          "velocity": 1
        },
        {
          "duration": 0.013888866666666999,
          "durationTicks": 4,
          "midi": 42,
          "name": "F#2",
          "ticks": 1521,
          "time": 5.28124155,
          "velocity": 0.5590551181102362
        },
        {
          "duration": 0.017361083333334193,
          "durationTicks": 5,
          "midi": 36,
          "name": "C2",
          "ticks": 1561,
          "time": 5.420130216666666,
          "velocity": 1
        },
        {
          "duration": 0.013888866666666999,
          "durationTicks": 4,
          "midi": 38,
          "name": "D2",
          "ticks": 1561,
          "time": 5.420130216666666,
          "velocity": 1
        },
        {
          "duration": 0.013888866666666999,
          "durationTicks": 4,
          "midi": 42,
          "name": "F#2",
          "ticks": 1561,
          "time": 5.420130216666666,
          "velocity": 1
        },
        {
          "duration": 0.013888866666666999,
          "durationTicks": 4,
          "midi": 42,
          "name": "F#2",
          "ticks": 1641,
          "time": 5.69790755,
          "velocity": 0.5590551181102362
        },
        {
          "duration": 0.013888866666666111,
          "durationTicks": 4,
          "midi": 36,
          "name": "C2",
          "ticks": 1681,
          "time": 5.8367962166666665,
          "velocity": 1
        },
        {
          "duration": 0.013888866666666111,
          "durationTicks": 4,
          "midi": 49,
          "name": "C#3",
          "ticks": 1681,
          "time": 5.8367962166666665,
          "velocity": 1
        },
        {
          "duration": 0.013888866666666111,
          "durationTicks": 4,
          "midi": 46,
          "name": "A#2",
          "ticks": 1681,
          "time": 5.8367962166666665,
          "velocity": 1
        },
        {
          "duration": 0.013888866666666111,
          "durationTicks": 4,
          "midi": 42,
          "name": "F#2",
          "ticks": 1761,
          "time": 6.11457355,
          "velocity": 0.5590551181102362
        },
        {
          "duration": 0.013888866666666999,
          "durationTicks": 4,
          "midi": 36,
          "name": "C2",
          "ticks": 1801,
          "time": 6.253462216666666,
          "velocity": 1
        },
        {
          "duration": 0.013888866666666999,
          "durationTicks": 4,
          "midi": 38,
          "name": "D2",
          "ticks": 1801,
          "time": 6.253462216666666,
          "velocity": 1
        },
        {
          "duration": 0.013888866666666999,
          "durationTicks": 4,
          "midi": 46,
          "name": "A#2",
          "ticks": 1801,
          "time": 6.253462216666666,
          "velocity": 1
        },
        {
          "duration": 0.013888866666666999,
          "durationTicks": 4,
          "midi": 49,
          "name": "C#3",
          "ticks": 1802,
          "time": 6.256934433333333,
          "velocity": 1
        },
        {
          "duration": 0.013888866666666999,
          "durationTicks": 4,
          "midi": 42,
          "name": "F#2",
          "ticks": 1881,
          "time": 6.53123955,
          "velocity": 0.5590551181102362
        },
        {
          "duration": 0.013888866666667887,
          "durationTicks": 4,
          "midi": 36,
          "name": "C2",
          "ticks": 1921,
          "time": 6.670128216666666,
          "velocity": 1
        },
        {
          "duration": 0.013888866666667887,
          "durationTicks": 4,
          "midi": 42,
          "name": "F#2",
          "ticks": 1921,
          "time": 6.670128216666666,
          "velocity": 1
        },
        {
          "duration": 0.013888866666666111,
          "durationTicks": 4,
          "midi": 42,
          "name": "F#2",
          "ticks": 2001,
          "time": 6.94790555,
          "velocity": 0.5590551181102362
        },
        {
          "duration": 0.013888866666666999,
          "durationTicks": 4,
          "midi": 36,
          "name": "C2",
          "ticks": 2041,
          "time": 7.086794216666666,
          "velocity": 1
        },
        {
          "duration": 0.013888866666666999,
          "durationTicks": 4,
          "midi": 38,
          "name": "D2",
          "ticks": 2041,
          "time": 7.086794216666666,
          "velocity": 1
        },
        {
          "duration": 0.013888866666666999,
          "durationTicks": 4,
          "midi": 42,
          "name": "F#2",
          "ticks": 2041,
          "time": 7.086794216666666,
          "velocity": 1
        },
        {
          "duration": 0.013888866666666111,
          "durationTicks": 4,
          "midi": 46,
          "name": "A#2",
          "ticks": 2121,
          "time": 7.36457155,
          "velocity": 1
        },
        {
          "duration": 0.013888866666666999,
          "durationTicks": 4,
          "midi": 36,
          "name": "C2",
          "ticks": 2161,
          "time": 7.503460216666666,
          "velocity": 1
        },
        {
          "duration": 0.013888866666666999,
          "durationTicks": 4,
          "midi": 42,
          "name": "F#2",
          "ticks": 2161,
          "time": 7.503460216666666,
          "velocity": 1
        },
        {
          "duration": 0.013888866666665223,
          "durationTicks": 4,
          "midi": 42,
          "name": "F#2",
          "ticks": 2241,
          "time": 7.78123755,
          "velocity": 0.5590551181102362
        },
        {
          "duration": 0.017361083333334193,
          "durationTicks": 5,
          "midi": 36,
          "name": "C2",
          "ticks": 2281,
          "time": 7.920126216666666,
          "velocity": 1
        },
        {
          "duration": 0.013888866666667887,
          "durationTicks": 4,
          "midi": 38,
          "name": "D2",
          "ticks": 2281,
          "time": 7.920126216666666,
          "velocity": 1
        },
        {
          "duration": 0.013888866666667887,
          "durationTicks": 4,
          "midi": 42,
          "name": "F#2",
          "ticks": 2281,
          "time": 7.920126216666666,
          "velocity": 1
        },
        {
          "duration": 0.013888866666666999,
          "durationTicks": 4,
          "midi": 42,
          "name": "F#2",
          "ticks": 2361,
          "time": 8.19790355,
          "velocity": 0.5590551181102362
        },
        {
          "duration": 0.013888866666666999,
          "durationTicks": 4,
          "midi": 36,
          "name": "C2",
          "ticks": 2401,
          "time": 8.336792216666666,
          "velocity": 1
        },
        {
          "duration": 0.013888866666666999,
          "durationTicks": 4,
          "midi": 42,
          "name": "F#2",
          "ticks": 2401,
          "time": 8.336792216666666,
          "velocity": 1
        },
        {
          "duration": 0.013888866666665223,
          "durationTicks": 4,
          "midi": 42,
          "name": "F#2",
          "ticks": 2481,
          "time": 8.61456955,
          "velocity": 0.5590551181102362
        },
        {
          "duration": 0.013888866666668775,
          "durationTicks": 4,
          "midi": 36,
          "name": "C2",
          "ticks": 2521,
          "time": 8.753458216666665,
          "velocity": 1
        },
        {
          "duration": 0.013888866666668775,
          "durationTicks": 4,
          "midi": 38,
          "name": "D2",
          "ticks": 2521,
          "time": 8.753458216666665,
          "velocity": 1
        },
        {
          "duration": 0.013888866666668775,
          "durationTicks": 4,
          "midi": 42,
          "name": "F#2",
          "ticks": 2521,
          "time": 8.753458216666665,
          "velocity": 1
        },
        {
          "duration": 0.013888866666665223,
          "durationTicks": 4,
          "midi": 38,
          "name": "D2",
          "ticks": 2601,
          "time": 9.03123555,
          "velocity": 1
        },
        {
          "duration": 0.013888866666665223,
          "durationTicks": 4,
          "midi": 42,
          "name": "F#2",
          "ticks": 2601,
          "time": 9.03123555,
          "velocity": 0.5590551181102362
        },
        {
          "duration": 0.013888866666666999,
          "durationTicks": 4,
          "midi": 36,
          "name": "C2",
          "ticks": 2641,
          "time": 9.170124216666666,
          "velocity": 1
        },
        {
          "duration": 0.013888866666666999,
          "durationTicks": 4,
          "midi": 46,
          "name": "A#2",
          "ticks": 2641,
          "time": 9.170124216666666,
          "velocity": 1
        },
        {
          "duration": 0.013888866666668775,
          "durationTicks": 4,
          "midi": 49,
          "name": "C#3",
          "ticks": 2642,
          "time": 9.173596433333332,
          "velocity": 1
        },
        {
          "duration": 0.013888866666666999,
          "durationTicks": 4,
          "midi": 42,
          "name": "F#2",
          "ticks": 2721,
          "time": 9.44790155,
          "velocity": 0.5590551181102362
        },
        {
          "duration": 0.013888866666666999,
          "durationTicks": 4,
          "midi": 36,
          "name": "C2",
          "ticks": 2761,
          "time": 9.586790216666666,
          "velocity": 1
        },
        {
          "duration": 0.013888866666666999,
          "durationTicks": 4,
          "midi": 38,
          "name": "D2",
          "ticks": 2761,
          "time": 9.586790216666666,
          "velocity": 1
        },
        {
          "duration": 0.013888866666666999,
          "durationTicks": 4,
          "midi": 46,
          "name": "A#2",
          "ticks": 2761,
          "time": 9.586790216666666,
          "velocity": 1
        },
        {
          "duration": 0.013888866666666999,
          "durationTicks": 4,
          "midi": 49,
          "name": "C#3",
          "ticks": 2762,
          "time": 9.590262433333333,
          "velocity": 1
        },
        {
          "duration": 0.013888866666665223,
          "durationTicks": 4,
          "midi": 42,
          "name": "F#2",
          "ticks": 2841,
          "time": 9.86456755,
          "velocity": 0.5590551181102362
        },
        {
          "duration": 0.013888866666666999,
          "durationTicks": 4,
          "midi": 36,
          "name": "C2",
          "ticks": 2881,
          "time": 10.003456216666667,
          "velocity": 1
        },
        {
          "duration": 0.013888866666666999,
          "durationTicks": 4,
          "midi": 42,
          "name": "F#2",
          "ticks": 2881,
          "time": 10.003456216666667,
          "velocity": 1
        },
        {
          "duration": 0.013888866666666999,
          "durationTicks": 4,
          "midi": 49,
          "name": "C#3",
          "ticks": 2881,
          "time": 10.003456216666667,
          "velocity": 1
        },
        {
          "duration": 0.013888866666665223,
          "durationTicks": 4,
          "midi": 42,
          "name": "F#2",
          "ticks": 2961,
          "time": 10.28123355,
          "velocity": 0.5590551181102362
        },
        {
          "duration": 0.013888866666666999,
          "durationTicks": 4,
          "midi": 36,
          "name": "C2",
          "ticks": 3001,
          "time": 10.420122216666666,
          "velocity": 1
        },
        {
          "duration": 0.013888866666666999,
          "durationTicks": 4,
          "midi": 38,
          "name": "D2",
          "ticks": 3001,
          "time": 10.420122216666666,
          "velocity": 1
        },
        {
          "duration": 0.013888866666666999,
          "durationTicks": 4,
          "midi": 42,
          "name": "F#2",
          "ticks": 3001,
          "time": 10.420122216666666,
          "velocity": 1
        },
        {
          "duration": 0.013888866666666999,
          "durationTicks": 4,
          "midi": 46,
          "name": "A#2",
          "ticks": 3081,
          "time": 10.697899549999999,
          "velocity": 1
        },
        {
          "duration": 0.017361083333334193,
          "durationTicks": 5,
          "midi": 36,
          "name": "C2",
          "ticks": 3121,
          "time": 10.836788216666665,
          "velocity": 1
        },
        {
          "duration": 0.013888866666668775,
          "durationTicks": 4,
          "midi": 42,
          "name": "F#2",
          "ticks": 3121,
          "time": 10.836788216666665,
          "velocity": 1
        },
        {
          "duration": 0.013888866666665223,
          "durationTicks": 4,
          "midi": 42,
          "name": "F#2",
          "ticks": 3201,
          "time": 11.11456555,
          "velocity": 0.5590551181102362
        },
        {
          "duration": 0.013888866666666999,
          "durationTicks": 4,
          "midi": 36,
          "name": "C2",
          "ticks": 3241,
          "time": 11.253454216666666,
          "velocity": 1
        },
        {
          "duration": 0.013888866666666999,
          "durationTicks": 4,
          "midi": 38,
          "name": "D2",
          "ticks": 3241,
          "time": 11.253454216666666,
          "velocity": 1
        },
        {
          "duration": 0.013888866666666999,
          "durationTicks": 4,
          "midi": 42,
          "name": "F#2",
          "ticks": 3241,
          "time": 11.253454216666666,
          "velocity": 1
        },
        {
          "duration": 0.013888866666666999,
          "durationTicks": 4,
          "midi": 42,
          "name": "F#2",
          "ticks": 3321,
          "time": 11.53123155,
          "velocity": 0.5590551181102362
        },
        {
          "duration": 0.013888866666666999,
          "durationTicks": 4,
          "midi": 36,
          "name": "C2",
          "ticks": 3361,
          "time": 11.670120216666666,
          "velocity": 1
        },
        {
          "duration": 0.013888866666666999,
          "durationTicks": 4,
          "midi": 42,
          "name": "F#2",
          "ticks": 3361,
          "time": 11.670120216666666,
          "velocity": 1
        },
        {
          "duration": 0.013888866666665223,
          "durationTicks": 4,
          "midi": 42,
          "name": "F#2",
          "ticks": 3441,
          "time": 11.94789755,
          "velocity": 0.5590551181102362
        },
        {
          "duration": 0.017361083333334193,
          "durationTicks": 5,
          "midi": 36,
          "name": "C2",
          "ticks": 3481,
          "time": 12.086786216666665,
          "velocity": 1
        },
        {
          "duration": 0.013888866666668775,
          "durationTicks": 4,
          "midi": 38,
          "name": "D2",
          "ticks": 3481,
          "time": 12.086786216666665,
          "velocity": 1
        },
        {
          "duration": 0.013888866666668775,
          "durationTicks": 4,
          "midi": 42,
          "name": "F#2",
          "ticks": 3481,
          "time": 12.086786216666665,
          "velocity": 1
        },
        {
          "duration": 0.013888866666665223,
          "durationTicks": 4,
          "midi": 42,
          "name": "F#2",
          "ticks": 3561,
          "time": 12.36456355,
          "velocity": 0.5590551181102362
        },
        {
          "duration": 0.013888866666666999,
          "durationTicks": 4,
          "midi": 36,
          "name": "C2",
          "ticks": 3601,
          "time": 12.503452216666666,
          "velocity": 1
        },
        {
          "duration": 0.013888866666666999,
          "durationTicks": 4,
          "midi": 49,
          "name": "C#3",
          "ticks": 3601,
          "time": 12.503452216666666,
          "velocity": 1
        },
        {
          "duration": 0.013888866666666999,
          "durationTicks": 4,
          "midi": 46,
          "name": "A#2",
          "ticks": 3601,
          "time": 12.503452216666666,
          "velocity": 1
        },
        {
          "duration": 0.013888866666666999,
          "durationTicks": 4,
          "midi": 42,
          "name": "F#2",
          "ticks": 3681,
          "time": 12.781229549999999,
          "velocity": 0.5590551181102362
        },
        {
          "duration": 0.013888866666666999,
          "durationTicks": 4,
          "midi": 36,
          "name": "C2",
          "ticks": 3721,
          "time": 12.920118216666665,
          "velocity": 1
        },
        {
          "duration": 0.013888866666666999,
          "durationTicks": 4,
          "midi": 38,
          "name": "D2",
          "ticks": 3721,
          "time": 12.920118216666665,
          "velocity": 1
        },
        {
          "duration": 0.013888866666666999,
          "durationTicks": 4,
          "midi": 46,
          "name": "A#2",
          "ticks": 3721,
          "time": 12.920118216666665,
          "velocity": 1
        },
        {
          "duration": 0.013888866666666999,
          "durationTicks": 4,
          "midi": 49,
          "name": "C#3",
          "ticks": 3722,
          "time": 12.923590433333333,
          "velocity": 1
        },
        {
          "duration": 0.013888866666665223,
          "durationTicks": 4,
          "midi": 42,
          "name": "F#2",
          "ticks": 3801,
          "time": 13.19789555,
          "velocity": 0.5590551181102362
        },
        {
          "duration": 0.013888866666665223,
          "durationTicks": 4,
          "midi": 36,
          "name": "C2",
          "ticks": 3841,
          "time": 13.336784216666667,
          "velocity": 1
        },
        {
          "duration": 0.013888866666665223,
          "durationTicks": 4,
          "midi": 42,
          "name": "F#2",
          "ticks": 3841,
          "time": 13.336784216666667,
          "velocity": 1
        },
        {
          "duration": 0.013888866666665223,
          "durationTicks": 4,
          "midi": 49,
          "name": "C#3",
          "ticks": 3841,
          "time": 13.336784216666667,
          "velocity": 1
        },
        {
          "duration": 0.013888866666668775,
          "durationTicks": 4,
          "midi": 42,
          "name": "F#2",
          "ticks": 3921,
          "time": 13.614561549999998,
          "velocity": 0.5590551181102362
        },
        {
          "duration": 0.017361083333332417,
          "durationTicks": 5,
          "midi": 36,
          "name": "C2",
          "ticks": 3961,
          "time": 13.753450216666666,
          "velocity": 1
        },
        {
          "duration": 0.013888866666665223,
          "durationTicks": 4,
          "midi": 38,
          "name": "D2",
          "ticks": 3961,
          "time": 13.753450216666666,
          "velocity": 1
        },
        {
          "duration": 0.013888866666665223,
          "durationTicks": 4,
          "midi": 42,
          "name": "F#2",
          "ticks": 3961,
          "time": 13.753450216666666,
          "velocity": 1
        },
        {
          "duration": 0.013888866666668775,
          "durationTicks": 4,
          "midi": 46,
          "name": "A#2",
          "ticks": 4041,
          "time": 14.031227549999999,
          "velocity": 1
        },
        {
          "duration": 0.013888866666666999,
          "durationTicks": 4,
          "midi": 36,
          "name": "C2",
          "ticks": 4081,
          "time": 14.170116216666665,
          "velocity": 1
        },
        {
          "duration": 0.013888866666666999,
          "durationTicks": 4,
          "midi": 42,
          "name": "F#2",
          "ticks": 4081,
          "time": 14.170116216666665,
          "velocity": 1
        },
        {
          "duration": 0.013888866666668775,
          "durationTicks": 4,
          "midi": 42,
          "name": "F#2",
          "ticks": 4161,
          "time": 14.447893549999998,
          "velocity": 0.5590551181102362
        },
        {
          "duration": 0.017361083333332417,
          "durationTicks": 5,
          "midi": 36,
          "name": "C2",
          "ticks": 4201,
          "time": 14.586782216666666,
          "velocity": 1
        },
        {
          "duration": 0.013888866666665223,
          "durationTicks": 4,
          "midi": 38,
          "name": "D2",
          "ticks": 4201,
          "time": 14.586782216666666,
          "velocity": 1
        },
        {
          "duration": 0.013888866666665223,
          "durationTicks": 4,
          "midi": 42,
          "name": "F#2",
          "ticks": 4201,
          "time": 14.586782216666666,
          "velocity": 1
        },
        {
          "duration": 0.013888866666668775,
          "durationTicks": 4,
          "midi": 42,
          "name": "F#2",
          "ticks": 4281,
          "time": 14.864559549999997,
          "velocity": 0.5590551181102362
        },
        {
          "duration": 0.013888866666665223,
          "durationTicks": 4,
          "midi": 36,
          "name": "C2",
          "ticks": 4321,
          "time": 15.003448216666666,
          "velocity": 1
        },
        {
          "duration": 0.013888866666665223,
          "durationTicks": 4,
          "midi": 42,
          "name": "F#2",
          "ticks": 4321,
          "time": 15.003448216666666,
          "velocity": 1
        },
        {
          "duration": 0.013888866666668775,
          "durationTicks": 4,
          "midi": 42,
          "name": "F#2",
          "ticks": 4401,
          "time": 15.281225549999998,
          "velocity": 0.5590551181102362
        },
        {
          "duration": 0.013888866666666999,
          "durationTicks": 4,
          "midi": 36,
          "name": "C2",
          "ticks": 4441,
          "time": 15.420114216666665,
          "velocity": 1
        },
        {
          "duration": 0.013888866666666999,
          "durationTicks": 4,
          "midi": 38,
          "name": "D2",
          "ticks": 4441,
          "time": 15.420114216666665,
          "velocity": 1
        },
        {
          "duration": 0.013888866666666999,
          "durationTicks": 4,
          "midi": 42,
          "name": "F#2",
          "ticks": 4441,
          "time": 15.420114216666665,
          "velocity": 1
        },
        {
          "duration": 0.017361083333332417,
          "durationTicks": 5,
          "midi": 38,
          "name": "D2",
          "ticks": 4481,
          "time": 15.559002883333333,
          "velocity": 0.3228346456692913
        },
        {
          "duration": 0.01736108333333597,
          "durationTicks": 5,
          "midi": 38,
          "name": "D2",
          "ticks": 4521,
          "time": 15.697891549999998,
          "velocity": 1
        },
        {
          "duration": 0.013888866666668775,
          "durationTicks": 4,
          "midi": 42,
          "name": "F#2",
          "ticks": 4521,
          "time": 15.697891549999998,
          "velocity": 0.5590551181102362
        },
        {
          "duration": 0.017361083333332417,
          "durationTicks": 5,
          "midi": 36,
          "name": "C2",
          "ticks": 4561,
          "time": 15.836780216666666,
          "velocity": 1
        },
        {
          "duration": 0.013888866666665223,
          "durationTicks": 4,
          "midi": 38,
          "name": "D2",
          "ticks": 4561,
          "time": 15.836780216666666,
          "velocity": 0.3228346456692913
        },
        {
          "duration": 0.013888866666665223,
          "durationTicks": 4,
          "midi": 49,
          "name": "C#3",
          "ticks": 4561,
          "time": 15.836780216666666,
          "velocity": 1
        },
        {
          "duration": 0.013888866666665223,
          "durationTicks": 4,
          "midi": 46,
          "name": "A#2",
          "ticks": 4561,
          "time": 15.836780216666666,
          "velocity": 1
        },
        {
          "duration": 0.013888866666665223,
          "durationTicks": 4,
          "midi": 38,
          "name": "D2",
          "ticks": 4601,
          "time": 15.975668883333334,
          "velocity": 0.5590551181102362
        },
        {
          "duration": 0.017361083333337746,
          "durationTicks": 5,
          "midi": 38,
          "name": "D2",
          "ticks": 4641,
          "time": 16.114557549999997,
          "velocity": 0.3228346456692913
        },
        {
          "duration": 0.013888866666668775,
          "durationTicks": 4,
          "midi": 42,
          "name": "F#2",
          "ticks": 4641,
          "time": 16.114557549999997,
          "velocity": 0.5590551181102362
        },
        {
          "duration": 0.013888866666665223,
          "durationTicks": 4,
          "midi": 36,
          "name": "C2",
          "ticks": 4681,
          "time": 16.253446216666667,
          "velocity": 1
        },
        {
          "duration": 0.013888866666665223,
          "durationTicks": 4,
          "midi": 38,
          "name": "D2",
          "ticks": 4681,
          "time": 16.253446216666667,
          "velocity": 1
        },
        {
          "duration": 0.013888866666665223,
          "durationTicks": 4,
          "midi": 49,
          "name": "C#3",
          "ticks": 4681,
          "time": 16.253446216666667,
          "velocity": 1
        },
        {
          "duration": 0.013888866666665223,
          "durationTicks": 4,
          "midi": 46,
          "name": "A#2",
          "ticks": 4681,
          "time": 16.253446216666667,
          "velocity": 1
        },
        {
          "duration": 0.013888866666665223,
          "durationTicks": 4,
          "midi": 38,
          "name": "D2",
          "ticks": 4721,
          "time": 16.392334883333334,
          "velocity": 1
        },
        {
          "duration": 0.017361083333337746,
          "durationTicks": 5,
          "midi": 38,
          "name": "D2",
          "ticks": 4761,
          "time": 16.531223549999996,
          "velocity": 1
        },
        {
          "duration": 0.013888866666668775,
          "durationTicks": 4,
          "midi": 42,
          "name": "F#2",
          "ticks": 4761,
          "time": 16.531223549999996,
          "velocity": 0.5590551181102362
        },
        {
          "duration": 0.013888866666665223,
          "durationTicks": 4,
          "midi": 36,
          "name": "C2",
          "ticks": 4801,
          "time": 16.670112216666666,
          "velocity": 1
        },
        {
          "duration": 0.013888866666665223,
          "durationTicks": 4,
          "midi": 42,
          "name": "F#2",
          "ticks": 4801,
          "time": 16.670112216666666,
          "velocity": 1
        },
        {
          "duration": 0.013888866666665223,
          "durationTicks": 4,
          "midi": 49,
          "name": "C#3",
          "ticks": 4801,
          "time": 16.670112216666666,
          "velocity": 1
        },
        {
          "duration": 0.013888866666668775,
          "durationTicks": 4,
          "midi": 42,
          "name": "F#2",
          "ticks": 4881,
          "time": 16.94788955,
          "velocity": 0.5590551181102362
        },
        {
          "duration": 0.013888866666665223,
          "durationTicks": 4,
          "midi": 36,
          "name": "C2",
          "ticks": 4921,
          "time": 17.086778216666666,
          "velocity": 1
        },
        {
          "duration": 0.013888866666665223,
          "durationTicks": 4,
          "midi": 38,
          "name": "D2",
          "ticks": 4921,
          "time": 17.086778216666666,
          "velocity": 1
        },
        {
          "duration": 0.013888866666665223,
          "durationTicks": 4,
          "midi": 42,
          "name": "F#2",
          "ticks": 4921,
          "time": 17.086778216666666,
          "velocity": 1
        },
        {
          "duration": 0.013888866666668775,
          "durationTicks": 4,
          "midi": 46,
          "name": "A#2",
          "ticks": 5001,
          "time": 17.36455555,
          "velocity": 1
        },
        {
          "duration": 0.013888866666665223,
          "durationTicks": 4,
          "midi": 36,
          "name": "C2",
          "ticks": 5041,
          "time": 17.503444216666665,
          "velocity": 1
        },
        {
          "duration": 0.013888866666665223,
          "durationTicks": 4,
          "midi": 42,
          "name": "F#2",
          "ticks": 5041,
          "time": 17.503444216666665,
          "velocity": 1
        },
        {
          "duration": 0.013888866666668775,
          "durationTicks": 4,
          "midi": 42,
          "name": "F#2",
          "ticks": 5121,
          "time": 17.781221549999998,
          "velocity": 0.5590551181102362
        },
        {
          "duration": 0.013888866666668775,
          "durationTicks": 4,
          "midi": 36,
          "name": "C2",
          "ticks": 5161,
          "time": 17.920110216666664,
          "velocity": 1
        },
        {
          "duration": 0.013888866666668775,
          "durationTicks": 4,
          "midi": 38,
          "name": "D2",
          "ticks": 5161,
          "time": 17.920110216666664,
          "velocity": 1
        },
        {
          "duration": 0.013888866666668775,
          "durationTicks": 4,
          "midi": 42,
          "name": "F#2",
          "ticks": 5161,
          "time": 17.920110216666664,
          "velocity": 1
        },
        {
          "duration": 0.013888866666668775,
          "durationTicks": 4,
          "midi": 42,
          "name": "F#2",
          "ticks": 5241,
          "time": 18.197887549999997,
          "velocity": 0.5590551181102362
        },
        {
          "duration": 0.013888866666665223,
          "durationTicks": 4,
          "midi": 36,
          "name": "C2",
          "ticks": 5281,
          "time": 18.336776216666667,
          "velocity": 1
        },
        {
          "duration": 0.013888866666665223,
          "durationTicks": 4,
          "midi": 42,
          "name": "F#2",
          "ticks": 5281,
          "time": 18.336776216666667,
          "velocity": 1
        },
        {
          "duration": 0.013888866666668775,
          "durationTicks": 4,
          "midi": 42,
          "name": "F#2",
          "ticks": 5361,
          "time": 18.614553549999997,
          "velocity": 0.5590551181102362
        },
        {
          "duration": 0.01736108333333064,
          "durationTicks": 5,
          "midi": 36,
          "name": "C2",
          "ticks": 5401,
          "time": 18.753442216666667,
          "velocity": 1
        },
        {
          "duration": 0.013888866666665223,
          "durationTicks": 4,
          "midi": 38,
          "name": "D2",
          "ticks": 5401,
          "time": 18.753442216666667,
          "velocity": 1
        },
        {
          "duration": 0.013888866666665223,
          "durationTicks": 4,
          "midi": 42,
          "name": "F#2",
          "ticks": 5401,
          "time": 18.753442216666667,
          "velocity": 1
        },
        {
          "duration": 0.013888866666668775,
          "durationTicks": 4,
          "midi": 42,
          "name": "F#2",
          "ticks": 5481,
          "time": 19.03121955,
          "velocity": 0.5590551181102362
        },
        {
          "duration": 0.013888866666665223,
          "durationTicks": 4,
          "midi": 36,
          "name": "C2",
          "ticks": 5521,
          "time": 19.170108216666666,
          "velocity": 1
        },
        {
          "duration": 0.013888866666665223,
          "durationTicks": 4,
          "midi": 42,
          "name": "F#2",
          "ticks": 5521,
          "time": 19.170108216666666,
          "velocity": 1
        },
        {
          "duration": 0.013888866666668775,
          "durationTicks": 4,
          "midi": 42,
          "name": "F#2",
          "ticks": 5601,
          "time": 19.44788555,
          "velocity": 0.5590551181102362
        },
        {
          "duration": 0.013888866666665223,
          "durationTicks": 4,
          "midi": 36,
          "name": "C2",
          "ticks": 5641,
          "time": 19.586774216666665,
          "velocity": 1
        },
        {
          "duration": 0.013888866666665223,
          "durationTicks": 4,
          "midi": 38,
          "name": "D2",
          "ticks": 5641,
          "time": 19.586774216666665,
          "velocity": 1
        },
        {
          "duration": 0.013888866666665223,
          "durationTicks": 4,
          "midi": 42,
          "name": "F#2",
          "ticks": 5641,
          "time": 19.586774216666665,
          "velocity": 1
        },
        {
          "duration": 0.013888866666668775,
          "durationTicks": 4,
          "midi": 42,
          "name": "F#2",
          "ticks": 5721,
          "time": 19.864551549999998,
          "velocity": 0.5590551181102362
        },
        {
          "duration": 0.013888866666665223,
          "durationTicks": 4,
          "midi": 36,
          "name": "C2",
          "ticks": 5761,
          "time": 20.003440216666664,
          "velocity": 1
        },
        {
          "duration": 0.013888866666665223,
          "durationTicks": 4,
          "midi": 42,
          "name": "F#2",
          "ticks": 5761,
          "time": 20.003440216666664,
          "velocity": 1
        },
        {
          "duration": 0.013888866666668775,
          "durationTicks": 4,
          "midi": 42,
          "name": "F#2",
          "ticks": 5841,
          "time": 20.281217549999997,
          "velocity": 0.5590551181102362
        },
        {
          "duration": 0.013888866666668775,
          "durationTicks": 4,
          "midi": 36,
          "name": "C2",
          "ticks": 5881,
          "time": 20.420106216666664,
          "velocity": 1
        },
        {
          "duration": 0.013888866666668775,
          "durationTicks": 4,
          "midi": 38,
          "name": "D2",
          "ticks": 5881,
          "time": 20.420106216666664,
          "velocity": 1
        },
        {
          "duration": 0.013888866666665223,
          "durationTicks": 4,
          "midi": 42,
          "name": "F#2",
          "ticks": 5882,
          "time": 20.423578433333333,
          "velocity": 1
        },
        {
          "duration": 0.013888866666668775,
          "durationTicks": 4,
          "midi": 46,
          "name": "A#2",
          "ticks": 5961,
          "time": 20.697883549999997,
          "velocity": 1
        },
        {
          "duration": 0.013888866666665223,
          "durationTicks": 4,
          "midi": 36,
          "name": "C2",
          "ticks": 6001,
          "time": 20.836772216666667,
          "velocity": 1
        },
        {
          "duration": 0.013888866666665223,
          "durationTicks": 4,
          "midi": 42,
          "name": "F#2",
          "ticks": 6001,
          "time": 20.836772216666667,
          "velocity": 1
        },
        {
          "duration": 0.013888866666668775,
          "durationTicks": 4,
          "midi": 42,
          "name": "F#2",
          "ticks": 6081,
          "time": 21.11454955,
          "velocity": 0.5590551181102362
        },
        {
          "duration": 0.013888866666665223,
          "durationTicks": 4,
          "midi": 36,
          "name": "C2",
          "ticks": 6121,
          "time": 21.253438216666666,
          "velocity": 1
        },
        {
          "duration": 0.013888866666665223,
          "durationTicks": 4,
          "midi": 38,
          "name": "D2",
          "ticks": 6121,
          "time": 21.253438216666666,
          "velocity": 1
        },
        {
          "duration": 0.013888866666665223,
          "durationTicks": 4,
          "midi": 42,
          "name": "F#2",
          "ticks": 6121,
          "time": 21.253438216666666,
          "velocity": 1
        },
        {
          "duration": 0.017361083333334193,
          "durationTicks": 5,
          "midi": 42,
          "name": "F#2",
          "ticks": 6201,
          "time": 21.53121555,
          "velocity": 0.5590551181102362
        },
        {
          "duration": 0.013888866666665223,
          "durationTicks": 4,
          "midi": 36,
          "name": "C2",
          "ticks": 6241,
          "time": 21.670104216666665,
          "velocity": 1
        },
        {
          "duration": 0.013888866666665223,
          "durationTicks": 4,
          "midi": 42,
          "name": "F#2",
          "ticks": 6241,
          "time": 21.670104216666665,
          "velocity": 1
        },
        {
          "duration": 0.013888866666668775,
          "durationTicks": 4,
          "midi": 42,
          "name": "F#2",
          "ticks": 6321,
          "time": 21.947881549999998,
          "velocity": 0.5590551181102362
        },
        {
          "duration": 0.013888866666665223,
          "durationTicks": 4,
          "midi": 36,
          "name": "C2",
          "ticks": 6361,
          "time": 22.086770216666665,
          "velocity": 1
        },
        {
          "duration": 0.013888866666665223,
          "durationTicks": 4,
          "midi": 38,
          "name": "D2",
          "ticks": 6361,
          "time": 22.086770216666665,
          "velocity": 1
        },
        {
          "duration": 0.013888866666665223,
          "durationTicks": 4,
          "midi": 42,
          "name": "F#2",
          "ticks": 6361,
          "time": 22.086770216666665,
          "velocity": 1
        },
        {
          "duration": 0.013888866666668775,
          "durationTicks": 4,
          "midi": 42,
          "name": "F#2",
          "ticks": 6441,
          "time": 22.364547549999997,
          "velocity": 0.5590551181102362
        },
        {
          "duration": 0.013888866666668775,
          "durationTicks": 4,
          "midi": 36,
          "name": "C2",
          "ticks": 6481,
          "time": 22.503436216666664,
          "velocity": 1
        },
        {
          "duration": 0.013888866666668775,
          "durationTicks": 4,
          "midi": 42,
          "name": "F#2",
          "ticks": 6481,
          "time": 22.503436216666664,
          "velocity": 1
        },
        {
          "duration": 0.013888866666668775,
          "durationTicks": 4,
          "midi": 42,
          "name": "F#2",
          "ticks": 6561,
          "time": 22.781213549999997,
          "velocity": 0.5590551181102362
        },
        {
          "duration": 0.01736108333333064,
          "durationTicks": 5,
          "midi": 36,
          "name": "C2",
          "ticks": 6601,
          "time": 22.920102216666667,
          "velocity": 1
        },
        {
          "duration": 0.013888866666665223,
          "durationTicks": 4,
          "midi": 38,
          "name": "D2",
          "ticks": 6601,
          "time": 22.920102216666667,
          "velocity": 1
        },
        {
          "duration": 0.013888866666665223,
          "durationTicks": 4,
          "midi": 42,
          "name": "F#2",
          "ticks": 6601,
          "time": 22.920102216666667,
          "velocity": 1
        },
        {
          "duration": 0.013888866666668775,
          "durationTicks": 4,
          "midi": 42,
          "name": "F#2",
          "ticks": 6681,
          "time": 23.197879549999996,
          "velocity": 0.5590551181102362
        },
        {
          "duration": 0.013888866666665223,
          "durationTicks": 4,
          "midi": 36,
          "name": "C2",
          "ticks": 6721,
          "time": 23.336768216666666,
          "velocity": 1
        },
        {
          "duration": 0.013888866666665223,
          "durationTicks": 4,
          "midi": 42,
          "name": "F#2",
          "ticks": 6721,
          "time": 23.336768216666666,
          "velocity": 1
        },
        {
          "duration": 0.013888866666668775,
          "durationTicks": 4,
          "midi": 42,
          "name": "F#2",
          "ticks": 6801,
          "time": 23.61454555,
          "velocity": 0.5590551181102362
        },
        {
          "duration": 0.013888866666665223,
          "durationTicks": 4,
          "midi": 36,
          "name": "C2",
          "ticks": 6841,
          "time": 23.753434216666665,
          "velocity": 1
        },
        {
          "duration": 0.013888866666665223,
          "durationTicks": 4,
          "midi": 38,
          "name": "D2",
          "ticks": 6841,
          "time": 23.753434216666665,
          "velocity": 1
        },
        {
          "duration": 0.013888866666665223,
          "durationTicks": 4,
          "midi": 42,
          "name": "F#2",
          "ticks": 6841,
          "time": 23.753434216666665,
          "velocity": 1
        },
        {
          "duration": 0.013888866666668775,
          "durationTicks": 4,
          "midi": 46,
          "name": "A#2",
          "ticks": 6921,
          "time": 24.03121155,
          "velocity": 1
        },
        {
          "duration": 0.013888866666665223,
          "durationTicks": 4,
          "midi": 36,
          "name": "C2",
          "ticks": 6961,
          "time": 24.170100216666665,
          "velocity": 1
        },
        {
          "duration": 0.013888866666665223,
          "durationTicks": 4,
          "midi": 42,
          "name": "F#2",
          "ticks": 6961,
          "time": 24.170100216666665,
          "velocity": 1
        },
        {
          "duration": 0.013888866666668775,
          "durationTicks": 4,
          "midi": 42,
          "name": "F#2",
          "ticks": 7041,
          "time": 24.447877549999998,
          "velocity": 0.5590551181102362
        },
        {
          "duration": 0.013888866666668775,
          "durationTicks": 4,
          "midi": 36,
          "name": "C2",
          "ticks": 7081,
          "time": 24.586766216666664,
          "velocity": 1
        },
        {
          "duration": 0.013888866666668775,
          "durationTicks": 4,
          "midi": 38,
          "name": "D2",
          "ticks": 7081,
          "time": 24.586766216666664,
          "velocity": 1
        },
        {
          "duration": 0.013888866666668775,
          "durationTicks": 4,
          "midi": 42,
          "name": "F#2",
          "ticks": 7081,
          "time": 24.586766216666664,
          "velocity": 1
        },
        {
          "duration": 0.013888866666668775,
          "durationTicks": 4,
          "midi": 42,
          "name": "F#2",
          "ticks": 7161,
          "time": 24.864543549999997,
          "velocity": 0.5590551181102362
        },
        {
          "duration": 0.01736108333333064,
          "durationTicks": 5,
          "midi": 36,
          "name": "C2",
          "ticks": 7201,
          "time": 25.003432216666667,
          "velocity": 1
        },
        {
          "duration": 0.013888866666665223,
          "durationTicks": 4,
          "midi": 42,
          "name": "F#2",
          "ticks": 7201,
          "time": 25.003432216666667,
          "velocity": 1
        },
        {
          "duration": 0.013888866666668775,
          "durationTicks": 4,
          "midi": 42,
          "name": "F#2",
          "ticks": 7281,
          "time": 25.281209549999996,
          "velocity": 0.5590551181102362
        },
        {
          "duration": 0.013888866666665223,
          "durationTicks": 4,
          "midi": 36,
          "name": "C2",
          "ticks": 7321,
          "time": 25.420098216666666,
          "velocity": 1
        },
        {
          "duration": 0.013888866666665223,
          "durationTicks": 4,
          "midi": 38,
          "name": "D2",
          "ticks": 7321,
          "time": 25.420098216666666,
          "velocity": 1
        },
        {
          "duration": 0.013888866666665223,
          "durationTicks": 4,
          "midi": 42,
          "name": "F#2",
          "ticks": 7321,
          "time": 25.420098216666666,
          "velocity": 1
        },
        {
          "duration": 0.013888866666668775,
          "durationTicks": 4,
          "midi": 42,
          "name": "F#2",
          "ticks": 7401,
          "time": 25.69787555,
          "velocity": 0.5590551181102362
        },
        {
          "duration": 0.013888866666665223,
          "durationTicks": 4,
          "midi": 36,
          "name": "C2",
          "ticks": 7441,
          "time": 25.836764216666666,
          "velocity": 1
        },
        {
          "duration": 0.013888866666665223,
          "durationTicks": 4,
          "midi": 42,
          "name": "F#2",
          "ticks": 7441,
          "time": 25.836764216666666,
          "velocity": 1
        },
        {
          "duration": 0.013888866666668775,
          "durationTicks": 4,
          "midi": 42,
          "name": "F#2",
          "ticks": 7521,
          "time": 26.11454155,
          "velocity": 0.5590551181102362
        },
        {
          "duration": 0.013888866666665223,
          "durationTicks": 4,
          "midi": 36,
          "name": "C2",
          "ticks": 7561,
          "time": 26.253430216666665,
          "velocity": 1
        },
        {
          "duration": 0.013888866666665223,
          "durationTicks": 4,
          "midi": 38,
          "name": "D2",
          "ticks": 7561,
          "time": 26.253430216666665,
          "velocity": 1
        },
        {
          "duration": 0.013888866666665223,
          "durationTicks": 4,
          "midi": 42,
          "name": "F#2",
          "ticks": 7561,
          "time": 26.253430216666665,
          "velocity": 1
        },
        {
          "duration": 0.013888866666668775,
          "durationTicks": 4,
          "midi": 42,
          "name": "F#2",
          "ticks": 7641,
          "time": 26.531207549999998,
          "velocity": 0.5590551181102362
        },
        {
          "duration": 0.013888866666665223,
          "durationTicks": 4,
          "midi": 36,
          "name": "C2",
          "ticks": 7681,
          "time": 26.670096216666668,
          "velocity": 1
        },
        {
          "duration": 0.013888866666665223,
          "durationTicks": 4,
          "midi": 42,
          "name": "F#2",
          "ticks": 7681,
          "time": 26.670096216666668,
          "velocity": 1
        },
        {
          "duration": 0.017361083333334193,
          "durationTicks": 5,
          "midi": 42,
          "name": "F#2",
          "ticks": 7761,
          "time": 26.947873549999997,
          "velocity": 0.5590551181102362
        },
        {
          "duration": 0.013888866666668775,
          "durationTicks": 4,
          "midi": 36,
          "name": "C2",
          "ticks": 7801,
          "time": 27.086762216666667,
          "velocity": 1
        },
        {
          "duration": 0.013888866666668775,
          "durationTicks": 4,
          "midi": 38,
          "name": "D2",
          "ticks": 7801,
          "time": 27.086762216666667,
          "velocity": 1
        },
        {
          "duration": 0.013888866666668775,
          "durationTicks": 4,
          "midi": 42,
          "name": "F#2",
          "ticks": 7801,
          "time": 27.086762216666667,
          "velocity": 1
        },
        {
          "duration": 0.013888866666668775,
          "durationTicks": 4,
          "midi": 46,
          "name": "A#2",
          "ticks": 7881,
          "time": 27.364539549999996,
          "velocity": 1
        },
        {
          "duration": 0.017361083333327088,
          "durationTicks": 5,
          "midi": 36,
          "name": "C2",
          "ticks": 7921,
          "time": 27.50342821666667,
          "velocity": 1
        },
        {
          "duration": 0.013888866666665223,
          "durationTicks": 4,
          "midi": 42,
          "name": "F#2",
          "ticks": 7921,
          "time": 27.50342821666667,
          "velocity": 1
        },
        {
          "duration": 0.013888866666665223,
          "durationTicks": 4,
          "midi": 42,
          "name": "F#2",
          "ticks": 8001,
          "time": 27.78120555,
          "velocity": 0.5590551181102362
        },
        {
          "duration": 0.013888866666665223,
          "durationTicks": 4,
          "midi": 36,
          "name": "C2",
          "ticks": 8041,
          "time": 27.92009421666667,
          "velocity": 1
        },
        {
          "duration": 0.013888866666665223,
          "durationTicks": 4,
          "midi": 38,
          "name": "D2",
          "ticks": 8041,
          "time": 27.92009421666667,
          "velocity": 1
        },
        {
          "duration": 0.013888866666665223,
          "durationTicks": 4,
          "midi": 42,
          "name": "F#2",
          "ticks": 8042,
          "time": 27.92356643333333,
          "velocity": 1
        },
        {
          "duration": 0.013888866666665223,
          "durationTicks": 4,
          "midi": 42,
          "name": "F#2",
          "ticks": 8121,
          "time": 28.19787155,
          "velocity": 0.5590551181102362
        },
        {
          "duration": 0.013888866666665223,
          "durationTicks": 4,
          "midi": 36,
          "name": "C2",
          "ticks": 8161,
          "time": 28.33676021666667,
          "velocity": 1
        },
        {
          "duration": 0.013888866666665223,
          "durationTicks": 4,
          "midi": 42,
          "name": "F#2",
          "ticks": 8161,
          "time": 28.33676021666667,
          "velocity": 1
        },
        {
          "duration": 0.013888866666665223,
          "durationTicks": 4,
          "midi": 42,
          "name": "F#2",
          "ticks": 8241,
          "time": 28.614537549999998,
          "velocity": 0.5590551181102362
        },
        {
          "duration": 0.013888866666665223,
          "durationTicks": 4,
          "midi": 36,
          "name": "C2",
          "ticks": 8281,
          "time": 28.753426216666668,
          "velocity": 1
        },
        {
          "duration": 0.013888866666665223,
          "durationTicks": 4,
          "midi": 38,
          "name": "D2",
          "ticks": 8281,
          "time": 28.753426216666668,
          "velocity": 1
        },
        {
          "duration": 0.013888866666665223,
          "durationTicks": 4,
          "midi": 42,
          "name": "F#2",
          "ticks": 8281,
          "time": 28.753426216666668,
          "velocity": 1
        },
        {
          "duration": 0.013888866666665223,
          "durationTicks": 4,
          "midi": 42,
          "name": "F#2",
          "ticks": 8361,
          "time": 29.031203549999997,
          "velocity": 0.5590551181102362
        },
        {
          "duration": 0.013888866666665223,
          "durationTicks": 4,
          "midi": 36,
          "name": "C2",
          "ticks": 8401,
          "time": 29.170092216666667,
          "velocity": 1
        },
        {
          "duration": 0.013888866666665223,
          "durationTicks": 4,
          "midi": 42,
          "name": "F#2",
          "ticks": 8401,
          "time": 29.170092216666667,
          "velocity": 1
        },
        {
          "duration": 0.013888866666665223,
          "durationTicks": 4,
          "midi": 42,
          "name": "F#2",
          "ticks": 8481,
          "time": 29.447869549999997,
          "velocity": 0.5590551181102362
        },
        {
          "duration": 0.01736108333333064,
          "durationTicks": 5,
          "midi": 36,
          "name": "C2",
          "ticks": 8521,
          "time": 29.586758216666666,
          "velocity": 1
        },
        {
          "duration": 0.013888866666668775,
          "durationTicks": 4,
          "midi": 38,
          "name": "D2",
          "ticks": 8521,
          "time": 29.586758216666666,
          "velocity": 1
        },
        {
          "duration": 0.013888866666668775,
          "durationTicks": 4,
          "midi": 42,
          "name": "F#2",
          "ticks": 8521,
          "time": 29.586758216666666,
          "velocity": 1
        },
        {
          "duration": 0.013888866666668775,
          "durationTicks": 4,
          "midi": 42,
          "name": "F#2",
          "ticks": 8601,
          "time": 29.864535549999996,
          "velocity": 0.5590551181102362
        },
        {
          "duration": 0.013888866666665223,
          "durationTicks": 4,
          "midi": 36,
          "name": "C2",
          "ticks": 8641,
          "time": 30.00342421666667,
          "velocity": 1
        },
        {
          "duration": 0.013888866666665223,
          "durationTicks": 4,
          "midi": 42,
          "name": "F#2",
          "ticks": 8641,
          "time": 30.00342421666667,
          "velocity": 1
        },
        {
          "duration": 0.013888866666665223,
          "durationTicks": 4,
          "midi": 49,
          "name": "C#3",
          "ticks": 8641,
          "time": 30.00342421666667,
          "velocity": 1
        },
        {
          "duration": 0.013888866666665223,
          "durationTicks": 4,
          "midi": 42,
          "name": "F#2",
          "ticks": 8721,
          "time": 30.28120155,
          "velocity": 0.5590551181102362
        },
        {
          "duration": 0.013888866666665223,
          "durationTicks": 4,
          "midi": 36,
          "name": "C2",
          "ticks": 8761,
          "time": 30.42009021666667,
          "velocity": 1
        },
        {
          "duration": 0.013888866666665223,
          "durationTicks": 4,
          "midi": 38,
          "name": "D2",
          "ticks": 8761,
          "time": 30.42009021666667,
          "velocity": 1
        },
        {
          "duration": 0.013888866666665223,
          "durationTicks": 4,
          "midi": 42,
          "name": "F#2",
          "ticks": 8761,
          "time": 30.42009021666667,
          "velocity": 1
        },
        {
          "duration": 0.013888866666665223,
          "durationTicks": 4,
          "midi": 46,
          "name": "A#2",
          "ticks": 8841,
          "time": 30.697867549999998,
          "velocity": 1
        },
        {
          "duration": 0.01736108333333064,
          "durationTicks": 5,
          "midi": 36,
          "name": "C2",
          "ticks": 8881,
          "time": 30.836756216666668,
          "velocity": 1
        },
        {
          "duration": 0.013888866666665223,
          "durationTicks": 4,
          "midi": 42,
          "name": "F#2",
          "ticks": 8881,
          "time": 30.836756216666668,
          "velocity": 1
        },
        {
          "duration": 0.013888866666665223,
          "durationTicks": 4,
          "midi": 42,
          "name": "F#2",
          "ticks": 8961,
          "time": 31.114533549999997,
          "velocity": 0.5590551181102362
        },
        {
          "duration": 0.013888866666665223,
          "durationTicks": 4,
          "midi": 36,
          "name": "C2",
          "ticks": 9001,
          "time": 31.253422216666667,
          "velocity": 1
        },
        {
          "duration": 0.013888866666665223,
          "durationTicks": 4,
          "midi": 38,
          "name": "D2",
          "ticks": 9002,
          "time": 31.256894433333333,
          "velocity": 1
        },
        {
          "duration": 0.013888866666665223,
          "durationTicks": 4,
          "midi": 42,
          "name": "F#2",
          "ticks": 9002,
          "time": 31.256894433333333,
          "velocity": 1
        },
        {
          "duration": 0.013888866666665223,
          "durationTicks": 4,
          "midi": 42,
          "name": "F#2",
          "ticks": 9081,
          "time": 31.531199549999997,
          "velocity": 0.5590551181102362
        },
        {
          "duration": 0.013888866666668775,
          "durationTicks": 4,
          "midi": 36,
          "name": "C2",
          "ticks": 9121,
          "time": 31.670088216666667,
          "velocity": 1
        },
        {
          "duration": 0.013888866666668775,
          "durationTicks": 4,
          "midi": 42,
          "name": "F#2",
          "ticks": 9121,
          "time": 31.670088216666667,
          "velocity": 1
        },
        {
          "duration": 0.013888866666668775,
          "durationTicks": 4,
          "midi": 42,
          "name": "F#2",
          "ticks": 9201,
          "time": 31.947865549999996,
          "velocity": 0.5590551181102362
        },
        {
          "duration": 0.01388886666666167,
          "durationTicks": 4,
          "midi": 36,
          "name": "C2",
          "ticks": 9241,
          "time": 32.08675421666667,
          "velocity": 1
        },
        {
          "duration": 0.01388886666666167,
          "durationTicks": 4,
          "midi": 38,
          "name": "D2",
          "ticks": 9241,
          "time": 32.08675421666667,
          "velocity": 1
        },
        {
          "duration": 0.01388886666666167,
          "durationTicks": 4,
          "midi": 42,
          "name": "F#2",
          "ticks": 9241,
          "time": 32.08675421666667,
          "velocity": 1
        },
        {
          "duration": 0.013888866666668775,
          "durationTicks": 4,
          "midi": 42,
          "name": "F#2",
          "ticks": 9321,
          "time": 32.364531549999995,
          "velocity": 0.5590551181102362
        },
        {
          "duration": 0.017361083333327088,
          "durationTicks": 5,
          "midi": 36,
          "name": "C2",
          "ticks": 9361,
          "time": 32.50342021666667,
          "velocity": 1
        },
        {
          "duration": 0.01388886666666167,
          "durationTicks": 4,
          "midi": 42,
          "name": "F#2",
          "ticks": 9361,
          "time": 32.50342021666667,
          "velocity": 1
        },
        {
          "duration": 0.013888866666668775,
          "durationTicks": 4,
          "midi": 42,
          "name": "F#2",
          "ticks": 9441,
          "time": 32.781197549999995,
          "velocity": 0.5590551181102362
        },
        {
          "duration": 0.013888866666668775,
          "durationTicks": 4,
          "midi": 36,
          "name": "C2",
          "ticks": 9481,
          "time": 32.92008621666667,
          "velocity": 1
        },
        {
          "duration": 0.01388886666666167,
          "durationTicks": 4,
          "midi": 38,
          "name": "D2",
          "ticks": 9482,
          "time": 32.92355843333333,
          "velocity": 1
        },
        {
          "duration": 0.01388886666666167,
          "durationTicks": 4,
          "midi": 42,
          "name": "F#2",
          "ticks": 9482,
          "time": 32.92355843333333,
          "velocity": 1
        },
        {
          "duration": 0.013888866666668775,
          "durationTicks": 4,
          "midi": 42,
          "name": "F#2",
          "ticks": 9561,
          "time": 33.197863549999994,
          "velocity": 0.5590551181102362
        },
        {
          "duration": 0.013888866666668775,
          "durationTicks": 4,
          "midi": 36,
          "name": "C2",
          "ticks": 9601,
          "time": 33.33675221666667,
          "velocity": 1
        },
        {
          "duration": 0.013888866666668775,
          "durationTicks": 4,
          "midi": 42,
          "name": "F#2",
          "ticks": 9601,
          "time": 33.33675221666667,
          "velocity": 1
        },
        {
          "duration": 0.01388886666666167,
          "durationTicks": 4,
          "midi": 42,
          "name": "F#2",
          "ticks": 9681,
          "time": 33.61452955,
          "velocity": 0.5590551181102362
        },
        {
          "duration": 0.013888866666668775,
          "durationTicks": 4,
          "midi": 36,
          "name": "C2",
          "ticks": 9721,
          "time": 33.75341821666667,
          "velocity": 1
        },
        {
          "duration": 0.01388886666666167,
          "durationTicks": 4,
          "midi": 38,
          "name": "D2",
          "ticks": 9722,
          "time": 33.75689043333333,
          "velocity": 1
        },
        {
          "duration": 0.01388886666666167,
          "durationTicks": 4,
          "midi": 42,
          "name": "F#2",
          "ticks": 9722,
          "time": 33.75689043333333,
          "velocity": 1
        },
        {
          "duration": 0.01388886666666167,
          "durationTicks": 4,
          "midi": 46,
          "name": "A#2",
          "ticks": 9801,
          "time": 34.03119555,
          "velocity": 1
        },
        {
          "duration": 0.013888866666668775,
          "durationTicks": 4,
          "midi": 36,
          "name": "C2",
          "ticks": 9841,
          "time": 34.170084216666666,
          "velocity": 1
        },
        {
          "duration": 0.013888866666668775,
          "durationTicks": 4,
          "midi": 42,
          "name": "F#2",
          "ticks": 9842,
          "time": 34.17355643333333,
          "velocity": 1
        },
        {
          "duration": 0.01388886666666167,
          "durationTicks": 4,
          "midi": 42,
          "name": "F#2",
          "ticks": 9921,
          "time": 34.44786155,
          "velocity": 0.5590551181102362
        },
        {
          "duration": 0.013888866666668775,
          "durationTicks": 4,
          "midi": 36,
          "name": "C2",
          "ticks": 9961,
          "time": 34.586750216666665,
          "velocity": 1
        },
        {
          "duration": 0.013888866666668775,
          "durationTicks": 4,
          "midi": 38,
          "name": "D2",
          "ticks": 9961,
          "time": 34.586750216666665,
          "velocity": 1
        },
        {
          "duration": 0.013888866666668775,
          "durationTicks": 4,
          "midi": 42,
          "name": "F#2",
          "ticks": 9961,
          "time": 34.586750216666665,
          "velocity": 1
        },
        {
          "duration": 0.01388886666666167,
          "durationTicks": 4,
          "midi": 42,
          "name": "F#2",
          "ticks": 10041,
          "time": 34.86452755,
          "velocity": 0.5590551181102362
        },
        {
          "duration": 0.013888866666668775,
          "durationTicks": 4,
          "midi": 36,
          "name": "C2",
          "ticks": 10081,
          "time": 35.003416216666665,
          "velocity": 1
        },
        {
          "duration": 0.013888866666668775,
          "durationTicks": 4,
          "midi": 42,
          "name": "F#2",
          "ticks": 10081,
          "time": 35.003416216666665,
          "velocity": 1
        },
        {
          "duration": 0.013888866666668775,
          "durationTicks": 4,
          "midi": 42,
          "name": "F#2",
          "ticks": 10161,
          "time": 35.28119355,
          "velocity": 0.5590551181102362
        },
        {
          "duration": 0.010416649999996253,
          "durationTicks": 3,
          "midi": 48,
          "name": "C3",
          "ticks": 10162,
          "time": 35.28466576666667,
          "velocity": 1
        },
        {
          "duration": 0.017361083333327088,
          "durationTicks": 5,
          "midi": 36,
          "name": "C2",
          "ticks": 10201,
          "time": 35.42008221666667,
          "velocity": 1
        },
        {
          "duration": 0.01388886666666167,
          "durationTicks": 4,
          "midi": 38,
          "name": "D2",
          "ticks": 10201,
          "time": 35.42008221666667,
          "velocity": 1
        },
        {
          "duration": 0.01388886666666167,
          "durationTicks": 4,
          "midi": 42,
          "name": "F#2",
          "ticks": 10201,
          "time": 35.42008221666667,
          "velocity": 1
        },
        {
          "duration": 0.013888866666668775,
          "durationTicks": 4,
          "midi": 38,
          "name": "D2",
          "ticks": 10281,
          "time": 35.69785955,
          "velocity": 0.3228346456692913
        },
        {
          "duration": 0.013888866666668775,
          "durationTicks": 4,
          "midi": 42,
          "name": "F#2",
          "ticks": 10281,
          "time": 35.69785955,
          "velocity": 0.5590551181102362
        },
        {
          "duration": 0.013888866666668775,
          "durationTicks": 4,
          "midi": 45,
          "name": "A2",
          "ticks": 10281,
          "time": 35.69785955,
          "velocity": 1
        },
        {
          "duration": 0.01388886666666167,
          "durationTicks": 4,
          "midi": 36,
          "name": "C2",
          "ticks": 10321,
          "time": 35.83674821666667,
          "velocity": 1
        },
        {
          "duration": 0.01388886666666167,
          "durationTicks": 4,
          "midi": 42,
          "name": "F#2",
          "ticks": 10321,
          "time": 35.83674821666667,
          "velocity": 1
        },
        {
          "duration": 0.01388886666666167,
          "durationTicks": 4,
          "midi": 41,
          "name": "F2",
          "ticks": 10321,
          "time": 35.83674821666667,
          "velocity": 1
        },
        {
          "duration": 0.017361083333334193,
          "durationTicks": 5,
          "midi": 38,
          "name": "D2",
          "ticks": 10401,
          "time": 36.114525549999996,
          "velocity": 0.3228346456692913
        },
        {
          "duration": 0.013888866666668775,
          "durationTicks": 4,
          "midi": 42,
          "name": "F#2",
          "ticks": 10401,
          "time": 36.114525549999996,
          "velocity": 0.5590551181102362
        },
        {
          "duration": 0.01388886666666167,
          "durationTicks": 4,
          "midi": 36,
          "name": "C2",
          "ticks": 10441,
          "time": 36.25341421666667,
          "velocity": 1
        },
        {
          "duration": 0.01388886666666167,
          "durationTicks": 4,
          "midi": 38,
          "name": "D2",
          "ticks": 10441,
          "time": 36.25341421666667,
          "velocity": 0.3228346456692913
        },
        {
          "duration": 0.01388886666666167,
          "durationTicks": 4,
          "midi": 42,
          "name": "F#2",
          "ticks": 10441,
          "time": 36.25341421666667,
          "velocity": 1
        },
        {
          "duration": 0.013888866666668775,
          "durationTicks": 4,
          "midi": 38,
          "name": "D2",
          "ticks": 10481,
          "time": 36.39230288333333,
          "velocity": 1
        },
        {
          "duration": 0.013888866666668775,
          "durationTicks": 4,
          "midi": 38,
          "name": "D2",
          "ticks": 10521,
          "time": 36.531191549999996,
          "velocity": 1
        },
        {
          "duration": 0.013888866666668775,
          "durationTicks": 4,
          "midi": 42,
          "name": "F#2",
          "ticks": 10521,
          "time": 36.531191549999996,
          "velocity": 0.5590551181102362
        },
        {
          "duration": 0.013888866666668775,
          "durationTicks": 4,
          "midi": 45,
          "name": "A2",
          "ticks": 10521,
          "time": 36.531191549999996,
          "velocity": 1
        },
        {
          "duration": 0.01388886666666167,
          "durationTicks": 4,
          "midi": 36,
          "name": "C2",
          "ticks": 10561,
          "time": 36.67008021666667,
          "velocity": 1
        },
        {
          "duration": 0.01388886666666167,
          "durationTicks": 4,
          "midi": 42,
          "name": "F#2",
          "ticks": 10561,
          "time": 36.67008021666667,
          "velocity": 1
        },
        {
          "duration": 0.01388886666666167,
          "durationTicks": 4,
          "midi": 49,
          "name": "C#3",
          "ticks": 10561,
          "time": 36.67008021666667,
          "velocity": 1
        },
        {
          "duration": 0.013888866666668775,
          "durationTicks": 4,
          "midi": 42,
          "name": "F#2",
          "ticks": 10641,
          "time": 36.947857549999995,
          "velocity": 0.5590551181102362
        },
        {
          "duration": 0.013888866666668775,
          "durationTicks": 4,
          "midi": 36,
          "name": "C2",
          "ticks": 10681,
          "time": 37.08674621666667,
          "velocity": 1
        },
        {
          "duration": 0.013888866666668775,
          "durationTicks": 4,
          "midi": 38,
          "name": "D2",
          "ticks": 10681,
          "time": 37.08674621666667,
          "velocity": 1
        },
        {
          "duration": 0.013888866666668775,
          "durationTicks": 4,
          "midi": 42,
          "name": "F#2",
          "ticks": 10681,
          "time": 37.08674621666667,
          "velocity": 1
        },
        {
          "duration": 0.013888866666668775,
          "durationTicks": 4,
          "midi": 46,
          "name": "A#2",
          "ticks": 10761,
          "time": 37.364523549999994,
          "velocity": 1
        },
        {
          "duration": 0.013888866666668775,
          "durationTicks": 4,
          "midi": 36,
          "name": "C2",
          "ticks": 10801,
          "time": 37.50341221666667,
          "velocity": 1
        },
        {
          "duration": 0.013888866666668775,
          "durationTicks": 4,
          "midi": 42,
          "name": "F#2",
          "ticks": 10801,
          "time": 37.50341221666667,
          "velocity": 1
        },
        {
          "duration": 0.01388886666666167,
          "durationTicks": 4,
          "midi": 42,
          "name": "F#2",
          "ticks": 10881,
          "time": 37.78118955,
          "velocity": 0.5590551181102362
        },
        {
          "duration": 0.017361083333327088,
          "durationTicks": 5,
          "midi": 36,
          "name": "C2",
          "ticks": 10921,
          "time": 37.92007821666667,
          "velocity": 1
        },
        {
          "duration": 0.013888866666668775,
          "durationTicks": 4,
          "midi": 38,
          "name": "D2",
          "ticks": 10921,
          "time": 37.92007821666667,
          "velocity": 1
        },
        {
          "duration": 0.013888866666668775,
          "durationTicks": 4,
          "midi": 42,
          "name": "F#2",
          "ticks": 10921,
          "time": 37.92007821666667,
          "velocity": 1
        },
        {
          "duration": 0.01388886666666167,
          "durationTicks": 4,
          "midi": 42,
          "name": "F#2",
          "ticks": 11001,
          "time": 38.19785555,
          "velocity": 0.5590551181102362
        },
        {
          "duration": 0.013888866666668775,
          "durationTicks": 4,
          "midi": 36,
          "name": "C2",
          "ticks": 11041,
          "time": 38.336744216666666,
          "velocity": 1
        },
        {
          "duration": 0.013888866666668775,
          "durationTicks": 4,
          "midi": 42,
          "name": "F#2",
          "ticks": 11041,
          "time": 38.336744216666666,
          "velocity": 1
        },
        {
          "duration": 0.01388886666666167,
          "durationTicks": 4,
          "midi": 42,
          "name": "F#2",
          "ticks": 11121,
          "time": 38.61452155,
          "velocity": 0.5590551181102362
        },
        {
          "duration": 0.013888866666668775,
          "durationTicks": 4,
          "midi": 36,
          "name": "C2",
          "ticks": 11161,
          "time": 38.753410216666666,
          "velocity": 1
        },
        {
          "duration": 0.013888866666668775,
          "durationTicks": 4,
          "midi": 38,
          "name": "D2",
          "ticks": 11161,
          "time": 38.753410216666666,
          "velocity": 1
        },
        {
          "duration": 0.013888866666668775,
          "durationTicks": 4,
          "midi": 42,
          "name": "F#2",
          "ticks": 11162,
          "time": 38.75688243333333,
          "velocity": 1
        },
        {
          "duration": 0.01388886666666167,
          "durationTicks": 4,
          "midi": 42,
          "name": "F#2",
          "ticks": 11241,
          "time": 39.03118755,
          "velocity": 0.5590551181102362
        },
        {
          "duration": 0.013888866666668775,
          "durationTicks": 4,
          "midi": 36,
          "name": "C2",
          "ticks": 11281,
          "time": 39.170076216666665,
          "velocity": 1
        },
        {
          "duration": 0.013888866666668775,
          "durationTicks": 4,
          "midi": 42,
          "name": "F#2",
          "ticks": 11281,
          "time": 39.170076216666665,
          "velocity": 1
        },
        {
          "duration": 0.01388886666666167,
          "durationTicks": 4,
          "midi": 42,
          "name": "F#2",
          "ticks": 11361,
          "time": 39.44785355,
          "velocity": 0.5590551181102362
        },
        {
          "duration": 0.017361083333334193,
          "durationTicks": 5,
          "midi": 36,
          "name": "C2",
          "ticks": 11401,
          "time": 39.586742216666664,
          "velocity": 1
        },
        {
          "duration": 0.013888866666668775,
          "durationTicks": 4,
          "midi": 38,
          "name": "D2",
          "ticks": 11401,
          "time": 39.586742216666664,
          "velocity": 1
        },
        {
          "duration": 0.013888866666668775,
          "durationTicks": 4,
          "midi": 42,
          "name": "F#2",
          "ticks": 11401,
          "time": 39.586742216666664,
          "velocity": 1
        },
        {
          "duration": 0.013888866666668775,
          "durationTicks": 4,
          "midi": 42,
          "name": "F#2",
          "ticks": 11481,
          "time": 39.86451955,
          "velocity": 0.5590551181102362
        },
        {
          "duration": 0.017361083333327088,
          "durationTicks": 5,
          "midi": 36,
          "name": "C2",
          "ticks": 11521,
          "time": 40.00340821666667,
          "velocity": 1
        },
        {
          "duration": 0.01388886666666167,
          "durationTicks": 4,
          "midi": 42,
          "name": "F#2",
          "ticks": 11521,
          "time": 40.00340821666667,
          "velocity": 1
        },
        {
          "duration": 0.013888866666668775,
          "durationTicks": 4,
          "midi": 42,
          "name": "F#2",
          "ticks": 11601,
          "time": 40.28118555,
          "velocity": 0.5590551181102362
        },
        {
          "duration": 0.01388886666666167,
          "durationTicks": 4,
          "midi": 36,
          "name": "C2",
          "ticks": 11641,
          "time": 40.42007421666667,
          "velocity": 1
        },
        {
          "duration": 0.013888866666668775,
          "durationTicks": 4,
          "midi": 38,
          "name": "D2",
          "ticks": 11642,
          "time": 40.42354643333333,
          "velocity": 1
        },
        {
          "duration": 0.013888866666668775,
          "durationTicks": 4,
          "midi": 42,
          "name": "F#2",
          "ticks": 11642,
          "time": 40.42354643333333,
          "velocity": 1
        },
        {
          "duration": 0.013888866666668775,
          "durationTicks": 4,
          "midi": 46,
          "name": "A#2",
          "ticks": 11721,
          "time": 40.697851549999996,
          "velocity": 1
        },
        {
          "duration": 0.01388886666666167,
          "durationTicks": 4,
          "midi": 36,
          "name": "C2",
          "ticks": 11761,
          "time": 40.83674021666667,
          "velocity": 1
        },
        {
          "duration": 0.01388886666666167,
          "durationTicks": 4,
          "midi": 42,
          "name": "F#2",
          "ticks": 11761,
          "time": 40.83674021666667,
          "velocity": 1
        },
        {
          "duration": 0.013888866666668775,
          "durationTicks": 4,
          "midi": 42,
          "name": "F#2",
          "ticks": 11841,
          "time": 41.114517549999995,
          "velocity": 0.5590551181102362
        },
        {
          "duration": 0.01388886666666167,
          "durationTicks": 4,
          "midi": 36,
          "name": "C2",
          "ticks": 11881,
          "time": 41.25340621666667,
          "velocity": 1
        },
        {
          "duration": 0.01388886666666167,
          "durationTicks": 4,
          "midi": 38,
          "name": "D2",
          "ticks": 11881,
          "time": 41.25340621666667,
          "velocity": 1
        },
        {
          "duration": 0.01388886666666167,
          "durationTicks": 4,
          "midi": 42,
          "name": "F#2",
          "ticks": 11882,
          "time": 41.256878433333334,
          "velocity": 1
        },
        {
          "duration": 0.013888866666668775,
          "durationTicks": 4,
          "midi": 42,
          "name": "F#2",
          "ticks": 11961,
          "time": 41.531183549999994,
          "velocity": 0.5590551181102362
        },
        {
          "duration": 0.013888866666668775,
          "durationTicks": 4,
          "midi": 36,
          "name": "C2",
          "ticks": 12001,
          "time": 41.67007221666667,
          "velocity": 1
        },
        {
          "duration": 0.013888866666668775,
          "durationTicks": 4,
          "midi": 42,
          "name": "F#2",
          "ticks": 12001,
          "time": 41.67007221666667,
          "velocity": 1
        },
        {
          "duration": 0.013888866666668775,
          "durationTicks": 4,
          "midi": 42,
          "name": "F#2",
          "ticks": 12081,
          "time": 41.947849549999994,
          "velocity": 0.5590551181102362
        },
        {
          "duration": 0.013888866666668775,
          "durationTicks": 4,
          "midi": 36,
          "name": "C2",
          "ticks": 12121,
          "time": 42.08673821666667,
          "velocity": 1
        },
        {
          "duration": 0.013888866666668775,
          "durationTicks": 4,
          "midi": 38,
          "name": "D2",
          "ticks": 12121,
          "time": 42.08673821666667,
          "velocity": 1
        },
        {
          "duration": 0.013888866666668775,
          "durationTicks": 4,
          "midi": 42,
          "name": "F#2",
          "ticks": 12121,
          "time": 42.08673821666667,
          "velocity": 1
        },
        {
          "duration": 0.01388886666666167,
          "durationTicks": 4,
          "midi": 42,
          "name": "F#2",
          "ticks": 12201,
          "time": 42.36451555,
          "velocity": 0.5590551181102362
        },
        {
          "duration": 0.013888866666668775,
          "durationTicks": 4,
          "midi": 36,
          "name": "C2",
          "ticks": 12241,
          "time": 42.50340421666667,
          "velocity": 1
        },
        {
          "duration": 0.013888866666668775,
          "durationTicks": 4,
          "midi": 42,
          "name": "F#2",
          "ticks": 12241,
          "time": 42.50340421666667,
          "velocity": 1
        },
        {
          "duration": 0.01388886666666167,
          "durationTicks": 4,
          "midi": 42,
          "name": "F#2",
          "ticks": 12321,
          "time": 42.78118155,
          "velocity": 0.5590551181102362
        },
        {
          "duration": 0.017361083333334193,
          "durationTicks": 5,
          "midi": 36,
          "name": "C2",
          "ticks": 12361,
          "time": 42.920070216666666,
          "velocity": 1
        },
        {
          "duration": 0.013888866666668775,
          "durationTicks": 4,
          "midi": 38,
          "name": "D2",
          "ticks": 12361,
          "time": 42.920070216666666,
          "velocity": 1
        },
        {
          "duration": 0.013888866666668775,
          "durationTicks": 4,
          "midi": 42,
          "name": "F#2",
          "ticks": 12361,
          "time": 42.920070216666666,
          "velocity": 1
        },
        {
          "duration": 0.01388886666666167,
          "durationTicks": 4,
          "midi": 42,
          "name": "F#2",
          "ticks": 12441,
          "time": 43.19784755,
          "velocity": 0.5590551181102362
        },
        {
          "duration": 0.013888866666668775,
          "durationTicks": 4,
          "midi": 36,
          "name": "C2",
          "ticks": 12481,
          "time": 43.336736216666665,
          "velocity": 1
        },
        {
          "duration": 0.013888866666668775,
          "durationTicks": 4,
          "midi": 42,
          "name": "F#2",
          "ticks": 12481,
          "time": 43.336736216666665,
          "velocity": 1
        },
        {
          "duration": 0.013888866666668775,
          "durationTicks": 4,
          "midi": 49,
          "name": "C#3",
          "ticks": 12482,
          "time": 43.34020843333333,
          "velocity": 1
        },
        {
          "duration": 0.01388886666666167,
          "durationTicks": 4,
          "midi": 42,
          "name": "F#2",
          "ticks": 12561,
          "time": 43.61451355,
          "velocity": 0.5590551181102362
        },
        {
          "duration": 0.013888866666668775,
          "durationTicks": 4,
          "midi": 36,
          "name": "C2",
          "ticks": 12601,
          "time": 43.753402216666665,
          "velocity": 1
        },
        {
          "duration": 0.013888866666668775,
          "durationTicks": 4,
          "midi": 38,
          "name": "D2",
          "ticks": 12601,
          "time": 43.753402216666665,
          "velocity": 1
        },
        {
          "duration": 0.013888866666668775,
          "durationTicks": 4,
          "midi": 42,
          "name": "F#2",
          "ticks": 12601,
          "time": 43.753402216666665,
          "velocity": 1
        },
        {
          "duration": 0.013888866666668775,
          "durationTicks": 4,
          "midi": 46,
          "name": "A#2",
          "ticks": 12681,
          "time": 44.03117955,
          "velocity": 1
        },
        {
          "duration": 0.01388886666666167,
          "durationTicks": 4,
          "midi": 36,
          "name": "C2",
          "ticks": 12721,
          "time": 44.17006821666667,
          "velocity": 1
        },
        {
          "duration": 0.01388886666666167,
          "durationTicks": 4,
          "midi": 42,
          "name": "F#2",
          "ticks": 12721,
          "time": 44.17006821666667,
          "velocity": 1
        },
        {
          "duration": 0.013888866666668775,
          "durationTicks": 4,
          "midi": 42,
          "name": "F#2",
          "ticks": 12801,
          "time": 44.44784555,
          "velocity": 0.5590551181102362
        },
        {
          "duration": 0.017361083333327088,
          "durationTicks": 5,
          "midi": 36,
          "name": "C2",
          "ticks": 12841,
          "time": 44.58673421666667,
          "velocity": 1
        },
        {
          "duration": 0.01388886666666167,
          "durationTicks": 4,
          "midi": 38,
          "name": "D2",
          "ticks": 12841,
          "time": 44.58673421666667,
          "velocity": 1
        },
        {
          "duration": 0.01388886666666167,
          "durationTicks": 4,
          "midi": 42,
          "name": "F#2",
          "ticks": 12841,
          "time": 44.58673421666667,
          "velocity": 1
        },
        {
          "duration": 0.013888866666668775,
          "durationTicks": 4,
          "midi": 42,
          "name": "F#2",
          "ticks": 12921,
          "time": 44.864511549999996,
          "velocity": 0.5590551181102362
        },
        {
          "duration": 0.01388886666666167,
          "durationTicks": 4,
          "midi": 36,
          "name": "C2",
          "ticks": 12961,
          "time": 45.00340021666667,
          "velocity": 1
        },
        {
          "duration": 0.01388886666666167,
          "durationTicks": 4,
          "midi": 42,
          "name": "F#2",
          "ticks": 12961,
          "time": 45.00340021666667,
          "velocity": 1
        },
        {
          "duration": 0.013888866666668775,
          "durationTicks": 4,
          "midi": 42,
          "name": "F#2",
          "ticks": 13041,
          "time": 45.281177549999995,
          "velocity": 0.5590551181102362
        },
        {
          "duration": 0.01388886666666167,
          "durationTicks": 4,
          "midi": 36,
          "name": "C2",
          "ticks": 13081,
          "time": 45.42006621666667,
          "velocity": 1
        },
        {
          "duration": 0.01388886666666167,
          "durationTicks": 4,
          "midi": 38,
          "name": "D2",
          "ticks": 13081,
          "time": 45.42006621666667,
          "velocity": 1
        },
        {
          "duration": 0.01388886666666167,
          "durationTicks": 4,
          "midi": 42,
          "name": "F#2",
          "ticks": 13082,
          "time": 45.423538433333334,
          "velocity": 1
        },
        {
          "duration": 0.013888866666668775,
          "durationTicks": 4,
          "midi": 42,
          "name": "F#2",
          "ticks": 13161,
          "time": 45.697843549999995,
          "velocity": 0.5590551181102362
        },
        {
          "duration": 0.01388886666666167,
          "durationTicks": 4,
          "midi": 36,
          "name": "C2",
          "ticks": 13201,
          "time": 45.83673221666667,
          "velocity": 1
        },
        {
          "duration": 0.01388886666666167,
          "durationTicks": 4,
          "midi": 42,
          "name": "F#2",
          "ticks": 13201,
          "time": 45.83673221666667,
          "velocity": 1
        },
        {
          "duration": 0.013888866666668775,
          "durationTicks": 4,
          "midi": 42,
          "name": "F#2",
          "ticks": 13281,
          "time": 46.114509549999994,
          "velocity": 0.5590551181102362
        },
        {
          "duration": 0.013888866666668775,
          "durationTicks": 4,
          "midi": 36,
          "name": "C2",
          "ticks": 13321,
          "time": 46.25339821666667,
          "velocity": 1
        },
        {
          "duration": 0.013888866666668775,
          "durationTicks": 4,
          "midi": 38,
          "name": "D2",
          "ticks": 13321,
          "time": 46.25339821666667,
          "velocity": 1
        },
        {
          "duration": 0.013888866666668775,
          "durationTicks": 4,
          "midi": 42,
          "name": "F#2",
          "ticks": 13321,
          "time": 46.25339821666667,
          "velocity": 1
        },
        {
          "duration": 0.013888866666668775,
          "durationTicks": 4,
          "midi": 42,
          "name": "F#2",
          "ticks": 13401,
          "time": 46.53117554999999,
          "velocity": 0.5590551181102362
        },
        {
          "duration": 0.013888866666668775,
          "durationTicks": 4,
          "midi": 36,
          "name": "C2",
          "ticks": 13441,
          "time": 46.67006421666667,
          "velocity": 1
        },
        {
          "duration": 0.013888866666668775,
          "durationTicks": 4,
          "midi": 42,
          "name": "F#2",
          "ticks": 13441,
          "time": 46.67006421666667,
          "velocity": 1
        },
        {
          "duration": 0.017361083333334193,
          "durationTicks": 5,
          "midi": 42,
          "name": "F#2",
          "ticks": 13521,
          "time": 46.94784155,
          "velocity": 0.5590551181102362
        },
        {
          "duration": 0.013888866666668775,
          "durationTicks": 4,
          "midi": 36,
          "name": "C2",
          "ticks": 13561,
          "time": 47.086730216666666,
          "velocity": 1
        },
        {
          "duration": 0.013888866666668775,
          "durationTicks": 4,
          "midi": 38,
          "name": "D2",
          "ticks": 13561,
          "time": 47.086730216666666,
          "velocity": 1
        },
        {
          "duration": 0.013888866666668775,
          "durationTicks": 4,
          "midi": 42,
          "name": "F#2",
          "ticks": 13561,
          "time": 47.086730216666666,
          "velocity": 1
        },
        {
          "duration": 0.01388886666666167,
          "durationTicks": 4,
          "midi": 46,
          "name": "A#2",
          "ticks": 13641,
          "time": 47.36450755,
          "velocity": 1
        },
        {
          "duration": 0.017361083333334193,
          "durationTicks": 5,
          "midi": 36,
          "name": "C2",
          "ticks": 13681,
          "time": 47.503396216666665,
          "velocity": 1
        },
        {
          "duration": 0.013888866666668775,
          "durationTicks": 4,
          "midi": 42,
          "name": "F#2",
          "ticks": 13681,
          "time": 47.503396216666665,
          "velocity": 1
        },
        {
          "duration": 0.01388886666666167,
          "durationTicks": 4,
          "midi": 42,
          "name": "F#2",
          "ticks": 13761,
          "time": 47.78117355,
          "velocity": 0.5590551181102362
        },
        {
          "duration": 0.013888866666668775,
          "durationTicks": 4,
          "midi": 36,
          "name": "C2",
          "ticks": 13801,
          "time": 47.920062216666665,
          "velocity": 1
        },
        {
          "duration": 0.013888866666668775,
          "durationTicks": 4,
          "midi": 38,
          "name": "D2",
          "ticks": 13801,
          "time": 47.920062216666665,
          "velocity": 1
        },
        {
          "duration": 0.013888866666668775,
          "durationTicks": 4,
          "midi": 42,
          "name": "F#2",
          "ticks": 13801,
          "time": 47.920062216666665,
          "velocity": 1
        },
        {
          "duration": 0.01388886666666167,
          "durationTicks": 4,
          "midi": 46,
          "name": "A#2",
          "ticks": 13881,
          "time": 48.19783955,
          "velocity": 1
        },
        {
          "duration": 0.013888866666668775,
          "durationTicks": 4,
          "midi": 36,
          "name": "C2",
          "ticks": 13921,
          "time": 48.336728216666664,
          "velocity": 1
        },
        {
          "duration": 0.010416650000003358,
          "durationTicks": 3,
          "midi": 38,
          "name": "D2",
          "ticks": 13922,
          "time": 48.34020043333333,
          "velocity": 1
        },
        {
          "duration": 0.010416650000003358,
          "durationTicks": 3,
          "midi": 42,
          "name": "F#2",
          "ticks": 13922,
          "time": 48.34020043333333,
          "velocity": 1
        },
        {
          "duration": 0.013888866666668775,
          "durationTicks": 4,
          "midi": 42,
          "name": "F#2",
          "ticks": 14001,
          "time": 48.61450555,
          "velocity": 0.5590551181102362
        },
        {
          "duration": 0.013888866666668775,
          "durationTicks": 4,
          "midi": 48,
          "name": "C3",
          "ticks": 14001,
          "time": 48.61450555,
          "velocity": 1
        },
        {
          "duration": 0.01388886666666167,
          "durationTicks": 4,
          "midi": 36,
          "name": "C2",
          "ticks": 14041,
          "time": 48.75339421666667,
          "velocity": 1
        },
        {
          "duration": 0.01388886666666167,
          "durationTicks": 4,
          "midi": 38,
          "name": "D2",
          "ticks": 14041,
          "time": 48.75339421666667,
          "velocity": 0.3228346456692913
        },
        {
          "duration": 0.01388886666666167,
          "durationTicks": 4,
          "midi": 42,
          "name": "F#2",
          "ticks": 14041,
          "time": 48.75339421666667,
          "velocity": 1
        },
        {
          "duration": 0.013888866666668775,
          "durationTicks": 4,
          "midi": 41,
          "name": "F2",
          "ticks": 14081,
          "time": 48.89228288333333,
          "velocity": 1
        },
        {
          "duration": 0.017361083333334193,
          "durationTicks": 5,
          "midi": 38,
          "name": "D2",
          "ticks": 14121,
          "time": 49.031171549999996,
          "velocity": 0.3228346456692913
        },
        {
          "duration": 0.013888866666668775,
          "durationTicks": 4,
          "midi": 42,
          "name": "F#2",
          "ticks": 14121,
          "time": 49.031171549999996,
          "velocity": 0.5590551181102362
        },
        {
          "duration": 0.017361083333327088,
          "durationTicks": 5,
          "midi": 36,
          "name": "C2",
          "ticks": 14161,
          "time": 49.17006021666667,
          "velocity": 1
        },
        {
          "duration": 0.01388886666666167,
          "durationTicks": 4,
          "midi": 42,
          "name": "F#2",
          "ticks": 14161,
          "time": 49.17006021666667,
          "velocity": 1
        },
        {
          "duration": 0.01388886666666167,
          "durationTicks": 4,
          "midi": 45,
          "name": "A2",
          "ticks": 14161,
          "time": 49.17006021666667,
          "velocity": 1
        },
        {
          "duration": 0.013888866666668775,
          "durationTicks": 4,
          "midi": 38,
          "name": "D2",
          "ticks": 14201,
          "time": 49.30894888333333,
          "velocity": 0.3228346456692913
        },
        {
          "duration": 0.013888866666668775,
          "durationTicks": 4,
          "midi": 42,
          "name": "F#2",
          "ticks": 14241,
          "time": 49.447837549999996,
          "velocity": 0.5590551181102362
        },
        {
          "duration": 0.013888866666668775,
          "durationTicks": 4,
          "midi": 48,
          "name": "C3",
          "ticks": 14241,
          "time": 49.447837549999996,
          "velocity": 1
        },
        {
          "duration": 0.01388886666666167,
          "durationTicks": 4,
          "midi": 36,
          "name": "C2",
          "ticks": 14281,
          "time": 49.58672621666667,
          "velocity": 1
        },
        {
          "duration": 0.01388886666666167,
          "durationTicks": 4,
          "midi": 38,
          "name": "D2",
          "ticks": 14281,
          "time": 49.58672621666667,
          "velocity": 1
        },
        {
          "duration": 0.013888866666668775,
          "durationTicks": 4,
          "midi": 42,
          "name": "F#2",
          "ticks": 14282,
          "time": 49.59019843333333,
          "velocity": 1
        },
        {
          "duration": 0.0173610833333413,
          "durationTicks": 5,
          "midi": 38,
          "name": "D2",
          "ticks": 14321,
          "time": 49.72561488333333,
          "velocity": 1
        },
        {
          "duration": 0.013888866666668775,
          "durationTicks": 4,
          "midi": 38,
          "name": "D2",
          "ticks": 14361,
          "time": 49.864503549999995,
          "velocity": 1
        },
        {
          "duration": 0.013888866666668775,
          "durationTicks": 4,
          "midi": 42,
          "name": "F#2",
          "ticks": 14361,
          "time": 49.864503549999995,
          "velocity": 0.5590551181102362
        },
        {
          "duration": 0.01388886666666167,
          "durationTicks": 4,
          "midi": 36,
          "name": "C2",
          "ticks": 14401,
          "time": 50.00339221666667,
          "velocity": 1
        },
        {
          "duration": 0.01388886666666167,
          "durationTicks": 4,
          "midi": 42,
          "name": "F#2",
          "ticks": 14401,
          "time": 50.00339221666667,
          "velocity": 1
        },
        {
          "duration": 0.01388886666666167,
          "durationTicks": 4,
          "midi": 49,
          "name": "C#3",
          "ticks": 14401,
          "time": 50.00339221666667,
          "velocity": 1
        },
        {
          "duration": 0.017361083333334193,
          "durationTicks": 5,
          "midi": 42,
          "name": "F#2",
          "ticks": 14481,
          "time": 50.281169549999994,
          "velocity": 0.5590551181102362
        },
        {
          "duration": 0.013888866666668775,
          "durationTicks": 4,
          "midi": 36,
          "name": "C2",
          "ticks": 14521,
          "time": 50.42005821666667,
          "velocity": 1
        },
        {
          "duration": 0.013888866666668775,
          "durationTicks": 4,
          "midi": 38,
          "name": "D2",
          "ticks": 14521,
          "time": 50.42005821666667,
          "velocity": 1
        },
        {
          "duration": 0.013888866666668775,
          "durationTicks": 4,
          "midi": 42,
          "name": "F#2",
          "ticks": 14521,
          "time": 50.42005821666667,
          "velocity": 1
        },
        {
          "duration": 0.013888866666668775,
          "durationTicks": 4,
          "midi": 46,
          "name": "A#2",
          "ticks": 14601,
          "time": 50.69783554999999,
          "velocity": 1
        },
        {
          "duration": 0.017361083333327088,
          "durationTicks": 5,
          "midi": 36,
          "name": "C2",
          "ticks": 14641,
          "time": 50.83672421666667,
          "velocity": 1
        },
        {
          "duration": 0.013888866666668775,
          "durationTicks": 4,
          "midi": 42,
          "name": "F#2",
          "ticks": 14641,
          "time": 50.83672421666667,
          "velocity": 1
        },
        {
          "duration": 0.01388886666666167,
          "durationTicks": 4,
          "midi": 42,
          "name": "F#2",
          "ticks": 14721,
          "time": 51.11450155,
          "velocity": 0.5590551181102362
        },
        {
          "duration": 0.013888866666668775,
          "durationTicks": 4,
          "midi": 36,
          "name": "C2",
          "ticks": 14761,
          "time": 51.253390216666666,
          "velocity": 1
        },
        {
          "duration": 0.01388886666666167,
          "durationTicks": 4,
          "midi": 38,
          "name": "D2",
          "ticks": 14762,
          "time": 51.25686243333333,
          "velocity": 1
        },
        {
          "duration": 0.01388886666666167,
          "durationTicks": 4,
          "midi": 42,
          "name": "F#2",
          "ticks": 14762,
          "time": 51.25686243333333,
          "velocity": 1
        },
        {
          "duration": 0.01388886666666167,
          "durationTicks": 4,
          "midi": 42,
          "name": "F#2",
          "ticks": 14841,
          "time": 51.53116755,
          "velocity": 0.5590551181102362
        },
        {
          "duration": 0.013888866666668775,
          "durationTicks": 4,
          "midi": 36,
          "name": "C2",
          "ticks": 14881,
          "time": 51.670056216666666,
          "velocity": 1
        },
        {
          "duration": 0.013888866666668775,
          "durationTicks": 4,
          "midi": 42,
          "name": "F#2",
          "ticks": 14881,
          "time": 51.670056216666666,
          "velocity": 1
        },
        {
          "duration": 0.01388886666666167,
          "durationTicks": 4,
          "midi": 42,
          "name": "F#2",
          "ticks": 14961,
          "time": 51.94783355,
          "velocity": 0.5590551181102362
        },
        {
          "duration": 0.013888866666668775,
          "durationTicks": 4,
          "midi": 36,
          "name": "C2",
          "ticks": 15001,
          "time": 52.086722216666665,
          "velocity": 1
        },
        {
          "duration": 0.013888866666668775,
          "durationTicks": 4,
          "midi": 38,
          "name": "D2",
          "ticks": 15001,
          "time": 52.086722216666665,
          "velocity": 1
        },
        {
          "duration": 0.013888866666668775,
          "durationTicks": 4,
          "midi": 42,
          "name": "F#2",
          "ticks": 15001,
          "time": 52.086722216666665,
          "velocity": 1
        },
        {
          "duration": 0.01388886666666167,
          "durationTicks": 4,
          "midi": 42,
          "name": "F#2",
          "ticks": 15081,
          "time": 52.36449955,
          "velocity": 0.5590551181102362
        },
        {
          "duration": 0.013888866666668775,
          "durationTicks": 4,
          "midi": 36,
          "name": "C2",
          "ticks": 15121,
          "time": 52.503388216666664,
          "velocity": 1
        },
        {
          "duration": 0.013888866666668775,
          "durationTicks": 4,
          "midi": 49,
          "name": "C#3",
          "ticks": 15121,
          "time": 52.503388216666664,
          "velocity": 1
        },
        {
          "duration": 0.013888866666668775,
          "durationTicks": 4,
          "midi": 46,
          "name": "A#2",
          "ticks": 15121,
          "time": 52.503388216666664,
          "velocity": 1
        },
        {
          "duration": 0.01388886666666167,
          "durationTicks": 4,
          "midi": 42,
          "name": "F#2",
          "ticks": 15201,
          "time": 52.78116555,
          "velocity": 0.5590551181102362
        },
        {
          "duration": 0.017361083333334193,
          "durationTicks": 5,
          "midi": 36,
          "name": "C2",
          "ticks": 15241,
          "time": 52.920054216666664,
          "velocity": 1
        },
        {
          "duration": 0.013888866666668775,
          "durationTicks": 4,
          "midi": 38,
          "name": "D2",
          "ticks": 15241,
          "time": 52.920054216666664,
          "velocity": 1
        },
        {
          "duration": 0.013888866666668775,
          "durationTicks": 4,
          "midi": 49,
          "name": "C#3",
          "ticks": 15241,
          "time": 52.920054216666664,
          "velocity": 1
        },
        {
          "duration": 0.013888866666668775,
          "durationTicks": 4,
          "midi": 46,
          "name": "A#2",
          "ticks": 15241,
          "time": 52.920054216666664,
          "velocity": 1
        },
        {
          "duration": 0.013888866666668775,
          "durationTicks": 4,
          "midi": 42,
          "name": "F#2",
          "ticks": 15321,
          "time": 53.19783155,
          "velocity": 0.5590551181102362
        },
        {
          "duration": 0.01388886666666167,
          "durationTicks": 4,
          "midi": 36,
          "name": "C2",
          "ticks": 15361,
          "time": 53.33672021666666,
          "velocity": 1
        },
        {
          "duration": 0.01388886666666167,
          "durationTicks": 4,
          "midi": 42,
          "name": "F#2",
          "ticks": 15361,
          "time": 53.33672021666666,
          "velocity": 1
        },
        {
          "duration": 0.01388886666666167,
          "durationTicks": 4,
          "midi": 42,
          "name": "F#2",
          "ticks": 15441,
          "time": 53.61449755,
          "velocity": 0.5590551181102362
        },
        {
          "duration": 0.01388886666666167,
          "durationTicks": 4,
          "midi": 36,
          "name": "C2",
          "ticks": 15481,
          "time": 53.75338621666666,
          "velocity": 1
        },
        {
          "duration": 0.01388886666666167,
          "durationTicks": 4,
          "midi": 38,
          "name": "D2",
          "ticks": 15481,
          "time": 53.75338621666666,
          "velocity": 1
        },
        {
          "duration": 0.013888866666668775,
          "durationTicks": 4,
          "midi": 42,
          "name": "F#2",
          "ticks": 15482,
          "time": 53.756858433333335,
          "velocity": 1
        },
        {
          "duration": 0.013888866666668775,
          "durationTicks": 4,
          "midi": 46,
          "name": "A#2",
          "ticks": 15561,
          "time": 54.03116355,
          "velocity": 1
        },
        {
          "duration": 0.013888866666668775,
          "durationTicks": 4,
          "midi": 36,
          "name": "C2",
          "ticks": 15601,
          "time": 54.17005221666666,
          "velocity": 1
        },
        {
          "duration": 0.013888866666668775,
          "durationTicks": 4,
          "midi": 42,
          "name": "F#2",
          "ticks": 15601,
          "time": 54.17005221666666,
          "velocity": 1
        },
        {
          "duration": 0.013888866666668775,
          "durationTicks": 4,
          "midi": 42,
          "name": "F#2",
          "ticks": 15681,
          "time": 54.44782955,
          "velocity": 0.5590551181102362
        },
        {
          "duration": 0.013888866666668775,
          "durationTicks": 4,
          "midi": 36,
          "name": "C2",
          "ticks": 15721,
          "time": 54.58671821666666,
          "velocity": 1
        },
        {
          "duration": 0.013888866666668775,
          "durationTicks": 4,
          "midi": 38,
          "name": "D2",
          "ticks": 15721,
          "time": 54.58671821666666,
          "velocity": 1
        },
        {
          "duration": 0.013888866666668775,
          "durationTicks": 4,
          "midi": 42,
          "name": "F#2",
          "ticks": 15721,
          "time": 54.58671821666666,
          "velocity": 1
        },
        {
          "duration": 0.017361083333334193,
          "durationTicks": 5,
          "midi": 42,
          "name": "F#2",
          "ticks": 15801,
          "time": 54.86449555,
          "velocity": 0.5590551181102362
        },
        {
          "duration": 0.013888866666668775,
          "durationTicks": 4,
          "midi": 36,
          "name": "C2",
          "ticks": 15841,
          "time": 55.00338421666666,
          "velocity": 1
        },
        {
          "duration": 0.013888866666668775,
          "durationTicks": 4,
          "midi": 42,
          "name": "F#2",
          "ticks": 15841,
          "time": 55.00338421666666,
          "velocity": 1
        },
        {
          "duration": 0.013888866666668775,
          "durationTicks": 4,
          "midi": 42,
          "name": "F#2",
          "ticks": 15921,
          "time": 55.28116155,
          "velocity": 0.5590551181102362
        },
        {
          "duration": 0.0173610833333413,
          "durationTicks": 5,
          "midi": 36,
          "name": "C2",
          "ticks": 15961,
          "time": 55.42005021666666,
          "velocity": 1
        },
        {
          "duration": 0.013888866666668775,
          "durationTicks": 4,
          "midi": 38,
          "name": "D2",
          "ticks": 15961,
          "time": 55.42005021666666,
          "velocity": 1
        },
        {
          "duration": 0.013888866666668775,
          "durationTicks": 4,
          "midi": 42,
          "name": "F#2",
          "ticks": 15961,
          "time": 55.42005021666666,
          "velocity": 1
        },
        {
          "duration": 0.013888866666668775,
          "durationTicks": 4,
          "midi": 38,
          "name": "D2",
          "ticks": 16041,
          "time": 55.69782755,
          "velocity": 1
        },
        {
          "duration": 0.013888866666668775,
          "durationTicks": 4,
          "midi": 42,
          "name": "F#2",
          "ticks": 16041,
          "time": 55.69782755,
          "velocity": 0.5590551181102362
        },
        {
          "duration": 0.013888866666668775,
          "durationTicks": 4,
          "midi": 36,
          "name": "C2",
          "ticks": 16081,
          "time": 55.83671621666666,
          "velocity": 1
        },
        {
          "duration": 0.01388886666666167,
          "durationTicks": 4,
          "midi": 49,
          "name": "C#3",
          "ticks": 16082,
          "time": 55.84018843333334,
          "velocity": 1
        },
        {
          "duration": 0.01388886666666167,
          "durationTicks": 4,
          "midi": 46,
          "name": "A#2",
          "ticks": 16082,
          "time": 55.84018843333334,
          "velocity": 1
        },
        {
          "duration": 0.013888866666668775,
          "durationTicks": 4,
          "midi": 42,
          "name": "F#2",
          "ticks": 16161,
          "time": 56.11449355,
          "velocity": 0.5590551181102362
        },
        {
          "duration": 0.013888866666668775,
          "durationTicks": 4,
          "midi": 36,
          "name": "C2",
          "ticks": 16201,
          "time": 56.25338221666666,
          "velocity": 1
        },
        {
          "duration": 0.010416649999989147,
          "durationTicks": 3,
          "midi": 38,
          "name": "D2",
          "ticks": 16202,
          "time": 56.25685443333334,
          "velocity": 1
        },
        {
          "duration": 0.01388886666666167,
          "durationTicks": 4,
          "midi": 49,
          "name": "C#3",
          "ticks": 16202,
          "time": 56.25685443333334,
          "velocity": 1
        },
        {
          "duration": 0.01388886666666167,
          "durationTicks": 4,
          "midi": 46,
          "name": "A#2",
          "ticks": 16202,
          "time": 56.25685443333334,
          "velocity": 1
        },
        {
          "duration": 0.01388886666666167,
          "durationTicks": 4,
          "midi": 42,
          "name": "F#2",
          "ticks": 16281,
          "time": 56.531159550000005,
          "velocity": 0.5590551181102362
        },
        {
          "duration": 0.013888866666668775,
          "durationTicks": 4,
          "midi": 36,
          "name": "C2",
          "ticks": 16321,
          "time": 56.67004821666666,
          "velocity": 1
        },
        {
          "duration": 0.013888866666668775,
          "durationTicks": 4,
          "midi": 42,
          "name": "F#2",
          "ticks": 16321,
          "time": 56.67004821666666,
          "velocity": 1
        },
        {
          "duration": 0.013888866666668775,
          "durationTicks": 4,
          "midi": 49,
          "name": "C#3",
          "ticks": 16321,
          "time": 56.67004821666666,
          "velocity": 1
        },
        {
          "duration": 0.01388886666666167,
          "durationTicks": 4,
          "midi": 42,
          "name": "F#2",
          "ticks": 16401,
          "time": 56.947825550000005,
          "velocity": 0.5590551181102362
        },
        {
          "duration": 0.01388886666666167,
          "durationTicks": 4,
          "midi": 36,
          "name": "C2",
          "ticks": 16441,
          "time": 57.086714216666664,
          "velocity": 1
        },
        {
          "duration": 0.01388886666666167,
          "durationTicks": 4,
          "midi": 38,
          "name": "D2",
          "ticks": 16441,
          "time": 57.086714216666664,
          "velocity": 1
        },
        {
          "duration": 0.01388886666666167,
          "durationTicks": 4,
          "midi": 42,
          "name": "F#2",
          "ticks": 16441,
          "time": 57.086714216666664,
          "velocity": 1
        },
        {
          "duration": 0.017361083333327088,
          "durationTicks": 5,
          "midi": 46,
          "name": "A#2",
          "ticks": 16521,
          "time": 57.364491550000004,
          "velocity": 1
        },
        {
          "duration": 0.01388886666666167,
          "durationTicks": 4,
          "midi": 36,
          "name": "C2",
          "ticks": 16561,
          "time": 57.50338021666666,
          "velocity": 1
        },
        {
          "duration": 0.01388886666666167,
          "durationTicks": 4,
          "midi": 42,
          "name": "F#2",
          "ticks": 16561,
          "time": 57.50338021666666,
          "velocity": 1
        },
        {
          "duration": 0.01388886666666167,
          "durationTicks": 4,
          "midi": 42,
          "name": "F#2",
          "ticks": 16641,
          "time": 57.78115755,
          "velocity": 0.5590551181102362
        },
        {
          "duration": 0.0173610833333413,
          "durationTicks": 5,
          "midi": 36,
          "name": "C2",
          "ticks": 16681,
          "time": 57.92004621666666,
          "velocity": 1
        },
        {
          "duration": 0.01388886666666167,
          "durationTicks": 4,
          "midi": 38,
          "name": "D2",
          "ticks": 16681,
          "time": 57.92004621666666,
          "velocity": 1
        },
        {
          "duration": 0.01388886666666167,
          "durationTicks": 4,
          "midi": 42,
          "name": "F#2",
          "ticks": 16681,
          "time": 57.92004621666666,
          "velocity": 1
        },
        {
          "duration": 0.013888866666668775,
          "durationTicks": 4,
          "midi": 42,
          "name": "F#2",
          "ticks": 16761,
          "time": 58.19782355,
          "velocity": 0.5590551181102362
        },
        {
          "duration": 0.01388886666666167,
          "durationTicks": 4,
          "midi": 36,
          "name": "C2",
          "ticks": 16801,
          "time": 58.33671221666666,
          "velocity": 1
        },
        {
          "duration": 0.013888866666668775,
          "durationTicks": 4,
          "midi": 42,
          "name": "F#2",
          "ticks": 16802,
          "time": 58.340184433333334,
          "velocity": 1
        },
        {
          "duration": 0.013888866666668775,
          "durationTicks": 4,
          "midi": 42,
          "name": "F#2",
          "ticks": 16881,
          "time": 58.61448955,
          "velocity": 0.5590551181102362
        },
        {
          "duration": 0.013888866666668775,
          "durationTicks": 4,
          "midi": 36,
          "name": "C2",
          "ticks": 16921,
          "time": 58.75337821666666,
          "velocity": 1
        },
        {
          "duration": 0.013888866666668775,
          "durationTicks": 4,
          "midi": 38,
          "name": "D2",
          "ticks": 16921,
          "time": 58.75337821666666,
          "velocity": 1
        },
        {
          "duration": 0.013888866666668775,
          "durationTicks": 4,
          "midi": 42,
          "name": "F#2",
          "ticks": 16922,
          "time": 58.756850433333334,
          "velocity": 1
        },
        {
          "duration": 0.013888866666668775,
          "durationTicks": 4,
          "midi": 42,
          "name": "F#2",
          "ticks": 17001,
          "time": 59.03115555,
          "velocity": 0.5590551181102362
        },
        {
          "duration": 0.013888866666668775,
          "durationTicks": 4,
          "midi": 36,
          "name": "C2",
          "ticks": 17041,
          "time": 59.17004421666666,
          "velocity": 1
        },
        {
          "duration": 0.013888866666668775,
          "durationTicks": 4,
          "midi": 42,
          "name": "F#2",
          "ticks": 17041,
          "time": 59.17004421666666,
          "velocity": 1
        },
        {
          "duration": 0.017361083333334193,
          "durationTicks": 5,
          "midi": 42,
          "name": "F#2",
          "ticks": 17121,
          "time": 59.44782155,
          "velocity": 0.5590551181102362
        },
        {
          "duration": 0.013888866666668775,
          "durationTicks": 4,
          "midi": 36,
          "name": "C2",
          "ticks": 17161,
          "time": 59.58671021666666,
          "velocity": 1
        },
        {
          "duration": 0.013888866666668775,
          "durationTicks": 4,
          "midi": 38,
          "name": "D2",
          "ticks": 17161,
          "time": 59.58671021666666,
          "velocity": 1
        },
        {
          "duration": 0.013888866666668775,
          "durationTicks": 4,
          "midi": 42,
          "name": "F#2",
          "ticks": 17161,
          "time": 59.58671021666666,
          "velocity": 1
        },
        {
          "duration": 0.013888866666668775,
          "durationTicks": 4,
          "midi": 42,
          "name": "F#2",
          "ticks": 17241,
          "time": 59.86448755,
          "velocity": 0.5590551181102362
        },
        {
          "duration": 0.0173610833333413,
          "durationTicks": 5,
          "midi": 36,
          "name": "C2",
          "ticks": 17281,
          "time": 60.00337621666666,
          "velocity": 1
        },
        {
          "duration": 0.013888866666668775,
          "durationTicks": 4,
          "midi": 42,
          "name": "F#2",
          "ticks": 17281,
          "time": 60.00337621666666,
          "velocity": 1
        },
        {
          "duration": 0.013888866666668775,
          "durationTicks": 4,
          "midi": 42,
          "name": "F#2",
          "ticks": 17361,
          "time": 60.28115355,
          "velocity": 0.5590551181102362
        },
        {
          "duration": 0.0173610833333413,
          "durationTicks": 5,
          "midi": 36,
          "name": "C2",
          "ticks": 17401,
          "time": 60.42004221666666,
          "velocity": 1
        },
        {
          "duration": 0.013888866666668775,
          "durationTicks": 4,
          "midi": 38,
          "name": "D2",
          "ticks": 17401,
          "time": 60.42004221666666,
          "velocity": 1
        },
        {
          "duration": 0.013888866666668775,
          "durationTicks": 4,
          "midi": 42,
          "name": "F#2",
          "ticks": 17401,
          "time": 60.42004221666666,
          "velocity": 1
        },
        {
          "duration": 0.013888866666668775,
          "durationTicks": 4,
          "midi": 46,
          "name": "A#2",
          "ticks": 17481,
          "time": 60.69781955,
          "velocity": 1
        },
        {
          "duration": 0.013888866666668775,
          "durationTicks": 4,
          "midi": 36,
          "name": "C2",
          "ticks": 17521,
          "time": 60.83670821666666,
          "velocity": 1
        },
        {
          "duration": 0.013888866666668775,
          "durationTicks": 4,
          "midi": 42,
          "name": "F#2",
          "ticks": 17521,
          "time": 60.83670821666666,
          "velocity": 1
        },
        {
          "duration": 0.01388886666666167,
          "durationTicks": 4,
          "midi": 42,
          "name": "F#2",
          "ticks": 17601,
          "time": 61.114485550000005,
          "velocity": 0.5590551181102362
        },
        {
          "duration": 0.01388886666666167,
          "durationTicks": 4,
          "midi": 36,
          "name": "C2",
          "ticks": 17641,
          "time": 61.253374216666664,
          "velocity": 1
        },
        {
          "duration": 0.01388886666666167,
          "durationTicks": 4,
          "midi": 38,
          "name": "D2",
          "ticks": 17641,
          "time": 61.253374216666664,
          "velocity": 1
        },
        {
          "duration": 0.013888866666668775,
          "durationTicks": 4,
          "midi": 42,
          "name": "F#2",
          "ticks": 17642,
          "time": 61.25684643333334,
          "velocity": 1
        },
        {
          "duration": 0.01388886666666167,
          "durationTicks": 4,
          "midi": 42,
          "name": "F#2",
          "ticks": 17721,
          "time": 61.531151550000004,
          "velocity": 0.5590551181102362
        },
        {
          "duration": 0.01388886666666167,
          "durationTicks": 4,
          "midi": 36,
          "name": "C2",
          "ticks": 17761,
          "time": 61.67004021666666,
          "velocity": 1
        },
        {
          "duration": 0.01388886666666167,
          "durationTicks": 4,
          "midi": 42,
          "name": "F#2",
          "ticks": 17761,
          "time": 61.67004021666666,
          "velocity": 1
        },
        {
          "duration": 0.01388886666666167,
          "durationTicks": 4,
          "midi": 42,
          "name": "F#2",
          "ticks": 17841,
          "time": 61.94781755,
          "velocity": 0.5590551181102362
        },
        {
          "duration": 0.0173610833333413,
          "durationTicks": 5,
          "midi": 36,
          "name": "C2",
          "ticks": 17881,
          "time": 62.08670621666666,
          "velocity": 1
        },
        {
          "duration": 0.0173610833333413,
          "durationTicks": 5,
          "midi": 38,
          "name": "D2",
          "ticks": 17881,
          "time": 62.08670621666666,
          "velocity": 1
        },
        {
          "duration": 0.01388886666666167,
          "durationTicks": 4,
          "midi": 42,
          "name": "F#2",
          "ticks": 17881,
          "time": 62.08670621666666,
          "velocity": 1
        },
        {
          "duration": 0.01388886666666167,
          "durationTicks": 4,
          "midi": 42,
          "name": "F#2",
          "ticks": 17961,
          "time": 62.36448355,
          "velocity": 0.5590551181102362
        },
        {
          "duration": 0.0173610833333413,
          "durationTicks": 5,
          "midi": 36,
          "name": "C2",
          "ticks": 18001,
          "time": 62.50337221666666,
          "velocity": 1
        },
        {
          "duration": 0.0173610833333413,
          "durationTicks": 5,
          "midi": 42,
          "name": "F#2",
          "ticks": 18001,
          "time": 62.50337221666666,
          "velocity": 1
        },
        {
          "duration": 0.013888866666668775,
          "durationTicks": 4,
          "midi": 42,
          "name": "F#2",
          "ticks": 18081,
          "time": 62.78114955,
          "velocity": 0.5590551181102362
        },
        {
          "duration": 0.01388886666666167,
          "durationTicks": 4,
          "midi": 36,
          "name": "C2",
          "ticks": 18121,
          "time": 62.92003821666666,
          "velocity": 1
        },
        {
          "duration": 0.01388886666666167,
          "durationTicks": 4,
          "midi": 38,
          "name": "D2",
          "ticks": 18121,
          "time": 62.92003821666666,
          "velocity": 1
        },
        {
          "duration": 0.01388886666666167,
          "durationTicks": 4,
          "midi": 42,
          "name": "F#2",
          "ticks": 18121,
          "time": 62.92003821666666,
          "velocity": 1
        },
        {
          "duration": 0.013888866666668775,
          "durationTicks": 4,
          "midi": 42,
          "name": "F#2",
          "ticks": 18201,
          "time": 63.19781555,
          "velocity": 0.5590551181102362
        },
        {
          "duration": 0.013888866666668775,
          "durationTicks": 4,
          "midi": 36,
          "name": "C2",
          "ticks": 18241,
          "time": 63.33670421666666,
          "velocity": 1
        },
        {
          "duration": 0.013888866666668775,
          "durationTicks": 4,
          "midi": 42,
          "name": "F#2",
          "ticks": 18241,
          "time": 63.33670421666666,
          "velocity": 1
        },
        {
          "duration": 0.017361083333327088,
          "durationTicks": 5,
          "midi": 42,
          "name": "F#2",
          "ticks": 18321,
          "time": 63.61448155,
          "velocity": 0.5590551181102362
        },
        {
          "duration": 0.013888866666668775,
          "durationTicks": 4,
          "midi": 36,
          "name": "C2",
          "ticks": 18361,
          "time": 63.75337021666666,
          "velocity": 1
        },
        {
          "duration": 0.013888866666668775,
          "durationTicks": 4,
          "midi": 38,
          "name": "D2",
          "ticks": 18361,
          "time": 63.75337021666666,
          "velocity": 1
        },
        {
          "duration": 0.013888866666668775,
          "durationTicks": 4,
          "midi": 42,
          "name": "F#2",
          "ticks": 18361,
          "time": 63.75337021666666,
          "velocity": 1
        },
        {
          "duration": 0.01388886666666167,
          "durationTicks": 4,
          "midi": 46,
          "name": "A#2",
          "ticks": 18441,
          "time": 64.03114755,
          "velocity": 1
        },
        {
          "duration": 0.0173610833333413,
          "durationTicks": 5,
          "midi": 36,
          "name": "C2",
          "ticks": 18481,
          "time": 64.17003621666666,
          "velocity": 1
        },
        {
          "duration": 0.01388886666666167,
          "durationTicks": 4,
          "midi": 42,
          "name": "F#2",
          "ticks": 18481,
          "time": 64.17003621666666,
          "velocity": 1
        },
        {
          "duration": 0.01388886666666167,
          "durationTicks": 4,
          "midi": 42,
          "name": "F#2",
          "ticks": 18561,
          "time": 64.44781355,
          "velocity": 0.5590551181102362
        },
        {
          "duration": 0.01388886666666167,
          "durationTicks": 4,
          "midi": 36,
          "name": "C2",
          "ticks": 18601,
          "time": 64.58670221666667,
          "velocity": 1
        },
        {
          "duration": 0.01388886666666167,
          "durationTicks": 4,
          "midi": 38,
          "name": "D2",
          "ticks": 18601,
          "time": 64.58670221666667,
          "velocity": 1
        },
        {
          "duration": 0.01388886666666167,
          "durationTicks": 4,
          "midi": 42,
          "name": "F#2",
          "ticks": 18601,
          "time": 64.58670221666667,
          "velocity": 1
        },
        {
          "duration": 0.013888866666675881,
          "durationTicks": 4,
          "midi": 42,
          "name": "F#2",
          "ticks": 18681,
          "time": 64.86447955,
          "velocity": 0.5590551181102362
        },
        {
          "duration": 0.01388886666666167,
          "durationTicks": 4,
          "midi": 36,
          "name": "C2",
          "ticks": 18721,
          "time": 65.00336821666666,
          "velocity": 1
        },
        {
          "duration": 0.01388886666666167,
          "durationTicks": 4,
          "midi": 42,
          "name": "F#2",
          "ticks": 18721,
          "time": 65.00336821666666,
          "velocity": 1
        },
        {
          "duration": 0.01388886666666167,
          "durationTicks": 4,
          "midi": 42,
          "name": "F#2",
          "ticks": 18801,
          "time": 65.28114555,
          "velocity": 0.5590551181102362
        },
        {
          "duration": 0.01388886666666167,
          "durationTicks": 4,
          "midi": 36,
          "name": "C2",
          "ticks": 18841,
          "time": 65.42003421666666,
          "velocity": 1
        },
        {
          "duration": 0.01388886666666167,
          "durationTicks": 4,
          "midi": 38,
          "name": "D2",
          "ticks": 18841,
          "time": 65.42003421666666,
          "velocity": 1
        },
        {
          "duration": 0.010416649999996253,
          "durationTicks": 3,
          "midi": 42,
          "name": "F#2",
          "ticks": 18842,
          "time": 65.42350643333333,
          "velocity": 1
        },
        {
          "duration": 0.013888866666675881,
          "durationTicks": 4,
          "midi": 42,
          "name": "F#2",
          "ticks": 18921,
          "time": 65.69781155,
          "velocity": 0.5590551181102362
        },
        {
          "duration": 0.013888866666675881,
          "durationTicks": 4,
          "midi": 36,
          "name": "C2",
          "ticks": 18961,
          "time": 65.83670021666666,
          "velocity": 1
        },
        {
          "duration": 0.013888866666675881,
          "durationTicks": 4,
          "midi": 42,
          "name": "F#2",
          "ticks": 18961,
          "time": 65.83670021666666,
          "velocity": 1
        },
        {
          "duration": 0.01388886666666167,
          "durationTicks": 4,
          "midi": 42,
          "name": "F#2",
          "ticks": 19041,
          "time": 66.11447755,
          "velocity": 0.5590551181102362
        },
        {
          "duration": 0.01388886666666167,
          "durationTicks": 4,
          "midi": 36,
          "name": "C2",
          "ticks": 19081,
          "time": 66.25336621666666,
          "velocity": 1
        },
        {
          "duration": 0.01388886666666167,
          "durationTicks": 4,
          "midi": 38,
          "name": "D2",
          "ticks": 19081,
          "time": 66.25336621666666,
          "velocity": 1
        },
        {
          "duration": 0.01388886666666167,
          "durationTicks": 4,
          "midi": 42,
          "name": "F#2",
          "ticks": 19081,
          "time": 66.25336621666666,
          "velocity": 1
        },
        {
          "duration": 0.013888866666675881,
          "durationTicks": 4,
          "midi": 42,
          "name": "F#2",
          "ticks": 19161,
          "time": 66.53114355,
          "velocity": 0.5590551181102362
        },
        {
          "duration": 0.013888866666675881,
          "durationTicks": 4,
          "midi": 36,
          "name": "C2",
          "ticks": 19201,
          "time": 66.67003221666666,
          "velocity": 1
        },
        {
          "duration": 0.01388886666666167,
          "durationTicks": 4,
          "midi": 42,
          "name": "F#2",
          "ticks": 19202,
          "time": 66.67350443333333,
          "velocity": 1
        },
        {
          "duration": 0.01388886666666167,
          "durationTicks": 4,
          "midi": 42,
          "name": "F#2",
          "ticks": 19281,
          "time": 66.94780955,
          "velocity": 0.5590551181102362
        },
        {
          "duration": 0.01388886666666167,
          "durationTicks": 4,
          "midi": 36,
          "name": "C2",
          "ticks": 19321,
          "time": 67.08669821666666,
          "velocity": 1
        },
        {
          "duration": 0.010416649999982042,
          "durationTicks": 3,
          "midi": 38,
          "name": "D2",
          "ticks": 19322,
          "time": 67.09017043333334,
          "velocity": 1
        },
        {
          "duration": 0.01388886666666167,
          "durationTicks": 4,
          "midi": 42,
          "name": "F#2",
          "ticks": 19322,
          "time": 67.09017043333334,
          "velocity": 1
        },
        {
          "duration": 0.013888866666675881,
          "durationTicks": 4,
          "midi": 46,
          "name": "A#2",
          "ticks": 19401,
          "time": 67.36447555,
          "velocity": 1
        },
        {
          "duration": 0.013888866666675881,
          "durationTicks": 4,
          "midi": 36,
          "name": "C2",
          "ticks": 19441,
          "time": 67.50336421666665,
          "velocity": 1
        },
        {
          "duration": 0.01388886666666167,
          "durationTicks": 4,
          "midi": 42,
          "name": "F#2",
          "ticks": 19442,
          "time": 67.50683643333333,
          "velocity": 1
        },
        {
          "duration": 0.01388886666666167,
          "durationTicks": 4,
          "midi": 42,
          "name": "F#2",
          "ticks": 19521,
          "time": 67.78114155,
          "velocity": 0.5590551181102362
        },
        {
          "duration": 0.01388886666666167,
          "durationTicks": 4,
          "midi": 36,
          "name": "C2",
          "ticks": 19561,
          "time": 67.92003021666666,
          "velocity": 1
        },
        {
          "duration": 0.01388886666666167,
          "durationTicks": 4,
          "midi": 38,
          "name": "D2",
          "ticks": 19561,
          "time": 67.92003021666666,
          "velocity": 1
        },
        {
          "duration": 0.010416649999982042,
          "durationTicks": 3,
          "midi": 42,
          "name": "F#2",
          "ticks": 19562,
          "time": 67.92350243333334,
          "velocity": 1
        },
        {
          "duration": 0.01388886666666167,
          "durationTicks": 4,
          "midi": 42,
          "name": "F#2",
          "ticks": 19641,
          "time": 68.19780755000001,
          "velocity": 0.5590551181102362
        },
        {
          "duration": 0.01388886666666167,
          "durationTicks": 4,
          "midi": 36,
          "name": "C2",
          "ticks": 19681,
          "time": 68.33669621666667,
          "velocity": 1
        },
        {
          "duration": 0.01388886666666167,
          "durationTicks": 4,
          "midi": 42,
          "name": "F#2",
          "ticks": 19681,
          "time": 68.33669621666667,
          "velocity": 1
        },
        {
          "duration": 0.01388886666666167,
          "durationTicks": 4,
          "midi": 42,
          "name": "F#2",
          "ticks": 19761,
          "time": 68.61447355,
          "velocity": 0.5590551181102362
        },
        {
          "duration": 0.01388886666666167,
          "durationTicks": 4,
          "midi": 36,
          "name": "C2",
          "ticks": 19801,
          "time": 68.75336221666666,
          "velocity": 1
        },
        {
          "duration": 0.01388886666666167,
          "durationTicks": 4,
          "midi": 38,
          "name": "D2",
          "ticks": 19801,
          "time": 68.75336221666666,
          "velocity": 1
        },
        {
          "duration": 0.01388886666666167,
          "durationTicks": 4,
          "midi": 42,
          "name": "F#2",
          "ticks": 19801,
          "time": 68.75336221666666,
          "velocity": 1
        },
        {
          "duration": 0.01388886666666167,
          "durationTicks": 4,
          "midi": 42,
          "name": "F#2",
          "ticks": 19881,
          "time": 69.03113955,
          "velocity": 0.5590551181102362
        },
        {
          "duration": 0.0173610833333413,
          "durationTicks": 5,
          "midi": 36,
          "name": "C2",
          "ticks": 19921,
          "time": 69.17002821666667,
          "velocity": 1
        },
        {
          "duration": 0.01388886666666167,
          "durationTicks": 4,
          "midi": 42,
          "name": "F#2",
          "ticks": 19921,
          "time": 69.17002821666667,
          "velocity": 1
        },
        {
          "duration": 0.013888866666675881,
          "durationTicks": 4,
          "midi": 42,
          "name": "F#2",
          "ticks": 20001,
          "time": 69.44780555,
          "velocity": 0.5590551181102362
        },
        {
          "duration": 0.01388886666666167,
          "durationTicks": 4,
          "midi": 36,
          "name": "C2",
          "ticks": 20041,
          "time": 69.58669421666666,
          "velocity": 1
        },
        {
          "duration": 0.01388886666666167,
          "durationTicks": 4,
          "midi": 38,
          "name": "D2",
          "ticks": 20042,
          "time": 69.59016643333334,
          "velocity": 1
        },
        {
          "duration": 0.01388886666666167,
          "durationTicks": 4,
          "midi": 42,
          "name": "F#2",
          "ticks": 20042,
          "time": 69.59016643333334,
          "velocity": 1
        },
        {
          "duration": 0.01388886666666167,
          "durationTicks": 4,
          "midi": 42,
          "name": "F#2",
          "ticks": 20121,
          "time": 69.86447155,
          "velocity": 0.5590551181102362
        },
        {
          "duration": 0.01388886666666167,
          "durationTicks": 4,
          "midi": 36,
          "name": "C2",
          "ticks": 20161,
          "time": 70.00336021666666,
          "velocity": 1
        },
        {
          "duration": 0.01388886666666167,
          "durationTicks": 4,
          "midi": 42,
          "name": "F#2",
          "ticks": 20161,
          "time": 70.00336021666666,
          "velocity": 1
        },
        {
          "duration": 0.013888866666675881,
          "durationTicks": 4,
          "midi": 49,
          "name": "C#3",
          "ticks": 20162,
          "time": 70.00683243333333,
          "velocity": 1
        },
        {
          "duration": 0.013888866666675881,
          "durationTicks": 4,
          "midi": 42,
          "name": "F#2",
          "ticks": 20241,
          "time": 70.28113755,
          "velocity": 0.5590551181102362
        },
        {
          "duration": 0.013888866666675881,
          "durationTicks": 4,
          "midi": 36,
          "name": "C2",
          "ticks": 20281,
          "time": 70.42002621666666,
          "velocity": 1
        },
        {
          "duration": 0.013888866666675881,
          "durationTicks": 4,
          "midi": 38,
          "name": "D2",
          "ticks": 20281,
          "time": 70.42002621666666,
          "velocity": 1
        },
        {
          "duration": 0.013888866666675881,
          "durationTicks": 4,
          "midi": 42,
          "name": "F#2",
          "ticks": 20281,
          "time": 70.42002621666666,
          "velocity": 1
        },
        {
          "duration": 0.01388886666666167,
          "durationTicks": 4,
          "midi": 46,
          "name": "A#2",
          "ticks": 20361,
          "time": 70.69780355,
          "velocity": 1
        },
        {
          "duration": 0.01388886666666167,
          "durationTicks": 4,
          "midi": 36,
          "name": "C2",
          "ticks": 20401,
          "time": 70.83669221666666,
          "velocity": 1
        },
        {
          "duration": 0.01388886666666167,
          "durationTicks": 4,
          "midi": 42,
          "name": "F#2",
          "ticks": 20401,
          "time": 70.83669221666666,
          "velocity": 1
        },
        {
          "duration": 0.0173610833333413,
          "durationTicks": 5,
          "midi": 42,
          "name": "F#2",
          "ticks": 20481,
          "time": 71.11446955,
          "velocity": 0.5590551181102362
        },
        {
          "duration": 0.013888866666675881,
          "durationTicks": 4,
          "midi": 36,
          "name": "C2",
          "ticks": 20521,
          "time": 71.25335821666665,
          "velocity": 1
        },
        {
          "duration": 0.013888866666675881,
          "durationTicks": 4,
          "midi": 38,
          "name": "D2",
          "ticks": 20521,
          "time": 71.25335821666665,
          "velocity": 1
        },
        {
          "duration": 0.013888866666675881,
          "durationTicks": 4,
          "midi": 42,
          "name": "F#2",
          "ticks": 20521,
          "time": 71.25335821666665,
          "velocity": 1
        },
        {
          "duration": 0.01388886666666167,
          "durationTicks": 4,
          "midi": 42,
          "name": "F#2",
          "ticks": 20601,
          "time": 71.53113555,
          "velocity": 0.5590551181102362
        },
        {
          "duration": 0.0173610833333413,
          "durationTicks": 5,
          "midi": 36,
          "name": "C2",
          "ticks": 20641,
          "time": 71.67002421666666,
          "velocity": 1
        },
        {
          "duration": 0.01388886666666167,
          "durationTicks": 4,
          "midi": 42,
          "name": "F#2",
          "ticks": 20641,
          "time": 71.67002421666666,
          "velocity": 1
        },
        {
          "duration": 0.01388886666666167,
          "durationTicks": 4,
          "midi": 42,
          "name": "F#2",
          "ticks": 20721,
          "time": 71.94780155000001,
          "velocity": 0.5590551181102362
        },
        {
          "duration": 0.013888866666675881,
          "durationTicks": 4,
          "midi": 36,
          "name": "C2",
          "ticks": 20761,
          "time": 72.08669021666665,
          "velocity": 1
        },
        {
          "duration": 0.013888866666675881,
          "durationTicks": 4,
          "midi": 38,
          "name": "D2",
          "ticks": 20761,
          "time": 72.08669021666665,
          "velocity": 1
        },
        {
          "duration": 0.01388886666666167,
          "durationTicks": 4,
          "midi": 42,
          "name": "F#2",
          "ticks": 20762,
          "time": 72.09016243333333,
          "velocity": 1
        },
        {
          "duration": 0.01388886666666167,
          "durationTicks": 4,
          "midi": 42,
          "name": "F#2",
          "ticks": 20841,
          "time": 72.36446755,
          "velocity": 0.5590551181102362
        },
        {
          "duration": 0.01388886666666167,
          "durationTicks": 4,
          "midi": 36,
          "name": "C2",
          "ticks": 20881,
          "time": 72.50335621666666,
          "velocity": 1
        },
        {
          "duration": 0.01388886666666167,
          "durationTicks": 4,
          "midi": 42,
          "name": "F#2",
          "ticks": 20881,
          "time": 72.50335621666666,
          "velocity": 1
        },
        {
          "duration": 0.01388886666666167,
          "durationTicks": 4,
          "midi": 42,
          "name": "F#2",
          "ticks": 20961,
          "time": 72.78113355,
          "velocity": 0.5590551181102362
        },
        {
          "duration": 0.01388886666666167,
          "durationTicks": 4,
          "midi": 36,
          "name": "C2",
          "ticks": 21001,
          "time": 72.92002221666667,
          "velocity": 1
        },
        {
          "duration": 0.01388886666666167,
          "durationTicks": 4,
          "midi": 38,
          "name": "D2",
          "ticks": 21001,
          "time": 72.92002221666667,
          "velocity": 1
        },
        {
          "duration": 0.01388886666666167,
          "durationTicks": 4,
          "midi": 42,
          "name": "F#2",
          "ticks": 21001,
          "time": 72.92002221666667,
          "velocity": 1
        },
        {
          "duration": 0.01388886666666167,
          "durationTicks": 4,
          "midi": 42,
          "name": "F#2",
          "ticks": 21081,
          "time": 73.19779955,
          "velocity": 0.5590551181102362
        },
        {
          "duration": 0.0173610833333413,
          "durationTicks": 5,
          "midi": 36,
          "name": "C2",
          "ticks": 21121,
          "time": 73.33668821666666,
          "velocity": 1
        },
        {
          "duration": 0.01388886666666167,
          "durationTicks": 4,
          "midi": 42,
          "name": "F#2",
          "ticks": 21121,
          "time": 73.33668821666666,
          "velocity": 1
        },
        {
          "duration": 0.01388886666666167,
          "durationTicks": 4,
          "midi": 42,
          "name": "F#2",
          "ticks": 21201,
          "time": 73.61446555,
          "velocity": 0.5590551181102362
        },
        {
          "duration": 0.0173610833333413,
          "durationTicks": 5,
          "midi": 36,
          "name": "C2",
          "ticks": 21241,
          "time": 73.75335421666666,
          "velocity": 1
        },
        {
          "duration": 0.01388886666666167,
          "durationTicks": 4,
          "midi": 38,
          "name": "D2",
          "ticks": 21241,
          "time": 73.75335421666666,
          "velocity": 1
        },
        {
          "duration": 0.01388886666666167,
          "durationTicks": 4,
          "midi": 42,
          "name": "F#2",
          "ticks": 21241,
          "time": 73.75335421666666,
          "velocity": 1
        },
        {
          "duration": 0.013888866666675881,
          "durationTicks": 4,
          "midi": 46,
          "name": "A#2",
          "ticks": 21321,
          "time": 74.03113155,
          "velocity": 1
        },
        {
          "duration": 0.0173610833333413,
          "durationTicks": 5,
          "midi": 36,
          "name": "C2",
          "ticks": 21361,
          "time": 74.17002021666666,
          "velocity": 1
        },
        {
          "duration": 0.013888866666675881,
          "durationTicks": 4,
          "midi": 42,
          "name": "F#2",
          "ticks": 21361,
          "time": 74.17002021666666,
          "velocity": 1
        },
        {
          "duration": 0.01388886666666167,
          "durationTicks": 4,
          "midi": 42,
          "name": "F#2",
          "ticks": 21441,
          "time": 74.44779755,
          "velocity": 0.5590551181102362
        },
        {
          "duration": 0.01388886666666167,
          "durationTicks": 4,
          "midi": 36,
          "name": "C2",
          "ticks": 21481,
          "time": 74.58668621666666,
          "velocity": 1
        },
        {
          "duration": 0.01388886666666167,
          "durationTicks": 4,
          "midi": 38,
          "name": "D2",
          "ticks": 21481,
          "time": 74.58668621666666,
          "velocity": 1
        },
        {
          "duration": 0.013888866666675881,
          "durationTicks": 4,
          "midi": 42,
          "name": "F#2",
          "ticks": 21482,
          "time": 74.59015843333333,
          "velocity": 1
        },
        {
          "duration": 0.013888866666675881,
          "durationTicks": 4,
          "midi": 42,
          "name": "F#2",
          "ticks": 21561,
          "time": 74.86446355,
          "velocity": 0.5590551181102362
        },
        {
          "duration": 0.013888866666675881,
          "durationTicks": 4,
          "midi": 36,
          "name": "C2",
          "ticks": 21601,
          "time": 75.00335221666666,
          "velocity": 1
        },
        {
          "duration": 0.013888866666675881,
          "durationTicks": 4,
          "midi": 42,
          "name": "F#2",
          "ticks": 21601,
          "time": 75.00335221666666,
          "velocity": 1
        },
        {
          "duration": 0.01388886666666167,
          "durationTicks": 4,
          "midi": 42,
          "name": "F#2",
          "ticks": 21681,
          "time": 75.28112955,
          "velocity": 0.5590551181102362
        },
        {
          "duration": 0.01388886666666167,
          "durationTicks": 4,
          "midi": 48,
          "name": "C3",
          "ticks": 21681,
          "time": 75.28112955,
          "velocity": 1
        },
        {
          "duration": 0.01388886666666167,
          "durationTicks": 4,
          "midi": 36,
          "name": "C2",
          "ticks": 21721,
          "time": 75.42001821666666,
          "velocity": 1
        },
        {
          "duration": 0.01388886666666167,
          "durationTicks": 4,
          "midi": 38,
          "name": "D2",
          "ticks": 21721,
          "time": 75.42001821666666,
          "velocity": 1
        },
        {
          "duration": 0.01388886666666167,
          "durationTicks": 4,
          "midi": 42,
          "name": "F#2",
          "ticks": 21721,
          "time": 75.42001821666666,
          "velocity": 1
        },
        {
          "duration": 0.013888866666675881,
          "durationTicks": 4,
          "midi": 38,
          "name": "D2",
          "ticks": 21801,
          "time": 75.69779555,
          "velocity": 0.3228346456692913
        },
        {
          "duration": 0.013888866666675881,
          "durationTicks": 4,
          "midi": 42,
          "name": "F#2",
          "ticks": 21801,
          "time": 75.69779555,
          "velocity": 0.5590551181102362
        },
        {
          "duration": 0.013888866666675881,
          "durationTicks": 4,
          "midi": 45,
          "name": "A2",
          "ticks": 21801,
          "time": 75.69779555,
          "velocity": 1
        },
        {
          "duration": 0.013888866666675881,
          "durationTicks": 4,
          "midi": 36,
          "name": "C2",
          "ticks": 21841,
          "time": 75.83668421666665,
          "velocity": 1
        },
        {
          "duration": 0.013888866666675881,
          "durationTicks": 4,
          "midi": 42,
          "name": "F#2",
          "ticks": 21841,
          "time": 75.83668421666665,
          "velocity": 1
        },
        {
          "duration": 0.013888866666675881,
          "durationTicks": 4,
          "midi": 41,
          "name": "F2",
          "ticks": 21841,
          "time": 75.83668421666665,
          "velocity": 1
        },
        {
          "duration": 0.01388886666666167,
          "durationTicks": 4,
          "midi": 38,
          "name": "D2",
          "ticks": 21921,
          "time": 76.11446155,
          "velocity": 0.3228346456692913
        },
        {
          "duration": 0.01388886666666167,
          "durationTicks": 4,
          "midi": 42,
          "name": "F#2",
          "ticks": 21921,
          "time": 76.11446155,
          "velocity": 0.5590551181102362
        },
        {
          "duration": 0.0173610833333413,
          "durationTicks": 5,
          "midi": 36,
          "name": "C2",
          "ticks": 21961,
          "time": 76.25335021666666,
          "velocity": 1
        },
        {
          "duration": 0.01388886666666167,
          "durationTicks": 4,
          "midi": 38,
          "name": "D2",
          "ticks": 21961,
          "time": 76.25335021666666,
          "velocity": 0.3228346456692913
        },
        {
          "duration": 0.01388886666666167,
          "durationTicks": 4,
          "midi": 42,
          "name": "F#2",
          "ticks": 21961,
          "time": 76.25335021666666,
          "velocity": 1
        },
        {
          "duration": 0.01388886666666167,
          "durationTicks": 4,
          "midi": 38,
          "name": "D2",
          "ticks": 22001,
          "time": 76.39223888333333,
          "velocity": 1
        },
        {
          "duration": 0.01388886666666167,
          "durationTicks": 4,
          "midi": 38,
          "name": "D2",
          "ticks": 22041,
          "time": 76.53112755000001,
          "velocity": 1
        },
        {
          "duration": 0.01388886666666167,
          "durationTicks": 4,
          "midi": 42,
          "name": "F#2",
          "ticks": 22041,
          "time": 76.53112755000001,
          "velocity": 0.5590551181102362
        },
        {
          "duration": 0.01388886666666167,
          "durationTicks": 4,
          "midi": 45,
          "name": "A2",
          "ticks": 22041,
          "time": 76.53112755000001,
          "velocity": 1
        },
        {
          "duration": 0.013888866666675881,
          "durationTicks": 4,
          "midi": 36,
          "name": "C2",
          "ticks": 22081,
          "time": 76.67001621666665,
          "velocity": 1
        },
        {
          "duration": 0.013888866666675881,
          "durationTicks": 4,
          "midi": 38,
          "name": "D2",
          "ticks": 22081,
          "time": 76.67001621666665,
          "velocity": 1
        },
        {
          "duration": 0.013888866666675881,
          "durationTicks": 4,
          "midi": 38,
          "name": "D2",
          "ticks": 22121,
          "time": 76.80890488333333,
          "velocity": 0.3228346456692913
        },
        {
          "duration": 0.017361083333327088,
          "durationTicks": 5,
          "midi": 38,
          "name": "D2",
          "ticks": 22161,
          "time": 76.94779355,
          "velocity": 1
        },
        {
          "duration": 0.01388886666666167,
          "durationTicks": 4,
          "midi": 46,
          "name": "A#2",
          "ticks": 22161,
          "time": 76.94779355,
          "velocity": 1
        },
        {
          "duration": 0.01388886666666167,
          "durationTicks": 4,
          "midi": 36,
          "name": "C2",
          "ticks": 22201,
          "time": 77.08668221666666,
          "velocity": 1
        },
        {
          "duration": 0.01388886666666167,
          "durationTicks": 4,
          "midi": 38,
          "name": "D2",
          "ticks": 22201,
          "time": 77.08668221666666,
          "velocity": 0.3228346456692913
        },
        {
          "duration": 0.01388886666666167,
          "durationTicks": 4,
          "midi": 42,
          "name": "F#2",
          "ticks": 22201,
          "time": 77.08668221666666,
          "velocity": 1
        },
        {
          "duration": 0.01388886666666167,
          "durationTicks": 4,
          "midi": 41,
          "name": "F2",
          "ticks": 22241,
          "time": 77.22557088333333,
          "velocity": 1
        },
        {
          "duration": 0.01388886666666167,
          "durationTicks": 4,
          "midi": 38,
          "name": "D2",
          "ticks": 22281,
          "time": 77.36445955,
          "velocity": 0.3228346456692913
        },
        {
          "duration": 0.01388886666666167,
          "durationTicks": 4,
          "midi": 46,
          "name": "A#2",
          "ticks": 22281,
          "time": 77.36445955,
          "velocity": 1
        },
        {
          "duration": 0.01388886666666167,
          "durationTicks": 4,
          "midi": 36,
          "name": "C2",
          "ticks": 22321,
          "time": 77.50334821666667,
          "velocity": 1
        },
        {
          "duration": 0.01388886666666167,
          "durationTicks": 4,
          "midi": 42,
          "name": "F#2",
          "ticks": 22321,
          "time": 77.50334821666667,
          "velocity": 1
        },
        {
          "duration": 0.013888866666675881,
          "durationTicks": 4,
          "midi": 45,
          "name": "A2",
          "ticks": 22322,
          "time": 77.50682043333333,
          "velocity": 1
        },
        {
          "duration": 0.013888866666675881,
          "durationTicks": 4,
          "midi": 38,
          "name": "D2",
          "ticks": 22361,
          "time": 77.64223688333333,
          "velocity": 0.3228346456692913
        },
        {
          "duration": 0.01388886666666167,
          "durationTicks": 4,
          "midi": 38,
          "name": "D2",
          "ticks": 22381,
          "time": 77.71168121666666,
          "velocity": 0.3228346456692913
        },
        {
          "duration": 0.017361083333327088,
          "durationTicks": 5,
          "midi": 38,
          "name": "D2",
          "ticks": 22401,
          "time": 77.78112555,
          "velocity": 1
        },
        {
          "duration": 0.01388886666666167,
          "durationTicks": 4,
          "midi": 46,
          "name": "A#2",
          "ticks": 22401,
          "time": 77.78112555,
          "velocity": 1
        },
        {
          "duration": 0.01388886666666167,
          "durationTicks": 4,
          "midi": 48,
          "name": "C3",
          "ticks": 22401,
          "time": 77.78112555,
          "velocity": 1
        },
        {
          "duration": 0.01388886666666167,
          "durationTicks": 4,
          "midi": 36,
          "name": "C2",
          "ticks": 22441,
          "time": 77.92001421666666,
          "velocity": 1
        },
        {
          "duration": 0.01388886666666167,
          "durationTicks": 4,
          "midi": 38,
          "name": "D2",
          "ticks": 22441,
          "time": 77.92001421666666,
          "velocity": 0.3228346456692913
        },
        {
          "duration": 0.01388886666666167,
          "durationTicks": 4,
          "midi": 42,
          "name": "F#2",
          "ticks": 22441,
          "time": 77.92001421666666,
          "velocity": 1
        },
        {
          "duration": 0.01388886666666167,
          "durationTicks": 4,
          "midi": 38,
          "name": "D2",
          "ticks": 22481,
          "time": 78.05890288333333,
          "velocity": 1
        },
        {
          "duration": 0.01388886666666167,
          "durationTicks": 4,
          "midi": 46,
          "name": "A#2",
          "ticks": 22481,
          "time": 78.05890288333333,
          "velocity": 1
        },
        {
          "duration": 0.01388886666666167,
          "durationTicks": 4,
          "midi": 38,
          "name": "D2",
          "ticks": 22521,
          "time": 78.19779155,
          "velocity": 1
        },
        {
          "duration": 0.01388886666666167,
          "durationTicks": 4,
          "midi": 42,
          "name": "F#2",
          "ticks": 22521,
          "time": 78.19779155,
          "velocity": 1
        },
        {
          "duration": 0.01388886666666167,
          "durationTicks": 4,
          "midi": 36,
          "name": "C2",
          "ticks": 22561,
          "time": 78.33668021666666,
          "velocity": 1
        },
        {
          "duration": 0.01388886666666167,
          "durationTicks": 4,
          "midi": 42,
          "name": "F#2",
          "ticks": 22561,
          "time": 78.33668021666666,
          "velocity": 1
        },
        {
          "duration": 0.01388886666666167,
          "durationTicks": 4,
          "midi": 49,
          "name": "C#3",
          "ticks": 22561,
          "time": 78.33668021666666,
          "velocity": 1
        },
        {
          "duration": 0.013888866666675881,
          "durationTicks": 4,
          "midi": 42,
          "name": "F#2",
          "ticks": 22641,
          "time": 78.61445755,
          "velocity": 0.5590551181102362
        },
        {
          "duration": 0.013888866666675881,
          "durationTicks": 4,
          "midi": 36,
          "name": "C2",
          "ticks": 22681,
          "time": 78.75334621666666,
          "velocity": 1
        },
        {
          "duration": 0.013888866666675881,
          "durationTicks": 4,
          "midi": 38,
          "name": "D2",
          "ticks": 22681,
          "time": 78.75334621666666,
          "velocity": 1
        },
        {
          "duration": 0.013888866666675881,
          "durationTicks": 4,
          "midi": 42,
          "name": "F#2",
          "ticks": 22681,
          "time": 78.75334621666666,
          "velocity": 1
        },
        {
          "duration": 0.01388886666666167,
          "durationTicks": 4,
          "midi": 46,
          "name": "A#2",
          "ticks": 22761,
          "time": 79.03112355,
          "velocity": 1
        },
        {
          "duration": 0.0173610833333413,
          "durationTicks": 5,
          "midi": 36,
          "name": "C2",
          "ticks": 22801,
          "time": 79.17001221666666,
          "velocity": 1
        },
        {
          "duration": 0.01388886666666167,
          "durationTicks": 4,
          "midi": 42,
          "name": "F#2",
          "ticks": 22801,
          "time": 79.17001221666666,
          "velocity": 1
        },
        {
          "duration": 0.013888866666675881,
          "durationTicks": 4,
          "midi": 42,
          "name": "F#2",
          "ticks": 22881,
          "time": 79.44778955,
          "velocity": 0.5590551181102362
        },
        {
          "duration": 0.013888866666675881,
          "durationTicks": 4,
          "midi": 36,
          "name": "C2",
          "ticks": 22921,
          "time": 79.58667821666666,
          "velocity": 1
        },
        {
          "duration": 0.01388886666666167,
          "durationTicks": 4,
          "midi": 38,
          "name": "D2",
          "ticks": 22922,
          "time": 79.59015043333333,
          "velocity": 1
        },
        {
          "duration": 0.01388886666666167,
          "durationTicks": 4,
          "midi": 42,
          "name": "F#2",
          "ticks": 22922,
          "time": 79.59015043333333,
          "velocity": 1
        },
        {
          "duration": 0.01388886666666167,
          "durationTicks": 4,
          "midi": 42,
          "name": "F#2",
          "ticks": 23001,
          "time": 79.86445555,
          "velocity": 0.5590551181102362
        },
        {
          "duration": 0.01388886666666167,
          "durationTicks": 4,
          "midi": 36,
          "name": "C2",
          "ticks": 23041,
          "time": 80.00334421666666,
          "velocity": 1
        },
        {
          "duration": 0.01388886666666167,
          "durationTicks": 4,
          "midi": 42,
          "name": "F#2",
          "ticks": 23041,
          "time": 80.00334421666666,
          "velocity": 1
        },
        {
          "duration": 0.013888866666675881,
          "durationTicks": 4,
          "midi": 42,
          "name": "F#2",
          "ticks": 23121,
          "time": 80.28112155,
          "velocity": 0.5590551181102362
        },
        {
          "duration": 0.013888866666675881,
          "durationTicks": 4,
          "midi": 36,
          "name": "C2",
          "ticks": 23161,
          "time": 80.42001021666665,
          "velocity": 1
        },
        {
          "duration": 0.013888866666675881,
          "durationTicks": 4,
          "midi": 38,
          "name": "D2",
          "ticks": 23161,
          "time": 80.42001021666665,
          "velocity": 1
        },
        {
          "duration": 0.013888866666675881,
          "durationTicks": 4,
          "midi": 42,
          "name": "F#2",
          "ticks": 23161,
          "time": 80.42001021666665,
          "velocity": 1
        },
        {
          "duration": 0.01388886666666167,
          "durationTicks": 4,
          "midi": 42,
          "name": "F#2",
          "ticks": 23241,
          "time": 80.69778755,
          "velocity": 0.5590551181102362
        },
        {
          "duration": 0.0173610833333413,
          "durationTicks": 5,
          "midi": 36,
          "name": "C2",
          "ticks": 23281,
          "time": 80.83667621666666,
          "velocity": 1
        },
        {
          "duration": 0.01388886666666167,
          "durationTicks": 4,
          "midi": 42,
          "name": "F#2",
          "ticks": 23281,
          "time": 80.83667621666666,
          "velocity": 1
        },
        {
          "duration": 0.01388886666666167,
          "durationTicks": 4,
          "midi": 42,
          "name": "F#2",
          "ticks": 23361,
          "time": 81.11445355000001,
          "velocity": 0.5590551181102362
        },
        {
          "duration": 0.01388886666666167,
          "durationTicks": 4,
          "midi": 36,
          "name": "C2",
          "ticks": 23401,
          "time": 81.25334221666667,
          "velocity": 1
        },
        {
          "duration": 0.01388886666666167,
          "durationTicks": 4,
          "midi": 38,
          "name": "D2",
          "ticks": 23401,
          "time": 81.25334221666667,
          "velocity": 1
        },
        {
          "duration": 0.013888866666675881,
          "durationTicks": 4,
          "midi": 42,
          "name": "F#2",
          "ticks": 23402,
          "time": 81.25681443333333,
          "velocity": 1
        },
        {
          "duration": 0.01388886666666167,
          "durationTicks": 4,
          "midi": 42,
          "name": "F#2",
          "ticks": 23481,
          "time": 81.53111955,
          "velocity": 0.5590551181102362
        },
        {
          "duration": 0.01388886666666167,
          "durationTicks": 4,
          "midi": 36,
          "name": "C2",
          "ticks": 23521,
          "time": 81.67000821666666,
          "velocity": 1
        },
        {
          "duration": 0.01388886666666167,
          "durationTicks": 4,
          "midi": 42,
          "name": "F#2",
          "ticks": 23521,
          "time": 81.67000821666666,
          "velocity": 1
        },
        {
          "duration": 0.01388886666666167,
          "durationTicks": 4,
          "midi": 42,
          "name": "F#2",
          "ticks": 23601,
          "time": 81.94778555,
          "velocity": 0.5590551181102362
        },
        {
          "duration": 0.01388886666666167,
          "durationTicks": 4,
          "midi": 36,
          "name": "C2",
          "ticks": 23641,
          "time": 82.08667421666667,
          "velocity": 1
        },
        {
          "duration": 0.01388886666666167,
          "durationTicks": 4,
          "midi": 38,
          "name": "D2",
          "ticks": 23641,
          "time": 82.08667421666667,
          "velocity": 1
        },
        {
          "duration": 0.013888866666675881,
          "durationTicks": 4,
          "midi": 42,
          "name": "F#2",
          "ticks": 23642,
          "time": 82.09014643333333,
          "velocity": 1
        },
        {
          "duration": 0.01388886666666167,
          "durationTicks": 4,
          "midi": 46,
          "name": "A#2",
          "ticks": 23721,
          "time": 82.36445155,
          "velocity": 1
        },
        {
          "duration": 0.01388886666666167,
          "durationTicks": 4,
          "midi": 36,
          "name": "C2",
          "ticks": 23761,
          "time": 82.50334021666666,
          "velocity": 1
        },
        {
          "duration": 0.01388886666666167,
          "durationTicks": 4,
          "midi": 42,
          "name": "F#2",
          "ticks": 23761,
          "time": 82.50334021666666,
          "velocity": 1
        },
        {
          "duration": 0.01388886666666167,
          "durationTicks": 4,
          "midi": 42,
          "name": "F#2",
          "ticks": 23841,
          "time": 82.78111755,
          "velocity": 0.5590551181102362
        },
        {
          "duration": 0.01388886666666167,
          "durationTicks": 4,
          "midi": 36,
          "name": "C2",
          "ticks": 23881,
          "time": 82.92000621666666,
          "velocity": 1
        },
        {
          "duration": 0.01388886666666167,
          "durationTicks": 4,
          "midi": 38,
          "name": "D2",
          "ticks": 23881,
          "time": 82.92000621666666,
          "velocity": 1
        },
        {
          "duration": 0.01388886666666167,
          "durationTicks": 4,
          "midi": 42,
          "name": "F#2",
          "ticks": 23881,
          "time": 82.92000621666666,
          "velocity": 1
        },
        {
          "duration": 0.017361083333327088,
          "durationTicks": 5,
          "midi": 42,
          "name": "F#2",
          "ticks": 23961,
          "time": 83.19778355,
          "velocity": 0.5590551181102362
        },
        {
          "duration": 0.013888866666675881,
          "durationTicks": 4,
          "midi": 36,
          "name": "C2",
          "ticks": 24001,
          "time": 83.33667221666666,
          "velocity": 1
        },
        {
          "duration": 0.013888866666675881,
          "durationTicks": 4,
          "midi": 42,
          "name": "F#2",
          "ticks": 24001,
          "time": 83.33667221666666,
          "velocity": 1
        },
        {
          "duration": 0.01388886666666167,
          "durationTicks": 4,
          "midi": 42,
          "name": "F#2",
          "ticks": 24081,
          "time": 83.61444955,
          "velocity": 0.5590551181102362
        },
        {
          "duration": 0.0173610833333413,
          "durationTicks": 5,
          "midi": 36,
          "name": "C2",
          "ticks": 24121,
          "time": 83.75333821666666,
          "velocity": 1
        },
        {
          "duration": 0.01388886666666167,
          "durationTicks": 4,
          "midi": 38,
          "name": "D2",
          "ticks": 24121,
          "time": 83.75333821666666,
          "velocity": 1
        },
        {
          "duration": 0.01388886666666167,
          "durationTicks": 4,
          "midi": 42,
          "name": "F#2",
          "ticks": 24121,
          "time": 83.75333821666666,
          "velocity": 1
        },
        {
          "duration": 0.013888866666675881,
          "durationTicks": 4,
          "midi": 42,
          "name": "F#2",
          "ticks": 24201,
          "time": 84.03111555,
          "velocity": 0.5590551181102362
        },
        {
          "duration": 0.013888866666675881,
          "durationTicks": 4,
          "midi": 36,
          "name": "C2",
          "ticks": 24241,
          "time": 84.17000421666665,
          "velocity": 1
        },
        {
          "duration": 0.013888866666675881,
          "durationTicks": 4,
          "midi": 42,
          "name": "F#2",
          "ticks": 24241,
          "time": 84.17000421666665,
          "velocity": 1
        },
        {
          "duration": 0.01388886666666167,
          "durationTicks": 4,
          "midi": 42,
          "name": "F#2",
          "ticks": 24321,
          "time": 84.44778155,
          "velocity": 0.5590551181102362
        },
        {
          "duration": 0.01388886666666167,
          "durationTicks": 4,
          "midi": 36,
          "name": "C2",
          "ticks": 24361,
          "time": 84.58667021666666,
          "velocity": 1
        },
        {
          "duration": 0.01388886666666167,
          "durationTicks": 4,
          "midi": 38,
          "name": "D2",
          "ticks": 24361,
          "time": 84.58667021666666,
          "velocity": 1
        },
        {
          "duration": 0.01388886666666167,
          "durationTicks": 4,
          "midi": 42,
          "name": "F#2",
          "ticks": 24361,
          "time": 84.58667021666666,
          "velocity": 1
        },
        {
          "duration": 0.013888866666675881,
          "durationTicks": 4,
          "midi": 42,
          "name": "F#2",
          "ticks": 24441,
          "time": 84.86444755,
          "velocity": 0.5590551181102362
        },
        {
          "duration": 0.0173610833333413,
          "durationTicks": 5,
          "midi": 36,
          "name": "C2",
          "ticks": 24481,
          "time": 85.00333621666665,
          "velocity": 1
        },
        {
          "duration": 0.013888866666675881,
          "durationTicks": 4,
          "midi": 42,
          "name": "F#2",
          "ticks": 24481,
          "time": 85.00333621666665,
          "velocity": 1
        },
        {
          "duration": 0.013888866666675881,
          "durationTicks": 4,
          "midi": 49,
          "name": "C#3",
          "ticks": 24481,
          "time": 85.00333621666665,
          "velocity": 1
        },
        {
          "duration": 0.01388886666666167,
          "durationTicks": 4,
          "midi": 42,
          "name": "F#2",
          "ticks": 24561,
          "time": 85.28111355,
          "velocity": 0.5590551181102362
        },
        {
          "duration": 0.0173610833333413,
          "durationTicks": 5,
          "midi": 36,
          "name": "C2",
          "ticks": 24601,
          "time": 85.42000221666666,
          "velocity": 1
        },
        {
          "duration": 0.01388886666666167,
          "durationTicks": 4,
          "midi": 38,
          "name": "D2",
          "ticks": 24601,
          "time": 85.42000221666666,
          "velocity": 1
        },
        {
          "duration": 0.01388886666666167,
          "durationTicks": 4,
          "midi": 42,
          "name": "F#2",
          "ticks": 24601,
          "time": 85.42000221666666,
          "velocity": 1
        },
        {
          "duration": 0.01388886666666167,
          "durationTicks": 4,
          "midi": 46,
          "name": "A#2",
          "ticks": 24681,
          "time": 85.69777955,
          "velocity": 1
        },
        {
          "duration": 0.01388886666666167,
          "durationTicks": 4,
          "midi": 36,
          "name": "C2",
          "ticks": 24721,
          "time": 85.83666821666667,
          "velocity": 1
        },
        {
          "duration": 0.01388886666666167,
          "durationTicks": 4,
          "midi": 42,
          "name": "F#2",
          "ticks": 24721,
          "time": 85.83666821666667,
          "velocity": 1
        },
        {
          "duration": 0.01388886666666167,
          "durationTicks": 4,
          "midi": 42,
          "name": "F#2",
          "ticks": 24801,
          "time": 86.11444555,
          "velocity": 0.5590551181102362
        },
        {
          "duration": 0.01388886666666167,
          "durationTicks": 4,
          "midi": 36,
          "name": "C2",
          "ticks": 24841,
          "time": 86.25333421666666,
          "velocity": 1
        },
        {
          "duration": 0.01388886666666167,
          "durationTicks": 4,
          "midi": 38,
          "name": "D2",
          "ticks": 24841,
          "time": 86.25333421666666,
          "velocity": 1
        },
        {
          "duration": 0.01388886666666167,
          "durationTicks": 4,
          "midi": 42,
          "name": "F#2",
          "ticks": 24841,
          "time": 86.25333421666666,
          "velocity": 1
        },
        {
          "duration": 0.01388886666666167,
          "durationTicks": 4,
          "midi": 42,
          "name": "F#2",
          "ticks": 24921,
          "time": 86.53111155,
          "velocity": 0.5590551181102362
        },
        {
          "duration": 0.01388886666666167,
          "durationTicks": 4,
          "midi": 36,
          "name": "C2",
          "ticks": 24961,
          "time": 86.67000021666666,
          "velocity": 1
        },
        {
          "duration": 0.01388886666666167,
          "durationTicks": 4,
          "midi": 42,
          "name": "F#2",
          "ticks": 24961,
          "time": 86.67000021666666,
          "velocity": 1
        },
        {
          "duration": 0.01388886666666167,
          "durationTicks": 4,
          "midi": 42,
          "name": "F#2",
          "ticks": 25041,
          "time": 86.94777755,
          "velocity": 0.5590551181102362
        },
        {
          "duration": 0.0173610833333413,
          "durationTicks": 5,
          "midi": 36,
          "name": "C2",
          "ticks": 25081,
          "time": 87.08666621666666,
          "velocity": 1
        },
        {
          "duration": 0.01388886666666167,
          "durationTicks": 4,
          "midi": 38,
          "name": "D2",
          "ticks": 25081,
          "time": 87.08666621666666,
          "velocity": 1
        },
        {
          "duration": 0.01388886666666167,
          "durationTicks": 4,
          "midi": 42,
          "name": "F#2",
          "ticks": 25081,
          "time": 87.08666621666666,
          "velocity": 1
        },
        {
          "duration": 0.01388886666666167,
          "durationTicks": 4,
          "midi": 42,
          "name": "F#2",
          "ticks": 25161,
          "time": 87.36444355,
          "velocity": 0.5590551181102362
        },
        {
          "duration": 0.0173610833333413,
          "durationTicks": 5,
          "midi": 36,
          "name": "C2",
          "ticks": 25201,
          "time": 87.50333221666666,
          "velocity": 1
        },
        {
          "duration": 0.01388886666666167,
          "durationTicks": 4,
          "midi": 42,
          "name": "F#2",
          "ticks": 25201,
          "time": 87.50333221666666,
          "velocity": 1
        },
        {
          "duration": 0.013888866666675881,
          "durationTicks": 4,
          "midi": 42,
          "name": "F#2",
          "ticks": 25281,
          "time": 87.78110955,
          "velocity": 0.5590551181102362
        },
        {
          "duration": 0.013888866666675881,
          "durationTicks": 4,
          "midi": 36,
          "name": "C2",
          "ticks": 25321,
          "time": 87.91999821666666,
          "velocity": 1
        },
        {
          "duration": 0.013888866666675881,
          "durationTicks": 4,
          "midi": 38,
          "name": "D2",
          "ticks": 25321,
          "time": 87.91999821666666,
          "velocity": 1
        },
        {
          "duration": 0.01388886666666167,
          "durationTicks": 4,
          "midi": 42,
          "name": "F#2",
          "ticks": 25322,
          "time": 87.92347043333334,
          "velocity": 1
        },
        {
          "duration": 0.01388886666666167,
          "durationTicks": 4,
          "midi": 42,
          "name": "F#2",
          "ticks": 25401,
          "time": 88.19777555,
          "velocity": 0.5590551181102362
        },
        {
          "duration": 0.01388886666666167,
          "durationTicks": 4,
          "midi": 36,
          "name": "C2",
          "ticks": 25441,
          "time": 88.33666421666666,
          "velocity": 1
        },
        {
          "duration": 0.01388886666666167,
          "durationTicks": 4,
          "midi": 42,
          "name": "F#2",
          "ticks": 25441,
          "time": 88.33666421666666,
          "velocity": 1
        },
        {
          "duration": 0.013888866666675881,
          "durationTicks": 4,
          "midi": 42,
          "name": "F#2",
          "ticks": 25521,
          "time": 88.61444155,
          "velocity": 0.5590551181102362
        },
        {
          "duration": 0.0173610833333413,
          "durationTicks": 5,
          "midi": 36,
          "name": "C2",
          "ticks": 25561,
          "time": 88.75333021666665,
          "velocity": 1
        },
        {
          "duration": 0.013888866666675881,
          "durationTicks": 4,
          "midi": 38,
          "name": "D2",
          "ticks": 25561,
          "time": 88.75333021666665,
          "velocity": 1
        },
        {
          "duration": 0.013888866666675881,
          "durationTicks": 4,
          "midi": 42,
          "name": "F#2",
          "ticks": 25561,
          "time": 88.75333021666665,
          "velocity": 1
        },
        {
          "duration": 0.01388886666666167,
          "durationTicks": 4,
          "midi": 46,
          "name": "A#2",
          "ticks": 25641,
          "time": 89.03110755,
          "velocity": 1
        },
        {
          "duration": 0.0173610833333413,
          "durationTicks": 5,
          "midi": 36,
          "name": "C2",
          "ticks": 25681,
          "time": 89.16999621666666,
          "velocity": 1
        },
        {
          "duration": 0.01388886666666167,
          "durationTicks": 4,
          "midi": 42,
          "name": "F#2",
          "ticks": 25681,
          "time": 89.16999621666666,
          "velocity": 1
        },
        {
          "duration": 0.013888866666675881,
          "durationTicks": 4,
          "midi": 42,
          "name": "F#2",
          "ticks": 25761,
          "time": 89.44777355,
          "velocity": 0.5590551181102362
        },
        {
          "duration": 0.013888866666675881,
          "durationTicks": 4,
          "midi": 36,
          "name": "C2",
          "ticks": 25801,
          "time": 89.58666221666665,
          "velocity": 1
        },
        {
          "duration": 0.01388886666666167,
          "durationTicks": 4,
          "midi": 38,
          "name": "D2",
          "ticks": 25802,
          "time": 89.59013443333333,
          "velocity": 1
        },
        {
          "duration": 0.01388886666666167,
          "durationTicks": 4,
          "midi": 42,
          "name": "F#2",
          "ticks": 25802,
          "time": 89.59013443333333,
          "velocity": 1
        },
        {
          "duration": 0.01388886666666167,
          "durationTicks": 4,
          "midi": 46,
          "name": "A#2",
          "ticks": 25881,
          "time": 89.86443955,
          "velocity": 1
        },
        {
          "duration": 0.01388886666666167,
          "durationTicks": 4,
          "midi": 36,
          "name": "C2",
          "ticks": 25921,
          "time": 90.00332821666666,
          "velocity": 1
        },
        {
          "duration": 0.01388886666666167,
          "durationTicks": 4,
          "midi": 38,
          "name": "D2",
          "ticks": 25921,
          "time": 90.00332821666666,
          "velocity": 1
        },
        {
          "duration": 0.01388886666666167,
          "durationTicks": 4,
          "midi": 42,
          "name": "F#2",
          "ticks": 25922,
          "time": 90.00680043333334,
          "velocity": 1
        },
        {
          "duration": 0.01388886666666167,
          "durationTicks": 4,
          "midi": 38,
          "name": "D2",
          "ticks": 25961,
          "time": 90.14221688333333,
          "velocity": 0.3228346456692913
        },
        {
          "duration": 0.01388886666666167,
          "durationTicks": 4,
          "midi": 42,
          "name": "F#2",
          "ticks": 26001,
          "time": 90.28110555,
          "velocity": 0.5590551181102362
        },
        {
          "duration": 0.01388886666666167,
          "durationTicks": 4,
          "midi": 48,
          "name": "C3",
          "ticks": 26001,
          "time": 90.28110555,
          "velocity": 1
        },
        {
          "duration": 0.01388886666666167,
          "durationTicks": 4,
          "midi": 36,
          "name": "C2",
          "ticks": 26041,
          "time": 90.41999421666667,
          "velocity": 1
        },
        {
          "duration": 0.01388886666666167,
          "durationTicks": 4,
          "midi": 38,
          "name": "D2",
          "ticks": 26041,
          "time": 90.41999421666667,
          "velocity": 0.3228346456692913
        },
        {
          "duration": 0.01388886666666167,
          "durationTicks": 4,
          "midi": 42,
          "name": "F#2",
          "ticks": 26041,
          "time": 90.41999421666667,
          "velocity": 1
        },
        {
          "duration": 0.013888866666675881,
          "durationTicks": 4,
          "midi": 41,
          "name": "F2",
          "ticks": 26081,
          "time": 90.55888288333333,
          "velocity": 1
        },
        {
          "duration": 0.01388886666666167,
          "durationTicks": 4,
          "midi": 38,
          "name": "D2",
          "ticks": 26121,
          "time": 90.69777155,
          "velocity": 0.3228346456692913
        },
        {
          "duration": 0.01388886666666167,
          "durationTicks": 4,
          "midi": 42,
          "name": "F#2",
          "ticks": 26121,
          "time": 90.69777155,
          "velocity": 0.5590551181102362
        },
        {
          "duration": 0.01388886666666167,
          "durationTicks": 4,
          "midi": 36,
          "name": "C2",
          "ticks": 26161,
          "time": 90.83666021666666,
          "velocity": 1
        },
        {
          "duration": 0.01388886666666167,
          "durationTicks": 4,
          "midi": 42,
          "name": "F#2",
          "ticks": 26161,
          "time": 90.83666021666666,
          "velocity": 1
        },
        {
          "duration": 0.01388886666666167,
          "durationTicks": 4,
          "midi": 45,
          "name": "A2",
          "ticks": 26162,
          "time": 90.84013243333334,
          "velocity": 1
        },
        {
          "duration": 0.017361083333327088,
          "durationTicks": 5,
          "midi": 38,
          "name": "D2",
          "ticks": 26201,
          "time": 90.97554888333333,
          "velocity": 0.3228346456692913
        },
        {
          "duration": 0.01388886666666167,
          "durationTicks": 4,
          "midi": 42,
          "name": "F#2",
          "ticks": 26241,
          "time": 91.11443755,
          "velocity": 0.5590551181102362
        },
        {
          "duration": 0.01388886666666167,
          "durationTicks": 4,
          "midi": 48,
          "name": "C3",
          "ticks": 26241,
          "time": 91.11443755,
          "velocity": 1
        },
        {
          "duration": 0.01388886666666167,
          "durationTicks": 4,
          "midi": 36,
          "name": "C2",
          "ticks": 26281,
          "time": 91.25332621666666,
          "velocity": 1
        },
        {
          "duration": 0.01388886666666167,
          "durationTicks": 4,
          "midi": 38,
          "name": "D2",
          "ticks": 26281,
          "time": 91.25332621666666,
          "velocity": 1
        },
        {
          "duration": 0.0173610833333413,
          "durationTicks": 5,
          "midi": 42,
          "name": "F#2",
          "ticks": 26281,
          "time": 91.25332621666666,
          "velocity": 1
        },
        {
          "duration": 0.013888866666675881,
          "durationTicks": 4,
          "midi": 38,
          "name": "D2",
          "ticks": 26321,
          "time": 91.39221488333332,
          "velocity": 1
        },
        {
          "duration": 0.013888866666675881,
          "durationTicks": 4,
          "midi": 38,
          "name": "D2",
          "ticks": 26361,
          "time": 91.53110355,
          "velocity": 1
        },
        {
          "duration": 0.013888866666675881,
          "durationTicks": 4,
          "midi": 42,
          "name": "F#2",
          "ticks": 26361,
          "time": 91.53110355,
          "velocity": 0.5590551181102362
        },
        {
          "duration": 0.01388886666666167,
          "durationTicks": 4,
          "midi": 36,
          "name": "C2",
          "ticks": 26401,
          "time": 91.66999221666666,
          "velocity": 1
        },
        {
          "duration": 0.01388886666666167,
          "durationTicks": 4,
          "midi": 42,
          "name": "F#2",
          "ticks": 26401,
          "time": 91.66999221666666,
          "velocity": 1
        },
        {
          "duration": 0.01388886666666167,
          "durationTicks": 4,
          "midi": 49,
          "name": "C#3",
          "ticks": 26401,
          "time": 91.66999221666666,
          "velocity": 1
        },
        {
          "duration": 0.01388886666666167,
          "durationTicks": 4,
          "midi": 42,
          "name": "F#2",
          "ticks": 26481,
          "time": 91.94776955,
          "velocity": 0.5590551181102362
        },
        {
          "duration": 0.01388886666666167,
          "durationTicks": 4,
          "midi": 36,
          "name": "C2",
          "ticks": 26521,
          "time": 92.08665821666666,
          "velocity": 1
        },
        {
          "duration": 0.01388886666666167,
          "durationTicks": 4,
          "midi": 38,
          "name": "D2",
          "ticks": 26521,
          "time": 92.08665821666666,
          "velocity": 1
        },
        {
          "duration": 0.01388886666666167,
          "durationTicks": 4,
          "midi": 42,
          "name": "F#2",
          "ticks": 26521,
          "time": 92.08665821666666,
          "velocity": 1
        },
        {
          "duration": 0.017361083333327088,
          "durationTicks": 5,
          "midi": 46,
          "name": "A#2",
          "ticks": 26601,
          "time": 92.36443555,
          "velocity": 1
        },
        {
          "duration": 0.013888866666675881,
          "durationTicks": 4,
          "midi": 36,
          "name": "C2",
          "ticks": 26641,
          "time": 92.50332421666666,
          "velocity": 1
        },
        {
          "duration": 0.013888866666675881,
          "durationTicks": 4,
          "midi": 42,
          "name": "F#2",
          "ticks": 26641,
          "time": 92.50332421666666,
          "velocity": 1
        },
        {
          "duration": 0.01388886666666167,
          "durationTicks": 4,
          "midi": 42,
          "name": "F#2",
          "ticks": 26721,
          "time": 92.78110155,
          "velocity": 0.5590551181102362
        },
        {
          "duration": 0.01388886666666167,
          "durationTicks": 4,
          "midi": 36,
          "name": "C2",
          "ticks": 26761,
          "time": 92.91999021666666,
          "velocity": 1
        },
        {
          "duration": 0.01388886666666167,
          "durationTicks": 4,
          "midi": 38,
          "name": "D2",
          "ticks": 26761,
          "time": 92.91999021666666,
          "velocity": 1
        },
        {
          "duration": 0.01388886666666167,
          "durationTicks": 4,
          "midi": 42,
          "name": "F#2",
          "ticks": 26762,
          "time": 92.92346243333334,
          "velocity": 1
        },
        {
          "duration": 0.013888866666675881,
          "durationTicks": 4,
          "midi": 42,
          "name": "F#2",
          "ticks": 26841,
          "time": 93.19776755,
          "velocity": 0.5590551181102362
        },
        {
          "duration": 0.0173610833333413,
          "durationTicks": 5,
          "midi": 36,
          "name": "C2",
          "ticks": 26881,
          "time": 93.33665621666665,
          "velocity": 1
        },
        {
          "duration": 0.013888866666675881,
          "durationTicks": 4,
          "midi": 42,
          "name": "F#2",
          "ticks": 26881,
          "time": 93.33665621666665,
          "velocity": 1
        },
        {
          "duration": 0.017361083333327088,
          "durationTicks": 5,
          "midi": 42,
          "name": "F#2",
          "ticks": 26961,
          "time": 93.61443355,
          "velocity": 0.5590551181102362
        },
        {
          "duration": 0.01388886666666167,
          "durationTicks": 4,
          "midi": 36,
          "name": "C2",
          "ticks": 27001,
          "time": 93.75332221666666,
          "velocity": 1
        },
        {
          "duration": 0.01388886666666167,
          "durationTicks": 4,
          "midi": 38,
          "name": "D2",
          "ticks": 27001,
          "time": 93.75332221666666,
          "velocity": 1
        },
        {
          "duration": 0.01388886666666167,
          "durationTicks": 4,
          "midi": 42,
          "name": "F#2",
          "ticks": 27001,
          "time": 93.75332221666666,
          "velocity": 1
        },
        {
          "duration": 0.017361083333327088,
          "durationTicks": 5,
          "midi": 38,
          "name": "D2",
          "ticks": 27041,
          "time": 93.89221088333333,
          "velocity": 0.3228346456692913
        },
        {
          "duration": 0.013888866666675881,
          "durationTicks": 4,
          "midi": 38,
          "name": "D2",
          "ticks": 27081,
          "time": 94.03109955,
          "velocity": 1
        },
        {
          "duration": 0.013888866666675881,
          "durationTicks": 4,
          "midi": 42,
          "name": "F#2",
          "ticks": 27081,
          "time": 94.03109955,
          "velocity": 0.5590551181102362
        },
        {
          "duration": 0.013888866666675881,
          "durationTicks": 4,
          "midi": 36,
          "name": "C2",
          "ticks": 27121,
          "time": 94.16998821666665,
          "velocity": 1
        },
        {
          "duration": 0.013888866666675881,
          "durationTicks": 4,
          "midi": 38,
          "name": "D2",
          "ticks": 27121,
          "time": 94.16998821666665,
          "velocity": 0.3228346456692913
        },
        {
          "duration": 0.01388886666666167,
          "durationTicks": 4,
          "midi": 49,
          "name": "C#3",
          "ticks": 27122,
          "time": 94.17346043333333,
          "velocity": 1
        },
        {
          "duration": 0.01388886666666167,
          "durationTicks": 4,
          "midi": 46,
          "name": "A#2",
          "ticks": 27122,
          "time": 94.17346043333333,
          "velocity": 1
        },
        {
          "duration": 0.013888866666675881,
          "durationTicks": 4,
          "midi": 38,
          "name": "D2",
          "ticks": 27161,
          "time": 94.30887688333333,
          "velocity": 0.5590551181102362
        },
        {
          "duration": 0.01388886666666167,
          "durationTicks": 4,
          "midi": 38,
          "name": "D2",
          "ticks": 27201,
          "time": 94.44776555,
          "velocity": 0.3228346456692913
        },
        {
          "duration": 0.01388886666666167,
          "durationTicks": 4,
          "midi": 42,
          "name": "F#2",
          "ticks": 27201,
          "time": 94.44776555,
          "velocity": 0.5590551181102362
        },
        {
          "duration": 0.0173610833333413,
          "durationTicks": 5,
          "midi": 36,
          "name": "C2",
          "ticks": 27241,
          "time": 94.58665421666666,
          "velocity": 1
        },
        {
          "duration": 0.01388886666666167,
          "durationTicks": 4,
          "midi": 38,
          "name": "D2",
          "ticks": 27241,
          "time": 94.58665421666666,
          "velocity": 1
        },
        {
          "duration": 0.01388886666666167,
          "durationTicks": 4,
          "midi": 49,
          "name": "C#3",
          "ticks": 27241,
          "time": 94.58665421666666,
          "velocity": 1
        },
        {
          "duration": 0.01388886666666167,
          "durationTicks": 4,
          "midi": 46,
          "name": "A#2",
          "ticks": 27241,
          "time": 94.58665421666666,
          "velocity": 1
        },
        {
          "duration": 0.01388886666666167,
          "durationTicks": 4,
          "midi": 38,
          "name": "D2",
          "ticks": 27281,
          "time": 94.72554288333333,
          "velocity": 1
        },
        {
          "duration": 0.01388886666666167,
          "durationTicks": 4,
          "midi": 38,
          "name": "D2",
          "ticks": 27321,
          "time": 94.86443155,
          "velocity": 1
        },
        {
          "duration": 0.010416650000010463,
          "durationTicks": 3,
          "midi": 42,
          "name": "F#2",
          "ticks": 27322,
          "time": 94.86790376666666,
          "velocity": 0.5590551181102362
        },
        {
          "duration": 0.01388886666666167,
          "durationTicks": 4,
          "midi": 36,
          "name": "C2",
          "ticks": 27361,
          "time": 95.00332021666667,
          "velocity": 1
        },
        {
          "duration": 0.01388886666666167,
          "durationTicks": 4,
          "midi": 42,
          "name": "F#2",
          "ticks": 27361,
          "time": 95.00332021666667,
          "velocity": 1
        },
        {
          "duration": 0.01388886666666167,
          "durationTicks": 4,
          "midi": 49,
          "name": "C#3",
          "ticks": 27361,
          "time": 95.00332021666667,
          "velocity": 1
        },
        {
          "duration": 0.017361083333327088,
          "durationTicks": 5,
          "midi": 42,
          "name": "F#2",
          "ticks": 27441,
          "time": 95.28109755,
          "velocity": 0.5590551181102362
        },
        {
          "duration": 0.01388886666666167,
          "durationTicks": 4,
          "midi": 36,
          "name": "C2",
          "ticks": 27481,
          "time": 95.41998621666666,
          "velocity": 1
        },
        {
          "duration": 0.01388886666666167,
          "durationTicks": 4,
          "midi": 38,
          "name": "D2",
          "ticks": 27481,
          "time": 95.41998621666666,
          "velocity": 1
        },
        {
          "duration": 0.01388886666666167,
          "durationTicks": 4,
          "midi": 42,
          "name": "F#2",
          "ticks": 27482,
          "time": 95.42345843333334,
          "velocity": 1
        },
        {
          "duration": 0.01388886666666167,
          "durationTicks": 4,
          "midi": 46,
          "name": "A#2",
          "ticks": 27561,
          "time": 95.69776355,
          "velocity": 1
        },
        {
          "duration": 0.0173610833333413,
          "durationTicks": 5,
          "midi": 36,
          "name": "C2",
          "ticks": 27601,
          "time": 95.83665221666666,
          "velocity": 1
        },
        {
          "duration": 0.01388886666666167,
          "durationTicks": 4,
          "midi": 42,
          "name": "F#2",
          "ticks": 27601,
          "time": 95.83665221666666,
          "velocity": 1
        },
        {
          "duration": 0.013888866666675881,
          "durationTicks": 4,
          "midi": 42,
          "name": "F#2",
          "ticks": 27681,
          "time": 96.11442955,
          "velocity": 0.5590551181102362
        },
        {
          "duration": 0.01388886666666167,
          "durationTicks": 4,
          "midi": 36,
          "name": "C2",
          "ticks": 27721,
          "time": 96.25331821666666,
          "velocity": 1
        },
        {
          "duration": 0.01388886666666167,
          "durationTicks": 4,
          "midi": 38,
          "name": "D2",
          "ticks": 27721,
          "time": 96.25331821666666,
          "velocity": 1
        },
        {
          "duration": 0.01388886666666167,
          "durationTicks": 4,
          "midi": 42,
          "name": "F#2",
          "ticks": 27721,
          "time": 96.25331821666666,
          "velocity": 1
        },
        {
          "duration": 0.017361083333327088,
          "durationTicks": 5,
          "midi": 42,
          "name": "F#2",
          "ticks": 27801,
          "time": 96.53109555,
          "velocity": 0.5590551181102362
        },
        {
          "duration": 0.01388886666666167,
          "durationTicks": 4,
          "midi": 36,
          "name": "C2",
          "ticks": 27841,
          "time": 96.66998421666666,
          "velocity": 1
        },
        {
          "duration": 0.01388886666666167,
          "durationTicks": 4,
          "midi": 42,
          "name": "F#2",
          "ticks": 27841,
          "time": 96.66998421666666,
          "velocity": 1
        },
        {
          "duration": 0.013888866666675881,
          "durationTicks": 4,
          "midi": 42,
          "name": "F#2",
          "ticks": 27921,
          "time": 96.94776155,
          "velocity": 0.5590551181102362
        },
        {
          "duration": 0.013888866666675881,
          "durationTicks": 4,
          "midi": 36,
          "name": "C2",
          "ticks": 27961,
          "time": 97.08665021666665,
          "velocity": 1
        },
        {
          "duration": 0.013888866666675881,
          "durationTicks": 4,
          "midi": 38,
          "name": "D2",
          "ticks": 27961,
          "time": 97.08665021666665,
          "velocity": 1
        },
        {
          "duration": 0.013888866666675881,
          "durationTicks": 4,
          "midi": 42,
          "name": "F#2",
          "ticks": 27961,
          "time": 97.08665021666665,
          "velocity": 1
        },
        {
          "duration": 0.01388886666666167,
          "durationTicks": 4,
          "midi": 42,
          "name": "F#2",
          "ticks": 28041,
          "time": 97.36442755,
          "velocity": 0.5590551181102362
        },
        {
          "duration": 0.01388886666666167,
          "durationTicks": 4,
          "midi": 36,
          "name": "C2",
          "ticks": 28081,
          "time": 97.50331621666666,
          "velocity": 1
        },
        {
          "duration": 0.01388886666666167,
          "durationTicks": 4,
          "midi": 49,
          "name": "C#3",
          "ticks": 28081,
          "time": 97.50331621666666,
          "velocity": 1
        },
        {
          "duration": 0.01388886666666167,
          "durationTicks": 4,
          "midi": 46,
          "name": "A#2",
          "ticks": 28081,
          "time": 97.50331621666666,
          "velocity": 1
        },
        {
          "duration": 0.0173610833333413,
          "durationTicks": 5,
          "midi": 42,
          "name": "F#2",
          "ticks": 28161,
          "time": 97.78109355,
          "velocity": 0.5590551181102362
        },
        {
          "duration": 0.013888866666675881,
          "durationTicks": 4,
          "midi": 36,
          "name": "C2",
          "ticks": 28201,
          "time": 97.91998221666665,
          "velocity": 1
        },
        {
          "duration": 0.013888866666675881,
          "durationTicks": 4,
          "midi": 38,
          "name": "D2",
          "ticks": 28201,
          "time": 97.91998221666665,
          "velocity": 1
        },
        {
          "duration": 0.0173610833333413,
          "durationTicks": 5,
          "midi": 49,
          "name": "C#3",
          "ticks": 28201,
          "time": 97.91998221666665,
          "velocity": 1
        },
        {
          "duration": 0.0173610833333413,
          "durationTicks": 5,
          "midi": 46,
          "name": "A#2",
          "ticks": 28201,
          "time": 97.91998221666665,
          "velocity": 1
        },
        {
          "duration": 0.01388886666666167,
          "durationTicks": 4,
          "midi": 42,
          "name": "F#2",
          "ticks": 28281,
          "time": 98.19775955,
          "velocity": 0.5590551181102362
        },
        {
          "duration": 0.01388886666666167,
          "durationTicks": 4,
          "midi": 36,
          "name": "C2",
          "ticks": 28321,
          "time": 98.33664821666666,
          "velocity": 1
        },
        {
          "duration": 0.01388886666666167,
          "durationTicks": 4,
          "midi": 42,
          "name": "F#2",
          "ticks": 28321,
          "time": 98.33664821666666,
          "velocity": 1
        },
        {
          "duration": 0.01388886666666167,
          "durationTicks": 4,
          "midi": 49,
          "name": "C#3",
          "ticks": 28321,
          "time": 98.33664821666666,
          "velocity": 1
        },
        {
          "duration": 0.017361083333327088,
          "durationTicks": 5,
          "midi": 42,
          "name": "F#2",
          "ticks": 28401,
          "time": 98.61442555,
          "velocity": 0.5590551181102362
        },
        {
          "duration": 0.013888866666675881,
          "durationTicks": 4,
          "midi": 36,
          "name": "C2",
          "ticks": 28441,
          "time": 98.75331421666665,
          "velocity": 1
        },
        {
          "duration": 0.013888866666675881,
          "durationTicks": 4,
          "midi": 38,
          "name": "D2",
          "ticks": 28441,
          "time": 98.75331421666665,
          "velocity": 1
        },
        {
          "duration": 0.013888866666675881,
          "durationTicks": 4,
          "midi": 42,
          "name": "F#2",
          "ticks": 28441,
          "time": 98.75331421666665,
          "velocity": 1
        },
        {
          "duration": 0.01388886666666167,
          "durationTicks": 4,
          "midi": 46,
          "name": "A#2",
          "ticks": 28521,
          "time": 99.03109155,
          "velocity": 1
        },
        {
          "duration": 0.01388886666666167,
          "durationTicks": 4,
          "midi": 36,
          "name": "C2",
          "ticks": 28561,
          "time": 99.16998021666666,
          "velocity": 1
        },
        {
          "duration": 0.01388886666666167,
          "durationTicks": 4,
          "midi": 42,
          "name": "F#2",
          "ticks": 28561,
          "time": 99.16998021666666,
          "velocity": 1
        },
        {
          "duration": 0.01388886666666167,
          "durationTicks": 4,
          "midi": 42,
          "name": "F#2",
          "ticks": 28641,
          "time": 99.44775755,
          "velocity": 0.5590551181102362
        },
        {
          "duration": 0.0173610833333413,
          "durationTicks": 5,
          "midi": 36,
          "name": "C2",
          "ticks": 28681,
          "time": 99.58664621666667,
          "velocity": 1
        },
        {
          "duration": 0.01388886666666167,
          "durationTicks": 4,
          "midi": 38,
          "name": "D2",
          "ticks": 28681,
          "time": 99.58664621666667,
          "velocity": 1
        },
        {
          "duration": 0.01388886666666167,
          "durationTicks": 4,
          "midi": 42,
          "name": "F#2",
          "ticks": 28681,
          "time": 99.58664621666667,
          "velocity": 1
        },
        {
          "duration": 0.017361083333327088,
          "durationTicks": 5,
          "midi": 42,
          "name": "F#2",
          "ticks": 28761,
          "time": 99.86442355,
          "velocity": 0.5590551181102362
        },
        {
          "duration": 0.01388886666666167,
          "durationTicks": 4,
          "midi": 36,
          "name": "C2",
          "ticks": 28801,
          "time": 100.00331221666666,
          "velocity": 1
        },
        {
          "duration": 0.01388886666666167,
          "durationTicks": 4,
          "midi": 42,
          "name": "F#2",
          "ticks": 28801,
          "time": 100.00331221666666,
          "velocity": 1
        },
        {
          "duration": 0.01388886666666167,
          "durationTicks": 4,
          "midi": 42,
          "name": "F#2",
          "ticks": 28881,
          "time": 100.28108955,
          "velocity": 0.5590551181102362
        },
        {
          "duration": 0.01388886666666167,
          "durationTicks": 4,
          "midi": 36,
          "name": "C2",
          "ticks": 28921,
          "time": 100.41997821666666,
          "velocity": 1
        },
        {
          "duration": 0.01388886666666167,
          "durationTicks": 4,
          "midi": 38,
          "name": "D2",
          "ticks": 28921,
          "time": 100.41997821666666,
          "velocity": 1
        },
        {
          "duration": 0.01388886666666167,
          "durationTicks": 4,
          "midi": 42,
          "name": "F#2",
          "ticks": 28921,
          "time": 100.41997821666666,
          "velocity": 1
        },
        {
          "duration": 0.013888866666675881,
          "durationTicks": 4,
          "midi": 42,
          "name": "F#2",
          "ticks": 29001,
          "time": 100.69775555,
          "velocity": 0.5590551181102362
        },
        {
          "duration": 0.0173610833333413,
          "durationTicks": 5,
          "midi": 36,
          "name": "C2",
          "ticks": 29041,
          "time": 100.83664421666666,
          "velocity": 1
        },
        {
          "duration": 0.013888866666675881,
          "durationTicks": 4,
          "midi": 42,
          "name": "F#2",
          "ticks": 29041,
          "time": 100.83664421666666,
          "velocity": 1
        },
        {
          "duration": 0.017361083333327088,
          "durationTicks": 5,
          "midi": 42,
          "name": "F#2",
          "ticks": 29121,
          "time": 101.11442155,
          "velocity": 0.5590551181102362
        },
        {
          "duration": 0.01388886666666167,
          "durationTicks": 4,
          "midi": 36,
          "name": "C2",
          "ticks": 29161,
          "time": 101.25331021666666,
          "velocity": 1
        },
        {
          "duration": 0.01388886666666167,
          "durationTicks": 4,
          "midi": 38,
          "name": "D2",
          "ticks": 29161,
          "time": 101.25331021666666,
          "velocity": 1
        },
        {
          "duration": 0.01388886666666167,
          "durationTicks": 4,
          "midi": 42,
          "name": "F#2",
          "ticks": 29161,
          "time": 101.25331021666666,
          "velocity": 1
        },
        {
          "duration": 0.013888866666675881,
          "durationTicks": 4,
          "midi": 42,
          "name": "F#2",
          "ticks": 29241,
          "time": 101.53108755,
          "velocity": 0.5590551181102362
        },
        {
          "duration": 0.0173610833333413,
          "durationTicks": 5,
          "midi": 36,
          "name": "C2",
          "ticks": 29281,
          "time": 101.66997621666665,
          "velocity": 1
        },
        {
          "duration": 0.013888866666675881,
          "durationTicks": 4,
          "midi": 42,
          "name": "F#2",
          "ticks": 29281,
          "time": 101.66997621666665,
          "velocity": 1
        },
        {
          "duration": 0.017361083333327088,
          "durationTicks": 5,
          "midi": 42,
          "name": "F#2",
          "ticks": 29361,
          "time": 101.94775355,
          "velocity": 0.5590551181102362
        },
        {
          "duration": 0.01388886666666167,
          "durationTicks": 4,
          "midi": 36,
          "name": "C2",
          "ticks": 29401,
          "time": 102.08664221666666,
          "velocity": 1
        },
        {
          "duration": 0.01388886666666167,
          "durationTicks": 4,
          "midi": 38,
          "name": "D2",
          "ticks": 29401,
          "time": 102.08664221666666,
          "velocity": 1
        },
        {
          "duration": 0.01388886666666167,
          "durationTicks": 4,
          "midi": 42,
          "name": "F#2",
          "ticks": 29401,
          "time": 102.08664221666666,
          "velocity": 1
        },
        {
          "duration": 0.013888866666675881,
          "durationTicks": 4,
          "midi": 46,
          "name": "A#2",
          "ticks": 29481,
          "time": 102.36441955,
          "velocity": 1
        },
        {
          "duration": 0.013888866666675881,
          "durationTicks": 4,
          "midi": 36,
          "name": "C2",
          "ticks": 29521,
          "time": 102.50330821666665,
          "velocity": 1
        },
        {
          "duration": 0.013888866666675881,
          "durationTicks": 4,
          "midi": 42,
          "name": "F#2",
          "ticks": 29521,
          "time": 102.50330821666665,
          "velocity": 1
        },
        {
          "duration": 0.01388886666666167,
          "durationTicks": 4,
          "midi": 42,
          "name": "F#2",
          "ticks": 29601,
          "time": 102.78108555,
          "velocity": 0.5590551181102362
        },
        {
          "duration": 0.01388886666666167,
          "durationTicks": 4,
          "midi": 36,
          "name": "C2",
          "ticks": 29641,
          "time": 102.91997421666666,
          "velocity": 1
        },
        {
          "duration": 0.01388886666666167,
          "durationTicks": 4,
          "midi": 38,
          "name": "D2",
          "ticks": 29641,
          "time": 102.91997421666666,
          "velocity": 1
        },
        {
          "duration": 0.01388886666666167,
          "durationTicks": 4,
          "midi": 42,
          "name": "F#2",
          "ticks": 29641,
          "time": 102.91997421666666,
          "velocity": 1
        },
        {
          "duration": 0.017361083333327088,
          "durationTicks": 5,
          "midi": 42,
          "name": "F#2",
          "ticks": 29721,
          "time": 103.19775155,
          "velocity": 0.5590551181102362
        },
        {
          "duration": 0.013888866666675881,
          "durationTicks": 4,
          "midi": 36,
          "name": "C2",
          "ticks": 29761,
          "time": 103.33664021666665,
          "velocity": 1
        },
        {
          "duration": 0.013888866666675881,
          "durationTicks": 4,
          "midi": 42,
          "name": "F#2",
          "ticks": 29761,
          "time": 103.33664021666665,
          "velocity": 1
        },
        {
          "duration": 0.01388886666666167,
          "durationTicks": 4,
          "midi": 42,
          "name": "F#2",
          "ticks": 29841,
          "time": 103.61441755,
          "velocity": 0.5590551181102362
        },
        {
          "duration": 0.01388886666666167,
          "durationTicks": 4,
          "midi": 36,
          "name": "C2",
          "ticks": 29881,
          "time": 103.75330621666666,
          "velocity": 1
        },
        {
          "duration": 0.01388886666666167,
          "durationTicks": 4,
          "midi": 38,
          "name": "D2",
          "ticks": 29881,
          "time": 103.75330621666666,
          "velocity": 1
        },
        {
          "duration": 0.01388886666666167,
          "durationTicks": 4,
          "midi": 42,
          "name": "F#2",
          "ticks": 29882,
          "time": 103.75677843333334,
          "velocity": 1
        },
        {
          "duration": 0.01388886666666167,
          "durationTicks": 4,
          "midi": 42,
          "name": "F#2",
          "ticks": 29961,
          "time": 104.03108355,
          "velocity": 0.5590551181102362
        },
        {
          "duration": 0.01388886666666167,
          "durationTicks": 4,
          "midi": 36,
          "name": "C2",
          "ticks": 30001,
          "time": 104.16997221666666,
          "velocity": 1
        },
        {
          "duration": 0.01388886666666167,
          "durationTicks": 4,
          "midi": 42,
          "name": "F#2",
          "ticks": 30001,
          "time": 104.16997221666666,
          "velocity": 1
        },
        {
          "duration": 0.017361083333327088,
          "durationTicks": 5,
          "midi": 42,
          "name": "F#2",
          "ticks": 30081,
          "time": 104.44774955,
          "velocity": 0.5590551181102362
        },
        {
          "duration": 0.01388886666666167,
          "durationTicks": 4,
          "midi": 36,
          "name": "C2",
          "ticks": 30121,
          "time": 104.58663821666666,
          "velocity": 1
        },
        {
          "duration": 0.01388886666666167,
          "durationTicks": 4,
          "midi": 38,
          "name": "D2",
          "ticks": 30121,
          "time": 104.58663821666666,
          "velocity": 1
        },
        {
          "duration": 0.01388886666666167,
          "durationTicks": 4,
          "midi": 42,
          "name": "F#2",
          "ticks": 30121,
          "time": 104.58663821666666,
          "velocity": 1
        },
        {
          "duration": 0.01388886666666167,
          "durationTicks": 4,
          "midi": 42,
          "name": "F#2",
          "ticks": 30201,
          "time": 104.86441555,
          "velocity": 0.5590551181102362
        },
        {
          "duration": 0.01388886666666167,
          "durationTicks": 4,
          "midi": 36,
          "name": "C2",
          "ticks": 30241,
          "time": 105.00330421666666,
          "velocity": 1
        },
        {
          "duration": 0.013888866666675881,
          "durationTicks": 4,
          "midi": 42,
          "name": "F#2",
          "ticks": 30242,
          "time": 105.00677643333333,
          "velocity": 1
        },
        {
          "duration": 0.017361083333327088,
          "durationTicks": 5,
          "midi": 42,
          "name": "F#2",
          "ticks": 30321,
          "time": 105.28108155,
          "velocity": 0.5590551181102362
        },
        {
          "duration": 0.013888866666675881,
          "durationTicks": 4,
          "midi": 36,
          "name": "C2",
          "ticks": 30361,
          "time": 105.41997021666666,
          "velocity": 1
        },
        {
          "duration": 0.013888866666675881,
          "durationTicks": 4,
          "midi": 38,
          "name": "D2",
          "ticks": 30361,
          "time": 105.41997021666666,
          "velocity": 1
        },
        {
          "duration": 0.013888866666675881,
          "durationTicks": 4,
          "midi": 42,
          "name": "F#2",
          "ticks": 30361,
          "time": 105.41997021666666,
          "velocity": 1
        },
        {
          "duration": 0.01388886666666167,
          "durationTicks": 4,
          "midi": 46,
          "name": "A#2",
          "ticks": 30441,
          "time": 105.69774755,
          "velocity": 1
        },
        {
          "duration": 0.01388886666666167,
          "durationTicks": 4,
          "midi": 36,
          "name": "C2",
          "ticks": 30481,
          "time": 105.83663621666666,
          "velocity": 1
        },
        {
          "duration": 0.01388886666666167,
          "durationTicks": 4,
          "midi": 42,
          "name": "F#2",
          "ticks": 30481,
          "time": 105.83663621666666,
          "velocity": 1
        },
        {
          "duration": 0.013888866666675881,
          "durationTicks": 4,
          "midi": 42,
          "name": "F#2",
          "ticks": 30561,
          "time": 106.11441355,
          "velocity": 0.5590551181102362
        },
        {
          "duration": 0.0173610833333413,
          "durationTicks": 5,
          "midi": 36,
          "name": "C2",
          "ticks": 30601,
          "time": 106.25330221666665,
          "velocity": 1
        },
        {
          "duration": 0.013888866666675881,
          "durationTicks": 4,
          "midi": 38,
          "name": "D2",
          "ticks": 30601,
          "time": 106.25330221666665,
          "velocity": 1
        },
        {
          "duration": 0.013888866666675881,
          "durationTicks": 4,
          "midi": 42,
          "name": "F#2",
          "ticks": 30601,
          "time": 106.25330221666665,
          "velocity": 1
        },
        {
          "duration": 0.017361083333327088,
          "durationTicks": 5,
          "midi": 42,
          "name": "F#2",
          "ticks": 30681,
          "time": 106.53107955,
          "velocity": 0.5590551181102362
        },
        {
          "duration": 0.013888866666675881,
          "durationTicks": 4,
          "midi": 36,
          "name": "C2",
          "ticks": 30721,
          "time": 106.66996821666666,
          "velocity": 1
        },
        {
          "duration": 0.013888866666675881,
          "durationTicks": 4,
          "midi": 42,
          "name": "F#2",
          "ticks": 30721,
          "time": 106.66996821666666,
          "velocity": 1
        },
        {
          "duration": 0.01388886666666167,
          "durationTicks": 4,
          "midi": 42,
          "name": "F#2",
          "ticks": 30801,
          "time": 106.94774555,
          "velocity": 0.5590551181102362
        },
        {
          "duration": 0.013888866666690092,
          "durationTicks": 4,
          "midi": 36,
          "name": "C2",
          "ticks": 30841,
          "time": 107.08663421666665,
          "velocity": 1
        },
        {
          "duration": 0.013888866666690092,
          "durationTicks": 4,
          "midi": 38,
          "name": "D2",
          "ticks": 30841,
          "time": 107.08663421666665,
          "velocity": 1
        },
        {
          "duration": 0.013888866666675881,
          "durationTicks": 4,
          "midi": 42,
          "name": "F#2",
          "ticks": 30842,
          "time": 107.09010643333332,
          "velocity": 1
        },
        {
          "duration": 0.01388886666664746,
          "durationTicks": 4,
          "midi": 42,
          "name": "F#2",
          "ticks": 30921,
          "time": 107.36441155,
          "velocity": 0.5590551181102362
        },
        {
          "duration": 0.0173610833333413,
          "durationTicks": 5,
          "midi": 36,
          "name": "C2",
          "ticks": 30961,
          "time": 107.50330021666666,
          "velocity": 1
        },
        {
          "duration": 0.013888866666675881,
          "durationTicks": 4,
          "midi": 42,
          "name": "F#2",
          "ticks": 30961,
          "time": 107.50330021666666,
          "velocity": 1
        },
        {
          "duration": 0.017361083333312877,
          "durationTicks": 5,
          "midi": 42,
          "name": "F#2",
          "ticks": 31041,
          "time": 107.78107755,
          "velocity": 0.5590551181102362
        },
        {
          "duration": 0.013888866666675881,
          "durationTicks": 4,
          "midi": 36,
          "name": "C2",
          "ticks": 31081,
          "time": 107.91996621666667,
          "velocity": 1
        },
        {
          "duration": 0.013888866666675881,
          "durationTicks": 4,
          "midi": 38,
          "name": "D2",
          "ticks": 31081,
          "time": 107.91996621666667,
          "velocity": 1
        },
        {
          "duration": 0.013888866666675881,
          "durationTicks": 4,
          "midi": 42,
          "name": "F#2",
          "ticks": 31081,
          "time": 107.91996621666667,
          "velocity": 1
        },
        {
          "duration": 0.01388886666666167,
          "durationTicks": 4,
          "midi": 42,
          "name": "F#2",
          "ticks": 31161,
          "time": 108.19774355,
          "velocity": 0.5590551181102362
        },
        {
          "duration": 0.0173610833333413,
          "durationTicks": 5,
          "midi": 36,
          "name": "C2",
          "ticks": 31201,
          "time": 108.33663221666666,
          "velocity": 1
        },
        {
          "duration": 0.013888866666675881,
          "durationTicks": 4,
          "midi": 42,
          "name": "F#2",
          "ticks": 31201,
          "time": 108.33663221666666,
          "velocity": 1
        },
        {
          "duration": 0.013888866666675881,
          "durationTicks": 4,
          "midi": 49,
          "name": "C#3",
          "ticks": 31201,
          "time": 108.33663221666666,
          "velocity": 1
        },
        {
          "duration": 0.017361083333312877,
          "durationTicks": 5,
          "midi": 42,
          "name": "F#2",
          "ticks": 31281,
          "time": 108.61440955,
          "velocity": 0.5590551181102362
        },
        {
          "duration": 0.013888866666675881,
          "durationTicks": 4,
          "midi": 36,
          "name": "C2",
          "ticks": 31321,
          "time": 108.75329821666666,
          "velocity": 1
        },
        {
          "duration": 0.013888866666675881,
          "durationTicks": 4,
          "midi": 38,
          "name": "D2",
          "ticks": 31321,
          "time": 108.75329821666666,
          "velocity": 1
        },
        {
          "duration": 0.013888866666675881,
          "durationTicks": 4,
          "midi": 42,
          "name": "F#2",
          "ticks": 31321,
          "time": 108.75329821666666,
          "velocity": 1
        },
        {
          "duration": 0.01388886666666167,
          "durationTicks": 4,
          "midi": 46,
          "name": "A#2",
          "ticks": 31401,
          "time": 109.03107555,
          "velocity": 1
        },
        {
          "duration": 0.013888866666675881,
          "durationTicks": 4,
          "midi": 36,
          "name": "C2",
          "ticks": 31441,
          "time": 109.16996421666666,
          "velocity": 1
        },
        {
          "duration": 0.013888866666675881,
          "durationTicks": 4,
          "midi": 42,
          "name": "F#2",
          "ticks": 31442,
          "time": 109.17343643333332,
          "velocity": 1
        },
        {
          "duration": 0.01388886666664746,
          "durationTicks": 4,
          "midi": 42,
          "name": "F#2",
          "ticks": 31521,
          "time": 109.44774155,
          "velocity": 0.5590551181102362
        },
        {
          "duration": 0.0173610833333413,
          "durationTicks": 5,
          "midi": 36,
          "name": "C2",
          "ticks": 31561,
          "time": 109.58663021666666,
          "velocity": 1
        },
        {
          "duration": 0.013888866666675881,
          "durationTicks": 4,
          "midi": 38,
          "name": "D2",
          "ticks": 31561,
          "time": 109.58663021666666,
          "velocity": 1
        },
        {
          "duration": 0.013888866666675881,
          "durationTicks": 4,
          "midi": 42,
          "name": "F#2",
          "ticks": 31561,
          "time": 109.58663021666666,
          "velocity": 1
        },
        {
          "duration": 0.017361083333327088,
          "durationTicks": 5,
          "midi": 42,
          "name": "F#2",
          "ticks": 31641,
          "time": 109.86440755,
          "velocity": 0.5590551181102362
        },
        {
          "duration": 0.013888866666675881,
          "durationTicks": 4,
          "midi": 36,
          "name": "C2",
          "ticks": 31681,
          "time": 110.00329621666666,
          "velocity": 1
        },
        {
          "duration": 0.013888866666675881,
          "durationTicks": 4,
          "midi": 42,
          "name": "F#2",
          "ticks": 31681,
          "time": 110.00329621666666,
          "velocity": 1
        },
        {
          "duration": 0.01388886666664746,
          "durationTicks": 4,
          "midi": 42,
          "name": "F#2",
          "ticks": 31761,
          "time": 110.28107355,
          "velocity": 0.5590551181102362
        },
        {
          "duration": 0.013888866666675881,
          "durationTicks": 4,
          "midi": 36,
          "name": "C2",
          "ticks": 31801,
          "time": 110.41996221666666,
          "velocity": 1
        },
        {
          "duration": 0.013888866666675881,
          "durationTicks": 4,
          "midi": 38,
          "name": "D2",
          "ticks": 31801,
          "time": 110.41996221666666,
          "velocity": 1
        },
        {
          "duration": 0.013888866666675881,
          "durationTicks": 4,
          "midi": 42,
          "name": "F#2",
          "ticks": 31802,
          "time": 110.42343443333333,
          "velocity": 1
        },
        {
          "duration": 0.01388886666666167,
          "durationTicks": 4,
          "midi": 42,
          "name": "F#2",
          "ticks": 31881,
          "time": 110.69773955,
          "velocity": 0.5590551181102362
        },
        {
          "duration": 0.013888866666675881,
          "durationTicks": 4,
          "midi": 36,
          "name": "C2",
          "ticks": 31921,
          "time": 110.83662821666665,
          "velocity": 1
        },
        {
          "duration": 0.013888866666675881,
          "durationTicks": 4,
          "midi": 42,
          "name": "F#2",
          "ticks": 31921,
          "time": 110.83662821666665,
          "velocity": 1
        },
        {
          "duration": 0.017361083333312877,
          "durationTicks": 5,
          "midi": 42,
          "name": "F#2",
          "ticks": 32001,
          "time": 111.11440555,
          "velocity": 0.5590551181102362
        },
        {
          "duration": 0.013888866666675881,
          "durationTicks": 4,
          "midi": 36,
          "name": "C2",
          "ticks": 32041,
          "time": 111.25329421666666,
          "velocity": 1
        },
        {
          "duration": 0.013888866666675881,
          "durationTicks": 4,
          "midi": 38,
          "name": "D2",
          "ticks": 32041,
          "time": 111.25329421666666,
          "velocity": 1
        },
        {
          "duration": 0.013888866666675881,
          "durationTicks": 4,
          "midi": 42,
          "name": "F#2",
          "ticks": 32041,
          "time": 111.25329421666666,
          "velocity": 1
        },
        {
          "duration": 0.01388886666666167,
          "durationTicks": 4,
          "midi": 42,
          "name": "F#2",
          "ticks": 32121,
          "time": 111.53107155,
          "velocity": 0.5590551181102362
        },
        {
          "duration": 0.013888866666690092,
          "durationTicks": 4,
          "midi": 36,
          "name": "C2",
          "ticks": 32161,
          "time": 111.66996021666665,
          "velocity": 1
        },
        {
          "duration": 0.013888866666675881,
          "durationTicks": 4,
          "midi": 42,
          "name": "F#2",
          "ticks": 32162,
          "time": 111.67343243333332,
          "velocity": 1
        },
        {
          "duration": 0.017361083333312877,
          "durationTicks": 5,
          "midi": 42,
          "name": "F#2",
          "ticks": 32241,
          "time": 111.94773755,
          "velocity": 0.5590551181102362
        },
        {
          "duration": 0.013888866666675881,
          "durationTicks": 4,
          "midi": 36,
          "name": "C2",
          "ticks": 32281,
          "time": 112.08662621666666,
          "velocity": 1
        },
        {
          "duration": 0.013888866666675881,
          "durationTicks": 4,
          "midi": 38,
          "name": "D2",
          "ticks": 32281,
          "time": 112.08662621666666,
          "velocity": 1
        },
        {
          "duration": 0.013888866666675881,
          "durationTicks": 4,
          "midi": 42,
          "name": "F#2",
          "ticks": 32281,
          "time": 112.08662621666666,
          "velocity": 1
        },
        {
          "duration": 0.01388886666664746,
          "durationTicks": 4,
          "midi": 46,
          "name": "A#2",
          "ticks": 32361,
          "time": 112.36440355,
          "velocity": 1
        },
        {
          "duration": 0.013888866666675881,
          "durationTicks": 4,
          "midi": 36,
          "name": "C2",
          "ticks": 32401,
          "time": 112.50329221666667,
          "velocity": 1
        },
        {
          "duration": 0.013888866666675881,
          "durationTicks": 4,
          "midi": 42,
          "name": "F#2",
          "ticks": 32401,
          "time": 112.50329221666667,
          "velocity": 1
        },
        {
          "duration": 0.01388886666666167,
          "durationTicks": 4,
          "midi": 42,
          "name": "F#2",
          "ticks": 32481,
          "time": 112.78106955,
          "velocity": 0.5590551181102362
        },
        {
          "duration": 0.0173610833333413,
          "durationTicks": 5,
          "midi": 36,
          "name": "C2",
          "ticks": 32521,
          "time": 112.91995821666666,
          "velocity": 1
        },
        {
          "duration": 0.013888866666675881,
          "durationTicks": 4,
          "midi": 38,
          "name": "D2",
          "ticks": 32521,
          "time": 112.91995821666666,
          "velocity": 1
        },
        {
          "duration": 0.013888866666675881,
          "durationTicks": 4,
          "midi": 42,
          "name": "F#2",
          "ticks": 32521,
          "time": 112.91995821666666,
          "velocity": 1
        },
        {
          "duration": 0.017361083333312877,
          "durationTicks": 5,
          "midi": 42,
          "name": "F#2",
          "ticks": 32601,
          "time": 113.19773555,
          "velocity": 0.5590551181102362
        },
        {
          "duration": 0.013888866666675881,
          "durationTicks": 4,
          "midi": 36,
          "name": "C2",
          "ticks": 32641,
          "time": 113.33662421666666,
          "velocity": 1
        },
        {
          "duration": 0.013888866666675881,
          "durationTicks": 4,
          "midi": 42,
          "name": "F#2",
          "ticks": 32641,
          "time": 113.33662421666666,
          "velocity": 1
        },
        {
          "duration": 0.01388886666666167,
          "durationTicks": 4,
          "midi": 42,
          "name": "F#2",
          "ticks": 32721,
          "time": 113.61440155,
          "velocity": 0.5590551181102362
        },
        {
          "duration": 0.013888866666675881,
          "durationTicks": 4,
          "midi": 36,
          "name": "C2",
          "ticks": 32761,
          "time": 113.75329021666666,
          "velocity": 1
        },
        {
          "duration": 0.013888866666675881,
          "durationTicks": 4,
          "midi": 38,
          "name": "D2",
          "ticks": 32761,
          "time": 113.75329021666666,
          "velocity": 1
        },
        {
          "duration": 0.013888866666675881,
          "durationTicks": 4,
          "midi": 42,
          "name": "F#2",
          "ticks": 32762,
          "time": 113.75676243333332,
          "velocity": 1
        },
        {
          "duration": 0.01388886666664746,
          "durationTicks": 4,
          "midi": 42,
          "name": "F#2",
          "ticks": 32841,
          "time": 114.03106755,
          "velocity": 0.5590551181102362
        },
        {
          "duration": 0.0173610833333413,
          "durationTicks": 5,
          "midi": 36,
          "name": "C2",
          "ticks": 32881,
          "time": 114.16995621666666,
          "velocity": 1
        },
        {
          "duration": 0.013888866666675881,
          "durationTicks": 4,
          "midi": 42,
          "name": "F#2",
          "ticks": 32881,
          "time": 114.16995621666666,
          "velocity": 1
        },
        {
          "duration": 0.017361083333327088,
          "durationTicks": 5,
          "midi": 42,
          "name": "F#2",
          "ticks": 32961,
          "time": 114.44773355,
          "velocity": 0.5590551181102362
        },
        {
          "duration": 0.013888866666675881,
          "durationTicks": 4,
          "midi": 36,
          "name": "C2",
          "ticks": 33001,
          "time": 114.58662221666665,
          "velocity": 1
        },
        {
          "duration": 0.013888866666675881,
          "durationTicks": 4,
          "midi": 38,
          "name": "D2",
          "ticks": 33001,
          "time": 114.58662221666665,
          "velocity": 1
        },
        {
          "duration": 0.013888866666675881,
          "durationTicks": 4,
          "midi": 42,
          "name": "F#2",
          "ticks": 33001,
          "time": 114.58662221666665,
          "velocity": 1
        },
        {
          "duration": 0.01388886666664746,
          "durationTicks": 4,
          "midi": 42,
          "name": "F#2",
          "ticks": 33081,
          "time": 114.86439955,
          "velocity": 0.5590551181102362
        },
        {
          "duration": 0.013888866666675881,
          "durationTicks": 4,
          "midi": 36,
          "name": "C2",
          "ticks": 33121,
          "time": 115.00328821666666,
          "velocity": 1
        },
        {
          "duration": 0.013888866666675881,
          "durationTicks": 4,
          "midi": 42,
          "name": "F#2",
          "ticks": 33121,
          "time": 115.00328821666666,
          "velocity": 1
        },
        {
          "duration": 0.013888866666675881,
          "durationTicks": 4,
          "midi": 49,
          "name": "C#3",
          "ticks": 33122,
          "time": 115.00676043333333,
          "velocity": 1
        },
        {
          "duration": 0.01388886666666167,
          "durationTicks": 4,
          "midi": 42,
          "name": "F#2",
          "ticks": 33201,
          "time": 115.28106555,
          "velocity": 0.5590551181102362
        },
        {
          "duration": 0.013888866666675881,
          "durationTicks": 4,
          "midi": 36,
          "name": "C2",
          "ticks": 33241,
          "time": 115.41995421666665,
          "velocity": 1
        },
        {
          "duration": 0.013888866666675881,
          "durationTicks": 4,
          "midi": 38,
          "name": "D2",
          "ticks": 33241,
          "time": 115.41995421666665,
          "velocity": 1
        },
        {
          "duration": 0.013888866666675881,
          "durationTicks": 4,
          "midi": 42,
          "name": "F#2",
          "ticks": 33241,
          "time": 115.41995421666665,
          "velocity": 1
        },
        {
          "duration": 0.017361083333312877,
          "durationTicks": 5,
          "midi": 46,
          "name": "A#2",
          "ticks": 33321,
          "time": 115.69773155,
          "velocity": 1
        },
        {
          "duration": 0.013888866666675881,
          "durationTicks": 4,
          "midi": 36,
          "name": "C2",
          "ticks": 33361,
          "time": 115.83662021666666,
          "velocity": 1
        },
        {
          "duration": 0.013888866666675881,
          "durationTicks": 4,
          "midi": 42,
          "name": "F#2",
          "ticks": 33361,
          "time": 115.83662021666666,
          "velocity": 1
        },
        {
          "duration": 0.01388886666666167,
          "durationTicks": 4,
          "midi": 42,
          "name": "F#2",
          "ticks": 33441,
          "time": 116.11439754999999,
          "velocity": 0.5590551181102362
        },
        {
          "duration": 0.013888866666690092,
          "durationTicks": 4,
          "midi": 36,
          "name": "C2",
          "ticks": 33481,
          "time": 116.25328621666665,
          "velocity": 1
        },
        {
          "duration": 0.013888866666690092,
          "durationTicks": 4,
          "midi": 38,
          "name": "D2",
          "ticks": 33481,
          "time": 116.25328621666665,
          "velocity": 1
        },
        {
          "duration": 0.013888866666675881,
          "durationTicks": 4,
          "midi": 42,
          "name": "F#2",
          "ticks": 33482,
          "time": 116.25675843333332,
          "velocity": 1
        },
        {
          "duration": 0.01388886666664746,
          "durationTicks": 4,
          "midi": 42,
          "name": "F#2",
          "ticks": 33561,
          "time": 116.53106355,
          "velocity": 0.5590551181102362
        },
        {
          "duration": 0.013888866666675881,
          "durationTicks": 4,
          "midi": 36,
          "name": "C2",
          "ticks": 33601,
          "time": 116.66995221666666,
          "velocity": 1
        },
        {
          "duration": 0.013888866666675881,
          "durationTicks": 4,
          "midi": 42,
          "name": "F#2",
          "ticks": 33601,
          "time": 116.66995221666666,
          "velocity": 1
        },
        {
          "duration": 0.017361083333312877,
          "durationTicks": 5,
          "midi": 42,
          "name": "F#2",
          "ticks": 33681,
          "time": 116.94772955,
          "velocity": 0.5590551181102362
        },
        {
          "duration": 0.013888866666675881,
          "durationTicks": 4,
          "midi": 36,
          "name": "C2",
          "ticks": 33721,
          "time": 117.08661821666666,
          "velocity": 1
        },
        {
          "duration": 0.013888866666675881,
          "durationTicks": 4,
          "midi": 38,
          "name": "D2",
          "ticks": 33721,
          "time": 117.08661821666666,
          "velocity": 1
        },
        {
          "duration": 0.013888866666675881,
          "durationTicks": 4,
          "midi": 42,
          "name": "F#2",
          "ticks": 33721,
          "time": 117.08661821666666,
          "velocity": 1
        },
        {
          "duration": 0.01388886666666167,
          "durationTicks": 4,
          "midi": 38,
          "name": "D2",
          "ticks": 33801,
          "time": 117.36439555,
          "velocity": 1
        },
        {
          "duration": 0.01388886666666167,
          "durationTicks": 4,
          "midi": 46,
          "name": "A#2",
          "ticks": 33801,
          "time": 117.36439555,
          "velocity": 1
        },
        {
          "duration": 0.013888866666675881,
          "durationTicks": 4,
          "midi": 36,
          "name": "C2",
          "ticks": 33841,
          "time": 117.50328421666666,
          "velocity": 1
        },
        {
          "duration": 0.013888866666675881,
          "durationTicks": 4,
          "midi": 42,
          "name": "F#2",
          "ticks": 33841,
          "time": 117.50328421666666,
          "velocity": 1
        },
        {
          "duration": 0.013888866666675881,
          "durationTicks": 4,
          "midi": 49,
          "name": "C#3",
          "ticks": 33842,
          "time": 117.50675643333332,
          "velocity": 1
        },
        {
          "duration": 0.01388886666664746,
          "durationTicks": 4,
          "midi": 42,
          "name": "F#2",
          "ticks": 33921,
          "time": 117.78106155,
          "velocity": 0.5590551181102362
        },
        {
          "duration": 0.013888866666675881,
          "durationTicks": 4,
          "midi": 36,
          "name": "C2",
          "ticks": 33961,
          "time": 117.91995021666666,
          "velocity": 1
        },
        {
          "duration": 0.013888866666675881,
          "durationTicks": 4,
          "midi": 38,
          "name": "D2",
          "ticks": 33961,
          "time": 117.91995021666666,
          "velocity": 1
        },
        {
          "duration": 0.013888866666675881,
          "durationTicks": 4,
          "midi": 42,
          "name": "F#2",
          "ticks": 33961,
          "time": 117.91995021666666,
          "velocity": 1
        },
        {
          "duration": 0.017361083333327088,
          "durationTicks": 5,
          "midi": 46,
          "name": "A#2",
          "ticks": 34041,
          "time": 118.19772755,
          "velocity": 1
        },
        {
          "duration": 0.013888866666675881,
          "durationTicks": 4,
          "midi": 36,
          "name": "C2",
          "ticks": 34081,
          "time": 118.33661621666666,
          "velocity": 1
        },
        {
          "duration": 0.013888866666675881,
          "durationTicks": 4,
          "midi": 42,
          "name": "F#2",
          "ticks": 34081,
          "time": 118.33661621666666,
          "velocity": 1
        },
        {
          "duration": 0.01388886666664746,
          "durationTicks": 4,
          "midi": 42,
          "name": "F#2",
          "ticks": 34161,
          "time": 118.61439355,
          "velocity": 0.5590551181102362
        },
        {
          "duration": 0.013888866666675881,
          "durationTicks": 4,
          "midi": 36,
          "name": "C2",
          "ticks": 34201,
          "time": 118.75328221666666,
          "velocity": 1
        },
        {
          "duration": 0.013888866666675881,
          "durationTicks": 4,
          "midi": 38,
          "name": "D2",
          "ticks": 34202,
          "time": 118.75675443333333,
          "velocity": 1
        },
        {
          "duration": 0.013888866666675881,
          "durationTicks": 4,
          "midi": 42,
          "name": "F#2",
          "ticks": 34202,
          "time": 118.75675443333333,
          "velocity": 1
        },
        {
          "duration": 0.01388886666666167,
          "durationTicks": 4,
          "midi": 42,
          "name": "F#2",
          "ticks": 34281,
          "time": 119.03105955,
          "velocity": 0.5590551181102362
        },
        {
          "duration": 0.013888866666675881,
          "durationTicks": 4,
          "midi": 36,
          "name": "C2",
          "ticks": 34321,
          "time": 119.16994821666665,
          "velocity": 1
        },
        {
          "duration": 0.013888866666675881,
          "durationTicks": 4,
          "midi": 42,
          "name": "F#2",
          "ticks": 34321,
          "time": 119.16994821666665,
          "velocity": 1
        },
        {
          "duration": 0.01388886666664746,
          "durationTicks": 4,
          "midi": 42,
          "name": "F#2",
          "ticks": 34401,
          "time": 119.44772555,
          "velocity": 0.5590551181102362
        },
        {
          "duration": 0.013888866666675881,
          "durationTicks": 4,
          "midi": 36,
          "name": "C2",
          "ticks": 34441,
          "time": 119.58661421666666,
          "velocity": 1
        },
        {
          "duration": 0.013888866666675881,
          "durationTicks": 4,
          "midi": 38,
          "name": "D2",
          "ticks": 34441,
          "time": 119.58661421666666,
          "velocity": 1
        },
        {
          "duration": 0.013888866666675881,
          "durationTicks": 4,
          "midi": 42,
          "name": "F#2",
          "ticks": 34441,
          "time": 119.58661421666666,
          "velocity": 1
        },
        {
          "duration": 0.01388886666666167,
          "durationTicks": 4,
          "midi": 42,
          "name": "F#2",
          "ticks": 34521,
          "time": 119.86439155,
          "velocity": 0.5590551181102362
        },
        {
          "duration": 0.0173610833333413,
          "durationTicks": 5,
          "midi": 36,
          "name": "C2",
          "ticks": 34561,
          "time": 120.00328021666665,
          "velocity": 1
        },
        {
          "duration": 0.013888866666675881,
          "durationTicks": 4,
          "midi": 42,
          "name": "F#2",
          "ticks": 34561,
          "time": 120.00328021666665,
          "velocity": 1
        },
        {
          "duration": 0.017361083333312877,
          "durationTicks": 5,
          "midi": 42,
          "name": "F#2",
          "ticks": 34641,
          "time": 120.28105755,
          "velocity": 0.5590551181102362
        },
        {
          "duration": 0.013888866666675881,
          "durationTicks": 4,
          "midi": 36,
          "name": "C2",
          "ticks": 34681,
          "time": 120.41994621666666,
          "velocity": 1
        },
        {
          "duration": 0.013888866666675881,
          "durationTicks": 4,
          "midi": 38,
          "name": "D2",
          "ticks": 34681,
          "time": 120.41994621666666,
          "velocity": 1
        },
        {
          "duration": 0.013888866666675881,
          "durationTicks": 4,
          "midi": 42,
          "name": "F#2",
          "ticks": 34681,
          "time": 120.41994621666666,
          "velocity": 1
        },
        {
          "duration": 0.01388886666666167,
          "durationTicks": 4,
          "midi": 42,
          "name": "F#2",
          "ticks": 34761,
          "time": 120.69772354999999,
          "velocity": 0.5590551181102362
        },
        {
          "duration": 0.013888866666690092,
          "durationTicks": 4,
          "midi": 36,
          "name": "C2",
          "ticks": 34801,
          "time": 120.83661221666665,
          "velocity": 1
        },
        {
          "duration": 0.013888866666675881,
          "durationTicks": 4,
          "midi": 42,
          "name": "F#2",
          "ticks": 34802,
          "time": 120.84008443333332,
          "velocity": 1
        },
        {
          "duration": 0.01388886666666167,
          "durationTicks": 4,
          "midi": 42,
          "name": "F#2",
          "ticks": 34881,
          "time": 121.11438955,
          "velocity": 0.5590551181102362
        },
        {
          "duration": 0.013888866666675881,
          "durationTicks": 4,
          "midi": 36,
          "name": "C2",
          "ticks": 34921,
          "time": 121.25327821666666,
          "velocity": 1
        },
        {
          "duration": 0.013888866666675881,
          "durationTicks": 4,
          "midi": 38,
          "name": "D2",
          "ticks": 34921,
          "time": 121.25327821666666,
          "velocity": 1
        },
        {
          "duration": 0.013888866666675881,
          "durationTicks": 4,
          "midi": 42,
          "name": "F#2",
          "ticks": 34922,
          "time": 121.25675043333332,
          "velocity": 1
        },
        {
          "duration": 0.01388886666664746,
          "durationTicks": 4,
          "midi": 46,
          "name": "A#2",
          "ticks": 35001,
          "time": 121.53105555,
          "velocity": 1
        },
        {
          "duration": 0.013888866666675881,
          "durationTicks": 4,
          "midi": 36,
          "name": "C2",
          "ticks": 35041,
          "time": 121.66994421666666,
          "velocity": 1
        },
        {
          "duration": 0.013888866666675881,
          "durationTicks": 4,
          "midi": 42,
          "name": "F#2",
          "ticks": 35041,
          "time": 121.66994421666666,
          "velocity": 1
        },
        {
          "duration": 0.017361083333312877,
          "durationTicks": 5,
          "midi": 42,
          "name": "F#2",
          "ticks": 35121,
          "time": 121.94772155,
          "velocity": 0.5590551181102362
        },
        {
          "duration": 0.013888866666675881,
          "durationTicks": 4,
          "midi": 36,
          "name": "C2",
          "ticks": 35161,
          "time": 122.08661021666666,
          "velocity": 1
        },
        {
          "duration": 0.013888866666675881,
          "durationTicks": 4,
          "midi": 38,
          "name": "D2",
          "ticks": 35161,
          "time": 122.08661021666666,
          "velocity": 1
        },
        {
          "duration": 0.013888866666675881,
          "durationTicks": 4,
          "midi": 42,
          "name": "F#2",
          "ticks": 35161,
          "time": 122.08661021666666,
          "velocity": 1
        },
        {
          "duration": 0.01388886666664746,
          "durationTicks": 4,
          "midi": 42,
          "name": "F#2",
          "ticks": 35241,
          "time": 122.36438755,
          "velocity": 0.5590551181102362
        },
        {
          "duration": 0.0173610833333413,
          "durationTicks": 5,
          "midi": 36,
          "name": "C2",
          "ticks": 35281,
          "time": 122.50327621666666,
          "velocity": 1
        },
        {
          "duration": 0.013888866666675881,
          "durationTicks": 4,
          "midi": 42,
          "name": "F#2",
          "ticks": 35281,
          "time": 122.50327621666666,
          "velocity": 1
        },
        {
          "duration": 0.01388886666666167,
          "durationTicks": 4,
          "midi": 42,
          "name": "F#2",
          "ticks": 35361,
          "time": 122.78105355,
          "velocity": 0.5590551181102362
        },
        {
          "duration": 0.0173610833333413,
          "durationTicks": 5,
          "midi": 36,
          "name": "C2",
          "ticks": 35401,
          "time": 122.91994221666666,
          "velocity": 1
        },
        {
          "duration": 0.0173610833333413,
          "durationTicks": 5,
          "midi": 38,
          "name": "D2",
          "ticks": 35401,
          "time": 122.91994221666666,
          "velocity": 1
        },
        {
          "duration": 0.013888866666675881,
          "durationTicks": 4,
          "midi": 42,
          "name": "F#2",
          "ticks": 35401,
          "time": 122.91994221666666,
          "velocity": 1
        },
        {
          "duration": 0.01388886666664746,
          "durationTicks": 4,
          "midi": 42,
          "name": "F#2",
          "ticks": 35481,
          "time": 123.19771955,
          "velocity": 0.5590551181102362
        },
        {
          "duration": 0.013888866666675881,
          "durationTicks": 4,
          "midi": 36,
          "name": "C2",
          "ticks": 35521,
          "time": 123.33660821666666,
          "velocity": 1
        },
        {
          "duration": 0.013888866666675881,
          "durationTicks": 4,
          "midi": 42,
          "name": "F#2",
          "ticks": 35521,
          "time": 123.33660821666666,
          "velocity": 1
        },
        {
          "duration": 0.01388886666666167,
          "durationTicks": 4,
          "midi": 42,
          "name": "F#2",
          "ticks": 35601,
          "time": 123.61438555,
          "velocity": 0.5590551181102362
        },
        {
          "duration": 0.013888866666675881,
          "durationTicks": 4,
          "midi": 36,
          "name": "C2",
          "ticks": 35641,
          "time": 123.75327421666665,
          "velocity": 1
        },
        {
          "duration": 0.013888866666675881,
          "durationTicks": 4,
          "midi": 38,
          "name": "D2",
          "ticks": 35641,
          "time": 123.75327421666665,
          "velocity": 1
        },
        {
          "duration": 0.013888866666675881,
          "durationTicks": 4,
          "midi": 42,
          "name": "F#2",
          "ticks": 35641,
          "time": 123.75327421666665,
          "velocity": 1
        },
        {
          "duration": 0.01388886666664746,
          "durationTicks": 4,
          "midi": 42,
          "name": "F#2",
          "ticks": 35721,
          "time": 124.03105155,
          "velocity": 0.5590551181102362
        },
        {
          "duration": 0.013888866666675881,
          "durationTicks": 4,
          "midi": 36,
          "name": "C2",
          "ticks": 35761,
          "time": 124.16994021666666,
          "velocity": 1
        },
        {
          "duration": 0.013888866666675881,
          "durationTicks": 4,
          "midi": 42,
          "name": "F#2",
          "ticks": 35761,
          "time": 124.16994021666666,
          "velocity": 1
        },
        {
          "duration": 0.017361083333327088,
          "durationTicks": 5,
          "midi": 42,
          "name": "F#2",
          "ticks": 35841,
          "time": 124.44771755,
          "velocity": 0.5590551181102362
        },
        {
          "duration": 0.013888866666690092,
          "durationTicks": 4,
          "midi": 36,
          "name": "C2",
          "ticks": 35881,
          "time": 124.58660621666665,
          "velocity": 1
        },
        {
          "duration": 0.013888866666690092,
          "durationTicks": 4,
          "midi": 38,
          "name": "D2",
          "ticks": 35881,
          "time": 124.58660621666665,
          "velocity": 1
        },
        {
          "duration": 0.013888866666690092,
          "durationTicks": 4,
          "midi": 42,
          "name": "F#2",
          "ticks": 35881,
          "time": 124.58660621666665,
          "velocity": 1
        },
        {
          "duration": 0.01388886666664746,
          "durationTicks": 4,
          "midi": 46,
          "name": "A#2",
          "ticks": 35961,
          "time": 124.86438355,
          "velocity": 1
        },
        {
          "duration": 0.0173610833333413,
          "durationTicks": 5,
          "midi": 36,
          "name": "C2",
          "ticks": 36001,
          "time": 125.00327221666666,
          "velocity": 1
        },
        {
          "duration": 0.013888866666675881,
          "durationTicks": 4,
          "midi": 42,
          "name": "F#2",
          "ticks": 36001,
          "time": 125.00327221666666,
          "velocity": 1
        },
        {
          "duration": 0.01388886666664746,
          "durationTicks": 4,
          "midi": 42,
          "name": "F#2",
          "ticks": 36081,
          "time": 125.28104955,
          "velocity": 0.5590551181102362
        },
        {
          "duration": 0.0173610833333413,
          "durationTicks": 5,
          "midi": 36,
          "name": "C2",
          "ticks": 36121,
          "time": 125.41993821666665,
          "velocity": 1
        },
        {
          "duration": 0.013888866666690092,
          "durationTicks": 4,
          "midi": 38,
          "name": "D2",
          "ticks": 36121,
          "time": 125.41993821666665,
          "velocity": 1
        },
        {
          "duration": 0.013888866666690092,
          "durationTicks": 4,
          "midi": 42,
          "name": "F#2",
          "ticks": 36121,
          "time": 125.41993821666665,
          "velocity": 1
        },
        {
          "duration": 0.01388886666666167,
          "durationTicks": 4,
          "midi": 42,
          "name": "F#2",
          "ticks": 36201,
          "time": 125.69771555,
          "velocity": 0.5590551181102362
        },
        {
          "duration": 0.013888866666675881,
          "durationTicks": 4,
          "midi": 36,
          "name": "C2",
          "ticks": 36241,
          "time": 125.83660421666666,
          "velocity": 1
        },
        {
          "duration": 0.013888866666675881,
          "durationTicks": 4,
          "midi": 42,
          "name": "F#2",
          "ticks": 36241,
          "time": 125.83660421666666,
          "velocity": 1
        },
        {
          "duration": 0.01388886666664746,
          "durationTicks": 4,
          "midi": 42,
          "name": "F#2",
          "ticks": 36321,
          "time": 126.11438155,
          "velocity": 0.5590551181102362
        },
        {
          "duration": 0.01388886666664746,
          "durationTicks": 4,
          "midi": 48,
          "name": "C3",
          "ticks": 36321,
          "time": 126.11438155,
          "velocity": 1
        },
        {
          "duration": 0.013888866666675881,
          "durationTicks": 4,
          "midi": 36,
          "name": "C2",
          "ticks": 36361,
          "time": 126.25327021666666,
          "velocity": 1
        },
        {
          "duration": 0.013888866666675881,
          "durationTicks": 4,
          "midi": 38,
          "name": "D2",
          "ticks": 36361,
          "time": 126.25327021666666,
          "velocity": 1
        },
        {
          "duration": 0.013888866666675881,
          "durationTicks": 4,
          "midi": 42,
          "name": "F#2",
          "ticks": 36361,
          "time": 126.25327021666666,
          "velocity": 1
        },
        {
          "duration": 0.01388886666666167,
          "durationTicks": 4,
          "midi": 38,
          "name": "D2",
          "ticks": 36441,
          "time": 126.53104755,
          "velocity": 0.3228346456692913
        },
        {
          "duration": 0.01388886666666167,
          "durationTicks": 4,
          "midi": 42,
          "name": "F#2",
          "ticks": 36441,
          "time": 126.53104755,
          "velocity": 0.5590551181102362
        },
        {
          "duration": 0.01388886666666167,
          "durationTicks": 4,
          "midi": 45,
          "name": "A2",
          "ticks": 36441,
          "time": 126.53104755,
          "velocity": 1
        },
        {
          "duration": 0.013888866666675881,
          "durationTicks": 4,
          "midi": 36,
          "name": "C2",
          "ticks": 36481,
          "time": 126.66993621666666,
          "velocity": 1
        },
        {
          "duration": 0.013888866666675881,
          "durationTicks": 4,
          "midi": 42,
          "name": "F#2",
          "ticks": 36481,
          "time": 126.66993621666666,
          "velocity": 1
        },
        {
          "duration": 0.013888866666675881,
          "durationTicks": 4,
          "midi": 41,
          "name": "F2",
          "ticks": 36481,
          "time": 126.66993621666666,
          "velocity": 1
        },
        {
          "duration": 0.01388886666664746,
          "durationTicks": 4,
          "midi": 38,
          "name": "D2",
          "ticks": 36561,
          "time": 126.94771355,
          "velocity": 0.3228346456692913
        },
        {
          "duration": 0.01388886666664746,
          "durationTicks": 4,
          "midi": 42,
          "name": "F#2",
          "ticks": 36561,
          "time": 126.94771355,
          "velocity": 0.5590551181102362
        },
        {
          "duration": 0.0173610833333413,
          "durationTicks": 5,
          "midi": 36,
          "name": "C2",
          "ticks": 36601,
          "time": 127.08660221666666,
          "velocity": 1
        },
        {
          "duration": 0.013888866666675881,
          "durationTicks": 4,
          "midi": 38,
          "name": "D2",
          "ticks": 36601,
          "time": 127.08660221666666,
          "velocity": 0.3228346456692913
        },
        {
          "duration": 0.013888866666675881,
          "durationTicks": 4,
          "midi": 42,
          "name": "F#2",
          "ticks": 36601,
          "time": 127.08660221666666,
          "velocity": 1
        },
        {
          "duration": 0.013888866666675881,
          "durationTicks": 4,
          "midi": 38,
          "name": "D2",
          "ticks": 36641,
          "time": 127.22549088333332,
          "velocity": 1
        },
        {
          "duration": 0.01388886666666167,
          "durationTicks": 4,
          "midi": 38,
          "name": "D2",
          "ticks": 36681,
          "time": 127.36437955,
          "velocity": 1
        },
        {
          "duration": 0.01388886666666167,
          "durationTicks": 4,
          "midi": 42,
          "name": "F#2",
          "ticks": 36681,
          "time": 127.36437955,
          "velocity": 0.5590551181102362
        },
        {
          "duration": 0.01388886666666167,
          "durationTicks": 4,
          "midi": 45,
          "name": "A2",
          "ticks": 36681,
          "time": 127.36437955,
          "velocity": 1
        },
        {
          "duration": 0.013888866666675881,
          "durationTicks": 4,
          "midi": 36,
          "name": "C2",
          "ticks": 36721,
          "time": 127.50326821666665,
          "velocity": 1
        },
        {
          "duration": 0.013888866666675881,
          "durationTicks": 4,
          "midi": 42,
          "name": "F#2",
          "ticks": 36721,
          "time": 127.50326821666665,
          "velocity": 1
        },
        {
          "duration": 0.013888866666675881,
          "durationTicks": 4,
          "midi": 49,
          "name": "C#3",
          "ticks": 36721,
          "time": 127.50326821666665,
          "velocity": 1
        },
        {
          "duration": 0.017361083333312877,
          "durationTicks": 5,
          "midi": 42,
          "name": "F#2",
          "ticks": 36801,
          "time": 127.78104555,
          "velocity": 0.5590551181102362
        },
        {
          "duration": 0.013888866666675881,
          "durationTicks": 4,
          "midi": 36,
          "name": "C2",
          "ticks": 36841,
          "time": 127.91993421666666,
          "velocity": 1
        },
        {
          "duration": 0.013888866666675881,
          "durationTicks": 4,
          "midi": 38,
          "name": "D2",
          "ticks": 36841,
          "time": 127.91993421666666,
          "velocity": 1
        },
        {
          "duration": 0.013888866666675881,
          "durationTicks": 4,
          "midi": 42,
          "name": "F#2",
          "ticks": 36841,
          "time": 127.91993421666666,
          "velocity": 1
        },
        {
          "duration": 0.013888866666633248,
          "durationTicks": 4,
          "midi": 46,
          "name": "A#2",
          "ticks": 36921,
          "time": 128.19771155,
          "velocity": 1
        },
        {
          "duration": 0.01736108333335551,
          "durationTicks": 5,
          "midi": 36,
          "name": "C2",
          "ticks": 36961,
          "time": 128.33660021666665,
          "velocity": 1
        },
        {
          "duration": 0.013888866666690092,
          "durationTicks": 4,
          "midi": 42,
          "name": "F#2",
          "ticks": 36961,
          "time": 128.33660021666665,
          "velocity": 1
        },
        {
          "duration": 0.01388886666666167,
          "durationTicks": 4,
          "midi": 42,
          "name": "F#2",
          "ticks": 37041,
          "time": 128.61437755,
          "velocity": 0.5590551181102362
        },
        {
          "duration": 0.013888866666690092,
          "durationTicks": 4,
          "midi": 36,
          "name": "C2",
          "ticks": 37081,
          "time": 128.75326621666665,
          "velocity": 1
        },
        {
          "duration": 0.013888866666690092,
          "durationTicks": 4,
          "midi": 38,
          "name": "D2",
          "ticks": 37081,
          "time": 128.75326621666665,
          "velocity": 1
        },
        {
          "duration": 0.013888866666690092,
          "durationTicks": 4,
          "midi": 42,
          "name": "F#2",
          "ticks": 37082,
          "time": 128.7567384333333,
          "velocity": 1
        },
        {
          "duration": 0.01388886666666167,
          "durationTicks": 4,
          "midi": 42,
          "name": "F#2",
          "ticks": 37161,
          "time": 129.03104355,
          "velocity": 0.5590551181102362
        },
        {
          "duration": 0.01388886666666167,
          "durationTicks": 4,
          "midi": 36,
          "name": "C2",
          "ticks": 37201,
          "time": 129.16993221666667,
          "velocity": 1
        },
        {
          "duration": 0.01388886666666167,
          "durationTicks": 4,
          "midi": 42,
          "name": "F#2",
          "ticks": 37201,
          "time": 129.16993221666667,
          "velocity": 1
        },
        {
          "duration": 0.01388886666666167,
          "durationTicks": 4,
          "midi": 42,
          "name": "F#2",
          "ticks": 37281,
          "time": 129.44770954999998,
          "velocity": 0.5590551181102362
        },
        {
          "duration": 0.013888866666690092,
          "durationTicks": 4,
          "midi": 36,
          "name": "C2",
          "ticks": 37321,
          "time": 129.58659821666666,
          "velocity": 1
        },
        {
          "duration": 0.013888866666690092,
          "durationTicks": 4,
          "midi": 38,
          "name": "D2",
          "ticks": 37321,
          "time": 129.58659821666666,
          "velocity": 1
        },
        {
          "duration": 0.013888866666690092,
          "durationTicks": 4,
          "midi": 42,
          "name": "F#2",
          "ticks": 37321,
          "time": 129.58659821666666,
          "velocity": 1
        },
        {
          "duration": 0.013888866666633248,
          "durationTicks": 4,
          "midi": 42,
          "name": "F#2",
          "ticks": 37401,
          "time": 129.86437555,
          "velocity": 0.5590551181102362
        },
        {
          "duration": 0.01736108333335551,
          "durationTicks": 5,
          "midi": 36,
          "name": "C2",
          "ticks": 37441,
          "time": 130.00326421666665,
          "velocity": 1
        },
        {
          "duration": 0.013888866666690092,
          "durationTicks": 4,
          "midi": 42,
          "name": "F#2",
          "ticks": 37441,
          "time": 130.00326421666665,
          "velocity": 1
        },
        {
          "duration": 0.01388886666666167,
          "durationTicks": 4,
          "midi": 42,
          "name": "F#2",
          "ticks": 37521,
          "time": 130.28104155,
          "velocity": 0.5590551181102362
        },
        {
          "duration": 0.01388886666666167,
          "durationTicks": 4,
          "midi": 36,
          "name": "C2",
          "ticks": 37561,
          "time": 130.41993021666667,
          "velocity": 1
        },
        {
          "duration": 0.013888866666690092,
          "durationTicks": 4,
          "midi": 38,
          "name": "D2",
          "ticks": 37562,
          "time": 130.4234024333333,
          "velocity": 1
        },
        {
          "duration": 0.013888866666690092,
          "durationTicks": 4,
          "midi": 42,
          "name": "F#2",
          "ticks": 37562,
          "time": 130.4234024333333,
          "velocity": 1
        },
        {
          "duration": 0.01388886666666167,
          "durationTicks": 4,
          "midi": 42,
          "name": "F#2",
          "ticks": 37641,
          "time": 130.69770755,
          "velocity": 0.5590551181102362
        },
        {
          "duration": 0.01388886666666167,
          "durationTicks": 4,
          "midi": 36,
          "name": "C2",
          "ticks": 37681,
          "time": 130.83659621666666,
          "velocity": 1
        },
        {
          "duration": 0.01388886666666167,
          "durationTicks": 4,
          "midi": 42,
          "name": "F#2",
          "ticks": 37681,
          "time": 130.83659621666666,
          "velocity": 1
        },
        {
          "duration": 0.013888866666633248,
          "durationTicks": 4,
          "midi": 42,
          "name": "F#2",
          "ticks": 37761,
          "time": 131.11437355,
          "velocity": 0.5590551181102362
        },
        {
          "duration": 0.013888866666690092,
          "durationTicks": 4,
          "midi": 36,
          "name": "C2",
          "ticks": 37801,
          "time": 131.25326221666666,
          "velocity": 1
        },
        {
          "duration": 0.013888866666690092,
          "durationTicks": 4,
          "midi": 38,
          "name": "D2",
          "ticks": 37801,
          "time": 131.25326221666666,
          "velocity": 1
        },
        {
          "duration": 0.013888866666690092,
          "durationTicks": 4,
          "midi": 42,
          "name": "F#2",
          "ticks": 37801,
          "time": 131.25326221666666,
          "velocity": 1
        },
        {
          "duration": 0.01388886666666167,
          "durationTicks": 4,
          "midi": 46,
          "name": "A#2",
          "ticks": 37881,
          "time": 131.53103955,
          "velocity": 1
        },
        {
          "duration": 0.013888866666690092,
          "durationTicks": 4,
          "midi": 36,
          "name": "C2",
          "ticks": 37921,
          "time": 131.66992821666665,
          "velocity": 1
        },
        {
          "duration": 0.013888866666690092,
          "durationTicks": 4,
          "midi": 42,
          "name": "F#2",
          "ticks": 37921,
          "time": 131.66992821666665,
          "velocity": 1
        },
        {
          "duration": 0.01388886666666167,
          "durationTicks": 4,
          "midi": 42,
          "name": "F#2",
          "ticks": 38001,
          "time": 131.94770555,
          "velocity": 0.5590551181102362
        },
        {
          "duration": 0.017361083333327088,
          "durationTicks": 5,
          "midi": 36,
          "name": "C2",
          "ticks": 38041,
          "time": 132.08659421666667,
          "velocity": 1
        },
        {
          "duration": 0.01388886666666167,
          "durationTicks": 4,
          "midi": 38,
          "name": "D2",
          "ticks": 38041,
          "time": 132.08659421666667,
          "velocity": 1
        },
        {
          "duration": 0.01388886666666167,
          "durationTicks": 4,
          "midi": 42,
          "name": "F#2",
          "ticks": 38041,
          "time": 132.08659421666667,
          "velocity": 1
        },
        {
          "duration": 0.01388886666666167,
          "durationTicks": 4,
          "midi": 42,
          "name": "F#2",
          "ticks": 38121,
          "time": 132.36437155,
          "velocity": 0.5590551181102362
        },
        {
          "duration": 0.017361083333327088,
          "durationTicks": 5,
          "midi": 36,
          "name": "C2",
          "ticks": 38161,
          "time": 132.50326021666666,
          "velocity": 1
        },
        {
          "duration": 0.01388886666666167,
          "durationTicks": 4,
          "midi": 42,
          "name": "F#2",
          "ticks": 38161,
          "time": 132.50326021666666,
          "velocity": 1
        },
        {
          "duration": 0.013888866666633248,
          "durationTicks": 4,
          "midi": 42,
          "name": "F#2",
          "ticks": 38241,
          "time": 132.78103755,
          "velocity": 0.5590551181102362
        },
        {
          "duration": 0.013888866666690092,
          "durationTicks": 4,
          "midi": 36,
          "name": "C2",
          "ticks": 38281,
          "time": 132.91992621666665,
          "velocity": 1
        },
        {
          "duration": 0.013888866666690092,
          "durationTicks": 4,
          "midi": 38,
          "name": "D2",
          "ticks": 38281,
          "time": 132.91992621666665,
          "velocity": 1
        },
        {
          "duration": 0.013888866666690092,
          "durationTicks": 4,
          "midi": 42,
          "name": "F#2",
          "ticks": 38282,
          "time": 132.92339843333332,
          "velocity": 1
        },
        {
          "duration": 0.01388886666666167,
          "durationTicks": 4,
          "midi": 42,
          "name": "F#2",
          "ticks": 38361,
          "time": 133.19770355,
          "velocity": 0.5590551181102362
        },
        {
          "duration": 0.013888866666690092,
          "durationTicks": 4,
          "midi": 36,
          "name": "C2",
          "ticks": 38401,
          "time": 133.33659221666665,
          "velocity": 1
        },
        {
          "duration": 0.013888866666690092,
          "durationTicks": 4,
          "midi": 42,
          "name": "F#2",
          "ticks": 38401,
          "time": 133.33659221666665,
          "velocity": 1
        },
        {
          "duration": 0.01388886666666167,
          "durationTicks": 4,
          "midi": 42,
          "name": "F#2",
          "ticks": 38481,
          "time": 133.61436955,
          "velocity": 0.5590551181102362
        },
        {
          "duration": 0.01388886666666167,
          "durationTicks": 4,
          "midi": 36,
          "name": "C2",
          "ticks": 38521,
          "time": 133.75325821666667,
          "velocity": 1
        },
        {
          "duration": 0.01388886666666167,
          "durationTicks": 4,
          "midi": 38,
          "name": "D2",
          "ticks": 38521,
          "time": 133.75325821666667,
          "velocity": 1
        },
        {
          "duration": 0.01388886666666167,
          "durationTicks": 4,
          "midi": 42,
          "name": "F#2",
          "ticks": 38521,
          "time": 133.75325821666667,
          "velocity": 1
        },
        {
          "duration": 0.01388886666666167,
          "durationTicks": 4,
          "midi": 42,
          "name": "F#2",
          "ticks": 38601,
          "time": 134.03103554999998,
          "velocity": 0.5590551181102362
        },
        {
          "duration": 0.017361083333327088,
          "durationTicks": 5,
          "midi": 36,
          "name": "C2",
          "ticks": 38641,
          "time": 134.16992421666666,
          "velocity": 1
        },
        {
          "duration": 0.013888866666690092,
          "durationTicks": 4,
          "midi": 42,
          "name": "F#2",
          "ticks": 38641,
          "time": 134.16992421666666,
          "velocity": 1
        },
        {
          "duration": 0.013888866666690092,
          "durationTicks": 4,
          "midi": 49,
          "name": "C#3",
          "ticks": 38641,
          "time": 134.16992421666666,
          "velocity": 1
        },
        {
          "duration": 0.01388886666666167,
          "durationTicks": 4,
          "midi": 42,
          "name": "F#2",
          "ticks": 38721,
          "time": 134.44770155,
          "velocity": 0.5590551181102362
        },
        {
          "duration": 0.01736108333335551,
          "durationTicks": 5,
          "midi": 36,
          "name": "C2",
          "ticks": 38761,
          "time": 134.58659021666665,
          "velocity": 1
        },
        {
          "duration": 0.013888866666690092,
          "durationTicks": 4,
          "midi": 38,
          "name": "D2",
          "ticks": 38761,
          "time": 134.58659021666665,
          "velocity": 1
        },
        {
          "duration": 0.013888866666690092,
          "durationTicks": 4,
          "midi": 42,
          "name": "F#2",
          "ticks": 38761,
          "time": 134.58659021666665,
          "velocity": 1
        },
        {
          "duration": 0.01388886666666167,
          "durationTicks": 4,
          "midi": 46,
          "name": "A#2",
          "ticks": 38841,
          "time": 134.86436755,
          "velocity": 1
        },
        {
          "duration": 0.01388886666666167,
          "durationTicks": 4,
          "midi": 36,
          "name": "C2",
          "ticks": 38881,
          "time": 135.00325621666667,
          "velocity": 1
        },
        {
          "duration": 0.013888866666690092,
          "durationTicks": 4,
          "midi": 42,
          "name": "F#2",
          "ticks": 38882,
          "time": 135.0067284333333,
          "velocity": 1
        },
        {
          "duration": 0.01388886666666167,
          "durationTicks": 4,
          "midi": 42,
          "name": "F#2",
          "ticks": 38961,
          "time": 135.28103355,
          "velocity": 0.5590551181102362
        },
        {
          "duration": 0.01388886666666167,
          "durationTicks": 4,
          "midi": 36,
          "name": "C2",
          "ticks": 39001,
          "time": 135.41992221666666,
          "velocity": 1
        },
        {
          "duration": 0.01388886666666167,
          "durationTicks": 4,
          "midi": 38,
          "name": "D2",
          "ticks": 39001,
          "time": 135.41992221666666,
          "velocity": 1
        },
        {
          "duration": 0.01388886666666167,
          "durationTicks": 4,
          "midi": 42,
          "name": "F#2",
          "ticks": 39001,
          "time": 135.41992221666666,
          "velocity": 1
        },
        {
          "duration": 0.013888866666633248,
          "durationTicks": 4,
          "midi": 42,
          "name": "F#2",
          "ticks": 39081,
          "time": 135.69769955,
          "velocity": 0.5590551181102362
        },
        {
          "duration": 0.013888866666690092,
          "durationTicks": 4,
          "midi": 36,
          "name": "C2",
          "ticks": 39121,
          "time": 135.83658821666666,
          "velocity": 1
        },
        {
          "duration": 0.013888866666690092,
          "durationTicks": 4,
          "midi": 42,
          "name": "F#2",
          "ticks": 39121,
          "time": 135.83658821666666,
          "velocity": 1
        },
        {
          "duration": 0.01388886666666167,
          "durationTicks": 4,
          "midi": 42,
          "name": "F#2",
          "ticks": 39201,
          "time": 136.11436555,
          "velocity": 0.5590551181102362
        },
        {
          "duration": 0.01736108333335551,
          "durationTicks": 5,
          "midi": 36,
          "name": "C2",
          "ticks": 39241,
          "time": 136.25325421666665,
          "velocity": 1
        },
        {
          "duration": 0.013888866666690092,
          "durationTicks": 4,
          "midi": 38,
          "name": "D2",
          "ticks": 39241,
          "time": 136.25325421666665,
          "velocity": 1
        },
        {
          "duration": 0.013888866666690092,
          "durationTicks": 4,
          "midi": 42,
          "name": "F#2",
          "ticks": 39241,
          "time": 136.25325421666665,
          "velocity": 1
        },
        {
          "duration": 0.01388886666666167,
          "durationTicks": 4,
          "midi": 42,
          "name": "F#2",
          "ticks": 39321,
          "time": 136.53103155,
          "velocity": 0.5590551181102362
        },
        {
          "duration": 0.017361083333327088,
          "durationTicks": 5,
          "midi": 36,
          "name": "C2",
          "ticks": 39361,
          "time": 136.66992021666667,
          "velocity": 1
        },
        {
          "duration": 0.01388886666666167,
          "durationTicks": 4,
          "midi": 42,
          "name": "F#2",
          "ticks": 39361,
          "time": 136.66992021666667,
          "velocity": 1
        },
        {
          "duration": 0.01388886666666167,
          "durationTicks": 4,
          "midi": 42,
          "name": "F#2",
          "ticks": 39441,
          "time": 136.94769755,
          "velocity": 0.5590551181102362
        },
        {
          "duration": 0.01388886666666167,
          "durationTicks": 4,
          "midi": 36,
          "name": "C2",
          "ticks": 39481,
          "time": 137.08658621666666,
          "velocity": 1
        },
        {
          "duration": 0.01388886666666167,
          "durationTicks": 4,
          "midi": 38,
          "name": "D2",
          "ticks": 39481,
          "time": 137.08658621666666,
          "velocity": 1
        },
        {
          "duration": 0.01388886666666167,
          "durationTicks": 4,
          "midi": 42,
          "name": "F#2",
          "ticks": 39482,
          "time": 137.09005843333333,
          "velocity": 1
        },
        {
          "duration": 0.013888866666633248,
          "durationTicks": 4,
          "midi": 42,
          "name": "F#2",
          "ticks": 39561,
          "time": 137.36436355,
          "velocity": 0.5590551181102362
        },
        {
          "duration": 0.013888866666690092,
          "durationTicks": 4,
          "midi": 36,
          "name": "C2",
          "ticks": 39601,
          "time": 137.50325221666665,
          "velocity": 1
        },
        {
          "duration": 0.013888866666690092,
          "durationTicks": 4,
          "midi": 42,
          "name": "F#2",
          "ticks": 39601,
          "time": 137.50325221666665,
          "velocity": 1
        },
        {
          "duration": 0.01388886666666167,
          "durationTicks": 4,
          "midi": 42,
          "name": "F#2",
          "ticks": 39681,
          "time": 137.78102955,
          "velocity": 0.5590551181102362
        },
        {
          "duration": 0.013888866666690092,
          "durationTicks": 4,
          "midi": 36,
          "name": "C2",
          "ticks": 39721,
          "time": 137.91991821666664,
          "velocity": 1
        },
        {
          "duration": 0.013888866666690092,
          "durationTicks": 4,
          "midi": 38,
          "name": "D2",
          "ticks": 39721,
          "time": 137.91991821666664,
          "velocity": 1
        },
        {
          "duration": 0.013888866666690092,
          "durationTicks": 4,
          "midi": 42,
          "name": "F#2",
          "ticks": 39721,
          "time": 137.91991821666664,
          "velocity": 1
        },
        {
          "duration": 0.01388886666666167,
          "durationTicks": 4,
          "midi": 46,
          "name": "A#2",
          "ticks": 39801,
          "time": 138.19769555,
          "velocity": 1
        },
        {
          "duration": 0.01388886666666167,
          "durationTicks": 4,
          "midi": 36,
          "name": "C2",
          "ticks": 39841,
          "time": 138.33658421666667,
          "velocity": 1
        },
        {
          "duration": 0.01388886666666167,
          "durationTicks": 4,
          "midi": 42,
          "name": "F#2",
          "ticks": 39841,
          "time": 138.33658421666667,
          "velocity": 1
        },
        {
          "duration": 0.013888866666633248,
          "durationTicks": 4,
          "midi": 42,
          "name": "F#2",
          "ticks": 39921,
          "time": 138.61436155,
          "velocity": 0.5590551181102362
        },
        {
          "duration": 0.017361083333327088,
          "durationTicks": 5,
          "midi": 36,
          "name": "C2",
          "ticks": 39961,
          "time": 138.75325021666666,
          "velocity": 1
        },
        {
          "duration": 0.013888866666690092,
          "durationTicks": 4,
          "midi": 38,
          "name": "D2",
          "ticks": 39961,
          "time": 138.75325021666666,
          "velocity": 1
        },
        {
          "duration": 0.013888866666690092,
          "durationTicks": 4,
          "midi": 42,
          "name": "F#2",
          "ticks": 39961,
          "time": 138.75325021666666,
          "velocity": 1
        },
        {
          "duration": 0.01388886666666167,
          "durationTicks": 4,
          "midi": 46,
          "name": "A#2",
          "ticks": 40041,
          "time": 139.03102755,
          "velocity": 1
        },
        {
          "duration": 0.01736108333335551,
          "durationTicks": 5,
          "midi": 36,
          "name": "C2",
          "ticks": 40081,
          "time": 139.16991621666665,
          "velocity": 1
        },
        {
          "duration": 0.01736108333335551,
          "durationTicks": 5,
          "midi": 38,
          "name": "D2",
          "ticks": 40081,
          "time": 139.16991621666665,
          "velocity": 1
        },
        {
          "duration": 0.01736108333335551,
          "durationTicks": 5,
          "midi": 42,
          "name": "F#2",
          "ticks": 40081,
          "time": 139.16991621666665,
          "velocity": 1
        },
        {
          "duration": 0.01388886666666167,
          "durationTicks": 4,
          "midi": 38,
          "name": "D2",
          "ticks": 40121,
          "time": 139.30880488333332,
          "velocity": 0.3228346456692913
        },
        {
          "duration": 0.01388886666666167,
          "durationTicks": 4,
          "midi": 42,
          "name": "F#2",
          "ticks": 40161,
          "time": 139.44769355,
          "velocity": 0.5590551181102362
        },
        {
          "duration": 0.01388886666666167,
          "durationTicks": 4,
          "midi": 48,
          "name": "C3",
          "ticks": 40161,
          "time": 139.44769355,
          "velocity": 1
        },
        {
          "duration": 0.01388886666666167,
          "durationTicks": 4,
          "midi": 36,
          "name": "C2",
          "ticks": 40201,
          "time": 139.58658221666667,
          "velocity": 1
        },
        {
          "duration": 0.01388886666666167,
          "durationTicks": 4,
          "midi": 38,
          "name": "D2",
          "ticks": 40201,
          "time": 139.58658221666667,
          "velocity": 0.3228346456692913
        },
        {
          "duration": 0.013888866666690092,
          "durationTicks": 4,
          "midi": 42,
          "name": "F#2",
          "ticks": 40202,
          "time": 139.5900544333333,
          "velocity": 1
        },
        {
          "duration": 0.01736108333335551,
          "durationTicks": 5,
          "midi": 41,
          "name": "F2",
          "ticks": 40241,
          "time": 139.72547088333332,
          "velocity": 1
        },
        {
          "duration": 0.01388886666666167,
          "durationTicks": 4,
          "midi": 38,
          "name": "D2",
          "ticks": 40281,
          "time": 139.86435955,
          "velocity": 0.3228346456692913
        },
        {
          "duration": 0.01388886666666167,
          "durationTicks": 4,
          "midi": 42,
          "name": "F#2",
          "ticks": 40281,
          "time": 139.86435955,
          "velocity": 0.5590551181102362
        },
        {
          "duration": 0.01388886666666167,
          "durationTicks": 4,
          "midi": 36,
          "name": "C2",
          "ticks": 40321,
          "time": 140.00324821666666,
          "velocity": 1
        },
        {
          "duration": 0.01388886666666167,
          "durationTicks": 4,
          "midi": 42,
          "name": "F#2",
          "ticks": 40321,
          "time": 140.00324821666666,
          "velocity": 1
        },
        {
          "duration": 0.01388886666666167,
          "durationTicks": 4,
          "midi": 45,
          "name": "A2",
          "ticks": 40321,
          "time": 140.00324821666666,
          "velocity": 1
        },
        {
          "duration": 0.013888866666690092,
          "durationTicks": 4,
          "midi": 38,
          "name": "D2",
          "ticks": 40361,
          "time": 140.1421368833333,
          "velocity": 0.3228346456692913
        },
        {
          "duration": 0.013888866666633248,
          "durationTicks": 4,
          "midi": 42,
          "name": "F#2",
          "ticks": 40401,
          "time": 140.28102555,
          "velocity": 0.5590551181102362
        },
        {
          "duration": 0.013888866666633248,
          "durationTicks": 4,
          "midi": 48,
          "name": "C3",
          "ticks": 40401,
          "time": 140.28102555,
          "velocity": 1
        },
        {
          "duration": 0.013888866666690092,
          "durationTicks": 4,
          "midi": 36,
          "name": "C2",
          "ticks": 40441,
          "time": 140.41991421666665,
          "velocity": 1
        },
        {
          "duration": 0.013888866666690092,
          "durationTicks": 4,
          "midi": 38,
          "name": "D2",
          "ticks": 40441,
          "time": 140.41991421666665,
          "velocity": 1
        },
        {
          "duration": 0.013888866666690092,
          "durationTicks": 4,
          "midi": 42,
          "name": "F#2",
          "ticks": 40442,
          "time": 140.42338643333332,
          "velocity": 1
        },
        {
          "duration": 0.017361083333327088,
          "durationTicks": 5,
          "midi": 38,
          "name": "D2",
          "ticks": 40481,
          "time": 140.55880288333333,
          "velocity": 1
        },
        {
          "duration": 0.01388886666666167,
          "durationTicks": 4,
          "midi": 38,
          "name": "D2",
          "ticks": 40521,
          "time": 140.69769155,
          "velocity": 1
        },
        {
          "duration": 0.01388886666666167,
          "durationTicks": 4,
          "midi": 42,
          "name": "F#2",
          "ticks": 40521,
          "time": 140.69769155,
          "velocity": 0.5590551181102362
        },
        {
          "duration": 0.013888866666690092,
          "durationTicks": 4,
          "midi": 36,
          "name": "C2",
          "ticks": 40561,
          "time": 140.83658021666665,
          "velocity": 1
        },
        {
          "duration": 0.013888866666690092,
          "durationTicks": 4,
          "midi": 42,
          "name": "F#2",
          "ticks": 40561,
          "time": 140.83658021666665,
          "velocity": 1
        },
        {
          "duration": 0.013888866666690092,
          "durationTicks": 4,
          "midi": 49,
          "name": "C#3",
          "ticks": 40561,
          "time": 140.83658021666665,
          "velocity": 1
        },
        {
          "duration": 0.017361083333327088,
          "durationTicks": 5,
          "midi": 42,
          "name": "F#2",
          "ticks": 40641,
          "time": 141.11435755,
          "velocity": 0.5590551181102362
        },
        {
          "duration": 0.01388886666666167,
          "durationTicks": 4,
          "midi": 36,
          "name": "C2",
          "ticks": 40681,
          "time": 141.25324621666667,
          "velocity": 1
        },
        {
          "duration": 0.01388886666666167,
          "durationTicks": 4,
          "midi": 38,
          "name": "D2",
          "ticks": 40681,
          "time": 141.25324621666667,
          "velocity": 1
        },
        {
          "duration": 0.01388886666666167,
          "durationTicks": 4,
          "midi": 42,
          "name": "F#2",
          "ticks": 40681,
          "time": 141.25324621666667,
          "velocity": 1
        },
        {
          "duration": 0.01388886666666167,
          "durationTicks": 4,
          "midi": 46,
          "name": "A#2",
          "ticks": 40761,
          "time": 141.53102355,
          "velocity": 1
        },
        {
          "duration": 0.017361083333327088,
          "durationTicks": 5,
          "midi": 36,
          "name": "C2",
          "ticks": 40801,
          "time": 141.66991221666666,
          "velocity": 1
        },
        {
          "duration": 0.01388886666666167,
          "durationTicks": 4,
          "midi": 42,
          "name": "F#2",
          "ticks": 40801,
          "time": 141.66991221666666,
          "velocity": 1
        },
        {
          "duration": 0.013888866666633248,
          "durationTicks": 4,
          "midi": 42,
          "name": "F#2",
          "ticks": 40881,
          "time": 141.94768955,
          "velocity": 0.5590551181102362
        },
        {
          "duration": 0.01736108333335551,
          "durationTicks": 5,
          "midi": 36,
          "name": "C2",
          "ticks": 40921,
          "time": 142.08657821666665,
          "velocity": 1
        },
        {
          "duration": 0.013888866666690092,
          "durationTicks": 4,
          "midi": 38,
          "name": "D2",
          "ticks": 40921,
          "time": 142.08657821666665,
          "velocity": 1
        },
        {
          "duration": 0.013888866666690092,
          "durationTicks": 4,
          "midi": 42,
          "name": "F#2",
          "ticks": 40921,
          "time": 142.08657821666665,
          "velocity": 1
        },
        {
          "duration": 0.01388886666666167,
          "durationTicks": 4,
          "midi": 42,
          "name": "F#2",
          "ticks": 41001,
          "time": 142.36435555,
          "velocity": 0.5590551181102362
        },
        {
          "duration": 0.013888866666690092,
          "durationTicks": 4,
          "midi": 36,
          "name": "C2",
          "ticks": 41041,
          "time": 142.50324421666664,
          "velocity": 1
        },
        {
          "duration": 0.013888866666690092,
          "durationTicks": 4,
          "midi": 42,
          "name": "F#2",
          "ticks": 41041,
          "time": 142.50324421666664,
          "velocity": 1
        },
        {
          "duration": 0.01388886666666167,
          "durationTicks": 4,
          "midi": 42,
          "name": "F#2",
          "ticks": 41121,
          "time": 142.78102155,
          "velocity": 0.5590551181102362
        },
        {
          "duration": 0.01388886666666167,
          "durationTicks": 4,
          "midi": 36,
          "name": "C2",
          "ticks": 41161,
          "time": 142.91991021666666,
          "velocity": 1
        },
        {
          "duration": 0.01388886666666167,
          "durationTicks": 4,
          "midi": 38,
          "name": "D2",
          "ticks": 41161,
          "time": 142.91991021666666,
          "velocity": 1
        },
        {
          "duration": 0.01388886666666167,
          "durationTicks": 4,
          "midi": 42,
          "name": "F#2",
          "ticks": 41161,
          "time": 142.91991021666666,
          "velocity": 1
        },
        {
          "duration": 0.013888866666633248,
          "durationTicks": 4,
          "midi": 42,
          "name": "F#2",
          "ticks": 41241,
          "time": 143.19768755,
          "velocity": 0.5590551181102362
        },
        {
          "duration": 0.013888866666690092,
          "durationTicks": 4,
          "midi": 36,
          "name": "C2",
          "ticks": 41281,
          "time": 143.33657621666666,
          "velocity": 1
        },
        {
          "duration": 0.013888866666690092,
          "durationTicks": 4,
          "midi": 42,
          "name": "F#2",
          "ticks": 41281,
          "time": 143.33657621666666,
          "velocity": 1
        },
        {
          "duration": 0.01388886666666167,
          "durationTicks": 4,
          "midi": 42,
          "name": "F#2",
          "ticks": 41361,
          "time": 143.61435355,
          "velocity": 0.5590551181102362
        },
        {
          "duration": 0.01736108333335551,
          "durationTicks": 5,
          "midi": 36,
          "name": "C2",
          "ticks": 41401,
          "time": 143.75324221666665,
          "velocity": 1
        },
        {
          "duration": 0.013888866666690092,
          "durationTicks": 4,
          "midi": 38,
          "name": "D2",
          "ticks": 41401,
          "time": 143.75324221666665,
          "velocity": 1
        },
        {
          "duration": 0.013888866666690092,
          "durationTicks": 4,
          "midi": 42,
          "name": "F#2",
          "ticks": 41401,
          "time": 143.75324221666665,
          "velocity": 1
        },
        {
          "duration": 0.01388886666666167,
          "durationTicks": 4,
          "midi": 42,
          "name": "F#2",
          "ticks": 41481,
          "time": 144.03101955,
          "velocity": 0.5590551181102362
        },
        {
          "duration": 0.01388886666666167,
          "durationTicks": 4,
          "midi": 36,
          "name": "C2",
          "ticks": 41521,
          "time": 144.16990821666667,
          "velocity": 1
        },
        {
          "duration": 0.013888866666690092,
          "durationTicks": 4,
          "midi": 42,
          "name": "F#2",
          "ticks": 41522,
          "time": 144.1733804333333,
          "velocity": 1
        },
        {
          "duration": 0.01388886666666167,
          "durationTicks": 4,
          "midi": 42,
          "name": "F#2",
          "ticks": 41601,
          "time": 144.44768555,
          "velocity": 0.5590551181102362
        },
        {
          "duration": 0.01388886666666167,
          "durationTicks": 4,
          "midi": 36,
          "name": "C2",
          "ticks": 41641,
          "time": 144.58657421666666,
          "velocity": 1
        },
        {
          "duration": 0.01388886666666167,
          "durationTicks": 4,
          "midi": 38,
          "name": "D2",
          "ticks": 41641,
          "time": 144.58657421666666,
          "velocity": 1
        },
        {
          "duration": 0.01388886666666167,
          "durationTicks": 4,
          "midi": 42,
          "name": "F#2",
          "ticks": 41642,
          "time": 144.59004643333333,
          "velocity": 1
        },
        {
          "duration": 0.013888866666633248,
          "durationTicks": 4,
          "midi": 46,
          "name": "A#2",
          "ticks": 41721,
          "time": 144.86435155,
          "velocity": 1
        },
        {
          "duration": 0.013888866666690092,
          "durationTicks": 4,
          "midi": 36,
          "name": "C2",
          "ticks": 41761,
          "time": 145.00324021666665,
          "velocity": 1
        },
        {
          "duration": 0.013888866666690092,
          "durationTicks": 4,
          "midi": 42,
          "name": "F#2",
          "ticks": 41761,
          "time": 145.00324021666665,
          "velocity": 1
        },
        {
          "duration": 0.01388886666666167,
          "durationTicks": 4,
          "midi": 42,
          "name": "F#2",
          "ticks": 41841,
          "time": 145.28101755,
          "velocity": 0.5590551181102362
        },
        {
          "duration": 0.01736108333335551,
          "durationTicks": 5,
          "midi": 36,
          "name": "C2",
          "ticks": 41881,
          "time": 145.41990621666665,
          "velocity": 1
        },
        {
          "duration": 0.013888866666690092,
          "durationTicks": 4,
          "midi": 38,
          "name": "D2",
          "ticks": 41881,
          "time": 145.41990621666665,
          "velocity": 1
        },
        {
          "duration": 0.013888866666690092,
          "durationTicks": 4,
          "midi": 42,
          "name": "F#2",
          "ticks": 41881,
          "time": 145.41990621666665,
          "velocity": 1
        },
        {
          "duration": 0.01388886666666167,
          "durationTicks": 4,
          "midi": 42,
          "name": "F#2",
          "ticks": 41961,
          "time": 145.69768355,
          "velocity": 0.5590551181102362
        },
        {
          "duration": 0.017361083333327088,
          "durationTicks": 5,
          "midi": 36,
          "name": "C2",
          "ticks": 42001,
          "time": 145.83657221666667,
          "velocity": 1
        },
        {
          "duration": 0.01388886666666167,
          "durationTicks": 4,
          "midi": 42,
          "name": "F#2",
          "ticks": 42001,
          "time": 145.83657221666667,
          "velocity": 1
        },
        {
          "duration": 0.01388886666666167,
          "durationTicks": 4,
          "midi": 42,
          "name": "F#2",
          "ticks": 42081,
          "time": 146.11434955,
          "velocity": 0.5590551181102362
        },
        {
          "duration": 0.01388886666666167,
          "durationTicks": 4,
          "midi": 36,
          "name": "C2",
          "ticks": 42121,
          "time": 146.25323821666666,
          "velocity": 1
        },
        {
          "duration": 0.01388886666666167,
          "durationTicks": 4,
          "midi": 38,
          "name": "D2",
          "ticks": 42121,
          "time": 146.25323821666666,
          "velocity": 1
        },
        {
          "duration": 0.01388886666666167,
          "durationTicks": 4,
          "midi": 42,
          "name": "F#2",
          "ticks": 42122,
          "time": 146.25671043333332,
          "velocity": 1
        },
        {
          "duration": 0.013888866666633248,
          "durationTicks": 4,
          "midi": 42,
          "name": "F#2",
          "ticks": 42201,
          "time": 146.53101555,
          "velocity": 0.5590551181102362
        },
        {
          "duration": 0.013888866666690092,
          "durationTicks": 4,
          "midi": 36,
          "name": "C2",
          "ticks": 42241,
          "time": 146.66990421666665,
          "velocity": 1
        },
        {
          "duration": 0.013888866666690092,
          "durationTicks": 4,
          "midi": 42,
          "name": "F#2",
          "ticks": 42241,
          "time": 146.66990421666665,
          "velocity": 1
        },
        {
          "duration": 0.01388886666666167,
          "durationTicks": 4,
          "midi": 42,
          "name": "F#2",
          "ticks": 42321,
          "time": 146.94768155,
          "velocity": 0.5590551181102362
        },
        {
          "duration": 0.013888866666690092,
          "durationTicks": 4,
          "midi": 36,
          "name": "C2",
          "ticks": 42361,
          "time": 147.08657021666664,
          "velocity": 1
        },
        {
          "duration": 0.013888866666690092,
          "durationTicks": 4,
          "midi": 38,
          "name": "D2",
          "ticks": 42361,
          "time": 147.08657021666664,
          "velocity": 1
        },
        {
          "duration": 0.013888866666690092,
          "durationTicks": 4,
          "midi": 42,
          "name": "F#2",
          "ticks": 42361,
          "time": 147.08657021666664,
          "velocity": 1
        },
        {
          "duration": 0.017361083333327088,
          "durationTicks": 5,
          "midi": 42,
          "name": "F#2",
          "ticks": 42441,
          "time": 147.36434755,
          "velocity": 0.5590551181102362
        },
        {
          "duration": 0.01388886666666167,
          "durationTicks": 4,
          "midi": 36,
          "name": "C2",
          "ticks": 42481,
          "time": 147.50323621666666,
          "velocity": 1
        },
        {
          "duration": 0.01388886666666167,
          "durationTicks": 4,
          "midi": 42,
          "name": "F#2",
          "ticks": 42481,
          "time": 147.50323621666666,
          "velocity": 1
        },
        {
          "duration": 0.01388886666666167,
          "durationTicks": 4,
          "midi": 49,
          "name": "C#3",
          "ticks": 42481,
          "time": 147.50323621666666,
          "velocity": 1
        },
        {
          "duration": 0.013888866666633248,
          "durationTicks": 4,
          "midi": 42,
          "name": "F#2",
          "ticks": 42561,
          "time": 147.78101355,
          "velocity": 0.5590551181102362
        },
        {
          "duration": 0.01736108333335551,
          "durationTicks": 5,
          "midi": 36,
          "name": "C2",
          "ticks": 42601,
          "time": 147.91990221666666,
          "velocity": 1
        },
        {
          "duration": 0.013888866666690092,
          "durationTicks": 4,
          "midi": 38,
          "name": "D2",
          "ticks": 42601,
          "time": 147.91990221666666,
          "velocity": 1
        },
        {
          "duration": 0.013888866666690092,
          "durationTicks": 4,
          "midi": 42,
          "name": "F#2",
          "ticks": 42601,
          "time": 147.91990221666666,
          "velocity": 1
        },
        {
          "duration": 0.01388886666666167,
          "durationTicks": 4,
          "midi": 46,
          "name": "A#2",
          "ticks": 42681,
          "time": 148.19767955,
          "velocity": 1
        },
        {
          "duration": 0.013888866666690092,
          "durationTicks": 4,
          "midi": 36,
          "name": "C2",
          "ticks": 42721,
          "time": 148.33656821666665,
          "velocity": 1
        },
        {
          "duration": 0.013888866666690092,
          "durationTicks": 4,
          "midi": 42,
          "name": "F#2",
          "ticks": 42721,
          "time": 148.33656821666665,
          "velocity": 1
        },
        {
          "duration": 0.01388886666666167,
          "durationTicks": 4,
          "midi": 42,
          "name": "F#2",
          "ticks": 42801,
          "time": 148.61434555,
          "velocity": 0.5590551181102362
        },
        {
          "duration": 0.01388886666666167,
          "durationTicks": 4,
          "midi": 36,
          "name": "C2",
          "ticks": 42841,
          "time": 148.75323421666667,
          "velocity": 1
        },
        {
          "duration": 0.01388886666666167,
          "durationTicks": 4,
          "midi": 38,
          "name": "D2",
          "ticks": 42841,
          "time": 148.75323421666667,
          "velocity": 1
        },
        {
          "duration": 0.01388886666666167,
          "durationTicks": 4,
          "midi": 42,
          "name": "F#2",
          "ticks": 42841,
          "time": 148.75323421666667,
          "velocity": 1
        },
        {
          "duration": 0.01388886666666167,
          "durationTicks": 4,
          "midi": 42,
          "name": "F#2",
          "ticks": 42921,
          "time": 149.03101155,
          "velocity": 0.5590551181102362
        },
        {
          "duration": 0.01388886666666167,
          "durationTicks": 4,
          "midi": 36,
          "name": "C2",
          "ticks": 42961,
          "time": 149.16990021666666,
          "velocity": 1
        },
        {
          "duration": 0.01388886666666167,
          "durationTicks": 4,
          "midi": 42,
          "name": "F#2",
          "ticks": 42961,
          "time": 149.16990021666666,
          "velocity": 1
        },
        {
          "duration": 0.013888866666633248,
          "durationTicks": 4,
          "midi": 42,
          "name": "F#2",
          "ticks": 43041,
          "time": 149.44767755,
          "velocity": 0.5590551181102362
        },
        {
          "duration": 0.01736108333335551,
          "durationTicks": 5,
          "midi": 36,
          "name": "C2",
          "ticks": 43081,
          "time": 149.58656621666665,
          "velocity": 1
        },
        {
          "duration": 0.013888866666690092,
          "durationTicks": 4,
          "midi": 38,
          "name": "D2",
          "ticks": 43081,
          "time": 149.58656621666665,
          "velocity": 1
        },
        {
          "duration": 0.013888866666690092,
          "durationTicks": 4,
          "midi": 42,
          "name": "F#2",
          "ticks": 43081,
          "time": 149.58656621666665,
          "velocity": 1
        },
        {
          "duration": 0.01388886666666167,
          "durationTicks": 4,
          "midi": 38,
          "name": "D2",
          "ticks": 43161,
          "time": 149.86434355,
          "velocity": 1
        },
        {
          "duration": 0.01388886666666167,
          "durationTicks": 4,
          "midi": 46,
          "name": "A#2",
          "ticks": 43161,
          "time": 149.86434355,
          "velocity": 1
        },
        {
          "duration": 0.013888866666690092,
          "durationTicks": 4,
          "midi": 36,
          "name": "C2",
          "ticks": 43201,
          "time": 150.00323221666665,
          "velocity": 1
        },
        {
          "duration": 0.013888866666690092,
          "durationTicks": 4,
          "midi": 42,
          "name": "F#2",
          "ticks": 43201,
          "time": 150.00323221666665,
          "velocity": 1
        },
        {
          "duration": 0.013888866666690092,
          "durationTicks": 4,
          "midi": 49,
          "name": "C#3",
          "ticks": 43202,
          "time": 150.0067044333333,
          "velocity": 1
        },
        {
          "duration": 0.01388886666666167,
          "durationTicks": 4,
          "midi": 42,
          "name": "F#2",
          "ticks": 43281,
          "time": 150.28100955,
          "velocity": 0.5590551181102362
        },
        {
          "duration": 0.01388886666666167,
          "durationTicks": 4,
          "midi": 36,
          "name": "C2",
          "ticks": 43321,
          "time": 150.41989821666667,
          "velocity": 1
        },
        {
          "duration": 0.01388886666666167,
          "durationTicks": 4,
          "midi": 38,
          "name": "D2",
          "ticks": 43321,
          "time": 150.41989821666667,
          "velocity": 1
        },
        {
          "duration": 0.01388886666666167,
          "durationTicks": 4,
          "midi": 42,
          "name": "F#2",
          "ticks": 43321,
          "time": 150.41989821666667,
          "velocity": 1
        },
        {
          "duration": 0.01388886666666167,
          "durationTicks": 4,
          "midi": 46,
          "name": "A#2",
          "ticks": 43401,
          "time": 150.69767554999999,
          "velocity": 1
        },
        {
          "duration": 0.01388886666666167,
          "durationTicks": 4,
          "midi": 36,
          "name": "C2",
          "ticks": 43441,
          "time": 150.83656421666666,
          "velocity": 1
        },
        {
          "duration": 0.01388886666666167,
          "durationTicks": 4,
          "midi": 42,
          "name": "F#2",
          "ticks": 43441,
          "time": 150.83656421666666,
          "velocity": 1
        },
        {
          "duration": 0.013888866666633248,
          "durationTicks": 4,
          "midi": 42,
          "name": "F#2",
          "ticks": 43521,
          "time": 151.11434155,
          "velocity": 0.5590551181102362
        },
        {
          "duration": 0.01736108333335551,
          "durationTicks": 5,
          "midi": 36,
          "name": "C2",
          "ticks": 43561,
          "time": 151.25323021666665,
          "velocity": 1
        },
        {
          "duration": 0.013888866666690092,
          "durationTicks": 4,
          "midi": 38,
          "name": "D2",
          "ticks": 43561,
          "time": 151.25323021666665,
          "velocity": 1
        },
        {
          "duration": 0.013888866666690092,
          "durationTicks": 4,
          "midi": 42,
          "name": "F#2",
          "ticks": 43561,
          "time": 151.25323021666665,
          "velocity": 1
        },
        {
          "duration": 0.01388886666666167,
          "durationTicks": 4,
          "midi": 42,
          "name": "F#2",
          "ticks": 43641,
          "time": 151.53100755,
          "velocity": 0.5590551181102362
        },
        {
          "duration": 0.01736108333335551,
          "durationTicks": 5,
          "midi": 36,
          "name": "C2",
          "ticks": 43681,
          "time": 151.66989621666664,
          "velocity": 1
        },
        {
          "duration": 0.013888866666690092,
          "durationTicks": 4,
          "midi": 42,
          "name": "F#2",
          "ticks": 43681,
          "time": 151.66989621666664,
          "velocity": 1
        },
        {
          "duration": 0.01388886666666167,
          "durationTicks": 4,
          "midi": 42,
          "name": "F#2",
          "ticks": 43761,
          "time": 151.94767355,
          "velocity": 0.5590551181102362
        },
        {
          "duration": 0.01388886666666167,
          "durationTicks": 4,
          "midi": 36,
          "name": "C2",
          "ticks": 43801,
          "time": 152.08656221666666,
          "velocity": 1
        },
        {
          "duration": 0.01388886666666167,
          "durationTicks": 4,
          "midi": 38,
          "name": "D2",
          "ticks": 43801,
          "time": 152.08656221666666,
          "velocity": 1
        },
        {
          "duration": 0.01388886666666167,
          "durationTicks": 4,
          "midi": 42,
          "name": "F#2",
          "ticks": 43802,
          "time": 152.09003443333333,
          "velocity": 1
        },
        {
          "duration": 0.013888866666633248,
          "durationTicks": 4,
          "midi": 42,
          "name": "F#2",
          "ticks": 43881,
          "time": 152.36433955,
          "velocity": 0.5590551181102362
        },
        {
          "duration": 0.013888866666690092,
          "durationTicks": 4,
          "midi": 36,
          "name": "C2",
          "ticks": 43921,
          "time": 152.50322821666666,
          "velocity": 1
        },
        {
          "duration": 0.013888866666690092,
          "durationTicks": 4,
          "midi": 42,
          "name": "F#2",
          "ticks": 43921,
          "time": 152.50322821666666,
          "velocity": 1
        },
        {
          "duration": 0.01388886666666167,
          "durationTicks": 4,
          "midi": 42,
          "name": "F#2",
          "ticks": 44001,
          "time": 152.78100555,
          "velocity": 0.5590551181102362
        },
        {
          "duration": 0.013888866666690092,
          "durationTicks": 4,
          "midi": 36,
          "name": "C2",
          "ticks": 44041,
          "time": 152.91989421666665,
          "velocity": 1
        },
        {
          "duration": 0.013888866666690092,
          "durationTicks": 4,
          "midi": 38,
          "name": "D2",
          "ticks": 44041,
          "time": 152.91989421666665,
          "velocity": 1
        },
        {
          "duration": 0.013888866666690092,
          "durationTicks": 4,
          "midi": 42,
          "name": "F#2",
          "ticks": 44041,
          "time": 152.91989421666665,
          "velocity": 1
        },
        {
          "duration": 0.01388886666666167,
          "durationTicks": 4,
          "midi": 42,
          "name": "F#2",
          "ticks": 44121,
          "time": 153.19767155,
          "velocity": 0.5590551181102362
        },
        {
          "duration": 0.01388886666666167,
          "durationTicks": 4,
          "midi": 36,
          "name": "C2",
          "ticks": 44161,
          "time": 153.33656021666667,
          "velocity": 1
        },
        {
          "duration": 0.01388886666666167,
          "durationTicks": 4,
          "midi": 42,
          "name": "F#2",
          "ticks": 44161,
          "time": 153.33656021666667,
          "velocity": 1
        },
        {
          "duration": 0.01388886666666167,
          "durationTicks": 4,
          "midi": 42,
          "name": "F#2",
          "ticks": 44241,
          "time": 153.61433755,
          "velocity": 0.5590551181102362
        },
        {
          "duration": 0.01388886666666167,
          "durationTicks": 4,
          "midi": 36,
          "name": "C2",
          "ticks": 44281,
          "time": 153.75322621666666,
          "velocity": 1
        },
        {
          "duration": 0.01388886666666167,
          "durationTicks": 4,
          "midi": 38,
          "name": "D2",
          "ticks": 44281,
          "time": 153.75322621666666,
          "velocity": 1
        },
        {
          "duration": 0.01388886666666167,
          "durationTicks": 4,
          "midi": 42,
          "name": "F#2",
          "ticks": 44281,
          "time": 153.75322621666666,
          "velocity": 1
        },
        {
          "duration": 0.013888866666633248,
          "durationTicks": 4,
          "midi": 46,
          "name": "A#2",
          "ticks": 44361,
          "time": 154.03100355,
          "velocity": 1
        },
        {
          "duration": 0.01736108333335551,
          "durationTicks": 5,
          "midi": 36,
          "name": "C2",
          "ticks": 44401,
          "time": 154.16989221666665,
          "velocity": 1
        },
        {
          "duration": 0.013888866666690092,
          "durationTicks": 4,
          "midi": 42,
          "name": "F#2",
          "ticks": 44401,
          "time": 154.16989221666665,
          "velocity": 1
        },
        {
          "duration": 0.017361083333327088,
          "durationTicks": 5,
          "midi": 42,
          "name": "F#2",
          "ticks": 44481,
          "time": 154.44766955,
          "velocity": 0.5590551181102362
        },
        {
          "duration": 0.013888866666690092,
          "durationTicks": 4,
          "midi": 36,
          "name": "C2",
          "ticks": 44521,
          "time": 154.58655821666665,
          "velocity": 1
        },
        {
          "duration": 0.013888866666690092,
          "durationTicks": 4,
          "midi": 38,
          "name": "D2",
          "ticks": 44521,
          "time": 154.58655821666665,
          "velocity": 1
        },
        {
          "duration": 0.013888866666690092,
          "durationTicks": 4,
          "midi": 42,
          "name": "F#2",
          "ticks": 44521,
          "time": 154.58655821666665,
          "velocity": 1
        },
        {
          "duration": 0.01388886666666167,
          "durationTicks": 4,
          "midi": 42,
          "name": "F#2",
          "ticks": 44601,
          "time": 154.86433555,
          "velocity": 0.5590551181102362
        },
        {
          "duration": 0.01388886666666167,
          "durationTicks": 4,
          "midi": 36,
          "name": "C2",
          "ticks": 44641,
          "time": 155.00322421666667,
          "velocity": 1
        },
        {
          "duration": 0.01388886666666167,
          "durationTicks": 4,
          "midi": 42,
          "name": "F#2",
          "ticks": 44642,
          "time": 155.00669643333333,
          "velocity": 1
        },
        {
          "duration": 0.01388886666666167,
          "durationTicks": 4,
          "midi": 42,
          "name": "F#2",
          "ticks": 44721,
          "time": 155.28100154999998,
          "velocity": 0.5590551181102362
        },
        {
          "duration": 0.01388886666666167,
          "durationTicks": 4,
          "midi": 36,
          "name": "C2",
          "ticks": 44761,
          "time": 155.41989021666666,
          "velocity": 1
        },
        {
          "duration": 0.01388886666666167,
          "durationTicks": 4,
          "midi": 38,
          "name": "D2",
          "ticks": 44761,
          "time": 155.41989021666666,
          "velocity": 1
        },
        {
          "duration": 0.01388886666666167,
          "durationTicks": 4,
          "midi": 42,
          "name": "F#2",
          "ticks": 44761,
          "time": 155.41989021666666,
          "velocity": 1
        },
        {
          "duration": 0.017361083333298666,
          "durationTicks": 5,
          "midi": 42,
          "name": "F#2",
          "ticks": 44841,
          "time": 155.69766755,
          "velocity": 0.5590551181102362
        },
        {
          "duration": 0.013888866666690092,
          "durationTicks": 4,
          "midi": 36,
          "name": "C2",
          "ticks": 44881,
          "time": 155.83655621666665,
          "velocity": 1
        },
        {
          "duration": 0.013888866666690092,
          "durationTicks": 4,
          "midi": 42,
          "name": "F#2",
          "ticks": 44881,
          "time": 155.83655621666665,
          "velocity": 1
        },
        {
          "duration": 0.01388886666666167,
          "durationTicks": 4,
          "midi": 42,
          "name": "F#2",
          "ticks": 44961,
          "time": 156.11433355,
          "velocity": 0.5590551181102362
        },
        {
          "duration": 0.013888866666690092,
          "durationTicks": 4,
          "midi": 36,
          "name": "C2",
          "ticks": 45001,
          "time": 156.25322221666664,
          "velocity": 1
        },
        {
          "duration": 0.013888866666690092,
          "durationTicks": 4,
          "midi": 38,
          "name": "D2",
          "ticks": 45001,
          "time": 156.25322221666664,
          "velocity": 1
        },
        {
          "duration": 0.013888866666690092,
          "durationTicks": 4,
          "midi": 42,
          "name": "F#2",
          "ticks": 45001,
          "time": 156.25322221666664,
          "velocity": 1
        },
        {
          "duration": 0.01388886666666167,
          "durationTicks": 4,
          "midi": 42,
          "name": "F#2",
          "ticks": 45081,
          "time": 156.53099955,
          "velocity": 0.5590551181102362
        },
        {
          "duration": 0.017361083333327088,
          "durationTicks": 5,
          "midi": 36,
          "name": "C2",
          "ticks": 45121,
          "time": 156.66988821666666,
          "velocity": 1
        },
        {
          "duration": 0.01388886666666167,
          "durationTicks": 4,
          "midi": 42,
          "name": "F#2",
          "ticks": 45121,
          "time": 156.66988821666666,
          "velocity": 1
        },
        {
          "duration": 0.017361083333298666,
          "durationTicks": 5,
          "midi": 42,
          "name": "F#2",
          "ticks": 45201,
          "time": 156.94766555,
          "velocity": 0.5590551181102362
        },
        {
          "duration": 0.013888866666690092,
          "durationTicks": 4,
          "midi": 36,
          "name": "C2",
          "ticks": 45241,
          "time": 157.08655421666666,
          "velocity": 1
        },
        {
          "duration": 0.013888866666690092,
          "durationTicks": 4,
          "midi": 38,
          "name": "D2",
          "ticks": 45241,
          "time": 157.08655421666666,
          "velocity": 1
        },
        {
          "duration": 0.013888866666690092,
          "durationTicks": 4,
          "midi": 42,
          "name": "F#2",
          "ticks": 45241,
          "time": 157.08655421666666,
          "velocity": 1
        },
        {
          "duration": 0.01388886666666167,
          "durationTicks": 4,
          "midi": 46,
          "name": "A#2",
          "ticks": 45321,
          "time": 157.36433155,
          "velocity": 1
        },
        {
          "duration": 0.013888866666690092,
          "durationTicks": 4,
          "midi": 36,
          "name": "C2",
          "ticks": 45361,
          "time": 157.50322021666665,
          "velocity": 1
        },
        {
          "duration": 0.013888866666690092,
          "durationTicks": 4,
          "midi": 42,
          "name": "F#2",
          "ticks": 45361,
          "time": 157.50322021666665,
          "velocity": 1
        },
        {
          "duration": 0.01388886666666167,
          "durationTicks": 4,
          "midi": 42,
          "name": "F#2",
          "ticks": 45441,
          "time": 157.78099755,
          "velocity": 0.5590551181102362
        },
        {
          "duration": 0.017361083333327088,
          "durationTicks": 5,
          "midi": 36,
          "name": "C2",
          "ticks": 45481,
          "time": 157.91988621666667,
          "velocity": 1
        },
        {
          "duration": 0.01388886666666167,
          "durationTicks": 4,
          "midi": 38,
          "name": "D2",
          "ticks": 45481,
          "time": 157.91988621666667,
          "velocity": 1
        },
        {
          "duration": 0.01388886666666167,
          "durationTicks": 4,
          "midi": 42,
          "name": "F#2",
          "ticks": 45481,
          "time": 157.91988621666667,
          "velocity": 1
        },
        {
          "duration": 0.017361083333327088,
          "durationTicks": 5,
          "midi": 46,
          "name": "A#2",
          "ticks": 45561,
          "time": 158.19766355,
          "velocity": 1
        },
        {
          "duration": 0.01388886666666167,
          "durationTicks": 4,
          "midi": 36,
          "name": "C2",
          "ticks": 45601,
          "time": 158.33655221666666,
          "velocity": 1
        },
        {
          "duration": 0.01388886666666167,
          "durationTicks": 4,
          "midi": 38,
          "name": "D2",
          "ticks": 45601,
          "time": 158.33655221666666,
          "velocity": 1
        },
        {
          "duration": 0.01388886666666167,
          "durationTicks": 4,
          "midi": 42,
          "name": "F#2",
          "ticks": 45601,
          "time": 158.33655221666666,
          "velocity": 1
        },
        {
          "duration": 0.01736108333335551,
          "durationTicks": 5,
          "midi": 38,
          "name": "D2",
          "ticks": 45641,
          "time": 158.4754408833333,
          "velocity": 0.3228346456692913
        },
        {
          "duration": 0.013888866666633248,
          "durationTicks": 4,
          "midi": 42,
          "name": "F#2",
          "ticks": 45681,
          "time": 158.61432955,
          "velocity": 0.5590551181102362
        },
        {
          "duration": 0.013888866666633248,
          "durationTicks": 4,
          "midi": 48,
          "name": "C3",
          "ticks": 45681,
          "time": 158.61432955,
          "velocity": 1
        },
        {
          "duration": 0.013888866666690092,
          "durationTicks": 4,
          "midi": 36,
          "name": "C2",
          "ticks": 45721,
          "time": 158.75321821666665,
          "velocity": 1
        },
        {
          "duration": 0.013888866666690092,
          "durationTicks": 4,
          "midi": 38,
          "name": "D2",
          "ticks": 45721,
          "time": 158.75321821666665,
          "velocity": 0.3228346456692913
        },
        {
          "duration": 0.013888866666690092,
          "durationTicks": 4,
          "midi": 42,
          "name": "F#2",
          "ticks": 45721,
          "time": 158.75321821666665,
          "velocity": 1
        },
        {
          "duration": 0.01388886666666167,
          "durationTicks": 4,
          "midi": 41,
          "name": "F2",
          "ticks": 45761,
          "time": 158.89210688333333,
          "velocity": 1
        },
        {
          "duration": 0.01388886666666167,
          "durationTicks": 4,
          "midi": 38,
          "name": "D2",
          "ticks": 45801,
          "time": 159.03099555,
          "velocity": 0.3228346456692913
        },
        {
          "duration": 0.01388886666666167,
          "durationTicks": 4,
          "midi": 42,
          "name": "F#2",
          "ticks": 45801,
          "time": 159.03099555,
          "velocity": 0.5590551181102362
        },
        {
          "duration": 0.013888866666690092,
          "durationTicks": 4,
          "midi": 36,
          "name": "C2",
          "ticks": 45841,
          "time": 159.16988421666665,
          "velocity": 1
        },
        {
          "duration": 0.013888866666690092,
          "durationTicks": 4,
          "midi": 42,
          "name": "F#2",
          "ticks": 45841,
          "time": 159.16988421666665,
          "velocity": 1
        },
        {
          "duration": 0.013888866666690092,
          "durationTicks": 4,
          "midi": 45,
          "name": "A2",
          "ticks": 45841,
          "time": 159.16988421666665,
          "velocity": 1
        },
        {
          "duration": 0.01388886666666167,
          "durationTicks": 4,
          "midi": 38,
          "name": "D2",
          "ticks": 45881,
          "time": 159.30877288333332,
          "velocity": 0.3228346456692913
        },
        {
          "duration": 0.01388886666666167,
          "durationTicks": 4,
          "midi": 42,
          "name": "F#2",
          "ticks": 45921,
          "time": 159.44766155,
          "velocity": 0.5590551181102362
        },
        {
          "duration": 0.01388886666666167,
          "durationTicks": 4,
          "midi": 48,
          "name": "C3",
          "ticks": 45921,
          "time": 159.44766155,
          "velocity": 1
        },
        {
          "duration": 0.01388886666666167,
          "durationTicks": 4,
          "midi": 36,
          "name": "C2",
          "ticks": 45961,
          "time": 159.58655021666667,
          "velocity": 1
        },
        {
          "duration": 0.01388886666666167,
          "durationTicks": 4,
          "midi": 38,
          "name": "D2",
          "ticks": 45961,
          "time": 159.58655021666667,
          "velocity": 1
        },
        {
          "duration": 0.01388886666666167,
          "durationTicks": 4,
          "midi": 42,
          "name": "F#2",
          "ticks": 45961,
          "time": 159.58655021666667,
          "velocity": 1
        },
        {
          "duration": 0.01736108333335551,
          "durationTicks": 5,
          "midi": 38,
          "name": "D2",
          "ticks": 46001,
          "time": 159.7254388833333,
          "velocity": 1
        },
        {
          "duration": 0.01388886666666167,
          "durationTicks": 4,
          "midi": 38,
          "name": "D2",
          "ticks": 46041,
          "time": 159.86432754999998,
          "velocity": 1
        },
        {
          "duration": 0.01388886666666167,
          "durationTicks": 4,
          "midi": 42,
          "name": "F#2",
          "ticks": 46041,
          "time": 159.86432754999998,
          "velocity": 0.5590551181102362
        },
        {
          "duration": 0.01388886666666167,
          "durationTicks": 4,
          "midi": 36,
          "name": "C2",
          "ticks": 46081,
          "time": 160.00321621666666,
          "velocity": 1
        },
        {
          "duration": 0.01388886666666167,
          "durationTicks": 4,
          "midi": 42,
          "name": "F#2",
          "ticks": 46081,
          "time": 160.00321621666666,
          "velocity": 1
        },
        {
          "duration": 0.01388886666666167,
          "durationTicks": 4,
          "midi": 49,
          "name": "C#3",
          "ticks": 46082,
          "time": 160.00668843333332,
          "velocity": 1
        },
        {
          "duration": 0.017361083333298666,
          "durationTicks": 5,
          "midi": 42,
          "name": "F#2",
          "ticks": 46161,
          "time": 160.28099355,
          "velocity": 0.5590551181102362
        },
        {
          "duration": 0.013888866666690092,
          "durationTicks": 4,
          "midi": 36,
          "name": "C2",
          "ticks": 46201,
          "time": 160.41988221666665,
          "velocity": 1
        },
        {
          "duration": 0.013888866666690092,
          "durationTicks": 4,
          "midi": 38,
          "name": "D2",
          "ticks": 46201,
          "time": 160.41988221666665,
          "velocity": 1
        },
        {
          "duration": 0.013888866666690092,
          "durationTicks": 4,
          "midi": 42,
          "name": "F#2",
          "ticks": 46201,
          "time": 160.41988221666665,
          "velocity": 1
        },
        {
          "duration": 0.01388886666666167,
          "durationTicks": 4,
          "midi": 46,
          "name": "A#2",
          "ticks": 46281,
          "time": 160.69765955,
          "velocity": 1
        },
        {
          "duration": 0.013888866666690092,
          "durationTicks": 4,
          "midi": 36,
          "name": "C2",
          "ticks": 46321,
          "time": 160.83654821666664,
          "velocity": 1
        },
        {
          "duration": 0.013888866666690092,
          "durationTicks": 4,
          "midi": 42,
          "name": "F#2",
          "ticks": 46321,
          "time": 160.83654821666664,
          "velocity": 1
        },
        {
          "duration": 0.01388886666666167,
          "durationTicks": 4,
          "midi": 42,
          "name": "F#2",
          "ticks": 46401,
          "time": 161.11432555,
          "velocity": 0.5590551181102362
        },
        {
          "duration": 0.017361083333327088,
          "durationTicks": 5,
          "midi": 36,
          "name": "C2",
          "ticks": 46441,
          "time": 161.25321421666666,
          "velocity": 1
        },
        {
          "duration": 0.01388886666666167,
          "durationTicks": 4,
          "midi": 38,
          "name": "D2",
          "ticks": 46441,
          "time": 161.25321421666666,
          "velocity": 1
        },
        {
          "duration": 0.01388886666666167,
          "durationTicks": 4,
          "midi": 42,
          "name": "F#2",
          "ticks": 46441,
          "time": 161.25321421666666,
          "velocity": 1
        },
        {
          "duration": 0.017361083333298666,
          "durationTicks": 5,
          "midi": 42,
          "name": "F#2",
          "ticks": 46521,
          "time": 161.53099155,
          "velocity": 0.5590551181102362
        },
        {
          "duration": 0.013888866666690092,
          "durationTicks": 4,
          "midi": 36,
          "name": "C2",
          "ticks": 46561,
          "time": 161.66988021666666,
          "velocity": 1
        },
        {
          "duration": 0.013888866666690092,
          "durationTicks": 4,
          "midi": 42,
          "name": "F#2",
          "ticks": 46561,
          "time": 161.66988021666666,
          "velocity": 1
        },
        {
          "duration": 0.01388886666666167,
          "durationTicks": 4,
          "midi": 42,
          "name": "F#2",
          "ticks": 46641,
          "time": 161.94765755,
          "velocity": 0.5590551181102362
        },
        {
          "duration": 0.013888866666690092,
          "durationTicks": 4,
          "midi": 36,
          "name": "C2",
          "ticks": 46681,
          "time": 162.08654621666665,
          "velocity": 1
        },
        {
          "duration": 0.013888866666690092,
          "durationTicks": 4,
          "midi": 38,
          "name": "D2",
          "ticks": 46682,
          "time": 162.0900184333333,
          "velocity": 1
        },
        {
          "duration": 0.013888866666690092,
          "durationTicks": 4,
          "midi": 42,
          "name": "F#2",
          "ticks": 46682,
          "time": 162.0900184333333,
          "velocity": 1
        },
        {
          "duration": 0.01388886666666167,
          "durationTicks": 4,
          "midi": 42,
          "name": "F#2",
          "ticks": 46761,
          "time": 162.36432355,
          "velocity": 0.5590551181102362
        },
        {
          "duration": 0.01388886666666167,
          "durationTicks": 4,
          "midi": 36,
          "name": "C2",
          "ticks": 46801,
          "time": 162.50321221666667,
          "velocity": 1
        },
        {
          "duration": 0.01388886666666167,
          "durationTicks": 4,
          "midi": 42,
          "name": "F#2",
          "ticks": 46801,
          "time": 162.50321221666667,
          "velocity": 1
        },
        {
          "duration": 0.017361083333327088,
          "durationTicks": 5,
          "midi": 42,
          "name": "F#2",
          "ticks": 46881,
          "time": 162.78098955,
          "velocity": 0.5590551181102362
        },
        {
          "duration": 0.01388886666666167,
          "durationTicks": 4,
          "midi": 36,
          "name": "C2",
          "ticks": 46921,
          "time": 162.91987821666666,
          "velocity": 1
        },
        {
          "duration": 0.01388886666666167,
          "durationTicks": 4,
          "midi": 38,
          "name": "D2",
          "ticks": 46921,
          "time": 162.91987821666666,
          "velocity": 1
        },
        {
          "duration": 0.01388886666666167,
          "durationTicks": 4,
          "midi": 42,
          "name": "F#2",
          "ticks": 46921,
          "time": 162.91987821666666,
          "velocity": 1
        },
        {
          "duration": 0.013888866666633248,
          "durationTicks": 4,
          "midi": 42,
          "name": "F#2",
          "ticks": 47001,
          "time": 163.19765555,
          "velocity": 0.5590551181102362
        },
        {
          "duration": 0.01736108333335551,
          "durationTicks": 5,
          "midi": 36,
          "name": "C2",
          "ticks": 47041,
          "time": 163.33654421666665,
          "velocity": 1
        },
        {
          "duration": 0.013888866666690092,
          "durationTicks": 4,
          "midi": 42,
          "name": "F#2",
          "ticks": 47041,
          "time": 163.33654421666665,
          "velocity": 1
        },
        {
          "duration": 0.017361083333327088,
          "durationTicks": 5,
          "midi": 42,
          "name": "F#2",
          "ticks": 47121,
          "time": 163.61432155,
          "velocity": 0.5590551181102362
        },
        {
          "duration": 0.013888866666690092,
          "durationTicks": 4,
          "midi": 36,
          "name": "C2",
          "ticks": 47161,
          "time": 163.75321021666664,
          "velocity": 1
        },
        {
          "duration": 0.013888866666690092,
          "durationTicks": 4,
          "midi": 38,
          "name": "D2",
          "ticks": 47161,
          "time": 163.75321021666664,
          "velocity": 1
        },
        {
          "duration": 0.013888866666690092,
          "durationTicks": 4,
          "midi": 42,
          "name": "F#2",
          "ticks": 47161,
          "time": 163.75321021666664,
          "velocity": 1
        },
        {
          "duration": 0.01388886666666167,
          "durationTicks": 4,
          "midi": 46,
          "name": "A#2",
          "ticks": 47241,
          "time": 164.03098755,
          "velocity": 1
        },
        {
          "duration": 0.01388886666666167,
          "durationTicks": 4,
          "midi": 36,
          "name": "C2",
          "ticks": 47281,
          "time": 164.16987621666667,
          "velocity": 1
        },
        {
          "duration": 0.01388886666666167,
          "durationTicks": 4,
          "midi": 42,
          "name": "F#2",
          "ticks": 47281,
          "time": 164.16987621666667,
          "velocity": 1
        },
        {
          "duration": 0.01388886666666167,
          "durationTicks": 4,
          "midi": 42,
          "name": "F#2",
          "ticks": 47361,
          "time": 164.44765354999998,
          "velocity": 0.5590551181102362
        },
        {
          "duration": 0.013888866666690092,
          "durationTicks": 4,
          "midi": 36,
          "name": "C2",
          "ticks": 47401,
          "time": 164.58654221666666,
          "velocity": 1
        },
        {
          "duration": 0.013888866666690092,
          "durationTicks": 4,
          "midi": 38,
          "name": "D2",
          "ticks": 47401,
          "time": 164.58654221666666,
          "velocity": 1
        },
        {
          "duration": 0.013888866666690092,
          "durationTicks": 4,
          "midi": 42,
          "name": "F#2",
          "ticks": 47401,
          "time": 164.58654221666666,
          "velocity": 1
        },
        {
          "duration": 0.017361083333298666,
          "durationTicks": 5,
          "midi": 42,
          "name": "F#2",
          "ticks": 47481,
          "time": 164.86431955,
          "velocity": 0.5590551181102362
        },
        {
          "duration": 0.013888866666690092,
          "durationTicks": 4,
          "midi": 36,
          "name": "C2",
          "ticks": 47521,
          "time": 165.00320821666665,
          "velocity": 1
        },
        {
          "duration": 0.013888866666690092,
          "durationTicks": 4,
          "midi": 42,
          "name": "F#2",
          "ticks": 47521,
          "time": 165.00320821666665,
          "velocity": 1
        },
        {
          "duration": 0.01388886666666167,
          "durationTicks": 4,
          "midi": 42,
          "name": "F#2",
          "ticks": 47601,
          "time": 165.28098555,
          "velocity": 0.5590551181102362
        },
        {
          "duration": 0.013888866666690092,
          "durationTicks": 4,
          "midi": 36,
          "name": "C2",
          "ticks": 47641,
          "time": 165.41987421666664,
          "velocity": 1
        },
        {
          "duration": 0.013888866666690092,
          "durationTicks": 4,
          "midi": 38,
          "name": "D2",
          "ticks": 47641,
          "time": 165.41987421666664,
          "velocity": 1
        },
        {
          "duration": 0.013888866666690092,
          "durationTicks": 4,
          "midi": 42,
          "name": "F#2",
          "ticks": 47642,
          "time": 165.4233464333333,
          "velocity": 1
        },
        {
          "duration": 0.01388886666666167,
          "durationTicks": 4,
          "midi": 42,
          "name": "F#2",
          "ticks": 47721,
          "time": 165.69765155,
          "velocity": 0.5590551181102362
        },
        {
          "duration": 0.01388886666666167,
          "durationTicks": 4,
          "midi": 36,
          "name": "C2",
          "ticks": 47761,
          "time": 165.83654021666666,
          "velocity": 1
        },
        {
          "duration": 0.01388886666666167,
          "durationTicks": 4,
          "midi": 42,
          "name": "F#2",
          "ticks": 47761,
          "time": 165.83654021666666,
          "velocity": 1
        },
        {
          "duration": 0.013888866666633248,
          "durationTicks": 4,
          "midi": 42,
          "name": "F#2",
          "ticks": 47841,
          "time": 166.11431755,
          "velocity": 0.5590551181102362
        },
        {
          "duration": 0.013888866666690092,
          "durationTicks": 4,
          "midi": 36,
          "name": "C2",
          "ticks": 47881,
          "time": 166.25320621666665,
          "velocity": 1
        },
        {
          "duration": 0.013888866666690092,
          "durationTicks": 4,
          "midi": 38,
          "name": "D2",
          "ticks": 47881,
          "time": 166.25320621666665,
          "velocity": 1
        },
        {
          "duration": 0.013888866666690092,
          "durationTicks": 4,
          "midi": 42,
          "name": "F#2",
          "ticks": 47881,
          "time": 166.25320621666665,
          "velocity": 1
        },
        {
          "duration": 0.01388886666666167,
          "durationTicks": 4,
          "midi": 42,
          "name": "F#2",
          "ticks": 47961,
          "time": 166.53098355,
          "velocity": 0.5590551181102362
        },
        {
          "duration": 0.013888866666690092,
          "durationTicks": 4,
          "midi": 36,
          "name": "C2",
          "ticks": 48001,
          "time": 166.66987221666665,
          "velocity": 1
        },
        {
          "duration": 0.013888866666690092,
          "durationTicks": 4,
          "midi": 42,
          "name": "F#2",
          "ticks": 48001,
          "time": 166.66987221666665,
          "velocity": 1
        },
        {
          "duration": 0.013888866666690092,
          "durationTicks": 4,
          "midi": 49,
          "name": "C#3",
          "ticks": 48001,
          "time": 166.66987221666665,
          "velocity": 1
        },
        {
          "duration": 0.017361083333327088,
          "durationTicks": 5,
          "midi": 42,
          "name": "F#2",
          "ticks": 48081,
          "time": 166.94764955,
          "velocity": 0.5590551181102362
        },
        {
          "duration": 0.01388886666666167,
          "durationTicks": 4,
          "midi": 36,
          "name": "C2",
          "ticks": 48121,
          "time": 167.08653821666667,
          "velocity": 1
        },
        {
          "duration": 0.01388886666666167,
          "durationTicks": 4,
          "midi": 38,
          "name": "D2",
          "ticks": 48121,
          "time": 167.08653821666667,
          "velocity": 1
        },
        {
          "duration": 0.01388886666666167,
          "durationTicks": 4,
          "midi": 42,
          "name": "F#2",
          "ticks": 48121,
          "time": 167.08653821666667,
          "velocity": 1
        },
        {
          "duration": 0.017361083333327088,
          "durationTicks": 5,
          "midi": 46,
          "name": "A#2",
          "ticks": 48201,
          "time": 167.36431555,
          "velocity": 1
        },
        {
          "duration": 0.01388886666666167,
          "durationTicks": 4,
          "midi": 36,
          "name": "C2",
          "ticks": 48241,
          "time": 167.50320421666666,
          "velocity": 1
        },
        {
          "duration": 0.01388886666666167,
          "durationTicks": 4,
          "midi": 42,
          "name": "F#2",
          "ticks": 48241,
          "time": 167.50320421666666,
          "velocity": 1
        },
        {
          "duration": 0.013888866666633248,
          "durationTicks": 4,
          "midi": 42,
          "name": "F#2",
          "ticks": 48321,
          "time": 167.78098155,
          "velocity": 0.5590551181102362
        },
        {
          "duration": 0.013888866666690092,
          "durationTicks": 4,
          "midi": 36,
          "name": "C2",
          "ticks": 48361,
          "time": 167.91987021666665,
          "velocity": 1
        },
        {
          "duration": 0.013888866666690092,
          "durationTicks": 4,
          "midi": 38,
          "name": "D2",
          "ticks": 48361,
          "time": 167.91987021666665,
          "velocity": 1
        },
        {
          "duration": 0.013888866666690092,
          "durationTicks": 4,
          "midi": 42,
          "name": "F#2",
          "ticks": 48362,
          "time": 167.92334243333332,
          "velocity": 1
        },
        {
          "duration": 0.01388886666666167,
          "durationTicks": 4,
          "midi": 42,
          "name": "F#2",
          "ticks": 48441,
          "time": 168.19764755,
          "velocity": 0.5590551181102362
        },
        {
          "duration": 0.01736108333335551,
          "durationTicks": 5,
          "midi": 36,
          "name": "C2",
          "ticks": 48481,
          "time": 168.33653621666664,
          "velocity": 1
        },
        {
          "duration": 0.013888866666690092,
          "durationTicks": 4,
          "midi": 42,
          "name": "F#2",
          "ticks": 48481,
          "time": 168.33653621666664,
          "velocity": 1
        },
        {
          "duration": 0.017361083333327088,
          "durationTicks": 5,
          "midi": 42,
          "name": "F#2",
          "ticks": 48561,
          "time": 168.61431355,
          "velocity": 0.5590551181102362
        },
        {
          "duration": 0.01388886666666167,
          "durationTicks": 4,
          "midi": 36,
          "name": "C2",
          "ticks": 48601,
          "time": 168.75320221666666,
          "velocity": 1
        },
        {
          "duration": 0.01388886666666167,
          "durationTicks": 4,
          "midi": 38,
          "name": "D2",
          "ticks": 48601,
          "time": 168.75320221666666,
          "velocity": 1
        },
        {
          "duration": 0.01388886666666167,
          "durationTicks": 4,
          "midi": 42,
          "name": "F#2",
          "ticks": 48601,
          "time": 168.75320221666666,
          "velocity": 1
        },
        {
          "duration": 0.01388886666666167,
          "durationTicks": 4,
          "midi": 42,
          "name": "F#2",
          "ticks": 48681,
          "time": 169.03097954999998,
          "velocity": 0.5590551181102362
        },
        {
          "duration": 0.013888866666690092,
          "durationTicks": 4,
          "midi": 36,
          "name": "C2",
          "ticks": 48721,
          "time": 169.16986821666666,
          "velocity": 1
        },
        {
          "duration": 0.01388886666666167,
          "durationTicks": 4,
          "midi": 42,
          "name": "F#2",
          "ticks": 48722,
          "time": 169.17334043333332,
          "velocity": 1
        },
        {
          "duration": 0.013888866666633248,
          "durationTicks": 4,
          "midi": 42,
          "name": "F#2",
          "ticks": 48801,
          "time": 169.44764555,
          "velocity": 0.5590551181102362
        },
        {
          "duration": 0.013888866666690092,
          "durationTicks": 4,
          "midi": 36,
          "name": "C2",
          "ticks": 48841,
          "time": 169.58653421666665,
          "velocity": 1
        },
        {
          "duration": 0.013888866666690092,
          "durationTicks": 4,
          "midi": 38,
          "name": "D2",
          "ticks": 48841,
          "time": 169.58653421666665,
          "velocity": 1
        },
        {
          "duration": 0.013888866666690092,
          "durationTicks": 4,
          "midi": 42,
          "name": "F#2",
          "ticks": 48841,
          "time": 169.58653421666665,
          "velocity": 1
        },
        {
          "duration": 0.017361083333327088,
          "durationTicks": 5,
          "midi": 42,
          "name": "F#2",
          "ticks": 48921,
          "time": 169.86431155,
          "velocity": 0.5590551181102362
        },
        {
          "duration": 0.013888866666690092,
          "durationTicks": 4,
          "midi": 36,
          "name": "C2",
          "ticks": 48961,
          "time": 170.00320021666664,
          "velocity": 1
        },
        {
          "duration": 0.013888866666690092,
          "durationTicks": 4,
          "midi": 42,
          "name": "F#2",
          "ticks": 48961,
          "time": 170.00320021666664,
          "velocity": 1
        },
        {
          "duration": 0.01388886666666167,
          "durationTicks": 4,
          "midi": 42,
          "name": "F#2",
          "ticks": 49041,
          "time": 170.28097755,
          "velocity": 0.5590551181102362
        },
        {
          "duration": 0.01388886666666167,
          "durationTicks": 4,
          "midi": 36,
          "name": "C2",
          "ticks": 49081,
          "time": 170.41986621666666,
          "velocity": 1
        },
        {
          "duration": 0.01388886666666167,
          "durationTicks": 4,
          "midi": 38,
          "name": "D2",
          "ticks": 49081,
          "time": 170.41986621666666,
          "velocity": 1
        },
        {
          "duration": 0.01388886666666167,
          "durationTicks": 4,
          "midi": 42,
          "name": "F#2",
          "ticks": 49081,
          "time": 170.41986621666666,
          "velocity": 1
        },
        {
          "duration": 0.017361083333298666,
          "durationTicks": 5,
          "midi": 46,
          "name": "A#2",
          "ticks": 49161,
          "time": 170.69764355,
          "velocity": 1
        },
        {
          "duration": 0.013888866666690092,
          "durationTicks": 4,
          "midi": 36,
          "name": "C2",
          "ticks": 49201,
          "time": 170.83653221666665,
          "velocity": 1
        },
        {
          "duration": 0.013888866666690092,
          "durationTicks": 4,
          "midi": 42,
          "name": "F#2",
          "ticks": 49201,
          "time": 170.83653221666665,
          "velocity": 1
        },
        {
          "duration": 0.01388886666666167,
          "durationTicks": 4,
          "midi": 42,
          "name": "F#2",
          "ticks": 49281,
          "time": 171.11430955,
          "velocity": 0.5590551181102362
        },
        {
          "duration": 0.013888866666690092,
          "durationTicks": 4,
          "midi": 36,
          "name": "C2",
          "ticks": 49321,
          "time": 171.25319821666665,
          "velocity": 1
        },
        {
          "duration": 0.013888866666690092,
          "durationTicks": 4,
          "midi": 38,
          "name": "D2",
          "ticks": 49321,
          "time": 171.25319821666665,
          "velocity": 1
        },
        {
          "duration": 0.010416650000024674,
          "durationTicks": 3,
          "midi": 42,
          "name": "F#2",
          "ticks": 49322,
          "time": 171.2566704333333,
          "velocity": 1
        },
        {
          "duration": 0.01388886666666167,
          "durationTicks": 4,
          "midi": 46,
          "name": "A#2",
          "ticks": 49401,
          "time": 171.53097555,
          "velocity": 1
        },
        {
          "duration": 0.017361083333327088,
          "durationTicks": 5,
          "midi": 36,
          "name": "C2",
          "ticks": 49441,
          "time": 171.66986421666667,
          "velocity": 1
        },
        {
          "duration": 0.017361083333327088,
          "durationTicks": 5,
          "midi": 38,
          "name": "D2",
          "ticks": 49441,
          "time": 171.66986421666667,
          "velocity": 1
        },
        {
          "duration": 0.01388886666666167,
          "durationTicks": 4,
          "midi": 42,
          "name": "F#2",
          "ticks": 49441,
          "time": 171.66986421666667,
          "velocity": 1
        },
        {
          "duration": 0.013888866666690092,
          "durationTicks": 4,
          "midi": 38,
          "name": "D2",
          "ticks": 49481,
          "time": 171.8087528833333,
          "velocity": 0.3228346456692913
        },
        {
          "duration": 0.01388886666666167,
          "durationTicks": 4,
          "midi": 42,
          "name": "F#2",
          "ticks": 49521,
          "time": 171.94764155,
          "velocity": 0.5590551181102362
        },
        {
          "duration": 0.01388886666666167,
          "durationTicks": 4,
          "midi": 48,
          "name": "C3",
          "ticks": 49521,
          "time": 171.94764155,
          "velocity": 1
        },
        {
          "duration": 0.01388886666666167,
          "durationTicks": 4,
          "midi": 36,
          "name": "C2",
          "ticks": 49561,
          "time": 172.08653021666666,
          "velocity": 1
        },
        {
          "duration": 0.01388886666666167,
          "durationTicks": 4,
          "midi": 38,
          "name": "D2",
          "ticks": 49561,
          "time": 172.08653021666666,
          "velocity": 0.3228346456692913
        },
        {
          "duration": 0.01388886666666167,
          "durationTicks": 4,
          "midi": 42,
          "name": "F#2",
          "ticks": 49561,
          "time": 172.08653021666666,
          "velocity": 1
        },
        {
          "duration": 0.013888866666690092,
          "durationTicks": 4,
          "midi": 41,
          "name": "F2",
          "ticks": 49601,
          "time": 172.2254188833333,
          "velocity": 1
        },
        {
          "duration": 0.017361083333298666,
          "durationTicks": 5,
          "midi": 38,
          "name": "D2",
          "ticks": 49641,
          "time": 172.36430755,
          "velocity": 0.3228346456692913
        },
        {
          "duration": 0.013888866666633248,
          "durationTicks": 4,
          "midi": 42,
          "name": "F#2",
          "ticks": 49641,
          "time": 172.36430755,
          "velocity": 0.5590551181102362
        },
        {
          "duration": 0.013888866666690092,
          "durationTicks": 4,
          "midi": 36,
          "name": "C2",
          "ticks": 49681,
          "time": 172.50319621666665,
          "velocity": 1
        },
        {
          "duration": 0.013888866666690092,
          "durationTicks": 4,
          "midi": 42,
          "name": "F#2",
          "ticks": 49681,
          "time": 172.50319621666665,
          "velocity": 1
        },
        {
          "duration": 0.013888866666690092,
          "durationTicks": 4,
          "midi": 45,
          "name": "A2",
          "ticks": 49681,
          "time": 172.50319621666665,
          "velocity": 1
        },
        {
          "duration": 0.017361083333327088,
          "durationTicks": 5,
          "midi": 38,
          "name": "D2",
          "ticks": 49721,
          "time": 172.64208488333333,
          "velocity": 0.3228346456692913
        },
        {
          "duration": 0.01388886666666167,
          "durationTicks": 4,
          "midi": 42,
          "name": "F#2",
          "ticks": 49761,
          "time": 172.78097355,
          "velocity": 0.5590551181102362
        },
        {
          "duration": 0.01388886666666167,
          "durationTicks": 4,
          "midi": 48,
          "name": "C3",
          "ticks": 49761,
          "time": 172.78097355,
          "velocity": 1
        },
        {
          "duration": 0.013888866666690092,
          "durationTicks": 4,
          "midi": 36,
          "name": "C2",
          "ticks": 49801,
          "time": 172.91986221666664,
          "velocity": 1
        },
        {
          "duration": 0.010416650000024674,
          "durationTicks": 3,
          "midi": 38,
          "name": "D2",
          "ticks": 49802,
          "time": 172.9233344333333,
          "velocity": 1
        },
        {
          "duration": 0.010416650000024674,
          "durationTicks": 3,
          "midi": 42,
          "name": "F#2",
          "ticks": 49802,
          "time": 172.9233344333333,
          "velocity": 1
        },
        {
          "duration": 0.01388886666666167,
          "durationTicks": 4,
          "midi": 38,
          "name": "D2",
          "ticks": 49841,
          "time": 173.05875088333332,
          "velocity": 1
        },
        {
          "duration": 0.01388886666666167,
          "durationTicks": 4,
          "midi": 38,
          "name": "D2",
          "ticks": 49881,
          "time": 173.19763955,
          "velocity": 1
        },
        {
          "duration": 0.01388886666666167,
          "durationTicks": 4,
          "midi": 42,
          "name": "F#2",
          "ticks": 49881,
          "time": 173.19763955,
          "velocity": 0.5590551181102362
        },
        {
          "duration": 0.01388886666666167,
          "durationTicks": 4,
          "midi": 36,
          "name": "C2",
          "ticks": 49921,
          "time": 173.33652821666666,
          "velocity": 1
        },
        {
          "duration": 0.01388886666666167,
          "durationTicks": 4,
          "midi": 42,
          "name": "F#2",
          "ticks": 49921,
          "time": 173.33652821666666,
          "velocity": 1
        },
        {
          "duration": 0.01388886666666167,
          "durationTicks": 4,
          "midi": 49,
          "name": "C#3",
          "ticks": 49921,
          "time": 173.33652821666666,
          "velocity": 1
        },
        {
          "duration": 0.017361083333327088,
          "durationTicks": 5,
          "midi": 42,
          "name": "F#2",
          "ticks": 50001,
          "time": 173.61430554999998,
          "velocity": 0.5590551181102362
        },
        {
          "duration": 0.013888866666690092,
          "durationTicks": 4,
          "midi": 36,
          "name": "C2",
          "ticks": 50041,
          "time": 173.75319421666666,
          "velocity": 1
        },
        {
          "duration": 0.013888866666690092,
          "durationTicks": 4,
          "midi": 38,
          "name": "D2",
          "ticks": 50041,
          "time": 173.75319421666666,
          "velocity": 1
        },
        {
          "duration": 0.013888866666690092,
          "durationTicks": 4,
          "midi": 42,
          "name": "F#2",
          "ticks": 50041,
          "time": 173.75319421666666,
          "velocity": 1
        },
        {
          "duration": 0.013888866666633248,
          "durationTicks": 4,
          "midi": 46,
          "name": "A#2",
          "ticks": 50121,
          "time": 174.03097155,
          "velocity": 1
        },
        {
          "duration": 0.01736108333335551,
          "durationTicks": 5,
          "midi": 36,
          "name": "C2",
          "ticks": 50161,
          "time": 174.16986021666665,
          "velocity": 1
        },
        {
          "duration": 0.013888866666690092,
          "durationTicks": 4,
          "midi": 42,
          "name": "F#2",
          "ticks": 50161,
          "time": 174.16986021666665,
          "velocity": 1
        },
        {
          "duration": 0.01388886666666167,
          "durationTicks": 4,
          "midi": 42,
          "name": "F#2",
          "ticks": 50241,
          "time": 174.44763755,
          "velocity": 0.5590551181102362
        },
        {
          "duration": 0.01388886666666167,
          "durationTicks": 4,
          "midi": 36,
          "name": "C2",
          "ticks": 50281,
          "time": 174.58652621666667,
          "velocity": 1
        },
        {
          "duration": 0.01388886666666167,
          "durationTicks": 4,
          "midi": 38,
          "name": "D2",
          "ticks": 50281,
          "time": 174.58652621666667,
          "velocity": 1
        },
        {
          "duration": 0.01388886666666167,
          "durationTicks": 4,
          "midi": 42,
          "name": "F#2",
          "ticks": 50281,
          "time": 174.58652621666667,
          "velocity": 1
        },
        {
          "duration": 0.017361083333327088,
          "durationTicks": 5,
          "midi": 42,
          "name": "F#2",
          "ticks": 50361,
          "time": 174.86430355,
          "velocity": 0.5590551181102362
        },
        {
          "duration": 0.01388886666666167,
          "durationTicks": 4,
          "midi": 36,
          "name": "C2",
          "ticks": 50401,
          "time": 175.00319221666666,
          "velocity": 1
        },
        {
          "duration": 0.01388886666666167,
          "durationTicks": 4,
          "midi": 42,
          "name": "F#2",
          "ticks": 50401,
          "time": 175.00319221666666,
          "velocity": 1
        },
        {
          "duration": 0.013888866666633248,
          "durationTicks": 4,
          "midi": 42,
          "name": "F#2",
          "ticks": 50481,
          "time": 175.28096955,
          "velocity": 0.5590551181102362
        },
        {
          "duration": 0.013888866666690092,
          "durationTicks": 4,
          "midi": 36,
          "name": "C2",
          "ticks": 50521,
          "time": 175.41985821666665,
          "velocity": 1
        },
        {
          "duration": 0.013888866666690092,
          "durationTicks": 4,
          "midi": 38,
          "name": "D2",
          "ticks": 50521,
          "time": 175.41985821666665,
          "velocity": 1
        },
        {
          "duration": 0.013888866666690092,
          "durationTicks": 4,
          "midi": 42,
          "name": "F#2",
          "ticks": 50522,
          "time": 175.42333043333332,
          "velocity": 1
        },
        {
          "duration": 0.01388886666666167,
          "durationTicks": 4,
          "midi": 42,
          "name": "F#2",
          "ticks": 50601,
          "time": 175.69763555,
          "velocity": 0.5590551181102362
        },
        {
          "duration": 0.013888866666690092,
          "durationTicks": 4,
          "midi": 36,
          "name": "C2",
          "ticks": 50641,
          "time": 175.83652421666665,
          "velocity": 1
        },
        {
          "duration": 0.013888866666690092,
          "durationTicks": 4,
          "midi": 42,
          "name": "F#2",
          "ticks": 50641,
          "time": 175.83652421666665,
          "velocity": 1
        },
        {
          "duration": 0.017361083333327088,
          "durationTicks": 5,
          "midi": 42,
          "name": "F#2",
          "ticks": 50721,
          "time": 176.11430155,
          "velocity": 0.5590551181102362
        },
        {
          "duration": 0.01388886666666167,
          "durationTicks": 4,
          "midi": 36,
          "name": "C2",
          "ticks": 50761,
          "time": 176.25319021666667,
          "velocity": 1
        },
        {
          "duration": 0.01388886666666167,
          "durationTicks": 4,
          "midi": 38,
          "name": "D2",
          "ticks": 50761,
          "time": 176.25319021666667,
          "velocity": 1
        },
        {
          "duration": 0.01388886666666167,
          "durationTicks": 4,
          "midi": 42,
          "name": "F#2",
          "ticks": 50761,
          "time": 176.25319021666667,
          "velocity": 1
        },
        {
          "duration": 0.01388886666666167,
          "durationTicks": 4,
          "midi": 42,
          "name": "F#2",
          "ticks": 50841,
          "time": 176.53096754999999,
          "velocity": 0.5590551181102362
        },
        {
          "duration": 0.01388886666666167,
          "durationTicks": 4,
          "midi": 36,
          "name": "C2",
          "ticks": 50881,
          "time": 176.66985621666666,
          "velocity": 1
        },
        {
          "duration": 0.01388886666666167,
          "durationTicks": 4,
          "midi": 42,
          "name": "F#2",
          "ticks": 50882,
          "time": 176.67332843333332,
          "velocity": 1
        },
        {
          "duration": 0.013888866666633248,
          "durationTicks": 4,
          "midi": 42,
          "name": "F#2",
          "ticks": 50961,
          "time": 176.94763355,
          "velocity": 0.5590551181102362
        },
        {
          "duration": 0.013888866666690092,
          "durationTicks": 4,
          "midi": 36,
          "name": "C2",
          "ticks": 51001,
          "time": 177.08652221666665,
          "velocity": 1
        },
        {
          "duration": 0.013888866666690092,
          "durationTicks": 4,
          "midi": 38,
          "name": "D2",
          "ticks": 51001,
          "time": 177.08652221666665,
          "velocity": 1
        },
        {
          "duration": 0.013888866666690092,
          "durationTicks": 4,
          "midi": 42,
          "name": "F#2",
          "ticks": 51001,
          "time": 177.08652221666665,
          "velocity": 1
        },
        {
          "duration": 0.017361083333327088,
          "durationTicks": 5,
          "midi": 46,
          "name": "A#2",
          "ticks": 51081,
          "time": 177.36429955,
          "velocity": 1
        },
        {
          "duration": 0.013888866666690092,
          "durationTicks": 4,
          "midi": 36,
          "name": "C2",
          "ticks": 51121,
          "time": 177.50318821666664,
          "velocity": 1
        },
        {
          "duration": 0.013888866666690092,
          "durationTicks": 4,
          "midi": 42,
          "name": "F#2",
          "ticks": 51121,
          "time": 177.50318821666664,
          "velocity": 1
        },
        {
          "duration": 0.01388886666666167,
          "durationTicks": 4,
          "midi": 42,
          "name": "F#2",
          "ticks": 51201,
          "time": 177.78096555,
          "velocity": 0.5590551181102362
        },
        {
          "duration": 0.01388886666666167,
          "durationTicks": 4,
          "midi": 36,
          "name": "C2",
          "ticks": 51241,
          "time": 177.91985421666666,
          "velocity": 1
        },
        {
          "duration": 0.01388886666666167,
          "durationTicks": 4,
          "midi": 38,
          "name": "D2",
          "ticks": 51241,
          "time": 177.91985421666666,
          "velocity": 1
        },
        {
          "duration": 0.01388886666666167,
          "durationTicks": 4,
          "midi": 42,
          "name": "F#2",
          "ticks": 51241,
          "time": 177.91985421666666,
          "velocity": 1
        },
        {
          "duration": 0.01388886666666167,
          "durationTicks": 4,
          "midi": 42,
          "name": "F#2",
          "ticks": 51321,
          "time": 178.19763154999998,
          "velocity": 0.5590551181102362
        },
        {
          "duration": 0.017361083333327088,
          "durationTicks": 5,
          "midi": 36,
          "name": "C2",
          "ticks": 51361,
          "time": 178.33652021666666,
          "velocity": 1
        },
        {
          "duration": 0.013888866666690092,
          "durationTicks": 4,
          "midi": 42,
          "name": "F#2",
          "ticks": 51361,
          "time": 178.33652021666666,
          "velocity": 1
        },
        {
          "duration": 0.017361083333298666,
          "durationTicks": 5,
          "midi": 42,
          "name": "F#2",
          "ticks": 51441,
          "time": 178.61429755,
          "velocity": 0.5590551181102362
        },
        {
          "duration": 0.013888866666690092,
          "durationTicks": 4,
          "midi": 36,
          "name": "C2",
          "ticks": 51481,
          "time": 178.75318621666665,
          "velocity": 1
        },
        {
          "duration": 0.013888866666690092,
          "durationTicks": 4,
          "midi": 38,
          "name": "D2",
          "ticks": 51481,
          "time": 178.75318621666665,
          "velocity": 1
        },
        {
          "duration": 0.013888866666690092,
          "durationTicks": 4,
          "midi": 42,
          "name": "F#2",
          "ticks": 51481,
          "time": 178.75318621666665,
          "velocity": 1
        },
        {
          "duration": 0.01388886666666167,
          "durationTicks": 4,
          "midi": 42,
          "name": "F#2",
          "ticks": 51561,
          "time": 179.03096355,
          "velocity": 0.5590551181102362
        },
        {
          "duration": 0.01388886666666167,
          "durationTicks": 4,
          "midi": 36,
          "name": "C2",
          "ticks": 51601,
          "time": 179.16985221666667,
          "velocity": 1
        },
        {
          "duration": 0.01388886666666167,
          "durationTicks": 4,
          "midi": 42,
          "name": "F#2",
          "ticks": 51601,
          "time": 179.16985221666667,
          "velocity": 1
        },
        {
          "duration": 0.01388886666666167,
          "durationTicks": 4,
          "midi": 42,
          "name": "F#2",
          "ticks": 51681,
          "time": 179.44762955,
          "velocity": 0.5590551181102362
        },
        {
          "duration": 0.01388886666666167,
          "durationTicks": 4,
          "midi": 36,
          "name": "C2",
          "ticks": 51721,
          "time": 179.58651821666666,
          "velocity": 1
        },
        {
          "duration": 0.01388886666666167,
          "durationTicks": 4,
          "midi": 38,
          "name": "D2",
          "ticks": 51721,
          "time": 179.58651821666666,
          "velocity": 1
        },
        {
          "duration": 0.01388886666666167,
          "durationTicks": 4,
          "midi": 42,
          "name": "F#2",
          "ticks": 51721,
          "time": 179.58651821666666,
          "velocity": 1
        },
        {
          "duration": 0.017361083333298666,
          "durationTicks": 5,
          "midi": 42,
          "name": "F#2",
          "ticks": 51801,
          "time": 179.86429555,
          "velocity": 0.5590551181102362
        },
        {
          "duration": 0.013888866666690092,
          "durationTicks": 4,
          "midi": 36,
          "name": "C2",
          "ticks": 51841,
          "time": 180.00318421666665,
          "velocity": 1
        },
        {
          "duration": 0.013888866666690092,
          "durationTicks": 4,
          "midi": 42,
          "name": "F#2",
          "ticks": 51841,
          "time": 180.00318421666665,
          "velocity": 1
        },
        {
          "duration": 0.013888866666690092,
          "durationTicks": 4,
          "midi": 49,
          "name": "C#3",
          "ticks": 51841,
          "time": 180.00318421666665,
          "velocity": 1
        },
        {
          "duration": 0.01388886666666167,
          "durationTicks": 4,
          "midi": 42,
          "name": "F#2",
          "ticks": 51921,
          "time": 180.28096155,
          "velocity": 0.5590551181102362
        },
        {
          "duration": 0.013888866666690092,
          "durationTicks": 4,
          "midi": 36,
          "name": "C2",
          "ticks": 51961,
          "time": 180.41985021666665,
          "velocity": 1
        },
        {
          "duration": 0.013888866666690092,
          "durationTicks": 4,
          "midi": 38,
          "name": "D2",
          "ticks": 51961,
          "time": 180.41985021666665,
          "velocity": 1
        },
        {
          "duration": 0.013888866666690092,
          "durationTicks": 4,
          "midi": 42,
          "name": "F#2",
          "ticks": 51961,
          "time": 180.41985021666665,
          "velocity": 1
        },
        {
          "duration": 0.01388886666666167,
          "durationTicks": 4,
          "midi": 46,
          "name": "A#2",
          "ticks": 52041,
          "time": 180.69762755,
          "velocity": 1
        },
        {
          "duration": 0.01388886666666167,
          "durationTicks": 4,
          "midi": 36,
          "name": "C2",
          "ticks": 52081,
          "time": 180.83651621666667,
          "velocity": 1
        },
        {
          "duration": 0.01388886666666167,
          "durationTicks": 4,
          "midi": 42,
          "name": "F#2",
          "ticks": 52081,
          "time": 180.83651621666667,
          "velocity": 1
        },
        {
          "duration": 0.017361083333327088,
          "durationTicks": 5,
          "midi": 42,
          "name": "F#2",
          "ticks": 52161,
          "time": 181.11429354999999,
          "velocity": 0.5590551181102362
        },
        {
          "duration": 0.01388886666666167,
          "durationTicks": 4,
          "midi": 36,
          "name": "C2",
          "ticks": 52201,
          "time": 181.25318221666666,
          "velocity": 1
        },
        {
          "duration": 0.01388886666666167,
          "durationTicks": 4,
          "midi": 38,
          "name": "D2",
          "ticks": 52201,
          "time": 181.25318221666666,
          "velocity": 1
        },
        {
          "duration": 0.01388886666666167,
          "durationTicks": 4,
          "midi": 42,
          "name": "F#2",
          "ticks": 52201,
          "time": 181.25318221666666,
          "velocity": 1
        },
        {
          "duration": 0.013888866666633248,
          "durationTicks": 4,
          "midi": 42,
          "name": "F#2",
          "ticks": 52281,
          "time": 181.53095955,
          "velocity": 0.5590551181102362
        },
        {
          "duration": 0.013888866666690092,
          "durationTicks": 4,
          "midi": 36,
          "name": "C2",
          "ticks": 52321,
          "time": 181.66984821666665,
          "velocity": 1
        },
        {
          "duration": 0.013888866666690092,
          "durationTicks": 4,
          "midi": 42,
          "name": "F#2",
          "ticks": 52321,
          "time": 181.66984821666665,
          "velocity": 1
        },
        {
          "duration": 0.01388886666666167,
          "durationTicks": 4,
          "midi": 42,
          "name": "F#2",
          "ticks": 52401,
          "time": 181.94762555,
          "velocity": 0.5590551181102362
        },
        {
          "duration": 0.013888866666690092,
          "durationTicks": 4,
          "midi": 36,
          "name": "C2",
          "ticks": 52441,
          "time": 182.08651421666664,
          "velocity": 1
        },
        {
          "duration": 0.013888866666690092,
          "durationTicks": 4,
          "midi": 38,
          "name": "D2",
          "ticks": 52441,
          "time": 182.08651421666664,
          "velocity": 1
        },
        {
          "duration": 0.013888866666690092,
          "durationTicks": 4,
          "midi": 42,
          "name": "F#2",
          "ticks": 52441,
          "time": 182.08651421666664,
          "velocity": 1
        },
        {
          "duration": 0.017361083333327088,
          "durationTicks": 5,
          "midi": 42,
          "name": "F#2",
          "ticks": 52521,
          "time": 182.36429155,
          "velocity": 0.5590551181102362
        },
        {
          "duration": 0.01388886666666167,
          "durationTicks": 4,
          "midi": 36,
          "name": "C2",
          "ticks": 52561,
          "time": 182.50318021666666,
          "velocity": 1
        },
        {
          "duration": 0.01388886666666167,
          "durationTicks": 4,
          "midi": 42,
          "name": "F#2",
          "ticks": 52561,
          "time": 182.50318021666666,
          "velocity": 1
        },
        {
          "duration": 0.01388886666666167,
          "durationTicks": 4,
          "midi": 42,
          "name": "F#2",
          "ticks": 52641,
          "time": 182.78095754999998,
          "velocity": 0.5590551181102362
        },
        {
          "duration": 0.013888866666690092,
          "durationTicks": 4,
          "midi": 36,
          "name": "C2",
          "ticks": 52681,
          "time": 182.91984621666666,
          "velocity": 1
        },
        {
          "duration": 0.013888866666690092,
          "durationTicks": 4,
          "midi": 38,
          "name": "D2",
          "ticks": 52681,
          "time": 182.91984621666666,
          "velocity": 1
        },
        {
          "duration": 0.013888866666690092,
          "durationTicks": 4,
          "midi": 42,
          "name": "F#2",
          "ticks": 52681,
          "time": 182.91984621666666,
          "velocity": 1
        },
        {
          "duration": 0.013888866666633248,
          "durationTicks": 4,
          "midi": 42,
          "name": "F#2",
          "ticks": 52761,
          "time": 183.19762355,
          "velocity": 0.5590551181102362
        },
        {
          "duration": 0.013888866666690092,
          "durationTicks": 4,
          "midi": 36,
          "name": "C2",
          "ticks": 52801,
          "time": 183.33651221666665,
          "velocity": 1
        },
        {
          "duration": 0.013888866666690092,
          "durationTicks": 4,
          "midi": 42,
          "name": "F#2",
          "ticks": 52801,
          "time": 183.33651221666665,
          "velocity": 1
        },
        {
          "duration": 0.017361083333327088,
          "durationTicks": 5,
          "midi": 42,
          "name": "F#2",
          "ticks": 52881,
          "time": 183.61428955,
          "velocity": 0.5590551181102362
        },
        {
          "duration": 0.01388886666666167,
          "durationTicks": 4,
          "midi": 36,
          "name": "C2",
          "ticks": 52921,
          "time": 183.75317821666667,
          "velocity": 1
        },
        {
          "duration": 0.01388886666666167,
          "durationTicks": 4,
          "midi": 38,
          "name": "D2",
          "ticks": 52921,
          "time": 183.75317821666667,
          "velocity": 1
        },
        {
          "duration": 0.01388886666666167,
          "durationTicks": 4,
          "midi": 42,
          "name": "F#2",
          "ticks": 52921,
          "time": 183.75317821666667,
          "velocity": 1
        },
        {
          "duration": 0.01388886666666167,
          "durationTicks": 4,
          "midi": 46,
          "name": "A#2",
          "ticks": 53001,
          "time": 184.03095555,
          "velocity": 1
        },
        {
          "duration": 0.017361083333327088,
          "durationTicks": 5,
          "midi": 36,
          "name": "C2",
          "ticks": 53041,
          "time": 184.16984421666666,
          "velocity": 1
        },
        {
          "duration": 0.01388886666666167,
          "durationTicks": 4,
          "midi": 42,
          "name": "F#2",
          "ticks": 53041,
          "time": 184.16984421666666,
          "velocity": 1
        },
        {
          "duration": 0.013888866666633248,
          "durationTicks": 4,
          "midi": 42,
          "name": "F#2",
          "ticks": 53121,
          "time": 184.44762155,
          "velocity": 0.5590551181102362
        },
        {
          "duration": 0.013888866666690092,
          "durationTicks": 4,
          "midi": 36,
          "name": "C2",
          "ticks": 53161,
          "time": 184.58651021666665,
          "velocity": 1
        },
        {
          "duration": 0.013888866666690092,
          "durationTicks": 4,
          "midi": 38,
          "name": "D2",
          "ticks": 53161,
          "time": 184.58651021666665,
          "velocity": 1
        },
        {
          "duration": 0.013888866666690092,
          "durationTicks": 4,
          "midi": 42,
          "name": "F#2",
          "ticks": 53161,
          "time": 184.58651021666665,
          "velocity": 1
        },
        {
          "duration": 0.017361083333327088,
          "durationTicks": 5,
          "midi": 42,
          "name": "F#2",
          "ticks": 53241,
          "time": 184.86428755,
          "velocity": 0.5590551181102362
        },
        {
          "duration": 0.013888866666690092,
          "durationTicks": 4,
          "midi": 36,
          "name": "C2",
          "ticks": 53281,
          "time": 185.00317621666665,
          "velocity": 1
        },
        {
          "duration": 0.013888866666690092,
          "durationTicks": 4,
          "midi": 42,
          "name": "F#2",
          "ticks": 53281,
          "time": 185.00317621666665,
          "velocity": 1
        },
        {
          "duration": 0.01388886666666167,
          "durationTicks": 4,
          "midi": 42,
          "name": "F#2",
          "ticks": 53361,
          "time": 185.28095355,
          "velocity": 0.5590551181102362
        },
        {
          "duration": 0.01388886666666167,
          "durationTicks": 4,
          "midi": 48,
          "name": "C3",
          "ticks": 53361,
          "time": 185.28095355,
          "velocity": 1
        },
        {
          "duration": 0.01388886666666167,
          "durationTicks": 4,
          "midi": 36,
          "name": "C2",
          "ticks": 53401,
          "time": 185.41984221666667,
          "velocity": 1
        },
        {
          "duration": 0.01388886666666167,
          "durationTicks": 4,
          "midi": 38,
          "name": "D2",
          "ticks": 53402,
          "time": 185.42331443333333,
          "velocity": 1
        },
        {
          "duration": 0.01388886666666167,
          "durationTicks": 4,
          "midi": 42,
          "name": "F#2",
          "ticks": 53402,
          "time": 185.42331443333333,
          "velocity": 1
        },
        {
          "duration": 0.01388886666666167,
          "durationTicks": 4,
          "midi": 38,
          "name": "D2",
          "ticks": 53481,
          "time": 185.69761954999998,
          "velocity": 0.3228346456692913
        },
        {
          "duration": 0.01388886666666167,
          "durationTicks": 4,
          "midi": 42,
          "name": "F#2",
          "ticks": 53481,
          "time": 185.69761954999998,
          "velocity": 0.5590551181102362
        },
        {
          "duration": 0.01388886666666167,
          "durationTicks": 4,
          "midi": 45,
          "name": "A2",
          "ticks": 53482,
          "time": 185.70109176666665,
          "velocity": 1
        },
        {
          "duration": 0.01388886666666167,
          "durationTicks": 4,
          "midi": 36,
          "name": "C2",
          "ticks": 53521,
          "time": 185.83650821666666,
          "velocity": 1
        },
        {
          "duration": 0.01388886666666167,
          "durationTicks": 4,
          "midi": 42,
          "name": "F#2",
          "ticks": 53521,
          "time": 185.83650821666666,
          "velocity": 1
        },
        {
          "duration": 0.01388886666666167,
          "durationTicks": 4,
          "midi": 41,
          "name": "F2",
          "ticks": 53521,
          "time": 185.83650821666666,
          "velocity": 1
        },
        {
          "duration": 0.017361083333298666,
          "durationTicks": 5,
          "midi": 38,
          "name": "D2",
          "ticks": 53601,
          "time": 186.11428555,
          "velocity": 0.3228346456692913
        },
        {
          "duration": 0.013888866666633248,
          "durationTicks": 4,
          "midi": 42,
          "name": "F#2",
          "ticks": 53601,
          "time": 186.11428555,
          "velocity": 0.5590551181102362
        },
        {
          "duration": 0.013888866666690092,
          "durationTicks": 4,
          "midi": 36,
          "name": "C2",
          "ticks": 53641,
          "time": 186.25317421666665,
          "velocity": 1
        },
        {
          "duration": 0.013888866666690092,
          "durationTicks": 4,
          "midi": 38,
          "name": "D2",
          "ticks": 53641,
          "time": 186.25317421666665,
          "velocity": 0.3228346456692913
        },
        {
          "duration": 0.013888866666690092,
          "durationTicks": 4,
          "midi": 42,
          "name": "F#2",
          "ticks": 53641,
          "time": 186.25317421666665,
          "velocity": 1
        },
        {
          "duration": 0.017361083333327088,
          "durationTicks": 5,
          "midi": 38,
          "name": "D2",
          "ticks": 53681,
          "time": 186.39206288333332,
          "velocity": 1
        },
        {
          "duration": 0.01388886666666167,
          "durationTicks": 4,
          "midi": 38,
          "name": "D2",
          "ticks": 53721,
          "time": 186.53095155,
          "velocity": 1
        },
        {
          "duration": 0.01388886666666167,
          "durationTicks": 4,
          "midi": 42,
          "name": "F#2",
          "ticks": 53721,
          "time": 186.53095155,
          "velocity": 0.5590551181102362
        },
        {
          "duration": 0.01388886666666167,
          "durationTicks": 4,
          "midi": 45,
          "name": "A2",
          "ticks": 53721,
          "time": 186.53095155,
          "velocity": 1
        },
        {
          "duration": 0.013888866666690092,
          "durationTicks": 4,
          "midi": 36,
          "name": "C2",
          "ticks": 53761,
          "time": 186.66984021666664,
          "velocity": 1
        },
        {
          "duration": 0.013888866666690092,
          "durationTicks": 4,
          "midi": 42,
          "name": "F#2",
          "ticks": 53761,
          "time": 186.66984021666664,
          "velocity": 1
        },
        {
          "duration": 0.013888866666690092,
          "durationTicks": 4,
          "midi": 49,
          "name": "C#3",
          "ticks": 53761,
          "time": 186.66984021666664,
          "velocity": 1
        },
        {
          "duration": 0.01388886666666167,
          "durationTicks": 4,
          "midi": 42,
          "name": "F#2",
          "ticks": 53841,
          "time": 186.94761755,
          "velocity": 0.5590551181102362
        },
        {
          "duration": 0.01388886666666167,
          "durationTicks": 4,
          "midi": 36,
          "name": "C2",
          "ticks": 53881,
          "time": 187.08650621666666,
          "velocity": 1
        },
        {
          "duration": 0.01388886666666167,
          "durationTicks": 4,
          "midi": 38,
          "name": "D2",
          "ticks": 53881,
          "time": 187.08650621666666,
          "velocity": 1
        },
        {
          "duration": 0.01388886666666167,
          "durationTicks": 4,
          "midi": 42,
          "name": "F#2",
          "ticks": 53881,
          "time": 187.08650621666666,
          "velocity": 1
        },
        {
          "duration": 0.017361083333327088,
          "durationTicks": 5,
          "midi": 46,
          "name": "A#2",
          "ticks": 53961,
          "time": 187.36428354999998,
          "velocity": 1
        },
        {
          "duration": 0.013888866666690092,
          "durationTicks": 4,
          "midi": 36,
          "name": "C2",
          "ticks": 54001,
          "time": 187.50317221666666,
          "velocity": 1
        },
        {
          "duration": 0.013888866666690092,
          "durationTicks": 4,
          "midi": 42,
          "name": "F#2",
          "ticks": 54001,
          "time": 187.50317221666666,
          "velocity": 1
        },
        {
          "duration": 0.01388886666666167,
          "durationTicks": 4,
          "midi": 42,
          "name": "F#2",
          "ticks": 54081,
          "time": 187.78094955,
          "velocity": 0.5590551181102362
        },
        {
          "duration": 0.013888866666690092,
          "durationTicks": 4,
          "midi": 36,
          "name": "C2",
          "ticks": 54121,
          "time": 187.91983821666665,
          "velocity": 1
        },
        {
          "duration": 0.013888866666690092,
          "durationTicks": 4,
          "midi": 38,
          "name": "D2",
          "ticks": 54121,
          "time": 187.91983821666665,
          "velocity": 1
        },
        {
          "duration": 0.013888866666690092,
          "durationTicks": 4,
          "midi": 42,
          "name": "F#2",
          "ticks": 54122,
          "time": 187.9233104333333,
          "velocity": 1
        },
        {
          "duration": 0.01388886666666167,
          "durationTicks": 4,
          "midi": 42,
          "name": "F#2",
          "ticks": 54201,
          "time": 188.19761555,
          "velocity": 0.5590551181102362
        },
        {
          "duration": 0.01388886666666167,
          "durationTicks": 4,
          "midi": 36,
          "name": "C2",
          "ticks": 54241,
          "time": 188.33650421666667,
          "velocity": 1
        },
        {
          "duration": 0.01388886666666167,
          "durationTicks": 4,
          "midi": 42,
          "name": "F#2",
          "ticks": 54241,
          "time": 188.33650421666667,
          "velocity": 1
        },
        {
          "duration": 0.017361083333327088,
          "durationTicks": 5,
          "midi": 42,
          "name": "F#2",
          "ticks": 54321,
          "time": 188.61428155,
          "velocity": 0.5590551181102362
        },
        {
          "duration": 0.01388886666666167,
          "durationTicks": 4,
          "midi": 36,
          "name": "C2",
          "ticks": 54361,
          "time": 188.75317021666666,
          "velocity": 1
        },
        {
          "duration": 0.01388886666666167,
          "durationTicks": 4,
          "midi": 38,
          "name": "D2",
          "ticks": 54361,
          "time": 188.75317021666666,
          "velocity": 1
        },
        {
          "duration": 0.01388886666666167,
          "durationTicks": 4,
          "midi": 42,
          "name": "F#2",
          "ticks": 54361,
          "time": 188.75317021666666,
          "velocity": 1
        },
        {
          "duration": 0.013888866666633248,
          "durationTicks": 4,
          "midi": 42,
          "name": "F#2",
          "ticks": 54441,
          "time": 189.03094755,
          "velocity": 0.5590551181102362
        },
        {
          "duration": 0.013888866666690092,
          "durationTicks": 4,
          "midi": 36,
          "name": "C2",
          "ticks": 54481,
          "time": 189.16983621666665,
          "velocity": 1
        },
        {
          "duration": 0.013888866666690092,
          "durationTicks": 4,
          "midi": 42,
          "name": "F#2",
          "ticks": 54481,
          "time": 189.16983621666665,
          "velocity": 1
        },
        {
          "duration": 0.01388886666666167,
          "durationTicks": 4,
          "midi": 42,
          "name": "F#2",
          "ticks": 54561,
          "time": 189.44761355,
          "velocity": 0.5590551181102362
        },
        {
          "duration": 0.01736108333335551,
          "durationTicks": 5,
          "midi": 36,
          "name": "C2",
          "ticks": 54601,
          "time": 189.58650221666664,
          "velocity": 1
        },
        {
          "duration": 0.013888866666690092,
          "durationTicks": 4,
          "midi": 38,
          "name": "D2",
          "ticks": 54601,
          "time": 189.58650221666664,
          "velocity": 1
        },
        {
          "duration": 0.013888866666690092,
          "durationTicks": 4,
          "midi": 42,
          "name": "F#2",
          "ticks": 54601,
          "time": 189.58650221666664,
          "velocity": 1
        },
        {
          "duration": 0.017361083333327088,
          "durationTicks": 5,
          "midi": 42,
          "name": "F#2",
          "ticks": 54681,
          "time": 189.86427955,
          "velocity": 0.5590551181102362
        },
        {
          "duration": 0.01388886666666167,
          "durationTicks": 4,
          "midi": 36,
          "name": "C2",
          "ticks": 54721,
          "time": 190.00316821666667,
          "velocity": 1
        },
        {
          "duration": 0.01388886666666167,
          "durationTicks": 4,
          "midi": 42,
          "name": "F#2",
          "ticks": 54721,
          "time": 190.00316821666667,
          "velocity": 1
        },
        {
          "duration": 0.01388886666666167,
          "durationTicks": 4,
          "midi": 42,
          "name": "F#2",
          "ticks": 54801,
          "time": 190.28094554999998,
          "velocity": 0.5590551181102362
        },
        {
          "duration": 0.017361083333327088,
          "durationTicks": 5,
          "midi": 36,
          "name": "C2",
          "ticks": 54841,
          "time": 190.41983421666666,
          "velocity": 1
        },
        {
          "duration": 0.01388886666666167,
          "durationTicks": 4,
          "midi": 38,
          "name": "D2",
          "ticks": 54841,
          "time": 190.41983421666666,
          "velocity": 1
        },
        {
          "duration": 0.01388886666666167,
          "durationTicks": 4,
          "midi": 42,
          "name": "F#2",
          "ticks": 54841,
          "time": 190.41983421666666,
          "velocity": 1
        },
        {
          "duration": 0.017361083333298666,
          "durationTicks": 5,
          "midi": 46,
          "name": "A#2",
          "ticks": 54921,
          "time": 190.69761155,
          "velocity": 1
        },
        {
          "duration": 0.013888866666690092,
          "durationTicks": 4,
          "midi": 36,
          "name": "C2",
          "ticks": 54961,
          "time": 190.83650021666665,
          "velocity": 1
        },
        {
          "duration": 0.013888866666690092,
          "durationTicks": 4,
          "midi": 42,
          "name": "F#2",
          "ticks": 54961,
          "time": 190.83650021666665,
          "velocity": 1
        },
        {
          "duration": 0.01388886666666167,
          "durationTicks": 4,
          "midi": 42,
          "name": "F#2",
          "ticks": 55041,
          "time": 191.11427755,
          "velocity": 0.5590551181102362
        },
        {
          "duration": 0.013888866666690092,
          "durationTicks": 4,
          "midi": 36,
          "name": "C2",
          "ticks": 55081,
          "time": 191.25316621666664,
          "velocity": 1
        },
        {
          "duration": 0.013888866666690092,
          "durationTicks": 4,
          "midi": 38,
          "name": "D2",
          "ticks": 55082,
          "time": 191.2566384333333,
          "velocity": 1
        },
        {
          "duration": 0.013888866666690092,
          "durationTicks": 4,
          "midi": 42,
          "name": "F#2",
          "ticks": 55082,
          "time": 191.2566384333333,
          "velocity": 1
        },
        {
          "duration": 0.01388886666666167,
          "durationTicks": 4,
          "midi": 42,
          "name": "F#2",
          "ticks": 55161,
          "time": 191.53094355,
          "velocity": 0.5590551181102362
        },
        {
          "duration": 0.01388886666666167,
          "durationTicks": 4,
          "midi": 36,
          "name": "C2",
          "ticks": 55201,
          "time": 191.66983221666666,
          "velocity": 1
        },
        {
          "duration": 0.01388886666666167,
          "durationTicks": 4,
          "midi": 42,
          "name": "F#2",
          "ticks": 55201,
          "time": 191.66983221666666,
          "velocity": 1
        },
        {
          "duration": 0.017361083333298666,
          "durationTicks": 5,
          "midi": 42,
          "name": "F#2",
          "ticks": 55281,
          "time": 191.94760955,
          "velocity": 0.5590551181102362
        },
        {
          "duration": 0.013888866666690092,
          "durationTicks": 4,
          "midi": 36,
          "name": "C2",
          "ticks": 55321,
          "time": 192.08649821666666,
          "velocity": 1
        },
        {
          "duration": 0.013888866666690092,
          "durationTicks": 4,
          "midi": 38,
          "name": "D2",
          "ticks": 55321,
          "time": 192.08649821666666,
          "velocity": 1
        },
        {
          "duration": 0.013888866666690092,
          "durationTicks": 4,
          "midi": 42,
          "name": "F#2",
          "ticks": 55321,
          "time": 192.08649821666666,
          "velocity": 1
        },
        {
          "duration": 0.01388886666666167,
          "durationTicks": 4,
          "midi": 42,
          "name": "F#2",
          "ticks": 55401,
          "time": 192.36427555,
          "velocity": 0.5590551181102362
        },
        {
          "duration": 0.013888866666690092,
          "durationTicks": 4,
          "midi": 36,
          "name": "C2",
          "ticks": 55441,
          "time": 192.50316421666665,
          "velocity": 1
        },
        {
          "duration": 0.013888866666690092,
          "durationTicks": 4,
          "midi": 42,
          "name": "F#2",
          "ticks": 55442,
          "time": 192.5066364333333,
          "velocity": 1
        },
        {
          "duration": 0.01388886666666167,
          "durationTicks": 4,
          "midi": 42,
          "name": "F#2",
          "ticks": 55521,
          "time": 192.78094155,
          "velocity": 0.5590551181102362
        },
        {
          "duration": 0.017361083333327088,
          "durationTicks": 5,
          "midi": 36,
          "name": "C2",
          "ticks": 55561,
          "time": 192.91983021666667,
          "velocity": 1
        },
        {
          "duration": 0.01388886666666167,
          "durationTicks": 4,
          "midi": 38,
          "name": "D2",
          "ticks": 55561,
          "time": 192.91983021666667,
          "velocity": 1
        },
        {
          "duration": 0.01388886666666167,
          "durationTicks": 4,
          "midi": 42,
          "name": "F#2",
          "ticks": 55561,
          "time": 192.91983021666667,
          "velocity": 1
        },
        {
          "duration": 0.017361083333327088,
          "durationTicks": 5,
          "midi": 42,
          "name": "F#2",
          "ticks": 55641,
          "time": 193.19760755,
          "velocity": 0.5590551181102362
        },
        {
          "duration": 0.01388886666666167,
          "durationTicks": 4,
          "midi": 36,
          "name": "C2",
          "ticks": 55681,
          "time": 193.33649621666666,
          "velocity": 1
        },
        {
          "duration": 0.01388886666666167,
          "durationTicks": 4,
          "midi": 42,
          "name": "F#2",
          "ticks": 55681,
          "time": 193.33649621666666,
          "velocity": 1
        },
        {
          "duration": 0.01388886666666167,
          "durationTicks": 4,
          "midi": 49,
          "name": "C#3",
          "ticks": 55681,
          "time": 193.33649621666666,
          "velocity": 1
        },
        {
          "duration": 0.013888866666633248,
          "durationTicks": 4,
          "midi": 42,
          "name": "F#2",
          "ticks": 55761,
          "time": 193.61427355,
          "velocity": 0.5590551181102362
        },
        {
          "duration": 0.01736108333335551,
          "durationTicks": 5,
          "midi": 36,
          "name": "C2",
          "ticks": 55801,
          "time": 193.75316221666665,
          "velocity": 1
        },
        {
          "duration": 0.01736108333335551,
          "durationTicks": 5,
          "midi": 38,
          "name": "D2",
          "ticks": 55801,
          "time": 193.75316221666665,
          "velocity": 1
        },
        {
          "duration": 0.013888866666690092,
          "durationTicks": 4,
          "midi": 42,
          "name": "F#2",
          "ticks": 55801,
          "time": 193.75316221666665,
          "velocity": 1
        },
        {
          "duration": 0.017361083333327088,
          "durationTicks": 5,
          "midi": 46,
          "name": "A#2",
          "ticks": 55881,
          "time": 194.03093955,
          "velocity": 1
        },
        {
          "duration": 0.013888866666690092,
          "durationTicks": 4,
          "midi": 36,
          "name": "C2",
          "ticks": 55921,
          "time": 194.16982821666664,
          "velocity": 1
        },
        {
          "duration": 0.013888866666690092,
          "durationTicks": 4,
          "midi": 42,
          "name": "F#2",
          "ticks": 55921,
          "time": 194.16982821666664,
          "velocity": 1
        },
        {
          "duration": 0.01388886666666167,
          "durationTicks": 4,
          "midi": 42,
          "name": "F#2",
          "ticks": 56001,
          "time": 194.44760555,
          "velocity": 0.5590551181102362
        },
        {
          "duration": 0.01388886666666167,
          "durationTicks": 4,
          "midi": 36,
          "name": "C2",
          "ticks": 56041,
          "time": 194.58649421666667,
          "velocity": 1
        },
        {
          "duration": 0.01388886666666167,
          "durationTicks": 4,
          "midi": 38,
          "name": "D2",
          "ticks": 56041,
          "time": 194.58649421666667,
          "velocity": 1
        },
        {
          "duration": 0.01388886666666167,
          "durationTicks": 4,
          "midi": 42,
          "name": "F#2",
          "ticks": 56042,
          "time": 194.58996643333333,
          "velocity": 1
        },
        {
          "duration": 0.01388886666666167,
          "durationTicks": 4,
          "midi": 42,
          "name": "F#2",
          "ticks": 56121,
          "time": 194.86427154999998,
          "velocity": 0.5590551181102362
        },
        {
          "duration": 0.017361083333327088,
          "durationTicks": 5,
          "midi": 36,
          "name": "C2",
          "ticks": 56161,
          "time": 195.00316021666666,
          "velocity": 1
        },
        {
          "duration": 0.017361083333327088,
          "durationTicks": 5,
          "midi": 42,
          "name": "F#2",
          "ticks": 56161,
          "time": 195.00316021666666,
          "velocity": 1
        },
        {
          "duration": 0.017361083333298666,
          "durationTicks": 5,
          "midi": 42,
          "name": "F#2",
          "ticks": 56241,
          "time": 195.28093755,
          "velocity": 0.5590551181102362
        },
        {
          "duration": 0.013888866666690092,
          "durationTicks": 4,
          "midi": 36,
          "name": "C2",
          "ticks": 56281,
          "time": 195.41982621666665,
          "velocity": 1
        },
        {
          "duration": 0.013888866666690092,
          "durationTicks": 4,
          "midi": 38,
          "name": "D2",
          "ticks": 56281,
          "time": 195.41982621666665,
          "velocity": 1
        },
        {
          "duration": 0.013888866666690092,
          "durationTicks": 4,
          "midi": 42,
          "name": "F#2",
          "ticks": 56281,
          "time": 195.41982621666665,
          "velocity": 1
        },
        {
          "duration": 0.01388886666666167,
          "durationTicks": 4,
          "midi": 42,
          "name": "F#2",
          "ticks": 56361,
          "time": 195.69760355,
          "velocity": 0.5590551181102362
        },
        {
          "duration": 0.013888866666690092,
          "durationTicks": 4,
          "midi": 36,
          "name": "C2",
          "ticks": 56401,
          "time": 195.83649221666664,
          "velocity": 1
        },
        {
          "duration": 0.013888866666690092,
          "durationTicks": 4,
          "midi": 42,
          "name": "F#2",
          "ticks": 56401,
          "time": 195.83649221666664,
          "velocity": 1
        },
        {
          "duration": 0.01388886666666167,
          "durationTicks": 4,
          "midi": 42,
          "name": "F#2",
          "ticks": 56481,
          "time": 196.11426955,
          "velocity": 0.5590551181102362
        },
        {
          "duration": 0.01388886666666167,
          "durationTicks": 4,
          "midi": 36,
          "name": "C2",
          "ticks": 56521,
          "time": 196.25315821666666,
          "velocity": 1
        },
        {
          "duration": 0.01388886666666167,
          "durationTicks": 4,
          "midi": 38,
          "name": "D2",
          "ticks": 56521,
          "time": 196.25315821666666,
          "velocity": 1
        },
        {
          "duration": 0.01388886666666167,
          "durationTicks": 4,
          "midi": 42,
          "name": "F#2",
          "ticks": 56521,
          "time": 196.25315821666666,
          "velocity": 1
        },
        {
          "duration": 0.017361083333298666,
          "durationTicks": 5,
          "midi": 42,
          "name": "F#2",
          "ticks": 56601,
          "time": 196.53093555,
          "velocity": 0.5590551181102362
        },
        {
          "duration": 0.013888866666690092,
          "durationTicks": 4,
          "midi": 36,
          "name": "C2",
          "ticks": 56641,
          "time": 196.66982421666665,
          "velocity": 1
        },
        {
          "duration": 0.013888866666690092,
          "durationTicks": 4,
          "midi": 42,
          "name": "F#2",
          "ticks": 56641,
          "time": 196.66982421666665,
          "velocity": 1
        },
        {
          "duration": 0.013888866666690092,
          "durationTicks": 4,
          "midi": 49,
          "name": "C#3",
          "ticks": 56641,
          "time": 196.66982421666665,
          "velocity": 1
        },
        {
          "duration": 0.01388886666666167,
          "durationTicks": 4,
          "midi": 42,
          "name": "F#2",
          "ticks": 56721,
          "time": 196.94760155,
          "velocity": 0.5590551181102362
        },
        {
          "duration": 0.013888866666690092,
          "durationTicks": 4,
          "midi": 36,
          "name": "C2",
          "ticks": 56761,
          "time": 197.08649021666665,
          "velocity": 1
        },
        {
          "duration": 0.013888866666690092,
          "durationTicks": 4,
          "midi": 38,
          "name": "D2",
          "ticks": 56761,
          "time": 197.08649021666665,
          "velocity": 1
        },
        {
          "duration": 0.013888866666690092,
          "durationTicks": 4,
          "midi": 42,
          "name": "F#2",
          "ticks": 56762,
          "time": 197.0899624333333,
          "velocity": 1
        },
        {
          "duration": 0.01388886666666167,
          "durationTicks": 4,
          "midi": 46,
          "name": "A#2",
          "ticks": 56841,
          "time": 197.36426755,
          "velocity": 1
        },
        {
          "duration": 0.01388886666666167,
          "durationTicks": 4,
          "midi": 36,
          "name": "C2",
          "ticks": 56881,
          "time": 197.50315621666667,
          "velocity": 1
        },
        {
          "duration": 0.01388886666666167,
          "durationTicks": 4,
          "midi": 42,
          "name": "F#2",
          "ticks": 56881,
          "time": 197.50315621666667,
          "velocity": 1
        },
        {
          "duration": 0.017361083333327088,
          "durationTicks": 5,
          "midi": 46,
          "name": "A#2",
          "ticks": 56961,
          "time": 197.78093355,
          "velocity": 1
        },
        {
          "duration": 0.01388886666666167,
          "durationTicks": 4,
          "midi": 36,
          "name": "C2",
          "ticks": 57001,
          "time": 197.91982221666666,
          "velocity": 1
        },
        {
          "duration": 0.01388886666666167,
          "durationTicks": 4,
          "midi": 38,
          "name": "D2",
          "ticks": 57001,
          "time": 197.91982221666666,
          "velocity": 1
        },
        {
          "duration": 0.01388886666666167,
          "durationTicks": 4,
          "midi": 42,
          "name": "F#2",
          "ticks": 57001,
          "time": 197.91982221666666,
          "velocity": 1
        },
        {
          "duration": 0.013888866666633248,
          "durationTicks": 4,
          "midi": 42,
          "name": "F#2",
          "ticks": 57081,
          "time": 198.19759955,
          "velocity": 0.5590551181102362
        },
        {
          "duration": 0.013888866666690092,
          "durationTicks": 4,
          "midi": 36,
          "name": "C2",
          "ticks": 57121,
          "time": 198.33648821666665,
          "velocity": 1
        },
        {
          "duration": 0.013888866666690092,
          "durationTicks": 4,
          "midi": 42,
          "name": "F#2",
          "ticks": 57122,
          "time": 198.33996043333332,
          "velocity": 1
        },
        {
          "duration": 0.01388886666666167,
          "durationTicks": 4,
          "midi": 38,
          "name": "D2",
          "ticks": 57161,
          "time": 198.47537688333333,
          "velocity": 0.3228346456692913
        },
        {
          "duration": 0.01388886666666167,
          "durationTicks": 4,
          "midi": 38,
          "name": "D2",
          "ticks": 57201,
          "time": 198.61426555,
          "velocity": 1
        },
        {
          "duration": 0.010416649999996253,
          "durationTicks": 3,
          "midi": 42,
          "name": "F#2",
          "ticks": 57202,
          "time": 198.61773776666666,
          "velocity": 0.5590551181102362
        },
        {
          "duration": 0.013888866666690092,
          "durationTicks": 4,
          "midi": 36,
          "name": "C2",
          "ticks": 57241,
          "time": 198.75315421666664,
          "velocity": 1
        },
        {
          "duration": 0.013888866666690092,
          "durationTicks": 4,
          "midi": 38,
          "name": "D2",
          "ticks": 57241,
          "time": 198.75315421666664,
          "velocity": 0.3228346456692913
        },
        {
          "duration": 0.013888866666690092,
          "durationTicks": 4,
          "midi": 42,
          "name": "F#2",
          "ticks": 57241,
          "time": 198.75315421666664,
          "velocity": 1
        },
        {
          "duration": 0.01388886666666167,
          "durationTicks": 4,
          "midi": 41,
          "name": "F2",
          "ticks": 57281,
          "time": 198.89204288333332,
          "velocity": 1
        },
        {
          "duration": 0.01388886666666167,
          "durationTicks": 4,
          "midi": 38,
          "name": "D2",
          "ticks": 57321,
          "time": 199.03093155,
          "velocity": 1
        },
        {
          "duration": 0.01388886666666167,
          "durationTicks": 4,
          "midi": 42,
          "name": "F#2",
          "ticks": 57321,
          "time": 199.03093155,
          "velocity": 0.5590551181102362
        },
        {
          "duration": 0.01388886666666167,
          "durationTicks": 4,
          "midi": 36,
          "name": "C2",
          "ticks": 57361,
          "time": 199.16982021666666,
          "velocity": 1
        },
        {
          "duration": 0.01388886666666167,
          "durationTicks": 4,
          "midi": 38,
          "name": "D2",
          "ticks": 57361,
          "time": 199.16982021666666,
          "velocity": 1
        },
        {
          "duration": 0.01388886666666167,
          "durationTicks": 4,
          "midi": 42,
          "name": "F#2",
          "ticks": 57361,
          "time": 199.16982021666666,
          "velocity": 1
        },
        {
          "duration": 0.01388886666666167,
          "durationTicks": 4,
          "midi": 49,
          "name": "C#3",
          "ticks": 57362,
          "time": 199.17329243333333,
          "velocity": 1
        },
        {
          "duration": 0.01388886666666167,
          "durationTicks": 4,
          "midi": 41,
          "name": "F2",
          "ticks": 57362,
          "time": 199.17329243333333,
          "velocity": 1
        },
        {
          "duration": 0.01388886666666167,
          "durationTicks": 4,
          "midi": 38,
          "name": "D2",
          "ticks": 57441,
          "time": 199.44759754999998,
          "velocity": 1
        },
        {
          "duration": 0.01388886666666167,
          "durationTicks": 4,
          "midi": 42,
          "name": "F#2",
          "ticks": 57441,
          "time": 199.44759754999998,
          "velocity": 0.5590551181102362
        },
        {
          "duration": 0.01388886666666167,
          "durationTicks": 4,
          "midi": 48,
          "name": "C3",
          "ticks": 57442,
          "time": 199.45106976666665,
          "velocity": 1
        },
        {
          "duration": 0.01388886666666167,
          "durationTicks": 4,
          "midi": 36,
          "name": "C2",
          "ticks": 57481,
          "time": 199.58648621666666,
          "velocity": 1
        },
        {
          "duration": 0.01388886666666167,
          "durationTicks": 4,
          "midi": 46,
          "name": "A#2",
          "ticks": 57481,
          "time": 199.58648621666666,
          "velocity": 1
        },
        {
          "duration": 0.01388886666666167,
          "durationTicks": 4,
          "midi": 45,
          "name": "A2",
          "ticks": 57481,
          "time": 199.58648621666666,
          "velocity": 1
        },
        {
          "duration": 0.013888866666633248,
          "durationTicks": 4,
          "midi": 36,
          "name": "C2",
          "ticks": 57561,
          "time": 199.86426355,
          "velocity": 1
        },
        {
          "duration": 0.013888866666633248,
          "durationTicks": 4,
          "midi": 38,
          "name": "D2",
          "ticks": 57561,
          "time": 199.86426355,
          "velocity": 1
        },
        {
          "duration": 0.013888866666633248,
          "durationTicks": 4,
          "midi": 42,
          "name": "F#2",
          "ticks": 57561,
          "time": 199.86426355,
          "velocity": 1
        },
        {
          "duration": 0.013888866666633248,
          "durationTicks": 4,
          "midi": 41,
          "name": "F2",
          "ticks": 57561,
          "time": 199.86426355,
          "velocity": 1
        }
      ],
      "endOfTrackTicks": 57565
    },
    {
      "channel": 0,
      "controlChanges": {
        "0": [
          {
            "number": 0,
            "ticks": 0,
            "time": 0,
            "value": 0
          }
        ],
        "7": [
          {
            "number": 7,
            "ticks": 0,
            "time": 0,
            "value": 0.6771653543307087
          }
        ],
        "10": [
          {
            "number": 10,
            "ticks": 0,
            "time": 0,
            "value": 0.7401574803149606
          }
        ],
        "32": [
          {
            "number": 32,
            "ticks": 0,
            "time": 0,
            "value": 0
          }
        ],
        "91": [
          {
            "number": 91,
            "ticks": 0,
            "time": 0,
            "value": 1
          }
        ],
        "93": [
          {
            "number": 93,
            "ticks": 0,
            "time": 0,
            "value": 1
          }
        ]
      },
      "pitchBends": [],
      "instrument": {
        "family": "piano",
        "number": 0,
        "name": "acoustic grand piano"
      },
      "name": "",
      "notes": [],
      "endOfTrackTicks": 57618
    },
    {
      "channel": 6,
      "controlChanges": {
        "64": [
          {
            "number": 64,
            "ticks": 21,
            "time": 0.07291655,
            "value": 0
          },
          {
            "number": 64,
            "ticks": 5685,
            "time": 19.73955175,
            "value": 1
          },
          {
            "number": 64,
            "ticks": 5716,
            "time": 19.847190466666664,
            "value": 0
          },
          {
            "number": 64,
            "ticks": 17205,
            "time": 59.739487749999995,
            "value": 1
          },
          {
            "number": 64,
            "ticks": 17236,
            "time": 59.84712646666666,
            "value": 0
          }
        ]
      },
      "pitchBends": [],
      "instrument": {
        "family": "synth lead",
        "number": 82,
        "name": "lead 3 (calliope)"
      },
      "name": "",
      "notes": [
        {
          "duration": 0.2256940833333303,
          "durationTicks": 65,
          "midi": 74,
          "name": "D5",
          "ticks": 4800,
          "time": 16.66664,
          "velocity": 1
        },
        {
          "duration": 0.2256940833333374,
          "durationTicks": 65,
          "midi": 76,
          "name": "E5",
          "ticks": 4880,
          "time": 16.94441733333333,
          "velocity": 1
        },
        {
          "duration": 0.2638884666666641,
          "durationTicks": 76,
          "midi": 77,
          "name": "F5",
          "ticks": 5000,
          "time": 17.361083333333333,
          "velocity": 1
        },
        {
          "duration": 0.2986106333333325,
          "durationTicks": 86,
          "midi": 79,
          "name": "G5",
          "ticks": 5120,
          "time": 17.777749333333333,
          "velocity": 1
        },
        {
          "duration": 0.3194439333333321,
          "durationTicks": 92,
          "midi": 81,
          "name": "A5",
          "ticks": 5240,
          "time": 18.194415333333332,
          "velocity": 1
        },
        {
          "duration": 0.23263851666666824,
          "durationTicks": 67,
          "midi": 79,
          "name": "G5",
          "ticks": 5360,
          "time": 18.61108133333333,
          "velocity": 1
        },
        {
          "duration": 0.29513841666666707,
          "durationTicks": 85,
          "midi": 77,
          "name": "F5",
          "ticks": 5480,
          "time": 19.02774733333333,
          "velocity": 1
        },
        {
          "duration": 0.4965269833333359,
          "durationTicks": 143,
          "midi": 76,
          "name": "E5",
          "ticks": 5600,
          "time": 19.44441333333333,
          "velocity": 1
        },
        {
          "duration": 0.25694403333333327,
          "durationTicks": 74,
          "midi": 74,
          "name": "D5",
          "ticks": 5760,
          "time": 19.999968,
          "velocity": 1
        },
        {
          "duration": 0.23611073333333366,
          "durationTicks": 68,
          "midi": 76,
          "name": "E5",
          "ticks": 5840,
          "time": 20.277745333333332,
          "velocity": 1
        },
        {
          "duration": 0.26388846666666765,
          "durationTicks": 76,
          "midi": 77,
          "name": "F5",
          "ticks": 5960,
          "time": 20.69441133333333,
          "velocity": 1
        },
        {
          "duration": 0.20138856666666882,
          "durationTicks": 58,
          "midi": 76,
          "name": "E5",
          "ticks": 6080,
          "time": 21.11107733333333,
          "velocity": 1
        },
        {
          "duration": 1.6701362166666662,
          "durationTicks": 481,
          "midi": 74,
          "name": "D5",
          "ticks": 6200,
          "time": 21.52774333333333,
          "velocity": 1
        },
        {
          "duration": 0.13888866666666644,
          "durationTicks": 40,
          "midi": 72,
          "name": "C5",
          "ticks": 6680,
          "time": 23.19440733333333,
          "velocity": 1
        },
        {
          "duration": 0.26736068333333307,
          "durationTicks": 77,
          "midi": 74,
          "name": "D5",
          "ticks": 6720,
          "time": 23.333295999999997,
          "velocity": 1
        },
        {
          "duration": 0.22222186666666843,
          "durationTicks": 64,
          "midi": 76,
          "name": "E5",
          "ticks": 6800,
          "time": 23.61107333333333,
          "velocity": 1
        },
        {
          "duration": 0.2152774333333305,
          "durationTicks": 62,
          "midi": 77,
          "name": "F5",
          "ticks": 6920,
          "time": 24.027739333333333,
          "velocity": 1
        },
        {
          "duration": 0.3645827500000003,
          "durationTicks": 105,
          "midi": 79,
          "name": "G5",
          "ticks": 7040,
          "time": 24.444405333333332,
          "velocity": 1
        },
        {
          "duration": 0.31249950000000126,
          "durationTicks": 90,
          "midi": 81,
          "name": "A5",
          "ticks": 7160,
          "time": 24.86107133333333,
          "velocity": 1
        },
        {
          "duration": 0.22916630000000282,
          "durationTicks": 66,
          "midi": 79,
          "name": "G5",
          "ticks": 7280,
          "time": 25.27773733333333,
          "velocity": 1
        },
        {
          "duration": 0.3159717166666667,
          "durationTicks": 91,
          "midi": 77,
          "name": "F5",
          "ticks": 7400,
          "time": 25.69440333333333,
          "velocity": 1
        },
        {
          "duration": 0.5243047166666699,
          "durationTicks": 151,
          "midi": 76,
          "name": "E5",
          "ticks": 7520,
          "time": 26.11106933333333,
          "velocity": 1
        },
        {
          "duration": 0.19097191666666546,
          "durationTicks": 55,
          "midi": 74,
          "name": "D5",
          "ticks": 7680,
          "time": 26.666624,
          "velocity": 1
        },
        {
          "duration": 0.2638884666666641,
          "durationTicks": 76,
          "midi": 76,
          "name": "E5",
          "ticks": 7760,
          "time": 26.944401333333335,
          "velocity": 1
        },
        {
          "duration": 0.26736068333333307,
          "durationTicks": 77,
          "midi": 77,
          "name": "F5",
          "ticks": 7880,
          "time": 27.361067333333335,
          "velocity": 1
        },
        {
          "duration": 0.23958294999999552,
          "durationTicks": 69,
          "midi": 79,
          "name": "G5",
          "ticks": 8000,
          "time": 27.777733333333334,
          "velocity": 1
        },
        {
          "duration": 1.465275433333332,
          "durationTicks": 422,
          "midi": 74,
          "name": "D5",
          "ticks": 8120,
          "time": 28.194399333333333,
          "velocity": 1
        },
        {
          "duration": 0.2743051166666639,
          "durationTicks": 79,
          "midi": 74,
          "name": "D5",
          "ticks": 8640,
          "time": 29.999952,
          "velocity": 1
        },
        {
          "duration": 0.23263851666666469,
          "durationTicks": 67,
          "midi": 76,
          "name": "E5",
          "ticks": 8720,
          "time": 30.277729333333333,
          "velocity": 1
        },
        {
          "duration": 0.22222186666666843,
          "durationTicks": 64,
          "midi": 77,
          "name": "F5",
          "ticks": 8840,
          "time": 30.694395333333333,
          "velocity": 1
        },
        {
          "duration": 0.22916629999999572,
          "durationTicks": 66,
          "midi": 79,
          "name": "G5",
          "ticks": 8960,
          "time": 31.111061333333335,
          "velocity": 1
        },
        {
          "duration": 0.36805496666666215,
          "durationTicks": 106,
          "midi": 81,
          "name": "A5",
          "ticks": 9080,
          "time": 31.527727333333335,
          "velocity": 1
        },
        {
          "duration": 0.24305516666666094,
          "durationTicks": 70,
          "midi": 82,
          "name": "A#5",
          "ticks": 9200,
          "time": 31.944393333333334,
          "velocity": 1
        },
        {
          "duration": 0.9131929833333317,
          "durationTicks": 263,
          "midi": 81,
          "name": "A5",
          "ticks": 9320,
          "time": 32.36105933333334,
          "velocity": 1
        },
        {
          "duration": 0.25347181666666074,
          "durationTicks": 73,
          "midi": 74,
          "name": "D5",
          "ticks": 9600,
          "time": 33.33328,
          "velocity": 1
        },
        {
          "duration": 0.23263851666666113,
          "durationTicks": 67,
          "midi": 76,
          "name": "E5",
          "ticks": 9680,
          "time": 33.611057333333335,
          "velocity": 1
        },
        {
          "duration": 0.21527743333333405,
          "durationTicks": 62,
          "midi": 77,
          "name": "F5",
          "ticks": 9800,
          "time": 34.027723333333334,
          "velocity": 1
        },
        {
          "duration": 0.19444413333333443,
          "durationTicks": 56,
          "midi": 79,
          "name": "G5",
          "ticks": 9920,
          "time": 34.44438933333333,
          "velocity": 1
        },
        {
          "duration": 0.3611105333333313,
          "durationTicks": 104,
          "midi": 81,
          "name": "A5",
          "ticks": 10040,
          "time": 34.86105533333333,
          "velocity": 1
        },
        {
          "duration": 0.21874964999999946,
          "durationTicks": 63,
          "midi": 82,
          "name": "A#5",
          "ticks": 10160,
          "time": 35.27772133333333,
          "velocity": 1
        },
        {
          "duration": 0.3715271833333347,
          "durationTicks": 107,
          "midi": 81,
          "name": "A5",
          "ticks": 10280,
          "time": 35.69438733333333,
          "velocity": 1
        },
        {
          "duration": 0.15624975000000063,
          "durationTicks": 45,
          "midi": 86,
          "name": "D6",
          "ticks": 10440,
          "time": 36.249942,
          "velocity": 1
        },
        {
          "duration": 0.22222186666667199,
          "durationTicks": 64,
          "midi": 86,
          "name": "D6",
          "ticks": 10520,
          "time": 36.52771933333333,
          "velocity": 1
        },
        {
          "duration": 0.1493053166666627,
          "durationTicks": 43,
          "midi": 86,
          "name": "D6",
          "ticks": 10920,
          "time": 37.916606,
          "velocity": 1
        },
        {
          "duration": 0.9444429333333346,
          "durationTicks": 272,
          "midi": 84,
          "name": "C6",
          "ticks": 11000,
          "time": 38.194383333333334,
          "velocity": 1
        },
        {
          "duration": 0.3402772333333317,
          "durationTicks": 98,
          "midi": 81,
          "name": "A5",
          "ticks": 11280,
          "time": 39.166604,
          "velocity": 1
        },
        {
          "duration": 0.3541661000000005,
          "durationTicks": 102,
          "midi": 84,
          "name": "C6",
          "ticks": 11400,
          "time": 39.58327,
          "velocity": 1
        },
        {
          "duration": 0.8020820499999957,
          "durationTicks": 231,
          "midi": 79,
          "name": "G5",
          "ticks": 11520,
          "time": 39.999936,
          "velocity": 1
        },
        {
          "duration": 0.32986058333333546,
          "durationTicks": 95,
          "midi": 79,
          "name": "G5",
          "ticks": 11760,
          "time": 40.833268,
          "velocity": 1
        },
        {
          "duration": 0.3368050166666734,
          "durationTicks": 97,
          "midi": 77,
          "name": "F5",
          "ticks": 11880,
          "time": 41.249933999999996,
          "velocity": 1
        },
        {
          "duration": 0.35069388333333507,
          "durationTicks": 101,
          "midi": 79,
          "name": "G5",
          "ticks": 12000,
          "time": 41.666599999999995,
          "velocity": 1
        },
        {
          "duration": 0.22222186666667199,
          "durationTicks": 64,
          "midi": 81,
          "name": "A5",
          "ticks": 12120,
          "time": 42.083265999999995,
          "velocity": 1
        },
        {
          "duration": 0.510415849999994,
          "durationTicks": 147,
          "midi": 79,
          "name": "G5",
          "ticks": 12200,
          "time": 42.361043333333335,
          "velocity": 1
        },
        {
          "duration": 0.18402748333333108,
          "durationTicks": 53,
          "midi": 86,
          "name": "D6",
          "ticks": 12360,
          "time": 42.916598,
          "velocity": 1
        },
        {
          "duration": 0.3194439333333321,
          "durationTicks": 92,
          "midi": 86,
          "name": "D6",
          "ticks": 12440,
          "time": 43.19437533333333,
          "velocity": 1
        },
        {
          "duration": 0.19791634999999985,
          "durationTicks": 57,
          "midi": 86,
          "name": "D6",
          "ticks": 12840,
          "time": 44.583262,
          "velocity": 1
        },
        {
          "duration": 0.9722206666666651,
          "durationTicks": 280,
          "midi": 84,
          "name": "C6",
          "ticks": 12920,
          "time": 44.86103933333333,
          "velocity": 1
        },
        {
          "duration": 0.4166659999999993,
          "durationTicks": 120,
          "midi": 81,
          "name": "A5",
          "ticks": 13200,
          "time": 45.833259999999996,
          "velocity": 1
        },
        {
          "duration": 0.27083290000000204,
          "durationTicks": 78,
          "midi": 79,
          "name": "G5",
          "ticks": 13320,
          "time": 46.249925999999995,
          "velocity": 1
        },
        {
          "duration": 0.14236088333333186,
          "durationTicks": 41,
          "midi": 77,
          "name": "F5",
          "ticks": 13400,
          "time": 46.527703333333335,
          "velocity": 1
        },
        {
          "duration": 0.29513841666666707,
          "durationTicks": 85,
          "midi": 79,
          "name": "G5",
          "ticks": 13440,
          "time": 46.666591999999994,
          "velocity": 1
        },
        {
          "duration": 0.24999959999999533,
          "durationTicks": 72,
          "midi": 79,
          "name": "G5",
          "ticks": 13560,
          "time": 47.083258,
          "velocity": 1
        },
        {
          "duration": 0.2083329999999961,
          "durationTicks": 60,
          "midi": 79,
          "name": "G5",
          "ticks": 13680,
          "time": 47.499924,
          "velocity": 1
        },
        {
          "duration": 0.5312491499999936,
          "durationTicks": 153,
          "midi": 77,
          "name": "F5",
          "ticks": 13760,
          "time": 47.77770133333333,
          "velocity": 1
        },
        {
          "duration": 0.38194383333333093,
          "durationTicks": 110,
          "midi": 81,
          "name": "A5",
          "ticks": 13920,
          "time": 48.333256,
          "velocity": 1
        },
        {
          "duration": 0.23263851666666824,
          "durationTicks": 67,
          "midi": 81,
          "name": "A5",
          "ticks": 14040,
          "time": 48.749922,
          "velocity": 1
        },
        {
          "duration": 0.2256940833333303,
          "durationTicks": 65,
          "midi": 74,
          "name": "D5",
          "ticks": 16320,
          "time": 56.666576,
          "velocity": 1
        },
        {
          "duration": 0.2256940833333445,
          "durationTicks": 65,
          "midi": 76,
          "name": "E5",
          "ticks": 16400,
          "time": 56.944353333333325,
          "velocity": 1
        },
        {
          "duration": 0.2638884666666783,
          "durationTicks": 76,
          "midi": 77,
          "name": "F5",
          "ticks": 16520,
          "time": 57.361019333333324,
          "velocity": 1
        },
        {
          "duration": 0.2986106333333396,
          "durationTicks": 86,
          "midi": 79,
          "name": "G5",
          "ticks": 16640,
          "time": 57.777685333333324,
          "velocity": 1
        },
        {
          "duration": 0.3194439333333321,
          "durationTicks": 92,
          "midi": 81,
          "name": "A5",
          "ticks": 16760,
          "time": 58.19435133333333,
          "velocity": 1
        },
        {
          "duration": 0.23263851666666824,
          "durationTicks": 67,
          "midi": 79,
          "name": "G5",
          "ticks": 16880,
          "time": 58.61101733333333,
          "velocity": 1
        },
        {
          "duration": 0.29513841666666707,
          "durationTicks": 85,
          "midi": 77,
          "name": "F5",
          "ticks": 17000,
          "time": 59.02768333333333,
          "velocity": 1
        },
        {
          "duration": 0.49652698333333234,
          "durationTicks": 143,
          "midi": 76,
          "name": "E5",
          "ticks": 17120,
          "time": 59.44434933333333,
          "velocity": 1
        },
        {
          "duration": 0.25694403333333327,
          "durationTicks": 74,
          "midi": 74,
          "name": "D5",
          "ticks": 17280,
          "time": 59.999904,
          "velocity": 1
        },
        {
          "duration": 0.23611073333333366,
          "durationTicks": 68,
          "midi": 76,
          "name": "E5",
          "ticks": 17360,
          "time": 60.27768133333333,
          "velocity": 1
        },
        {
          "duration": 0.2638884666666783,
          "durationTicks": 76,
          "midi": 77,
          "name": "F5",
          "ticks": 17480,
          "time": 60.694347333333326,
          "velocity": 1
        },
        {
          "duration": 0.20138856666667238,
          "durationTicks": 58,
          "midi": 76,
          "name": "E5",
          "ticks": 17600,
          "time": 61.111013333333325,
          "velocity": 1
        },
        {
          "duration": 1.6701362166666769,
          "durationTicks": 481,
          "midi": 74,
          "name": "D5",
          "ticks": 17720,
          "time": 61.527679333333325,
          "velocity": 1
        },
        {
          "duration": 0.13888866666666644,
          "durationTicks": 40,
          "midi": 72,
          "name": "C5",
          "ticks": 18200,
          "time": 63.19434333333333,
          "velocity": 1
        },
        {
          "duration": 0.26736068333334373,
          "durationTicks": 77,
          "midi": 74,
          "name": "D5",
          "ticks": 18240,
          "time": 63.333231999999995,
          "velocity": 1
        },
        {
          "duration": 0.22222186666666488,
          "durationTicks": 64,
          "midi": 76,
          "name": "E5",
          "ticks": 18320,
          "time": 63.61100933333333,
          "velocity": 1
        },
        {
          "duration": 0.21527743333334115,
          "durationTicks": 62,
          "midi": 77,
          "name": "F5",
          "ticks": 18440,
          "time": 64.02767533333332,
          "velocity": 1
        },
        {
          "duration": 0.36458274999999674,
          "durationTicks": 105,
          "midi": 79,
          "name": "G5",
          "ticks": 18560,
          "time": 64.44434133333333,
          "velocity": 1
        },
        {
          "duration": 0.31249949999998705,
          "durationTicks": 90,
          "midi": 81,
          "name": "A5",
          "ticks": 18680,
          "time": 64.86100733333333,
          "velocity": 1
        },
        {
          "duration": 0.22916630000000282,
          "durationTicks": 66,
          "midi": 79,
          "name": "G5",
          "ticks": 18800,
          "time": 65.27767333333333,
          "velocity": 1
        },
        {
          "duration": 0.3159717166666667,
          "durationTicks": 91,
          "midi": 77,
          "name": "F5",
          "ticks": 18920,
          "time": 65.69433933333333,
          "velocity": 1
        },
        {
          "duration": 0.524304716666677,
          "durationTicks": 151,
          "midi": 76,
          "name": "E5",
          "ticks": 19040,
          "time": 66.11100533333332,
          "velocity": 1
        },
        {
          "duration": 0.19097191666666902,
          "durationTicks": 55,
          "midi": 74,
          "name": "D5",
          "ticks": 19200,
          "time": 66.66656,
          "velocity": 1
        },
        {
          "duration": 0.2638884666666854,
          "durationTicks": 76,
          "midi": 76,
          "name": "E5",
          "ticks": 19280,
          "time": 66.94433733333332,
          "velocity": 1
        },
        {
          "duration": 0.2673606833333366,
          "durationTicks": 77,
          "midi": 77,
          "name": "F5",
          "ticks": 19400,
          "time": 67.36100333333333,
          "velocity": 1
        },
        {
          "duration": 0.23958295000001328,
          "durationTicks": 69,
          "midi": 79,
          "name": "G5",
          "ticks": 19520,
          "time": 67.77766933333332,
          "velocity": 1
        },
        {
          "duration": 1.465275433333332,
          "durationTicks": 422,
          "midi": 74,
          "name": "D5",
          "ticks": 19640,
          "time": 68.19433533333333,
          "velocity": 1
        },
        {
          "duration": 0.27430511666666746,
          "durationTicks": 79,
          "midi": 74,
          "name": "D5",
          "ticks": 20160,
          "time": 69.999888,
          "velocity": 1
        },
        {
          "duration": 0.23263851666666824,
          "durationTicks": 67,
          "midi": 76,
          "name": "E5",
          "ticks": 20240,
          "time": 70.27766533333333,
          "velocity": 1
        },
        {
          "duration": 0.22222186666667199,
          "durationTicks": 64,
          "midi": 77,
          "name": "F5",
          "ticks": 20360,
          "time": 70.69433133333332,
          "velocity": 1
        },
        {
          "duration": 0.22916630000000282,
          "durationTicks": 66,
          "midi": 79,
          "name": "G5",
          "ticks": 20480,
          "time": 71.11099733333333,
          "velocity": 1
        },
        {
          "duration": 0.36805496666667636,
          "durationTicks": 106,
          "midi": 81,
          "name": "A5",
          "ticks": 20600,
          "time": 71.52766333333332,
          "velocity": 1
        },
        {
          "duration": 0.2430551666666645,
          "durationTicks": 70,
          "midi": 82,
          "name": "A#5",
          "ticks": 20720,
          "time": 71.94432933333333,
          "velocity": 1
        },
        {
          "duration": 0.9131929833333317,
          "durationTicks": 263,
          "midi": 81,
          "name": "A5",
          "ticks": 20840,
          "time": 72.36099533333332,
          "velocity": 1
        },
        {
          "duration": 0.25347181666666074,
          "durationTicks": 73,
          "midi": 74,
          "name": "D5",
          "ticks": 21120,
          "time": 73.333216,
          "velocity": 1
        },
        {
          "duration": 0.23263851666666824,
          "durationTicks": 67,
          "midi": 76,
          "name": "E5",
          "ticks": 21200,
          "time": 73.61099333333333,
          "velocity": 1
        },
        {
          "duration": 0.21527743333332694,
          "durationTicks": 62,
          "midi": 77,
          "name": "F5",
          "ticks": 21320,
          "time": 74.02765933333333,
          "velocity": 1
        },
        {
          "duration": 0.19444413333333443,
          "durationTicks": 56,
          "midi": 79,
          "name": "G5",
          "ticks": 21440,
          "time": 74.44432533333332,
          "velocity": 1
        },
        {
          "duration": 0.3611105333333313,
          "durationTicks": 104,
          "midi": 81,
          "name": "A5",
          "ticks": 21560,
          "time": 74.86099133333333,
          "velocity": 1
        },
        {
          "duration": 0.21874965000000657,
          "durationTicks": 63,
          "midi": 82,
          "name": "A#5",
          "ticks": 21680,
          "time": 75.27765733333332,
          "velocity": 1
        },
        {
          "duration": 1.6215251833333326,
          "durationTicks": 467,
          "midi": 81,
          "name": "A5",
          "ticks": 21800,
          "time": 75.69432333333333,
          "velocity": 1
        },
        {
          "duration": 0.11111093333333599,
          "durationTicks": 32,
          "midi": 86,
          "name": "D6",
          "ticks": 22440,
          "time": 77.91654199999999,
          "velocity": 1
        },
        {
          "duration": 0.15972196666668026,
          "durationTicks": 46,
          "midi": 86,
          "name": "D6",
          "ticks": 22520,
          "time": 78.19431933333333,
          "velocity": 1
        },
        {
          "duration": 0.1493053166666698,
          "durationTicks": 43,
          "midi": 86,
          "name": "D6",
          "ticks": 22920,
          "time": 79.58320599999999,
          "velocity": 1
        },
        {
          "duration": 0.9444429333333488,
          "durationTicks": 272,
          "midi": 84,
          "name": "C6",
          "ticks": 23000,
          "time": 79.86098333333332,
          "velocity": 1
        },
        {
          "duration": 0.3402772333333388,
          "durationTicks": 98,
          "midi": 81,
          "name": "A5",
          "ticks": 23280,
          "time": 80.833204,
          "velocity": 1
        },
        {
          "duration": 0.3541660999999863,
          "durationTicks": 102,
          "midi": 84,
          "name": "C6",
          "ticks": 23400,
          "time": 81.24987,
          "velocity": 1
        },
        {
          "duration": 0.8020820500000099,
          "durationTicks": 231,
          "midi": 79,
          "name": "G5",
          "ticks": 23520,
          "time": 81.666536,
          "velocity": 1
        },
        {
          "duration": 0.32986058333332835,
          "durationTicks": 95,
          "midi": 79,
          "name": "G5",
          "ticks": 23760,
          "time": 82.49986799999999,
          "velocity": 1
        },
        {
          "duration": 0.3368050166666592,
          "durationTicks": 97,
          "midi": 77,
          "name": "F5",
          "ticks": 23880,
          "time": 82.916534,
          "velocity": 1
        },
        {
          "duration": 0.35069388333333507,
          "durationTicks": 101,
          "midi": 79,
          "name": "G5",
          "ticks": 24000,
          "time": 83.33319999999999,
          "velocity": 1
        },
        {
          "duration": 0.22222186666665777,
          "durationTicks": 64,
          "midi": 81,
          "name": "A5",
          "ticks": 24120,
          "time": 83.749866,
          "velocity": 1
        },
        {
          "duration": 0.5104158500000011,
          "durationTicks": 147,
          "midi": 79,
          "name": "G5",
          "ticks": 24200,
          "time": 84.02764333333333,
          "velocity": 1
        },
        {
          "duration": 0.18402748333333818,
          "durationTicks": 53,
          "midi": 86,
          "name": "D6",
          "ticks": 24360,
          "time": 84.583198,
          "velocity": 1
        },
        {
          "duration": 0.3194439333333321,
          "durationTicks": 92,
          "midi": 86,
          "name": "D6",
          "ticks": 24440,
          "time": 84.86097533333333,
          "velocity": 1
        },
        {
          "duration": 0.19791634999999985,
          "durationTicks": 57,
          "midi": 86,
          "name": "D6",
          "ticks": 24840,
          "time": 86.249862,
          "velocity": 1
        },
        {
          "duration": 0.9722206666666722,
          "durationTicks": 280,
          "midi": 84,
          "name": "C6",
          "ticks": 24920,
          "time": 86.52763933333333,
          "velocity": 1
        },
        {
          "duration": 0.4166659999999922,
          "durationTicks": 120,
          "midi": 81,
          "name": "A5",
          "ticks": 25200,
          "time": 87.49986,
          "velocity": 1
        },
        {
          "duration": 0.27083290000000204,
          "durationTicks": 78,
          "midi": 79,
          "name": "G5",
          "ticks": 25320,
          "time": 87.91652599999999,
          "velocity": 1
        },
        {
          "duration": 0.14236088333333896,
          "durationTicks": 41,
          "midi": 77,
          "name": "F5",
          "ticks": 25400,
          "time": 88.19430333333332,
          "velocity": 1
        },
        {
          "duration": 0.2951384166666742,
          "durationTicks": 85,
          "midi": 79,
          "name": "G5",
          "ticks": 25440,
          "time": 88.333192,
          "velocity": 1
        },
        {
          "duration": 0.24999960000000954,
          "durationTicks": 72,
          "midi": 79,
          "name": "G5",
          "ticks": 25560,
          "time": 88.74985799999999,
          "velocity": 1
        },
        {
          "duration": 0.2083329999999961,
          "durationTicks": 60,
          "midi": 79,
          "name": "G5",
          "ticks": 25680,
          "time": 89.166524,
          "velocity": 1
        },
        {
          "duration": 0.5312491499999936,
          "durationTicks": 153,
          "midi": 77,
          "name": "F5",
          "ticks": 25760,
          "time": 89.44430133333333,
          "velocity": 1
        },
        {
          "duration": 0.38194383333333803,
          "durationTicks": 110,
          "midi": 81,
          "name": "A5",
          "ticks": 25920,
          "time": 89.999856,
          "velocity": 1
        },
        {
          "duration": 0.23263851666666824,
          "durationTicks": 67,
          "midi": 81,
          "name": "A5",
          "ticks": 26040,
          "time": 90.416522,
          "velocity": 1
        },
        {
          "duration": 0.40277713333333054,
          "durationTicks": 116,
          "midi": 83,
          "name": "B5",
          "ticks": 27360,
          "time": 94.999848,
          "velocity": 1
        },
        {
          "duration": 0.4687492500000019,
          "durationTicks": 135,
          "midi": 79,
          "name": "G5",
          "ticks": 27480,
          "time": 95.41651399999999,
          "velocity": 1
        },
        {
          "duration": 0.38541605000000345,
          "durationTicks": 111,
          "midi": 76,
          "name": "E5",
          "ticks": 27600,
          "time": 95.83318,
          "velocity": 1
        },
        {
          "duration": 0.38888826666666887,
          "durationTicks": 112,
          "midi": 83,
          "name": "B5",
          "ticks": 27720,
          "time": 96.24984599999999,
          "velocity": 1
        },
        {
          "duration": 0.47916589999999815,
          "durationTicks": 138,
          "midi": 79,
          "name": "G5",
          "ticks": 27840,
          "time": 96.666512,
          "velocity": 1
        },
        {
          "duration": 0.27083290000000204,
          "durationTicks": 78,
          "midi": 76,
          "name": "E5",
          "ticks": 27960,
          "time": 97.08317799999999,
          "velocity": 1
        },
        {
          "duration": 0.4097215666666756,
          "durationTicks": 118,
          "midi": 83,
          "name": "B5",
          "ticks": 28040,
          "time": 97.36095533333332,
          "velocity": 1
        },
        {
          "duration": 0.18402748333332397,
          "durationTicks": 53,
          "midi": 79,
          "name": "G5",
          "ticks": 28160,
          "time": 97.77762133333333,
          "velocity": 1
        },
        {
          "duration": 0.38541605000000345,
          "durationTicks": 111,
          "midi": 76,
          "name": "E5",
          "ticks": 28200,
          "time": 97.91651,
          "velocity": 1
        },
        {
          "duration": 0.32638836666666293,
          "durationTicks": 94,
          "midi": 81,
          "name": "A5",
          "ticks": 28320,
          "time": 98.333176,
          "velocity": 1
        },
        {
          "duration": 0.374999399999993,
          "durationTicks": 108,
          "midi": 78,
          "name": "F#5",
          "ticks": 28440,
          "time": 98.749842,
          "velocity": 1
        },
        {
          "duration": 0.40624934999999596,
          "durationTicks": 117,
          "midi": 74,
          "name": "D5",
          "ticks": 28560,
          "time": 99.166508,
          "velocity": 1
        },
        {
          "duration": 0.40624934999999596,
          "durationTicks": 117,
          "midi": 81,
          "name": "A5",
          "ticks": 28680,
          "time": 99.583174,
          "velocity": 1
        },
        {
          "duration": 0.42361043333333726,
          "durationTicks": 122,
          "midi": 74,
          "name": "D5",
          "ticks": 28800,
          "time": 99.99983999999999,
          "velocity": 1
        },
        {
          "duration": 0.836804216666664,
          "durationTicks": 241,
          "midi": 78,
          "name": "F#5",
          "ticks": 28920,
          "time": 100.416506,
          "velocity": 1
        },
        {
          "duration": 0.3784716166666726,
          "durationTicks": 109,
          "midi": 83,
          "name": "B5",
          "ticks": 29280,
          "time": 101.66650399999999,
          "velocity": 1
        },
        {
          "duration": 0.44097151666666434,
          "durationTicks": 127,
          "midi": 79,
          "name": "G5",
          "ticks": 29400,
          "time": 102.08317,
          "velocity": 1
        },
        {
          "duration": 0.4097215666666614,
          "durationTicks": 118,
          "midi": 76,
          "name": "E5",
          "ticks": 29520,
          "time": 102.499836,
          "velocity": 1
        },
        {
          "duration": 0.3819438333333238,
          "durationTicks": 110,
          "midi": 83,
          "name": "B5",
          "ticks": 29640,
          "time": 102.916502,
          "velocity": 1
        },
        {
          "duration": 0.486110333333329,
          "durationTicks": 140,
          "midi": 79,
          "name": "G5",
          "ticks": 29760,
          "time": 103.333168,
          "velocity": 1
        },
        {
          "duration": 0.3784716166666726,
          "durationTicks": 109,
          "midi": 76,
          "name": "E5",
          "ticks": 29880,
          "time": 103.74983399999999,
          "velocity": 1
        },
        {
          "duration": 0.29166619999999455,
          "durationTicks": 84,
          "midi": 83,
          "name": "B5",
          "ticks": 30000,
          "time": 104.1665,
          "velocity": 1
        },
        {
          "duration": 0.19444413333333443,
          "durationTicks": 56,
          "midi": 79,
          "name": "G5",
          "ticks": 30080,
          "time": 104.44427733333332,
          "velocity": 1
        },
        {
          "duration": 0.38194383333333803,
          "durationTicks": 110,
          "midi": 76,
          "name": "E5",
          "ticks": 30120,
          "time": 104.58316599999999,
          "velocity": 1
        },
        {
          "duration": 0.4340270833333335,
          "durationTicks": 125,
          "midi": 81,
          "name": "A5",
          "ticks": 30240,
          "time": 104.999832,
          "velocity": 1
        },
        {
          "duration": 0.5173602833333462,
          "durationTicks": 149,
          "midi": 78,
          "name": "F#5",
          "ticks": 30360,
          "time": 105.41649799999999,
          "velocity": 1
        },
        {
          "duration": 0.8124986999999919,
          "durationTicks": 234,
          "midi": 74,
          "name": "D5",
          "ticks": 30480,
          "time": 105.833164,
          "velocity": 1
        },
        {
          "duration": 0.36805496666666215,
          "durationTicks": 106,
          "midi": 81,
          "name": "A5",
          "ticks": 31200,
          "time": 108.33315999999999,
          "velocity": 1
        },
        {
          "duration": 0.3958326999999855,
          "durationTicks": 114,
          "midi": 77,
          "name": "F5",
          "ticks": 31320,
          "time": 108.749826,
          "velocity": 1
        },
        {
          "duration": 0.374999399999993,
          "durationTicks": 108,
          "midi": 72,
          "name": "C5",
          "ticks": 31440,
          "time": 109.16649199999999,
          "velocity": 1
        },
        {
          "duration": 0.3958326999999997,
          "durationTicks": 114,
          "midi": 81,
          "name": "A5",
          "ticks": 31560,
          "time": 109.583158,
          "velocity": 1
        },
        {
          "duration": 0.44097151666667855,
          "durationTicks": 127,
          "midi": 77,
          "name": "F5",
          "ticks": 31680,
          "time": 109.99982399999999,
          "velocity": 1
        },
        {
          "duration": 0.2812495499999983,
          "durationTicks": 81,
          "midi": 72,
          "name": "C5",
          "ticks": 31800,
          "time": 110.41649,
          "velocity": 1
        },
        {
          "duration": 0.3194439333333179,
          "durationTicks": 92,
          "midi": 81,
          "name": "A5",
          "ticks": 31880,
          "time": 110.69426733333334,
          "velocity": 1
        },
        {
          "duration": 0.14583309999999017,
          "durationTicks": 42,
          "midi": 77,
          "name": "F5",
          "ticks": 32000,
          "time": 111.11093333333334,
          "velocity": 1
        },
        {
          "duration": 0.3159717166666667,
          "durationTicks": 91,
          "midi": 72,
          "name": "C5",
          "ticks": 32040,
          "time": 111.249822,
          "velocity": 1
        },
        {
          "duration": 0.3993049166666509,
          "durationTicks": 115,
          "midi": 79,
          "name": "G5",
          "ticks": 32160,
          "time": 111.666488,
          "velocity": 1
        },
        {
          "duration": 0.36458274999999674,
          "durationTicks": 105,
          "midi": 76,
          "name": "E5",
          "ticks": 32280,
          "time": 112.083154,
          "velocity": 1
        },
        {
          "duration": 0.6249989999999883,
          "durationTicks": 180,
          "midi": 72,
          "name": "C5",
          "ticks": 32400,
          "time": 112.49982,
          "velocity": 1
        },
        {
          "duration": 0.15972196666666605,
          "durationTicks": 46,
          "midi": 77,
          "name": "F5",
          "ticks": 32960,
          "time": 114.44426133333333,
          "velocity": 1
        },
        {
          "duration": 0.21180521666667573,
          "durationTicks": 61,
          "midi": 76,
          "name": "E5",
          "ticks": 33000,
          "time": 114.58314999999999,
          "velocity": 1
        },
        {
          "duration": 0.4895825499999802,
          "durationTicks": 141,
          "midi": 74,
          "name": "D5",
          "ticks": 33080,
          "time": 114.86092733333334,
          "velocity": 1
        },
        {
          "duration": 0.3368050166666734,
          "durationTicks": 97,
          "midi": 74,
          "name": "D5",
          "ticks": 33240,
          "time": 115.41648199999999,
          "velocity": 1
        },
        {
          "duration": 0.35069388333332085,
          "durationTicks": 101,
          "midi": 77,
          "name": "F5",
          "ticks": 33360,
          "time": 115.833148,
          "velocity": 1
        },
        {
          "duration": 0.3541661000000005,
          "durationTicks": 102,
          "midi": 77,
          "name": "F5",
          "ticks": 33480,
          "time": 116.249814,
          "velocity": 1
        },
        {
          "duration": 0.2812495500000125,
          "durationTicks": 81,
          "midi": 81,
          "name": "A5",
          "ticks": 33600,
          "time": 116.66647999999999,
          "velocity": 1
        },
        {
          "duration": 0.32986058333334256,
          "durationTicks": 95,
          "midi": 81,
          "name": "A5",
          "ticks": 33720,
          "time": 117.083146,
          "velocity": 1
        },
        {
          "duration": 2.2083298000000013,
          "durationTicks": 636,
          "midi": 86,
          "name": "D6",
          "ticks": 33840,
          "time": 117.49981199999999,
          "velocity": 1
        },
        {
          "duration": 0.14236088333332475,
          "durationTicks": 41,
          "midi": 77,
          "name": "F5",
          "ticks": 34640,
          "time": 120.27758533333333,
          "velocity": 1
        },
        {
          "duration": 0.18055526666667276,
          "durationTicks": 52,
          "midi": 76,
          "name": "E5",
          "ticks": 34680,
          "time": 120.416474,
          "velocity": 1
        },
        {
          "duration": 0.47916589999998394,
          "durationTicks": 138,
          "midi": 74,
          "name": "D5",
          "ticks": 34760,
          "time": 120.69425133333334,
          "velocity": 1
        },
        {
          "duration": 0.35069388333332085,
          "durationTicks": 101,
          "midi": 74,
          "name": "D5",
          "ticks": 34920,
          "time": 121.24980599999999,
          "velocity": 1
        },
        {
          "duration": 0.31249950000000126,
          "durationTicks": 90,
          "midi": 77,
          "name": "F5",
          "ticks": 35040,
          "time": 121.666472,
          "velocity": 1
        },
        {
          "duration": 0.31249950000000126,
          "durationTicks": 90,
          "midi": 77,
          "name": "F5",
          "ticks": 35160,
          "time": 122.08313799999999,
          "velocity": 1
        },
        {
          "duration": 0.3229161499999833,
          "durationTicks": 93,
          "midi": 81,
          "name": "A5",
          "ticks": 35280,
          "time": 122.499804,
          "velocity": 1
        },
        {
          "duration": 0.17708305000000735,
          "durationTicks": 51,
          "midi": 81,
          "name": "A5",
          "ticks": 35400,
          "time": 122.91646999999999,
          "velocity": 1
        },
        {
          "duration": 0.4305548666666539,
          "durationTicks": 124,
          "midi": 86,
          "name": "D6",
          "ticks": 35480,
          "time": 123.19424733333334,
          "velocity": 1
        },
        {
          "duration": 0.21180521666667573,
          "durationTicks": 61,
          "midi": 86,
          "name": "D6",
          "ticks": 35640,
          "time": 123.74980199999999,
          "velocity": 1
        },
        {
          "duration": 1.6527751333333214,
          "durationTicks": 476,
          "midi": 88,
          "name": "E6",
          "ticks": 35720,
          "time": 124.02757933333334,
          "velocity": 1
        },
        {
          "duration": 0.16666639999999688,
          "durationTicks": 48,
          "midi": 86,
          "name": "D6",
          "ticks": 45960,
          "time": 159.583078,
          "velocity": 1
        },
        {
          "duration": 0.2465273833333015,
          "durationTicks": 71,
          "midi": 86,
          "name": "D6",
          "ticks": 46040,
          "time": 159.86085533333335,
          "velocity": 1
        },
        {
          "duration": 0.2048607833333449,
          "durationTicks": 59,
          "midi": 86,
          "name": "D6",
          "ticks": 46440,
          "time": 161.249742,
          "velocity": 1
        },
        {
          "duration": 0.8368042166666498,
          "durationTicks": 241,
          "midi": 84,
          "name": "C6",
          "ticks": 46520,
          "time": 161.52751933333334,
          "velocity": 1
        },
        {
          "duration": 0.2986106333333396,
          "durationTicks": 86,
          "midi": 81,
          "name": "A5",
          "ticks": 46760,
          "time": 162.36085133333333,
          "velocity": 1
        },
        {
          "duration": 0.1319442333333427,
          "durationTicks": 38,
          "midi": 79,
          "name": "G5",
          "ticks": 46880,
          "time": 162.77751733333332,
          "velocity": 1
        },
        {
          "duration": 0.29513841666664575,
          "durationTicks": 85,
          "midi": 77,
          "name": "F5",
          "ticks": 46920,
          "time": 162.916406,
          "velocity": 1
        },
        {
          "duration": 0.2777773333333471,
          "durationTicks": 80,
          "midi": 79,
          "name": "G5",
          "ticks": 47040,
          "time": 163.333072,
          "velocity": 1
        },
        {
          "duration": 0.27430511666668167,
          "durationTicks": 79,
          "midi": 79,
          "name": "G5",
          "ticks": 47160,
          "time": 163.74973799999998,
          "velocity": 1
        },
        {
          "duration": 0.3055550666666704,
          "durationTicks": 88,
          "midi": 79,
          "name": "G5",
          "ticks": 47280,
          "time": 164.166404,
          "velocity": 1
        },
        {
          "duration": 0.27083289999998783,
          "durationTicks": 78,
          "midi": 81,
          "name": "A5",
          "ticks": 47400,
          "time": 164.58307,
          "velocity": 1
        },
        {
          "duration": 0.2569440333333546,
          "durationTicks": 74,
          "midi": 79,
          "name": "G5",
          "ticks": 47520,
          "time": 164.99973599999998,
          "velocity": 1
        },
        {
          "duration": 0.21874965000000657,
          "durationTicks": 63,
          "midi": 77,
          "name": "F5",
          "ticks": 47600,
          "time": 165.27751333333333,
          "velocity": 1
        },
        {
          "duration": 0.4340270833333193,
          "durationTicks": 125,
          "midi": 74,
          "name": "D5",
          "ticks": 47720,
          "time": 165.69417933333332,
          "velocity": 1
        },
        {
          "duration": 0.18055526666665855,
          "durationTicks": 52,
          "midi": 86,
          "name": "D6",
          "ticks": 47880,
          "time": 166.249734,
          "velocity": 1
        },
        {
          "duration": 0.23958294999999907,
          "durationTicks": 69,
          "midi": 86,
          "name": "D6",
          "ticks": 47960,
          "time": 166.52751133333334,
          "velocity": 1
        },
        {
          "duration": 0.22222186666667199,
          "durationTicks": 64,
          "midi": 86,
          "name": "D6",
          "ticks": 48360,
          "time": 167.916398,
          "velocity": 1
        },
        {
          "duration": 0.9548595833333309,
          "durationTicks": 275,
          "midi": 84,
          "name": "C6",
          "ticks": 48440,
          "time": 168.19417533333333,
          "velocity": 1
        },
        {
          "duration": 0.3229161499999975,
          "durationTicks": 93,
          "midi": 81,
          "name": "A5",
          "ticks": 48720,
          "time": 169.166396,
          "velocity": 1
        },
        {
          "duration": 0.28819398333334334,
          "durationTicks": 83,
          "midi": 84,
          "name": "C6",
          "ticks": 48840,
          "time": 169.58306199999998,
          "velocity": 1
        },
        {
          "duration": 0.35069388333332085,
          "durationTicks": 101,
          "midi": 81,
          "name": "A5",
          "ticks": 48960,
          "time": 169.999728,
          "velocity": 1
        },
        {
          "duration": 0.7638876666666476,
          "durationTicks": 220,
          "midi": 79,
          "name": "G5",
          "ticks": 49080,
          "time": 170.416394,
          "velocity": 1
        },
        {
          "duration": 0.26736068333335083,
          "durationTicks": 77,
          "midi": 77,
          "name": "F5",
          "ticks": 49320,
          "time": 171.24972599999998,
          "velocity": 1
        },
        {
          "duration": 0.23263851666666824,
          "durationTicks": 67,
          "midi": 79,
          "name": "G5",
          "ticks": 49440,
          "time": 171.666392,
          "velocity": 1
        },
        {
          "duration": 0.2256940833333374,
          "durationTicks": 65,
          "midi": 81,
          "name": "A5",
          "ticks": 49520,
          "time": 171.94416933333332,
          "velocity": 1
        },
        {
          "duration": 0.3611105333333171,
          "durationTicks": 104,
          "midi": 81,
          "name": "A5",
          "ticks": 49640,
          "time": 172.36083533333334,
          "velocity": 1
        },
        {
          "duration": 0.13888866666667354,
          "durationTicks": 40,
          "midi": 86,
          "name": "D6",
          "ticks": 49800,
          "time": 172.91638999999998,
          "velocity": 1
        },
        {
          "duration": 0.3055550666666704,
          "durationTicks": 88,
          "midi": 86,
          "name": "D6",
          "ticks": 49880,
          "time": 173.19416733333333,
          "velocity": 1
        },
        {
          "duration": 0.1874996999999894,
          "durationTicks": 54,
          "midi": 86,
          "name": "D6",
          "ticks": 50280,
          "time": 174.583054,
          "velocity": 1
        },
        {
          "duration": 0.8784708166666633,
          "durationTicks": 253,
          "midi": 84,
          "name": "C6",
          "ticks": 50360,
          "time": 174.86083133333332,
          "velocity": 1
        },
        {
          "duration": 0.27083289999998783,
          "durationTicks": 78,
          "midi": 81,
          "name": "A5",
          "ticks": 50640,
          "time": 175.83305199999998,
          "velocity": 1
        },
        {
          "duration": 0.11111093333332178,
          "durationTicks": 32,
          "midi": 79,
          "name": "G5",
          "ticks": 50720,
          "time": 176.11082933333333,
          "velocity": 1
        },
        {
          "duration": 0.27777733333331867,
          "durationTicks": 80,
          "midi": 77,
          "name": "F5",
          "ticks": 50760,
          "time": 176.249718,
          "velocity": 1
        },
        {
          "duration": 0.27083289999998783,
          "durationTicks": 78,
          "midi": 79,
          "name": "G5",
          "ticks": 50880,
          "time": 176.666384,
          "velocity": 1
        },
        {
          "duration": 0.2847217666666779,
          "durationTicks": 82,
          "midi": 79,
          "name": "G5",
          "ticks": 51000,
          "time": 177.08305,
          "velocity": 1
        },
        {
          "duration": 0.23611073333333366,
          "durationTicks": 68,
          "midi": 79,
          "name": "G5",
          "ticks": 51120,
          "time": 177.49971599999998,
          "velocity": 1
        },
        {
          "duration": 0.38194383333333803,
          "durationTicks": 110,
          "midi": 77,
          "name": "F5",
          "ticks": 51200,
          "time": 177.77749333333333,
          "velocity": 1
        },
        {
          "duration": 0.19444413333332022,
          "durationTicks": 56,
          "midi": 79,
          "name": "G5",
          "ticks": 51360,
          "time": 178.333048,
          "velocity": 1
        },
        {
          "duration": 0.2847217666666495,
          "durationTicks": 82,
          "midi": 81,
          "name": "A5",
          "ticks": 51440,
          "time": 178.61082533333334,
          "velocity": 1
        },
        {
          "duration": 0.42361043333332304,
          "durationTicks": 122,
          "midi": 74,
          "name": "D5",
          "ticks": 51560,
          "time": 179.02749133333333,
          "velocity": 1
        },
        {
          "duration": 0.19444413333332022,
          "durationTicks": 56,
          "midi": 86,
          "name": "D6",
          "ticks": 51720,
          "time": 179.583046,
          "velocity": 1
        },
        {
          "duration": 0.17013861666663388,
          "durationTicks": 49,
          "midi": 86,
          "name": "D6",
          "ticks": 51800,
          "time": 179.86082333333334,
          "velocity": 1
        },
        {
          "duration": 0.1701386166666623,
          "durationTicks": 49,
          "midi": 86,
          "name": "D6",
          "ticks": 52200,
          "time": 181.24971,
          "velocity": 1
        },
        {
          "duration": 0.9027763333333212,
          "durationTicks": 260,
          "midi": 84,
          "name": "C6",
          "ticks": 52280,
          "time": 181.52748733333334,
          "velocity": 1
        },
        {
          "duration": 0.38194383333333803,
          "durationTicks": 110,
          "midi": 81,
          "name": "A5",
          "ticks": 52560,
          "time": 182.499708,
          "velocity": 1
        },
        {
          "duration": 0.263888466666657,
          "durationTicks": 76,
          "midi": 79,
          "name": "G5",
          "ticks": 52680,
          "time": 182.916374,
          "velocity": 1
        },
        {
          "duration": 0.2430551666666645,
          "durationTicks": 70,
          "midi": 79,
          "name": "G5",
          "ticks": 52800,
          "time": 183.33303999999998,
          "velocity": 1
        },
        {
          "duration": 0.27083289999998783,
          "durationTicks": 78,
          "midi": 79,
          "name": "G5",
          "ticks": 52920,
          "time": 183.749706,
          "velocity": 1
        },
        {
          "duration": 0.35069388333332085,
          "durationTicks": 101,
          "midi": 79,
          "name": "G5",
          "ticks": 53040,
          "time": 184.166372,
          "velocity": 1
        },
        {
          "duration": 0.3229161499999975,
          "durationTicks": 93,
          "midi": 77,
          "name": "F5",
          "ticks": 53160,
          "time": 184.583038,
          "velocity": 1
        },
        {
          "duration": 0.2222218666667004,
          "durationTicks": 64,
          "midi": 79,
          "name": "G5",
          "ticks": 53280,
          "time": 184.99970399999998,
          "velocity": 1
        },
        {
          "duration": 0.21874965000000657,
          "durationTicks": 63,
          "midi": 81,
          "name": "A5",
          "ticks": 53360,
          "time": 185.27748133333333,
          "velocity": 1
        },
        {
          "duration": 0.3159717166666667,
          "durationTicks": 91,
          "midi": 79,
          "name": "G5",
          "ticks": 53480,
          "time": 185.69414733333332,
          "velocity": 1
        },
        {
          "duration": 0.14236088333333896,
          "durationTicks": 41,
          "midi": 86,
          "name": "D6",
          "ticks": 53640,
          "time": 186.24970199999998,
          "velocity": 1
        },
        {
          "duration": 0.2673606833333224,
          "durationTicks": 77,
          "midi": 86,
          "name": "D6",
          "ticks": 53720,
          "time": 186.52747933333333,
          "velocity": 1
        },
        {
          "duration": 0.10416650000001937,
          "durationTicks": 30,
          "midi": 86,
          "name": "D6",
          "ticks": 54120,
          "time": 187.91636599999998,
          "velocity": 1
        },
        {
          "duration": 0.8784708166666633,
          "durationTicks": 253,
          "midi": 84,
          "name": "C6",
          "ticks": 54200,
          "time": 188.19414333333333,
          "velocity": 1
        },
        {
          "duration": 0.2777773333333471,
          "durationTicks": 80,
          "midi": 81,
          "name": "A5",
          "ticks": 54480,
          "time": 189.166364,
          "velocity": 1
        },
        {
          "duration": 0.2465273833333299,
          "durationTicks": 71,
          "midi": 84,
          "name": "C6",
          "ticks": 54600,
          "time": 189.58302999999998,
          "velocity": 1
        },
        {
          "duration": 0.5243047166666486,
          "durationTicks": 151,
          "midi": 79,
          "name": "G5",
          "ticks": 54720,
          "time": 189.999696,
          "velocity": 1
        },
        {
          "duration": 0.26041625000002,
          "durationTicks": 75,
          "midi": 79,
          "name": "G5",
          "ticks": 54960,
          "time": 190.83302799999998,
          "velocity": 1
        },
        {
          "duration": 0.4583325999999772,
          "durationTicks": 132,
          "midi": 77,
          "name": "F5",
          "ticks": 55040,
          "time": 191.11080533333333,
          "velocity": 1
        },
        {
          "duration": 0.32638836666666293,
          "durationTicks": 94,
          "midi": 81,
          "name": "A5",
          "ticks": 55200,
          "time": 191.66636,
          "velocity": 1
        },
        {
          "duration": 0.2256940833333374,
          "durationTicks": 65,
          "midi": 79,
          "name": "G5",
          "ticks": 55320,
          "time": 192.083026,
          "velocity": 1
        },
        {
          "duration": 0.20138856666665106,
          "durationTicks": 58,
          "midi": 77,
          "name": "F5",
          "ticks": 55400,
          "time": 192.36080333333334,
          "velocity": 1
        },
        {
          "duration": 0.13541645000000813,
          "durationTicks": 39,
          "midi": 74,
          "name": "D5",
          "ticks": 55520,
          "time": 192.77746933333333,
          "velocity": 1
        },
        {
          "duration": 0.18055526666665855,
          "durationTicks": 52,
          "midi": 86,
          "name": "D6",
          "ticks": 55560,
          "time": 192.916358,
          "velocity": 1
        },
        {
          "duration": 1.2673590833333321,
          "durationTicks": 365,
          "midi": 86,
          "name": "D6",
          "ticks": 55640,
          "time": 193.19413533333332,
          "velocity": 1
        },
        {
          "duration": 0.1874996999999894,
          "durationTicks": 54,
          "midi": 86,
          "name": "D6",
          "ticks": 56040,
          "time": 194.583022,
          "velocity": 1
        },
        {
          "duration": 0.38888826666666887,
          "durationTicks": 112,
          "midi": 84,
          "name": "C6",
          "ticks": 56120,
          "time": 194.86079933333332,
          "velocity": 1
        },
        {
          "duration": 0.20138856666665106,
          "durationTicks": 58,
          "midi": 81,
          "name": "A5",
          "ticks": 56240,
          "time": 195.27746533333334,
          "velocity": 1
        },
        {
          "duration": 0.3993049166666651,
          "durationTicks": 115,
          "midi": 81,
          "name": "A5",
          "ticks": 56360,
          "time": 195.69413133333333,
          "velocity": 1
        },
        {
          "duration": 0.14236088333333896,
          "durationTicks": 41,
          "midi": 79,
          "name": "G5",
          "ticks": 56480,
          "time": 196.11079733333332,
          "velocity": 1
        },
        {
          "duration": 0.263888466666657,
          "durationTicks": 76,
          "midi": 77,
          "name": "F5",
          "ticks": 56520,
          "time": 196.249686,
          "velocity": 1
        },
        {
          "duration": 0.2673606833333224,
          "durationTicks": 77,
          "midi": 79,
          "name": "G5",
          "ticks": 56640,
          "time": 196.666352,
          "velocity": 1
        },
        {
          "duration": 0.26041625000002,
          "durationTicks": 75,
          "midi": 79,
          "name": "G5",
          "ticks": 56760,
          "time": 197.08301799999998,
          "velocity": 1
        },
        {
          "duration": 0.25694403333332616,
          "durationTicks": 74,
          "midi": 79,
          "name": "G5",
          "ticks": 56880,
          "time": 197.499684,
          "velocity": 1
        },
        {
          "duration": 0.10416650000001937,
          "durationTicks": 30,
          "midi": 77,
          "name": "F5",
          "ticks": 56960,
          "time": 197.77746133333332,
          "velocity": 1
        },
        {
          "duration": 0.20138856666667948,
          "durationTicks": 58,
          "midi": 79,
          "name": "G5",
          "ticks": 57000,
          "time": 197.91635,
          "velocity": 1
        },
        {
          "duration": 0.1874996999999894,
          "durationTicks": 54,
          "midi": 81,
          "name": "A5",
          "ticks": 57120,
          "time": 198.333016,
          "velocity": 1
        },
        {
          "duration": 0.24999959999999533,
          "durationTicks": 72,
          "midi": 84,
          "name": "C6",
          "ticks": 57200,
          "time": 198.61079333333333,
          "velocity": 1
        },
        {
          "duration": 0.3715271833333418,
          "durationTicks": 107,
          "midi": 81,
          "name": "A5",
          "ticks": 57320,
          "time": 199.02745933333333,
          "velocity": 1
        },
        {
          "duration": 0.14236088333331054,
          "durationTicks": 41,
          "midi": 86,
          "name": "D6",
          "ticks": 57480,
          "time": 199.583014,
          "velocity": 1
        },
        {
          "duration": 0.20138856666665106,
          "durationTicks": 58,
          "midi": 86,
          "name": "D6",
          "ticks": 57560,
          "time": 199.86079133333334,
          "velocity": 1
        }
      ]
    },
    {
      "channel": 0,
      "controlChanges": {
        "0": [
          {
            "number": 0,
            "ticks": 0,
            "time": 0,
            "value": 0
          }
        ],
        "7": [
          {
            "number": 7,
            "ticks": 0,
            "time": 0,
            "value": 0.84251968503937
          }
        ],
        "10": [
          {
            "number": 10,
            "ticks": 0,
            "time": 0,
            "value": 0
          }
        ],
        "32": [
          {
            "number": 32,
            "ticks": 0,
            "time": 0,
            "value": 0
          }
        ],
        "91": [
          {
            "number": 91,
            "ticks": 0,
            "time": 0,
            "value": 0.5275590551181102
          }
        ],
        "93": [
          {
            "number": 93,
            "ticks": 0,
            "time": 0,
            "value": 0.5275590551181102
          }
        ]
      },
      "pitchBends": [],
      "instrument": {
        "family": "piano",
        "number": 0,
        "name": "acoustic grand piano"
      },
      "name": "",
      "notes": [],
      "endOfTrackTicks": 57618
    },
    {
      "channel": 7,
      "controlChanges": {
        "64": [
          {
            "number": 64,
            "ticks": 21,
            "time": 0.07291655,
            "value": 0
          },
          {
            "number": 64,
            "ticks": 5685,
            "time": 19.73955175,
            "value": 1
          },
          {
            "number": 64,
            "ticks": 5716,
            "time": 19.847190466666664,
            "value": 0
          },
          {
            "number": 64,
            "ticks": 17205,
            "time": 59.739487749999995,
            "value": 1
          },
          {
            "number": 64,
            "ticks": 17236,
            "time": 59.84712646666666,
            "value": 0
          }
        ]
      },
      "pitchBends": [],
      "instrument": {
        "family": "synth lead",
        "number": 85,
        "name": "lead 6 (voice)"
      },
      "name": "",
      "notes": [
        {
          "duration": 0.2256940833333303,
          "durationTicks": 65,
          "midi": 74,
          "name": "D5",
          "ticks": 4800,
          "time": 16.66664,
          "velocity": 1
        },
        {
          "duration": 0.2256940833333374,
          "durationTicks": 65,
          "midi": 76,
          "name": "E5",
          "ticks": 4880,
          "time": 16.94441733333333,
          "velocity": 1
        },
        {
          "duration": 0.2638884666666641,
          "durationTicks": 76,
          "midi": 77,
          "name": "F5",
          "ticks": 5000,
          "time": 17.361083333333333,
          "velocity": 1
        },
        {
          "duration": 0.2986106333333325,
          "durationTicks": 86,
          "midi": 79,
          "name": "G5",
          "ticks": 5120,
          "time": 17.777749333333333,
          "velocity": 1
        },
        {
          "duration": 0.3194439333333321,
          "durationTicks": 92,
          "midi": 81,
          "name": "A5",
          "ticks": 5240,
          "time": 18.194415333333332,
          "velocity": 1
        },
        {
          "duration": 0.23263851666666824,
          "durationTicks": 67,
          "midi": 79,
          "name": "G5",
          "ticks": 5360,
          "time": 18.61108133333333,
          "velocity": 1
        },
        {
          "duration": 0.29513841666666707,
          "durationTicks": 85,
          "midi": 77,
          "name": "F5",
          "ticks": 5480,
          "time": 19.02774733333333,
          "velocity": 1
        },
        {
          "duration": 0.4965269833333359,
          "durationTicks": 143,
          "midi": 76,
          "name": "E5",
          "ticks": 5600,
          "time": 19.44441333333333,
          "velocity": 1
        },
        {
          "duration": 0.25694403333333327,
          "durationTicks": 74,
          "midi": 74,
          "name": "D5",
          "ticks": 5760,
          "time": 19.999968,
          "velocity": 1
        },
        {
          "duration": 0.23611073333333366,
          "durationTicks": 68,
          "midi": 76,
          "name": "E5",
          "ticks": 5840,
          "time": 20.277745333333332,
          "velocity": 1
        },
        {
          "duration": 0.26388846666666765,
          "durationTicks": 76,
          "midi": 77,
          "name": "F5",
          "ticks": 5960,
          "time": 20.69441133333333,
          "velocity": 1
        },
        {
          "duration": 0.20138856666666882,
          "durationTicks": 58,
          "midi": 76,
          "name": "E5",
          "ticks": 6080,
          "time": 21.11107733333333,
          "velocity": 1
        },
        {
          "duration": 1.6701362166666662,
          "durationTicks": 481,
          "midi": 74,
          "name": "D5",
          "ticks": 6200,
          "time": 21.52774333333333,
          "velocity": 1
        },
        {
          "duration": 0.13888866666666644,
          "durationTicks": 40,
          "midi": 72,
          "name": "C5",
          "ticks": 6680,
          "time": 23.19440733333333,
          "velocity": 1
        },
        {
          "duration": 0.26736068333333307,
          "durationTicks": 77,
          "midi": 74,
          "name": "D5",
          "ticks": 6720,
          "time": 23.333295999999997,
          "velocity": 1
        },
        {
          "duration": 0.22222186666666843,
          "durationTicks": 64,
          "midi": 76,
          "name": "E5",
          "ticks": 6800,
          "time": 23.61107333333333,
          "velocity": 1
        },
        {
          "duration": 0.2152774333333305,
          "durationTicks": 62,
          "midi": 77,
          "name": "F5",
          "ticks": 6920,
          "time": 24.027739333333333,
          "velocity": 1
        },
        {
          "duration": 0.3645827500000003,
          "durationTicks": 105,
          "midi": 79,
          "name": "G5",
          "ticks": 7040,
          "time": 24.444405333333332,
          "velocity": 1
        },
        {
          "duration": 0.31249950000000126,
          "durationTicks": 90,
          "midi": 81,
          "name": "A5",
          "ticks": 7160,
          "time": 24.86107133333333,
          "velocity": 1
        },
        {
          "duration": 0.22916630000000282,
          "durationTicks": 66,
          "midi": 79,
          "name": "G5",
          "ticks": 7280,
          "time": 25.27773733333333,
          "velocity": 1
        },
        {
          "duration": 0.3159717166666667,
          "durationTicks": 91,
          "midi": 77,
          "name": "F5",
          "ticks": 7400,
          "time": 25.69440333333333,
          "velocity": 1
        },
        {
          "duration": 0.5243047166666699,
          "durationTicks": 151,
          "midi": 76,
          "name": "E5",
          "ticks": 7520,
          "time": 26.11106933333333,
          "velocity": 1
        },
        {
          "duration": 0.19097191666666546,
          "durationTicks": 55,
          "midi": 74,
          "name": "D5",
          "ticks": 7680,
          "time": 26.666624,
          "velocity": 1
        },
        {
          "duration": 0.2638884666666641,
          "durationTicks": 76,
          "midi": 76,
          "name": "E5",
          "ticks": 7760,
          "time": 26.944401333333335,
          "velocity": 1
        },
        {
          "duration": 0.26736068333333307,
          "durationTicks": 77,
          "midi": 77,
          "name": "F5",
          "ticks": 7880,
          "time": 27.361067333333335,
          "velocity": 1
        },
        {
          "duration": 0.23958294999999552,
          "durationTicks": 69,
          "midi": 79,
          "name": "G5",
          "ticks": 8000,
          "time": 27.777733333333334,
          "velocity": 1
        },
        {
          "duration": 1.465275433333332,
          "durationTicks": 422,
          "midi": 74,
          "name": "D5",
          "ticks": 8120,
          "time": 28.194399333333333,
          "velocity": 1
        },
        {
          "duration": 0.2743051166666639,
          "durationTicks": 79,
          "midi": 74,
          "name": "D5",
          "ticks": 8640,
          "time": 29.999952,
          "velocity": 1
        },
        {
          "duration": 0.23263851666666469,
          "durationTicks": 67,
          "midi": 76,
          "name": "E5",
          "ticks": 8720,
          "time": 30.277729333333333,
          "velocity": 1
        },
        {
          "duration": 0.22222186666666843,
          "durationTicks": 64,
          "midi": 77,
          "name": "F5",
          "ticks": 8840,
          "time": 30.694395333333333,
          "velocity": 1
        },
        {
          "duration": 0.22916629999999572,
          "durationTicks": 66,
          "midi": 79,
          "name": "G5",
          "ticks": 8960,
          "time": 31.111061333333335,
          "velocity": 1
        },
        {
          "duration": 0.36805496666666215,
          "durationTicks": 106,
          "midi": 81,
          "name": "A5",
          "ticks": 9080,
          "time": 31.527727333333335,
          "velocity": 1
        },
        {
          "duration": 0.24305516666666094,
          "durationTicks": 70,
          "midi": 82,
          "name": "A#5",
          "ticks": 9200,
          "time": 31.944393333333334,
          "velocity": 1
        },
        {
          "duration": 0.9131929833333317,
          "durationTicks": 263,
          "midi": 81,
          "name": "A5",
          "ticks": 9320,
          "time": 32.36105933333334,
          "velocity": 1
        },
        {
          "duration": 0.25347181666666074,
          "durationTicks": 73,
          "midi": 74,
          "name": "D5",
          "ticks": 9600,
          "time": 33.33328,
          "velocity": 1
        },
        {
          "duration": 0.23263851666666113,
          "durationTicks": 67,
          "midi": 76,
          "name": "E5",
          "ticks": 9680,
          "time": 33.611057333333335,
          "velocity": 1
        },
        {
          "duration": 0.21527743333333405,
          "durationTicks": 62,
          "midi": 77,
          "name": "F5",
          "ticks": 9800,
          "time": 34.027723333333334,
          "velocity": 1
        },
        {
          "duration": 0.19444413333333443,
          "durationTicks": 56,
          "midi": 79,
          "name": "G5",
          "ticks": 9920,
          "time": 34.44438933333333,
          "velocity": 1
        },
        {
          "duration": 0.3611105333333313,
          "durationTicks": 104,
          "midi": 81,
          "name": "A5",
          "ticks": 10040,
          "time": 34.86105533333333,
          "velocity": 1
        },
        {
          "duration": 0.21874964999999946,
          "durationTicks": 63,
          "midi": 82,
          "name": "A#5",
          "ticks": 10160,
          "time": 35.27772133333333,
          "velocity": 1
        },
        {
          "duration": 0.3715271833333347,
          "durationTicks": 107,
          "midi": 81,
          "name": "A5",
          "ticks": 10280,
          "time": 35.69438733333333,
          "velocity": 1
        },
        {
          "duration": 0.15624975000000063,
          "durationTicks": 45,
          "midi": 86,
          "name": "D6",
          "ticks": 10440,
          "time": 36.249942,
          "velocity": 1
        },
        {
          "duration": 0.22222186666667199,
          "durationTicks": 64,
          "midi": 86,
          "name": "D6",
          "ticks": 10520,
          "time": 36.52771933333333,
          "velocity": 1
        },
        {
          "duration": 0.1493053166666627,
          "durationTicks": 43,
          "midi": 86,
          "name": "D6",
          "ticks": 10920,
          "time": 37.916606,
          "velocity": 1
        },
        {
          "duration": 0.9444429333333346,
          "durationTicks": 272,
          "midi": 84,
          "name": "C6",
          "ticks": 11000,
          "time": 38.194383333333334,
          "velocity": 1
        },
        {
          "duration": 0.3402772333333317,
          "durationTicks": 98,
          "midi": 81,
          "name": "A5",
          "ticks": 11280,
          "time": 39.166604,
          "velocity": 1
        },
        {
          "duration": 0.3541661000000005,
          "durationTicks": 102,
          "midi": 84,
          "name": "C6",
          "ticks": 11400,
          "time": 39.58327,
          "velocity": 1
        },
        {
          "duration": 0.8020820499999957,
          "durationTicks": 231,
          "midi": 79,
          "name": "G5",
          "ticks": 11520,
          "time": 39.999936,
          "velocity": 1
        },
        {
          "duration": 0.32986058333333546,
          "durationTicks": 95,
          "midi": 79,
          "name": "G5",
          "ticks": 11760,
          "time": 40.833268,
          "velocity": 1
        },
        {
          "duration": 0.3368050166666734,
          "durationTicks": 97,
          "midi": 77,
          "name": "F5",
          "ticks": 11880,
          "time": 41.249933999999996,
          "velocity": 1
        },
        {
          "duration": 0.35069388333333507,
          "durationTicks": 101,
          "midi": 79,
          "name": "G5",
          "ticks": 12000,
          "time": 41.666599999999995,
          "velocity": 1
        },
        {
          "duration": 0.22222186666667199,
          "durationTicks": 64,
          "midi": 81,
          "name": "A5",
          "ticks": 12120,
          "time": 42.083265999999995,
          "velocity": 1
        },
        {
          "duration": 0.510415849999994,
          "durationTicks": 147,
          "midi": 79,
          "name": "G5",
          "ticks": 12200,
          "time": 42.361043333333335,
          "velocity": 1
        },
        {
          "duration": 0.18402748333333108,
          "durationTicks": 53,
          "midi": 86,
          "name": "D6",
          "ticks": 12360,
          "time": 42.916598,
          "velocity": 1
        },
        {
          "duration": 0.3194439333333321,
          "durationTicks": 92,
          "midi": 86,
          "name": "D6",
          "ticks": 12440,
          "time": 43.19437533333333,
          "velocity": 1
        },
        {
          "duration": 0.19791634999999985,
          "durationTicks": 57,
          "midi": 86,
          "name": "D6",
          "ticks": 12840,
          "time": 44.583262,
          "velocity": 1
        },
        {
          "duration": 0.9722206666666651,
          "durationTicks": 280,
          "midi": 84,
          "name": "C6",
          "ticks": 12920,
          "time": 44.86103933333333,
          "velocity": 1
        },
        {
          "duration": 0.4166659999999993,
          "durationTicks": 120,
          "midi": 81,
          "name": "A5",
          "ticks": 13200,
          "time": 45.833259999999996,
          "velocity": 1
        },
        {
          "duration": 0.27083290000000204,
          "durationTicks": 78,
          "midi": 79,
          "name": "G5",
          "ticks": 13320,
          "time": 46.249925999999995,
          "velocity": 1
        },
        {
          "duration": 0.14236088333333186,
          "durationTicks": 41,
          "midi": 77,
          "name": "F5",
          "ticks": 13400,
          "time": 46.527703333333335,
          "velocity": 1
        },
        {
          "duration": 0.29513841666666707,
          "durationTicks": 85,
          "midi": 79,
          "name": "G5",
          "ticks": 13440,
          "time": 46.666591999999994,
          "velocity": 1
        },
        {
          "duration": 0.24999959999999533,
          "durationTicks": 72,
          "midi": 79,
          "name": "G5",
          "ticks": 13560,
          "time": 47.083258,
          "velocity": 1
        },
        {
          "duration": 0.2083329999999961,
          "durationTicks": 60,
          "midi": 79,
          "name": "G5",
          "ticks": 13680,
          "time": 47.499924,
          "velocity": 1
        },
        {
          "duration": 0.5312491499999936,
          "durationTicks": 153,
          "midi": 77,
          "name": "F5",
          "ticks": 13760,
          "time": 47.77770133333333,
          "velocity": 1
        },
        {
          "duration": 0.38194383333333093,
          "durationTicks": 110,
          "midi": 81,
          "name": "A5",
          "ticks": 13920,
          "time": 48.333256,
          "velocity": 1
        },
        {
          "duration": 0.23263851666666824,
          "durationTicks": 67,
          "midi": 81,
          "name": "A5",
          "ticks": 14040,
          "time": 48.749922,
          "velocity": 1
        },
        {
          "duration": 0.2256940833333303,
          "durationTicks": 65,
          "midi": 74,
          "name": "D5",
          "ticks": 16320,
          "time": 56.666576,
          "velocity": 1
        },
        {
          "duration": 0.2256940833333445,
          "durationTicks": 65,
          "midi": 76,
          "name": "E5",
          "ticks": 16400,
          "time": 56.944353333333325,
          "velocity": 1
        },
        {
          "duration": 0.2638884666666783,
          "durationTicks": 76,
          "midi": 77,
          "name": "F5",
          "ticks": 16520,
          "time": 57.361019333333324,
          "velocity": 1
        },
        {
          "duration": 0.2986106333333396,
          "durationTicks": 86,
          "midi": 79,
          "name": "G5",
          "ticks": 16640,
          "time": 57.777685333333324,
          "velocity": 1
        },
        {
          "duration": 0.3194439333333321,
          "durationTicks": 92,
          "midi": 81,
          "name": "A5",
          "ticks": 16760,
          "time": 58.19435133333333,
          "velocity": 1
        },
        {
          "duration": 0.23263851666666824,
          "durationTicks": 67,
          "midi": 79,
          "name": "G5",
          "ticks": 16880,
          "time": 58.61101733333333,
          "velocity": 1
        },
        {
          "duration": 0.29513841666666707,
          "durationTicks": 85,
          "midi": 77,
          "name": "F5",
          "ticks": 17000,
          "time": 59.02768333333333,
          "velocity": 1
        },
        {
          "duration": 0.49652698333333234,
          "durationTicks": 143,
          "midi": 76,
          "name": "E5",
          "ticks": 17120,
          "time": 59.44434933333333,
          "velocity": 1
        },
        {
          "duration": 0.25694403333333327,
          "durationTicks": 74,
          "midi": 74,
          "name": "D5",
          "ticks": 17280,
          "time": 59.999904,
          "velocity": 1
        },
        {
          "duration": 0.23611073333333366,
          "durationTicks": 68,
          "midi": 76,
          "name": "E5",
          "ticks": 17360,
          "time": 60.27768133333333,
          "velocity": 1
        },
        {
          "duration": 0.2638884666666783,
          "durationTicks": 76,
          "midi": 77,
          "name": "F5",
          "ticks": 17480,
          "time": 60.694347333333326,
          "velocity": 1
        },
        {
          "duration": 0.20138856666667238,
          "durationTicks": 58,
          "midi": 76,
          "name": "E5",
          "ticks": 17600,
          "time": 61.111013333333325,
          "velocity": 1
        },
        {
          "duration": 1.6701362166666769,
          "durationTicks": 481,
          "midi": 74,
          "name": "D5",
          "ticks": 17720,
          "time": 61.527679333333325,
          "velocity": 1
        },
        {
          "duration": 0.13888866666666644,
          "durationTicks": 40,
          "midi": 72,
          "name": "C5",
          "ticks": 18200,
          "time": 63.19434333333333,
          "velocity": 1
        },
        {
          "duration": 0.26736068333334373,
          "durationTicks": 77,
          "midi": 74,
          "name": "D5",
          "ticks": 18240,
          "time": 63.333231999999995,
          "velocity": 1
        },
        {
          "duration": 0.22222186666666488,
          "durationTicks": 64,
          "midi": 76,
          "name": "E5",
          "ticks": 18320,
          "time": 63.61100933333333,
          "velocity": 1
        },
        {
          "duration": 0.21527743333334115,
          "durationTicks": 62,
          "midi": 77,
          "name": "F5",
          "ticks": 18440,
          "time": 64.02767533333332,
          "velocity": 1
        },
        {
          "duration": 0.36458274999999674,
          "durationTicks": 105,
          "midi": 79,
          "name": "G5",
          "ticks": 18560,
          "time": 64.44434133333333,
          "velocity": 1
        },
        {
          "duration": 0.31249949999998705,
          "durationTicks": 90,
          "midi": 81,
          "name": "A5",
          "ticks": 18680,
          "time": 64.86100733333333,
          "velocity": 1
        },
        {
          "duration": 0.22916630000000282,
          "durationTicks": 66,
          "midi": 79,
          "name": "G5",
          "ticks": 18800,
          "time": 65.27767333333333,
          "velocity": 1
        },
        {
          "duration": 0.3159717166666667,
          "durationTicks": 91,
          "midi": 77,
          "name": "F5",
          "ticks": 18920,
          "time": 65.69433933333333,
          "velocity": 1
        },
        {
          "duration": 0.524304716666677,
          "durationTicks": 151,
          "midi": 76,
          "name": "E5",
          "ticks": 19040,
          "time": 66.11100533333332,
          "velocity": 1
        },
        {
          "duration": 0.19097191666666902,
          "durationTicks": 55,
          "midi": 74,
          "name": "D5",
          "ticks": 19200,
          "time": 66.66656,
          "velocity": 1
        },
        {
          "duration": 0.2638884666666854,
          "durationTicks": 76,
          "midi": 76,
          "name": "E5",
          "ticks": 19280,
          "time": 66.94433733333332,
          "velocity": 1
        },
        {
          "duration": 0.2673606833333366,
          "durationTicks": 77,
          "midi": 77,
          "name": "F5",
          "ticks": 19400,
          "time": 67.36100333333333,
          "velocity": 1
        },
        {
          "duration": 0.23958295000001328,
          "durationTicks": 69,
          "midi": 79,
          "name": "G5",
          "ticks": 19520,
          "time": 67.77766933333332,
          "velocity": 1
        },
        {
          "duration": 1.465275433333332,
          "durationTicks": 422,
          "midi": 74,
          "name": "D5",
          "ticks": 19640,
          "time": 68.19433533333333,
          "velocity": 1
        },
        {
          "duration": 0.27430511666666746,
          "durationTicks": 79,
          "midi": 74,
          "name": "D5",
          "ticks": 20160,
          "time": 69.999888,
          "velocity": 1
        },
        {
          "duration": 0.23263851666666824,
          "durationTicks": 67,
          "midi": 76,
          "name": "E5",
          "ticks": 20240,
          "time": 70.27766533333333,
          "velocity": 1
        },
        {
          "duration": 0.22222186666667199,
          "durationTicks": 64,
          "midi": 77,
          "name": "F5",
          "ticks": 20360,
          "time": 70.69433133333332,
          "velocity": 1
        },
        {
          "duration": 0.22916630000000282,
          "durationTicks": 66,
          "midi": 79,
          "name": "G5",
          "ticks": 20480,
          "time": 71.11099733333333,
          "velocity": 1
        },
        {
          "duration": 0.36805496666667636,
          "durationTicks": 106,
          "midi": 81,
          "name": "A5",
          "ticks": 20600,
          "time": 71.52766333333332,
          "velocity": 1
        },
        {
          "duration": 0.2430551666666645,
          "durationTicks": 70,
          "midi": 82,
          "name": "A#5",
          "ticks": 20720,
          "time": 71.94432933333333,
          "velocity": 1
        },
        {
          "duration": 0.9131929833333317,
          "durationTicks": 263,
          "midi": 81,
          "name": "A5",
          "ticks": 20840,
          "time": 72.36099533333332,
          "velocity": 1
        },
        {
          "duration": 0.25347181666666074,
          "durationTicks": 73,
          "midi": 74,
          "name": "D5",
          "ticks": 21120,
          "time": 73.333216,
          "velocity": 1
        },
        {
          "duration": 0.23263851666666824,
          "durationTicks": 67,
          "midi": 76,
          "name": "E5",
          "ticks": 21200,
          "time": 73.61099333333333,
          "velocity": 1
        },
        {
          "duration": 0.21527743333332694,
          "durationTicks": 62,
          "midi": 77,
          "name": "F5",
          "ticks": 21320,
          "time": 74.02765933333333,
          "velocity": 1
        },
        {
          "duration": 0.19444413333333443,
          "durationTicks": 56,
          "midi": 79,
          "name": "G5",
          "ticks": 21440,
          "time": 74.44432533333332,
          "velocity": 1
        },
        {
          "duration": 0.3611105333333313,
          "durationTicks": 104,
          "midi": 81,
          "name": "A5",
          "ticks": 21560,
          "time": 74.86099133333333,
          "velocity": 1
        },
        {
          "duration": 0.21874965000000657,
          "durationTicks": 63,
          "midi": 82,
          "name": "A#5",
          "ticks": 21680,
          "time": 75.27765733333332,
          "velocity": 1
        },
        {
          "duration": 1.6215251833333326,
          "durationTicks": 467,
          "midi": 81,
          "name": "A5",
          "ticks": 21800,
          "time": 75.69432333333333,
          "velocity": 1
        },
        {
          "duration": 0.11111093333333599,
          "durationTicks": 32,
          "midi": 86,
          "name": "D6",
          "ticks": 22440,
          "time": 77.91654199999999,
          "velocity": 1
        },
        {
          "duration": 0.15972196666668026,
          "durationTicks": 46,
          "midi": 86,
          "name": "D6",
          "ticks": 22520,
          "time": 78.19431933333333,
          "velocity": 1
        },
        {
          "duration": 0.1493053166666698,
          "durationTicks": 43,
          "midi": 86,
          "name": "D6",
          "ticks": 22920,
          "time": 79.58320599999999,
          "velocity": 1
        },
        {
          "duration": 0.9444429333333488,
          "durationTicks": 272,
          "midi": 84,
          "name": "C6",
          "ticks": 23000,
          "time": 79.86098333333332,
          "velocity": 1
        },
        {
          "duration": 0.3402772333333388,
          "durationTicks": 98,
          "midi": 81,
          "name": "A5",
          "ticks": 23280,
          "time": 80.833204,
          "velocity": 1
        },
        {
          "duration": 0.3541660999999863,
          "durationTicks": 102,
          "midi": 84,
          "name": "C6",
          "ticks": 23400,
          "time": 81.24987,
          "velocity": 1
        },
        {
          "duration": 0.8020820500000099,
          "durationTicks": 231,
          "midi": 79,
          "name": "G5",
          "ticks": 23520,
          "time": 81.666536,
          "velocity": 1
        },
        {
          "duration": 0.32986058333332835,
          "durationTicks": 95,
          "midi": 79,
          "name": "G5",
          "ticks": 23760,
          "time": 82.49986799999999,
          "velocity": 1
        },
        {
          "duration": 0.3368050166666592,
          "durationTicks": 97,
          "midi": 77,
          "name": "F5",
          "ticks": 23880,
          "time": 82.916534,
          "velocity": 1
        },
        {
          "duration": 0.35069388333333507,
          "durationTicks": 101,
          "midi": 79,
          "name": "G5",
          "ticks": 24000,
          "time": 83.33319999999999,
          "velocity": 1
        },
        {
          "duration": 0.22222186666665777,
          "durationTicks": 64,
          "midi": 81,
          "name": "A5",
          "ticks": 24120,
          "time": 83.749866,
          "velocity": 1
        },
        {
          "duration": 0.5104158500000011,
          "durationTicks": 147,
          "midi": 79,
          "name": "G5",
          "ticks": 24200,
          "time": 84.02764333333333,
          "velocity": 1
        },
        {
          "duration": 0.18402748333333818,
          "durationTicks": 53,
          "midi": 86,
          "name": "D6",
          "ticks": 24360,
          "time": 84.583198,
          "velocity": 1
        },
        {
          "duration": 0.3194439333333321,
          "durationTicks": 92,
          "midi": 86,
          "name": "D6",
          "ticks": 24440,
          "time": 84.86097533333333,
          "velocity": 1
        },
        {
          "duration": 0.19791634999999985,
          "durationTicks": 57,
          "midi": 86,
          "name": "D6",
          "ticks": 24840,
          "time": 86.249862,
          "velocity": 1
        },
        {
          "duration": 0.9722206666666722,
          "durationTicks": 280,
          "midi": 84,
          "name": "C6",
          "ticks": 24920,
          "time": 86.52763933333333,
          "velocity": 1
        },
        {
          "duration": 0.4166659999999922,
          "durationTicks": 120,
          "midi": 81,
          "name": "A5",
          "ticks": 25200,
          "time": 87.49986,
          "velocity": 1
        },
        {
          "duration": 0.27083290000000204,
          "durationTicks": 78,
          "midi": 79,
          "name": "G5",
          "ticks": 25320,
          "time": 87.91652599999999,
          "velocity": 1
        },
        {
          "duration": 0.14236088333333896,
          "durationTicks": 41,
          "midi": 77,
          "name": "F5",
          "ticks": 25400,
          "time": 88.19430333333332,
          "velocity": 1
        },
        {
          "duration": 0.2951384166666742,
          "durationTicks": 85,
          "midi": 79,
          "name": "G5",
          "ticks": 25440,
          "time": 88.333192,
          "velocity": 1
        },
        {
          "duration": 0.24999960000000954,
          "durationTicks": 72,
          "midi": 79,
          "name": "G5",
          "ticks": 25560,
          "time": 88.74985799999999,
          "velocity": 1
        },
        {
          "duration": 0.2083329999999961,
          "durationTicks": 60,
          "midi": 79,
          "name": "G5",
          "ticks": 25680,
          "time": 89.166524,
          "velocity": 1
        },
        {
          "duration": 0.5312491499999936,
          "durationTicks": 153,
          "midi": 77,
          "name": "F5",
          "ticks": 25760,
          "time": 89.44430133333333,
          "velocity": 1
        },
        {
          "duration": 0.38194383333333803,
          "durationTicks": 110,
          "midi": 81,
          "name": "A5",
          "ticks": 25920,
          "time": 89.999856,
          "velocity": 1
        },
        {
          "duration": 0.23263851666666824,
          "durationTicks": 67,
          "midi": 81,
          "name": "A5",
          "ticks": 26040,
          "time": 90.416522,
          "velocity": 1
        },
        {
          "duration": 0.40277713333333054,
          "durationTicks": 116,
          "midi": 83,
          "name": "B5",
          "ticks": 27360,
          "time": 94.999848,
          "velocity": 1
        },
        {
          "duration": 0.4687492500000019,
          "durationTicks": 135,
          "midi": 79,
          "name": "G5",
          "ticks": 27480,
          "time": 95.41651399999999,
          "velocity": 1
        },
        {
          "duration": 0.38541605000000345,
          "durationTicks": 111,
          "midi": 76,
          "name": "E5",
          "ticks": 27600,
          "time": 95.83318,
          "velocity": 1
        },
        {
          "duration": 0.38888826666666887,
          "durationTicks": 112,
          "midi": 83,
          "name": "B5",
          "ticks": 27720,
          "time": 96.24984599999999,
          "velocity": 1
        },
        {
          "duration": 0.47916589999999815,
          "durationTicks": 138,
          "midi": 79,
          "name": "G5",
          "ticks": 27840,
          "time": 96.666512,
          "velocity": 1
        },
        {
          "duration": 0.27083290000000204,
          "durationTicks": 78,
          "midi": 76,
          "name": "E5",
          "ticks": 27960,
          "time": 97.08317799999999,
          "velocity": 1
        },
        {
          "duration": 0.4097215666666756,
          "durationTicks": 118,
          "midi": 83,
          "name": "B5",
          "ticks": 28040,
          "time": 97.36095533333332,
          "velocity": 1
        },
        {
          "duration": 0.18402748333332397,
          "durationTicks": 53,
          "midi": 79,
          "name": "G5",
          "ticks": 28160,
          "time": 97.77762133333333,
          "velocity": 1
        },
        {
          "duration": 0.38541605000000345,
          "durationTicks": 111,
          "midi": 76,
          "name": "E5",
          "ticks": 28200,
          "time": 97.91651,
          "velocity": 1
        },
        {
          "duration": 0.32638836666666293,
          "durationTicks": 94,
          "midi": 81,
          "name": "A5",
          "ticks": 28320,
          "time": 98.333176,
          "velocity": 1
        },
        {
          "duration": 0.374999399999993,
          "durationTicks": 108,
          "midi": 78,
          "name": "F#5",
          "ticks": 28440,
          "time": 98.749842,
          "velocity": 1
        },
        {
          "duration": 0.40624934999999596,
          "durationTicks": 117,
          "midi": 74,
          "name": "D5",
          "ticks": 28560,
          "time": 99.166508,
          "velocity": 1
        },
        {
          "duration": 0.40624934999999596,
          "durationTicks": 117,
          "midi": 81,
          "name": "A5",
          "ticks": 28680,
          "time": 99.583174,
          "velocity": 1
        },
        {
          "duration": 0.42361043333333726,
          "durationTicks": 122,
          "midi": 74,
          "name": "D5",
          "ticks": 28800,
          "time": 99.99983999999999,
          "velocity": 1
        },
        {
          "duration": 0.836804216666664,
          "durationTicks": 241,
          "midi": 78,
          "name": "F#5",
          "ticks": 28920,
          "time": 100.416506,
          "velocity": 1
        },
        {
          "duration": 0.3784716166666726,
          "durationTicks": 109,
          "midi": 83,
          "name": "B5",
          "ticks": 29280,
          "time": 101.66650399999999,
          "velocity": 1
        },
        {
          "duration": 0.44097151666666434,
          "durationTicks": 127,
          "midi": 79,
          "name": "G5",
          "ticks": 29400,
          "time": 102.08317,
          "velocity": 1
        },
        {
          "duration": 0.4097215666666614,
          "durationTicks": 118,
          "midi": 76,
          "name": "E5",
          "ticks": 29520,
          "time": 102.499836,
          "velocity": 1
        },
        {
          "duration": 0.3819438333333238,
          "durationTicks": 110,
          "midi": 83,
          "name": "B5",
          "ticks": 29640,
          "time": 102.916502,
          "velocity": 1
        },
        {
          "duration": 0.486110333333329,
          "durationTicks": 140,
          "midi": 79,
          "name": "G5",
          "ticks": 29760,
          "time": 103.333168,
          "velocity": 1
        },
        {
          "duration": 0.3784716166666726,
          "durationTicks": 109,
          "midi": 76,
          "name": "E5",
          "ticks": 29880,
          "time": 103.74983399999999,
          "velocity": 1
        },
        {
          "duration": 0.29166619999999455,
          "durationTicks": 84,
          "midi": 83,
          "name": "B5",
          "ticks": 30000,
          "time": 104.1665,
          "velocity": 1
        },
        {
          "duration": 0.19444413333333443,
          "durationTicks": 56,
          "midi": 79,
          "name": "G5",
          "ticks": 30080,
          "time": 104.44427733333332,
          "velocity": 1
        },
        {
          "duration": 0.38194383333333803,
          "durationTicks": 110,
          "midi": 76,
          "name": "E5",
          "ticks": 30120,
          "time": 104.58316599999999,
          "velocity": 1
        },
        {
          "duration": 0.4340270833333335,
          "durationTicks": 125,
          "midi": 81,
          "name": "A5",
          "ticks": 30240,
          "time": 104.999832,
          "velocity": 1
        },
        {
          "duration": 0.5173602833333462,
          "durationTicks": 149,
          "midi": 78,
          "name": "F#5",
          "ticks": 30360,
          "time": 105.41649799999999,
          "velocity": 1
        },
        {
          "duration": 0.8124986999999919,
          "durationTicks": 234,
          "midi": 74,
          "name": "D5",
          "ticks": 30480,
          "time": 105.833164,
          "velocity": 1
        },
        {
          "duration": 0.36805496666666215,
          "durationTicks": 106,
          "midi": 81,
          "name": "A5",
          "ticks": 31200,
          "time": 108.33315999999999,
          "velocity": 1
        },
        {
          "duration": 0.3958326999999855,
          "durationTicks": 114,
          "midi": 77,
          "name": "F5",
          "ticks": 31320,
          "time": 108.749826,
          "velocity": 1
        },
        {
          "duration": 0.374999399999993,
          "durationTicks": 108,
          "midi": 72,
          "name": "C5",
          "ticks": 31440,
          "time": 109.16649199999999,
          "velocity": 1
        },
        {
          "duration": 0.3958326999999997,
          "durationTicks": 114,
          "midi": 81,
          "name": "A5",
          "ticks": 31560,
          "time": 109.583158,
          "velocity": 1
        },
        {
          "duration": 0.44097151666667855,
          "durationTicks": 127,
          "midi": 77,
          "name": "F5",
          "ticks": 31680,
          "time": 109.99982399999999,
          "velocity": 1
        },
        {
          "duration": 0.2812495499999983,
          "durationTicks": 81,
          "midi": 72,
          "name": "C5",
          "ticks": 31800,
          "time": 110.41649,
          "velocity": 1
        },
        {
          "duration": 0.3194439333333179,
          "durationTicks": 92,
          "midi": 81,
          "name": "A5",
          "ticks": 31880,
          "time": 110.69426733333334,
          "velocity": 1
        },
        {
          "duration": 0.14583309999999017,
          "durationTicks": 42,
          "midi": 77,
          "name": "F5",
          "ticks": 32000,
          "time": 111.11093333333334,
          "velocity": 1
        },
        {
          "duration": 0.3159717166666667,
          "durationTicks": 91,
          "midi": 72,
          "name": "C5",
          "ticks": 32040,
          "time": 111.249822,
          "velocity": 1
        },
        {
          "duration": 0.3993049166666509,
          "durationTicks": 115,
          "midi": 79,
          "name": "G5",
          "ticks": 32160,
          "time": 111.666488,
          "velocity": 1
        },
        {
          "duration": 0.36458274999999674,
          "durationTicks": 105,
          "midi": 76,
          "name": "E5",
          "ticks": 32280,
          "time": 112.083154,
          "velocity": 1
        },
        {
          "duration": 0.6249989999999883,
          "durationTicks": 180,
          "midi": 72,
          "name": "C5",
          "ticks": 32400,
          "time": 112.49982,
          "velocity": 1
        },
        {
          "duration": 0.15972196666666605,
          "durationTicks": 46,
          "midi": 77,
          "name": "F5",
          "ticks": 32960,
          "time": 114.44426133333333,
          "velocity": 1
        },
        {
          "duration": 0.21180521666667573,
          "durationTicks": 61,
          "midi": 76,
          "name": "E5",
          "ticks": 33000,
          "time": 114.58314999999999,
          "velocity": 1
        },
        {
          "duration": 0.4895825499999802,
          "durationTicks": 141,
          "midi": 74,
          "name": "D5",
          "ticks": 33080,
          "time": 114.86092733333334,
          "velocity": 1
        },
        {
          "duration": 0.3368050166666734,
          "durationTicks": 97,
          "midi": 74,
          "name": "D5",
          "ticks": 33240,
          "time": 115.41648199999999,
          "velocity": 1
        },
        {
          "duration": 0.35069388333332085,
          "durationTicks": 101,
          "midi": 77,
          "name": "F5",
          "ticks": 33360,
          "time": 115.833148,
          "velocity": 1
        },
        {
          "duration": 0.3541661000000005,
          "durationTicks": 102,
          "midi": 77,
          "name": "F5",
          "ticks": 33480,
          "time": 116.249814,
          "velocity": 1
        },
        {
          "duration": 0.2812495500000125,
          "durationTicks": 81,
          "midi": 81,
          "name": "A5",
          "ticks": 33600,
          "time": 116.66647999999999,
          "velocity": 1
        },
        {
          "duration": 0.32986058333334256,
          "durationTicks": 95,
          "midi": 81,
          "name": "A5",
          "ticks": 33720,
          "time": 117.083146,
          "velocity": 1
        },
        {
          "duration": 2.2083298000000013,
          "durationTicks": 636,
          "midi": 86,
          "name": "D6",
          "ticks": 33840,
          "time": 117.49981199999999,
          "velocity": 1
        },
        {
          "duration": 0.14236088333332475,
          "durationTicks": 41,
          "midi": 77,
          "name": "F5",
          "ticks": 34640,
          "time": 120.27758533333333,
          "velocity": 1
        },
        {
          "duration": 0.18055526666667276,
          "durationTicks": 52,
          "midi": 76,
          "name": "E5",
          "ticks": 34680,
          "time": 120.416474,
          "velocity": 1
        },
        {
          "duration": 0.47916589999998394,
          "durationTicks": 138,
          "midi": 74,
          "name": "D5",
          "ticks": 34760,
          "time": 120.69425133333334,
          "velocity": 1
        },
        {
          "duration": 0.35069388333332085,
          "durationTicks": 101,
          "midi": 74,
          "name": "D5",
          "ticks": 34920,
          "time": 121.24980599999999,
          "velocity": 1
        },
        {
          "duration": 0.31249950000000126,
          "durationTicks": 90,
          "midi": 77,
          "name": "F5",
          "ticks": 35040,
          "time": 121.666472,
          "velocity": 1
        },
        {
          "duration": 0.31249950000000126,
          "durationTicks": 90,
          "midi": 77,
          "name": "F5",
          "ticks": 35160,
          "time": 122.08313799999999,
          "velocity": 1
        },
        {
          "duration": 0.3229161499999833,
          "durationTicks": 93,
          "midi": 81,
          "name": "A5",
          "ticks": 35280,
          "time": 122.499804,
          "velocity": 1
        },
        {
          "duration": 0.17708305000000735,
          "durationTicks": 51,
          "midi": 81,
          "name": "A5",
          "ticks": 35400,
          "time": 122.91646999999999,
          "velocity": 1
        },
        {
          "duration": 0.4305548666666539,
          "durationTicks": 124,
          "midi": 86,
          "name": "D6",
          "ticks": 35480,
          "time": 123.19424733333334,
          "velocity": 1
        },
        {
          "duration": 0.21180521666667573,
          "durationTicks": 61,
          "midi": 86,
          "name": "D6",
          "ticks": 35640,
          "time": 123.74980199999999,
          "velocity": 1
        },
        {
          "duration": 1.6527751333333214,
          "durationTicks": 476,
          "midi": 88,
          "name": "E6",
          "ticks": 35720,
          "time": 124.02757933333334,
          "velocity": 1
        },
        {
          "duration": 0.16666639999999688,
          "durationTicks": 48,
          "midi": 86,
          "name": "D6",
          "ticks": 45960,
          "time": 159.583078,
          "velocity": 1
        },
        {
          "duration": 0.2465273833333015,
          "durationTicks": 71,
          "midi": 86,
          "name": "D6",
          "ticks": 46040,
          "time": 159.86085533333335,
          "velocity": 1
        },
        {
          "duration": 0.2048607833333449,
          "durationTicks": 59,
          "midi": 86,
          "name": "D6",
          "ticks": 46440,
          "time": 161.249742,
          "velocity": 1
        },
        {
          "duration": 0.8368042166666498,
          "durationTicks": 241,
          "midi": 84,
          "name": "C6",
          "ticks": 46520,
          "time": 161.52751933333334,
          "velocity": 1
        },
        {
          "duration": 0.2986106333333396,
          "durationTicks": 86,
          "midi": 81,
          "name": "A5",
          "ticks": 46760,
          "time": 162.36085133333333,
          "velocity": 1
        },
        {
          "duration": 0.1319442333333427,
          "durationTicks": 38,
          "midi": 79,
          "name": "G5",
          "ticks": 46880,
          "time": 162.77751733333332,
          "velocity": 1
        },
        {
          "duration": 0.29513841666664575,
          "durationTicks": 85,
          "midi": 77,
          "name": "F5",
          "ticks": 46920,
          "time": 162.916406,
          "velocity": 1
        },
        {
          "duration": 0.2777773333333471,
          "durationTicks": 80,
          "midi": 79,
          "name": "G5",
          "ticks": 47040,
          "time": 163.333072,
          "velocity": 1
        },
        {
          "duration": 0.27430511666668167,
          "durationTicks": 79,
          "midi": 79,
          "name": "G5",
          "ticks": 47160,
          "time": 163.74973799999998,
          "velocity": 1
        },
        {
          "duration": 0.3055550666666704,
          "durationTicks": 88,
          "midi": 79,
          "name": "G5",
          "ticks": 47280,
          "time": 164.166404,
          "velocity": 1
        },
        {
          "duration": 0.27083289999998783,
          "durationTicks": 78,
          "midi": 81,
          "name": "A5",
          "ticks": 47400,
          "time": 164.58307,
          "velocity": 1
        },
        {
          "duration": 0.2569440333333546,
          "durationTicks": 74,
          "midi": 79,
          "name": "G5",
          "ticks": 47520,
          "time": 164.99973599999998,
          "velocity": 1
        },
        {
          "duration": 0.21874965000000657,
          "durationTicks": 63,
          "midi": 77,
          "name": "F5",
          "ticks": 47600,
          "time": 165.27751333333333,
          "velocity": 1
        },
        {
          "duration": 0.4340270833333193,
          "durationTicks": 125,
          "midi": 74,
          "name": "D5",
          "ticks": 47720,
          "time": 165.69417933333332,
          "velocity": 1
        },
        {
          "duration": 0.18055526666665855,
          "durationTicks": 52,
          "midi": 86,
          "name": "D6",
          "ticks": 47880,
          "time": 166.249734,
          "velocity": 1
        },
        {
          "duration": 0.23958294999999907,
          "durationTicks": 69,
          "midi": 86,
          "name": "D6",
          "ticks": 47960,
          "time": 166.52751133333334,
          "velocity": 1
        },
        {
          "duration": 0.22222186666667199,
          "durationTicks": 64,
          "midi": 86,
          "name": "D6",
          "ticks": 48360,
          "time": 167.916398,
          "velocity": 1
        },
        {
          "duration": 0.9548595833333309,
          "durationTicks": 275,
          "midi": 84,
          "name": "C6",
          "ticks": 48440,
          "time": 168.19417533333333,
          "velocity": 1
        },
        {
          "duration": 0.3229161499999975,
          "durationTicks": 93,
          "midi": 81,
          "name": "A5",
          "ticks": 48720,
          "time": 169.166396,
          "velocity": 1
        },
        {
          "duration": 0.28819398333334334,
          "durationTicks": 83,
          "midi": 84,
          "name": "C6",
          "ticks": 48840,
          "time": 169.58306199999998,
          "velocity": 1
        },
        {
          "duration": 0.35069388333332085,
          "durationTicks": 101,
          "midi": 81,
          "name": "A5",
          "ticks": 48960,
          "time": 169.999728,
          "velocity": 1
        },
        {
          "duration": 0.7638876666666476,
          "durationTicks": 220,
          "midi": 79,
          "name": "G5",
          "ticks": 49080,
          "time": 170.416394,
          "velocity": 1
        },
        {
          "duration": 0.26736068333335083,
          "durationTicks": 77,
          "midi": 77,
          "name": "F5",
          "ticks": 49320,
          "time": 171.24972599999998,
          "velocity": 1
        },
        {
          "duration": 0.23263851666666824,
          "durationTicks": 67,
          "midi": 79,
          "name": "G5",
          "ticks": 49440,
          "time": 171.666392,
          "velocity": 1
        },
        {
          "duration": 0.2256940833333374,
          "durationTicks": 65,
          "midi": 81,
          "name": "A5",
          "ticks": 49520,
          "time": 171.94416933333332,
          "velocity": 1
        },
        {
          "duration": 0.3611105333333171,
          "durationTicks": 104,
          "midi": 81,
          "name": "A5",
          "ticks": 49640,
          "time": 172.36083533333334,
          "velocity": 1
        },
        {
          "duration": 0.13888866666667354,
          "durationTicks": 40,
          "midi": 86,
          "name": "D6",
          "ticks": 49800,
          "time": 172.91638999999998,
          "velocity": 1
        },
        {
          "duration": 0.3055550666666704,
          "durationTicks": 88,
          "midi": 86,
          "name": "D6",
          "ticks": 49880,
          "time": 173.19416733333333,
          "velocity": 1
        },
        {
          "duration": 0.1874996999999894,
          "durationTicks": 54,
          "midi": 86,
          "name": "D6",
          "ticks": 50280,
          "time": 174.583054,
          "velocity": 1
        },
        {
          "duration": 0.8784708166666633,
          "durationTicks": 253,
          "midi": 84,
          "name": "C6",
          "ticks": 50360,
          "time": 174.86083133333332,
          "velocity": 1
        },
        {
          "duration": 0.27083289999998783,
          "durationTicks": 78,
          "midi": 81,
          "name": "A5",
          "ticks": 50640,
          "time": 175.83305199999998,
          "velocity": 1
        },
        {
          "duration": 0.11111093333332178,
          "durationTicks": 32,
          "midi": 79,
          "name": "G5",
          "ticks": 50720,
          "time": 176.11082933333333,
          "velocity": 1
        },
        {
          "duration": 0.27777733333331867,
          "durationTicks": 80,
          "midi": 77,
          "name": "F5",
          "ticks": 50760,
          "time": 176.249718,
          "velocity": 1
        },
        {
          "duration": 0.27083289999998783,
          "durationTicks": 78,
          "midi": 79,
          "name": "G5",
          "ticks": 50880,
          "time": 176.666384,
          "velocity": 1
        },
        {
          "duration": 0.2847217666666779,
          "durationTicks": 82,
          "midi": 79,
          "name": "G5",
          "ticks": 51000,
          "time": 177.08305,
          "velocity": 1
        },
        {
          "duration": 0.23611073333333366,
          "durationTicks": 68,
          "midi": 79,
          "name": "G5",
          "ticks": 51120,
          "time": 177.49971599999998,
          "velocity": 1
        },
        {
          "duration": 0.38194383333333803,
          "durationTicks": 110,
          "midi": 77,
          "name": "F5",
          "ticks": 51200,
          "time": 177.77749333333333,
          "velocity": 1
        },
        {
          "duration": 0.19444413333332022,
          "durationTicks": 56,
          "midi": 79,
          "name": "G5",
          "ticks": 51360,
          "time": 178.333048,
          "velocity": 1
        },
        {
          "duration": 0.2847217666666495,
          "durationTicks": 82,
          "midi": 81,
          "name": "A5",
          "ticks": 51440,
          "time": 178.61082533333334,
          "velocity": 1
        },
        {
          "duration": 0.42361043333332304,
          "durationTicks": 122,
          "midi": 74,
          "name": "D5",
          "ticks": 51560,
          "time": 179.02749133333333,
          "velocity": 1
        },
        {
          "duration": 0.19444413333332022,
          "durationTicks": 56,
          "midi": 86,
          "name": "D6",
          "ticks": 51720,
          "time": 179.583046,
          "velocity": 1
        },
        {
          "duration": 0.17013861666663388,
          "durationTicks": 49,
          "midi": 86,
          "name": "D6",
          "ticks": 51800,
          "time": 179.86082333333334,
          "velocity": 1
        },
        {
          "duration": 0.1701386166666623,
          "durationTicks": 49,
          "midi": 86,
          "name": "D6",
          "ticks": 52200,
          "time": 181.24971,
          "velocity": 1
        },
        {
          "duration": 0.9027763333333212,
          "durationTicks": 260,
          "midi": 84,
          "name": "C6",
          "ticks": 52280,
          "time": 181.52748733333334,
          "velocity": 1
        },
        {
          "duration": 0.38194383333333803,
          "durationTicks": 110,
          "midi": 81,
          "name": "A5",
          "ticks": 52560,
          "time": 182.499708,
          "velocity": 1
        },
        {
          "duration": 0.263888466666657,
          "durationTicks": 76,
          "midi": 79,
          "name": "G5",
          "ticks": 52680,
          "time": 182.916374,
          "velocity": 1
        },
        {
          "duration": 0.2430551666666645,
          "durationTicks": 70,
          "midi": 79,
          "name": "G5",
          "ticks": 52800,
          "time": 183.33303999999998,
          "velocity": 1
        },
        {
          "duration": 0.27083289999998783,
          "durationTicks": 78,
          "midi": 79,
          "name": "G5",
          "ticks": 52920,
          "time": 183.749706,
          "velocity": 1
        },
        {
          "duration": 0.35069388333332085,
          "durationTicks": 101,
          "midi": 79,
          "name": "G5",
          "ticks": 53040,
          "time": 184.166372,
          "velocity": 1
        },
        {
          "duration": 0.3229161499999975,
          "durationTicks": 93,
          "midi": 77,
          "name": "F5",
          "ticks": 53160,
          "time": 184.583038,
          "velocity": 1
        },
        {
          "duration": 0.2222218666667004,
          "durationTicks": 64,
          "midi": 79,
          "name": "G5",
          "ticks": 53280,
          "time": 184.99970399999998,
          "velocity": 1
        },
        {
          "duration": 0.21874965000000657,
          "durationTicks": 63,
          "midi": 81,
          "name": "A5",
          "ticks": 53360,
          "time": 185.27748133333333,
          "velocity": 1
        },
        {
          "duration": 0.3159717166666667,
          "durationTicks": 91,
          "midi": 79,
          "name": "G5",
          "ticks": 53480,
          "time": 185.69414733333332,
          "velocity": 1
        },
        {
          "duration": 0.14236088333333896,
          "durationTicks": 41,
          "midi": 86,
          "name": "D6",
          "ticks": 53640,
          "time": 186.24970199999998,
          "velocity": 1
        },
        {
          "duration": 0.2673606833333224,
          "durationTicks": 77,
          "midi": 86,
          "name": "D6",
          "ticks": 53720,
          "time": 186.52747933333333,
          "velocity": 1
        },
        {
          "duration": 0.10416650000001937,
          "durationTicks": 30,
          "midi": 86,
          "name": "D6",
          "ticks": 54120,
          "time": 187.91636599999998,
          "velocity": 1
        },
        {
          "duration": 0.8784708166666633,
          "durationTicks": 253,
          "midi": 84,
          "name": "C6",
          "ticks": 54200,
          "time": 188.19414333333333,
          "velocity": 1
        },
        {
          "duration": 0.2777773333333471,
          "durationTicks": 80,
          "midi": 81,
          "name": "A5",
          "ticks": 54480,
          "time": 189.166364,
          "velocity": 1
        },
        {
          "duration": 0.2465273833333299,
          "durationTicks": 71,
          "midi": 84,
          "name": "C6",
          "ticks": 54600,
          "time": 189.58302999999998,
          "velocity": 1
        },
        {
          "duration": 0.5243047166666486,
          "durationTicks": 151,
          "midi": 79,
          "name": "G5",
          "ticks": 54720,
          "time": 189.999696,
          "velocity": 1
        },
        {
          "duration": 0.26041625000002,
          "durationTicks": 75,
          "midi": 79,
          "name": "G5",
          "ticks": 54960,
          "time": 190.83302799999998,
          "velocity": 1
        },
        {
          "duration": 0.4583325999999772,
          "durationTicks": 132,
          "midi": 77,
          "name": "F5",
          "ticks": 55040,
          "time": 191.11080533333333,
          "velocity": 1
        },
        {
          "duration": 0.32638836666666293,
          "durationTicks": 94,
          "midi": 81,
          "name": "A5",
          "ticks": 55200,
          "time": 191.66636,
          "velocity": 1
        },
        {
          "duration": 0.2256940833333374,
          "durationTicks": 65,
          "midi": 79,
          "name": "G5",
          "ticks": 55320,
          "time": 192.083026,
          "velocity": 1
        },
        {
          "duration": 0.20138856666665106,
          "durationTicks": 58,
          "midi": 77,
          "name": "F5",
          "ticks": 55400,
          "time": 192.36080333333334,
          "velocity": 1
        },
        {
          "duration": 0.13541645000000813,
          "durationTicks": 39,
          "midi": 74,
          "name": "D5",
          "ticks": 55520,
          "time": 192.77746933333333,
          "velocity": 1
        },
        {
          "duration": 0.18055526666665855,
          "durationTicks": 52,
          "midi": 86,
          "name": "D6",
          "ticks": 55560,
          "time": 192.916358,
          "velocity": 1
        },
        {
          "duration": 1.2673590833333321,
          "durationTicks": 365,
          "midi": 86,
          "name": "D6",
          "ticks": 55640,
          "time": 193.19413533333332,
          "velocity": 1
        },
        {
          "duration": 0.1874996999999894,
          "durationTicks": 54,
          "midi": 86,
          "name": "D6",
          "ticks": 56040,
          "time": 194.583022,
          "velocity": 1
        },
        {
          "duration": 0.38888826666666887,
          "durationTicks": 112,
          "midi": 84,
          "name": "C6",
          "ticks": 56120,
          "time": 194.86079933333332,
          "velocity": 1
        },
        {
          "duration": 0.20138856666665106,
          "durationTicks": 58,
          "midi": 81,
          "name": "A5",
          "ticks": 56240,
          "time": 195.27746533333334,
          "velocity": 1
        },
        {
          "duration": 0.3993049166666651,
          "durationTicks": 115,
          "midi": 81,
          "name": "A5",
          "ticks": 56360,
          "time": 195.69413133333333,
          "velocity": 1
        },
        {
          "duration": 0.14236088333333896,
          "durationTicks": 41,
          "midi": 79,
          "name": "G5",
          "ticks": 56480,
          "time": 196.11079733333332,
          "velocity": 1
        },
        {
          "duration": 0.263888466666657,
          "durationTicks": 76,
          "midi": 77,
          "name": "F5",
          "ticks": 56520,
          "time": 196.249686,
          "velocity": 1
        },
        {
          "duration": 0.2673606833333224,
          "durationTicks": 77,
          "midi": 79,
          "name": "G5",
          "ticks": 56640,
          "time": 196.666352,
          "velocity": 1
        },
        {
          "duration": 0.26041625000002,
          "durationTicks": 75,
          "midi": 79,
          "name": "G5",
          "ticks": 56760,
          "time": 197.08301799999998,
          "velocity": 1
        },
        {
          "duration": 0.25694403333332616,
          "durationTicks": 74,
          "midi": 79,
          "name": "G5",
          "ticks": 56880,
          "time": 197.499684,
          "velocity": 1
        },
        {
          "duration": 0.10416650000001937,
          "durationTicks": 30,
          "midi": 77,
          "name": "F5",
          "ticks": 56960,
          "time": 197.77746133333332,
          "velocity": 1
        },
        {
          "duration": 0.20138856666667948,
          "durationTicks": 58,
          "midi": 79,
          "name": "G5",
          "ticks": 57000,
          "time": 197.91635,
          "velocity": 1
        },
        {
          "duration": 0.1874996999999894,
          "durationTicks": 54,
          "midi": 81,
          "name": "A5",
          "ticks": 57120,
          "time": 198.333016,
          "velocity": 1
        },
        {
          "duration": 0.24999959999999533,
          "durationTicks": 72,
          "midi": 84,
          "name": "C6",
          "ticks": 57200,
          "time": 198.61079333333333,
          "velocity": 1
        },
        {
          "duration": 0.3715271833333418,
          "durationTicks": 107,
          "midi": 81,
          "name": "A5",
          "ticks": 57320,
          "time": 199.02745933333333,
          "velocity": 1
        },
        {
          "duration": 0.14236088333331054,
          "durationTicks": 41,
          "midi": 86,
          "name": "D6",
          "ticks": 57480,
          "time": 199.583014,
          "velocity": 1
        },
        {
          "duration": 0.20138856666665106,
          "durationTicks": 58,
          "midi": 86,
          "name": "D6",
          "ticks": 57560,
          "time": 199.86079133333334,
          "velocity": 1
        }
      ]
    }
  ]
}
