{
  "header": {
    "keySignatures": [
      {
        "key": "C",
        "scale": "major",
        "ticks": 0
      }
    ],
    "meta": {
      "creator": "unknown",
      "title": "",
      "artist": ""
    },
    "name": "",
    "ppq": 240,
    "tempos": [
      {
        "bpm": 110.00011000011,
        "ticks": 0
      }
    ],
    "timeSignatures": [
      {
        "ticks": 0,
        "timeSignature": [
          4,
          4
        ],
        "measures": 0
      }
    ]
  },
  "tracks": [
    {
      "channel": 0,
      "controlChanges": {
        "0": [
          {
            "number": 0,
            "ticks": 0,
            "time": 0,
            "value": 0
          }
        ],
        "32": [
          {
            "number": 32,
            "ticks": 0,
            "time": 0,
            "value": 0
          }
        ]
      },
      "pitchBends": [],
      "instrument": {
        "family": "piano",
        "number": 0,
        "name": "acoustic grand piano"
      },
      "name": "GtrJazz",
      "notes": [],
      "endOfTrackTicks": 36477
    },
    {
      "channel": 3,
      "controlChanges": {
        "7": [
          {
            "number": 7,
            "ticks": 0,
            "time": 0,
            "value": 0.7874015748031497
          },
          {
            "number": 7,
            "ticks": 0,
            "time": 0,
            "value": 0.7874015748031497
          }
        ],
        "11": [
          {
            "number": 11,
            "ticks": 0,
            "time": 0,
            "value": 0.7874015748031497
          }
        ],
        "64": [
          {
            "number": 64,
            "ticks": 0,
            "time": 0,
            "value": 0
          }
        ],
        "91": [
          {
            "number": 91,
            "ticks": 0,
            "time": 0,
            "value": 0
          }
        ],
        "93": [
          {
            "number": 93,
            "ticks": 0,
            "time": 0,
            "value": 0
          }
        ]
      },
      "pitchBends": [],
      "instrument": {
        "family": "guitar",
        "number": 26,
        "name": "electric guitar (jazz)"
      },
      "name": "",
      "notes": [
        {
          "duration": 0.12954532500000004,
          "durationTicks": 57,
          "midi": 61,
          "name": "C#4",
          "ticks": 960,
          "time": 2.181816,
          "velocity": 0.5196850393700787
        },
        {
          "duration": 0.1295453249999996,
          "durationTicks": 57,
          "midi": 62,
          "name": "D4",
          "ticks": 1080,
          "time": 2.454543,
          "velocity": 0.5196850393700787
        },
        {
          "duration": 0.12954532500000004,
          "durationTicks": 57,
          "midi": 61,
          "name": "C#4",
          "ticks": 1140,
          "time": 2.5909065,
          "velocity": 0.5196850393700787
        },
        {
          "duration": 0.12954532500000004,
          "durationTicks": 57,
          "midi": 61,
          "name": "C#4",
          "ticks": 1200,
          "time": 2.72727,
          "velocity": 0.5196850393700787
        },
        {
          "duration": 0.1295453249999996,
          "durationTicks": 57,
          "midi": 62,
          "name": "D4",
          "ticks": 1260,
          "time": 2.8636335,
          "velocity": 0.5196850393700787
        },
        {
          "duration": 0.12954532500000004,
          "durationTicks": 57,
          "midi": 61,
          "name": "C#4",
          "ticks": 1320,
          "time": 2.999997,
          "velocity": 0.5196850393700787
        },
        {
          "duration": 0.12954532500000004,
          "durationTicks": 57,
          "midi": 61,
          "name": "C#4",
          "ticks": 1380,
          "time": 3.1363605,
          "velocity": 0.5196850393700787
        },
        {
          "duration": 0.1295453249999996,
          "durationTicks": 57,
          "midi": 62,
          "name": "D4",
          "ticks": 1440,
          "time": 3.272724,
          "velocity": 0.5196850393700787
        },
        {
          "duration": 0.1295453249999996,
          "durationTicks": 57,
          "midi": 61,
          "name": "C#4",
          "ticks": 1500,
          "time": 3.4090875,
          "velocity": 0.5196850393700787
        },
        {
          "duration": 0.12954532500000004,
          "durationTicks": 57,
          "midi": 61,
          "name": "C#4",
          "ticks": 1560,
          "time": 3.545451,
          "velocity": 0.5196850393700787
        },
        {
          "duration": 0.12954532500000004,
          "durationTicks": 57,
          "midi": 61,
          "name": "C#4",
          "ticks": 1620,
          "time": 3.6818144999999998,
          "velocity": 0.5196850393700787
        },
        {
          "duration": 0.1295453249999996,
          "durationTicks": 57,
          "midi": 60,
          "name": "C4",
          "ticks": 1680,
          "time": 3.818178,
          "velocity": 0.5196850393700787
        },
        {
          "duration": 0.12954532500000004,
          "durationTicks": 57,
          "midi": 61,
          "name": "C#4",
          "ticks": 1740,
          "time": 3.9545415,
          "velocity": 0.5196850393700787
        },
        {
          "duration": 0.1295453249999996,
          "durationTicks": 57,
          "midi": 61,
          "name": "C#4",
          "ticks": 1800,
          "time": 4.090905,
          "velocity": 0.5196850393700787
        },
        {
          "duration": 0.1295453249999996,
          "durationTicks": 57,
          "midi": 61,
          "name": "C#4",
          "ticks": 1860,
          "time": 4.2272685,
          "velocity": 0.5196850393700787
        },
        {
          "duration": 0.1295453250000005,
          "durationTicks": 57,
          "midi": 61,
          "name": "C#4",
          "ticks": 1920,
          "time": 4.363632,
          "velocity": 0.5196850393700787
        },
        {
          "duration": 0.1295453250000005,
          "durationTicks": 57,
          "midi": 62,
          "name": "D4",
          "ticks": 2040,
          "time": 4.636359,
          "velocity": 0.5196850393700787
        },
        {
          "duration": 0.1295453250000005,
          "durationTicks": 57,
          "midi": 61,
          "name": "C#4",
          "ticks": 2100,
          "time": 4.7727224999999995,
          "velocity": 0.5196850393700787
        },
        {
          "duration": 0.1295453250000005,
          "durationTicks": 57,
          "midi": 61,
          "name": "C#4",
          "ticks": 2160,
          "time": 4.909086,
          "velocity": 0.5196850393700787
        },
        {
          "duration": 0.1295453250000005,
          "durationTicks": 57,
          "midi": 62,
          "name": "D4",
          "ticks": 2220,
          "time": 5.0454495,
          "velocity": 0.5196850393700787
        },
        {
          "duration": 0.1295453250000005,
          "durationTicks": 57,
          "midi": 61,
          "name": "C#4",
          "ticks": 2280,
          "time": 5.181813,
          "velocity": 0.5196850393700787
        },
        {
          "duration": 0.1295453250000005,
          "durationTicks": 57,
          "midi": 61,
          "name": "C#4",
          "ticks": 2340,
          "time": 5.3181765,
          "velocity": 0.5196850393700787
        },
        {
          "duration": 0.1295453250000005,
          "durationTicks": 57,
          "midi": 62,
          "name": "D4",
          "ticks": 2400,
          "time": 5.45454,
          "velocity": 0.5196850393700787
        },
        {
          "duration": 0.1295453250000005,
          "durationTicks": 57,
          "midi": 61,
          "name": "C#4",
          "ticks": 2460,
          "time": 5.5909035,
          "velocity": 0.5196850393700787
        },
        {
          "duration": 0.1295453249999996,
          "durationTicks": 57,
          "midi": 61,
          "name": "C#4",
          "ticks": 2520,
          "time": 5.727267,
          "velocity": 0.5196850393700787
        },
        {
          "duration": 0.1295453250000005,
          "durationTicks": 57,
          "midi": 61,
          "name": "C#4",
          "ticks": 2580,
          "time": 5.8636305,
          "velocity": 0.5196850393700787
        },
        {
          "duration": 0.1295453250000005,
          "durationTicks": 57,
          "midi": 60,
          "name": "C4",
          "ticks": 2640,
          "time": 5.999994,
          "velocity": 0.5196850393700787
        },
        {
          "duration": 0.1295453250000005,
          "durationTicks": 57,
          "midi": 61,
          "name": "C#4",
          "ticks": 2700,
          "time": 6.1363575,
          "velocity": 0.5196850393700787
        },
        {
          "duration": 0.1295453250000005,
          "durationTicks": 57,
          "midi": 61,
          "name": "C#4",
          "ticks": 2760,
          "time": 6.272721,
          "velocity": 0.5196850393700787
        },
        {
          "duration": 0.1295453250000005,
          "durationTicks": 57,
          "midi": 61,
          "name": "C#4",
          "ticks": 2820,
          "time": 6.4090845,
          "velocity": 0.5196850393700787
        },
        {
          "duration": 0.1295453250000005,
          "durationTicks": 57,
          "midi": 61,
          "name": "C#4",
          "ticks": 4800,
          "time": 10.90908,
          "velocity": 0.5196850393700787
        },
        {
          "duration": 0.1295453250000005,
          "durationTicks": 57,
          "midi": 62,
          "name": "D4",
          "ticks": 4920,
          "time": 11.181807,
          "velocity": 0.5196850393700787
        },
        {
          "duration": 0.1295453250000005,
          "durationTicks": 57,
          "midi": 61,
          "name": "C#4",
          "ticks": 4980,
          "time": 11.318170499999999,
          "velocity": 0.5196850393700787
        },
        {
          "duration": 0.1295453250000005,
          "durationTicks": 57,
          "midi": 61,
          "name": "C#4",
          "ticks": 5040,
          "time": 11.454534,
          "velocity": 0.5196850393700787
        },
        {
          "duration": 0.1295453250000005,
          "durationTicks": 57,
          "midi": 62,
          "name": "D4",
          "ticks": 5100,
          "time": 11.5908975,
          "velocity": 0.5196850393700787
        },
        {
          "duration": 0.1295453250000005,
          "durationTicks": 57,
          "midi": 61,
          "name": "C#4",
          "ticks": 5160,
          "time": 11.727261,
          "velocity": 0.5196850393700787
        },
        {
          "duration": 0.1295453250000005,
          "durationTicks": 57,
          "midi": 61,
          "name": "C#4",
          "ticks": 5220,
          "time": 11.8636245,
          "velocity": 0.5196850393700787
        },
        {
          "duration": 0.1295453250000005,
          "durationTicks": 57,
          "midi": 62,
          "name": "D4",
          "ticks": 5280,
          "time": 11.999988,
          "velocity": 0.5196850393700787
        },
        {
          "duration": 0.1295453250000005,
          "durationTicks": 57,
          "midi": 61,
          "name": "C#4",
          "ticks": 5340,
          "time": 12.1363515,
          "velocity": 0.5196850393700787
        },
        {
          "duration": 0.1295453250000005,
          "durationTicks": 57,
          "midi": 61,
          "name": "C#4",
          "ticks": 5400,
          "time": 12.272715,
          "velocity": 0.5196850393700787
        },
        {
          "duration": 0.1295453250000005,
          "durationTicks": 57,
          "midi": 61,
          "name": "C#4",
          "ticks": 5460,
          "time": 12.4090785,
          "velocity": 0.5196850393700787
        },
        {
          "duration": 0.1295453250000005,
          "durationTicks": 57,
          "midi": 60,
          "name": "C4",
          "ticks": 5520,
          "time": 12.545442,
          "velocity": 0.5196850393700787
        },
        {
          "duration": 0.1295453250000005,
          "durationTicks": 57,
          "midi": 61,
          "name": "C#4",
          "ticks": 5580,
          "time": 12.6818055,
          "velocity": 0.5196850393700787
        },
        {
          "duration": 0.1295453250000005,
          "durationTicks": 57,
          "midi": 61,
          "name": "C#4",
          "ticks": 5640,
          "time": 12.818169,
          "velocity": 0.5196850393700787
        },
        {
          "duration": 0.1295453250000005,
          "durationTicks": 57,
          "midi": 61,
          "name": "C#4",
          "ticks": 5700,
          "time": 12.9545325,
          "velocity": 0.5196850393700787
        },
        {
          "duration": 0.1295453249999987,
          "durationTicks": 57,
          "midi": 61,
          "name": "C#4",
          "ticks": 5760,
          "time": 13.090896,
          "velocity": 0.5196850393700787
        },
        {
          "duration": 0.1295453250000005,
          "durationTicks": 57,
          "midi": 62,
          "name": "D4",
          "ticks": 5880,
          "time": 13.363623,
          "velocity": 0.5196850393700787
        },
        {
          "duration": 0.1295453250000005,
          "durationTicks": 57,
          "midi": 61,
          "name": "C#4",
          "ticks": 5940,
          "time": 13.4999865,
          "velocity": 0.5196850393700787
        },
        {
          "duration": 0.1295453250000005,
          "durationTicks": 57,
          "midi": 61,
          "name": "C#4",
          "ticks": 6000,
          "time": 13.63635,
          "velocity": 0.5196850393700787
        },
        {
          "duration": 0.1295453250000005,
          "durationTicks": 57,
          "midi": 62,
          "name": "D4",
          "ticks": 6060,
          "time": 13.7727135,
          "velocity": 0.5196850393700787
        },
        {
          "duration": 0.1295453250000005,
          "durationTicks": 57,
          "midi": 61,
          "name": "C#4",
          "ticks": 6120,
          "time": 13.909077,
          "velocity": 0.5196850393700787
        },
        {
          "duration": 0.1295453250000005,
          "durationTicks": 57,
          "midi": 61,
          "name": "C#4",
          "ticks": 6180,
          "time": 14.0454405,
          "velocity": 0.5196850393700787
        },
        {
          "duration": 0.1295453250000005,
          "durationTicks": 57,
          "midi": 62,
          "name": "D4",
          "ticks": 6240,
          "time": 14.181804,
          "velocity": 0.5196850393700787
        },
        {
          "duration": 0.1295453250000005,
          "durationTicks": 57,
          "midi": 61,
          "name": "C#4",
          "ticks": 6300,
          "time": 14.3181675,
          "velocity": 0.5196850393700787
        },
        {
          "duration": 0.1295453250000005,
          "durationTicks": 57,
          "midi": 61,
          "name": "C#4",
          "ticks": 6360,
          "time": 14.454531,
          "velocity": 0.5196850393700787
        },
        {
          "duration": 0.1295453250000005,
          "durationTicks": 57,
          "midi": 61,
          "name": "C#4",
          "ticks": 6420,
          "time": 14.5908945,
          "velocity": 0.5196850393700787
        },
        {
          "duration": 0.1295453250000005,
          "durationTicks": 57,
          "midi": 60,
          "name": "C4",
          "ticks": 6480,
          "time": 14.727257999999999,
          "velocity": 0.5196850393700787
        },
        {
          "duration": 0.1295453249999987,
          "durationTicks": 57,
          "midi": 61,
          "name": "C#4",
          "ticks": 6540,
          "time": 14.8636215,
          "velocity": 0.5196850393700787
        },
        {
          "duration": 0.1295453250000005,
          "durationTicks": 57,
          "midi": 61,
          "name": "C#4",
          "ticks": 6600,
          "time": 14.999985,
          "velocity": 0.5196850393700787
        },
        {
          "duration": 0.1295453250000005,
          "durationTicks": 57,
          "midi": 61,
          "name": "C#4",
          "ticks": 6660,
          "time": 15.1363485,
          "velocity": 0.5196850393700787
        },
        {
          "duration": 0.1295453249999987,
          "durationTicks": 57,
          "midi": 61,
          "name": "C#4",
          "ticks": 8640,
          "time": 19.636344,
          "velocity": 0.5196850393700787
        },
        {
          "duration": 0.1295453249999987,
          "durationTicks": 57,
          "midi": 62,
          "name": "D4",
          "ticks": 8760,
          "time": 19.909071,
          "velocity": 0.5196850393700787
        },
        {
          "duration": 0.1295453249999987,
          "durationTicks": 57,
          "midi": 61,
          "name": "C#4",
          "ticks": 8820,
          "time": 20.0454345,
          "velocity": 0.5196850393700787
        },
        {
          "duration": 0.1295453249999987,
          "durationTicks": 57,
          "midi": 61,
          "name": "C#4",
          "ticks": 8880,
          "time": 20.181798,
          "velocity": 0.5196850393700787
        },
        {
          "duration": 0.1295453249999987,
          "durationTicks": 57,
          "midi": 62,
          "name": "D4",
          "ticks": 8940,
          "time": 20.3181615,
          "velocity": 0.5196850393700787
        },
        {
          "duration": 0.1295453249999987,
          "durationTicks": 57,
          "midi": 61,
          "name": "C#4",
          "ticks": 9000,
          "time": 20.454525,
          "velocity": 0.5196850393700787
        },
        {
          "duration": 0.1295453249999987,
          "durationTicks": 57,
          "midi": 61,
          "name": "C#4",
          "ticks": 9060,
          "time": 20.5908885,
          "velocity": 0.5196850393700787
        },
        {
          "duration": 0.1295453249999987,
          "durationTicks": 57,
          "midi": 62,
          "name": "D4",
          "ticks": 9120,
          "time": 20.727252,
          "velocity": 0.5196850393700787
        },
        {
          "duration": 0.1295453249999987,
          "durationTicks": 57,
          "midi": 61,
          "name": "C#4",
          "ticks": 9180,
          "time": 20.863615499999998,
          "velocity": 0.5196850393700787
        },
        {
          "duration": 0.1295453249999987,
          "durationTicks": 57,
          "midi": 61,
          "name": "C#4",
          "ticks": 9240,
          "time": 20.999979,
          "velocity": 0.5196850393700787
        },
        {
          "duration": 0.12954532499999516,
          "durationTicks": 57,
          "midi": 61,
          "name": "C#4",
          "ticks": 9300,
          "time": 21.1363425,
          "velocity": 0.5196850393700787
        },
        {
          "duration": 0.1295453249999987,
          "durationTicks": 57,
          "midi": 60,
          "name": "C4",
          "ticks": 9360,
          "time": 21.272706,
          "velocity": 0.5196850393700787
        },
        {
          "duration": 0.1295453249999987,
          "durationTicks": 57,
          "midi": 61,
          "name": "C#4",
          "ticks": 9420,
          "time": 21.4090695,
          "velocity": 0.5196850393700787
        },
        {
          "duration": 0.1295453249999987,
          "durationTicks": 57,
          "midi": 61,
          "name": "C#4",
          "ticks": 9480,
          "time": 21.545433,
          "velocity": 0.5196850393700787
        },
        {
          "duration": 0.1295453249999987,
          "durationTicks": 57,
          "midi": 61,
          "name": "C#4",
          "ticks": 9540,
          "time": 21.6817965,
          "velocity": 0.5196850393700787
        },
        {
          "duration": 0.1295453249999987,
          "durationTicks": 57,
          "midi": 61,
          "name": "C#4",
          "ticks": 9600,
          "time": 21.81816,
          "velocity": 0.5196850393700787
        },
        {
          "duration": 0.1295453249999987,
          "durationTicks": 57,
          "midi": 62,
          "name": "D4",
          "ticks": 9720,
          "time": 22.090887,
          "velocity": 0.5196850393700787
        },
        {
          "duration": 0.1295453249999987,
          "durationTicks": 57,
          "midi": 61,
          "name": "C#4",
          "ticks": 9780,
          "time": 22.2272505,
          "velocity": 0.5196850393700787
        },
        {
          "duration": 0.1295453249999987,
          "durationTicks": 57,
          "midi": 61,
          "name": "C#4",
          "ticks": 9840,
          "time": 22.363614,
          "velocity": 0.5196850393700787
        },
        {
          "duration": 0.1295453249999987,
          "durationTicks": 57,
          "midi": 62,
          "name": "D4",
          "ticks": 9900,
          "time": 22.4999775,
          "velocity": 0.5196850393700787
        },
        {
          "duration": 0.1295453249999987,
          "durationTicks": 57,
          "midi": 61,
          "name": "C#4",
          "ticks": 9960,
          "time": 22.636340999999998,
          "velocity": 0.5196850393700787
        },
        {
          "duration": 0.1295453249999987,
          "durationTicks": 57,
          "midi": 61,
          "name": "C#4",
          "ticks": 10020,
          "time": 22.7727045,
          "velocity": 0.5196850393700787
        },
        {
          "duration": 0.12954532499999516,
          "durationTicks": 57,
          "midi": 62,
          "name": "D4",
          "ticks": 10080,
          "time": 22.909068,
          "velocity": 0.5196850393700787
        },
        {
          "duration": 0.1295453249999987,
          "durationTicks": 57,
          "midi": 61,
          "name": "C#4",
          "ticks": 10140,
          "time": 23.0454315,
          "velocity": 0.5196850393700787
        },
        {
          "duration": 0.1295453249999987,
          "durationTicks": 57,
          "midi": 61,
          "name": "C#4",
          "ticks": 10200,
          "time": 23.181795,
          "velocity": 0.5196850393700787
        },
        {
          "duration": 0.1295453249999987,
          "durationTicks": 57,
          "midi": 61,
          "name": "C#4",
          "ticks": 10260,
          "time": 23.3181585,
          "velocity": 0.5196850393700787
        },
        {
          "duration": 0.1295453249999987,
          "durationTicks": 57,
          "midi": 60,
          "name": "C4",
          "ticks": 10320,
          "time": 23.454522,
          "velocity": 0.5196850393700787
        },
        {
          "duration": 0.1295453249999987,
          "durationTicks": 57,
          "midi": 61,
          "name": "C#4",
          "ticks": 10380,
          "time": 23.5908855,
          "velocity": 0.5196850393700787
        },
        {
          "duration": 0.1295453249999987,
          "durationTicks": 57,
          "midi": 61,
          "name": "C#4",
          "ticks": 10440,
          "time": 23.727249,
          "velocity": 0.5196850393700787
        },
        {
          "duration": 0.1295453249999987,
          "durationTicks": 57,
          "midi": 61,
          "name": "C#4",
          "ticks": 10500,
          "time": 23.8636125,
          "velocity": 0.5196850393700787
        },
        {
          "duration": 0.1295453249999987,
          "durationTicks": 57,
          "midi": 61,
          "name": "C#4",
          "ticks": 12480,
          "time": 28.363608,
          "velocity": 0.5196850393700787
        },
        {
          "duration": 0.1295453249999987,
          "durationTicks": 57,
          "midi": 62,
          "name": "D4",
          "ticks": 12600,
          "time": 28.636335,
          "velocity": 0.5196850393700787
        },
        {
          "duration": 0.1295453249999987,
          "durationTicks": 57,
          "midi": 61,
          "name": "C#4",
          "ticks": 12660,
          "time": 28.7726985,
          "velocity": 0.5196850393700787
        },
        {
          "duration": 0.1295453249999987,
          "durationTicks": 57,
          "midi": 61,
          "name": "C#4",
          "ticks": 12720,
          "time": 28.909062,
          "velocity": 0.5196850393700787
        },
        {
          "duration": 0.1295453249999987,
          "durationTicks": 57,
          "midi": 62,
          "name": "D4",
          "ticks": 12780,
          "time": 29.0454255,
          "velocity": 0.5196850393700787
        },
        {
          "duration": 0.1295453249999987,
          "durationTicks": 57,
          "midi": 61,
          "name": "C#4",
          "ticks": 12840,
          "time": 29.181789,
          "velocity": 0.5196850393700787
        },
        {
          "duration": 0.1295453249999987,
          "durationTicks": 57,
          "midi": 61,
          "name": "C#4",
          "ticks": 12900,
          "time": 29.3181525,
          "velocity": 0.5196850393700787
        },
        {
          "duration": 0.1295453249999987,
          "durationTicks": 57,
          "midi": 62,
          "name": "D4",
          "ticks": 12960,
          "time": 29.454515999999998,
          "velocity": 0.5196850393700787
        },
        {
          "duration": 0.1295453249999987,
          "durationTicks": 57,
          "midi": 61,
          "name": "C#4",
          "ticks": 13020,
          "time": 29.5908795,
          "velocity": 0.5196850393700787
        },
        {
          "duration": 0.12954532499999516,
          "durationTicks": 57,
          "midi": 61,
          "name": "C#4",
          "ticks": 13080,
          "time": 29.727243,
          "velocity": 0.5196850393700787
        },
        {
          "duration": 0.1295453249999987,
          "durationTicks": 57,
          "midi": 61,
          "name": "C#4",
          "ticks": 13140,
          "time": 29.8636065,
          "velocity": 0.5196850393700787
        },
        {
          "duration": 0.1295453249999987,
          "durationTicks": 57,
          "midi": 60,
          "name": "C4",
          "ticks": 13200,
          "time": 29.99997,
          "velocity": 0.5196850393700787
        },
        {
          "duration": 0.1295453249999987,
          "durationTicks": 57,
          "midi": 61,
          "name": "C#4",
          "ticks": 13260,
          "time": 30.1363335,
          "velocity": 0.5196850393700787
        },
        {
          "duration": 0.1295453249999987,
          "durationTicks": 57,
          "midi": 61,
          "name": "C#4",
          "ticks": 13320,
          "time": 30.272697,
          "velocity": 0.5196850393700787
        },
        {
          "duration": 0.1295453249999987,
          "durationTicks": 57,
          "midi": 61,
          "name": "C#4",
          "ticks": 13380,
          "time": 30.4090605,
          "velocity": 0.5196850393700787
        },
        {
          "duration": 0.1295453249999987,
          "durationTicks": 57,
          "midi": 61,
          "name": "C#4",
          "ticks": 13440,
          "time": 30.545424,
          "velocity": 0.5196850393700787
        },
        {
          "duration": 0.1295453249999987,
          "durationTicks": 57,
          "midi": 62,
          "name": "D4",
          "ticks": 13560,
          "time": 30.818151,
          "velocity": 0.5196850393700787
        },
        {
          "duration": 0.1295453249999987,
          "durationTicks": 57,
          "midi": 61,
          "name": "C#4",
          "ticks": 13620,
          "time": 30.9545145,
          "velocity": 0.5196850393700787
        },
        {
          "duration": 0.1295453249999987,
          "durationTicks": 57,
          "midi": 61,
          "name": "C#4",
          "ticks": 13680,
          "time": 31.090878,
          "velocity": 0.5196850393700787
        },
        {
          "duration": 0.1295453249999987,
          "durationTicks": 57,
          "midi": 62,
          "name": "D4",
          "ticks": 13740,
          "time": 31.227241499999998,
          "velocity": 0.5196850393700787
        },
        {
          "duration": 0.1295453249999987,
          "durationTicks": 57,
          "midi": 61,
          "name": "C#4",
          "ticks": 13800,
          "time": 31.363605,
          "velocity": 0.5196850393700787
        },
        {
          "duration": 0.12954532499999516,
          "durationTicks": 57,
          "midi": 61,
          "name": "C#4",
          "ticks": 13860,
          "time": 31.4999685,
          "velocity": 0.5196850393700787
        },
        {
          "duration": 0.1295453249999987,
          "durationTicks": 57,
          "midi": 62,
          "name": "D4",
          "ticks": 13920,
          "time": 31.636332,
          "velocity": 0.5196850393700787
        },
        {
          "duration": 0.1295453249999987,
          "durationTicks": 57,
          "midi": 61,
          "name": "C#4",
          "ticks": 13980,
          "time": 31.7726955,
          "velocity": 0.5196850393700787
        },
        {
          "duration": 0.12954532500000226,
          "durationTicks": 57,
          "midi": 61,
          "name": "C#4",
          "ticks": 14040,
          "time": 31.909059,
          "velocity": 0.5196850393700787
        },
        {
          "duration": 0.12954532499999516,
          "durationTicks": 57,
          "midi": 61,
          "name": "C#4",
          "ticks": 14100,
          "time": 32.0454225,
          "velocity": 0.5196850393700787
        },
        {
          "duration": 0.12954532499999516,
          "durationTicks": 57,
          "midi": 60,
          "name": "C4",
          "ticks": 14160,
          "time": 32.181786,
          "velocity": 0.5196850393700787
        },
        {
          "duration": 0.12954532500000226,
          "durationTicks": 57,
          "midi": 61,
          "name": "C#4",
          "ticks": 14220,
          "time": 32.3181495,
          "velocity": 0.5196850393700787
        },
        {
          "duration": 0.12954532500000226,
          "durationTicks": 57,
          "midi": 61,
          "name": "C#4",
          "ticks": 14280,
          "time": 32.454513,
          "velocity": 0.5196850393700787
        },
        {
          "duration": 0.12954532499999516,
          "durationTicks": 57,
          "midi": 61,
          "name": "C#4",
          "ticks": 14340,
          "time": 32.5908765,
          "velocity": 0.5196850393700787
        },
        {
          "duration": 0.12954532499999516,
          "durationTicks": 57,
          "midi": 61,
          "name": "C#4",
          "ticks": 14400,
          "time": 32.72724,
          "velocity": 0.5196850393700787
        },
        {
          "duration": 0.12954532500000226,
          "durationTicks": 57,
          "midi": 62,
          "name": "D4",
          "ticks": 14520,
          "time": 32.999967,
          "velocity": 0.5196850393700787
        },
        {
          "duration": 0.12954532499999516,
          "durationTicks": 57,
          "midi": 61,
          "name": "C#4",
          "ticks": 14580,
          "time": 33.1363305,
          "velocity": 0.5196850393700787
        },
        {
          "duration": 0.12954532499999516,
          "durationTicks": 57,
          "midi": 61,
          "name": "C#4",
          "ticks": 14640,
          "time": 33.272694,
          "velocity": 0.5196850393700787
        },
        {
          "duration": 0.12954532499999516,
          "durationTicks": 57,
          "midi": 62,
          "name": "D4",
          "ticks": 14700,
          "time": 33.4090575,
          "velocity": 0.5196850393700787
        },
        {
          "duration": 0.12954532500000226,
          "durationTicks": 57,
          "midi": 61,
          "name": "C#4",
          "ticks": 14760,
          "time": 33.545421,
          "velocity": 0.5196850393700787
        },
        {
          "duration": 0.12954532500000226,
          "durationTicks": 57,
          "midi": 61,
          "name": "C#4",
          "ticks": 14820,
          "time": 33.6817845,
          "velocity": 0.5196850393700787
        },
        {
          "duration": 0.12954532500000226,
          "durationTicks": 57,
          "midi": 61,
          "name": "C#4",
          "ticks": 16800,
          "time": 38.181779999999996,
          "velocity": 0.5196850393700787
        },
        {
          "duration": 0.12954532499999516,
          "durationTicks": 57,
          "midi": 62,
          "name": "D4",
          "ticks": 16920,
          "time": 38.454507,
          "velocity": 0.5196850393700787
        },
        {
          "duration": 0.12954532499999516,
          "durationTicks": 57,
          "midi": 61,
          "name": "C#4",
          "ticks": 16980,
          "time": 38.5908705,
          "velocity": 0.5196850393700787
        },
        {
          "duration": 0.12954532499999516,
          "durationTicks": 57,
          "midi": 61,
          "name": "C#4",
          "ticks": 17040,
          "time": 38.727234,
          "velocity": 0.5196850393700787
        },
        {
          "duration": 0.12954532500000226,
          "durationTicks": 57,
          "midi": 62,
          "name": "D4",
          "ticks": 17100,
          "time": 38.8635975,
          "velocity": 0.5196850393700787
        },
        {
          "duration": 0.12954532500000226,
          "durationTicks": 57,
          "midi": 61,
          "name": "C#4",
          "ticks": 17160,
          "time": 38.999961,
          "velocity": 0.5196850393700787
        },
        {
          "duration": 0.12954532499999516,
          "durationTicks": 57,
          "midi": 61,
          "name": "C#4",
          "ticks": 17220,
          "time": 39.1363245,
          "velocity": 0.5196850393700787
        },
        {
          "duration": 0.12954532499999516,
          "durationTicks": 57,
          "midi": 62,
          "name": "D4",
          "ticks": 17280,
          "time": 39.272688,
          "velocity": 0.5196850393700787
        },
        {
          "duration": 0.12954532500000226,
          "durationTicks": 57,
          "midi": 61,
          "name": "C#4",
          "ticks": 17340,
          "time": 39.4090515,
          "velocity": 0.5196850393700787
        },
        {
          "duration": 0.12954532500000226,
          "durationTicks": 57,
          "midi": 61,
          "name": "C#4",
          "ticks": 17400,
          "time": 39.545415,
          "velocity": 0.5196850393700787
        },
        {
          "duration": 0.12954532499999516,
          "durationTicks": 57,
          "midi": 61,
          "name": "C#4",
          "ticks": 17460,
          "time": 39.6817785,
          "velocity": 0.5196850393700787
        },
        {
          "duration": 0.12954532499999516,
          "durationTicks": 57,
          "midi": 60,
          "name": "C4",
          "ticks": 17520,
          "time": 39.818142,
          "velocity": 0.5196850393700787
        },
        {
          "duration": 0.12954532500000226,
          "durationTicks": 57,
          "midi": 61,
          "name": "C#4",
          "ticks": 17580,
          "time": 39.954505499999996,
          "velocity": 0.5196850393700787
        },
        {
          "duration": 0.12954532500000226,
          "durationTicks": 57,
          "midi": 61,
          "name": "C#4",
          "ticks": 17640,
          "time": 40.090869,
          "velocity": 0.5196850393700787
        },
        {
          "duration": 0.12954532499999516,
          "durationTicks": 57,
          "midi": 61,
          "name": "C#4",
          "ticks": 17700,
          "time": 40.2272325,
          "velocity": 0.5196850393700787
        },
        {
          "duration": 0.12954532499999516,
          "durationTicks": 57,
          "midi": 61,
          "name": "C#4",
          "ticks": 17760,
          "time": 40.363596,
          "velocity": 0.5196850393700787
        },
        {
          "duration": 0.12954532500000226,
          "durationTicks": 57,
          "midi": 62,
          "name": "D4",
          "ticks": 17880,
          "time": 40.636323,
          "velocity": 0.5196850393700787
        },
        {
          "duration": 0.12954532500000226,
          "durationTicks": 57,
          "midi": 61,
          "name": "C#4",
          "ticks": 17940,
          "time": 40.7726865,
          "velocity": 0.5196850393700787
        },
        {
          "duration": 0.12954532499999516,
          "durationTicks": 57,
          "midi": 61,
          "name": "C#4",
          "ticks": 18000,
          "time": 40.90905,
          "velocity": 0.5196850393700787
        },
        {
          "duration": 0.12954532499999516,
          "durationTicks": 57,
          "midi": 62,
          "name": "D4",
          "ticks": 18060,
          "time": 41.0454135,
          "velocity": 0.5196850393700787
        },
        {
          "duration": 0.12954532500000226,
          "durationTicks": 57,
          "midi": 61,
          "name": "C#4",
          "ticks": 18120,
          "time": 41.181777,
          "velocity": 0.5196850393700787
        },
        {
          "duration": 0.12954532500000226,
          "durationTicks": 57,
          "midi": 61,
          "name": "C#4",
          "ticks": 18180,
          "time": 41.3181405,
          "velocity": 0.5196850393700787
        },
        {
          "duration": 0.12954532499999516,
          "durationTicks": 57,
          "midi": 62,
          "name": "D4",
          "ticks": 18240,
          "time": 41.454504,
          "velocity": 0.5196850393700787
        },
        {
          "duration": 0.12954532499999516,
          "durationTicks": 57,
          "midi": 61,
          "name": "C#4",
          "ticks": 18300,
          "time": 41.5908675,
          "velocity": 0.5196850393700787
        },
        {
          "duration": 0.12954532500000226,
          "durationTicks": 57,
          "midi": 61,
          "name": "C#4",
          "ticks": 18360,
          "time": 41.727230999999996,
          "velocity": 0.5196850393700787
        },
        {
          "duration": 0.12954532500000226,
          "durationTicks": 57,
          "midi": 61,
          "name": "C#4",
          "ticks": 18420,
          "time": 41.8635945,
          "velocity": 0.5196850393700787
        },
        {
          "duration": 0.12954532499999516,
          "durationTicks": 57,
          "midi": 60,
          "name": "C4",
          "ticks": 18480,
          "time": 41.999958,
          "velocity": 0.5196850393700787
        },
        {
          "duration": 0.12954532499999516,
          "durationTicks": 57,
          "midi": 61,
          "name": "C#4",
          "ticks": 18540,
          "time": 42.1363215,
          "velocity": 0.5196850393700787
        },
        {
          "duration": 0.12954532499999516,
          "durationTicks": 57,
          "midi": 61,
          "name": "C#4",
          "ticks": 18600,
          "time": 42.272685,
          "velocity": 0.5196850393700787
        },
        {
          "duration": 0.12954532500000226,
          "durationTicks": 57,
          "midi": 61,
          "name": "C#4",
          "ticks": 18660,
          "time": 42.4090485,
          "velocity": 0.5196850393700787
        },
        {
          "duration": 0.12954532500000226,
          "durationTicks": 57,
          "midi": 62,
          "name": "D4",
          "ticks": 18720,
          "time": 42.545412,
          "velocity": 0.5196850393700787
        },
        {
          "duration": 0.12954532499999516,
          "durationTicks": 57,
          "midi": 61,
          "name": "C#4",
          "ticks": 18780,
          "time": 42.6817755,
          "velocity": 0.5196850393700787
        },
        {
          "duration": 0.12954532499999516,
          "durationTicks": 57,
          "midi": 61,
          "name": "C#4",
          "ticks": 18840,
          "time": 42.818139,
          "velocity": 0.5196850393700787
        },
        {
          "duration": 0.12954532500000226,
          "durationTicks": 57,
          "midi": 61,
          "name": "C#4",
          "ticks": 18900,
          "time": 42.9545025,
          "velocity": 0.5196850393700787
        },
        {
          "duration": 0.12954532500000226,
          "durationTicks": 57,
          "midi": 60,
          "name": "C4",
          "ticks": 18960,
          "time": 43.090866,
          "velocity": 0.5196850393700787
        },
        {
          "duration": 0.12954532499999516,
          "durationTicks": 57,
          "midi": 61,
          "name": "C#4",
          "ticks": 19020,
          "time": 43.2272295,
          "velocity": 0.5196850393700787
        },
        {
          "duration": 0.12954532499999516,
          "durationTicks": 57,
          "midi": 61,
          "name": "C#4",
          "ticks": 19080,
          "time": 43.363593,
          "velocity": 0.5196850393700787
        },
        {
          "duration": 0.12954532500000226,
          "durationTicks": 57,
          "midi": 61,
          "name": "C#4",
          "ticks": 19140,
          "time": 43.499956499999996,
          "velocity": 0.5196850393700787
        },
        {
          "duration": 0.12954532499999516,
          "durationTicks": 57,
          "midi": 61,
          "name": "C#4",
          "ticks": 21600,
          "time": 49.09086,
          "velocity": 0.5196850393700787
        },
        {
          "duration": 0.12954532499999516,
          "durationTicks": 57,
          "midi": 62,
          "name": "D4",
          "ticks": 21720,
          "time": 49.363587,
          "velocity": 0.5196850393700787
        },
        {
          "duration": 0.12954532500000226,
          "durationTicks": 57,
          "midi": 61,
          "name": "C#4",
          "ticks": 21780,
          "time": 49.4999505,
          "velocity": 0.5196850393700787
        },
        {
          "duration": 0.12954532500000226,
          "durationTicks": 57,
          "midi": 61,
          "name": "C#4",
          "ticks": 21840,
          "time": 49.636314,
          "velocity": 0.5196850393700787
        },
        {
          "duration": 0.12954532499999516,
          "durationTicks": 57,
          "midi": 62,
          "name": "D4",
          "ticks": 21900,
          "time": 49.7726775,
          "velocity": 0.5196850393700787
        },
        {
          "duration": 0.12954532499999516,
          "durationTicks": 57,
          "midi": 61,
          "name": "C#4",
          "ticks": 21960,
          "time": 49.909041,
          "velocity": 0.5196850393700787
        },
        {
          "duration": 0.12954532500000226,
          "durationTicks": 57,
          "midi": 61,
          "name": "C#4",
          "ticks": 22020,
          "time": 50.0454045,
          "velocity": 0.5196850393700787
        },
        {
          "duration": 0.12954532500000226,
          "durationTicks": 57,
          "midi": 62,
          "name": "D4",
          "ticks": 22080,
          "time": 50.181768,
          "velocity": 0.5196850393700787
        },
        {
          "duration": 0.12954532499999516,
          "durationTicks": 57,
          "midi": 61,
          "name": "C#4",
          "ticks": 22140,
          "time": 50.3181315,
          "velocity": 0.5196850393700787
        },
        {
          "duration": 0.12954532499999516,
          "durationTicks": 57,
          "midi": 61,
          "name": "C#4",
          "ticks": 22200,
          "time": 50.454495,
          "velocity": 0.5196850393700787
        },
        {
          "duration": 0.12954532500000226,
          "durationTicks": 57,
          "midi": 61,
          "name": "C#4",
          "ticks": 22260,
          "time": 50.590858499999996,
          "velocity": 0.5196850393700787
        },
        {
          "duration": 0.12954532500000226,
          "durationTicks": 57,
          "midi": 60,
          "name": "C4",
          "ticks": 22320,
          "time": 50.727222,
          "velocity": 0.5196850393700787
        },
        {
          "duration": 0.12954532499999516,
          "durationTicks": 57,
          "midi": 61,
          "name": "C#4",
          "ticks": 22380,
          "time": 50.8635855,
          "velocity": 0.5196850393700787
        },
        {
          "duration": 0.12954532499999516,
          "durationTicks": 57,
          "midi": 61,
          "name": "C#4",
          "ticks": 22440,
          "time": 50.999949,
          "velocity": 0.5196850393700787
        },
        {
          "duration": 0.12954532499999516,
          "durationTicks": 57,
          "midi": 61,
          "name": "C#4",
          "ticks": 22500,
          "time": 51.1363125,
          "velocity": 0.5196850393700787
        },
        {
          "duration": 0.12954532500000226,
          "durationTicks": 57,
          "midi": 61,
          "name": "C#4",
          "ticks": 22560,
          "time": 51.272676,
          "velocity": 0.5196850393700787
        },
        {
          "duration": 0.12954532499999516,
          "durationTicks": 57,
          "midi": 62,
          "name": "D4",
          "ticks": 22680,
          "time": 51.545403,
          "velocity": 0.5196850393700787
        },
        {
          "duration": 0.12954532499999516,
          "durationTicks": 57,
          "midi": 61,
          "name": "C#4",
          "ticks": 22740,
          "time": 51.6817665,
          "velocity": 0.5196850393700787
        },
        {
          "duration": 0.12954532500000226,
          "durationTicks": 57,
          "midi": 61,
          "name": "C#4",
          "ticks": 22800,
          "time": 51.81813,
          "velocity": 0.5196850393700787
        },
        {
          "duration": 0.12954532500000226,
          "durationTicks": 57,
          "midi": 62,
          "name": "D4",
          "ticks": 22860,
          "time": 51.9544935,
          "velocity": 0.5196850393700787
        },
        {
          "duration": 0.12954532499999516,
          "durationTicks": 57,
          "midi": 61,
          "name": "C#4",
          "ticks": 22920,
          "time": 52.090857,
          "velocity": 0.5196850393700787
        },
        {
          "duration": 0.12954532499999516,
          "durationTicks": 57,
          "midi": 61,
          "name": "C#4",
          "ticks": 22980,
          "time": 52.2272205,
          "velocity": 0.5196850393700787
        },
        {
          "duration": 0.12954532499999516,
          "durationTicks": 57,
          "midi": 62,
          "name": "D4",
          "ticks": 23040,
          "time": 52.363584,
          "velocity": 0.5196850393700787
        },
        {
          "duration": 0.12954532500000226,
          "durationTicks": 57,
          "midi": 61,
          "name": "C#4",
          "ticks": 23100,
          "time": 52.4999475,
          "velocity": 0.5196850393700787
        },
        {
          "duration": 0.12954532500000226,
          "durationTicks": 57,
          "midi": 61,
          "name": "C#4",
          "ticks": 23160,
          "time": 52.636311,
          "velocity": 0.5196850393700787
        },
        {
          "duration": 0.12954532499999516,
          "durationTicks": 57,
          "midi": 61,
          "name": "C#4",
          "ticks": 23220,
          "time": 52.7726745,
          "velocity": 0.5196850393700787
        },
        {
          "duration": 0.12954532499999516,
          "durationTicks": 57,
          "midi": 60,
          "name": "C4",
          "ticks": 23280,
          "time": 52.909038,
          "velocity": 0.5196850393700787
        },
        {
          "duration": 0.12954532500000226,
          "durationTicks": 57,
          "midi": 61,
          "name": "C#4",
          "ticks": 23340,
          "time": 53.0454015,
          "velocity": 0.5196850393700787
        },
        {
          "duration": 0.12954532500000226,
          "durationTicks": 57,
          "midi": 61,
          "name": "C#4",
          "ticks": 23400,
          "time": 53.181765,
          "velocity": 0.5196850393700787
        },
        {
          "duration": 0.12954532499999516,
          "durationTicks": 57,
          "midi": 61,
          "name": "C#4",
          "ticks": 23460,
          "time": 53.3181285,
          "velocity": 0.5196850393700787
        },
        {
          "duration": 0.12954532500000226,
          "durationTicks": 57,
          "midi": 61,
          "name": "C#4",
          "ticks": 25440,
          "time": 57.818124,
          "velocity": 0.5196850393700787
        },
        {
          "duration": 0.12954532499999516,
          "durationTicks": 57,
          "midi": 62,
          "name": "D4",
          "ticks": 25560,
          "time": 58.090851,
          "velocity": 0.5196850393700787
        },
        {
          "duration": 0.12954532499999516,
          "durationTicks": 57,
          "midi": 61,
          "name": "C#4",
          "ticks": 25620,
          "time": 58.2272145,
          "velocity": 0.5196850393700787
        },
        {
          "duration": 0.12954532500000226,
          "durationTicks": 57,
          "midi": 61,
          "name": "C#4",
          "ticks": 25680,
          "time": 58.363578,
          "velocity": 0.5196850393700787
        },
        {
          "duration": 0.12954532500000226,
          "durationTicks": 57,
          "midi": 62,
          "name": "D4",
          "ticks": 25740,
          "time": 58.4999415,
          "velocity": 0.5196850393700787
        },
        {
          "duration": 0.12954532499999516,
          "durationTicks": 57,
          "midi": 61,
          "name": "C#4",
          "ticks": 25800,
          "time": 58.636305,
          "velocity": 0.5196850393700787
        },
        {
          "duration": 0.12954532499999516,
          "durationTicks": 57,
          "midi": 61,
          "name": "C#4",
          "ticks": 25860,
          "time": 58.7726685,
          "velocity": 0.5196850393700787
        },
        {
          "duration": 0.12954532500000226,
          "durationTicks": 57,
          "midi": 62,
          "name": "D4",
          "ticks": 25920,
          "time": 58.909031999999996,
          "velocity": 0.5196850393700787
        },
        {
          "duration": 0.12954532500000226,
          "durationTicks": 57,
          "midi": 61,
          "name": "C#4",
          "ticks": 25980,
          "time": 59.0453955,
          "velocity": 0.5196850393700787
        },
        {
          "duration": 0.12954532499999516,
          "durationTicks": 57,
          "midi": 61,
          "name": "C#4",
          "ticks": 26040,
          "time": 59.181759,
          "velocity": 0.5196850393700787
        },
        {
          "duration": 0.12954532499999516,
          "durationTicks": 57,
          "midi": 61,
          "name": "C#4",
          "ticks": 26100,
          "time": 59.3181225,
          "velocity": 0.5196850393700787
        },
        {
          "duration": 0.12954532499999516,
          "durationTicks": 57,
          "midi": 60,
          "name": "C4",
          "ticks": 26160,
          "time": 59.454486,
          "velocity": 0.5196850393700787
        },
        {
          "duration": 0.12954532500000226,
          "durationTicks": 57,
          "midi": 61,
          "name": "C#4",
          "ticks": 26220,
          "time": 59.5908495,
          "velocity": 0.5196850393700787
        },
        {
          "duration": 0.12954532500000226,
          "durationTicks": 57,
          "midi": 61,
          "name": "C#4",
          "ticks": 26280,
          "time": 59.727213,
          "velocity": 0.5196850393700787
        },
        {
          "duration": 0.12954532499999516,
          "durationTicks": 57,
          "midi": 61,
          "name": "C#4",
          "ticks": 26340,
          "time": 59.8635765,
          "velocity": 0.5196850393700787
        },
        {
          "duration": 0.12954532499999516,
          "durationTicks": 57,
          "midi": 61,
          "name": "C#4",
          "ticks": 26400,
          "time": 59.99994,
          "velocity": 0.5196850393700787
        },
        {
          "duration": 0.12954532500000226,
          "durationTicks": 57,
          "midi": 62,
          "name": "D4",
          "ticks": 26520,
          "time": 60.272667,
          "velocity": 0.5196850393700787
        },
        {
          "duration": 0.12954532499999516,
          "durationTicks": 57,
          "midi": 61,
          "name": "C#4",
          "ticks": 26580,
          "time": 60.4090305,
          "velocity": 0.5196850393700787
        },
        {
          "duration": 0.12954532499999516,
          "durationTicks": 57,
          "midi": 61,
          "name": "C#4",
          "ticks": 26640,
          "time": 60.545394,
          "velocity": 0.5196850393700787
        },
        {
          "duration": 0.12954532500000226,
          "durationTicks": 57,
          "midi": 62,
          "name": "D4",
          "ticks": 26700,
          "time": 60.681757499999996,
          "velocity": 0.5196850393700787
        },
        {
          "duration": 0.12954532500000226,
          "durationTicks": 57,
          "midi": 61,
          "name": "C#4",
          "ticks": 26760,
          "time": 60.818121,
          "velocity": 0.5196850393700787
        },
        {
          "duration": 0.12954532499999516,
          "durationTicks": 57,
          "midi": 61,
          "name": "C#4",
          "ticks": 26820,
          "time": 60.9544845,
          "velocity": 0.5196850393700787
        },
        {
          "duration": 0.12954532499999516,
          "durationTicks": 57,
          "midi": 61,
          "name": "C#4",
          "ticks": 28320,
          "time": 64.363572,
          "velocity": 0.5196850393700787
        },
        {
          "duration": 0.12954532500000937,
          "durationTicks": 57,
          "midi": 62,
          "name": "D4",
          "ticks": 28440,
          "time": 64.636299,
          "velocity": 0.5196850393700787
        },
        {
          "duration": 0.12954532499999516,
          "durationTicks": 57,
          "midi": 61,
          "name": "C#4",
          "ticks": 28500,
          "time": 64.7726625,
          "velocity": 0.5196850393700787
        },
        {
          "duration": 0.12954532499999516,
          "durationTicks": 57,
          "midi": 61,
          "name": "C#4",
          "ticks": 28560,
          "time": 64.909026,
          "velocity": 0.5196850393700787
        },
        {
          "duration": 0.12954532499999516,
          "durationTicks": 57,
          "midi": 62,
          "name": "D4",
          "ticks": 28620,
          "time": 65.0453895,
          "velocity": 0.5196850393700787
        },
        {
          "duration": 0.12954532499999516,
          "durationTicks": 57,
          "midi": 61,
          "name": "C#4",
          "ticks": 28680,
          "time": 65.181753,
          "velocity": 0.5196850393700787
        },
        {
          "duration": 0.12954532499999516,
          "durationTicks": 57,
          "midi": 61,
          "name": "C#4",
          "ticks": 28740,
          "time": 65.3181165,
          "velocity": 0.5196850393700787
        },
        {
          "duration": 0.12954532499999516,
          "durationTicks": 57,
          "midi": 62,
          "name": "D4",
          "ticks": 28800,
          "time": 65.45448,
          "velocity": 0.5196850393700787
        },
        {
          "duration": 0.12954532499999516,
          "durationTicks": 57,
          "midi": 61,
          "name": "C#4",
          "ticks": 28860,
          "time": 65.5908435,
          "velocity": 0.5196850393700787
        },
        {
          "duration": 0.12954532500000937,
          "durationTicks": 57,
          "midi": 61,
          "name": "C#4",
          "ticks": 28920,
          "time": 65.72720699999999,
          "velocity": 0.5196850393700787
        },
        {
          "duration": 0.12954532500000937,
          "durationTicks": 57,
          "midi": 61,
          "name": "C#4",
          "ticks": 28980,
          "time": 65.8635705,
          "velocity": 0.5196850393700787
        },
        {
          "duration": 0.12954532499999516,
          "durationTicks": 57,
          "midi": 60,
          "name": "C4",
          "ticks": 29040,
          "time": 65.999934,
          "velocity": 0.5196850393700787
        },
        {
          "duration": 0.12954532499999516,
          "durationTicks": 57,
          "midi": 61,
          "name": "C#4",
          "ticks": 29100,
          "time": 66.1362975,
          "velocity": 0.5196850393700787
        },
        {
          "duration": 0.12954532499999516,
          "durationTicks": 57,
          "midi": 61,
          "name": "C#4",
          "ticks": 29160,
          "time": 66.272661,
          "velocity": 0.5196850393700787
        },
        {
          "duration": 0.12954532499999516,
          "durationTicks": 57,
          "midi": 61,
          "name": "C#4",
          "ticks": 29220,
          "time": 66.4090245,
          "velocity": 0.5196850393700787
        },
        {
          "duration": 0.12954532499999516,
          "durationTicks": 57,
          "midi": 61,
          "name": "C#4",
          "ticks": 29280,
          "time": 66.545388,
          "velocity": 0.5196850393700787
        },
        {
          "duration": 0.12954532499999516,
          "durationTicks": 57,
          "midi": 62,
          "name": "D4",
          "ticks": 29400,
          "time": 66.818115,
          "velocity": 0.5196850393700787
        },
        {
          "duration": 0.12954532500000937,
          "durationTicks": 57,
          "midi": 61,
          "name": "C#4",
          "ticks": 29460,
          "time": 66.9544785,
          "velocity": 0.5196850393700787
        },
        {
          "duration": 0.12954532500000937,
          "durationTicks": 57,
          "midi": 61,
          "name": "C#4",
          "ticks": 29520,
          "time": 67.090842,
          "velocity": 0.5196850393700787
        },
        {
          "duration": 0.12954532499999516,
          "durationTicks": 57,
          "midi": 62,
          "name": "D4",
          "ticks": 29580,
          "time": 67.2272055,
          "velocity": 0.5196850393700787
        },
        {
          "duration": 0.12954532499999516,
          "durationTicks": 57,
          "midi": 61,
          "name": "C#4",
          "ticks": 29640,
          "time": 67.363569,
          "velocity": 0.5196850393700787
        },
        {
          "duration": 0.12954532499999516,
          "durationTicks": 57,
          "midi": 61,
          "name": "C#4",
          "ticks": 29700,
          "time": 67.4999325,
          "velocity": 0.5196850393700787
        },
        {
          "duration": 0.12954532500000937,
          "durationTicks": 57,
          "midi": 61,
          "name": "C#4",
          "ticks": 31680,
          "time": 71.999928,
          "velocity": 0.5196850393700787
        },
        {
          "duration": 0.12954532500000937,
          "durationTicks": 57,
          "midi": 62,
          "name": "D4",
          "ticks": 31800,
          "time": 72.272655,
          "velocity": 0.5196850393700787
        },
        {
          "duration": 0.12954532500000937,
          "durationTicks": 57,
          "midi": 61,
          "name": "C#4",
          "ticks": 31860,
          "time": 72.4090185,
          "velocity": 0.5196850393700787
        },
        {
          "duration": 0.12954532499999516,
          "durationTicks": 57,
          "midi": 61,
          "name": "C#4",
          "ticks": 31920,
          "time": 72.545382,
          "velocity": 0.5196850393700787
        },
        {
          "duration": 0.12954532499999516,
          "durationTicks": 57,
          "midi": 62,
          "name": "D4",
          "ticks": 31980,
          "time": 72.6817455,
          "velocity": 0.5196850393700787
        },
        {
          "duration": 0.12954532500000937,
          "durationTicks": 57,
          "midi": 61,
          "name": "C#4",
          "ticks": 32040,
          "time": 72.81810899999999,
          "velocity": 0.5196850393700787
        },
        {
          "duration": 0.12954532500000937,
          "durationTicks": 57,
          "midi": 61,
          "name": "C#4",
          "ticks": 32100,
          "time": 72.9544725,
          "velocity": 0.5196850393700787
        },
        {
          "duration": 0.12954532500000937,
          "durationTicks": 57,
          "midi": 62,
          "name": "D4",
          "ticks": 32160,
          "time": 73.090836,
          "velocity": 0.5196850393700787
        },
        {
          "duration": 0.12954532500000937,
          "durationTicks": 57,
          "midi": 61,
          "name": "C#4",
          "ticks": 32220,
          "time": 73.2271995,
          "velocity": 0.5196850393700787
        },
        {
          "duration": 0.12954532500000937,
          "durationTicks": 57,
          "midi": 61,
          "name": "C#4",
          "ticks": 32280,
          "time": 73.363563,
          "velocity": 0.5196850393700787
        },
        {
          "duration": 0.12954532500000937,
          "durationTicks": 57,
          "midi": 61,
          "name": "C#4",
          "ticks": 32340,
          "time": 73.4999265,
          "velocity": 0.5196850393700787
        },
        {
          "duration": 0.12954532500000937,
          "durationTicks": 57,
          "midi": 60,
          "name": "C4",
          "ticks": 32400,
          "time": 73.63629,
          "velocity": 0.5196850393700787
        },
        {
          "duration": 0.12954532499999516,
          "durationTicks": 57,
          "midi": 61,
          "name": "C#4",
          "ticks": 32460,
          "time": 73.7726535,
          "velocity": 0.5196850393700787
        },
        {
          "duration": 0.12954532499999516,
          "durationTicks": 57,
          "midi": 61,
          "name": "C#4",
          "ticks": 32520,
          "time": 73.909017,
          "velocity": 0.5196850393700787
        },
        {
          "duration": 0.12954532500000937,
          "durationTicks": 57,
          "midi": 61,
          "name": "C#4",
          "ticks": 32580,
          "time": 74.0453805,
          "velocity": 0.5196850393700787
        },
        {
          "duration": 0.12954532500000937,
          "durationTicks": 57,
          "midi": 61,
          "name": "C#4",
          "ticks": 32640,
          "time": 74.181744,
          "velocity": 0.5196850393700787
        },
        {
          "duration": 0.12954532500000937,
          "durationTicks": 57,
          "midi": 62,
          "name": "D4",
          "ticks": 32760,
          "time": 74.454471,
          "velocity": 0.5196850393700787
        },
        {
          "duration": 0.12954532500000937,
          "durationTicks": 57,
          "midi": 61,
          "name": "C#4",
          "ticks": 32820,
          "time": 74.5908345,
          "velocity": 0.5196850393700787
        },
        {
          "duration": 0.12954532500000937,
          "durationTicks": 57,
          "midi": 61,
          "name": "C#4",
          "ticks": 32880,
          "time": 74.727198,
          "velocity": 0.5196850393700787
        },
        {
          "duration": 0.12954532500000937,
          "durationTicks": 57,
          "midi": 62,
          "name": "D4",
          "ticks": 32940,
          "time": 74.8635615,
          "velocity": 0.5196850393700787
        },
        {
          "duration": 0.12954532499999516,
          "durationTicks": 57,
          "midi": 61,
          "name": "C#4",
          "ticks": 33000,
          "time": 74.999925,
          "velocity": 0.5196850393700787
        },
        {
          "duration": 0.12954532499999516,
          "durationTicks": 57,
          "midi": 61,
          "name": "C#4",
          "ticks": 33060,
          "time": 75.1362885,
          "velocity": 0.5196850393700787
        },
        {
          "duration": 0.12954532500000937,
          "durationTicks": 57,
          "midi": 62,
          "name": "D4",
          "ticks": 33120,
          "time": 75.272652,
          "velocity": 0.5196850393700787
        },
        {
          "duration": 0.12954532500000937,
          "durationTicks": 57,
          "midi": 61,
          "name": "C#4",
          "ticks": 33180,
          "time": 75.4090155,
          "velocity": 0.5196850393700787
        },
        {
          "duration": 0.12954532500000937,
          "durationTicks": 57,
          "midi": 61,
          "name": "C#4",
          "ticks": 33240,
          "time": 75.545379,
          "velocity": 0.5196850393700787
        },
        {
          "duration": 0.12954532500000937,
          "durationTicks": 57,
          "midi": 61,
          "name": "C#4",
          "ticks": 33300,
          "time": 75.6817425,
          "velocity": 0.5196850393700787
        },
        {
          "duration": 0.12954532500000937,
          "durationTicks": 57,
          "midi": 60,
          "name": "C4",
          "ticks": 33360,
          "time": 75.818106,
          "velocity": 0.5196850393700787
        },
        {
          "duration": 0.12954532500000937,
          "durationTicks": 57,
          "midi": 61,
          "name": "C#4",
          "ticks": 33420,
          "time": 75.9544695,
          "velocity": 0.5196850393700787
        },
        {
          "duration": 0.12954532499999516,
          "durationTicks": 57,
          "midi": 61,
          "name": "C#4",
          "ticks": 33480,
          "time": 76.090833,
          "velocity": 0.5196850393700787
        },
        {
          "duration": 0.12954532499999516,
          "durationTicks": 57,
          "midi": 61,
          "name": "C#4",
          "ticks": 33540,
          "time": 76.2271965,
          "velocity": 0.5196850393700787
        },
        {
          "duration": 0.12954532499999516,
          "durationTicks": 57,
          "midi": 61,
          "name": "C#4",
          "ticks": 34560,
          "time": 78.545376,
          "velocity": 0.5196850393700787
        },
        {
          "duration": 0.12954532500000937,
          "durationTicks": 57,
          "midi": 62,
          "name": "D4",
          "ticks": 34680,
          "time": 78.818103,
          "velocity": 0.5196850393700787
        },
        {
          "duration": 0.12954532500000937,
          "durationTicks": 57,
          "midi": 61,
          "name": "C#4",
          "ticks": 34740,
          "time": 78.9544665,
          "velocity": 0.5196850393700787
        },
        {
          "duration": 0.12954532500000937,
          "durationTicks": 57,
          "midi": 61,
          "name": "C#4",
          "ticks": 34800,
          "time": 79.09083,
          "velocity": 0.5196850393700787
        },
        {
          "duration": 0.12954532500000937,
          "durationTicks": 57,
          "midi": 62,
          "name": "D4",
          "ticks": 34860,
          "time": 79.2271935,
          "velocity": 0.5196850393700787
        },
        {
          "duration": 0.12954532500000937,
          "durationTicks": 57,
          "midi": 61,
          "name": "C#4",
          "ticks": 34920,
          "time": 79.363557,
          "velocity": 0.5196850393700787
        },
        {
          "duration": 0.12954532500000937,
          "durationTicks": 57,
          "midi": 61,
          "name": "C#4",
          "ticks": 34980,
          "time": 79.4999205,
          "velocity": 0.5196850393700787
        },
        {
          "duration": 0.12954532499999516,
          "durationTicks": 57,
          "midi": 62,
          "name": "D4",
          "ticks": 35040,
          "time": 79.636284,
          "velocity": 0.5196850393700787
        },
        {
          "duration": 0.12954532499999516,
          "durationTicks": 57,
          "midi": 61,
          "name": "C#4",
          "ticks": 35100,
          "time": 79.7726475,
          "velocity": 0.5196850393700787
        },
        {
          "duration": 0.12954532500000937,
          "durationTicks": 57,
          "midi": 61,
          "name": "C#4",
          "ticks": 35160,
          "time": 79.90901099999999,
          "velocity": 0.5196850393700787
        },
        {
          "duration": 0.12954532500000937,
          "durationTicks": 57,
          "midi": 61,
          "name": "C#4",
          "ticks": 35220,
          "time": 80.0453745,
          "velocity": 0.5196850393700787
        },
        {
          "duration": 0.12954532500000937,
          "durationTicks": 57,
          "midi": 60,
          "name": "C4",
          "ticks": 35280,
          "time": 80.181738,
          "velocity": 0.5196850393700787
        },
        {
          "duration": 0.12954532500000937,
          "durationTicks": 57,
          "midi": 61,
          "name": "C#4",
          "ticks": 35340,
          "time": 80.3181015,
          "velocity": 0.5196850393700787
        },
        {
          "duration": 0.12954532500000937,
          "durationTicks": 57,
          "midi": 61,
          "name": "C#4",
          "ticks": 35400,
          "time": 80.454465,
          "velocity": 0.5196850393700787
        },
        {
          "duration": 0.12954532500000937,
          "durationTicks": 57,
          "midi": 61,
          "name": "C#4",
          "ticks": 35460,
          "time": 80.5908285,
          "velocity": 0.5196850393700787
        },
        {
          "duration": 0.12954532500000937,
          "durationTicks": 57,
          "midi": 61,
          "name": "C#4",
          "ticks": 35520,
          "time": 80.727192,
          "velocity": 0.5196850393700787
        },
        {
          "duration": 0.12954532499999516,
          "durationTicks": 57,
          "midi": 62,
          "name": "D4",
          "ticks": 35640,
          "time": 80.999919,
          "velocity": 0.5196850393700787
        },
        {
          "duration": 0.12954532500000937,
          "durationTicks": 57,
          "midi": 61,
          "name": "C#4",
          "ticks": 35700,
          "time": 81.1362825,
          "velocity": 0.5196850393700787
        },
        {
          "duration": 0.12954532500000937,
          "durationTicks": 57,
          "midi": 61,
          "name": "C#4",
          "ticks": 35760,
          "time": 81.272646,
          "velocity": 0.5196850393700787
        },
        {
          "duration": 0.12954532500000937,
          "durationTicks": 57,
          "midi": 62,
          "name": "D4",
          "ticks": 35820,
          "time": 81.4090095,
          "velocity": 0.5196850393700787
        },
        {
          "duration": 0.12954532500000937,
          "durationTicks": 57,
          "midi": 61,
          "name": "C#4",
          "ticks": 35880,
          "time": 81.545373,
          "velocity": 0.5196850393700787
        },
        {
          "duration": 0.12954532500000937,
          "durationTicks": 57,
          "midi": 61,
          "name": "C#4",
          "ticks": 35940,
          "time": 81.6817365,
          "velocity": 0.5196850393700787
        },
        {
          "duration": 0.12954532500000937,
          "durationTicks": 57,
          "midi": 62,
          "name": "D4",
          "ticks": 36000,
          "time": 81.8181,
          "velocity": 0.5196850393700787
        },
        {
          "duration": 0.12954532500000937,
          "durationTicks": 57,
          "midi": 61,
          "name": "C#4",
          "ticks": 36060,
          "time": 81.9544635,
          "velocity": 0.5196850393700787
        },
        {
          "duration": 0.12954532499999516,
          "durationTicks": 57,
          "midi": 61,
          "name": "C#4",
          "ticks": 36120,
          "time": 82.090827,
          "velocity": 0.5196850393700787
        },
        {
          "duration": 0.12954532499999516,
          "durationTicks": 57,
          "midi": 61,
          "name": "C#4",
          "ticks": 36180,
          "time": 82.2271905,
          "velocity": 0.5196850393700787
        },
        {
          "duration": 0.12954532500000937,
          "durationTicks": 57,
          "midi": 60,
          "name": "C4",
          "ticks": 36240,
          "time": 82.363554,
          "velocity": 0.5196850393700787
        },
        {
          "duration": 0.12954532500000937,
          "durationTicks": 57,
          "midi": 61,
          "name": "C#4",
          "ticks": 36300,
          "time": 82.4999175,
          "velocity": 0.5196850393700787
        },
        {
          "duration": 0.12954532500000937,
          "durationTicks": 57,
          "midi": 61,
          "name": "C#4",
          "ticks": 36360,
          "time": 82.636281,
          "velocity": 0.5196850393700787
        },
        {
          "duration": 0.12954532500000937,
          "durationTicks": 57,
          "midi": 61,
          "name": "C#4",
          "ticks": 36420,
          "time": 82.7726445,
          "velocity": 0.5196850393700787
        }
      ]
    },
    {
      "channel": 0,
      "controlChanges": {
        "0": [
          {
            "number": 0,
            "ticks": 0,
            "time": 0,
            "value": 0
          }
        ],
        "32": [
          {
            "number": 32,
            "ticks": 0,
            "time": 0,
            "value": 0
          }
        ]
      },
      "pitchBends": [],
      "instrument": {
        "family": "piano",
        "number": 0,
        "name": "acoustic grand piano"
      },
      "name": "GtrJazz",
      "notes": [],
      "endOfTrackTicks": 34557
    },
    {
      "channel": 3,
      "controlChanges": {
        "7": [
          {
            "number": 7,
            "ticks": 0,
            "time": 0,
            "value": 0.7874015748031497
          }
        ]
      },
      "pitchBends": [],
      "instrument": {
        "family": "guitar",
        "number": 26,
        "name": "electric guitar (jazz)"
      },
      "name": "",
      "notes": [
        {
          "duration": 0.1295453249999996,
          "durationTicks": 57,
          "midi": 59,
          "name": "B3",
          "ticks": 2880,
          "time": 6.545448,
          "velocity": 0.5196850393700787
        },
        {
          "duration": 0.1295453250000005,
          "durationTicks": 57,
          "midi": 60,
          "name": "C4",
          "ticks": 3000,
          "time": 6.818175,
          "velocity": 0.5196850393700787
        },
        {
          "duration": 0.1295453250000005,
          "durationTicks": 57,
          "midi": 59,
          "name": "B3",
          "ticks": 3060,
          "time": 6.9545385,
          "velocity": 0.5196850393700787
        },
        {
          "duration": 0.1295453250000005,
          "durationTicks": 57,
          "midi": 59,
          "name": "B3",
          "ticks": 3120,
          "time": 7.090902,
          "velocity": 0.5196850393700787
        },
        {
          "duration": 0.1295453250000005,
          "durationTicks": 57,
          "midi": 60,
          "name": "C4",
          "ticks": 3180,
          "time": 7.2272655,
          "velocity": 0.5196850393700787
        },
        {
          "duration": 0.1295453250000005,
          "durationTicks": 57,
          "midi": 59,
          "name": "B3",
          "ticks": 3240,
          "time": 7.3636289999999995,
          "velocity": 0.5196850393700787
        },
        {
          "duration": 0.1295453249999996,
          "durationTicks": 57,
          "midi": 59,
          "name": "B3",
          "ticks": 3300,
          "time": 7.4999925,
          "velocity": 0.5196850393700787
        },
        {
          "duration": 0.1295453250000005,
          "durationTicks": 57,
          "midi": 60,
          "name": "C4",
          "ticks": 3360,
          "time": 7.636356,
          "velocity": 0.5196850393700787
        },
        {
          "duration": 0.1295453250000005,
          "durationTicks": 57,
          "midi": 59,
          "name": "B3",
          "ticks": 3420,
          "time": 7.7727195,
          "velocity": 0.5196850393700787
        },
        {
          "duration": 0.1295453249999996,
          "durationTicks": 57,
          "midi": 59,
          "name": "B3",
          "ticks": 3480,
          "time": 7.909083,
          "velocity": 0.5196850393700787
        },
        {
          "duration": 0.1295453250000005,
          "durationTicks": 57,
          "midi": 59,
          "name": "B3",
          "ticks": 3540,
          "time": 8.0454465,
          "velocity": 0.5196850393700787
        },
        {
          "duration": 0.1295453250000005,
          "durationTicks": 57,
          "midi": 58,
          "name": "A#3",
          "ticks": 3600,
          "time": 8.18181,
          "velocity": 0.5196850393700787
        },
        {
          "duration": 0.1295453250000005,
          "durationTicks": 57,
          "midi": 59,
          "name": "B3",
          "ticks": 3660,
          "time": 8.3181735,
          "velocity": 0.5196850393700787
        },
        {
          "duration": 0.1295453250000005,
          "durationTicks": 57,
          "midi": 59,
          "name": "B3",
          "ticks": 3720,
          "time": 8.454537,
          "velocity": 0.5196850393700787
        },
        {
          "duration": 0.1295453250000005,
          "durationTicks": 57,
          "midi": 59,
          "name": "B3",
          "ticks": 3780,
          "time": 8.5909005,
          "velocity": 0.5196850393700787
        },
        {
          "duration": 0.1295453250000005,
          "durationTicks": 57,
          "midi": 59,
          "name": "B3",
          "ticks": 3840,
          "time": 8.727264,
          "velocity": 0.5196850393700787
        },
        {
          "duration": 0.1295453250000005,
          "durationTicks": 57,
          "midi": 60,
          "name": "C4",
          "ticks": 3960,
          "time": 8.999991,
          "velocity": 0.5196850393700787
        },
        {
          "duration": 0.1295453250000005,
          "durationTicks": 57,
          "midi": 59,
          "name": "B3",
          "ticks": 4020,
          "time": 9.1363545,
          "velocity": 0.5196850393700787
        },
        {
          "duration": 0.1295453250000005,
          "durationTicks": 57,
          "midi": 59,
          "name": "B3",
          "ticks": 4080,
          "time": 9.272718,
          "velocity": 0.5196850393700787
        },
        {
          "duration": 0.1295453250000005,
          "durationTicks": 57,
          "midi": 60,
          "name": "C4",
          "ticks": 4140,
          "time": 9.4090815,
          "velocity": 0.5196850393700787
        },
        {
          "duration": 0.1295453250000005,
          "durationTicks": 57,
          "midi": 59,
          "name": "B3",
          "ticks": 4200,
          "time": 9.545444999999999,
          "velocity": 0.5196850393700787
        },
        {
          "duration": 0.1295453249999987,
          "durationTicks": 57,
          "midi": 59,
          "name": "B3",
          "ticks": 4260,
          "time": 9.6818085,
          "velocity": 0.5196850393700787
        },
        {
          "duration": 0.1295453250000005,
          "durationTicks": 57,
          "midi": 60,
          "name": "C4",
          "ticks": 4320,
          "time": 9.818172,
          "velocity": 0.5196850393700787
        },
        {
          "duration": 0.1295453250000005,
          "durationTicks": 57,
          "midi": 59,
          "name": "B3",
          "ticks": 4380,
          "time": 9.9545355,
          "velocity": 0.5196850393700787
        },
        {
          "duration": 0.1295453250000005,
          "durationTicks": 57,
          "midi": 59,
          "name": "B3",
          "ticks": 4440,
          "time": 10.090899,
          "velocity": 0.5196850393700787
        },
        {
          "duration": 0.1295453250000005,
          "durationTicks": 57,
          "midi": 59,
          "name": "B3",
          "ticks": 4500,
          "time": 10.2272625,
          "velocity": 0.5196850393700787
        },
        {
          "duration": 0.1295453250000005,
          "durationTicks": 57,
          "midi": 58,
          "name": "A#3",
          "ticks": 4560,
          "time": 10.363626,
          "velocity": 0.5196850393700787
        },
        {
          "duration": 0.1295453250000005,
          "durationTicks": 57,
          "midi": 59,
          "name": "B3",
          "ticks": 4620,
          "time": 10.4999895,
          "velocity": 0.5196850393700787
        },
        {
          "duration": 0.1295453250000005,
          "durationTicks": 57,
          "midi": 59,
          "name": "B3",
          "ticks": 4680,
          "time": 10.636353,
          "velocity": 0.5196850393700787
        },
        {
          "duration": 0.1295453250000005,
          "durationTicks": 57,
          "midi": 59,
          "name": "B3",
          "ticks": 4740,
          "time": 10.7727165,
          "velocity": 0.5196850393700787
        },
        {
          "duration": 0.1295453250000005,
          "durationTicks": 57,
          "midi": 59,
          "name": "B3",
          "ticks": 6720,
          "time": 15.272712,
          "velocity": 0.5196850393700787
        },
        {
          "duration": 0.1295453250000005,
          "durationTicks": 57,
          "midi": 60,
          "name": "C4",
          "ticks": 6840,
          "time": 15.545439,
          "velocity": 0.5196850393700787
        },
        {
          "duration": 0.1295453250000005,
          "durationTicks": 57,
          "midi": 59,
          "name": "B3",
          "ticks": 6900,
          "time": 15.6818025,
          "velocity": 0.5196850393700787
        },
        {
          "duration": 0.1295453250000005,
          "durationTicks": 57,
          "midi": 59,
          "name": "B3",
          "ticks": 6960,
          "time": 15.818166,
          "velocity": 0.5196850393700787
        },
        {
          "duration": 0.12954532500000226,
          "durationTicks": 57,
          "midi": 60,
          "name": "C4",
          "ticks": 7020,
          "time": 15.9545295,
          "velocity": 0.5196850393700787
        },
        {
          "duration": 0.1295453249999987,
          "durationTicks": 57,
          "midi": 59,
          "name": "B3",
          "ticks": 7080,
          "time": 16.090893,
          "velocity": 0.5196850393700787
        },
        {
          "duration": 0.12954532500000226,
          "durationTicks": 57,
          "midi": 59,
          "name": "B3",
          "ticks": 7140,
          "time": 16.2272565,
          "velocity": 0.5196850393700787
        },
        {
          "duration": 0.1295453249999987,
          "durationTicks": 57,
          "midi": 60,
          "name": "C4",
          "ticks": 7200,
          "time": 16.36362,
          "velocity": 0.5196850393700787
        },
        {
          "duration": 0.12954532500000226,
          "durationTicks": 57,
          "midi": 59,
          "name": "B3",
          "ticks": 7260,
          "time": 16.4999835,
          "velocity": 0.5196850393700787
        },
        {
          "duration": 0.1295453249999987,
          "durationTicks": 57,
          "midi": 59,
          "name": "B3",
          "ticks": 7320,
          "time": 16.636347,
          "velocity": 0.5196850393700787
        },
        {
          "duration": 0.12954532500000226,
          "durationTicks": 57,
          "midi": 59,
          "name": "B3",
          "ticks": 7380,
          "time": 16.7727105,
          "velocity": 0.5196850393700787
        },
        {
          "duration": 0.1295453249999987,
          "durationTicks": 57,
          "midi": 58,
          "name": "A#3",
          "ticks": 7440,
          "time": 16.909074,
          "velocity": 0.5196850393700787
        },
        {
          "duration": 0.12954532500000226,
          "durationTicks": 57,
          "midi": 59,
          "name": "B3",
          "ticks": 7500,
          "time": 17.0454375,
          "velocity": 0.5196850393700787
        },
        {
          "duration": 0.1295453249999987,
          "durationTicks": 57,
          "midi": 59,
          "name": "B3",
          "ticks": 7560,
          "time": 17.181801,
          "velocity": 0.5196850393700787
        },
        {
          "duration": 0.12954532500000226,
          "durationTicks": 57,
          "midi": 59,
          "name": "B3",
          "ticks": 7620,
          "time": 17.318164499999998,
          "velocity": 0.5196850393700787
        },
        {
          "duration": 0.1295453249999987,
          "durationTicks": 57,
          "midi": 59,
          "name": "B3",
          "ticks": 7680,
          "time": 17.454528,
          "velocity": 0.5196850393700787
        },
        {
          "duration": 0.1295453249999987,
          "durationTicks": 57,
          "midi": 60,
          "name": "C4",
          "ticks": 7800,
          "time": 17.727255,
          "velocity": 0.5196850393700787
        },
        {
          "duration": 0.1295453249999987,
          "durationTicks": 57,
          "midi": 59,
          "name": "B3",
          "ticks": 7860,
          "time": 17.8636185,
          "velocity": 0.5196850393700787
        },
        {
          "duration": 0.1295453249999987,
          "durationTicks": 57,
          "midi": 59,
          "name": "B3",
          "ticks": 7920,
          "time": 17.999982,
          "velocity": 0.5196850393700787
        },
        {
          "duration": 0.1295453249999987,
          "durationTicks": 57,
          "midi": 60,
          "name": "C4",
          "ticks": 7980,
          "time": 18.1363455,
          "velocity": 0.5196850393700787
        },
        {
          "duration": 0.1295453249999987,
          "durationTicks": 57,
          "midi": 59,
          "name": "B3",
          "ticks": 8040,
          "time": 18.272709,
          "velocity": 0.5196850393700787
        },
        {
          "duration": 0.1295453249999987,
          "durationTicks": 57,
          "midi": 59,
          "name": "B3",
          "ticks": 8100,
          "time": 18.4090725,
          "velocity": 0.5196850393700787
        },
        {
          "duration": 0.1295453249999987,
          "durationTicks": 57,
          "midi": 60,
          "name": "C4",
          "ticks": 8160,
          "time": 18.545436,
          "velocity": 0.5196850393700787
        },
        {
          "duration": 0.1295453249999987,
          "durationTicks": 57,
          "midi": 59,
          "name": "B3",
          "ticks": 8220,
          "time": 18.6817995,
          "velocity": 0.5196850393700787
        },
        {
          "duration": 0.1295453249999987,
          "durationTicks": 57,
          "midi": 59,
          "name": "B3",
          "ticks": 8280,
          "time": 18.818163,
          "velocity": 0.5196850393700787
        },
        {
          "duration": 0.1295453249999987,
          "durationTicks": 57,
          "midi": 59,
          "name": "B3",
          "ticks": 8340,
          "time": 18.9545265,
          "velocity": 0.5196850393700787
        },
        {
          "duration": 0.1295453249999987,
          "durationTicks": 57,
          "midi": 58,
          "name": "A#3",
          "ticks": 8400,
          "time": 19.090889999999998,
          "velocity": 0.5196850393700787
        },
        {
          "duration": 0.1295453249999987,
          "durationTicks": 57,
          "midi": 59,
          "name": "B3",
          "ticks": 8460,
          "time": 19.2272535,
          "velocity": 0.5196850393700787
        },
        {
          "duration": 0.12954532499999516,
          "durationTicks": 57,
          "midi": 59,
          "name": "B3",
          "ticks": 8520,
          "time": 19.363617,
          "velocity": 0.5196850393700787
        },
        {
          "duration": 0.1295453249999987,
          "durationTicks": 57,
          "midi": 59,
          "name": "B3",
          "ticks": 8580,
          "time": 19.4999805,
          "velocity": 0.5196850393700787
        },
        {
          "duration": 0.1295453249999987,
          "durationTicks": 57,
          "midi": 59,
          "name": "B3",
          "ticks": 10560,
          "time": 23.999976,
          "velocity": 0.5196850393700787
        },
        {
          "duration": 0.1295453249999987,
          "durationTicks": 57,
          "midi": 60,
          "name": "C4",
          "ticks": 10680,
          "time": 24.272703,
          "velocity": 0.5196850393700787
        },
        {
          "duration": 0.1295453249999987,
          "durationTicks": 57,
          "midi": 59,
          "name": "B3",
          "ticks": 10740,
          "time": 24.409066499999998,
          "velocity": 0.5196850393700787
        },
        {
          "duration": 0.1295453249999987,
          "durationTicks": 57,
          "midi": 59,
          "name": "B3",
          "ticks": 10800,
          "time": 24.54543,
          "velocity": 0.5196850393700787
        },
        {
          "duration": 0.12954532499999516,
          "durationTicks": 57,
          "midi": 60,
          "name": "C4",
          "ticks": 10860,
          "time": 24.6817935,
          "velocity": 0.5196850393700787
        },
        {
          "duration": 0.1295453249999987,
          "durationTicks": 57,
          "midi": 59,
          "name": "B3",
          "ticks": 10920,
          "time": 24.818157,
          "velocity": 0.5196850393700787
        },
        {
          "duration": 0.1295453249999987,
          "durationTicks": 57,
          "midi": 59,
          "name": "B3",
          "ticks": 10980,
          "time": 24.9545205,
          "velocity": 0.5196850393700787
        },
        {
          "duration": 0.1295453249999987,
          "durationTicks": 57,
          "midi": 60,
          "name": "C4",
          "ticks": 11040,
          "time": 25.090884,
          "velocity": 0.5196850393700787
        },
        {
          "duration": 0.1295453249999987,
          "durationTicks": 57,
          "midi": 59,
          "name": "B3",
          "ticks": 11100,
          "time": 25.2272475,
          "velocity": 0.5196850393700787
        },
        {
          "duration": 0.1295453249999987,
          "durationTicks": 57,
          "midi": 59,
          "name": "B3",
          "ticks": 11160,
          "time": 25.363611,
          "velocity": 0.5196850393700787
        },
        {
          "duration": 0.1295453249999987,
          "durationTicks": 57,
          "midi": 59,
          "name": "B3",
          "ticks": 11220,
          "time": 25.4999745,
          "velocity": 0.5196850393700787
        },
        {
          "duration": 0.1295453249999987,
          "durationTicks": 57,
          "midi": 58,
          "name": "A#3",
          "ticks": 11280,
          "time": 25.636338,
          "velocity": 0.5196850393700787
        },
        {
          "duration": 0.1295453249999987,
          "durationTicks": 57,
          "midi": 59,
          "name": "B3",
          "ticks": 11340,
          "time": 25.7727015,
          "velocity": 0.5196850393700787
        },
        {
          "duration": 0.1295453249999987,
          "durationTicks": 57,
          "midi": 59,
          "name": "B3",
          "ticks": 11400,
          "time": 25.909065,
          "velocity": 0.5196850393700787
        },
        {
          "duration": 0.1295453249999987,
          "durationTicks": 57,
          "midi": 59,
          "name": "B3",
          "ticks": 11460,
          "time": 26.0454285,
          "velocity": 0.5196850393700787
        },
        {
          "duration": 0.12954532499999516,
          "durationTicks": 57,
          "midi": 59,
          "name": "B3",
          "ticks": 11520,
          "time": 26.181792,
          "velocity": 0.5196850393700787
        },
        {
          "duration": 0.1295453249999987,
          "durationTicks": 57,
          "midi": 60,
          "name": "C4",
          "ticks": 11640,
          "time": 26.454519,
          "velocity": 0.5196850393700787
        },
        {
          "duration": 0.1295453249999987,
          "durationTicks": 57,
          "midi": 59,
          "name": "B3",
          "ticks": 11700,
          "time": 26.5908825,
          "velocity": 0.5196850393700787
        },
        {
          "duration": 0.1295453249999987,
          "durationTicks": 57,
          "midi": 59,
          "name": "B3",
          "ticks": 11760,
          "time": 26.727246,
          "velocity": 0.5196850393700787
        },
        {
          "duration": 0.1295453249999987,
          "durationTicks": 57,
          "midi": 60,
          "name": "C4",
          "ticks": 11820,
          "time": 26.8636095,
          "velocity": 0.5196850393700787
        },
        {
          "duration": 0.1295453249999987,
          "durationTicks": 57,
          "midi": 59,
          "name": "B3",
          "ticks": 11880,
          "time": 26.999973,
          "velocity": 0.5196850393700787
        },
        {
          "duration": 0.1295453249999987,
          "durationTicks": 57,
          "midi": 59,
          "name": "B3",
          "ticks": 11940,
          "time": 27.1363365,
          "velocity": 0.5196850393700787
        },
        {
          "duration": 0.1295453249999987,
          "durationTicks": 57,
          "midi": 60,
          "name": "C4",
          "ticks": 12000,
          "time": 27.2727,
          "velocity": 0.5196850393700787
        },
        {
          "duration": 0.1295453249999987,
          "durationTicks": 57,
          "midi": 59,
          "name": "B3",
          "ticks": 12060,
          "time": 27.4090635,
          "velocity": 0.5196850393700787
        },
        {
          "duration": 0.1295453249999987,
          "durationTicks": 57,
          "midi": 59,
          "name": "B3",
          "ticks": 12120,
          "time": 27.545427,
          "velocity": 0.5196850393700787
        },
        {
          "duration": 0.1295453249999987,
          "durationTicks": 57,
          "midi": 59,
          "name": "B3",
          "ticks": 12180,
          "time": 27.681790499999998,
          "velocity": 0.5196850393700787
        },
        {
          "duration": 0.1295453249999987,
          "durationTicks": 57,
          "midi": 58,
          "name": "A#3",
          "ticks": 12240,
          "time": 27.818154,
          "velocity": 0.5196850393700787
        },
        {
          "duration": 0.12954532499999516,
          "durationTicks": 57,
          "midi": 59,
          "name": "B3",
          "ticks": 12300,
          "time": 27.9545175,
          "velocity": 0.5196850393700787
        },
        {
          "duration": 0.1295453249999987,
          "durationTicks": 57,
          "midi": 59,
          "name": "B3",
          "ticks": 12360,
          "time": 28.090881,
          "velocity": 0.5196850393700787
        },
        {
          "duration": 0.1295453249999987,
          "durationTicks": 57,
          "midi": 59,
          "name": "B3",
          "ticks": 12420,
          "time": 28.2272445,
          "velocity": 0.5196850393700787
        },
        {
          "duration": 0.12954532499999516,
          "durationTicks": 57,
          "midi": 59,
          "name": "B3",
          "ticks": 14880,
          "time": 33.818148,
          "velocity": 0.5196850393700787
        },
        {
          "duration": 0.12954532500000226,
          "durationTicks": 57,
          "midi": 60,
          "name": "C4",
          "ticks": 15000,
          "time": 34.090875,
          "velocity": 0.5196850393700787
        },
        {
          "duration": 0.12954532500000226,
          "durationTicks": 57,
          "midi": 59,
          "name": "B3",
          "ticks": 15060,
          "time": 34.2272385,
          "velocity": 0.5196850393700787
        },
        {
          "duration": 0.12954532499999516,
          "durationTicks": 57,
          "midi": 59,
          "name": "B3",
          "ticks": 15120,
          "time": 34.363602,
          "velocity": 0.5196850393700787
        },
        {
          "duration": 0.12954532499999516,
          "durationTicks": 57,
          "midi": 60,
          "name": "C4",
          "ticks": 15180,
          "time": 34.4999655,
          "velocity": 0.5196850393700787
        },
        {
          "duration": 0.12954532500000226,
          "durationTicks": 57,
          "midi": 59,
          "name": "B3",
          "ticks": 15240,
          "time": 34.636328999999996,
          "velocity": 0.5196850393700787
        },
        {
          "duration": 0.12954532500000226,
          "durationTicks": 57,
          "midi": 59,
          "name": "B3",
          "ticks": 15300,
          "time": 34.7726925,
          "velocity": 0.5196850393700787
        },
        {
          "duration": 0.12954532499999516,
          "durationTicks": 57,
          "midi": 60,
          "name": "C4",
          "ticks": 15360,
          "time": 34.909056,
          "velocity": 0.5196850393700787
        },
        {
          "duration": 0.12954532499999516,
          "durationTicks": 57,
          "midi": 59,
          "name": "B3",
          "ticks": 15420,
          "time": 35.0454195,
          "velocity": 0.5196850393700787
        },
        {
          "duration": 0.12954532499999516,
          "durationTicks": 57,
          "midi": 59,
          "name": "B3",
          "ticks": 15480,
          "time": 35.181783,
          "velocity": 0.5196850393700787
        },
        {
          "duration": 0.12954532500000226,
          "durationTicks": 57,
          "midi": 59,
          "name": "B3",
          "ticks": 15540,
          "time": 35.3181465,
          "velocity": 0.5196850393700787
        },
        {
          "duration": 0.12954532500000226,
          "durationTicks": 57,
          "midi": 58,
          "name": "A#3",
          "ticks": 15600,
          "time": 35.45451,
          "velocity": 0.5196850393700787
        },
        {
          "duration": 0.12954532499999516,
          "durationTicks": 57,
          "midi": 59,
          "name": "B3",
          "ticks": 15660,
          "time": 35.5908735,
          "velocity": 0.5196850393700787
        },
        {
          "duration": 0.12954532499999516,
          "durationTicks": 57,
          "midi": 59,
          "name": "B3",
          "ticks": 15720,
          "time": 35.727237,
          "velocity": 0.5196850393700787
        },
        {
          "duration": 0.12954532500000226,
          "durationTicks": 57,
          "midi": 59,
          "name": "B3",
          "ticks": 15780,
          "time": 35.8636005,
          "velocity": 0.5196850393700787
        },
        {
          "duration": 0.12954532500000226,
          "durationTicks": 57,
          "midi": 59,
          "name": "B3",
          "ticks": 15840,
          "time": 35.999964,
          "velocity": 0.5196850393700787
        },
        {
          "duration": 0.12954532499999516,
          "durationTicks": 57,
          "midi": 60,
          "name": "C4",
          "ticks": 15960,
          "time": 36.272691,
          "velocity": 0.5196850393700787
        },
        {
          "duration": 0.12954532500000226,
          "durationTicks": 57,
          "midi": 59,
          "name": "B3",
          "ticks": 16020,
          "time": 36.409054499999996,
          "velocity": 0.5196850393700787
        },
        {
          "duration": 0.12954532500000226,
          "durationTicks": 57,
          "midi": 59,
          "name": "B3",
          "ticks": 16080,
          "time": 36.545418,
          "velocity": 0.5196850393700787
        },
        {
          "duration": 0.12954532499999516,
          "durationTicks": 57,
          "midi": 60,
          "name": "C4",
          "ticks": 16140,
          "time": 36.6817815,
          "velocity": 0.5196850393700787
        },
        {
          "duration": 0.12954532499999516,
          "durationTicks": 57,
          "midi": 59,
          "name": "B3",
          "ticks": 16200,
          "time": 36.818145,
          "velocity": 0.5196850393700787
        },
        {
          "duration": 0.12954532499999516,
          "durationTicks": 57,
          "midi": 59,
          "name": "B3",
          "ticks": 16260,
          "time": 36.9545085,
          "velocity": 0.5196850393700787
        },
        {
          "duration": 0.12954532500000226,
          "durationTicks": 57,
          "midi": 60,
          "name": "C4",
          "ticks": 16320,
          "time": 37.090872,
          "velocity": 0.5196850393700787
        },
        {
          "duration": 0.12954532500000226,
          "durationTicks": 57,
          "midi": 59,
          "name": "B3",
          "ticks": 16380,
          "time": 37.2272355,
          "velocity": 0.5196850393700787
        },
        {
          "duration": 0.12954532499999516,
          "durationTicks": 57,
          "midi": 59,
          "name": "B3",
          "ticks": 16440,
          "time": 37.363599,
          "velocity": 0.5196850393700787
        },
        {
          "duration": 0.12954532499999516,
          "durationTicks": 57,
          "midi": 59,
          "name": "B3",
          "ticks": 16500,
          "time": 37.4999625,
          "velocity": 0.5196850393700787
        },
        {
          "duration": 0.12954532500000226,
          "durationTicks": 57,
          "midi": 58,
          "name": "A#3",
          "ticks": 16560,
          "time": 37.636326,
          "velocity": 0.5196850393700787
        },
        {
          "duration": 0.12954532500000226,
          "durationTicks": 57,
          "midi": 59,
          "name": "B3",
          "ticks": 16620,
          "time": 37.7726895,
          "velocity": 0.5196850393700787
        },
        {
          "duration": 0.12954532499999516,
          "durationTicks": 57,
          "midi": 59,
          "name": "B3",
          "ticks": 16680,
          "time": 37.909053,
          "velocity": 0.5196850393700787
        },
        {
          "duration": 0.12954532499999516,
          "durationTicks": 57,
          "midi": 59,
          "name": "B3",
          "ticks": 16740,
          "time": 38.0454165,
          "velocity": 0.5196850393700787
        },
        {
          "duration": 0.12954532500000226,
          "durationTicks": 57,
          "midi": 59,
          "name": "B3",
          "ticks": 19200,
          "time": 43.63632,
          "velocity": 0.5196850393700787
        },
        {
          "duration": 0.12954532499999516,
          "durationTicks": 57,
          "midi": 60,
          "name": "C4",
          "ticks": 19320,
          "time": 43.909047,
          "velocity": 0.5196850393700787
        },
        {
          "duration": 0.12954532499999516,
          "durationTicks": 57,
          "midi": 59,
          "name": "B3",
          "ticks": 19380,
          "time": 44.0454105,
          "velocity": 0.5196850393700787
        },
        {
          "duration": 0.12954532500000226,
          "durationTicks": 57,
          "midi": 59,
          "name": "B3",
          "ticks": 19440,
          "time": 44.181774,
          "velocity": 0.5196850393700787
        },
        {
          "duration": 0.12954532500000226,
          "durationTicks": 57,
          "midi": 60,
          "name": "C4",
          "ticks": 19500,
          "time": 44.3181375,
          "velocity": 0.5196850393700787
        },
        {
          "duration": 0.12954532499999516,
          "durationTicks": 57,
          "midi": 59,
          "name": "B3",
          "ticks": 19560,
          "time": 44.454501,
          "velocity": 0.5196850393700787
        },
        {
          "duration": 0.12954532499999516,
          "durationTicks": 57,
          "midi": 59,
          "name": "B3",
          "ticks": 19620,
          "time": 44.5908645,
          "velocity": 0.5196850393700787
        },
        {
          "duration": 0.12954532500000226,
          "durationTicks": 57,
          "midi": 60,
          "name": "C4",
          "ticks": 19680,
          "time": 44.727228,
          "velocity": 0.5196850393700787
        },
        {
          "duration": 0.12954532500000226,
          "durationTicks": 57,
          "midi": 59,
          "name": "B3",
          "ticks": 19740,
          "time": 44.8635915,
          "velocity": 0.5196850393700787
        },
        {
          "duration": 0.12954532499999516,
          "durationTicks": 57,
          "midi": 59,
          "name": "B3",
          "ticks": 19800,
          "time": 44.999955,
          "velocity": 0.5196850393700787
        },
        {
          "duration": 0.12954532499999516,
          "durationTicks": 57,
          "midi": 59,
          "name": "B3",
          "ticks": 19860,
          "time": 45.1363185,
          "velocity": 0.5196850393700787
        },
        {
          "duration": 0.12954532500000226,
          "durationTicks": 57,
          "midi": 58,
          "name": "A#3",
          "ticks": 19920,
          "time": 45.272681999999996,
          "velocity": 0.5196850393700787
        },
        {
          "duration": 0.12954532500000226,
          "durationTicks": 57,
          "midi": 59,
          "name": "B3",
          "ticks": 19980,
          "time": 45.4090455,
          "velocity": 0.5196850393700787
        },
        {
          "duration": 0.12954532499999516,
          "durationTicks": 57,
          "midi": 59,
          "name": "B3",
          "ticks": 20040,
          "time": 45.545409,
          "velocity": 0.5196850393700787
        },
        {
          "duration": 0.12954532499999516,
          "durationTicks": 57,
          "midi": 59,
          "name": "B3",
          "ticks": 20100,
          "time": 45.6817725,
          "velocity": 0.5196850393700787
        },
        {
          "duration": 0.12954532499999516,
          "durationTicks": 57,
          "midi": 59,
          "name": "B3",
          "ticks": 20160,
          "time": 45.818136,
          "velocity": 0.5196850393700787
        },
        {
          "duration": 0.12954532500000226,
          "durationTicks": 57,
          "midi": 60,
          "name": "C4",
          "ticks": 20280,
          "time": 46.090863,
          "velocity": 0.5196850393700787
        },
        {
          "duration": 0.12954532499999516,
          "durationTicks": 57,
          "midi": 59,
          "name": "B3",
          "ticks": 20340,
          "time": 46.2272265,
          "velocity": 0.5196850393700787
        },
        {
          "duration": 0.12954532499999516,
          "durationTicks": 57,
          "midi": 59,
          "name": "B3",
          "ticks": 20400,
          "time": 46.36359,
          "velocity": 0.5196850393700787
        },
        {
          "duration": 0.12954532500000226,
          "durationTicks": 57,
          "midi": 60,
          "name": "C4",
          "ticks": 20460,
          "time": 46.4999535,
          "velocity": 0.5196850393700787
        },
        {
          "duration": 0.12954532500000226,
          "durationTicks": 57,
          "midi": 59,
          "name": "B3",
          "ticks": 20520,
          "time": 46.636317,
          "velocity": 0.5196850393700787
        },
        {
          "duration": 0.12954532499999516,
          "durationTicks": 57,
          "midi": 59,
          "name": "B3",
          "ticks": 20580,
          "time": 46.7726805,
          "velocity": 0.5196850393700787
        },
        {
          "duration": 0.12954532499999516,
          "durationTicks": 57,
          "midi": 60,
          "name": "C4",
          "ticks": 20640,
          "time": 46.909044,
          "velocity": 0.5196850393700787
        },
        {
          "duration": 0.12954532500000226,
          "durationTicks": 57,
          "midi": 59,
          "name": "B3",
          "ticks": 20700,
          "time": 47.045407499999996,
          "velocity": 0.5196850393700787
        },
        {
          "duration": 0.12954532500000226,
          "durationTicks": 57,
          "midi": 59,
          "name": "B3",
          "ticks": 20760,
          "time": 47.181771,
          "velocity": 0.5196850393700787
        },
        {
          "duration": 0.12954532499999516,
          "durationTicks": 57,
          "midi": 59,
          "name": "B3",
          "ticks": 20820,
          "time": 47.3181345,
          "velocity": 0.5196850393700787
        },
        {
          "duration": 0.12954532499999516,
          "durationTicks": 57,
          "midi": 58,
          "name": "A#3",
          "ticks": 20880,
          "time": 47.454498,
          "velocity": 0.5196850393700787
        },
        {
          "duration": 0.12954532499999516,
          "durationTicks": 57,
          "midi": 59,
          "name": "B3",
          "ticks": 20940,
          "time": 47.5908615,
          "velocity": 0.5196850393700787
        },
        {
          "duration": 0.12954532500000226,
          "durationTicks": 57,
          "midi": 59,
          "name": "B3",
          "ticks": 21000,
          "time": 47.727225,
          "velocity": 0.5196850393700787
        },
        {
          "duration": 0.12954532500000226,
          "durationTicks": 57,
          "midi": 59,
          "name": "B3",
          "ticks": 21060,
          "time": 47.8635885,
          "velocity": 0.5196850393700787
        },
        {
          "duration": 0.12954532499999516,
          "durationTicks": 57,
          "midi": 59,
          "name": "B3",
          "ticks": 21120,
          "time": 47.999952,
          "velocity": 0.5196850393700787
        },
        {
          "duration": 0.12954532499999516,
          "durationTicks": 57,
          "midi": 59,
          "name": "B3",
          "ticks": 23520,
          "time": 53.454492,
          "velocity": 0.5196850393700787
        },
        {
          "duration": 0.12954532500000226,
          "durationTicks": 57,
          "midi": 60,
          "name": "C4",
          "ticks": 23640,
          "time": 53.727219,
          "velocity": 0.5196850393700787
        },
        {
          "duration": 0.12954532499999516,
          "durationTicks": 57,
          "midi": 59,
          "name": "B3",
          "ticks": 23700,
          "time": 53.8635825,
          "velocity": 0.5196850393700787
        },
        {
          "duration": 0.12954532499999516,
          "durationTicks": 57,
          "midi": 59,
          "name": "B3",
          "ticks": 23760,
          "time": 53.999946,
          "velocity": 0.5196850393700787
        },
        {
          "duration": 0.12954532499999516,
          "durationTicks": 57,
          "midi": 60,
          "name": "C4",
          "ticks": 23820,
          "time": 54.1363095,
          "velocity": 0.5196850393700787
        },
        {
          "duration": 0.12954532500000226,
          "durationTicks": 57,
          "midi": 59,
          "name": "B3",
          "ticks": 23880,
          "time": 54.272673,
          "velocity": 0.5196850393700787
        },
        {
          "duration": 0.12954532500000226,
          "durationTicks": 57,
          "midi": 59,
          "name": "B3",
          "ticks": 23940,
          "time": 54.4090365,
          "velocity": 0.5196850393700787
        },
        {
          "duration": 0.12954532499999516,
          "durationTicks": 57,
          "midi": 60,
          "name": "C4",
          "ticks": 24000,
          "time": 54.5454,
          "velocity": 0.5196850393700787
        },
        {
          "duration": 0.12954532499999516,
          "durationTicks": 57,
          "midi": 59,
          "name": "B3",
          "ticks": 24060,
          "time": 54.6817635,
          "velocity": 0.5196850393700787
        },
        {
          "duration": 0.12954532500000226,
          "durationTicks": 57,
          "midi": 59,
          "name": "B3",
          "ticks": 24120,
          "time": 54.818127,
          "velocity": 0.5196850393700787
        },
        {
          "duration": 0.12954532500000226,
          "durationTicks": 57,
          "midi": 59,
          "name": "B3",
          "ticks": 24180,
          "time": 54.9544905,
          "velocity": 0.5196850393700787
        },
        {
          "duration": 0.12954532499999516,
          "durationTicks": 57,
          "midi": 58,
          "name": "A#3",
          "ticks": 24240,
          "time": 55.090854,
          "velocity": 0.5196850393700787
        },
        {
          "duration": 0.12954532499999516,
          "durationTicks": 57,
          "midi": 59,
          "name": "B3",
          "ticks": 24300,
          "time": 55.2272175,
          "velocity": 0.5196850393700787
        },
        {
          "duration": 0.12954532500000226,
          "durationTicks": 57,
          "midi": 59,
          "name": "B3",
          "ticks": 24360,
          "time": 55.363580999999996,
          "velocity": 0.5196850393700787
        },
        {
          "duration": 0.12954532500000226,
          "durationTicks": 57,
          "midi": 59,
          "name": "B3",
          "ticks": 24420,
          "time": 55.4999445,
          "velocity": 0.5196850393700787
        },
        {
          "duration": 0.12954532499999516,
          "durationTicks": 57,
          "midi": 59,
          "name": "B3",
          "ticks": 24480,
          "time": 55.636308,
          "velocity": 0.5196850393700787
        },
        {
          "duration": 0.12954532499999516,
          "durationTicks": 57,
          "midi": 60,
          "name": "C4",
          "ticks": 24600,
          "time": 55.909035,
          "velocity": 0.5196850393700787
        },
        {
          "duration": 0.12954532500000226,
          "durationTicks": 57,
          "midi": 59,
          "name": "B3",
          "ticks": 24660,
          "time": 56.0453985,
          "velocity": 0.5196850393700787
        },
        {
          "duration": 0.12954532500000226,
          "durationTicks": 57,
          "midi": 59,
          "name": "B3",
          "ticks": 24720,
          "time": 56.181762,
          "velocity": 0.5196850393700787
        },
        {
          "duration": 0.12954532499999516,
          "durationTicks": 57,
          "midi": 60,
          "name": "C4",
          "ticks": 24780,
          "time": 56.3181255,
          "velocity": 0.5196850393700787
        },
        {
          "duration": 0.12954532499999516,
          "durationTicks": 57,
          "midi": 59,
          "name": "B3",
          "ticks": 24840,
          "time": 56.454489,
          "velocity": 0.5196850393700787
        },
        {
          "duration": 0.12954532500000226,
          "durationTicks": 57,
          "midi": 59,
          "name": "B3",
          "ticks": 24900,
          "time": 56.5908525,
          "velocity": 0.5196850393700787
        },
        {
          "duration": 0.12954532500000226,
          "durationTicks": 57,
          "midi": 60,
          "name": "C4",
          "ticks": 24960,
          "time": 56.727216,
          "velocity": 0.5196850393700787
        },
        {
          "duration": 0.12954532499999516,
          "durationTicks": 57,
          "midi": 59,
          "name": "B3",
          "ticks": 25020,
          "time": 56.8635795,
          "velocity": 0.5196850393700787
        },
        {
          "duration": 0.12954532499999516,
          "durationTicks": 57,
          "midi": 59,
          "name": "B3",
          "ticks": 25080,
          "time": 56.999943,
          "velocity": 0.5196850393700787
        },
        {
          "duration": 0.12954532500000226,
          "durationTicks": 57,
          "midi": 59,
          "name": "B3",
          "ticks": 25140,
          "time": 57.136306499999996,
          "velocity": 0.5196850393700787
        },
        {
          "duration": 0.12954532500000226,
          "durationTicks": 57,
          "midi": 58,
          "name": "A#3",
          "ticks": 25200,
          "time": 57.27267,
          "velocity": 0.5196850393700787
        },
        {
          "duration": 0.12954532499999516,
          "durationTicks": 57,
          "midi": 59,
          "name": "B3",
          "ticks": 25260,
          "time": 57.4090335,
          "velocity": 0.5196850393700787
        },
        {
          "duration": 0.12954532499999516,
          "durationTicks": 57,
          "midi": 59,
          "name": "B3",
          "ticks": 25320,
          "time": 57.545397,
          "velocity": 0.5196850393700787
        },
        {
          "duration": 0.12954532499999516,
          "durationTicks": 57,
          "midi": 59,
          "name": "B3",
          "ticks": 25380,
          "time": 57.6817605,
          "velocity": 0.5196850393700787
        },
        {
          "duration": 0.12954532499999516,
          "durationTicks": 57,
          "midi": 59,
          "name": "B3",
          "ticks": 26880,
          "time": 61.090848,
          "velocity": 0.5196850393700787
        },
        {
          "duration": 0.12954532500000226,
          "durationTicks": 57,
          "midi": 60,
          "name": "C4",
          "ticks": 27000,
          "time": 61.363575,
          "velocity": 0.5196850393700787
        },
        {
          "duration": 0.12954532500000226,
          "durationTicks": 57,
          "midi": 59,
          "name": "B3",
          "ticks": 27060,
          "time": 61.4999385,
          "velocity": 0.5196850393700787
        },
        {
          "duration": 0.12954532499999516,
          "durationTicks": 57,
          "midi": 59,
          "name": "B3",
          "ticks": 27120,
          "time": 61.636302,
          "velocity": 0.5196850393700787
        },
        {
          "duration": 0.12954532499999516,
          "durationTicks": 57,
          "midi": 60,
          "name": "C4",
          "ticks": 27180,
          "time": 61.7726655,
          "velocity": 0.5196850393700787
        },
        {
          "duration": 0.12954532500000226,
          "durationTicks": 57,
          "midi": 59,
          "name": "B3",
          "ticks": 27240,
          "time": 61.909029,
          "velocity": 0.5196850393700787
        },
        {
          "duration": 0.12954532500000226,
          "durationTicks": 57,
          "midi": 59,
          "name": "B3",
          "ticks": 27300,
          "time": 62.0453925,
          "velocity": 0.5196850393700787
        },
        {
          "duration": 0.12954532499999516,
          "durationTicks": 57,
          "midi": 60,
          "name": "C4",
          "ticks": 27360,
          "time": 62.181756,
          "velocity": 0.5196850393700787
        },
        {
          "duration": 0.12954532499999516,
          "durationTicks": 57,
          "midi": 59,
          "name": "B3",
          "ticks": 27420,
          "time": 62.3181195,
          "velocity": 0.5196850393700787
        },
        {
          "duration": 0.12954532500000226,
          "durationTicks": 57,
          "midi": 59,
          "name": "B3",
          "ticks": 27480,
          "time": 62.454482999999996,
          "velocity": 0.5196850393700787
        },
        {
          "duration": 0.12954532500000226,
          "durationTicks": 57,
          "midi": 59,
          "name": "B3",
          "ticks": 27540,
          "time": 62.5908465,
          "velocity": 0.5196850393700787
        },
        {
          "duration": 0.12954532499999516,
          "durationTicks": 57,
          "midi": 58,
          "name": "A#3",
          "ticks": 27600,
          "time": 62.72721,
          "velocity": 0.5196850393700787
        },
        {
          "duration": 0.12954532499999516,
          "durationTicks": 57,
          "midi": 59,
          "name": "B3",
          "ticks": 27660,
          "time": 62.8635735,
          "velocity": 0.5196850393700787
        },
        {
          "duration": 0.12954532499999516,
          "durationTicks": 57,
          "midi": 59,
          "name": "B3",
          "ticks": 27720,
          "time": 62.999937,
          "velocity": 0.5196850393700787
        },
        {
          "duration": 0.12954532500000226,
          "durationTicks": 57,
          "midi": 59,
          "name": "B3",
          "ticks": 27780,
          "time": 63.1363005,
          "velocity": 0.5196850393700787
        },
        {
          "duration": 0.12954532500000226,
          "durationTicks": 57,
          "midi": 59,
          "name": "B3",
          "ticks": 27840,
          "time": 63.272664,
          "velocity": 0.5196850393700787
        },
        {
          "duration": 0.12954532499999516,
          "durationTicks": 57,
          "midi": 60,
          "name": "C4",
          "ticks": 27960,
          "time": 63.545391,
          "velocity": 0.5196850393700787
        },
        {
          "duration": 0.12954532500000226,
          "durationTicks": 57,
          "midi": 59,
          "name": "B3",
          "ticks": 28020,
          "time": 63.6817545,
          "velocity": 0.5196850393700787
        },
        {
          "duration": 0.12954532500000226,
          "durationTicks": 57,
          "midi": 59,
          "name": "B3",
          "ticks": 28080,
          "time": 63.818118,
          "velocity": 0.5196850393700787
        },
        {
          "duration": 0.12954532499999516,
          "durationTicks": 57,
          "midi": 60,
          "name": "C4",
          "ticks": 28140,
          "time": 63.9544815,
          "velocity": 0.5196850393700787
        },
        {
          "duration": 0.12954532499999516,
          "durationTicks": 57,
          "midi": 59,
          "name": "B3",
          "ticks": 28200,
          "time": 64.090845,
          "velocity": 0.5196850393700787
        },
        {
          "duration": 0.12954532499999516,
          "durationTicks": 57,
          "midi": 59,
          "name": "B3",
          "ticks": 28260,
          "time": 64.2272085,
          "velocity": 0.5196850393700787
        },
        {
          "duration": 0.12954532499999516,
          "durationTicks": 57,
          "midi": 59,
          "name": "B3",
          "ticks": 29760,
          "time": 67.636296,
          "velocity": 0.5196850393700787
        },
        {
          "duration": 0.12954532499999516,
          "durationTicks": 57,
          "midi": 60,
          "name": "C4",
          "ticks": 29880,
          "time": 67.909023,
          "velocity": 0.5196850393700787
        },
        {
          "duration": 0.12954532500000937,
          "durationTicks": 57,
          "midi": 59,
          "name": "B3",
          "ticks": 29940,
          "time": 68.04538649999999,
          "velocity": 0.5196850393700787
        },
        {
          "duration": 0.12954532500000937,
          "durationTicks": 57,
          "midi": 59,
          "name": "B3",
          "ticks": 30000,
          "time": 68.18175,
          "velocity": 0.5196850393700787
        },
        {
          "duration": 0.12954532499999516,
          "durationTicks": 57,
          "midi": 60,
          "name": "C4",
          "ticks": 30060,
          "time": 68.3181135,
          "velocity": 0.5196850393700787
        },
        {
          "duration": 0.12954532499999516,
          "durationTicks": 57,
          "midi": 59,
          "name": "B3",
          "ticks": 30120,
          "time": 68.454477,
          "velocity": 0.5196850393700787
        },
        {
          "duration": 0.12954532499999516,
          "durationTicks": 57,
          "midi": 59,
          "name": "B3",
          "ticks": 30180,
          "time": 68.5908405,
          "velocity": 0.5196850393700787
        },
        {
          "duration": 0.12954532499999516,
          "durationTicks": 57,
          "midi": 60,
          "name": "C4",
          "ticks": 30240,
          "time": 68.727204,
          "velocity": 0.5196850393700787
        },
        {
          "duration": 0.12954532499999516,
          "durationTicks": 57,
          "midi": 59,
          "name": "B3",
          "ticks": 30300,
          "time": 68.8635675,
          "velocity": 0.5196850393700787
        },
        {
          "duration": 0.12954532499999516,
          "durationTicks": 57,
          "midi": 59,
          "name": "B3",
          "ticks": 30360,
          "time": 68.999931,
          "velocity": 0.5196850393700787
        },
        {
          "duration": 0.12954532499999516,
          "durationTicks": 57,
          "midi": 59,
          "name": "B3",
          "ticks": 30420,
          "time": 69.1362945,
          "velocity": 0.5196850393700787
        },
        {
          "duration": 0.12954532500000937,
          "durationTicks": 57,
          "midi": 58,
          "name": "A#3",
          "ticks": 30480,
          "time": 69.27265799999999,
          "velocity": 0.5196850393700787
        },
        {
          "duration": 0.12954532500000937,
          "durationTicks": 57,
          "midi": 59,
          "name": "B3",
          "ticks": 30540,
          "time": 69.4090215,
          "velocity": 0.5196850393700787
        },
        {
          "duration": 0.12954532499999516,
          "durationTicks": 57,
          "midi": 59,
          "name": "B3",
          "ticks": 30600,
          "time": 69.545385,
          "velocity": 0.5196850393700787
        },
        {
          "duration": 0.12954532499999516,
          "durationTicks": 57,
          "midi": 59,
          "name": "B3",
          "ticks": 30660,
          "time": 69.6817485,
          "velocity": 0.5196850393700787
        },
        {
          "duration": 0.12954532500000937,
          "durationTicks": 57,
          "midi": 59,
          "name": "B3",
          "ticks": 30720,
          "time": 69.818112,
          "velocity": 0.5196850393700787
        },
        {
          "duration": 0.12954532500000937,
          "durationTicks": 57,
          "midi": 60,
          "name": "C4",
          "ticks": 30840,
          "time": 70.090839,
          "velocity": 0.5196850393700787
        },
        {
          "duration": 0.12954532499999516,
          "durationTicks": 57,
          "midi": 59,
          "name": "B3",
          "ticks": 30900,
          "time": 70.2272025,
          "velocity": 0.5196850393700787
        },
        {
          "duration": 0.12954532499999516,
          "durationTicks": 57,
          "midi": 59,
          "name": "B3",
          "ticks": 30960,
          "time": 70.363566,
          "velocity": 0.5196850393700787
        },
        {
          "duration": 0.12954532500000937,
          "durationTicks": 57,
          "midi": 60,
          "name": "C4",
          "ticks": 31020,
          "time": 70.4999295,
          "velocity": 0.5196850393700787
        },
        {
          "duration": 0.12954532500000937,
          "durationTicks": 57,
          "midi": 59,
          "name": "B3",
          "ticks": 31080,
          "time": 70.636293,
          "velocity": 0.5196850393700787
        },
        {
          "duration": 0.12954532500000937,
          "durationTicks": 57,
          "midi": 59,
          "name": "B3",
          "ticks": 31140,
          "time": 70.7726565,
          "velocity": 0.5196850393700787
        },
        {
          "duration": 0.12954532500000937,
          "durationTicks": 57,
          "midi": 60,
          "name": "C4",
          "ticks": 31200,
          "time": 70.90902,
          "velocity": 0.5196850393700787
        },
        {
          "duration": 0.12954532500000937,
          "durationTicks": 57,
          "midi": 59,
          "name": "B3",
          "ticks": 31260,
          "time": 71.0453835,
          "velocity": 0.5196850393700787
        },
        {
          "duration": 0.12954532500000937,
          "durationTicks": 57,
          "midi": 59,
          "name": "B3",
          "ticks": 31320,
          "time": 71.181747,
          "velocity": 0.5196850393700787
        },
        {
          "duration": 0.12954532500000937,
          "durationTicks": 57,
          "midi": 59,
          "name": "B3",
          "ticks": 31380,
          "time": 71.3181105,
          "velocity": 0.5196850393700787
        },
        {
          "duration": 0.12954532499999516,
          "durationTicks": 57,
          "midi": 58,
          "name": "A#3",
          "ticks": 31440,
          "time": 71.454474,
          "velocity": 0.5196850393700787
        },
        {
          "duration": 0.12954532499999516,
          "durationTicks": 57,
          "midi": 59,
          "name": "B3",
          "ticks": 31500,
          "time": 71.5908375,
          "velocity": 0.5196850393700787
        },
        {
          "duration": 0.12954532500000937,
          "durationTicks": 57,
          "midi": 59,
          "name": "B3",
          "ticks": 31560,
          "time": 71.727201,
          "velocity": 0.5196850393700787
        },
        {
          "duration": 0.12954532500000937,
          "durationTicks": 57,
          "midi": 59,
          "name": "B3",
          "ticks": 31620,
          "time": 71.8635645,
          "velocity": 0.5196850393700787
        },
        {
          "duration": 0.12954532500000937,
          "durationTicks": 57,
          "midi": 59,
          "name": "B3",
          "ticks": 33600,
          "time": 76.36355999999999,
          "velocity": 0.5196850393700787
        },
        {
          "duration": 0.12954532500000937,
          "durationTicks": 57,
          "midi": 60,
          "name": "C4",
          "ticks": 33720,
          "time": 76.636287,
          "velocity": 0.5196850393700787
        },
        {
          "duration": 0.12954532500000937,
          "durationTicks": 57,
          "midi": 59,
          "name": "B3",
          "ticks": 33780,
          "time": 76.7726505,
          "velocity": 0.5196850393700787
        },
        {
          "duration": 0.12954532500000937,
          "durationTicks": 57,
          "midi": 59,
          "name": "B3",
          "ticks": 33840,
          "time": 76.909014,
          "velocity": 0.5196850393700787
        },
        {
          "duration": 0.12954532500000937,
          "durationTicks": 57,
          "midi": 60,
          "name": "C4",
          "ticks": 33900,
          "time": 77.0453775,
          "velocity": 0.5196850393700787
        },
        {
          "duration": 0.12954532500000937,
          "durationTicks": 57,
          "midi": 59,
          "name": "B3",
          "ticks": 33960,
          "time": 77.181741,
          "velocity": 0.5196850393700787
        },
        {
          "duration": 0.12954532499999516,
          "durationTicks": 57,
          "midi": 59,
          "name": "B3",
          "ticks": 34020,
          "time": 77.3181045,
          "velocity": 0.5196850393700787
        },
        {
          "duration": 0.12954532499999516,
          "durationTicks": 57,
          "midi": 60,
          "name": "C4",
          "ticks": 34080,
          "time": 77.454468,
          "velocity": 0.5196850393700787
        },
        {
          "duration": 0.12954532500000937,
          "durationTicks": 57,
          "midi": 59,
          "name": "B3",
          "ticks": 34140,
          "time": 77.5908315,
          "velocity": 0.5196850393700787
        },
        {
          "duration": 0.12954532500000937,
          "durationTicks": 57,
          "midi": 59,
          "name": "B3",
          "ticks": 34200,
          "time": 77.727195,
          "velocity": 0.5196850393700787
        },
        {
          "duration": 0.12954532500000937,
          "durationTicks": 57,
          "midi": 59,
          "name": "B3",
          "ticks": 34260,
          "time": 77.8635585,
          "velocity": 0.5196850393700787
        },
        {
          "duration": 0.12954532500000937,
          "durationTicks": 57,
          "midi": 58,
          "name": "A#3",
          "ticks": 34320,
          "time": 77.999922,
          "velocity": 0.5196850393700787
        },
        {
          "duration": 0.12954532500000937,
          "durationTicks": 57,
          "midi": 59,
          "name": "B3",
          "ticks": 34380,
          "time": 78.1362855,
          "velocity": 0.5196850393700787
        },
        {
          "duration": 0.12954532500000937,
          "durationTicks": 57,
          "midi": 59,
          "name": "B3",
          "ticks": 34440,
          "time": 78.272649,
          "velocity": 0.5196850393700787
        },
        {
          "duration": 0.12954532500000937,
          "durationTicks": 57,
          "midi": 59,
          "name": "B3",
          "ticks": 34500,
          "time": 78.4090125,
          "velocity": 0.5196850393700787
        }
      ]
    },
    {
      "channel": 0,
      "controlChanges": {
        "0": [
          {
            "number": 0,
            "ticks": 0,
            "time": 0,
            "value": 0
          }
        ],
        "32": [
          {
            "number": 32,
            "ticks": 0,
            "time": 0,
            "value": 0
          }
        ]
      },
      "pitchBends": [],
      "instrument": {
        "family": "piano",
        "number": 0,
        "name": "acoustic grand piano"
      },
      "name": "GtrMuted",
      "notes": [],
      "endOfTrackTicks": 37440
    },
    {
      "channel": 0,
      "controlChanges": {
        "7": [
          {
            "number": 7,
            "ticks": 0,
            "time": 0,
            "value": 0.7874015748031497
          },
          {
            "number": 7,
            "ticks": 0,
            "time": 0,
            "value": 0.7874015748031497
          },
          {
            "number": 7,
            "ticks": 37440,
            "time": 85.090824,
            "value": 0.7874015748031497
          }
        ],
        "11": [
          {
            "number": 11,
            "ticks": 0,
            "time": 0,
            "value": 0.7874015748031497
          }
        ],
        "64": [
          {
            "number": 64,
            "ticks": 0,
            "time": 0,
            "value": 0
          }
        ],
        "91": [
          {
            "number": 91,
            "ticks": 0,
            "time": 0,
            "value": 0
          }
        ],
        "93": [
          {
            "number": 93,
            "ticks": 0,
            "time": 0,
            "value": 0
          }
        ]
      },
      "pitchBends": [],
      "instrument": {
        "family": "guitar",
        "number": 28,
        "name": "electric guitar (muted)"
      },
      "name": "",
      "notes": [
        {
          "duration": 0.12954532500000004,
          "durationTicks": 57,
          "midi": 42,
          "name": "F#2",
          "ticks": 960,
          "time": 2.181816,
          "velocity": 0.9133858267716536
        },
        {
          "duration": 0.12954532500000004,
          "durationTicks": 57,
          "midi": 42,
          "name": "F#2",
          "ticks": 1020,
          "time": 2.3181795,
          "velocity": 0.9133858267716536
        },
        {
          "duration": 0.1295453249999996,
          "durationTicks": 57,
          "midi": 42,
          "name": "F#2",
          "ticks": 1440,
          "time": 3.272724,
          "velocity": 0.9133858267716536
        },
        {
          "duration": 0.1295453249999996,
          "durationTicks": 57,
          "midi": 42,
          "name": "F#2",
          "ticks": 1500,
          "time": 3.4090875,
          "velocity": 0.9133858267716536
        },
        {
          "duration": 0.1295453250000005,
          "durationTicks": 57,
          "midi": 42,
          "name": "F#2",
          "ticks": 1920,
          "time": 4.363632,
          "velocity": 0.9133858267716536
        },
        {
          "duration": 0.1295453250000005,
          "durationTicks": 57,
          "midi": 42,
          "name": "F#2",
          "ticks": 1980,
          "time": 4.4999955,
          "velocity": 0.9133858267716536
        },
        {
          "duration": 0.1295453250000005,
          "durationTicks": 57,
          "midi": 42,
          "name": "F#2",
          "ticks": 2160,
          "time": 4.909086,
          "velocity": 0.9133858267716536
        },
        {
          "duration": 0.1295453250000005,
          "durationTicks": 57,
          "midi": 42,
          "name": "F#2",
          "ticks": 2220,
          "time": 5.0454495,
          "velocity": 0.9133858267716536
        },
        {
          "duration": 0.1295453250000005,
          "durationTicks": 57,
          "midi": 42,
          "name": "F#2",
          "ticks": 2400,
          "time": 5.45454,
          "velocity": 0.9133858267716536
        },
        {
          "duration": 0.1295453250000005,
          "durationTicks": 57,
          "midi": 42,
          "name": "F#2",
          "ticks": 2460,
          "time": 5.5909035,
          "velocity": 0.9133858267716536
        },
        {
          "duration": 0.1295453249999996,
          "durationTicks": 57,
          "midi": 40,
          "name": "E2",
          "ticks": 2880,
          "time": 6.545448,
          "velocity": 0.9133858267716536
        },
        {
          "duration": 0.1295453250000005,
          "durationTicks": 57,
          "midi": 40,
          "name": "E2",
          "ticks": 2940,
          "time": 6.6818115,
          "velocity": 0.9133858267716536
        },
        {
          "duration": 0.1295453250000005,
          "durationTicks": 57,
          "midi": 40,
          "name": "E2",
          "ticks": 3360,
          "time": 7.636356,
          "velocity": 0.9133858267716536
        },
        {
          "duration": 0.1295453250000005,
          "durationTicks": 57,
          "midi": 40,
          "name": "E2",
          "ticks": 3420,
          "time": 7.7727195,
          "velocity": 0.9133858267716536
        },
        {
          "duration": 0.1295453250000005,
          "durationTicks": 57,
          "midi": 40,
          "name": "E2",
          "ticks": 3840,
          "time": 8.727264,
          "velocity": 0.9133858267716536
        },
        {
          "duration": 0.1295453250000005,
          "durationTicks": 57,
          "midi": 40,
          "name": "E2",
          "ticks": 3900,
          "time": 8.8636275,
          "velocity": 0.9133858267716536
        },
        {
          "duration": 0.1295453250000005,
          "durationTicks": 57,
          "midi": 40,
          "name": "E2",
          "ticks": 4080,
          "time": 9.272718,
          "velocity": 0.9133858267716536
        },
        {
          "duration": 0.1295453250000005,
          "durationTicks": 57,
          "midi": 40,
          "name": "E2",
          "ticks": 4140,
          "time": 9.4090815,
          "velocity": 0.9133858267716536
        },
        {
          "duration": 0.1295453250000005,
          "durationTicks": 57,
          "midi": 40,
          "name": "E2",
          "ticks": 4320,
          "time": 9.818172,
          "velocity": 0.9133858267716536
        },
        {
          "duration": 0.1295453250000005,
          "durationTicks": 57,
          "midi": 40,
          "name": "E2",
          "ticks": 4380,
          "time": 9.9545355,
          "velocity": 0.9133858267716536
        },
        {
          "duration": 0.1295453250000005,
          "durationTicks": 57,
          "midi": 42,
          "name": "F#2",
          "ticks": 4800,
          "time": 10.90908,
          "velocity": 0.9133858267716536
        },
        {
          "duration": 0.1295453250000005,
          "durationTicks": 57,
          "midi": 42,
          "name": "F#2",
          "ticks": 4860,
          "time": 11.0454435,
          "velocity": 0.9133858267716536
        },
        {
          "duration": 0.1295453250000005,
          "durationTicks": 57,
          "midi": 42,
          "name": "F#2",
          "ticks": 5280,
          "time": 11.999988,
          "velocity": 0.9133858267716536
        },
        {
          "duration": 0.1295453250000005,
          "durationTicks": 57,
          "midi": 42,
          "name": "F#2",
          "ticks": 5340,
          "time": 12.1363515,
          "velocity": 0.9133858267716536
        },
        {
          "duration": 0.1295453249999987,
          "durationTicks": 57,
          "midi": 42,
          "name": "F#2",
          "ticks": 5760,
          "time": 13.090896,
          "velocity": 0.9133858267716536
        },
        {
          "duration": 0.1295453250000005,
          "durationTicks": 57,
          "midi": 42,
          "name": "F#2",
          "ticks": 5820,
          "time": 13.2272595,
          "velocity": 0.9133858267716536
        },
        {
          "duration": 0.1295453250000005,
          "durationTicks": 57,
          "midi": 42,
          "name": "F#2",
          "ticks": 6000,
          "time": 13.63635,
          "velocity": 0.9133858267716536
        },
        {
          "duration": 0.1295453250000005,
          "durationTicks": 57,
          "midi": 42,
          "name": "F#2",
          "ticks": 6060,
          "time": 13.7727135,
          "velocity": 0.9133858267716536
        },
        {
          "duration": 0.1295453250000005,
          "durationTicks": 57,
          "midi": 42,
          "name": "F#2",
          "ticks": 6240,
          "time": 14.181804,
          "velocity": 0.9133858267716536
        },
        {
          "duration": 0.1295453250000005,
          "durationTicks": 57,
          "midi": 42,
          "name": "F#2",
          "ticks": 6300,
          "time": 14.3181675,
          "velocity": 0.9133858267716536
        },
        {
          "duration": 0.1295453250000005,
          "durationTicks": 57,
          "midi": 43,
          "name": "G2",
          "ticks": 6720,
          "time": 15.272712,
          "velocity": 0.9133858267716536
        },
        {
          "duration": 0.1295453250000005,
          "durationTicks": 57,
          "midi": 43,
          "name": "G2",
          "ticks": 6780,
          "time": 15.4090755,
          "velocity": 0.9133858267716536
        },
        {
          "duration": 0.1295453249999987,
          "durationTicks": 57,
          "midi": 43,
          "name": "G2",
          "ticks": 7200,
          "time": 16.36362,
          "velocity": 0.9133858267716536
        },
        {
          "duration": 0.12954532500000226,
          "durationTicks": 57,
          "midi": 43,
          "name": "G2",
          "ticks": 7260,
          "time": 16.4999835,
          "velocity": 0.9133858267716536
        },
        {
          "duration": 0.1295453249999987,
          "durationTicks": 57,
          "midi": 43,
          "name": "G2",
          "ticks": 7680,
          "time": 17.454528,
          "velocity": 0.9133858267716536
        },
        {
          "duration": 0.12954532499999516,
          "durationTicks": 57,
          "midi": 43,
          "name": "G2",
          "ticks": 7740,
          "time": 17.5908915,
          "velocity": 0.9133858267716536
        },
        {
          "duration": 0.1295453249999987,
          "durationTicks": 57,
          "midi": 43,
          "name": "G2",
          "ticks": 7920,
          "time": 17.999982,
          "velocity": 0.9133858267716536
        },
        {
          "duration": 0.1295453249999987,
          "durationTicks": 57,
          "midi": 43,
          "name": "G2",
          "ticks": 7980,
          "time": 18.1363455,
          "velocity": 0.9133858267716536
        },
        {
          "duration": 0.1295453249999987,
          "durationTicks": 57,
          "midi": 43,
          "name": "G2",
          "ticks": 8160,
          "time": 18.545436,
          "velocity": 0.9133858267716536
        },
        {
          "duration": 0.1295453249999987,
          "durationTicks": 57,
          "midi": 43,
          "name": "G2",
          "ticks": 8220,
          "time": 18.6817995,
          "velocity": 0.9133858267716536
        },
        {
          "duration": 0.1295453249999987,
          "durationTicks": 57,
          "midi": 42,
          "name": "F#2",
          "ticks": 8640,
          "time": 19.636344,
          "velocity": 0.9133858267716536
        },
        {
          "duration": 0.1295453249999987,
          "durationTicks": 57,
          "midi": 42,
          "name": "F#2",
          "ticks": 8700,
          "time": 19.7727075,
          "velocity": 0.9133858267716536
        },
        {
          "duration": 0.1295453249999987,
          "durationTicks": 57,
          "midi": 42,
          "name": "F#2",
          "ticks": 9120,
          "time": 20.727252,
          "velocity": 0.9133858267716536
        },
        {
          "duration": 0.1295453249999987,
          "durationTicks": 57,
          "midi": 42,
          "name": "F#2",
          "ticks": 9180,
          "time": 20.863615499999998,
          "velocity": 0.9133858267716536
        },
        {
          "duration": 0.1295453249999987,
          "durationTicks": 57,
          "midi": 42,
          "name": "F#2",
          "ticks": 9600,
          "time": 21.81816,
          "velocity": 0.9133858267716536
        },
        {
          "duration": 0.1295453249999987,
          "durationTicks": 57,
          "midi": 42,
          "name": "F#2",
          "ticks": 9660,
          "time": 21.9545235,
          "velocity": 0.9133858267716536
        },
        {
          "duration": 0.1295453249999987,
          "durationTicks": 57,
          "midi": 42,
          "name": "F#2",
          "ticks": 9840,
          "time": 22.363614,
          "velocity": 0.9133858267716536
        },
        {
          "duration": 0.1295453249999987,
          "durationTicks": 57,
          "midi": 42,
          "name": "F#2",
          "ticks": 9900,
          "time": 22.4999775,
          "velocity": 0.9133858267716536
        },
        {
          "duration": 0.12954532499999516,
          "durationTicks": 57,
          "midi": 42,
          "name": "F#2",
          "ticks": 10080,
          "time": 22.909068,
          "velocity": 0.9133858267716536
        },
        {
          "duration": 0.1295453249999987,
          "durationTicks": 57,
          "midi": 42,
          "name": "F#2",
          "ticks": 10140,
          "time": 23.0454315,
          "velocity": 0.9133858267716536
        },
        {
          "duration": 0.1295453249999987,
          "durationTicks": 57,
          "midi": 40,
          "name": "E2",
          "ticks": 10560,
          "time": 23.999976,
          "velocity": 0.9133858267716536
        },
        {
          "duration": 0.1295453249999987,
          "durationTicks": 57,
          "midi": 40,
          "name": "E2",
          "ticks": 10620,
          "time": 24.1363395,
          "velocity": 0.9133858267716536
        },
        {
          "duration": 0.1295453249999987,
          "durationTicks": 57,
          "midi": 40,
          "name": "E2",
          "ticks": 11040,
          "time": 25.090884,
          "velocity": 0.9133858267716536
        },
        {
          "duration": 0.1295453249999987,
          "durationTicks": 57,
          "midi": 40,
          "name": "E2",
          "ticks": 11100,
          "time": 25.2272475,
          "velocity": 0.9133858267716536
        },
        {
          "duration": 0.12954532499999516,
          "durationTicks": 57,
          "midi": 40,
          "name": "E2",
          "ticks": 11520,
          "time": 26.181792,
          "velocity": 0.9133858267716536
        },
        {
          "duration": 0.1295453249999987,
          "durationTicks": 57,
          "midi": 40,
          "name": "E2",
          "ticks": 11580,
          "time": 26.3181555,
          "velocity": 0.9133858267716536
        },
        {
          "duration": 0.1295453249999987,
          "durationTicks": 57,
          "midi": 40,
          "name": "E2",
          "ticks": 11760,
          "time": 26.727246,
          "velocity": 0.9133858267716536
        },
        {
          "duration": 0.1295453249999987,
          "durationTicks": 57,
          "midi": 40,
          "name": "E2",
          "ticks": 11820,
          "time": 26.8636095,
          "velocity": 0.9133858267716536
        },
        {
          "duration": 0.1295453249999987,
          "durationTicks": 57,
          "midi": 40,
          "name": "E2",
          "ticks": 12000,
          "time": 27.2727,
          "velocity": 0.9133858267716536
        },
        {
          "duration": 0.1295453249999987,
          "durationTicks": 57,
          "midi": 40,
          "name": "E2",
          "ticks": 12060,
          "time": 27.4090635,
          "velocity": 0.9133858267716536
        },
        {
          "duration": 0.1295453249999987,
          "durationTicks": 57,
          "midi": 42,
          "name": "F#2",
          "ticks": 12480,
          "time": 28.363608,
          "velocity": 0.9133858267716536
        },
        {
          "duration": 0.1295453249999987,
          "durationTicks": 57,
          "midi": 42,
          "name": "F#2",
          "ticks": 12540,
          "time": 28.4999715,
          "velocity": 0.9133858267716536
        },
        {
          "duration": 0.1295453249999987,
          "durationTicks": 57,
          "midi": 42,
          "name": "F#2",
          "ticks": 12960,
          "time": 29.454515999999998,
          "velocity": 0.9133858267716536
        },
        {
          "duration": 0.1295453249999987,
          "durationTicks": 57,
          "midi": 42,
          "name": "F#2",
          "ticks": 13020,
          "time": 29.5908795,
          "velocity": 0.9133858267716536
        },
        {
          "duration": 0.1295453249999987,
          "durationTicks": 57,
          "midi": 42,
          "name": "F#2",
          "ticks": 13440,
          "time": 30.545424,
          "velocity": 0.9133858267716536
        },
        {
          "duration": 0.1295453249999987,
          "durationTicks": 57,
          "midi": 42,
          "name": "F#2",
          "ticks": 13500,
          "time": 30.6817875,
          "velocity": 0.9133858267716536
        },
        {
          "duration": 0.1295453249999987,
          "durationTicks": 57,
          "midi": 42,
          "name": "F#2",
          "ticks": 13680,
          "time": 31.090878,
          "velocity": 0.9133858267716536
        },
        {
          "duration": 0.1295453249999987,
          "durationTicks": 57,
          "midi": 42,
          "name": "F#2",
          "ticks": 13740,
          "time": 31.227241499999998,
          "velocity": 0.9133858267716536
        },
        {
          "duration": 0.1295453249999987,
          "durationTicks": 57,
          "midi": 42,
          "name": "F#2",
          "ticks": 13920,
          "time": 31.636332,
          "velocity": 0.9133858267716536
        },
        {
          "duration": 0.1295453249999987,
          "durationTicks": 57,
          "midi": 42,
          "name": "F#2",
          "ticks": 13980,
          "time": 31.7726955,
          "velocity": 0.9133858267716536
        },
        {
          "duration": 0.12954532499999516,
          "durationTicks": 57,
          "midi": 42,
          "name": "F#2",
          "ticks": 14400,
          "time": 32.72724,
          "velocity": 0.9133858267716536
        },
        {
          "duration": 0.12954532500000226,
          "durationTicks": 57,
          "midi": 42,
          "name": "F#2",
          "ticks": 14460,
          "time": 32.863603499999996,
          "velocity": 0.9133858267716536
        },
        {
          "duration": 0.12954532499999516,
          "durationTicks": 57,
          "midi": 40,
          "name": "E2",
          "ticks": 14880,
          "time": 33.818148,
          "velocity": 0.9133858267716536
        },
        {
          "duration": 0.12954532499999516,
          "durationTicks": 57,
          "midi": 40,
          "name": "E2",
          "ticks": 14940,
          "time": 33.9545115,
          "velocity": 0.9133858267716536
        },
        {
          "duration": 0.12954532499999516,
          "durationTicks": 57,
          "midi": 40,
          "name": "E2",
          "ticks": 15360,
          "time": 34.909056,
          "velocity": 0.9133858267716536
        },
        {
          "duration": 0.12954532499999516,
          "durationTicks": 57,
          "midi": 40,
          "name": "E2",
          "ticks": 15420,
          "time": 35.0454195,
          "velocity": 0.9133858267716536
        },
        {
          "duration": 0.12954532500000226,
          "durationTicks": 57,
          "midi": 40,
          "name": "E2",
          "ticks": 15840,
          "time": 35.999964,
          "velocity": 0.9133858267716536
        },
        {
          "duration": 0.12954532499999516,
          "durationTicks": 57,
          "midi": 40,
          "name": "E2",
          "ticks": 15900,
          "time": 36.1363275,
          "velocity": 0.9133858267716536
        },
        {
          "duration": 0.12954532500000226,
          "durationTicks": 57,
          "midi": 40,
          "name": "E2",
          "ticks": 16080,
          "time": 36.545418,
          "velocity": 0.9133858267716536
        },
        {
          "duration": 0.12954532499999516,
          "durationTicks": 57,
          "midi": 40,
          "name": "E2",
          "ticks": 16140,
          "time": 36.6817815,
          "velocity": 0.9133858267716536
        },
        {
          "duration": 0.12954532500000226,
          "durationTicks": 57,
          "midi": 40,
          "name": "E2",
          "ticks": 16320,
          "time": 37.090872,
          "velocity": 0.9133858267716536
        },
        {
          "duration": 0.12954532500000226,
          "durationTicks": 57,
          "midi": 40,
          "name": "E2",
          "ticks": 16380,
          "time": 37.2272355,
          "velocity": 0.9133858267716536
        },
        {
          "duration": 0.12954532500000226,
          "durationTicks": 57,
          "midi": 42,
          "name": "F#2",
          "ticks": 16800,
          "time": 38.181779999999996,
          "velocity": 0.9133858267716536
        },
        {
          "duration": 0.12954532500000226,
          "durationTicks": 57,
          "midi": 42,
          "name": "F#2",
          "ticks": 16860,
          "time": 38.3181435,
          "velocity": 0.9133858267716536
        },
        {
          "duration": 0.12954532499999516,
          "durationTicks": 57,
          "midi": 42,
          "name": "F#2",
          "ticks": 17280,
          "time": 39.272688,
          "velocity": 0.9133858267716536
        },
        {
          "duration": 0.12954532500000226,
          "durationTicks": 57,
          "midi": 42,
          "name": "F#2",
          "ticks": 17340,
          "time": 39.4090515,
          "velocity": 0.9133858267716536
        },
        {
          "duration": 0.12954532499999516,
          "durationTicks": 57,
          "midi": 42,
          "name": "F#2",
          "ticks": 17760,
          "time": 40.363596,
          "velocity": 0.9133858267716536
        },
        {
          "duration": 0.12954532499999516,
          "durationTicks": 57,
          "midi": 42,
          "name": "F#2",
          "ticks": 17820,
          "time": 40.4999595,
          "velocity": 0.9133858267716536
        },
        {
          "duration": 0.12954532499999516,
          "durationTicks": 57,
          "midi": 42,
          "name": "F#2",
          "ticks": 18000,
          "time": 40.90905,
          "velocity": 0.9133858267716536
        },
        {
          "duration": 0.12954532499999516,
          "durationTicks": 57,
          "midi": 42,
          "name": "F#2",
          "ticks": 18060,
          "time": 41.0454135,
          "velocity": 0.9133858267716536
        },
        {
          "duration": 0.12954532499999516,
          "durationTicks": 57,
          "midi": 42,
          "name": "F#2",
          "ticks": 18240,
          "time": 41.454504,
          "velocity": 0.9133858267716536
        },
        {
          "duration": 0.12954532499999516,
          "durationTicks": 57,
          "midi": 42,
          "name": "F#2",
          "ticks": 18300,
          "time": 41.5908675,
          "velocity": 0.9133858267716536
        },
        {
          "duration": 0.12954532500000226,
          "durationTicks": 57,
          "midi": 42,
          "name": "F#2",
          "ticks": 18720,
          "time": 42.545412,
          "velocity": 0.9133858267716536
        },
        {
          "duration": 0.12954532499999516,
          "durationTicks": 57,
          "midi": 42,
          "name": "F#2",
          "ticks": 18780,
          "time": 42.6817755,
          "velocity": 0.9133858267716536
        },
        {
          "duration": 0.12954532500000226,
          "durationTicks": 57,
          "midi": 43,
          "name": "G2",
          "ticks": 19200,
          "time": 43.63632,
          "velocity": 0.9133858267716536
        },
        {
          "duration": 0.12954532499999516,
          "durationTicks": 57,
          "midi": 43,
          "name": "G2",
          "ticks": 19260,
          "time": 43.7726835,
          "velocity": 0.9133858267716536
        },
        {
          "duration": 0.12954532500000226,
          "durationTicks": 57,
          "midi": 43,
          "name": "G2",
          "ticks": 19680,
          "time": 44.727228,
          "velocity": 0.9133858267716536
        },
        {
          "duration": 0.12954532500000226,
          "durationTicks": 57,
          "midi": 43,
          "name": "G2",
          "ticks": 19740,
          "time": 44.8635915,
          "velocity": 0.9133858267716536
        },
        {
          "duration": 0.12954532499999516,
          "durationTicks": 57,
          "midi": 43,
          "name": "G2",
          "ticks": 20160,
          "time": 45.818136,
          "velocity": 0.9133858267716536
        },
        {
          "duration": 0.12954532500000226,
          "durationTicks": 57,
          "midi": 43,
          "name": "G2",
          "ticks": 20220,
          "time": 45.9544995,
          "velocity": 0.9133858267716536
        },
        {
          "duration": 0.12954532499999516,
          "durationTicks": 57,
          "midi": 43,
          "name": "G2",
          "ticks": 20400,
          "time": 46.36359,
          "velocity": 0.9133858267716536
        },
        {
          "duration": 0.12954532500000226,
          "durationTicks": 57,
          "midi": 43,
          "name": "G2",
          "ticks": 20460,
          "time": 46.4999535,
          "velocity": 0.9133858267716536
        },
        {
          "duration": 0.12954532499999516,
          "durationTicks": 57,
          "midi": 43,
          "name": "G2",
          "ticks": 20640,
          "time": 46.909044,
          "velocity": 0.9133858267716536
        },
        {
          "duration": 0.12954532500000226,
          "durationTicks": 57,
          "midi": 43,
          "name": "G2",
          "ticks": 20700,
          "time": 47.045407499999996,
          "velocity": 0.9133858267716536
        },
        {
          "duration": 0.12954532499999516,
          "durationTicks": 57,
          "midi": 43,
          "name": "G2",
          "ticks": 20880,
          "time": 47.454498,
          "velocity": 0.9133858267716536
        },
        {
          "duration": 0.12954532499999516,
          "durationTicks": 57,
          "midi": 43,
          "name": "G2",
          "ticks": 20940,
          "time": 47.5908615,
          "velocity": 0.9133858267716536
        },
        {
          "duration": 0.27272699999999617,
          "durationTicks": 120,
          "midi": 43,
          "name": "G2",
          "ticks": 21120,
          "time": 47.999952,
          "velocity": 0.9133858267716536
        },
        {
          "duration": 0.12954532500000226,
          "durationTicks": 57,
          "midi": 43,
          "name": "G2",
          "ticks": 21480,
          "time": 48.818132999999996,
          "velocity": 0.9133858267716536
        },
        {
          "duration": 0.12954532499999516,
          "durationTicks": 57,
          "midi": 42,
          "name": "F#2",
          "ticks": 21600,
          "time": 49.09086,
          "velocity": 0.9133858267716536
        },
        {
          "duration": 0.12954532499999516,
          "durationTicks": 57,
          "midi": 42,
          "name": "F#2",
          "ticks": 21660,
          "time": 49.2272235,
          "velocity": 0.9133858267716536
        },
        {
          "duration": 0.12954532500000226,
          "durationTicks": 57,
          "midi": 42,
          "name": "F#2",
          "ticks": 22080,
          "time": 50.181768,
          "velocity": 0.9133858267716536
        },
        {
          "duration": 0.12954532499999516,
          "durationTicks": 57,
          "midi": 42,
          "name": "F#2",
          "ticks": 22140,
          "time": 50.3181315,
          "velocity": 0.9133858267716536
        },
        {
          "duration": 0.12954532500000226,
          "durationTicks": 57,
          "midi": 42,
          "name": "F#2",
          "ticks": 22560,
          "time": 51.272676,
          "velocity": 0.9133858267716536
        },
        {
          "duration": 0.12954532500000226,
          "durationTicks": 57,
          "midi": 42,
          "name": "F#2",
          "ticks": 22620,
          "time": 51.4090395,
          "velocity": 0.9133858267716536
        },
        {
          "duration": 0.12954532500000226,
          "durationTicks": 57,
          "midi": 42,
          "name": "F#2",
          "ticks": 22800,
          "time": 51.81813,
          "velocity": 0.9133858267716536
        },
        {
          "duration": 0.12954532500000226,
          "durationTicks": 57,
          "midi": 42,
          "name": "F#2",
          "ticks": 22860,
          "time": 51.9544935,
          "velocity": 0.9133858267716536
        },
        {
          "duration": 0.12954532499999516,
          "durationTicks": 57,
          "midi": 42,
          "name": "F#2",
          "ticks": 23040,
          "time": 52.363584,
          "velocity": 0.9133858267716536
        },
        {
          "duration": 0.12954532500000226,
          "durationTicks": 57,
          "midi": 42,
          "name": "F#2",
          "ticks": 23100,
          "time": 52.4999475,
          "velocity": 0.9133858267716536
        },
        {
          "duration": 0.12954532499999516,
          "durationTicks": 57,
          "midi": 40,
          "name": "E2",
          "ticks": 23520,
          "time": 53.454492,
          "velocity": 0.9133858267716536
        },
        {
          "duration": 0.12954532500000226,
          "durationTicks": 57,
          "midi": 40,
          "name": "E2",
          "ticks": 23580,
          "time": 53.590855499999996,
          "velocity": 0.9133858267716536
        },
        {
          "duration": 0.12954532499999516,
          "durationTicks": 57,
          "midi": 40,
          "name": "E2",
          "ticks": 24000,
          "time": 54.5454,
          "velocity": 0.9133858267716536
        },
        {
          "duration": 0.12954532499999516,
          "durationTicks": 57,
          "midi": 40,
          "name": "E2",
          "ticks": 24060,
          "time": 54.6817635,
          "velocity": 0.9133858267716536
        },
        {
          "duration": 0.12954532499999516,
          "durationTicks": 57,
          "midi": 40,
          "name": "E2",
          "ticks": 24480,
          "time": 55.636308,
          "velocity": 0.9133858267716536
        },
        {
          "duration": 0.12954532499999516,
          "durationTicks": 57,
          "midi": 40,
          "name": "E2",
          "ticks": 24540,
          "time": 55.7726715,
          "velocity": 0.9133858267716536
        },
        {
          "duration": 0.12954532500000226,
          "durationTicks": 57,
          "midi": 40,
          "name": "E2",
          "ticks": 24720,
          "time": 56.181762,
          "velocity": 0.9133858267716536
        },
        {
          "duration": 0.12954532499999516,
          "durationTicks": 57,
          "midi": 40,
          "name": "E2",
          "ticks": 24780,
          "time": 56.3181255,
          "velocity": 0.9133858267716536
        },
        {
          "duration": 0.12954532500000226,
          "durationTicks": 57,
          "midi": 40,
          "name": "E2",
          "ticks": 24960,
          "time": 56.727216,
          "velocity": 0.9133858267716536
        },
        {
          "duration": 0.12954532499999516,
          "durationTicks": 57,
          "midi": 40,
          "name": "E2",
          "ticks": 25020,
          "time": 56.8635795,
          "velocity": 0.9133858267716536
        },
        {
          "duration": 0.12954532500000226,
          "durationTicks": 57,
          "midi": 42,
          "name": "F#2",
          "ticks": 25440,
          "time": 57.818124,
          "velocity": 0.9133858267716536
        },
        {
          "duration": 0.12954532500000226,
          "durationTicks": 57,
          "midi": 42,
          "name": "F#2",
          "ticks": 25500,
          "time": 57.9544875,
          "velocity": 0.9133858267716536
        },
        {
          "duration": 0.12954532500000226,
          "durationTicks": 57,
          "midi": 42,
          "name": "F#2",
          "ticks": 25680,
          "time": 58.363578,
          "velocity": 0.9133858267716536
        },
        {
          "duration": 0.12954532500000226,
          "durationTicks": 57,
          "midi": 42,
          "name": "F#2",
          "ticks": 25740,
          "time": 58.4999415,
          "velocity": 0.9133858267716536
        },
        {
          "duration": 0.12954532500000226,
          "durationTicks": 57,
          "midi": 42,
          "name": "F#2",
          "ticks": 25920,
          "time": 58.909031999999996,
          "velocity": 0.9133858267716536
        },
        {
          "duration": 0.12954532500000226,
          "durationTicks": 57,
          "midi": 42,
          "name": "F#2",
          "ticks": 25980,
          "time": 59.0453955,
          "velocity": 0.9133858267716536
        },
        {
          "duration": 0.12954532499999516,
          "durationTicks": 57,
          "midi": 42,
          "name": "F#2",
          "ticks": 26400,
          "time": 59.99994,
          "velocity": 0.9133858267716536
        },
        {
          "duration": 0.12954532500000226,
          "durationTicks": 57,
          "midi": 42,
          "name": "F#2",
          "ticks": 26460,
          "time": 60.1363035,
          "velocity": 0.9133858267716536
        },
        {
          "duration": 0.12954532499999516,
          "durationTicks": 57,
          "midi": 42,
          "name": "F#2",
          "ticks": 26640,
          "time": 60.545394,
          "velocity": 0.9133858267716536
        },
        {
          "duration": 0.12954532500000226,
          "durationTicks": 57,
          "midi": 42,
          "name": "F#2",
          "ticks": 26700,
          "time": 60.681757499999996,
          "velocity": 0.9133858267716536
        },
        {
          "duration": 0.12954532499999516,
          "durationTicks": 57,
          "midi": 40,
          "name": "E2",
          "ticks": 26880,
          "time": 61.090848,
          "velocity": 0.9133858267716536
        },
        {
          "duration": 0.12954532499999516,
          "durationTicks": 57,
          "midi": 40,
          "name": "E2",
          "ticks": 26940,
          "time": 61.2272115,
          "velocity": 0.9133858267716536
        },
        {
          "duration": 0.12954532499999516,
          "durationTicks": 57,
          "midi": 40,
          "name": "E2",
          "ticks": 27120,
          "time": 61.636302,
          "velocity": 0.9133858267716536
        },
        {
          "duration": 0.12954532499999516,
          "durationTicks": 57,
          "midi": 40,
          "name": "E2",
          "ticks": 27180,
          "time": 61.7726655,
          "velocity": 0.9133858267716536
        },
        {
          "duration": 0.12954532499999516,
          "durationTicks": 57,
          "midi": 40,
          "name": "E2",
          "ticks": 27360,
          "time": 62.181756,
          "velocity": 0.9133858267716536
        },
        {
          "duration": 0.12954532499999516,
          "durationTicks": 57,
          "midi": 40,
          "name": "E2",
          "ticks": 27420,
          "time": 62.3181195,
          "velocity": 0.9133858267716536
        },
        {
          "duration": 0.12954532500000226,
          "durationTicks": 57,
          "midi": 40,
          "name": "E2",
          "ticks": 27840,
          "time": 63.272664,
          "velocity": 0.9133858267716536
        },
        {
          "duration": 0.12954532499999516,
          "durationTicks": 57,
          "midi": 40,
          "name": "E2",
          "ticks": 27900,
          "time": 63.4090275,
          "velocity": 0.9133858267716536
        },
        {
          "duration": 0.12954532500000226,
          "durationTicks": 57,
          "midi": 40,
          "name": "E2",
          "ticks": 28080,
          "time": 63.818118,
          "velocity": 0.9133858267716536
        },
        {
          "duration": 0.12954532499999516,
          "durationTicks": 57,
          "midi": 40,
          "name": "E2",
          "ticks": 28140,
          "time": 63.9544815,
          "velocity": 0.9133858267716536
        },
        {
          "duration": 0.12954532499999516,
          "durationTicks": 57,
          "midi": 42,
          "name": "F#2",
          "ticks": 28320,
          "time": 64.363572,
          "velocity": 0.9133858267716536
        },
        {
          "duration": 0.12954532500000937,
          "durationTicks": 57,
          "midi": 42,
          "name": "F#2",
          "ticks": 28380,
          "time": 64.49993549999999,
          "velocity": 0.9133858267716536
        },
        {
          "duration": 0.12954532499999516,
          "durationTicks": 57,
          "midi": 42,
          "name": "F#2",
          "ticks": 28560,
          "time": 64.909026,
          "velocity": 0.9133858267716536
        },
        {
          "duration": 0.12954532499999516,
          "durationTicks": 57,
          "midi": 42,
          "name": "F#2",
          "ticks": 28620,
          "time": 65.0453895,
          "velocity": 0.9133858267716536
        },
        {
          "duration": 0.12954532499999516,
          "durationTicks": 57,
          "midi": 42,
          "name": "F#2",
          "ticks": 28800,
          "time": 65.45448,
          "velocity": 0.9133858267716536
        },
        {
          "duration": 0.12954532499999516,
          "durationTicks": 57,
          "midi": 42,
          "name": "F#2",
          "ticks": 28860,
          "time": 65.5908435,
          "velocity": 0.9133858267716536
        },
        {
          "duration": 0.12954532499999516,
          "durationTicks": 57,
          "midi": 42,
          "name": "F#2",
          "ticks": 29280,
          "time": 66.545388,
          "velocity": 0.9133858267716536
        },
        {
          "duration": 0.12954532499999516,
          "durationTicks": 57,
          "midi": 42,
          "name": "F#2",
          "ticks": 29340,
          "time": 66.6817515,
          "velocity": 0.9133858267716536
        },
        {
          "duration": 0.12954532500000937,
          "durationTicks": 57,
          "midi": 42,
          "name": "F#2",
          "ticks": 29520,
          "time": 67.090842,
          "velocity": 0.9133858267716536
        },
        {
          "duration": 0.12954532499999516,
          "durationTicks": 57,
          "midi": 42,
          "name": "F#2",
          "ticks": 29580,
          "time": 67.2272055,
          "velocity": 0.9133858267716536
        },
        {
          "duration": 0.12954532499999516,
          "durationTicks": 57,
          "midi": 40,
          "name": "E2",
          "ticks": 29760,
          "time": 67.636296,
          "velocity": 0.9133858267716536
        },
        {
          "duration": 0.12954532499999516,
          "durationTicks": 57,
          "midi": 40,
          "name": "E2",
          "ticks": 29820,
          "time": 67.7726595,
          "velocity": 0.9133858267716536
        },
        {
          "duration": 0.12954532499999516,
          "durationTicks": 57,
          "midi": 40,
          "name": "E2",
          "ticks": 30240,
          "time": 68.727204,
          "velocity": 0.9133858267716536
        },
        {
          "duration": 0.12954532499999516,
          "durationTicks": 57,
          "midi": 40,
          "name": "E2",
          "ticks": 30300,
          "time": 68.8635675,
          "velocity": 0.9133858267716536
        },
        {
          "duration": 0.12954532500000937,
          "durationTicks": 57,
          "midi": 40,
          "name": "E2",
          "ticks": 30720,
          "time": 69.818112,
          "velocity": 0.9133858267716536
        },
        {
          "duration": 0.12954532500000937,
          "durationTicks": 57,
          "midi": 40,
          "name": "E2",
          "ticks": 30780,
          "time": 69.9544755,
          "velocity": 0.9133858267716536
        },
        {
          "duration": 0.12954532499999516,
          "durationTicks": 57,
          "midi": 40,
          "name": "E2",
          "ticks": 30960,
          "time": 70.363566,
          "velocity": 0.9133858267716536
        },
        {
          "duration": 0.12954532500000937,
          "durationTicks": 57,
          "midi": 40,
          "name": "E2",
          "ticks": 31020,
          "time": 70.4999295,
          "velocity": 0.9133858267716536
        },
        {
          "duration": 0.12954532500000937,
          "durationTicks": 57,
          "midi": 40,
          "name": "E2",
          "ticks": 31200,
          "time": 70.90902,
          "velocity": 0.9133858267716536
        },
        {
          "duration": 0.12954532500000937,
          "durationTicks": 57,
          "midi": 40,
          "name": "E2",
          "ticks": 31260,
          "time": 71.0453835,
          "velocity": 0.9133858267716536
        },
        {
          "duration": 0.12954532500000937,
          "durationTicks": 57,
          "midi": 42,
          "name": "F#2",
          "ticks": 31680,
          "time": 71.999928,
          "velocity": 0.9133858267716536
        },
        {
          "duration": 0.12954532500000937,
          "durationTicks": 57,
          "midi": 42,
          "name": "F#2",
          "ticks": 31740,
          "time": 72.1362915,
          "velocity": 0.9133858267716536
        },
        {
          "duration": 0.12954532500000937,
          "durationTicks": 57,
          "midi": 42,
          "name": "F#2",
          "ticks": 32160,
          "time": 73.090836,
          "velocity": 0.9133858267716536
        },
        {
          "duration": 0.12954532500000937,
          "durationTicks": 57,
          "midi": 42,
          "name": "F#2",
          "ticks": 32220,
          "time": 73.2271995,
          "velocity": 0.9133858267716536
        },
        {
          "duration": 0.12954532500000937,
          "durationTicks": 57,
          "midi": 42,
          "name": "F#2",
          "ticks": 32640,
          "time": 74.181744,
          "velocity": 0.9133858267716536
        },
        {
          "duration": 0.12954532500000937,
          "durationTicks": 57,
          "midi": 42,
          "name": "F#2",
          "ticks": 32700,
          "time": 74.3181075,
          "velocity": 0.9133858267716536
        },
        {
          "duration": 0.12954532500000937,
          "durationTicks": 57,
          "midi": 42,
          "name": "F#2",
          "ticks": 32880,
          "time": 74.727198,
          "velocity": 0.9133858267716536
        },
        {
          "duration": 0.12954532500000937,
          "durationTicks": 57,
          "midi": 42,
          "name": "F#2",
          "ticks": 32940,
          "time": 74.8635615,
          "velocity": 0.9133858267716536
        },
        {
          "duration": 0.12954532500000937,
          "durationTicks": 57,
          "midi": 42,
          "name": "F#2",
          "ticks": 33120,
          "time": 75.272652,
          "velocity": 0.9133858267716536
        },
        {
          "duration": 0.12954532500000937,
          "durationTicks": 57,
          "midi": 42,
          "name": "F#2",
          "ticks": 33180,
          "time": 75.4090155,
          "velocity": 0.9133858267716536
        },
        {
          "duration": 0.12954532500000937,
          "durationTicks": 57,
          "midi": 40,
          "name": "E2",
          "ticks": 33600,
          "time": 76.36355999999999,
          "velocity": 0.9133858267716536
        },
        {
          "duration": 0.12954532500000937,
          "durationTicks": 57,
          "midi": 40,
          "name": "E2",
          "ticks": 33660,
          "time": 76.4999235,
          "velocity": 0.9133858267716536
        },
        {
          "duration": 0.12954532499999516,
          "durationTicks": 57,
          "midi": 40,
          "name": "E2",
          "ticks": 34080,
          "time": 77.454468,
          "velocity": 0.9133858267716536
        },
        {
          "duration": 0.12954532500000937,
          "durationTicks": 57,
          "midi": 40,
          "name": "E2",
          "ticks": 34140,
          "time": 77.5908315,
          "velocity": 0.9133858267716536
        },
        {
          "duration": 0.12954532499999516,
          "durationTicks": 57,
          "midi": 42,
          "name": "F#2",
          "ticks": 34560,
          "time": 78.545376,
          "velocity": 0.9133858267716536
        },
        {
          "duration": 4.3636319999999955,
          "durationTicks": 1920,
          "midi": 30,
          "name": "F#1",
          "ticks": 34560,
          "time": 78.545376,
          "velocity": 0.9133858267716536
        },
        {
          "duration": 0.12954532499999516,
          "durationTicks": 57,
          "midi": 42,
          "name": "F#2",
          "ticks": 34620,
          "time": 78.6817395,
          "velocity": 0.9133858267716536
        },
        {
          "duration": 0.12954532499999516,
          "durationTicks": 57,
          "midi": 42,
          "name": "F#2",
          "ticks": 35040,
          "time": 79.636284,
          "velocity": 0.9133858267716536
        },
        {
          "duration": 0.12954532499999516,
          "durationTicks": 57,
          "midi": 42,
          "name": "F#2",
          "ticks": 35100,
          "time": 79.7726475,
          "velocity": 0.9133858267716536
        },
        {
          "duration": 0.12954532500000937,
          "durationTicks": 57,
          "midi": 54,
          "name": "F#3",
          "ticks": 35520,
          "time": 80.727192,
          "velocity": 0.9133858267716536
        },
        {
          "duration": 2.1818159999999978,
          "durationTicks": 960,
          "midi": 30,
          "name": "F#1",
          "ticks": 35520,
          "time": 80.727192,
          "velocity": 0.9133858267716536
        },
        {
          "duration": 0.12954532499999516,
          "durationTicks": 57,
          "midi": 54,
          "name": "F#3",
          "ticks": 35580,
          "time": 80.8635555,
          "velocity": 0.9133858267716536
        },
        {
          "duration": 0.12954532500000937,
          "durationTicks": 57,
          "midi": 54,
          "name": "F#3",
          "ticks": 35760,
          "time": 81.272646,
          "velocity": 0.9133858267716536
        },
        {
          "duration": 0.12954532500000937,
          "durationTicks": 57,
          "midi": 54,
          "name": "F#3",
          "ticks": 35820,
          "time": 81.4090095,
          "velocity": 0.9133858267716536
        },
        {
          "duration": 0.12954532500000937,
          "durationTicks": 57,
          "midi": 54,
          "name": "F#3",
          "ticks": 36000,
          "time": 81.8181,
          "velocity": 0.9133858267716536
        },
        {
          "duration": 0.12954532500000937,
          "durationTicks": 57,
          "midi": 54,
          "name": "F#3",
          "ticks": 36060,
          "time": 81.9544635,
          "velocity": 0.9133858267716536
        },
        {
          "duration": 0.13636350000000164,
          "durationTicks": 60,
          "midi": 28,
          "name": "E1",
          "ticks": 36360,
          "time": 82.636281,
          "velocity": 0.9133858267716536
        },
        {
          "duration": 0.27045427500000585,
          "durationTicks": 119,
          "midi": 30,
          "name": "F#1",
          "ticks": 36480,
          "time": 82.909008,
          "velocity": 0.9133858267716536
        }
      ]
    },
    {
      "channel": 0,
      "controlChanges": {
        "0": [
          {
            "number": 0,
            "ticks": 0,
            "time": 0,
            "value": 0
          }
        ],
        "32": [
          {
            "number": 32,
            "ticks": 0,
            "time": 0,
            "value": 0
          }
        ]
      },
      "pitchBends": [],
      "instrument": {
        "family": "piano",
        "number": 0,
        "name": "acoustic grand piano"
      },
      "name": "VoiceSyn",
      "notes": [],
      "endOfTrackTicks": 36600
    },
    {
      "channel": 2,
      "controlChanges": {
        "7": [
          {
            "number": 7,
            "ticks": 0,
            "time": 0,
            "value": 0.6929133858267716
          },
          {
            "number": 7,
            "ticks": 0,
            "time": 0,
            "value": 0.7874015748031497
          }
        ],
        "11": [
          {
            "number": 11,
            "ticks": 0,
            "time": 0,
            "value": 0.7874015748031497
          }
        ],
        "64": [
          {
            "number": 64,
            "ticks": 0,
            "time": 0,
            "value": 0
          }
        ],
        "91": [
          {
            "number": 91,
            "ticks": 0,
            "time": 0,
            "value": 0
          }
        ],
        "93": [
          {
            "number": 93,
            "ticks": 0,
            "time": 0,
            "value": 0
          }
        ]
      },
      "pitchBends": [],
      "instrument": {
        "family": "synth lead",
        "number": 87,
        "name": "lead 8 (bass + lead)"
      },
      "name": "",
      "notes": [
        {
          "duration": 0.26590882500000035,
          "durationTicks": 117,
          "midi": 66,
          "name": "F#4",
          "ticks": 12480,
          "time": 28.363608,
          "velocity": 0.9133858267716536
        },
        {
          "duration": 0.1295453249999987,
          "durationTicks": 57,
          "midi": 67,
          "name": "G4",
          "ticks": 12600,
          "time": 28.636335,
          "velocity": 0.9133858267716536
        },
        {
          "duration": 0.1295453249999987,
          "durationTicks": 57,
          "midi": 66,
          "name": "F#4",
          "ticks": 12660,
          "time": 28.7726985,
          "velocity": 0.9133858267716536
        },
        {
          "duration": 1.6363620000000019,
          "durationTicks": 720,
          "midi": 73,
          "name": "C#5",
          "ticks": 12720,
          "time": 28.909062,
          "velocity": 0.9133858267716536
        },
        {
          "duration": 0.5386358249999965,
          "durationTicks": 237,
          "midi": 78,
          "name": "F#5",
          "ticks": 13440,
          "time": 30.545424,
          "velocity": 0.9133858267716536
        },
        {
          "duration": 0.1295453249999987,
          "durationTicks": 57,
          "midi": 79,
          "name": "G5",
          "ticks": 13560,
          "time": 30.818151,
          "velocity": 0.9133858267716536
        },
        {
          "duration": 0.1295453249999987,
          "durationTicks": 57,
          "midi": 78,
          "name": "F#5",
          "ticks": 13620,
          "time": 30.9545145,
          "velocity": 0.9133858267716536
        },
        {
          "duration": 1.6363620000000019,
          "durationTicks": 720,
          "midi": 73,
          "name": "C#5",
          "ticks": 13680,
          "time": 31.090878,
          "velocity": 0.9133858267716536
        },
        {
          "duration": 0.2659088249999968,
          "durationTicks": 117,
          "midi": 66,
          "name": "F#4",
          "ticks": 14400,
          "time": 32.72724,
          "velocity": 0.9133858267716536
        },
        {
          "duration": 0.12954532500000226,
          "durationTicks": 57,
          "midi": 67,
          "name": "G4",
          "ticks": 14520,
          "time": 32.999967,
          "velocity": 0.9133858267716536
        },
        {
          "duration": 0.12954532499999516,
          "durationTicks": 57,
          "midi": 66,
          "name": "F#4",
          "ticks": 14580,
          "time": 33.1363305,
          "velocity": 0.9133858267716536
        },
        {
          "duration": 0.5386358250000001,
          "durationTicks": 237,
          "midi": 73,
          "name": "C#5",
          "ticks": 14640,
          "time": 33.272694,
          "velocity": 0.9133858267716536
        },
        {
          "duration": 0.2659088250000039,
          "durationTicks": 117,
          "midi": 78,
          "name": "F#5",
          "ticks": 14760,
          "time": 33.545421,
          "velocity": 0.9133858267716536
        },
        {
          "duration": 4.3636319999999955,
          "durationTicks": 1920,
          "midi": 76,
          "name": "E5",
          "ticks": 14880,
          "time": 33.818148,
          "velocity": 0.9133858267716536
        },
        {
          "duration": 0.2659088250000039,
          "durationTicks": 117,
          "midi": 66,
          "name": "F#4",
          "ticks": 16800,
          "time": 38.181779999999996,
          "velocity": 0.9133858267716536
        },
        {
          "duration": 0.12954532499999516,
          "durationTicks": 57,
          "midi": 67,
          "name": "G4",
          "ticks": 16920,
          "time": 38.454507,
          "velocity": 0.9133858267716536
        },
        {
          "duration": 0.12954532499999516,
          "durationTicks": 57,
          "midi": 66,
          "name": "F#4",
          "ticks": 16980,
          "time": 38.5908705,
          "velocity": 0.9133858267716536
        },
        {
          "duration": 1.6363619999999983,
          "durationTicks": 720,
          "midi": 73,
          "name": "C#5",
          "ticks": 17040,
          "time": 38.727234,
          "velocity": 0.9133858267716536
        },
        {
          "duration": 0.2659088249999968,
          "durationTicks": 117,
          "midi": 78,
          "name": "F#5",
          "ticks": 17760,
          "time": 40.363596,
          "velocity": 0.9133858267716536
        },
        {
          "duration": 0.12954532500000226,
          "durationTicks": 57,
          "midi": 79,
          "name": "G5",
          "ticks": 17880,
          "time": 40.636323,
          "velocity": 0.9133858267716536
        },
        {
          "duration": 0.12954532500000226,
          "durationTicks": 57,
          "midi": 78,
          "name": "F#5",
          "ticks": 17940,
          "time": 40.7726865,
          "velocity": 0.9133858267716536
        },
        {
          "duration": 1.6363619999999983,
          "durationTicks": 720,
          "midi": 73,
          "name": "C#5",
          "ticks": 18000,
          "time": 40.90905,
          "velocity": 0.9133858267716536
        },
        {
          "duration": 0.2659088249999968,
          "durationTicks": 117,
          "midi": 66,
          "name": "F#4",
          "ticks": 18720,
          "time": 42.545412,
          "velocity": 0.9133858267716536
        },
        {
          "duration": 0.12954532499999516,
          "durationTicks": 57,
          "midi": 67,
          "name": "G4",
          "ticks": 18840,
          "time": 42.818139,
          "velocity": 0.9133858267716536
        },
        {
          "duration": 0.12954532500000226,
          "durationTicks": 57,
          "midi": 66,
          "name": "F#4",
          "ticks": 18900,
          "time": 42.9545025,
          "velocity": 0.9133858267716536
        },
        {
          "duration": 0.5386358250000001,
          "durationTicks": 237,
          "midi": 73,
          "name": "C#5",
          "ticks": 18960,
          "time": 43.090866,
          "velocity": 0.9133858267716536
        },
        {
          "duration": 0.2659088249999968,
          "durationTicks": 117,
          "midi": 78,
          "name": "F#5",
          "ticks": 19080,
          "time": 43.363593,
          "velocity": 0.9133858267716536
        },
        {
          "duration": 2.1749978249999984,
          "durationTicks": 957,
          "midi": 79,
          "name": "G5",
          "ticks": 19200,
          "time": 43.63632,
          "velocity": 0.9133858267716536
        },
        {
          "duration": 0.2659088250000039,
          "durationTicks": 117,
          "midi": 66,
          "name": "F#4",
          "ticks": 25440,
          "time": 57.818124,
          "velocity": 0.9133858267716536
        },
        {
          "duration": 0.12954532499999516,
          "durationTicks": 57,
          "midi": 67,
          "name": "G4",
          "ticks": 25560,
          "time": 58.090851,
          "velocity": 0.9133858267716536
        },
        {
          "duration": 0.12954532499999516,
          "durationTicks": 57,
          "midi": 66,
          "name": "F#4",
          "ticks": 25620,
          "time": 58.2272145,
          "velocity": 0.9133858267716536
        },
        {
          "duration": 0.5386358250000001,
          "durationTicks": 237,
          "midi": 73,
          "name": "C#5",
          "ticks": 25680,
          "time": 58.363578,
          "velocity": 0.9133858267716536
        },
        {
          "duration": 0.2659088250000039,
          "durationTicks": 117,
          "midi": 78,
          "name": "F#5",
          "ticks": 25920,
          "time": 58.909031999999996,
          "velocity": 0.9133858267716536
        },
        {
          "duration": 0.12954532499999516,
          "durationTicks": 57,
          "midi": 79,
          "name": "G5",
          "ticks": 26040,
          "time": 59.181759,
          "velocity": 0.9133858267716536
        },
        {
          "duration": 0.12954532499999516,
          "durationTicks": 57,
          "midi": 78,
          "name": "F#5",
          "ticks": 26100,
          "time": 59.3181225,
          "velocity": 0.9133858267716536
        },
        {
          "duration": 0.538635824999993,
          "durationTicks": 237,
          "midi": 73,
          "name": "C#5",
          "ticks": 26160,
          "time": 59.454486,
          "velocity": 0.9133858267716536
        },
        {
          "duration": 0.2659088249999968,
          "durationTicks": 117,
          "midi": 66,
          "name": "F#4",
          "ticks": 26400,
          "time": 59.99994,
          "velocity": 0.9133858267716536
        },
        {
          "duration": 0.12954532500000226,
          "durationTicks": 57,
          "midi": 67,
          "name": "G4",
          "ticks": 26520,
          "time": 60.272667,
          "velocity": 0.9133858267716536
        },
        {
          "duration": 0.12954532499999516,
          "durationTicks": 57,
          "midi": 66,
          "name": "F#4",
          "ticks": 26580,
          "time": 60.4090305,
          "velocity": 0.9133858267716536
        },
        {
          "duration": 0.2659088249999968,
          "durationTicks": 117,
          "midi": 73,
          "name": "C#5",
          "ticks": 26640,
          "time": 60.545394,
          "velocity": 0.9133858267716536
        },
        {
          "duration": 0.2659088249999968,
          "durationTicks": 117,
          "midi": 78,
          "name": "F#5",
          "ticks": 26760,
          "time": 60.818121,
          "velocity": 0.9133858267716536
        },
        {
          "duration": 2.1749978249999984,
          "durationTicks": 957,
          "midi": 76,
          "name": "E5",
          "ticks": 26880,
          "time": 61.090848,
          "velocity": 0.9133858267716536
        },
        {
          "duration": 0.2659088249999968,
          "durationTicks": 117,
          "midi": 66,
          "name": "F#4",
          "ticks": 28320,
          "time": 64.363572,
          "velocity": 0.9133858267716536
        },
        {
          "duration": 0.12954532500000937,
          "durationTicks": 57,
          "midi": 67,
          "name": "G4",
          "ticks": 28440,
          "time": 64.636299,
          "velocity": 0.9133858267716536
        },
        {
          "duration": 0.12954532499999516,
          "durationTicks": 57,
          "midi": 66,
          "name": "F#4",
          "ticks": 28500,
          "time": 64.7726625,
          "velocity": 0.9133858267716536
        },
        {
          "duration": 0.5386358250000001,
          "durationTicks": 237,
          "midi": 73,
          "name": "C#5",
          "ticks": 28560,
          "time": 64.909026,
          "velocity": 0.9133858267716536
        },
        {
          "duration": 0.2659088249999968,
          "durationTicks": 117,
          "midi": 78,
          "name": "F#5",
          "ticks": 28800,
          "time": 65.45448,
          "velocity": 0.9133858267716536
        },
        {
          "duration": 0.12954532500000937,
          "durationTicks": 57,
          "midi": 79,
          "name": "G5",
          "ticks": 28920,
          "time": 65.72720699999999,
          "velocity": 0.9133858267716536
        },
        {
          "duration": 0.12954532500000937,
          "durationTicks": 57,
          "midi": 78,
          "name": "F#5",
          "ticks": 28980,
          "time": 65.8635705,
          "velocity": 0.9133858267716536
        },
        {
          "duration": 0.5386358250000001,
          "durationTicks": 237,
          "midi": 73,
          "name": "C#5",
          "ticks": 29040,
          "time": 65.999934,
          "velocity": 0.9133858267716536
        },
        {
          "duration": 0.2659088249999968,
          "durationTicks": 117,
          "midi": 66,
          "name": "F#4",
          "ticks": 29280,
          "time": 66.545388,
          "velocity": 0.9133858267716536
        },
        {
          "duration": 0.12954532499999516,
          "durationTicks": 57,
          "midi": 67,
          "name": "G4",
          "ticks": 29400,
          "time": 66.818115,
          "velocity": 0.9133858267716536
        },
        {
          "duration": 0.12954532500000937,
          "durationTicks": 57,
          "midi": 66,
          "name": "F#4",
          "ticks": 29460,
          "time": 66.9544785,
          "velocity": 0.9133858267716536
        },
        {
          "duration": 0.12954532500000937,
          "durationTicks": 57,
          "midi": 73,
          "name": "C#5",
          "ticks": 29520,
          "time": 67.090842,
          "velocity": 0.9133858267716536
        },
        {
          "duration": 0.2659088249999968,
          "durationTicks": 117,
          "midi": 78,
          "name": "F#5",
          "ticks": 29640,
          "time": 67.363569,
          "velocity": 0.9133858267716536
        },
        {
          "duration": 2.1749978249999913,
          "durationTicks": 957,
          "midi": 79,
          "name": "G5",
          "ticks": 29760,
          "time": 67.636296,
          "velocity": 0.9133858267716536
        },
        {
          "duration": 0.8181809999999956,
          "durationTicks": 360,
          "midi": 61,
          "name": "C#4",
          "ticks": 34560,
          "time": 78.545376,
          "velocity": 0.952755905511811
        },
        {
          "duration": 0.13636350000000164,
          "durationTicks": 60,
          "midi": 62,
          "name": "D4",
          "ticks": 34920,
          "time": 79.363557,
          "velocity": 0.8267716535433071
        },
        {
          "duration": 0.13636350000000164,
          "durationTicks": 60,
          "midi": 61,
          "name": "C#4",
          "ticks": 34980,
          "time": 79.4999205,
          "velocity": 0.9212598425196851
        },
        {
          "duration": 0.8181809999999956,
          "durationTicks": 360,
          "midi": 66,
          "name": "F#4",
          "ticks": 35040,
          "time": 79.636284,
          "velocity": 0.905511811023622
        },
        {
          "duration": 0.13636350000000164,
          "durationTicks": 60,
          "midi": 67,
          "name": "G4",
          "ticks": 35400,
          "time": 80.454465,
          "velocity": 0.7952755905511811
        },
        {
          "duration": 0.13636350000000164,
          "durationTicks": 60,
          "midi": 66,
          "name": "F#4",
          "ticks": 35460,
          "time": 80.5908285,
          "velocity": 0.905511811023622
        },
        {
          "duration": 1.9090889999999945,
          "durationTicks": 840,
          "midi": 73,
          "name": "C#5",
          "ticks": 35520,
          "time": 80.727192,
          "velocity": 0.84251968503937
        },
        {
          "duration": 0.13636350000000164,
          "durationTicks": 60,
          "midi": 76,
          "name": "E5",
          "ticks": 36360,
          "time": 82.636281,
          "velocity": 0.8582677165354331
        },
        {
          "duration": 0.2727270000000033,
          "durationTicks": 120,
          "midi": 78,
          "name": "F#5",
          "ticks": 36480,
          "time": 82.909008,
          "velocity": 0.905511811023622
        }
      ]
    },
    {
      "channel": 9,
      "controlChanges": {
        "7": [
          {
            "number": 7,
            "ticks": 0,
            "time": 0,
            "value": 0
          },
          {
            "number": 7,
            "ticks": 240,
            "time": 0.545454,
            "value": 0.7874015748031497
          },
          {
            "number": 7,
            "ticks": 1020,
            "time": 2.3181795,
            "value": 0.047244094488188976
          },
          {
            "number": 7,
            "ticks": 1080,
            "time": 2.454543,
            "value": 0.09448818897637795
          },
          {
            "number": 7,
            "ticks": 1140,
            "time": 2.5909065,
            "value": 0.14173228346456693
          },
          {
            "number": 7,
            "ticks": 1200,
            "time": 2.72727,
            "value": 0.1968503937007874
          },
          {
            "number": 7,
            "ticks": 1320,
            "time": 2.999997,
            "value": 0.29133858267716534
          },
          {
            "number": 7,
            "ticks": 1440,
            "time": 3.272724,
            "value": 0.3937007874015748
          },
          {
            "number": 7,
            "ticks": 1500,
            "time": 3.4090875,
            "value": 0.4409448818897638
          },
          {
            "number": 7,
            "ticks": 1560,
            "time": 3.545451,
            "value": 0.4881889763779528
          },
          {
            "number": 7,
            "ticks": 1620,
            "time": 3.6818144999999998,
            "value": 0.5354330708661418
          },
          {
            "number": 7,
            "ticks": 1680,
            "time": 3.818178,
            "value": 0.5905511811023622
          },
          {
            "number": 7,
            "ticks": 1740,
            "time": 3.9545415,
            "value": 0.6377952755905512
          },
          {
            "number": 7,
            "ticks": 1800,
            "time": 4.090905,
            "value": 0.6850393700787402
          },
          {
            "number": 7,
            "ticks": 1860,
            "time": 4.2272685,
            "value": 0.7322834645669292
          },
          {
            "number": 7,
            "ticks": 1920,
            "time": 4.363632,
            "value": 0.7874015748031497
          },
          {
            "number": 7,
            "ticks": 4680,
            "time": 10.636353,
            "value": 0.7874015748031497
          }
        ],
        "11": [
          {
            "number": 11,
            "ticks": 240,
            "time": 0.545454,
            "value": 0.7874015748031497
          },
          {
            "number": 11,
            "ticks": 4680,
            "time": 10.636353,
            "value": 0.7874015748031497
          }
        ],
        "64": [
          {
            "number": 64,
            "ticks": 240,
            "time": 0.545454,
            "value": 0.7874015748031497
          },
          {
            "number": 64,
            "ticks": 4680,
            "time": 10.636353,
            "value": 0
          }
        ],
        "91": [
          {
            "number": 91,
            "ticks": 240,
            "time": 0.545454,
            "value": 1
          },
          {
            "number": 91,
            "ticks": 4680,
            "time": 10.636353,
            "value": 0
          }
        ],
        "93": [
          {
            "number": 93,
            "ticks": 240,
            "time": 0.545454,
            "value": 0.9921259842519685
          },
          {
            "number": 93,
            "ticks": 4680,
            "time": 10.636353,
            "value": 0
          }
        ]
      },
      "pitchBends": [],
      "instrument": {
        "family": "drums",
        "number": 127
      },
      "name": "SeaShore",
      "notes": [
        {
          "duration": 7.636356000000001,
          "durationTicks": 3360,
          "midi": 93,
          "name": "A6",
          "ticks": 960,
          "time": 2.181816,
          "velocity": 1
        }
      ],
      "endOfTrackTicks": 4680
    },
    {
      "channel": 9,
      "controlChanges": {
        "0": [
          {
            "number": 0,
            "ticks": 0,
            "time": 0,
            "value": 0
          }
        ],
        "7": [
          {
            "number": 7,
            "ticks": 0,
            "time": 0,
            "value": 0.7874015748031497
          }
        ],
        "32": [
          {
            "number": 32,
            "ticks": 0,
            "time": 0,
            "value": 0
          }
        ]
      },
      "pitchBends": [],
      "instrument": {
        "family": "drums",
        "number": 0,
        "name": "standard kit"
      },
      "name": "Percussion",
      "notes": [
        {
          "duration": 0.1295453250000005,
          "durationTicks": 57,
          "midi": 36,
          "name": "C2",
          "ticks": 4800,
          "time": 10.90908,
          "velocity": 1
        },
        {
          "duration": 0.1295453250000005,
          "durationTicks": 57,
          "midi": 36,
          "name": "C2",
          "ticks": 4860,
          "time": 11.0454435,
          "velocity": 1
        },
        {
          "duration": 0.1295453250000005,
          "durationTicks": 57,
          "midi": 36,
          "name": "C2",
          "ticks": 5280,
          "time": 11.999988,
          "velocity": 1
        },
        {
          "duration": 0.1295453250000005,
          "durationTicks": 57,
          "midi": 36,
          "name": "C2",
          "ticks": 5340,
          "time": 12.1363515,
          "velocity": 1
        },
        {
          "duration": 0.1295453249999987,
          "durationTicks": 57,
          "midi": 36,
          "name": "C2",
          "ticks": 5760,
          "time": 13.090896,
          "velocity": 1
        },
        {
          "duration": 0.1295453250000005,
          "durationTicks": 57,
          "midi": 36,
          "name": "C2",
          "ticks": 5820,
          "time": 13.2272595,
          "velocity": 1
        },
        {
          "duration": 0.1295453250000005,
          "durationTicks": 57,
          "midi": 36,
          "name": "C2",
          "ticks": 6000,
          "time": 13.63635,
          "velocity": 1
        },
        {
          "duration": 0.1295453250000005,
          "durationTicks": 57,
          "midi": 36,
          "name": "C2",
          "ticks": 6060,
          "time": 13.7727135,
          "velocity": 1
        },
        {
          "duration": 0.1295453250000005,
          "durationTicks": 57,
          "midi": 36,
          "name": "C2",
          "ticks": 6240,
          "time": 14.181804,
          "velocity": 1
        },
        {
          "duration": 0.1295453250000005,
          "durationTicks": 57,
          "midi": 36,
          "name": "C2",
          "ticks": 6300,
          "time": 14.3181675,
          "velocity": 1
        },
        {
          "duration": 0.1295453250000005,
          "durationTicks": 57,
          "midi": 36,
          "name": "C2",
          "ticks": 6720,
          "time": 15.272712,
          "velocity": 1
        },
        {
          "duration": 0.1295453250000005,
          "durationTicks": 57,
          "midi": 36,
          "name": "C2",
          "ticks": 6780,
          "time": 15.4090755,
          "velocity": 1
        },
        {
          "duration": 0.1295453249999987,
          "durationTicks": 57,
          "midi": 36,
          "name": "C2",
          "ticks": 7200,
          "time": 16.36362,
          "velocity": 1
        },
        {
          "duration": 0.12954532500000226,
          "durationTicks": 57,
          "midi": 36,
          "name": "C2",
          "ticks": 7260,
          "time": 16.4999835,
          "velocity": 1
        },
        {
          "duration": 0.1295453249999987,
          "durationTicks": 57,
          "midi": 36,
          "name": "C2",
          "ticks": 7680,
          "time": 17.454528,
          "velocity": 1
        },
        {
          "duration": 0.12954532499999516,
          "durationTicks": 57,
          "midi": 36,
          "name": "C2",
          "ticks": 7740,
          "time": 17.5908915,
          "velocity": 1
        },
        {
          "duration": 0.1295453249999987,
          "durationTicks": 57,
          "midi": 36,
          "name": "C2",
          "ticks": 7920,
          "time": 17.999982,
          "velocity": 1
        },
        {
          "duration": 0.1295453249999987,
          "durationTicks": 57,
          "midi": 36,
          "name": "C2",
          "ticks": 7980,
          "time": 18.1363455,
          "velocity": 1
        },
        {
          "duration": 0.1295453249999987,
          "durationTicks": 57,
          "midi": 36,
          "name": "C2",
          "ticks": 8160,
          "time": 18.545436,
          "velocity": 1
        },
        {
          "duration": 0.1295453249999987,
          "durationTicks": 57,
          "midi": 36,
          "name": "C2",
          "ticks": 8220,
          "time": 18.6817995,
          "velocity": 1
        },
        {
          "duration": 0.1295453249999987,
          "durationTicks": 57,
          "midi": 36,
          "name": "C2",
          "ticks": 8640,
          "time": 19.636344,
          "velocity": 1
        },
        {
          "duration": 0.1295453249999987,
          "durationTicks": 57,
          "midi": 36,
          "name": "C2",
          "ticks": 8700,
          "time": 19.7727075,
          "velocity": 1
        },
        {
          "duration": 0.1295453249999987,
          "durationTicks": 57,
          "midi": 36,
          "name": "C2",
          "ticks": 9120,
          "time": 20.727252,
          "velocity": 1
        },
        {
          "duration": 0.1295453249999987,
          "durationTicks": 57,
          "midi": 36,
          "name": "C2",
          "ticks": 9180,
          "time": 20.863615499999998,
          "velocity": 1
        },
        {
          "duration": 0.1295453249999987,
          "durationTicks": 57,
          "midi": 36,
          "name": "C2",
          "ticks": 9600,
          "time": 21.81816,
          "velocity": 1
        },
        {
          "duration": 0.1295453249999987,
          "durationTicks": 57,
          "midi": 36,
          "name": "C2",
          "ticks": 9660,
          "time": 21.9545235,
          "velocity": 1
        },
        {
          "duration": 0.1295453249999987,
          "durationTicks": 57,
          "midi": 36,
          "name": "C2",
          "ticks": 9840,
          "time": 22.363614,
          "velocity": 1
        },
        {
          "duration": 0.1295453249999987,
          "durationTicks": 57,
          "midi": 36,
          "name": "C2",
          "ticks": 9900,
          "time": 22.4999775,
          "velocity": 1
        },
        {
          "duration": 0.12954532499999516,
          "durationTicks": 57,
          "midi": 36,
          "name": "C2",
          "ticks": 10080,
          "time": 22.909068,
          "velocity": 1
        },
        {
          "duration": 0.1295453249999987,
          "durationTicks": 57,
          "midi": 36,
          "name": "C2",
          "ticks": 10140,
          "time": 23.0454315,
          "velocity": 1
        },
        {
          "duration": 0.1295453249999987,
          "durationTicks": 57,
          "midi": 36,
          "name": "C2",
          "ticks": 10560,
          "time": 23.999976,
          "velocity": 1
        },
        {
          "duration": 0.1295453249999987,
          "durationTicks": 57,
          "midi": 36,
          "name": "C2",
          "ticks": 10620,
          "time": 24.1363395,
          "velocity": 1
        },
        {
          "duration": 0.1295453249999987,
          "durationTicks": 57,
          "midi": 36,
          "name": "C2",
          "ticks": 11040,
          "time": 25.090884,
          "velocity": 1
        },
        {
          "duration": 0.1295453249999987,
          "durationTicks": 57,
          "midi": 36,
          "name": "C2",
          "ticks": 11100,
          "time": 25.2272475,
          "velocity": 1
        },
        {
          "duration": 0.12954532499999516,
          "durationTicks": 57,
          "midi": 36,
          "name": "C2",
          "ticks": 11520,
          "time": 26.181792,
          "velocity": 1
        },
        {
          "duration": 0.1295453249999987,
          "durationTicks": 57,
          "midi": 36,
          "name": "C2",
          "ticks": 11580,
          "time": 26.3181555,
          "velocity": 1
        },
        {
          "duration": 0.1295453249999987,
          "durationTicks": 57,
          "midi": 36,
          "name": "C2",
          "ticks": 11760,
          "time": 26.727246,
          "velocity": 1
        },
        {
          "duration": 0.1295453249999987,
          "durationTicks": 57,
          "midi": 36,
          "name": "C2",
          "ticks": 11820,
          "time": 26.8636095,
          "velocity": 1
        },
        {
          "duration": 0.1295453249999987,
          "durationTicks": 57,
          "midi": 36,
          "name": "C2",
          "ticks": 12000,
          "time": 27.2727,
          "velocity": 1
        },
        {
          "duration": 0.1295453249999987,
          "durationTicks": 57,
          "midi": 36,
          "name": "C2",
          "ticks": 12060,
          "time": 27.4090635,
          "velocity": 1
        },
        {
          "duration": 0.1295453249999987,
          "durationTicks": 57,
          "midi": 36,
          "name": "C2",
          "ticks": 12480,
          "time": 28.363608,
          "velocity": 1
        },
        {
          "duration": 0.1295453249999987,
          "durationTicks": 57,
          "midi": 36,
          "name": "C2",
          "ticks": 12540,
          "time": 28.4999715,
          "velocity": 1
        },
        {
          "duration": 0.1295453249999987,
          "durationTicks": 57,
          "midi": 36,
          "name": "C2",
          "ticks": 12960,
          "time": 29.454515999999998,
          "velocity": 1
        },
        {
          "duration": 0.1295453249999987,
          "durationTicks": 57,
          "midi": 36,
          "name": "C2",
          "ticks": 13020,
          "time": 29.5908795,
          "velocity": 1
        },
        {
          "duration": 0.1295453249999987,
          "durationTicks": 57,
          "midi": 36,
          "name": "C2",
          "ticks": 13440,
          "time": 30.545424,
          "velocity": 1
        },
        {
          "duration": 0.1295453249999987,
          "durationTicks": 57,
          "midi": 36,
          "name": "C2",
          "ticks": 13500,
          "time": 30.6817875,
          "velocity": 1
        },
        {
          "duration": 0.1295453249999987,
          "durationTicks": 57,
          "midi": 36,
          "name": "C2",
          "ticks": 13680,
          "time": 31.090878,
          "velocity": 1
        },
        {
          "duration": 0.1295453249999987,
          "durationTicks": 57,
          "midi": 36,
          "name": "C2",
          "ticks": 13740,
          "time": 31.227241499999998,
          "velocity": 1
        },
        {
          "duration": 0.1295453249999987,
          "durationTicks": 57,
          "midi": 36,
          "name": "C2",
          "ticks": 13920,
          "time": 31.636332,
          "velocity": 1
        },
        {
          "duration": 0.1295453249999987,
          "durationTicks": 57,
          "midi": 36,
          "name": "C2",
          "ticks": 13980,
          "time": 31.7726955,
          "velocity": 1
        },
        {
          "duration": 0.12954532499999516,
          "durationTicks": 57,
          "midi": 36,
          "name": "C2",
          "ticks": 14400,
          "time": 32.72724,
          "velocity": 1
        },
        {
          "duration": 0.12954532500000226,
          "durationTicks": 57,
          "midi": 36,
          "name": "C2",
          "ticks": 14460,
          "time": 32.863603499999996,
          "velocity": 1
        },
        {
          "duration": 0.12954532499999516,
          "durationTicks": 57,
          "midi": 36,
          "name": "C2",
          "ticks": 14880,
          "time": 33.818148,
          "velocity": 1
        },
        {
          "duration": 0.12954532499999516,
          "durationTicks": 57,
          "midi": 36,
          "name": "C2",
          "ticks": 14940,
          "time": 33.9545115,
          "velocity": 1
        },
        {
          "duration": 0.12954532499999516,
          "durationTicks": 57,
          "midi": 36,
          "name": "C2",
          "ticks": 15360,
          "time": 34.909056,
          "velocity": 1
        },
        {
          "duration": 0.12954532499999516,
          "durationTicks": 57,
          "midi": 36,
          "name": "C2",
          "ticks": 15420,
          "time": 35.0454195,
          "velocity": 1
        },
        {
          "duration": 0.12954532500000226,
          "durationTicks": 57,
          "midi": 36,
          "name": "C2",
          "ticks": 15840,
          "time": 35.999964,
          "velocity": 1
        },
        {
          "duration": 0.12954532499999516,
          "durationTicks": 57,
          "midi": 36,
          "name": "C2",
          "ticks": 15900,
          "time": 36.1363275,
          "velocity": 1
        },
        {
          "duration": 0.12954532500000226,
          "durationTicks": 57,
          "midi": 36,
          "name": "C2",
          "ticks": 16320,
          "time": 37.090872,
          "velocity": 1
        },
        {
          "duration": 0.12954532500000226,
          "durationTicks": 57,
          "midi": 36,
          "name": "C2",
          "ticks": 16380,
          "time": 37.2272355,
          "velocity": 1
        },
        {
          "duration": 0.12954532500000226,
          "durationTicks": 57,
          "midi": 36,
          "name": "C2",
          "ticks": 16560,
          "time": 37.636326,
          "velocity": 1
        },
        {
          "duration": 0.12954532500000226,
          "durationTicks": 57,
          "midi": 36,
          "name": "C2",
          "ticks": 16620,
          "time": 37.7726895,
          "velocity": 1
        },
        {
          "duration": 0.12954532500000226,
          "durationTicks": 57,
          "midi": 36,
          "name": "C2",
          "ticks": 16800,
          "time": 38.181779999999996,
          "velocity": 1
        },
        {
          "duration": 0.12954532500000226,
          "durationTicks": 57,
          "midi": 36,
          "name": "C2",
          "ticks": 16860,
          "time": 38.3181435,
          "velocity": 1
        },
        {
          "duration": 0.12954532499999516,
          "durationTicks": 57,
          "midi": 36,
          "name": "C2",
          "ticks": 17280,
          "time": 39.272688,
          "velocity": 1
        },
        {
          "duration": 0.12954532500000226,
          "durationTicks": 57,
          "midi": 36,
          "name": "C2",
          "ticks": 17340,
          "time": 39.4090515,
          "velocity": 1
        },
        {
          "duration": 0.12954532499999516,
          "durationTicks": 57,
          "midi": 36,
          "name": "C2",
          "ticks": 17760,
          "time": 40.363596,
          "velocity": 1
        },
        {
          "duration": 0.12954532499999516,
          "durationTicks": 57,
          "midi": 36,
          "name": "C2",
          "ticks": 17820,
          "time": 40.4999595,
          "velocity": 1
        },
        {
          "duration": 0.12954532499999516,
          "durationTicks": 57,
          "midi": 36,
          "name": "C2",
          "ticks": 18000,
          "time": 40.90905,
          "velocity": 1
        },
        {
          "duration": 0.12954532499999516,
          "durationTicks": 57,
          "midi": 36,
          "name": "C2",
          "ticks": 18060,
          "time": 41.0454135,
          "velocity": 1
        },
        {
          "duration": 0.12954532499999516,
          "durationTicks": 57,
          "midi": 36,
          "name": "C2",
          "ticks": 18240,
          "time": 41.454504,
          "velocity": 1
        },
        {
          "duration": 0.12954532499999516,
          "durationTicks": 57,
          "midi": 36,
          "name": "C2",
          "ticks": 18300,
          "time": 41.5908675,
          "velocity": 1
        },
        {
          "duration": 0.12954532500000226,
          "durationTicks": 57,
          "midi": 36,
          "name": "C2",
          "ticks": 18720,
          "time": 42.545412,
          "velocity": 1
        },
        {
          "duration": 0.12954532499999516,
          "durationTicks": 57,
          "midi": 36,
          "name": "C2",
          "ticks": 18780,
          "time": 42.6817755,
          "velocity": 1
        },
        {
          "duration": 0.12954532500000226,
          "durationTicks": 57,
          "midi": 36,
          "name": "C2",
          "ticks": 19200,
          "time": 43.63632,
          "velocity": 1
        },
        {
          "duration": 0.12954532499999516,
          "durationTicks": 57,
          "midi": 36,
          "name": "C2",
          "ticks": 19260,
          "time": 43.7726835,
          "velocity": 1
        },
        {
          "duration": 0.12954532500000226,
          "durationTicks": 57,
          "midi": 36,
          "name": "C2",
          "ticks": 19680,
          "time": 44.727228,
          "velocity": 1
        },
        {
          "duration": 0.12954532500000226,
          "durationTicks": 57,
          "midi": 36,
          "name": "C2",
          "ticks": 19740,
          "time": 44.8635915,
          "velocity": 1
        },
        {
          "duration": 0.12954532499999516,
          "durationTicks": 57,
          "midi": 36,
          "name": "C2",
          "ticks": 20160,
          "time": 45.818136,
          "velocity": 1
        },
        {
          "duration": 0.12954532500000226,
          "durationTicks": 57,
          "midi": 36,
          "name": "C2",
          "ticks": 20220,
          "time": 45.9544995,
          "velocity": 1
        },
        {
          "duration": 0.12954532499999516,
          "durationTicks": 57,
          "midi": 36,
          "name": "C2",
          "ticks": 20640,
          "time": 46.909044,
          "velocity": 1
        },
        {
          "duration": 0.12954532500000226,
          "durationTicks": 57,
          "midi": 36,
          "name": "C2",
          "ticks": 20700,
          "time": 47.045407499999996,
          "velocity": 1
        },
        {
          "duration": 0.12954532499999516,
          "durationTicks": 57,
          "midi": 36,
          "name": "C2",
          "ticks": 21120,
          "time": 47.999952,
          "velocity": 1
        },
        {
          "duration": 0.12954532500000226,
          "durationTicks": 57,
          "midi": 36,
          "name": "C2",
          "ticks": 21480,
          "time": 48.818132999999996,
          "velocity": 1
        },
        {
          "duration": 0.12954532499999516,
          "durationTicks": 57,
          "midi": 36,
          "name": "C2",
          "ticks": 21600,
          "time": 49.09086,
          "velocity": 1
        },
        {
          "duration": 0.12954532500000226,
          "durationTicks": 57,
          "midi": 36,
          "name": "C2",
          "ticks": 25440,
          "time": 57.818124,
          "velocity": 1
        },
        {
          "duration": 0.12954532500000226,
          "durationTicks": 57,
          "midi": 36,
          "name": "C2",
          "ticks": 25500,
          "time": 57.9544875,
          "velocity": 1
        },
        {
          "duration": 0.12954532500000226,
          "durationTicks": 57,
          "midi": 36,
          "name": "C2",
          "ticks": 25920,
          "time": 58.909031999999996,
          "velocity": 1
        },
        {
          "duration": 0.12954532500000226,
          "durationTicks": 57,
          "midi": 36,
          "name": "C2",
          "ticks": 25980,
          "time": 59.0453955,
          "velocity": 1
        },
        {
          "duration": 0.12954532499999516,
          "durationTicks": 57,
          "midi": 36,
          "name": "C2",
          "ticks": 26400,
          "time": 59.99994,
          "velocity": 1
        },
        {
          "duration": 0.12954532500000226,
          "durationTicks": 57,
          "midi": 36,
          "name": "C2",
          "ticks": 26460,
          "time": 60.1363035,
          "velocity": 1
        },
        {
          "duration": 0.12954532499999516,
          "durationTicks": 57,
          "midi": 36,
          "name": "C2",
          "ticks": 26640,
          "time": 60.545394,
          "velocity": 1
        },
        {
          "duration": 0.12954532500000226,
          "durationTicks": 57,
          "midi": 36,
          "name": "C2",
          "ticks": 26700,
          "time": 60.681757499999996,
          "velocity": 1
        },
        {
          "duration": 0.12954532499999516,
          "durationTicks": 57,
          "midi": 36,
          "name": "C2",
          "ticks": 26880,
          "time": 61.090848,
          "velocity": 1
        },
        {
          "duration": 0.12954532499999516,
          "durationTicks": 57,
          "midi": 36,
          "name": "C2",
          "ticks": 26940,
          "time": 61.2272115,
          "velocity": 1
        },
        {
          "duration": 0.12954532499999516,
          "durationTicks": 57,
          "midi": 36,
          "name": "C2",
          "ticks": 27360,
          "time": 62.181756,
          "velocity": 1
        },
        {
          "duration": 0.12954532499999516,
          "durationTicks": 57,
          "midi": 36,
          "name": "C2",
          "ticks": 27420,
          "time": 62.3181195,
          "velocity": 1
        },
        {
          "duration": 0.12954532500000226,
          "durationTicks": 57,
          "midi": 36,
          "name": "C2",
          "ticks": 27840,
          "time": 63.272664,
          "velocity": 1
        },
        {
          "duration": 0.12954532499999516,
          "durationTicks": 57,
          "midi": 36,
          "name": "C2",
          "ticks": 27900,
          "time": 63.4090275,
          "velocity": 1
        },
        {
          "duration": 0.12954532500000226,
          "durationTicks": 57,
          "midi": 36,
          "name": "C2",
          "ticks": 28080,
          "time": 63.818118,
          "velocity": 1
        },
        {
          "duration": 0.12954532499999516,
          "durationTicks": 57,
          "midi": 36,
          "name": "C2",
          "ticks": 28140,
          "time": 63.9544815,
          "velocity": 1
        },
        {
          "duration": 0.12954532499999516,
          "durationTicks": 57,
          "midi": 36,
          "name": "C2",
          "ticks": 28320,
          "time": 64.363572,
          "velocity": 1
        },
        {
          "duration": 0.12954532500000937,
          "durationTicks": 57,
          "midi": 36,
          "name": "C2",
          "ticks": 28380,
          "time": 64.49993549999999,
          "velocity": 1
        },
        {
          "duration": 0.12954532499999516,
          "durationTicks": 57,
          "midi": 36,
          "name": "C2",
          "ticks": 28800,
          "time": 65.45448,
          "velocity": 1
        },
        {
          "duration": 0.12954532499999516,
          "durationTicks": 57,
          "midi": 36,
          "name": "C2",
          "ticks": 28860,
          "time": 65.5908435,
          "velocity": 1
        },
        {
          "duration": 0.12954532499999516,
          "durationTicks": 57,
          "midi": 36,
          "name": "C2",
          "ticks": 29280,
          "time": 66.545388,
          "velocity": 1
        },
        {
          "duration": 0.12954532499999516,
          "durationTicks": 57,
          "midi": 36,
          "name": "C2",
          "ticks": 29340,
          "time": 66.6817515,
          "velocity": 1
        },
        {
          "duration": 0.12954532500000937,
          "durationTicks": 57,
          "midi": 36,
          "name": "C2",
          "ticks": 29520,
          "time": 67.090842,
          "velocity": 1
        },
        {
          "duration": 0.12954532499999516,
          "durationTicks": 57,
          "midi": 36,
          "name": "C2",
          "ticks": 29580,
          "time": 67.2272055,
          "velocity": 1
        },
        {
          "duration": 0.12954532499999516,
          "durationTicks": 57,
          "midi": 36,
          "name": "C2",
          "ticks": 29760,
          "time": 67.636296,
          "velocity": 1
        },
        {
          "duration": 0.12954532499999516,
          "durationTicks": 57,
          "midi": 36,
          "name": "C2",
          "ticks": 29820,
          "time": 67.7726595,
          "velocity": 1
        },
        {
          "duration": 0.12954532499999516,
          "durationTicks": 57,
          "midi": 36,
          "name": "C2",
          "ticks": 30240,
          "time": 68.727204,
          "velocity": 1
        },
        {
          "duration": 0.12954532499999516,
          "durationTicks": 57,
          "midi": 36,
          "name": "C2",
          "ticks": 30300,
          "time": 68.8635675,
          "velocity": 1
        },
        {
          "duration": 0.12954532500000937,
          "durationTicks": 57,
          "midi": 36,
          "name": "C2",
          "ticks": 30720,
          "time": 69.818112,
          "velocity": 1
        },
        {
          "duration": 0.12954532500000937,
          "durationTicks": 57,
          "midi": 36,
          "name": "C2",
          "ticks": 30780,
          "time": 69.9544755,
          "velocity": 1
        },
        {
          "duration": 0.12954532499999516,
          "durationTicks": 57,
          "midi": 36,
          "name": "C2",
          "ticks": 30960,
          "time": 70.363566,
          "velocity": 1
        },
        {
          "duration": 0.12954532500000937,
          "durationTicks": 57,
          "midi": 36,
          "name": "C2",
          "ticks": 31020,
          "time": 70.4999295,
          "velocity": 1
        },
        {
          "duration": 0.12954532500000937,
          "durationTicks": 57,
          "midi": 36,
          "name": "C2",
          "ticks": 31200,
          "time": 70.90902,
          "velocity": 1
        },
        {
          "duration": 0.12954532500000937,
          "durationTicks": 57,
          "midi": 36,
          "name": "C2",
          "ticks": 31260,
          "time": 71.0453835,
          "velocity": 1
        },
        {
          "duration": 0.12954532500000937,
          "durationTicks": 57,
          "midi": 36,
          "name": "C2",
          "ticks": 31680,
          "time": 71.999928,
          "velocity": 1
        },
        {
          "duration": 0.12954532500000937,
          "durationTicks": 57,
          "midi": 36,
          "name": "C2",
          "ticks": 31740,
          "time": 72.1362915,
          "velocity": 1
        },
        {
          "duration": 0.12954532500000937,
          "durationTicks": 57,
          "midi": 36,
          "name": "C2",
          "ticks": 32160,
          "time": 73.090836,
          "velocity": 1
        },
        {
          "duration": 0.12954532500000937,
          "durationTicks": 57,
          "midi": 36,
          "name": "C2",
          "ticks": 32220,
          "time": 73.2271995,
          "velocity": 1
        },
        {
          "duration": 0.12954532500000937,
          "durationTicks": 57,
          "midi": 36,
          "name": "C2",
          "ticks": 32640,
          "time": 74.181744,
          "velocity": 1
        },
        {
          "duration": 0.12954532500000937,
          "durationTicks": 57,
          "midi": 36,
          "name": "C2",
          "ticks": 32700,
          "time": 74.3181075,
          "velocity": 1
        },
        {
          "duration": 0.12954532500000937,
          "durationTicks": 57,
          "midi": 36,
          "name": "C2",
          "ticks": 32880,
          "time": 74.727198,
          "velocity": 1
        },
        {
          "duration": 0.12954532500000937,
          "durationTicks": 57,
          "midi": 36,
          "name": "C2",
          "ticks": 32940,
          "time": 74.8635615,
          "velocity": 1
        },
        {
          "duration": 0.12954532500000937,
          "durationTicks": 57,
          "midi": 36,
          "name": "C2",
          "ticks": 33120,
          "time": 75.272652,
          "velocity": 1
        },
        {
          "duration": 0.12954532500000937,
          "durationTicks": 57,
          "midi": 36,
          "name": "C2",
          "ticks": 33180,
          "time": 75.4090155,
          "velocity": 1
        },
        {
          "duration": 0.12954532500000937,
          "durationTicks": 57,
          "midi": 36,
          "name": "C2",
          "ticks": 33600,
          "time": 76.36355999999999,
          "velocity": 1
        },
        {
          "duration": 0.12954532500000937,
          "durationTicks": 57,
          "midi": 36,
          "name": "C2",
          "ticks": 33660,
          "time": 76.4999235,
          "velocity": 1
        },
        {
          "duration": 0.12954532499999516,
          "durationTicks": 57,
          "midi": 36,
          "name": "C2",
          "ticks": 34080,
          "time": 77.454468,
          "velocity": 1
        },
        {
          "duration": 0.12954532500000937,
          "durationTicks": 57,
          "midi": 36,
          "name": "C2",
          "ticks": 34140,
          "time": 77.5908315,
          "velocity": 1
        },
        {
          "duration": 0.12954532499999516,
          "durationTicks": 57,
          "midi": 36,
          "name": "C2",
          "ticks": 34560,
          "time": 78.545376,
          "velocity": 1
        },
        {
          "duration": 0.12954532499999516,
          "durationTicks": 57,
          "midi": 36,
          "name": "C2",
          "ticks": 34620,
          "time": 78.6817395,
          "velocity": 1
        },
        {
          "duration": 0.12954532499999516,
          "durationTicks": 57,
          "midi": 36,
          "name": "C2",
          "ticks": 35040,
          "time": 79.636284,
          "velocity": 1
        },
        {
          "duration": 0.12954532499999516,
          "durationTicks": 57,
          "midi": 36,
          "name": "C2",
          "ticks": 35100,
          "time": 79.7726475,
          "velocity": 1
        },
        {
          "duration": 0.12954532500000937,
          "durationTicks": 57,
          "midi": 36,
          "name": "C2",
          "ticks": 35520,
          "time": 80.727192,
          "velocity": 1
        },
        {
          "duration": 0.12954532499999516,
          "durationTicks": 57,
          "midi": 36,
          "name": "C2",
          "ticks": 35580,
          "time": 80.8635555,
          "velocity": 1
        },
        {
          "duration": 0.12954532500000937,
          "durationTicks": 57,
          "midi": 36,
          "name": "C2",
          "ticks": 35760,
          "time": 81.272646,
          "velocity": 1
        },
        {
          "duration": 0.12954532500000937,
          "durationTicks": 57,
          "midi": 36,
          "name": "C2",
          "ticks": 35820,
          "time": 81.4090095,
          "velocity": 1
        },
        {
          "duration": 0.12954532500000937,
          "durationTicks": 57,
          "midi": 36,
          "name": "C2",
          "ticks": 36000,
          "time": 81.8181,
          "velocity": 1
        },
        {
          "duration": 0.12954532500000937,
          "durationTicks": 57,
          "midi": 36,
          "name": "C2",
          "ticks": 36060,
          "time": 81.9544635,
          "velocity": 1
        }
      ],
      "endOfTrackTicks": 36117
    },
    {
      "channel": 0,
      "controlChanges": {
        "0": [
          {
            "number": 0,
            "ticks": 0,
            "time": 0,
            "value": 0
          }
        ],
        "32": [
          {
            "number": 32,
            "ticks": 0,
            "time": 0,
            "value": 0
          }
        ]
      },
      "pitchBends": [],
      "instrument": {
        "family": "piano",
        "number": 0,
        "name": "acoustic grand piano"
      },
      "name": "Sawtooth",
      "notes": [],
      "endOfTrackTicks": 31620
    },
    {
      "channel": 7,
      "controlChanges": {
        "7": [
          {
            "number": 7,
            "ticks": 0,
            "time": 0,
            "value": 0.7874015748031497
          },
          {
            "number": 7,
            "ticks": 0,
            "time": 0,
            "value": 0.7874015748031497
          }
        ],
        "11": [
          {
            "number": 11,
            "ticks": 0,
            "time": 0,
            "value": 0.7874015748031497
          }
        ],
        "64": [
          {
            "number": 64,
            "ticks": 0,
            "time": 0,
            "value": 0
          }
        ],
        "91": [
          {
            "number": 91,
            "ticks": 0,
            "time": 0,
            "value": 0
          }
        ],
        "93": [
          {
            "number": 93,
            "ticks": 0,
            "time": 0,
            "value": 0
          }
        ]
      },
      "pitchBends": [],
      "instrument": {
        "family": "synth lead",
        "number": 81,
        "name": "lead 2 (sawtooth)"
      },
      "name": "",
      "notes": [
        {
          "duration": 0.12954532499999516,
          "durationTicks": 57,
          "midi": 66,
          "name": "F#4",
          "ticks": 20160,
          "time": 45.818136,
          "velocity": 0.6771653543307087
        },
        {
          "duration": 0.2659088250000039,
          "durationTicks": 117,
          "midi": 67,
          "name": "G4",
          "ticks": 20220,
          "time": 45.9544995,
          "velocity": 0.6771653543307087
        },
        {
          "duration": 0.12954532500000226,
          "durationTicks": 57,
          "midi": 66,
          "name": "F#4",
          "ticks": 20280,
          "time": 46.090863,
          "velocity": 0.6771653543307087
        },
        {
          "duration": 0.12954532499999516,
          "durationTicks": 57,
          "midi": 63,
          "name": "D#4",
          "ticks": 20340,
          "time": 46.2272265,
          "velocity": 0.6771653543307087
        },
        {
          "duration": 0.12954532499999516,
          "durationTicks": 57,
          "midi": 66,
          "name": "F#4",
          "ticks": 20400,
          "time": 46.36359,
          "velocity": 0.6771653543307087
        },
        {
          "duration": 0.2659088250000039,
          "durationTicks": 117,
          "midi": 67,
          "name": "G4",
          "ticks": 20460,
          "time": 46.4999535,
          "velocity": 0.6771653543307087
        },
        {
          "duration": 0.12954532500000226,
          "durationTicks": 57,
          "midi": 66,
          "name": "F#4",
          "ticks": 20520,
          "time": 46.636317,
          "velocity": 0.6771653543307087
        },
        {
          "duration": 0.12954532499999516,
          "durationTicks": 57,
          "midi": 63,
          "name": "D#4",
          "ticks": 20580,
          "time": 46.7726805,
          "velocity": 0.6771653543307087
        },
        {
          "duration": 0.12954532499999516,
          "durationTicks": 57,
          "midi": 66,
          "name": "F#4",
          "ticks": 20640,
          "time": 46.909044,
          "velocity": 0.6771653543307087
        },
        {
          "duration": 0.2659088250000039,
          "durationTicks": 117,
          "midi": 67,
          "name": "G4",
          "ticks": 20700,
          "time": 47.045407499999996,
          "velocity": 0.6771653543307087
        },
        {
          "duration": 0.2659088249999968,
          "durationTicks": 117,
          "midi": 66,
          "name": "F#4",
          "ticks": 20760,
          "time": 47.181771,
          "velocity": 0.6771653543307087
        },
        {
          "duration": 0.12954532499999516,
          "durationTicks": 57,
          "midi": 63,
          "name": "D#4",
          "ticks": 20820,
          "time": 47.3181345,
          "velocity": 0.6771653543307087
        },
        {
          "duration": 0.12954532499999516,
          "durationTicks": 57,
          "midi": 66,
          "name": "F#4",
          "ticks": 20880,
          "time": 47.454498,
          "velocity": 0.6771653543307087
        },
        {
          "duration": 0.12954532499999516,
          "durationTicks": 57,
          "midi": 67,
          "name": "G4",
          "ticks": 20940,
          "time": 47.5908615,
          "velocity": 0.6771653543307087
        },
        {
          "duration": 0.12954532500000226,
          "durationTicks": 57,
          "midi": 66,
          "name": "F#4",
          "ticks": 21000,
          "time": 47.727225,
          "velocity": 0.6771653543307087
        },
        {
          "duration": 0.12954532500000226,
          "durationTicks": 57,
          "midi": 63,
          "name": "D#4",
          "ticks": 21060,
          "time": 47.8635885,
          "velocity": 0.6771653543307087
        },
        {
          "duration": 0.12954532499999516,
          "durationTicks": 57,
          "midi": 66,
          "name": "F#4",
          "ticks": 21120,
          "time": 47.999952,
          "velocity": 0.6771653543307087
        },
        {
          "duration": 0.12954532499999516,
          "durationTicks": 57,
          "midi": 66,
          "name": "F#4",
          "ticks": 21600,
          "time": 49.09086,
          "velocity": 0.6771653543307087
        },
        {
          "duration": 0.13636349999999453,
          "durationTicks": 60,
          "midi": 66,
          "name": "F#4",
          "ticks": 21720,
          "time": 49.363587,
          "velocity": 0.6771653543307087
        },
        {
          "duration": 0.12954532500000937,
          "durationTicks": 57,
          "midi": 66,
          "name": "F#4",
          "ticks": 30720,
          "time": 69.818112,
          "velocity": 0.6771653543307087
        },
        {
          "duration": 0.265908825000011,
          "durationTicks": 117,
          "midi": 67,
          "name": "G4",
          "ticks": 30780,
          "time": 69.9544755,
          "velocity": 0.6771653543307087
        },
        {
          "duration": 0.12954532500000937,
          "durationTicks": 57,
          "midi": 66,
          "name": "F#4",
          "ticks": 30840,
          "time": 70.090839,
          "velocity": 0.6771653543307087
        },
        {
          "duration": 0.12954532499999516,
          "durationTicks": 57,
          "midi": 63,
          "name": "D#4",
          "ticks": 30900,
          "time": 70.2272025,
          "velocity": 0.6771653543307087
        },
        {
          "duration": 0.12954532499999516,
          "durationTicks": 57,
          "midi": 66,
          "name": "F#4",
          "ticks": 30960,
          "time": 70.363566,
          "velocity": 0.6771653543307087
        },
        {
          "duration": 0.265908825000011,
          "durationTicks": 117,
          "midi": 67,
          "name": "G4",
          "ticks": 31020,
          "time": 70.4999295,
          "velocity": 0.6771653543307087
        },
        {
          "duration": 0.12954532500000937,
          "durationTicks": 57,
          "midi": 66,
          "name": "F#4",
          "ticks": 31080,
          "time": 70.636293,
          "velocity": 0.6771653543307087
        },
        {
          "duration": 0.12954532500000937,
          "durationTicks": 57,
          "midi": 63,
          "name": "D#4",
          "ticks": 31140,
          "time": 70.7726565,
          "velocity": 0.6771653543307087
        },
        {
          "duration": 0.12954532500000937,
          "durationTicks": 57,
          "midi": 66,
          "name": "F#4",
          "ticks": 31200,
          "time": 70.90902,
          "velocity": 0.6771653543307087
        },
        {
          "duration": 0.265908825000011,
          "durationTicks": 117,
          "midi": 67,
          "name": "G4",
          "ticks": 31260,
          "time": 71.0453835,
          "velocity": 0.6771653543307087
        },
        {
          "duration": 0.265908825000011,
          "durationTicks": 117,
          "midi": 66,
          "name": "F#4",
          "ticks": 31320,
          "time": 71.181747,
          "velocity": 0.6771653543307087
        },
        {
          "duration": 0.12954532500000937,
          "durationTicks": 57,
          "midi": 63,
          "name": "D#4",
          "ticks": 31380,
          "time": 71.3181105,
          "velocity": 0.6771653543307087
        },
        {
          "duration": 0.12954532499999516,
          "durationTicks": 57,
          "midi": 66,
          "name": "F#4",
          "ticks": 31440,
          "time": 71.454474,
          "velocity": 0.6771653543307087
        },
        {
          "duration": 0.13636350000000164,
          "durationTicks": 60,
          "midi": 66,
          "name": "F#4",
          "ticks": 31560,
          "time": 71.727201,
          "velocity": 0.6771653543307087
        }
      ]
    },
    {
      "channel": 9,
      "controlChanges": {
        "0": [
          {
            "number": 0,
            "ticks": 0,
            "time": 0,
            "value": 0
          }
        ],
        "7": [
          {
            "number": 7,
            "ticks": 0,
            "time": 0,
            "value": 0.7874015748031497
          }
        ],
        "32": [
          {
            "number": 32,
            "ticks": 0,
            "time": 0,
            "value": 0
          }
        ]
      },
      "pitchBends": [],
      "instrument": {
        "family": "drums",
        "number": 0,
        "name": "standard kit"
      },
      "name": "Percussion",
      "notes": [
        {
          "duration": 0.5386358250000001,
          "durationTicks": 237,
          "midi": 38,
          "name": "D2",
          "ticks": 5040,
          "time": 11.454534,
          "velocity": 0.9133858267716536
        },
        {
          "duration": 0.5386358250000001,
          "durationTicks": 237,
          "midi": 38,
          "name": "D2",
          "ticks": 5520,
          "time": 12.545442,
          "velocity": 0.9133858267716536
        },
        {
          "duration": 0.5386358250000001,
          "durationTicks": 237,
          "midi": 38,
          "name": "D2",
          "ticks": 6000,
          "time": 13.63635,
          "velocity": 0.9133858267716536
        },
        {
          "duration": 0.5386358250000018,
          "durationTicks": 237,
          "midi": 38,
          "name": "D2",
          "ticks": 6480,
          "time": 14.727257999999999,
          "velocity": 0.9133858267716536
        },
        {
          "duration": 0.5386358250000018,
          "durationTicks": 237,
          "midi": 38,
          "name": "D2",
          "ticks": 6960,
          "time": 15.818166,
          "velocity": 0.9133858267716536
        },
        {
          "duration": 0.5386358250000001,
          "durationTicks": 237,
          "midi": 38,
          "name": "D2",
          "ticks": 7440,
          "time": 16.909074,
          "velocity": 0.9133858267716536
        },
        {
          "duration": 0.5386358250000001,
          "durationTicks": 237,
          "midi": 38,
          "name": "D2",
          "ticks": 7920,
          "time": 17.999982,
          "velocity": 0.9133858267716536
        },
        {
          "duration": 0.40227232499999843,
          "durationTicks": 177,
          "midi": 38,
          "name": "D2",
          "ticks": 8400,
          "time": 19.090889999999998,
          "velocity": 0.9133858267716536
        },
        {
          "duration": 0.12954532499999516,
          "durationTicks": 57,
          "midi": 38,
          "name": "D2",
          "ticks": 8520,
          "time": 19.363617,
          "velocity": 0.9133858267716536
        },
        {
          "duration": 0.1295453249999987,
          "durationTicks": 57,
          "midi": 38,
          "name": "D2",
          "ticks": 8580,
          "time": 19.4999805,
          "velocity": 0.9133858267716536
        },
        {
          "duration": 0.5386358249999965,
          "durationTicks": 237,
          "midi": 38,
          "name": "D2",
          "ticks": 8880,
          "time": 20.181798,
          "velocity": 0.9133858267716536
        },
        {
          "duration": 0.5386358250000001,
          "durationTicks": 237,
          "midi": 38,
          "name": "D2",
          "ticks": 9360,
          "time": 21.272706,
          "velocity": 0.9133858267716536
        },
        {
          "duration": 0.5386358250000001,
          "durationTicks": 237,
          "midi": 38,
          "name": "D2",
          "ticks": 9840,
          "time": 22.363614,
          "velocity": 0.9133858267716536
        },
        {
          "duration": 0.5386358249999965,
          "durationTicks": 237,
          "midi": 38,
          "name": "D2",
          "ticks": 10320,
          "time": 23.454522,
          "velocity": 0.9133858267716536
        },
        {
          "duration": 0.5386358250000001,
          "durationTicks": 237,
          "midi": 38,
          "name": "D2",
          "ticks": 10800,
          "time": 24.54543,
          "velocity": 0.9133858267716536
        },
        {
          "duration": 0.5386358250000001,
          "durationTicks": 237,
          "midi": 38,
          "name": "D2",
          "ticks": 11280,
          "time": 25.636338,
          "velocity": 0.9133858267716536
        },
        {
          "duration": 0.5386358249999965,
          "durationTicks": 237,
          "midi": 38,
          "name": "D2",
          "ticks": 11760,
          "time": 26.727246,
          "velocity": 0.9133858267716536
        },
        {
          "duration": 0.40227232499999843,
          "durationTicks": 177,
          "midi": 38,
          "name": "D2",
          "ticks": 12240,
          "time": 27.818154,
          "velocity": 0.9133858267716536
        },
        {
          "duration": 0.1295453249999987,
          "durationTicks": 57,
          "midi": 38,
          "name": "D2",
          "ticks": 12360,
          "time": 28.090881,
          "velocity": 0.9133858267716536
        },
        {
          "duration": 0.1295453249999987,
          "durationTicks": 57,
          "midi": 38,
          "name": "D2",
          "ticks": 12420,
          "time": 28.2272445,
          "velocity": 0.9133858267716536
        },
        {
          "duration": 0.5386358250000001,
          "durationTicks": 237,
          "midi": 38,
          "name": "D2",
          "ticks": 12720,
          "time": 28.909062,
          "velocity": 0.9133858267716536
        },
        {
          "duration": 0.5386358249999965,
          "durationTicks": 237,
          "midi": 38,
          "name": "D2",
          "ticks": 13200,
          "time": 29.99997,
          "velocity": 0.9133858267716536
        },
        {
          "duration": 0.5386358249999965,
          "durationTicks": 237,
          "midi": 38,
          "name": "D2",
          "ticks": 13680,
          "time": 31.090878,
          "velocity": 0.9133858267716536
        },
        {
          "duration": 0.538635824999993,
          "durationTicks": 237,
          "midi": 38,
          "name": "D2",
          "ticks": 14160,
          "time": 32.181786,
          "velocity": 0.9133858267716536
        },
        {
          "duration": 0.5386358250000001,
          "durationTicks": 237,
          "midi": 38,
          "name": "D2",
          "ticks": 14640,
          "time": 33.272694,
          "velocity": 0.9133858267716536
        },
        {
          "duration": 0.5386358250000001,
          "durationTicks": 237,
          "midi": 38,
          "name": "D2",
          "ticks": 15120,
          "time": 34.363602,
          "velocity": 0.9133858267716536
        },
        {
          "duration": 0.5386358250000001,
          "durationTicks": 237,
          "midi": 38,
          "name": "D2",
          "ticks": 15600,
          "time": 35.45451,
          "velocity": 0.9133858267716536
        },
        {
          "duration": 0.5386358250000001,
          "durationTicks": 237,
          "midi": 38,
          "name": "D2",
          "ticks": 16080,
          "time": 36.545418,
          "velocity": 0.9133858267716536
        },
        {
          "duration": 0.40227232499999843,
          "durationTicks": 177,
          "midi": 38,
          "name": "D2",
          "ticks": 16560,
          "time": 37.636326,
          "velocity": 0.9133858267716536
        },
        {
          "duration": 0.12954532499999516,
          "durationTicks": 57,
          "midi": 38,
          "name": "D2",
          "ticks": 16680,
          "time": 37.909053,
          "velocity": 0.9133858267716536
        },
        {
          "duration": 0.12954532499999516,
          "durationTicks": 57,
          "midi": 38,
          "name": "D2",
          "ticks": 16740,
          "time": 38.0454165,
          "velocity": 0.9133858267716536
        },
        {
          "duration": 0.538635824999993,
          "durationTicks": 237,
          "midi": 38,
          "name": "D2",
          "ticks": 17040,
          "time": 38.727234,
          "velocity": 0.9133858267716536
        },
        {
          "duration": 0.538635824999993,
          "durationTicks": 237,
          "midi": 38,
          "name": "D2",
          "ticks": 17520,
          "time": 39.818142,
          "velocity": 0.9133858267716536
        },
        {
          "duration": 0.5386358250000001,
          "durationTicks": 237,
          "midi": 38,
          "name": "D2",
          "ticks": 18000,
          "time": 40.90905,
          "velocity": 0.9133858267716536
        },
        {
          "duration": 0.5386358250000001,
          "durationTicks": 237,
          "midi": 38,
          "name": "D2",
          "ticks": 18480,
          "time": 41.999958,
          "velocity": 0.9133858267716536
        },
        {
          "duration": 0.5386358250000001,
          "durationTicks": 237,
          "midi": 38,
          "name": "D2",
          "ticks": 18960,
          "time": 43.090866,
          "velocity": 0.9133858267716536
        },
        {
          "duration": 0.5386358250000001,
          "durationTicks": 237,
          "midi": 38,
          "name": "D2",
          "ticks": 19440,
          "time": 44.181774,
          "velocity": 0.9133858267716536
        },
        {
          "duration": 0.5386358250000001,
          "durationTicks": 237,
          "midi": 38,
          "name": "D2",
          "ticks": 19920,
          "time": 45.272681999999996,
          "velocity": 0.9133858267716536
        },
        {
          "duration": 0.538635824999993,
          "durationTicks": 237,
          "midi": 38,
          "name": "D2",
          "ticks": 20400,
          "time": 46.36359,
          "velocity": 0.9133858267716536
        },
        {
          "duration": 0.40227232499999843,
          "durationTicks": 177,
          "midi": 38,
          "name": "D2",
          "ticks": 20880,
          "time": 47.454498,
          "velocity": 0.9133858267716536
        },
        {
          "duration": 0.5454539999999994,
          "durationTicks": 240,
          "midi": 38,
          "name": "D2",
          "ticks": 21600,
          "time": 49.09086,
          "velocity": 0.7874015748031497
        },
        {
          "duration": 0.5386358250000001,
          "durationTicks": 237,
          "midi": 38,
          "name": "D2",
          "ticks": 25680,
          "time": 58.363578,
          "velocity": 0.9133858267716536
        },
        {
          "duration": 0.538635824999993,
          "durationTicks": 237,
          "midi": 38,
          "name": "D2",
          "ticks": 26160,
          "time": 59.454486,
          "velocity": 0.9133858267716536
        },
        {
          "duration": 0.538635824999993,
          "durationTicks": 237,
          "midi": 38,
          "name": "D2",
          "ticks": 26640,
          "time": 60.545394,
          "velocity": 0.9133858267716536
        },
        {
          "duration": 0.5386358250000001,
          "durationTicks": 237,
          "midi": 38,
          "name": "D2",
          "ticks": 27120,
          "time": 61.636302,
          "velocity": 0.9133858267716536
        },
        {
          "duration": 0.5386358250000001,
          "durationTicks": 237,
          "midi": 38,
          "name": "D2",
          "ticks": 27600,
          "time": 62.72721,
          "velocity": 0.9133858267716536
        },
        {
          "duration": 0.5386358250000001,
          "durationTicks": 237,
          "midi": 38,
          "name": "D2",
          "ticks": 28080,
          "time": 63.818118,
          "velocity": 0.9133858267716536
        },
        {
          "duration": 0.5386358250000001,
          "durationTicks": 237,
          "midi": 38,
          "name": "D2",
          "ticks": 28560,
          "time": 64.909026,
          "velocity": 0.9133858267716536
        },
        {
          "duration": 0.5386358250000001,
          "durationTicks": 237,
          "midi": 38,
          "name": "D2",
          "ticks": 29040,
          "time": 65.999934,
          "velocity": 0.9133858267716536
        },
        {
          "duration": 0.5386358250000001,
          "durationTicks": 237,
          "midi": 38,
          "name": "D2",
          "ticks": 29520,
          "time": 67.090842,
          "velocity": 0.9133858267716536
        },
        {
          "duration": 0.5386358250000001,
          "durationTicks": 237,
          "midi": 38,
          "name": "D2",
          "ticks": 30000,
          "time": 68.18175,
          "velocity": 0.9133858267716536
        },
        {
          "duration": 0.5386358250000001,
          "durationTicks": 237,
          "midi": 38,
          "name": "D2",
          "ticks": 30480,
          "time": 69.27265799999999,
          "velocity": 0.9133858267716536
        },
        {
          "duration": 0.5386358250000001,
          "durationTicks": 237,
          "midi": 38,
          "name": "D2",
          "ticks": 30960,
          "time": 70.363566,
          "velocity": 0.9133858267716536
        },
        {
          "duration": 0.40227232499999843,
          "durationTicks": 177,
          "midi": 38,
          "name": "D2",
          "ticks": 31440,
          "time": 71.454474,
          "velocity": 0.9133858267716536
        },
        {
          "duration": 0.12954532500000937,
          "durationTicks": 57,
          "midi": 38,
          "name": "D2",
          "ticks": 31560,
          "time": 71.727201,
          "velocity": 0.9133858267716536
        },
        {
          "duration": 0.12954532500000937,
          "durationTicks": 57,
          "midi": 38,
          "name": "D2",
          "ticks": 31620,
          "time": 71.8635645,
          "velocity": 0.9133858267716536
        },
        {
          "duration": 0.5386358250000001,
          "durationTicks": 237,
          "midi": 38,
          "name": "D2",
          "ticks": 31920,
          "time": 72.545382,
          "velocity": 0.9133858267716536
        },
        {
          "duration": 0.5386358250000001,
          "durationTicks": 237,
          "midi": 38,
          "name": "D2",
          "ticks": 32400,
          "time": 73.63629,
          "velocity": 0.9133858267716536
        },
        {
          "duration": 0.5386358250000001,
          "durationTicks": 237,
          "midi": 38,
          "name": "D2",
          "ticks": 32880,
          "time": 74.727198,
          "velocity": 0.9133858267716536
        },
        {
          "duration": 0.5386358250000001,
          "durationTicks": 237,
          "midi": 38,
          "name": "D2",
          "ticks": 33360,
          "time": 75.818106,
          "velocity": 0.9133858267716536
        },
        {
          "duration": 0.5386358250000001,
          "durationTicks": 237,
          "midi": 38,
          "name": "D2",
          "ticks": 33840,
          "time": 76.909014,
          "velocity": 0.9133858267716536
        },
        {
          "duration": 0.5386358250000143,
          "durationTicks": 237,
          "midi": 38,
          "name": "D2",
          "ticks": 34320,
          "time": 77.999922,
          "velocity": 0.9133858267716536
        },
        {
          "duration": 0.5386358250000143,
          "durationTicks": 237,
          "midi": 38,
          "name": "D2",
          "ticks": 34800,
          "time": 79.09083,
          "velocity": 0.9133858267716536
        },
        {
          "duration": 0.5386358250000143,
          "durationTicks": 237,
          "midi": 38,
          "name": "D2",
          "ticks": 35280,
          "time": 80.181738,
          "velocity": 0.9133858267716536
        },
        {
          "duration": 0.5386358250000143,
          "durationTicks": 237,
          "midi": 38,
          "name": "D2",
          "ticks": 35760,
          "time": 81.272646,
          "velocity": 0.9133858267716536
        },
        {
          "duration": 0.40227232500001264,
          "durationTicks": 177,
          "midi": 38,
          "name": "D2",
          "ticks": 36240,
          "time": 82.363554,
          "velocity": 0.9133858267716536
        },
        {
          "duration": 0.12954532500000937,
          "durationTicks": 57,
          "midi": 38,
          "name": "D2",
          "ticks": 36360,
          "time": 82.636281,
          "velocity": 0.9133858267716536
        },
        {
          "duration": 0.12954532500000937,
          "durationTicks": 57,
          "midi": 38,
          "name": "D2",
          "ticks": 36420,
          "time": 82.7726445,
          "velocity": 0.9133858267716536
        }
      ],
      "endOfTrackTicks": 36477
    },
    {
      "channel": 0,
      "controlChanges": {
        "0": [
          {
            "number": 0,
            "ticks": 0,
            "time": 0,
            "value": 0
          }
        ],
        "32": [
          {
            "number": 32,
            "ticks": 0,
            "time": 0,
            "value": 0
          }
        ]
      },
      "pitchBends": [],
      "instrument": {
        "family": "piano",
        "number": 0,
        "name": "acoustic grand piano"
      },
      "name": "GtrClean",
      "notes": [],
      "endOfTrackTicks": 34557
    },
    {
      "channel": 5,
      "controlChanges": {
        "7": [
          {
            "number": 7,
            "ticks": 0,
            "time": 0,
            "value": 0.7874015748031497
          },
          {
            "number": 7,
            "ticks": 0,
            "time": 0,
            "value": 0.7874015748031497
          }
        ],
        "11": [
          {
            "number": 11,
            "ticks": 0,
            "time": 0,
            "value": 0.7874015748031497
          }
        ],
        "64": [
          {
            "number": 64,
            "ticks": 0,
            "time": 0,
            "value": 0
          }
        ],
        "93": [
          {
            "number": 93,
            "ticks": 0,
            "time": 0,
            "value": 0
          }
        ]
      },
      "pitchBends": [],
      "instrument": {
        "family": "guitar",
        "number": 28,
        "name": "electric guitar (muted)"
      },
      "name": "",
      "notes": [
        {
          "duration": 0.26590882500000035,
          "durationTicks": 117,
          "midi": 50,
          "name": "D3",
          "ticks": 9480,
          "time": 21.545433,
          "velocity": 0.7559055118110236
        },
        {
          "duration": 0.2659088249999968,
          "durationTicks": 117,
          "midi": 49,
          "name": "C#3",
          "ticks": 9540,
          "time": 21.6817965,
          "velocity": 0.7559055118110236
        },
        {
          "duration": 0.1295453249999987,
          "durationTicks": 57,
          "midi": 46,
          "name": "A#2",
          "ticks": 9600,
          "time": 21.81816,
          "velocity": 0.7559055118110236
        },
        {
          "duration": 1.765907324999997,
          "durationTicks": 777,
          "midi": 42,
          "name": "F#2",
          "ticks": 9660,
          "time": 21.9545235,
          "velocity": 0.7559055118110236
        },
        {
          "duration": 0.1295453249999987,
          "durationTicks": 57,
          "midi": 43,
          "name": "G2",
          "ticks": 11400,
          "time": 25.909065,
          "velocity": 0.7559055118110236
        },
        {
          "duration": 0.1295453249999987,
          "durationTicks": 57,
          "midi": 42,
          "name": "F#2",
          "ticks": 11460,
          "time": 26.0454285,
          "velocity": 0.7559055118110236
        },
        {
          "duration": 0.12954532499999516,
          "durationTicks": 57,
          "midi": 43,
          "name": "G2",
          "ticks": 11520,
          "time": 26.181792,
          "velocity": 0.7559055118110236
        },
        {
          "duration": 2.0386343250000003,
          "durationTicks": 897,
          "midi": 47,
          "name": "B2",
          "ticks": 11580,
          "time": 26.3181555,
          "velocity": 0.7559055118110236
        },
        {
          "duration": 0.2659088249999968,
          "durationTicks": 117,
          "midi": 50,
          "name": "D3",
          "ticks": 32520,
          "time": 73.909017,
          "velocity": 0.7559055118110236
        },
        {
          "duration": 0.265908825000011,
          "durationTicks": 117,
          "midi": 49,
          "name": "C#3",
          "ticks": 32580,
          "time": 74.0453805,
          "velocity": 0.7559055118110236
        },
        {
          "duration": 0.12954532500000937,
          "durationTicks": 57,
          "midi": 46,
          "name": "A#2",
          "ticks": 32640,
          "time": 74.181744,
          "velocity": 0.7559055118110236
        },
        {
          "duration": 1.7659073250000148,
          "durationTicks": 777,
          "midi": 42,
          "name": "F#2",
          "ticks": 32700,
          "time": 74.3181075,
          "velocity": 0.7559055118110236
        },
        {
          "duration": 0.12954532500000937,
          "durationTicks": 57,
          "midi": 43,
          "name": "G2",
          "ticks": 34440,
          "time": 78.272649,
          "velocity": 0.7559055118110236
        },
        {
          "duration": 0.12954532500000937,
          "durationTicks": 57,
          "midi": 42,
          "name": "F#2",
          "ticks": 34500,
          "time": 78.4090125,
          "velocity": 0.7559055118110236
        }
      ]
    },
    {
      "channel": 0,
      "controlChanges": {
        "0": [
          {
            "number": 0,
            "ticks": 0,
            "time": 0,
            "value": 0
          }
        ],
        "32": [
          {
            "number": 32,
            "ticks": 0,
            "time": 0,
            "value": 0
          }
        ]
      },
      "pitchBends": [],
      "instrument": {
        "family": "piano",
        "number": 0,
        "name": "acoustic grand piano"
      },
      "name": "Strings1",
      "notes": [],
      "endOfTrackTicks": 36600
    },
    {
      "channel": 8,
      "controlChanges": {
        "7": [
          {
            "number": 7,
            "ticks": 0,
            "time": 0,
            "value": 0.7874015748031497
          },
          {
            "number": 7,
            "ticks": 0,
            "time": 0,
            "value": 0.7874015748031497
          }
        ],
        "11": [
          {
            "number": 11,
            "ticks": 0,
            "time": 0,
            "value": 0.7874015748031497
          }
        ],
        "64": [
          {
            "number": 64,
            "ticks": 0,
            "time": 0,
            "value": 0
          }
        ],
        "91": [
          {
            "number": 91,
            "ticks": 0,
            "time": 0,
            "value": 0
          }
        ],
        "93": [
          {
            "number": 93,
            "ticks": 0,
            "time": 0,
            "value": 0.47244094488188976
          }
        ]
      },
      "pitchBends": [],
      "instrument": {
        "family": "ensemble",
        "number": 48,
        "name": "string ensemble 1"
      },
      "name": "",
      "notes": [
        {
          "duration": 0.1818179999999998,
          "durationTicks": 80,
          "midi": 76,
          "name": "E5",
          "ticks": 21480,
          "time": 48.818132999999996,
          "velocity": 0.952755905511811
        },
        {
          "duration": 0.1818179999999998,
          "durationTicks": 80,
          "midi": 71,
          "name": "B4",
          "ticks": 21480,
          "time": 48.818132999999996,
          "velocity": 0.952755905511811
        },
        {
          "duration": 0.2727270000000033,
          "durationTicks": 120,
          "midi": 78,
          "name": "F#5",
          "ticks": 21600,
          "time": 49.09086,
          "velocity": 0.952755905511811
        },
        {
          "duration": 0.2727270000000033,
          "durationTicks": 120,
          "midi": 73,
          "name": "C#5",
          "ticks": 21600,
          "time": 49.09086,
          "velocity": 0.952755905511811
        },
        {
          "duration": 0.18181800000000692,
          "durationTicks": 80,
          "midi": 76,
          "name": "E5",
          "ticks": 31560,
          "time": 71.727201,
          "velocity": 0.952755905511811
        },
        {
          "duration": 0.18181800000000692,
          "durationTicks": 80,
          "midi": 71,
          "name": "B4",
          "ticks": 31560,
          "time": 71.727201,
          "velocity": 0.952755905511811
        },
        {
          "duration": 0.2727270000000033,
          "durationTicks": 120,
          "midi": 78,
          "name": "F#5",
          "ticks": 31680,
          "time": 71.999928,
          "velocity": 0.952755905511811
        },
        {
          "duration": 0.2727270000000033,
          "durationTicks": 120,
          "midi": 73,
          "name": "C#5",
          "ticks": 31680,
          "time": 71.999928,
          "velocity": 0.952755905511811
        },
        {
          "duration": 0.8181809999999956,
          "durationTicks": 360,
          "midi": 49,
          "name": "C#3",
          "ticks": 34560,
          "time": 78.545376,
          "velocity": 0.952755905511811
        },
        {
          "duration": 0.13636350000000164,
          "durationTicks": 60,
          "midi": 50,
          "name": "D3",
          "ticks": 34920,
          "time": 79.363557,
          "velocity": 0.8267716535433071
        },
        {
          "duration": 0.13636350000000164,
          "durationTicks": 60,
          "midi": 49,
          "name": "C#3",
          "ticks": 34980,
          "time": 79.4999205,
          "velocity": 0.9212598425196851
        },
        {
          "duration": 0.64772662499999,
          "durationTicks": 285,
          "midi": 54,
          "name": "F#3",
          "ticks": 35040,
          "time": 79.636284,
          "velocity": 0.905511811023622
        },
        {
          "duration": 0.13636350000000164,
          "durationTicks": 60,
          "midi": 55,
          "name": "G3",
          "ticks": 35400,
          "time": 80.454465,
          "velocity": 0.7952755905511811
        },
        {
          "duration": 0.13636350000000164,
          "durationTicks": 60,
          "midi": 54,
          "name": "F#3",
          "ticks": 35460,
          "time": 80.5908285,
          "velocity": 0.905511811023622
        },
        {
          "duration": 1.9090889999999945,
          "durationTicks": 840,
          "midi": 61,
          "name": "C#4",
          "ticks": 35520,
          "time": 80.727192,
          "velocity": 0.84251968503937
        },
        {
          "duration": 0.13636350000000164,
          "durationTicks": 60,
          "midi": 64,
          "name": "E4",
          "ticks": 36360,
          "time": 82.636281,
          "velocity": 0.8582677165354331
        },
        {
          "duration": 0.2727270000000033,
          "durationTicks": 120,
          "midi": 66,
          "name": "F#4",
          "ticks": 36480,
          "time": 82.909008,
          "velocity": 0.905511811023622
        }
      ]
    },
    {
      "channel": 0,
      "controlChanges": {
        "0": [
          {
            "number": 0,
            "ticks": 0,
            "time": 0,
            "value": 0
          }
        ],
        "32": [
          {
            "number": 32,
            "ticks": 0,
            "time": 0,
            "value": 0
          }
        ]
      },
      "pitchBends": [],
      "instrument": {
        "family": "piano",
        "number": 0,
        "name": "acoustic grand piano"
      },
      "name": "Strings1",
      "notes": [],
      "endOfTrackTicks": 36600
    },
    {
      "channel": 6,
      "controlChanges": {
        "7": [
          {
            "number": 7,
            "ticks": 0,
            "time": 0,
            "value": 0.7874015748031497
          },
          {
            "number": 7,
            "ticks": 0,
            "time": 0,
            "value": 0.7874015748031497
          },
          {
            "number": 7,
            "ticks": 24000,
            "time": 54.5454,
            "value": 0.7874015748031497
          },
          {
            "number": 7,
            "ticks": 24060,
            "time": 54.6817635,
            "value": 0.7401574803149606
          },
          {
            "number": 7,
            "ticks": 24120,
            "time": 54.818127,
            "value": 0.6850393700787402
          },
          {
            "number": 7,
            "ticks": 24180,
            "time": 54.9544905,
            "value": 0.6377952755905512
          },
          {
            "number": 7,
            "ticks": 24240,
            "time": 55.090854,
            "value": 0.5905511811023622
          },
          {
            "number": 7,
            "ticks": 24300,
            "time": 55.2272175,
            "value": 0.5433070866141733
          },
          {
            "number": 7,
            "ticks": 24360,
            "time": 55.363580999999996,
            "value": 0.49606299212598426
          },
          {
            "number": 7,
            "ticks": 24420,
            "time": 55.4999445,
            "value": 0.4409448818897638
          },
          {
            "number": 7,
            "ticks": 24480,
            "time": 55.636308,
            "value": 0.3937007874015748
          },
          {
            "number": 7,
            "ticks": 24540,
            "time": 55.7726715,
            "value": 0.33858267716535434
          },
          {
            "number": 7,
            "ticks": 24600,
            "time": 55.909035,
            "value": 0.29133858267716534
          },
          {
            "number": 7,
            "ticks": 24660,
            "time": 56.0453985,
            "value": 0.2440944881889764
          },
          {
            "number": 7,
            "ticks": 24720,
            "time": 56.181762,
            "value": 0.1968503937007874
          },
          {
            "number": 7,
            "ticks": 24780,
            "time": 56.3181255,
            "value": 0.14173228346456693
          },
          {
            "number": 7,
            "ticks": 24840,
            "time": 56.454489,
            "value": 0.09448818897637795
          },
          {
            "number": 7,
            "ticks": 24900,
            "time": 56.5908525,
            "value": 0.047244094488188976
          },
          {
            "number": 7,
            "ticks": 24960,
            "time": 56.727216,
            "value": 0
          },
          {
            "number": 7,
            "ticks": 25439,
            "time": 57.815851275,
            "value": 0.7874015748031497
          }
        ],
        "11": [
          {
            "number": 11,
            "ticks": 0,
            "time": 0,
            "value": 0.7874015748031497
          }
        ],
        "64": [
          {
            "number": 64,
            "ticks": 0,
            "time": 0,
            "value": 0
          }
        ],
        "91": [
          {
            "number": 91,
            "ticks": 0,
            "time": 0,
            "value": 0
          }
        ],
        "93": [
          {
            "number": 93,
            "ticks": 0,
            "time": 0,
            "value": 0.47244094488188976
          }
        ]
      },
      "pitchBends": [
        {
          "ticks": 23520,
          "time": 53.454492,
          "value": 0
        }
      ],
      "instrument": {
        "family": "ensemble",
        "number": 48,
        "name": "string ensemble 1"
      },
      "name": "",
      "notes": [
        {
          "duration": 0.26590882500000035,
          "durationTicks": 117,
          "midi": 66,
          "name": "F#4",
          "ticks": 12480,
          "time": 28.363608,
          "velocity": 0.6771653543307087
        },
        {
          "duration": 0.1295453249999987,
          "durationTicks": 57,
          "midi": 67,
          "name": "G4",
          "ticks": 12600,
          "time": 28.636335,
          "velocity": 0.6771653543307087
        },
        {
          "duration": 0.1295453249999987,
          "durationTicks": 57,
          "midi": 66,
          "name": "F#4",
          "ticks": 12660,
          "time": 28.7726985,
          "velocity": 0.6771653543307087
        },
        {
          "duration": 0.8113628249999998,
          "durationTicks": 357,
          "midi": 73,
          "name": "C#5",
          "ticks": 12720,
          "time": 28.909062,
          "velocity": 0.6771653543307087
        },
        {
          "duration": 0.2659088249999968,
          "durationTicks": 117,
          "midi": 78,
          "name": "F#5",
          "ticks": 13440,
          "time": 30.545424,
          "velocity": 0.6771653543307087
        },
        {
          "duration": 0.1295453249999987,
          "durationTicks": 57,
          "midi": 79,
          "name": "G5",
          "ticks": 13560,
          "time": 30.818151,
          "velocity": 0.6771653543307087
        },
        {
          "duration": 0.1295453249999987,
          "durationTicks": 57,
          "midi": 78,
          "name": "F#5",
          "ticks": 13620,
          "time": 30.9545145,
          "velocity": 0.6771653543307087
        },
        {
          "duration": 1.2204533249999976,
          "durationTicks": 537,
          "midi": 73,
          "name": "C#5",
          "ticks": 13680,
          "time": 31.090878,
          "velocity": 0.6771653543307087
        },
        {
          "duration": 0.2659088249999968,
          "durationTicks": 117,
          "midi": 66,
          "name": "F#4",
          "ticks": 14400,
          "time": 32.72724,
          "velocity": 0.6771653543307087
        },
        {
          "duration": 0.12954532500000226,
          "durationTicks": 57,
          "midi": 67,
          "name": "G4",
          "ticks": 14520,
          "time": 32.999967,
          "velocity": 0.6771653543307087
        },
        {
          "duration": 0.12954532499999516,
          "durationTicks": 57,
          "midi": 66,
          "name": "F#4",
          "ticks": 14580,
          "time": 33.1363305,
          "velocity": 0.6771653543307087
        },
        {
          "duration": 0.5386358250000001,
          "durationTicks": 237,
          "midi": 73,
          "name": "C#5",
          "ticks": 14640,
          "time": 33.272694,
          "velocity": 0.6771653543307087
        },
        {
          "duration": 0.2659088250000039,
          "durationTicks": 117,
          "midi": 78,
          "name": "F#5",
          "ticks": 14760,
          "time": 33.545421,
          "velocity": 0.6771653543307087
        },
        {
          "duration": 1.0840898249999995,
          "durationTicks": 477,
          "midi": 76,
          "name": "E5",
          "ticks": 14880,
          "time": 33.818148,
          "velocity": 0.6771653543307087
        },
        {
          "duration": 0.2659088250000039,
          "durationTicks": 117,
          "midi": 54,
          "name": "F#3",
          "ticks": 16800,
          "time": 38.181779999999996,
          "velocity": 0.6771653543307087
        },
        {
          "duration": 0.12954532499999516,
          "durationTicks": 57,
          "midi": 55,
          "name": "G3",
          "ticks": 16920,
          "time": 38.454507,
          "velocity": 0.6771653543307087
        },
        {
          "duration": 0.12954532499999516,
          "durationTicks": 57,
          "midi": 54,
          "name": "F#3",
          "ticks": 16980,
          "time": 38.5908705,
          "velocity": 0.6771653543307087
        },
        {
          "duration": 0.8113628249999962,
          "durationTicks": 357,
          "midi": 61,
          "name": "C#4",
          "ticks": 17040,
          "time": 38.727234,
          "velocity": 0.6771653543307087
        },
        {
          "duration": 0.2659088249999968,
          "durationTicks": 117,
          "midi": 66,
          "name": "F#4",
          "ticks": 17760,
          "time": 40.363596,
          "velocity": 0.6771653543307087
        },
        {
          "duration": 0.12954532500000226,
          "durationTicks": 57,
          "midi": 67,
          "name": "G4",
          "ticks": 17880,
          "time": 40.636323,
          "velocity": 0.6771653543307087
        },
        {
          "duration": 0.12954532500000226,
          "durationTicks": 57,
          "midi": 66,
          "name": "F#4",
          "ticks": 17940,
          "time": 40.7726865,
          "velocity": 0.6771653543307087
        },
        {
          "duration": 1.220453324999994,
          "durationTicks": 537,
          "midi": 61,
          "name": "C#4",
          "ticks": 18000,
          "time": 40.90905,
          "velocity": 0.6771653543307087
        },
        {
          "duration": 0.2659088249999968,
          "durationTicks": 117,
          "midi": 54,
          "name": "F#3",
          "ticks": 18720,
          "time": 42.545412,
          "velocity": 0.6771653543307087
        },
        {
          "duration": 0.12954532499999516,
          "durationTicks": 57,
          "midi": 55,
          "name": "G3",
          "ticks": 18840,
          "time": 42.818139,
          "velocity": 0.6771653543307087
        },
        {
          "duration": 0.12954532500000226,
          "durationTicks": 57,
          "midi": 54,
          "name": "F#3",
          "ticks": 18900,
          "time": 42.9545025,
          "velocity": 0.6771653543307087
        },
        {
          "duration": 0.5386358250000001,
          "durationTicks": 237,
          "midi": 61,
          "name": "C#4",
          "ticks": 18960,
          "time": 43.090866,
          "velocity": 0.6771653543307087
        },
        {
          "duration": 0.2659088249999968,
          "durationTicks": 117,
          "midi": 66,
          "name": "F#4",
          "ticks": 19080,
          "time": 43.363593,
          "velocity": 0.6771653543307087
        },
        {
          "duration": 2.1749978249999984,
          "durationTicks": 957,
          "midi": 67,
          "name": "G4",
          "ticks": 19200,
          "time": 43.63632,
          "velocity": 0.6771653543307087
        },
        {
          "duration": 0.1818179999999998,
          "durationTicks": 80,
          "midi": 64,
          "name": "E4",
          "ticks": 21480,
          "time": 48.818132999999996,
          "velocity": 0.952755905511811
        },
        {
          "duration": 0.1818179999999998,
          "durationTicks": 80,
          "midi": 59,
          "name": "B3",
          "ticks": 21480,
          "time": 48.818132999999996,
          "velocity": 0.952755905511811
        },
        {
          "duration": 0.3613632750000022,
          "durationTicks": 159,
          "midi": 59,
          "name": "B3",
          "ticks": 21601,
          "time": 49.093132725,
          "velocity": 0.6299212598425197
        },
        {
          "duration": 0.3613632749999951,
          "durationTicks": 159,
          "midi": 60,
          "name": "C4",
          "ticks": 21681,
          "time": 49.274950725000004,
          "velocity": 0.6299212598425197
        },
        {
          "duration": 0.3613632749999951,
          "durationTicks": 159,
          "midi": 61,
          "name": "C#4",
          "ticks": 21761,
          "time": 49.456768725,
          "velocity": 0.6299212598425197
        },
        {
          "duration": 0.3613632750000093,
          "durationTicks": 159,
          "midi": 62,
          "name": "D4",
          "ticks": 21841,
          "time": 49.638586724999996,
          "velocity": 0.6299212598425197
        },
        {
          "duration": 0.3613632749999951,
          "durationTicks": 159,
          "midi": 63,
          "name": "D#4",
          "ticks": 21921,
          "time": 49.820404725,
          "velocity": 0.6299212598425197
        },
        {
          "duration": 0.3613632749999951,
          "durationTicks": 159,
          "midi": 64,
          "name": "E4",
          "ticks": 22001,
          "time": 50.002222725,
          "velocity": 0.6299212598425197
        },
        {
          "duration": 0.3613632750000093,
          "durationTicks": 159,
          "midi": 65,
          "name": "F4",
          "ticks": 22081,
          "time": 50.184040724999996,
          "velocity": 0.6299212598425197
        },
        {
          "duration": 0.3613632749999951,
          "durationTicks": 159,
          "midi": 66,
          "name": "F#4",
          "ticks": 22161,
          "time": 50.365858725,
          "velocity": 0.6299212598425197
        },
        {
          "duration": 0.3613632749999951,
          "durationTicks": 159,
          "midi": 67,
          "name": "G4",
          "ticks": 22241,
          "time": 50.547676725,
          "velocity": 0.6299212598425197
        },
        {
          "duration": 0.3613632750000093,
          "durationTicks": 159,
          "midi": 68,
          "name": "G#4",
          "ticks": 22321,
          "time": 50.729494724999995,
          "velocity": 0.6299212598425197
        },
        {
          "duration": 0.3613632749999951,
          "durationTicks": 159,
          "midi": 69,
          "name": "A4",
          "ticks": 22401,
          "time": 50.911312725,
          "velocity": 0.6299212598425197
        },
        {
          "duration": 0.3613632749999951,
          "durationTicks": 159,
          "midi": 70,
          "name": "A#4",
          "ticks": 22481,
          "time": 51.093130725,
          "velocity": 0.6299212598425197
        },
        {
          "duration": 0.3613632750000093,
          "durationTicks": 159,
          "midi": 71,
          "name": "B4",
          "ticks": 22561,
          "time": 51.274948724999994,
          "velocity": 0.6299212598425197
        },
        {
          "duration": 0.3613632749999951,
          "durationTicks": 159,
          "midi": 72,
          "name": "C5",
          "ticks": 22641,
          "time": 51.456766725,
          "velocity": 0.6299212598425197
        },
        {
          "duration": 0.3613632749999951,
          "durationTicks": 159,
          "midi": 73,
          "name": "C#5",
          "ticks": 22721,
          "time": 51.638584725,
          "velocity": 0.6299212598425197
        },
        {
          "duration": 0.3613632750000093,
          "durationTicks": 159,
          "midi": 74,
          "name": "D5",
          "ticks": 22801,
          "time": 51.820402724999994,
          "velocity": 0.6299212598425197
        },
        {
          "duration": 0.3613632750000022,
          "durationTicks": 159,
          "midi": 75,
          "name": "D#5",
          "ticks": 22881,
          "time": 52.002220725,
          "velocity": 0.6299212598425197
        },
        {
          "duration": 0.3613632749999951,
          "durationTicks": 159,
          "midi": 76,
          "name": "E5",
          "ticks": 22961,
          "time": 52.184038725,
          "velocity": 0.6299212598425197
        },
        {
          "duration": 0.3613632750000022,
          "durationTicks": 159,
          "midi": 77,
          "name": "F5",
          "ticks": 23041,
          "time": 52.365856725,
          "velocity": 0.6299212598425197
        },
        {
          "duration": 0.3613632750000022,
          "durationTicks": 159,
          "midi": 78,
          "name": "F#5",
          "ticks": 23121,
          "time": 52.547674725,
          "velocity": 0.6299212598425197
        },
        {
          "duration": 0.3613632749999951,
          "durationTicks": 159,
          "midi": 79,
          "name": "G5",
          "ticks": 23201,
          "time": 52.729492725,
          "velocity": 0.6299212598425197
        },
        {
          "duration": 0.3613632750000022,
          "durationTicks": 159,
          "midi": 80,
          "name": "G#5",
          "ticks": 23281,
          "time": 52.911310725,
          "velocity": 0.6299212598425197
        },
        {
          "duration": 0.3613632750000022,
          "durationTicks": 159,
          "midi": 81,
          "name": "A5",
          "ticks": 23361,
          "time": 53.093128725,
          "velocity": 0.6299212598425197
        },
        {
          "duration": 0.3613632749999951,
          "durationTicks": 159,
          "midi": 82,
          "name": "A#5",
          "ticks": 23441,
          "time": 53.274946725,
          "velocity": 0.6299212598425197
        },
        {
          "duration": 4.361359274999998,
          "durationTicks": 1919,
          "midi": 83,
          "name": "B5",
          "ticks": 23521,
          "time": 53.456764725,
          "velocity": 0.6299212598425197
        },
        {
          "duration": 0.2659088250000039,
          "durationTicks": 117,
          "midi": 54,
          "name": "F#3",
          "ticks": 25440,
          "time": 57.818124,
          "velocity": 0.6771653543307087
        },
        {
          "duration": 0.12954532499999516,
          "durationTicks": 57,
          "midi": 55,
          "name": "G3",
          "ticks": 25560,
          "time": 58.090851,
          "velocity": 0.6771653543307087
        },
        {
          "duration": 0.12954532499999516,
          "durationTicks": 57,
          "midi": 54,
          "name": "F#3",
          "ticks": 25560,
          "time": 58.090851,
          "velocity": 0.6771653543307087
        },
        {
          "duration": 0.5386358250000001,
          "durationTicks": 237,
          "midi": 61,
          "name": "C#4",
          "ticks": 25680,
          "time": 58.363578,
          "velocity": 0.6771653543307087
        },
        {
          "duration": 0.2659088250000039,
          "durationTicks": 117,
          "midi": 66,
          "name": "F#4",
          "ticks": 25920,
          "time": 58.909031999999996,
          "velocity": 0.6771653543307087
        },
        {
          "duration": 0.12954532499999516,
          "durationTicks": 57,
          "midi": 67,
          "name": "G4",
          "ticks": 26040,
          "time": 59.181759,
          "velocity": 0.6771653543307087
        },
        {
          "duration": 0.12954532499999516,
          "durationTicks": 57,
          "midi": 66,
          "name": "F#4",
          "ticks": 26100,
          "time": 59.3181225,
          "velocity": 0.6771653543307087
        },
        {
          "duration": 0.538635824999993,
          "durationTicks": 237,
          "midi": 61,
          "name": "C#4",
          "ticks": 26160,
          "time": 59.454486,
          "velocity": 0.6771653543307087
        },
        {
          "duration": 0.2659088249999968,
          "durationTicks": 117,
          "midi": 54,
          "name": "F#3",
          "ticks": 26400,
          "time": 59.99994,
          "velocity": 0.6771653543307087
        },
        {
          "duration": 0.12954532500000226,
          "durationTicks": 57,
          "midi": 55,
          "name": "G3",
          "ticks": 26520,
          "time": 60.272667,
          "velocity": 0.6771653543307087
        },
        {
          "duration": 0.12954532499999516,
          "durationTicks": 57,
          "midi": 54,
          "name": "F#3",
          "ticks": 26580,
          "time": 60.4090305,
          "velocity": 0.6771653543307087
        },
        {
          "duration": 0.2659088249999968,
          "durationTicks": 117,
          "midi": 61,
          "name": "C#4",
          "ticks": 26640,
          "time": 60.545394,
          "velocity": 0.6771653543307087
        },
        {
          "duration": 0.2659088249999968,
          "durationTicks": 117,
          "midi": 66,
          "name": "F#4",
          "ticks": 26760,
          "time": 60.818121,
          "velocity": 0.6771653543307087
        },
        {
          "duration": 1.9022708249999951,
          "durationTicks": 837,
          "midi": 64,
          "name": "E4",
          "ticks": 26880,
          "time": 61.090848,
          "velocity": 0.6771653543307087
        },
        {
          "duration": 0.2659088249999968,
          "durationTicks": 117,
          "midi": 54,
          "name": "F#3",
          "ticks": 28320,
          "time": 64.363572,
          "velocity": 0.6771653543307087
        },
        {
          "duration": 0.12954532500000937,
          "durationTicks": 57,
          "midi": 55,
          "name": "G3",
          "ticks": 28440,
          "time": 64.636299,
          "velocity": 0.6771653543307087
        },
        {
          "duration": 0.12954532499999516,
          "durationTicks": 57,
          "midi": 54,
          "name": "F#3",
          "ticks": 28500,
          "time": 64.7726625,
          "velocity": 0.6771653543307087
        },
        {
          "duration": 0.5386358250000001,
          "durationTicks": 237,
          "midi": 61,
          "name": "C#4",
          "ticks": 28560,
          "time": 64.909026,
          "velocity": 0.6771653543307087
        },
        {
          "duration": 0.2659088249999968,
          "durationTicks": 117,
          "midi": 66,
          "name": "F#4",
          "ticks": 28800,
          "time": 65.45448,
          "velocity": 0.6771653543307087
        },
        {
          "duration": 0.12954532500000937,
          "durationTicks": 57,
          "midi": 67,
          "name": "G4",
          "ticks": 28920,
          "time": 65.72720699999999,
          "velocity": 0.6771653543307087
        },
        {
          "duration": 0.12954532500000937,
          "durationTicks": 57,
          "midi": 66,
          "name": "F#4",
          "ticks": 28980,
          "time": 65.8635705,
          "velocity": 0.6771653543307087
        },
        {
          "duration": 0.5386358250000001,
          "durationTicks": 237,
          "midi": 61,
          "name": "C#4",
          "ticks": 29040,
          "time": 65.999934,
          "velocity": 0.6771653543307087
        },
        {
          "duration": 0.2659088249999968,
          "durationTicks": 117,
          "midi": 54,
          "name": "F#3",
          "ticks": 29280,
          "time": 66.545388,
          "velocity": 0.6771653543307087
        },
        {
          "duration": 0.12954532499999516,
          "durationTicks": 57,
          "midi": 55,
          "name": "G3",
          "ticks": 29400,
          "time": 66.818115,
          "velocity": 0.6771653543307087
        },
        {
          "duration": 0.12954532500000937,
          "durationTicks": 57,
          "midi": 54,
          "name": "F#3",
          "ticks": 29460,
          "time": 66.9544785,
          "velocity": 0.6771653543307087
        },
        {
          "duration": 0.12954532500000937,
          "durationTicks": 57,
          "midi": 61,
          "name": "C#4",
          "ticks": 29520,
          "time": 67.090842,
          "velocity": 0.6771653543307087
        },
        {
          "duration": 0.2659088249999968,
          "durationTicks": 117,
          "midi": 66,
          "name": "F#4",
          "ticks": 29640,
          "time": 67.363569,
          "velocity": 0.6771653543307087
        },
        {
          "duration": 2.1749978249999913,
          "durationTicks": 957,
          "midi": 67,
          "name": "G4",
          "ticks": 29760,
          "time": 67.636296,
          "velocity": 0.6771653543307087
        },
        {
          "duration": 0.18181800000000692,
          "durationTicks": 80,
          "midi": 64,
          "name": "E4",
          "ticks": 31560,
          "time": 71.727201,
          "velocity": 0.952755905511811
        },
        {
          "duration": 0.18181800000000692,
          "durationTicks": 80,
          "midi": 59,
          "name": "B3",
          "ticks": 31560,
          "time": 71.727201,
          "velocity": 0.952755905511811
        },
        {
          "duration": 0.2727270000000033,
          "durationTicks": 120,
          "midi": 66,
          "name": "F#4",
          "ticks": 31680,
          "time": 71.999928,
          "velocity": 0.952755905511811
        },
        {
          "duration": 0.2727270000000033,
          "durationTicks": 120,
          "midi": 61,
          "name": "C#4",
          "ticks": 31680,
          "time": 71.999928,
          "velocity": 0.952755905511811
        },
        {
          "duration": 0.8181809999999956,
          "durationTicks": 360,
          "midi": 49,
          "name": "C#3",
          "ticks": 34560,
          "time": 78.545376,
          "velocity": 0.952755905511811
        },
        {
          "duration": 0.13636350000000164,
          "durationTicks": 60,
          "midi": 50,
          "name": "D3",
          "ticks": 34920,
          "time": 79.363557,
          "velocity": 0.8267716535433071
        },
        {
          "duration": 0.13636350000000164,
          "durationTicks": 60,
          "midi": 49,
          "name": "C#3",
          "ticks": 34980,
          "time": 79.4999205,
          "velocity": 0.9212598425196851
        },
        {
          "duration": 0.8181809999999956,
          "durationTicks": 360,
          "midi": 54,
          "name": "F#3",
          "ticks": 35040,
          "time": 79.636284,
          "velocity": 0.905511811023622
        },
        {
          "duration": 0.13636350000000164,
          "durationTicks": 60,
          "midi": 55,
          "name": "G3",
          "ticks": 35400,
          "time": 80.454465,
          "velocity": 0.7952755905511811
        },
        {
          "duration": 0.13636350000000164,
          "durationTicks": 60,
          "midi": 54,
          "name": "F#3",
          "ticks": 35460,
          "time": 80.5908285,
          "velocity": 0.905511811023622
        },
        {
          "duration": 1.9090889999999945,
          "durationTicks": 840,
          "midi": 61,
          "name": "C#4",
          "ticks": 35520,
          "time": 80.727192,
          "velocity": 0.84251968503937
        },
        {
          "duration": 0.13636350000000164,
          "durationTicks": 60,
          "midi": 64,
          "name": "E4",
          "ticks": 36360,
          "time": 82.636281,
          "velocity": 0.8582677165354331
        },
        {
          "duration": 0.13636350000000164,
          "durationTicks": 60,
          "midi": 59,
          "name": "B3",
          "ticks": 36360,
          "time": 82.636281,
          "velocity": 0.8582677165354331
        },
        {
          "duration": 0.2727270000000033,
          "durationTicks": 120,
          "midi": 66,
          "name": "F#4",
          "ticks": 36480,
          "time": 82.909008,
          "velocity": 0.905511811023622
        },
        {
          "duration": 0.2727270000000033,
          "durationTicks": 120,
          "midi": 61,
          "name": "C#4",
          "ticks": 36480,
          "time": 82.909008,
          "velocity": 0.905511811023622
        }
      ]
    },
    {
      "channel": 0,
      "controlChanges": {
        "0": [
          {
            "number": 0,
            "ticks": 0,
            "time": 0,
            "value": 0
          }
        ],
        "7": [
          {
            "number": 7,
            "ticks": 0,
            "time": 0,
            "value": 0.7874015748031497
          },
          {
            "number": 7,
            "ticks": 3840,
            "time": 8.727264,
            "value": 0.7874015748031497
          }
        ],
        "11": [
          {
            "number": 11,
            "ticks": 3840,
            "time": 8.727264,
            "value": 0.7874015748031497
          }
        ],
        "32": [
          {
            "number": 32,
            "ticks": 0,
            "time": 0,
            "value": 0
          }
        ],
        "64": [
          {
            "number": 64,
            "ticks": 3840,
            "time": 8.727264,
            "value": 0
          }
        ]
      },
      "pitchBends": [],
      "instrument": {
        "family": "piano",
        "number": 0,
        "name": "acoustic grand piano"
      },
      "name": "Percussion",
      "notes": [],
      "endOfTrackTicks": 36479
    },
    {
      "channel": 9,
      "controlChanges": {},
      "pitchBends": [],
      "instrument": {
        "family": "drums",
        "number": 1
      },
      "name": "",
      "notes": [
        {
          "duration": 0.13409077500000066,
          "durationTicks": 59,
          "midi": 42,
          "name": "F#2",
          "ticks": 4800,
          "time": 10.90908,
          "velocity": 0.9448818897637795
        },
        {
          "duration": 0.13409077500000066,
          "durationTicks": 59,
          "midi": 42,
          "name": "F#2",
          "ticks": 4860,
          "time": 11.0454435,
          "velocity": 0.7874015748031497
        },
        {
          "duration": 0.13636349999999986,
          "durationTicks": 60,
          "midi": 46,
          "name": "A#2",
          "ticks": 4920,
          "time": 11.181807,
          "velocity": 0.8661417322834646
        },
        {
          "duration": 0.13409077500000066,
          "durationTicks": 59,
          "midi": 42,
          "name": "F#2",
          "ticks": 4980,
          "time": 11.318170499999999,
          "velocity": 0.7874015748031497
        },
        {
          "duration": 0.13409077499999889,
          "durationTicks": 59,
          "midi": 42,
          "name": "F#2",
          "ticks": 5040,
          "time": 11.454534,
          "velocity": 0.7874015748031497
        },
        {
          "duration": 0.13409077499999889,
          "durationTicks": 59,
          "midi": 42,
          "name": "F#2",
          "ticks": 5100,
          "time": 11.5908975,
          "velocity": 0.7874015748031497
        },
        {
          "duration": 0.13409077499999889,
          "durationTicks": 59,
          "midi": 42,
          "name": "F#2",
          "ticks": 5160,
          "time": 11.727261,
          "velocity": 0.7874015748031497
        },
        {
          "duration": 0.13409077499999889,
          "durationTicks": 59,
          "midi": 42,
          "name": "F#2",
          "ticks": 5220,
          "time": 11.8636245,
          "velocity": 0.7874015748031497
        },
        {
          "duration": 0.13409077500000066,
          "durationTicks": 59,
          "midi": 42,
          "name": "F#2",
          "ticks": 5280,
          "time": 11.999988,
          "velocity": 0.9448818897637795
        },
        {
          "duration": 0.13409077500000066,
          "durationTicks": 59,
          "midi": 42,
          "name": "F#2",
          "ticks": 5340,
          "time": 12.1363515,
          "velocity": 0.7874015748031497
        },
        {
          "duration": 0.13409077500000066,
          "durationTicks": 59,
          "midi": 42,
          "name": "F#2",
          "ticks": 5400,
          "time": 12.272715,
          "velocity": 0.7874015748031497
        },
        {
          "duration": 0.13409077500000066,
          "durationTicks": 59,
          "midi": 42,
          "name": "F#2",
          "ticks": 5460,
          "time": 12.4090785,
          "velocity": 0.7874015748031497
        },
        {
          "duration": 0.13409077500000066,
          "durationTicks": 59,
          "midi": 42,
          "name": "F#2",
          "ticks": 5520,
          "time": 12.545442,
          "velocity": 1
        },
        {
          "duration": 0.13409077500000066,
          "durationTicks": 59,
          "midi": 42,
          "name": "F#2",
          "ticks": 5580,
          "time": 12.6818055,
          "velocity": 0.7874015748031497
        },
        {
          "duration": 0.13409077500000066,
          "durationTicks": 59,
          "midi": 42,
          "name": "F#2",
          "ticks": 5640,
          "time": 12.818169,
          "velocity": 0.7874015748031497
        },
        {
          "duration": 0.13409077500000066,
          "durationTicks": 59,
          "midi": 42,
          "name": "F#2",
          "ticks": 5700,
          "time": 12.9545325,
          "velocity": 0.7874015748031497
        },
        {
          "duration": 0.13409077499999889,
          "durationTicks": 59,
          "midi": 42,
          "name": "F#2",
          "ticks": 5760,
          "time": 13.090896,
          "velocity": 0.9448818897637795
        },
        {
          "duration": 0.13409077499999889,
          "durationTicks": 59,
          "midi": 42,
          "name": "F#2",
          "ticks": 5820,
          "time": 13.2272595,
          "velocity": 0.7874015748031497
        },
        {
          "duration": 0.13409077499999889,
          "durationTicks": 59,
          "midi": 42,
          "name": "F#2",
          "ticks": 5880,
          "time": 13.363623,
          "velocity": 0.7874015748031497
        },
        {
          "duration": 0.13409077499999889,
          "durationTicks": 59,
          "midi": 42,
          "name": "F#2",
          "ticks": 5940,
          "time": 13.4999865,
          "velocity": 0.7874015748031497
        },
        {
          "duration": 0.13409077500000066,
          "durationTicks": 59,
          "midi": 42,
          "name": "F#2",
          "ticks": 6000,
          "time": 13.63635,
          "velocity": 0.7874015748031497
        },
        {
          "duration": 0.13409077500000066,
          "durationTicks": 59,
          "midi": 42,
          "name": "F#2",
          "ticks": 6060,
          "time": 13.7727135,
          "velocity": 0.7874015748031497
        },
        {
          "duration": 0.13409077500000066,
          "durationTicks": 59,
          "midi": 42,
          "name": "F#2",
          "ticks": 6120,
          "time": 13.909077,
          "velocity": 0.7874015748031497
        },
        {
          "duration": 0.13409077500000066,
          "durationTicks": 59,
          "midi": 42,
          "name": "F#2",
          "ticks": 6180,
          "time": 14.0454405,
          "velocity": 0.7874015748031497
        },
        {
          "duration": 0.13409077500000066,
          "durationTicks": 59,
          "midi": 42,
          "name": "F#2",
          "ticks": 6240,
          "time": 14.181804,
          "velocity": 1
        },
        {
          "duration": 0.13409077500000066,
          "durationTicks": 59,
          "midi": 42,
          "name": "F#2",
          "ticks": 6300,
          "time": 14.3181675,
          "velocity": 0.7874015748031497
        },
        {
          "duration": 0.13409077500000066,
          "durationTicks": 59,
          "midi": 42,
          "name": "F#2",
          "ticks": 6360,
          "time": 14.454531,
          "velocity": 0.7874015748031497
        },
        {
          "duration": 0.13409077500000066,
          "durationTicks": 59,
          "midi": 42,
          "name": "F#2",
          "ticks": 6420,
          "time": 14.5908945,
          "velocity": 0.7874015748031497
        },
        {
          "duration": 0.13409077500000066,
          "durationTicks": 59,
          "midi": 42,
          "name": "F#2",
          "ticks": 6480,
          "time": 14.727257999999999,
          "velocity": 1
        },
        {
          "duration": 0.13409077499999889,
          "durationTicks": 59,
          "midi": 42,
          "name": "F#2",
          "ticks": 6540,
          "time": 14.8636215,
          "velocity": 0.7874015748031497
        },
        {
          "duration": 0.13409077499999889,
          "durationTicks": 59,
          "midi": 42,
          "name": "F#2",
          "ticks": 6600,
          "time": 14.999985,
          "velocity": 0.7874015748031497
        },
        {
          "duration": 0.13409077499999889,
          "durationTicks": 59,
          "midi": 42,
          "name": "F#2",
          "ticks": 6660,
          "time": 15.1363485,
          "velocity": 0.7874015748031497
        },
        {
          "duration": 0.13409077499999889,
          "durationTicks": 59,
          "midi": 42,
          "name": "F#2",
          "ticks": 6720,
          "time": 15.272712,
          "velocity": 0.9448818897637795
        },
        {
          "duration": 0.13409077500000066,
          "durationTicks": 59,
          "midi": 42,
          "name": "F#2",
          "ticks": 6780,
          "time": 15.4090755,
          "velocity": 0.7874015748031497
        },
        {
          "duration": 0.13636349999999986,
          "durationTicks": 60,
          "midi": 46,
          "name": "A#2",
          "ticks": 6840,
          "time": 15.545439,
          "velocity": 0.8661417322834646
        },
        {
          "duration": 0.13409077500000066,
          "durationTicks": 59,
          "midi": 42,
          "name": "F#2",
          "ticks": 6900,
          "time": 15.6818025,
          "velocity": 0.7874015748031497
        },
        {
          "duration": 0.13409077500000066,
          "durationTicks": 59,
          "midi": 42,
          "name": "F#2",
          "ticks": 6960,
          "time": 15.818166,
          "velocity": 0.7874015748031497
        },
        {
          "duration": 0.13409077500000066,
          "durationTicks": 59,
          "midi": 42,
          "name": "F#2",
          "ticks": 7020,
          "time": 15.9545295,
          "velocity": 0.7874015748031497
        },
        {
          "duration": 0.1340907749999971,
          "durationTicks": 59,
          "midi": 42,
          "name": "F#2",
          "ticks": 7080,
          "time": 16.090893,
          "velocity": 0.7874015748031497
        },
        {
          "duration": 0.13409077500000066,
          "durationTicks": 59,
          "midi": 42,
          "name": "F#2",
          "ticks": 7140,
          "time": 16.2272565,
          "velocity": 0.7874015748031497
        },
        {
          "duration": 0.13409077500000066,
          "durationTicks": 59,
          "midi": 42,
          "name": "F#2",
          "ticks": 7200,
          "time": 16.36362,
          "velocity": 0.9448818897637795
        },
        {
          "duration": 0.13409077500000066,
          "durationTicks": 59,
          "midi": 42,
          "name": "F#2",
          "ticks": 7260,
          "time": 16.4999835,
          "velocity": 0.7874015748031497
        },
        {
          "duration": 0.13409077500000066,
          "durationTicks": 59,
          "midi": 42,
          "name": "F#2",
          "ticks": 7320,
          "time": 16.636347,
          "velocity": 0.7874015748031497
        },
        {
          "duration": 0.13409077500000066,
          "durationTicks": 59,
          "midi": 42,
          "name": "F#2",
          "ticks": 7380,
          "time": 16.7727105,
          "velocity": 0.7874015748031497
        },
        {
          "duration": 0.13409077500000066,
          "durationTicks": 59,
          "midi": 42,
          "name": "F#2",
          "ticks": 7440,
          "time": 16.909074,
          "velocity": 1
        },
        {
          "duration": 0.13409077500000066,
          "durationTicks": 59,
          "midi": 42,
          "name": "F#2",
          "ticks": 7500,
          "time": 17.0454375,
          "velocity": 0.7874015748031497
        },
        {
          "duration": 0.13409077500000066,
          "durationTicks": 59,
          "midi": 42,
          "name": "F#2",
          "ticks": 7560,
          "time": 17.181801,
          "velocity": 0.7874015748031497
        },
        {
          "duration": 0.13409077500000066,
          "durationTicks": 59,
          "midi": 42,
          "name": "F#2",
          "ticks": 7620,
          "time": 17.318164499999998,
          "velocity": 0.7874015748031497
        },
        {
          "duration": 0.1340907749999971,
          "durationTicks": 59,
          "midi": 42,
          "name": "F#2",
          "ticks": 7680,
          "time": 17.454528,
          "velocity": 0.9448818897637795
        },
        {
          "duration": 0.1340907749999971,
          "durationTicks": 59,
          "midi": 42,
          "name": "F#2",
          "ticks": 7740,
          "time": 17.5908915,
          "velocity": 0.7874015748031497
        },
        {
          "duration": 0.1340907749999971,
          "durationTicks": 59,
          "midi": 42,
          "name": "F#2",
          "ticks": 7800,
          "time": 17.727255,
          "velocity": 0.7874015748031497
        },
        {
          "duration": 0.1340907749999971,
          "durationTicks": 59,
          "midi": 42,
          "name": "F#2",
          "ticks": 7860,
          "time": 17.8636185,
          "velocity": 0.7874015748031497
        },
        {
          "duration": 0.1340907749999971,
          "durationTicks": 59,
          "midi": 42,
          "name": "F#2",
          "ticks": 7920,
          "time": 17.999982,
          "velocity": 0.7874015748031497
        },
        {
          "duration": 0.1340907749999971,
          "durationTicks": 59,
          "midi": 42,
          "name": "F#2",
          "ticks": 7980,
          "time": 18.1363455,
          "velocity": 0.7874015748031497
        },
        {
          "duration": 0.13409077500000066,
          "durationTicks": 59,
          "midi": 42,
          "name": "F#2",
          "ticks": 8040,
          "time": 18.272709,
          "velocity": 0.7874015748031497
        },
        {
          "duration": 0.1340907749999971,
          "durationTicks": 59,
          "midi": 42,
          "name": "F#2",
          "ticks": 8100,
          "time": 18.4090725,
          "velocity": 0.7874015748031497
        },
        {
          "duration": 0.13409077500000066,
          "durationTicks": 59,
          "midi": 42,
          "name": "F#2",
          "ticks": 8160,
          "time": 18.545436,
          "velocity": 1
        },
        {
          "duration": 0.1340907749999971,
          "durationTicks": 59,
          "midi": 42,
          "name": "F#2",
          "ticks": 8220,
          "time": 18.6817995,
          "velocity": 0.7874015748031497
        },
        {
          "duration": 0.13409077500000066,
          "durationTicks": 59,
          "midi": 42,
          "name": "F#2",
          "ticks": 8280,
          "time": 18.818163,
          "velocity": 0.7874015748031497
        },
        {
          "duration": 0.1340907749999971,
          "durationTicks": 59,
          "midi": 42,
          "name": "F#2",
          "ticks": 8340,
          "time": 18.9545265,
          "velocity": 0.7874015748031497
        },
        {
          "duration": 0.13409077500000066,
          "durationTicks": 59,
          "midi": 42,
          "name": "F#2",
          "ticks": 8400,
          "time": 19.090889999999998,
          "velocity": 1
        },
        {
          "duration": 0.1340907749999971,
          "durationTicks": 59,
          "midi": 42,
          "name": "F#2",
          "ticks": 8460,
          "time": 19.2272535,
          "velocity": 0.7874015748031497
        },
        {
          "duration": 0.1340907749999971,
          "durationTicks": 59,
          "midi": 42,
          "name": "F#2",
          "ticks": 8520,
          "time": 19.363617,
          "velocity": 0.7874015748031497
        },
        {
          "duration": 0.1340907749999971,
          "durationTicks": 59,
          "midi": 42,
          "name": "F#2",
          "ticks": 8580,
          "time": 19.4999805,
          "velocity": 0.7874015748031497
        },
        {
          "duration": 0.1340907749999971,
          "durationTicks": 59,
          "midi": 42,
          "name": "F#2",
          "ticks": 8640,
          "time": 19.636344,
          "velocity": 0.9448818897637795
        },
        {
          "duration": 0.1340907749999971,
          "durationTicks": 59,
          "midi": 42,
          "name": "F#2",
          "ticks": 8700,
          "time": 19.7727075,
          "velocity": 0.7874015748031497
        },
        {
          "duration": 0.13636349999999808,
          "durationTicks": 60,
          "midi": 46,
          "name": "A#2",
          "ticks": 8760,
          "time": 19.909071,
          "velocity": 0.8661417322834646
        },
        {
          "duration": 0.13409077500000066,
          "durationTicks": 59,
          "midi": 42,
          "name": "F#2",
          "ticks": 8820,
          "time": 20.0454345,
          "velocity": 0.7874015748031497
        },
        {
          "duration": 0.1340907749999971,
          "durationTicks": 59,
          "midi": 42,
          "name": "F#2",
          "ticks": 8880,
          "time": 20.181798,
          "velocity": 0.7874015748031497
        },
        {
          "duration": 0.13409077500000066,
          "durationTicks": 59,
          "midi": 42,
          "name": "F#2",
          "ticks": 8940,
          "time": 20.3181615,
          "velocity": 0.7874015748031497
        },
        {
          "duration": 0.1340907749999971,
          "durationTicks": 59,
          "midi": 42,
          "name": "F#2",
          "ticks": 9000,
          "time": 20.454525,
          "velocity": 0.7874015748031497
        },
        {
          "duration": 0.13409077500000066,
          "durationTicks": 59,
          "midi": 42,
          "name": "F#2",
          "ticks": 9060,
          "time": 20.5908885,
          "velocity": 0.7874015748031497
        },
        {
          "duration": 0.1340907749999971,
          "durationTicks": 59,
          "midi": 42,
          "name": "F#2",
          "ticks": 9120,
          "time": 20.727252,
          "velocity": 0.9448818897637795
        },
        {
          "duration": 0.13409077500000066,
          "durationTicks": 59,
          "midi": 42,
          "name": "F#2",
          "ticks": 9180,
          "time": 20.863615499999998,
          "velocity": 0.7874015748031497
        },
        {
          "duration": 0.1340907749999971,
          "durationTicks": 59,
          "midi": 42,
          "name": "F#2",
          "ticks": 9240,
          "time": 20.999979,
          "velocity": 0.7874015748031497
        },
        {
          "duration": 0.1340907749999971,
          "durationTicks": 59,
          "midi": 42,
          "name": "F#2",
          "ticks": 9300,
          "time": 21.1363425,
          "velocity": 0.7874015748031497
        },
        {
          "duration": 0.1340907749999971,
          "durationTicks": 59,
          "midi": 42,
          "name": "F#2",
          "ticks": 9360,
          "time": 21.272706,
          "velocity": 1
        },
        {
          "duration": 0.1340907749999971,
          "durationTicks": 59,
          "midi": 42,
          "name": "F#2",
          "ticks": 9420,
          "time": 21.4090695,
          "velocity": 0.7874015748031497
        },
        {
          "duration": 0.1340907749999971,
          "durationTicks": 59,
          "midi": 42,
          "name": "F#2",
          "ticks": 9480,
          "time": 21.545433,
          "velocity": 0.7874015748031497
        },
        {
          "duration": 0.1340907749999971,
          "durationTicks": 59,
          "midi": 42,
          "name": "F#2",
          "ticks": 9540,
          "time": 21.6817965,
          "velocity": 0.7874015748031497
        },
        {
          "duration": 0.13409077500000066,
          "durationTicks": 59,
          "midi": 42,
          "name": "F#2",
          "ticks": 9600,
          "time": 21.81816,
          "velocity": 0.9448818897637795
        },
        {
          "duration": 0.1340907749999971,
          "durationTicks": 59,
          "midi": 42,
          "name": "F#2",
          "ticks": 9660,
          "time": 21.9545235,
          "velocity": 0.7874015748031497
        },
        {
          "duration": 0.13409077500000066,
          "durationTicks": 59,
          "midi": 42,
          "name": "F#2",
          "ticks": 9720,
          "time": 22.090887,
          "velocity": 0.7874015748031497
        },
        {
          "duration": 0.1340907749999971,
          "durationTicks": 59,
          "midi": 42,
          "name": "F#2",
          "ticks": 9780,
          "time": 22.2272505,
          "velocity": 0.7874015748031497
        },
        {
          "duration": 0.13409077500000066,
          "durationTicks": 59,
          "midi": 42,
          "name": "F#2",
          "ticks": 9840,
          "time": 22.363614,
          "velocity": 0.7874015748031497
        },
        {
          "duration": 0.1340907749999971,
          "durationTicks": 59,
          "midi": 42,
          "name": "F#2",
          "ticks": 9900,
          "time": 22.4999775,
          "velocity": 0.7874015748031497
        },
        {
          "duration": 0.13409077500000066,
          "durationTicks": 59,
          "midi": 42,
          "name": "F#2",
          "ticks": 9960,
          "time": 22.636340999999998,
          "velocity": 0.7874015748031497
        },
        {
          "duration": 0.1340907749999971,
          "durationTicks": 59,
          "midi": 42,
          "name": "F#2",
          "ticks": 10020,
          "time": 22.7727045,
          "velocity": 0.7874015748031497
        },
        {
          "duration": 0.1340907749999971,
          "durationTicks": 59,
          "midi": 42,
          "name": "F#2",
          "ticks": 10080,
          "time": 22.909068,
          "velocity": 1
        },
        {
          "duration": 0.1340907749999971,
          "durationTicks": 59,
          "midi": 42,
          "name": "F#2",
          "ticks": 10140,
          "time": 23.0454315,
          "velocity": 0.7874015748031497
        },
        {
          "duration": 0.1340907749999971,
          "durationTicks": 59,
          "midi": 42,
          "name": "F#2",
          "ticks": 10200,
          "time": 23.181795,
          "velocity": 0.7874015748031497
        },
        {
          "duration": 0.1340907749999971,
          "durationTicks": 59,
          "midi": 42,
          "name": "F#2",
          "ticks": 10260,
          "time": 23.3181585,
          "velocity": 0.7874015748031497
        },
        {
          "duration": 0.1340907749999971,
          "durationTicks": 59,
          "midi": 42,
          "name": "F#2",
          "ticks": 10320,
          "time": 23.454522,
          "velocity": 1
        },
        {
          "duration": 0.13409077500000066,
          "durationTicks": 59,
          "midi": 42,
          "name": "F#2",
          "ticks": 10380,
          "time": 23.5908855,
          "velocity": 0.7874015748031497
        },
        {
          "duration": 0.1340907749999971,
          "durationTicks": 59,
          "midi": 42,
          "name": "F#2",
          "ticks": 10440,
          "time": 23.727249,
          "velocity": 0.7874015748031497
        },
        {
          "duration": 0.13409077500000066,
          "durationTicks": 59,
          "midi": 42,
          "name": "F#2",
          "ticks": 10500,
          "time": 23.8636125,
          "velocity": 0.7874015748031497
        },
        {
          "duration": 0.1340907749999971,
          "durationTicks": 59,
          "midi": 42,
          "name": "F#2",
          "ticks": 10560,
          "time": 23.999976,
          "velocity": 0.9448818897637795
        },
        {
          "duration": 0.13409077500000066,
          "durationTicks": 59,
          "midi": 42,
          "name": "F#2",
          "ticks": 10620,
          "time": 24.1363395,
          "velocity": 0.7874015748031497
        },
        {
          "duration": 0.13636349999999808,
          "durationTicks": 60,
          "midi": 46,
          "name": "A#2",
          "ticks": 10680,
          "time": 24.272703,
          "velocity": 0.8661417322834646
        },
        {
          "duration": 0.13409077500000066,
          "durationTicks": 59,
          "midi": 42,
          "name": "F#2",
          "ticks": 10740,
          "time": 24.409066499999998,
          "velocity": 0.7874015748031497
        },
        {
          "duration": 0.1340907749999971,
          "durationTicks": 59,
          "midi": 42,
          "name": "F#2",
          "ticks": 10800,
          "time": 24.54543,
          "velocity": 0.7874015748031497
        },
        {
          "duration": 0.1340907749999971,
          "durationTicks": 59,
          "midi": 42,
          "name": "F#2",
          "ticks": 10860,
          "time": 24.6817935,
          "velocity": 0.7874015748031497
        },
        {
          "duration": 0.1340907749999971,
          "durationTicks": 59,
          "midi": 42,
          "name": "F#2",
          "ticks": 10920,
          "time": 24.818157,
          "velocity": 0.7874015748031497
        },
        {
          "duration": 0.1340907749999971,
          "durationTicks": 59,
          "midi": 42,
          "name": "F#2",
          "ticks": 10980,
          "time": 24.9545205,
          "velocity": 0.7874015748031497
        },
        {
          "duration": 0.1340907749999971,
          "durationTicks": 59,
          "midi": 42,
          "name": "F#2",
          "ticks": 11040,
          "time": 25.090884,
          "velocity": 0.9448818897637795
        },
        {
          "duration": 0.1340907749999971,
          "durationTicks": 59,
          "midi": 42,
          "name": "F#2",
          "ticks": 11100,
          "time": 25.2272475,
          "velocity": 0.7874015748031497
        },
        {
          "duration": 0.13409077500000066,
          "durationTicks": 59,
          "midi": 42,
          "name": "F#2",
          "ticks": 11160,
          "time": 25.363611,
          "velocity": 0.7874015748031497
        },
        {
          "duration": 0.1340907749999971,
          "durationTicks": 59,
          "midi": 42,
          "name": "F#2",
          "ticks": 11220,
          "time": 25.4999745,
          "velocity": 0.7874015748031497
        },
        {
          "duration": 0.13409077500000066,
          "durationTicks": 59,
          "midi": 42,
          "name": "F#2",
          "ticks": 11280,
          "time": 25.636338,
          "velocity": 1
        },
        {
          "duration": 0.1340907749999971,
          "durationTicks": 59,
          "midi": 42,
          "name": "F#2",
          "ticks": 11340,
          "time": 25.7727015,
          "velocity": 0.7874015748031497
        },
        {
          "duration": 0.13409077500000066,
          "durationTicks": 59,
          "midi": 42,
          "name": "F#2",
          "ticks": 11400,
          "time": 25.909065,
          "velocity": 0.7874015748031497
        },
        {
          "duration": 0.1340907749999971,
          "durationTicks": 59,
          "midi": 42,
          "name": "F#2",
          "ticks": 11460,
          "time": 26.0454285,
          "velocity": 0.7874015748031497
        },
        {
          "duration": 0.1340907749999971,
          "durationTicks": 59,
          "midi": 42,
          "name": "F#2",
          "ticks": 11520,
          "time": 26.181792,
          "velocity": 0.9448818897637795
        },
        {
          "duration": 0.1340907749999971,
          "durationTicks": 59,
          "midi": 42,
          "name": "F#2",
          "ticks": 11580,
          "time": 26.3181555,
          "velocity": 0.7874015748031497
        },
        {
          "duration": 0.1340907749999971,
          "durationTicks": 59,
          "midi": 42,
          "name": "F#2",
          "ticks": 11640,
          "time": 26.454519,
          "velocity": 0.7874015748031497
        },
        {
          "duration": 0.1340907749999971,
          "durationTicks": 59,
          "midi": 42,
          "name": "F#2",
          "ticks": 11700,
          "time": 26.5908825,
          "velocity": 0.7874015748031497
        },
        {
          "duration": 0.1340907749999971,
          "durationTicks": 59,
          "midi": 42,
          "name": "F#2",
          "ticks": 11760,
          "time": 26.727246,
          "velocity": 0.7874015748031497
        },
        {
          "duration": 0.1340907749999971,
          "durationTicks": 59,
          "midi": 42,
          "name": "F#2",
          "ticks": 11820,
          "time": 26.8636095,
          "velocity": 0.7874015748031497
        },
        {
          "duration": 0.1340907749999971,
          "durationTicks": 59,
          "midi": 42,
          "name": "F#2",
          "ticks": 11880,
          "time": 26.999973,
          "velocity": 0.7874015748031497
        },
        {
          "duration": 0.13409077500000066,
          "durationTicks": 59,
          "midi": 42,
          "name": "F#2",
          "ticks": 11940,
          "time": 27.1363365,
          "velocity": 0.7874015748031497
        },
        {
          "duration": 0.1340907749999971,
          "durationTicks": 59,
          "midi": 42,
          "name": "F#2",
          "ticks": 12000,
          "time": 27.2727,
          "velocity": 1
        },
        {
          "duration": 0.13409077500000066,
          "durationTicks": 59,
          "midi": 42,
          "name": "F#2",
          "ticks": 12060,
          "time": 27.4090635,
          "velocity": 0.7874015748031497
        },
        {
          "duration": 0.1340907749999971,
          "durationTicks": 59,
          "midi": 42,
          "name": "F#2",
          "ticks": 12120,
          "time": 27.545427,
          "velocity": 0.7874015748031497
        },
        {
          "duration": 0.13409077500000066,
          "durationTicks": 59,
          "midi": 42,
          "name": "F#2",
          "ticks": 12180,
          "time": 27.681790499999998,
          "velocity": 0.7874015748031497
        },
        {
          "duration": 0.1340907749999971,
          "durationTicks": 59,
          "midi": 42,
          "name": "F#2",
          "ticks": 12240,
          "time": 27.818154,
          "velocity": 1
        },
        {
          "duration": 0.1340907749999971,
          "durationTicks": 59,
          "midi": 42,
          "name": "F#2",
          "ticks": 12300,
          "time": 27.9545175,
          "velocity": 0.7874015748031497
        },
        {
          "duration": 0.1340907749999971,
          "durationTicks": 59,
          "midi": 42,
          "name": "F#2",
          "ticks": 12360,
          "time": 28.090881,
          "velocity": 0.7874015748031497
        },
        {
          "duration": 0.1340907749999971,
          "durationTicks": 59,
          "midi": 42,
          "name": "F#2",
          "ticks": 12420,
          "time": 28.2272445,
          "velocity": 0.7874015748031497
        },
        {
          "duration": 0.1340907749999971,
          "durationTicks": 59,
          "midi": 42,
          "name": "F#2",
          "ticks": 12480,
          "time": 28.363608,
          "velocity": 0.9448818897637795
        },
        {
          "duration": 0.1340907749999971,
          "durationTicks": 59,
          "midi": 42,
          "name": "F#2",
          "ticks": 12540,
          "time": 28.4999715,
          "velocity": 0.7874015748031497
        },
        {
          "duration": 0.13636350000000164,
          "durationTicks": 60,
          "midi": 46,
          "name": "A#2",
          "ticks": 12600,
          "time": 28.636335,
          "velocity": 0.8661417322834646
        },
        {
          "duration": 0.1340907749999971,
          "durationTicks": 59,
          "midi": 42,
          "name": "F#2",
          "ticks": 12660,
          "time": 28.7726985,
          "velocity": 0.7874015748031497
        },
        {
          "duration": 0.13409077500000066,
          "durationTicks": 59,
          "midi": 42,
          "name": "F#2",
          "ticks": 12720,
          "time": 28.909062,
          "velocity": 0.7874015748031497
        },
        {
          "duration": 0.1340907749999971,
          "durationTicks": 59,
          "midi": 42,
          "name": "F#2",
          "ticks": 12780,
          "time": 29.0454255,
          "velocity": 0.7874015748031497
        },
        {
          "duration": 0.13409077500000066,
          "durationTicks": 59,
          "midi": 42,
          "name": "F#2",
          "ticks": 12840,
          "time": 29.181789,
          "velocity": 0.7874015748031497
        },
        {
          "duration": 0.1340907749999971,
          "durationTicks": 59,
          "midi": 42,
          "name": "F#2",
          "ticks": 12900,
          "time": 29.3181525,
          "velocity": 0.7874015748031497
        },
        {
          "duration": 0.13409077500000066,
          "durationTicks": 59,
          "midi": 42,
          "name": "F#2",
          "ticks": 12960,
          "time": 29.454515999999998,
          "velocity": 0.9448818897637795
        },
        {
          "duration": 0.1340907749999971,
          "durationTicks": 59,
          "midi": 42,
          "name": "F#2",
          "ticks": 13020,
          "time": 29.5908795,
          "velocity": 0.7874015748031497
        },
        {
          "duration": 0.1340907749999971,
          "durationTicks": 59,
          "midi": 42,
          "name": "F#2",
          "ticks": 13080,
          "time": 29.727243,
          "velocity": 0.7874015748031497
        },
        {
          "duration": 0.1340907749999971,
          "durationTicks": 59,
          "midi": 42,
          "name": "F#2",
          "ticks": 13140,
          "time": 29.8636065,
          "velocity": 0.7874015748031497
        },
        {
          "duration": 0.1340907749999971,
          "durationTicks": 59,
          "midi": 42,
          "name": "F#2",
          "ticks": 13200,
          "time": 29.99997,
          "velocity": 1
        },
        {
          "duration": 0.1340907749999971,
          "durationTicks": 59,
          "midi": 42,
          "name": "F#2",
          "ticks": 13260,
          "time": 30.1363335,
          "velocity": 0.7874015748031497
        },
        {
          "duration": 0.1340907749999971,
          "durationTicks": 59,
          "midi": 42,
          "name": "F#2",
          "ticks": 13320,
          "time": 30.272697,
          "velocity": 0.7874015748031497
        },
        {
          "duration": 0.13409077500000066,
          "durationTicks": 59,
          "midi": 42,
          "name": "F#2",
          "ticks": 13380,
          "time": 30.4090605,
          "velocity": 0.7874015748031497
        },
        {
          "duration": 0.1340907749999971,
          "durationTicks": 59,
          "midi": 42,
          "name": "F#2",
          "ticks": 13440,
          "time": 30.545424,
          "velocity": 0.9448818897637795
        },
        {
          "duration": 0.13409077500000066,
          "durationTicks": 59,
          "midi": 42,
          "name": "F#2",
          "ticks": 13500,
          "time": 30.6817875,
          "velocity": 0.7874015748031497
        },
        {
          "duration": 0.1340907749999971,
          "durationTicks": 59,
          "midi": 42,
          "name": "F#2",
          "ticks": 13560,
          "time": 30.818151,
          "velocity": 0.7874015748031497
        },
        {
          "duration": 0.13409077500000066,
          "durationTicks": 59,
          "midi": 42,
          "name": "F#2",
          "ticks": 13620,
          "time": 30.9545145,
          "velocity": 0.7874015748031497
        },
        {
          "duration": 0.1340907749999971,
          "durationTicks": 59,
          "midi": 42,
          "name": "F#2",
          "ticks": 13680,
          "time": 31.090878,
          "velocity": 0.7874015748031497
        },
        {
          "duration": 0.13409077500000066,
          "durationTicks": 59,
          "midi": 42,
          "name": "F#2",
          "ticks": 13740,
          "time": 31.227241499999998,
          "velocity": 0.7874015748031497
        },
        {
          "duration": 0.1340907749999971,
          "durationTicks": 59,
          "midi": 42,
          "name": "F#2",
          "ticks": 13800,
          "time": 31.363605,
          "velocity": 0.7874015748031497
        },
        {
          "duration": 0.1340907749999971,
          "durationTicks": 59,
          "midi": 42,
          "name": "F#2",
          "ticks": 13860,
          "time": 31.4999685,
          "velocity": 0.7874015748031497
        },
        {
          "duration": 0.1340907749999971,
          "durationTicks": 59,
          "midi": 42,
          "name": "F#2",
          "ticks": 13920,
          "time": 31.636332,
          "velocity": 1
        },
        {
          "duration": 0.1340907749999971,
          "durationTicks": 59,
          "midi": 42,
          "name": "F#2",
          "ticks": 13980,
          "time": 31.7726955,
          "velocity": 0.7874015748031497
        },
        {
          "duration": 0.1340907749999971,
          "durationTicks": 59,
          "midi": 42,
          "name": "F#2",
          "ticks": 14040,
          "time": 31.909059,
          "velocity": 0.7874015748031497
        },
        {
          "duration": 0.1340907749999971,
          "durationTicks": 59,
          "midi": 42,
          "name": "F#2",
          "ticks": 14100,
          "time": 32.0454225,
          "velocity": 0.7874015748031497
        },
        {
          "duration": 0.1340907749999971,
          "durationTicks": 59,
          "midi": 42,
          "name": "F#2",
          "ticks": 14160,
          "time": 32.181786,
          "velocity": 1
        },
        {
          "duration": 0.13409077500000421,
          "durationTicks": 59,
          "midi": 42,
          "name": "F#2",
          "ticks": 14220,
          "time": 32.3181495,
          "velocity": 0.7874015748031497
        },
        {
          "duration": 0.1340907749999971,
          "durationTicks": 59,
          "midi": 42,
          "name": "F#2",
          "ticks": 14280,
          "time": 32.454513,
          "velocity": 0.7874015748031497
        },
        {
          "duration": 0.1340907749999971,
          "durationTicks": 59,
          "midi": 42,
          "name": "F#2",
          "ticks": 14340,
          "time": 32.5908765,
          "velocity": 0.7874015748031497
        },
        {
          "duration": 0.1340907749999971,
          "durationTicks": 59,
          "midi": 42,
          "name": "F#2",
          "ticks": 14400,
          "time": 32.72724,
          "velocity": 0.9448818897637795
        },
        {
          "duration": 0.13409077500000421,
          "durationTicks": 59,
          "midi": 42,
          "name": "F#2",
          "ticks": 14460,
          "time": 32.863603499999996,
          "velocity": 0.7874015748031497
        },
        {
          "duration": 0.13636350000000164,
          "durationTicks": 60,
          "midi": 46,
          "name": "A#2",
          "ticks": 14520,
          "time": 32.999967,
          "velocity": 0.8661417322834646
        },
        {
          "duration": 0.1340907749999971,
          "durationTicks": 59,
          "midi": 42,
          "name": "F#2",
          "ticks": 14580,
          "time": 33.1363305,
          "velocity": 0.7874015748031497
        },
        {
          "duration": 0.1340907749999971,
          "durationTicks": 59,
          "midi": 42,
          "name": "F#2",
          "ticks": 14640,
          "time": 33.272694,
          "velocity": 0.7874015748031497
        },
        {
          "duration": 0.1340907749999971,
          "durationTicks": 59,
          "midi": 42,
          "name": "F#2",
          "ticks": 14700,
          "time": 33.4090575,
          "velocity": 0.7874015748031497
        },
        {
          "duration": 0.1340907749999971,
          "durationTicks": 59,
          "midi": 42,
          "name": "F#2",
          "ticks": 14760,
          "time": 33.545421,
          "velocity": 0.7874015748031497
        },
        {
          "duration": 0.1340907749999971,
          "durationTicks": 59,
          "midi": 42,
          "name": "F#2",
          "ticks": 14820,
          "time": 33.6817845,
          "velocity": 0.7874015748031497
        },
        {
          "duration": 0.1340907749999971,
          "durationTicks": 59,
          "midi": 42,
          "name": "F#2",
          "ticks": 14880,
          "time": 33.818148,
          "velocity": 0.9448818897637795
        },
        {
          "duration": 0.1340907749999971,
          "durationTicks": 59,
          "midi": 42,
          "name": "F#2",
          "ticks": 14940,
          "time": 33.9545115,
          "velocity": 0.7874015748031497
        },
        {
          "duration": 0.13409077500000421,
          "durationTicks": 59,
          "midi": 42,
          "name": "F#2",
          "ticks": 15000,
          "time": 34.090875,
          "velocity": 0.7874015748031497
        },
        {
          "duration": 0.1340907749999971,
          "durationTicks": 59,
          "midi": 42,
          "name": "F#2",
          "ticks": 15060,
          "time": 34.2272385,
          "velocity": 0.7874015748031497
        },
        {
          "duration": 0.1340907749999971,
          "durationTicks": 59,
          "midi": 42,
          "name": "F#2",
          "ticks": 15120,
          "time": 34.363602,
          "velocity": 1
        },
        {
          "duration": 0.1340907749999971,
          "durationTicks": 59,
          "midi": 42,
          "name": "F#2",
          "ticks": 15180,
          "time": 34.4999655,
          "velocity": 0.7874015748031497
        },
        {
          "duration": 0.13409077500000421,
          "durationTicks": 59,
          "midi": 42,
          "name": "F#2",
          "ticks": 15240,
          "time": 34.636328999999996,
          "velocity": 0.7874015748031497
        },
        {
          "duration": 0.1340907749999971,
          "durationTicks": 59,
          "midi": 42,
          "name": "F#2",
          "ticks": 15300,
          "time": 34.7726925,
          "velocity": 0.7874015748031497
        },
        {
          "duration": 0.13409077500000421,
          "durationTicks": 59,
          "midi": 42,
          "name": "F#2",
          "ticks": 15360,
          "time": 34.909056,
          "velocity": 0.9448818897637795
        },
        {
          "duration": 0.1340907749999971,
          "durationTicks": 59,
          "midi": 42,
          "name": "F#2",
          "ticks": 15420,
          "time": 35.0454195,
          "velocity": 0.7874015748031497
        },
        {
          "duration": 0.1340907749999971,
          "durationTicks": 59,
          "midi": 42,
          "name": "F#2",
          "ticks": 15480,
          "time": 35.181783,
          "velocity": 0.7874015748031497
        },
        {
          "duration": 0.13409077500000421,
          "durationTicks": 59,
          "midi": 42,
          "name": "F#2",
          "ticks": 15540,
          "time": 35.3181465,
          "velocity": 0.7874015748031497
        },
        {
          "duration": 0.13409077500000421,
          "durationTicks": 59,
          "midi": 42,
          "name": "F#2",
          "ticks": 15600,
          "time": 35.45451,
          "velocity": 0.7874015748031497
        },
        {
          "duration": 0.13409077500000421,
          "durationTicks": 59,
          "midi": 42,
          "name": "F#2",
          "ticks": 15660,
          "time": 35.5908735,
          "velocity": 0.7874015748031497
        },
        {
          "duration": 0.1340907749999971,
          "durationTicks": 59,
          "midi": 42,
          "name": "F#2",
          "ticks": 15720,
          "time": 35.727237,
          "velocity": 0.7874015748031497
        },
        {
          "duration": 0.13409077500000421,
          "durationTicks": 59,
          "midi": 42,
          "name": "F#2",
          "ticks": 15780,
          "time": 35.8636005,
          "velocity": 0.7874015748031497
        },
        {
          "duration": 0.13409077500000421,
          "durationTicks": 59,
          "midi": 42,
          "name": "F#2",
          "ticks": 15840,
          "time": 35.999964,
          "velocity": 1
        },
        {
          "duration": 0.13409077500000421,
          "durationTicks": 59,
          "midi": 42,
          "name": "F#2",
          "ticks": 15900,
          "time": 36.1363275,
          "velocity": 0.7874015748031497
        },
        {
          "duration": 0.1340907749999971,
          "durationTicks": 59,
          "midi": 42,
          "name": "F#2",
          "ticks": 15960,
          "time": 36.272691,
          "velocity": 0.7874015748031497
        },
        {
          "duration": 0.13409077500000421,
          "durationTicks": 59,
          "midi": 42,
          "name": "F#2",
          "ticks": 16020,
          "time": 36.409054499999996,
          "velocity": 0.7874015748031497
        },
        {
          "duration": 0.13409077500000421,
          "durationTicks": 59,
          "midi": 42,
          "name": "F#2",
          "ticks": 16080,
          "time": 36.545418,
          "velocity": 1
        },
        {
          "duration": 0.13409077500000421,
          "durationTicks": 59,
          "midi": 42,
          "name": "F#2",
          "ticks": 16140,
          "time": 36.6817815,
          "velocity": 0.7874015748031497
        },
        {
          "duration": 0.1340907749999971,
          "durationTicks": 59,
          "midi": 42,
          "name": "F#2",
          "ticks": 16200,
          "time": 36.818145,
          "velocity": 0.7874015748031497
        },
        {
          "duration": 0.1340907749999971,
          "durationTicks": 59,
          "midi": 42,
          "name": "F#2",
          "ticks": 16260,
          "time": 36.9545085,
          "velocity": 0.7874015748031497
        },
        {
          "duration": 0.13409077500000421,
          "durationTicks": 59,
          "midi": 42,
          "name": "F#2",
          "ticks": 16320,
          "time": 37.090872,
          "velocity": 0.9448818897637795
        },
        {
          "duration": 0.13409077500000421,
          "durationTicks": 59,
          "midi": 42,
          "name": "F#2",
          "ticks": 16380,
          "time": 37.2272355,
          "velocity": 0.7874015748031497
        },
        {
          "duration": 0.13636350000000164,
          "durationTicks": 60,
          "midi": 46,
          "name": "A#2",
          "ticks": 16440,
          "time": 37.363599,
          "velocity": 0.8661417322834646
        },
        {
          "duration": 0.1340907749999971,
          "durationTicks": 59,
          "midi": 42,
          "name": "F#2",
          "ticks": 16500,
          "time": 37.4999625,
          "velocity": 0.7874015748031497
        },
        {
          "duration": 0.13409077500000421,
          "durationTicks": 59,
          "midi": 42,
          "name": "F#2",
          "ticks": 16560,
          "time": 37.636326,
          "velocity": 0.7874015748031497
        },
        {
          "duration": 0.13409077500000421,
          "durationTicks": 59,
          "midi": 42,
          "name": "F#2",
          "ticks": 16620,
          "time": 37.7726895,
          "velocity": 0.7874015748031497
        },
        {
          "duration": 0.13409077500000421,
          "durationTicks": 59,
          "midi": 42,
          "name": "F#2",
          "ticks": 16680,
          "time": 37.909053,
          "velocity": 0.7874015748031497
        },
        {
          "duration": 0.1340907749999971,
          "durationTicks": 59,
          "midi": 42,
          "name": "F#2",
          "ticks": 16740,
          "time": 38.0454165,
          "velocity": 0.7874015748031497
        },
        {
          "duration": 0.13409077500000421,
          "durationTicks": 59,
          "midi": 42,
          "name": "F#2",
          "ticks": 16800,
          "time": 38.181779999999996,
          "velocity": 0.9448818897637795
        },
        {
          "duration": 0.13409077500000421,
          "durationTicks": 59,
          "midi": 42,
          "name": "F#2",
          "ticks": 16860,
          "time": 38.3181435,
          "velocity": 0.7874015748031497
        },
        {
          "duration": 0.13409077500000421,
          "durationTicks": 59,
          "midi": 42,
          "name": "F#2",
          "ticks": 16920,
          "time": 38.454507,
          "velocity": 0.7874015748031497
        },
        {
          "duration": 0.1340907749999971,
          "durationTicks": 59,
          "midi": 42,
          "name": "F#2",
          "ticks": 16980,
          "time": 38.5908705,
          "velocity": 0.7874015748031497
        },
        {
          "duration": 0.1340907749999971,
          "durationTicks": 59,
          "midi": 42,
          "name": "F#2",
          "ticks": 17040,
          "time": 38.727234,
          "velocity": 1
        },
        {
          "duration": 0.13409077500000421,
          "durationTicks": 59,
          "midi": 42,
          "name": "F#2",
          "ticks": 17100,
          "time": 38.8635975,
          "velocity": 0.7874015748031497
        },
        {
          "duration": 0.13409077500000421,
          "durationTicks": 59,
          "midi": 42,
          "name": "F#2",
          "ticks": 17160,
          "time": 38.999961,
          "velocity": 0.7874015748031497
        },
        {
          "duration": 0.13409077500000421,
          "durationTicks": 59,
          "midi": 42,
          "name": "F#2",
          "ticks": 17220,
          "time": 39.1363245,
          "velocity": 0.7874015748031497
        },
        {
          "duration": 0.1340907749999971,
          "durationTicks": 59,
          "midi": 42,
          "name": "F#2",
          "ticks": 17280,
          "time": 39.272688,
          "velocity": 0.9448818897637795
        },
        {
          "duration": 0.13409077500000421,
          "durationTicks": 59,
          "midi": 42,
          "name": "F#2",
          "ticks": 17340,
          "time": 39.4090515,
          "velocity": 0.7874015748031497
        },
        {
          "duration": 0.13409077500000421,
          "durationTicks": 59,
          "midi": 42,
          "name": "F#2",
          "ticks": 17400,
          "time": 39.545415,
          "velocity": 0.7874015748031497
        },
        {
          "duration": 0.13409077500000421,
          "durationTicks": 59,
          "midi": 42,
          "name": "F#2",
          "ticks": 17460,
          "time": 39.6817785,
          "velocity": 0.7874015748031497
        },
        {
          "duration": 0.1340907749999971,
          "durationTicks": 59,
          "midi": 42,
          "name": "F#2",
          "ticks": 17520,
          "time": 39.818142,
          "velocity": 0.7874015748031497
        },
        {
          "duration": 0.13409077500000421,
          "durationTicks": 59,
          "midi": 42,
          "name": "F#2",
          "ticks": 17580,
          "time": 39.954505499999996,
          "velocity": 0.7874015748031497
        },
        {
          "duration": 0.13409077500000421,
          "durationTicks": 59,
          "midi": 42,
          "name": "F#2",
          "ticks": 17640,
          "time": 40.090869,
          "velocity": 0.7874015748031497
        },
        {
          "duration": 0.13409077500000421,
          "durationTicks": 59,
          "midi": 42,
          "name": "F#2",
          "ticks": 17700,
          "time": 40.2272325,
          "velocity": 0.7874015748031497
        },
        {
          "duration": 0.1340907749999971,
          "durationTicks": 59,
          "midi": 42,
          "name": "F#2",
          "ticks": 17760,
          "time": 40.363596,
          "velocity": 1
        },
        {
          "duration": 0.1340907749999971,
          "durationTicks": 59,
          "midi": 42,
          "name": "F#2",
          "ticks": 17820,
          "time": 40.4999595,
          "velocity": 0.7874015748031497
        },
        {
          "duration": 0.13409077500000421,
          "durationTicks": 59,
          "midi": 42,
          "name": "F#2",
          "ticks": 17880,
          "time": 40.636323,
          "velocity": 0.7874015748031497
        },
        {
          "duration": 0.13409077500000421,
          "durationTicks": 59,
          "midi": 42,
          "name": "F#2",
          "ticks": 17940,
          "time": 40.7726865,
          "velocity": 0.7874015748031497
        },
        {
          "duration": 0.13409077500000421,
          "durationTicks": 59,
          "midi": 42,
          "name": "F#2",
          "ticks": 18000,
          "time": 40.90905,
          "velocity": 1
        },
        {
          "duration": 0.1340907749999971,
          "durationTicks": 59,
          "midi": 42,
          "name": "F#2",
          "ticks": 18060,
          "time": 41.0454135,
          "velocity": 0.7874015748031497
        },
        {
          "duration": 0.13409077500000421,
          "durationTicks": 59,
          "midi": 42,
          "name": "F#2",
          "ticks": 18120,
          "time": 41.181777,
          "velocity": 0.7874015748031497
        },
        {
          "duration": 0.13409077500000421,
          "durationTicks": 59,
          "midi": 42,
          "name": "F#2",
          "ticks": 18180,
          "time": 41.3181405,
          "velocity": 0.7874015748031497
        },
        {
          "duration": 0.13409077500000421,
          "durationTicks": 59,
          "midi": 42,
          "name": "F#2",
          "ticks": 18240,
          "time": 41.454504,
          "velocity": 0.9448818897637795
        },
        {
          "duration": 0.1340907749999971,
          "durationTicks": 59,
          "midi": 42,
          "name": "F#2",
          "ticks": 18300,
          "time": 41.5908675,
          "velocity": 0.7874015748031497
        },
        {
          "duration": 0.13636350000000164,
          "durationTicks": 60,
          "midi": 46,
          "name": "A#2",
          "ticks": 18360,
          "time": 41.727230999999996,
          "velocity": 0.8661417322834646
        },
        {
          "duration": 0.13409077500000421,
          "durationTicks": 59,
          "midi": 42,
          "name": "F#2",
          "ticks": 18420,
          "time": 41.8635945,
          "velocity": 0.7874015748031497
        },
        {
          "duration": 0.13409077500000421,
          "durationTicks": 59,
          "midi": 42,
          "name": "F#2",
          "ticks": 18480,
          "time": 41.999958,
          "velocity": 0.7874015748031497
        },
        {
          "duration": 0.1340907749999971,
          "durationTicks": 59,
          "midi": 42,
          "name": "F#2",
          "ticks": 18540,
          "time": 42.1363215,
          "velocity": 0.7874015748031497
        },
        {
          "duration": 0.1340907749999971,
          "durationTicks": 59,
          "midi": 42,
          "name": "F#2",
          "ticks": 18600,
          "time": 42.272685,
          "velocity": 0.7874015748031497
        },
        {
          "duration": 0.13409077500000421,
          "durationTicks": 59,
          "midi": 42,
          "name": "F#2",
          "ticks": 18660,
          "time": 42.4090485,
          "velocity": 0.7874015748031497
        },
        {
          "duration": 0.13409077500000421,
          "durationTicks": 59,
          "midi": 42,
          "name": "F#2",
          "ticks": 18720,
          "time": 42.545412,
          "velocity": 0.9448818897637795
        },
        {
          "duration": 0.13409077500000421,
          "durationTicks": 59,
          "midi": 42,
          "name": "F#2",
          "ticks": 18780,
          "time": 42.6817755,
          "velocity": 0.7874015748031497
        },
        {
          "duration": 0.1340907749999971,
          "durationTicks": 59,
          "midi": 42,
          "name": "F#2",
          "ticks": 18840,
          "time": 42.818139,
          "velocity": 0.7874015748031497
        },
        {
          "duration": 0.13409077500000421,
          "durationTicks": 59,
          "midi": 42,
          "name": "F#2",
          "ticks": 18900,
          "time": 42.9545025,
          "velocity": 0.7874015748031497
        },
        {
          "duration": 0.13409077500000421,
          "durationTicks": 59,
          "midi": 42,
          "name": "F#2",
          "ticks": 18960,
          "time": 43.090866,
          "velocity": 1
        },
        {
          "duration": 0.13409077500000421,
          "durationTicks": 59,
          "midi": 42,
          "name": "F#2",
          "ticks": 19020,
          "time": 43.2272295,
          "velocity": 0.7874015748031497
        },
        {
          "duration": 0.1340907749999971,
          "durationTicks": 59,
          "midi": 42,
          "name": "F#2",
          "ticks": 19080,
          "time": 43.363593,
          "velocity": 0.7874015748031497
        },
        {
          "duration": 0.13409077500000421,
          "durationTicks": 59,
          "midi": 42,
          "name": "F#2",
          "ticks": 19140,
          "time": 43.499956499999996,
          "velocity": 0.7874015748031497
        },
        {
          "duration": 0.13409077500000421,
          "durationTicks": 59,
          "midi": 42,
          "name": "F#2",
          "ticks": 19200,
          "time": 43.63632,
          "velocity": 0.9448818897637795
        },
        {
          "duration": 0.13409077500000421,
          "durationTicks": 59,
          "midi": 42,
          "name": "F#2",
          "ticks": 19260,
          "time": 43.7726835,
          "velocity": 0.7874015748031497
        },
        {
          "duration": 0.1340907749999971,
          "durationTicks": 59,
          "midi": 42,
          "name": "F#2",
          "ticks": 19320,
          "time": 43.909047,
          "velocity": 0.7874015748031497
        },
        {
          "duration": 0.1340907749999971,
          "durationTicks": 59,
          "midi": 42,
          "name": "F#2",
          "ticks": 19380,
          "time": 44.0454105,
          "velocity": 0.7874015748031497
        },
        {
          "duration": 0.13409077500000421,
          "durationTicks": 59,
          "midi": 42,
          "name": "F#2",
          "ticks": 19440,
          "time": 44.181774,
          "velocity": 0.7874015748031497
        },
        {
          "duration": 0.13409077500000421,
          "durationTicks": 59,
          "midi": 42,
          "name": "F#2",
          "ticks": 19500,
          "time": 44.3181375,
          "velocity": 0.7874015748031497
        },
        {
          "duration": 0.13409077500000421,
          "durationTicks": 59,
          "midi": 42,
          "name": "F#2",
          "ticks": 19560,
          "time": 44.454501,
          "velocity": 0.7874015748031497
        },
        {
          "duration": 0.1340907749999971,
          "durationTicks": 59,
          "midi": 42,
          "name": "F#2",
          "ticks": 19620,
          "time": 44.5908645,
          "velocity": 0.7874015748031497
        },
        {
          "duration": 0.13409077500000421,
          "durationTicks": 59,
          "midi": 42,
          "name": "F#2",
          "ticks": 19680,
          "time": 44.727228,
          "velocity": 1
        },
        {
          "duration": 0.13409077500000421,
          "durationTicks": 59,
          "midi": 42,
          "name": "F#2",
          "ticks": 19740,
          "time": 44.8635915,
          "velocity": 0.7874015748031497
        },
        {
          "duration": 0.13409077500000421,
          "durationTicks": 59,
          "midi": 42,
          "name": "F#2",
          "ticks": 19800,
          "time": 44.999955,
          "velocity": 0.7874015748031497
        },
        {
          "duration": 0.1340907749999971,
          "durationTicks": 59,
          "midi": 42,
          "name": "F#2",
          "ticks": 19860,
          "time": 45.1363185,
          "velocity": 0.7874015748031497
        },
        {
          "duration": 0.13409077500000421,
          "durationTicks": 59,
          "midi": 42,
          "name": "F#2",
          "ticks": 19920,
          "time": 45.272681999999996,
          "velocity": 1
        },
        {
          "duration": 0.13409077500000421,
          "durationTicks": 59,
          "midi": 42,
          "name": "F#2",
          "ticks": 19980,
          "time": 45.4090455,
          "velocity": 0.7874015748031497
        },
        {
          "duration": 0.13409077500000421,
          "durationTicks": 59,
          "midi": 42,
          "name": "F#2",
          "ticks": 20040,
          "time": 45.545409,
          "velocity": 0.7874015748031497
        },
        {
          "duration": 0.1340907749999971,
          "durationTicks": 59,
          "midi": 42,
          "name": "F#2",
          "ticks": 20100,
          "time": 45.6817725,
          "velocity": 0.7874015748031497
        },
        {
          "duration": 0.1340907749999971,
          "durationTicks": 59,
          "midi": 42,
          "name": "F#2",
          "ticks": 20160,
          "time": 45.818136,
          "velocity": 0.9448818897637795
        },
        {
          "duration": 0.13409077500000421,
          "durationTicks": 59,
          "midi": 42,
          "name": "F#2",
          "ticks": 20220,
          "time": 45.9544995,
          "velocity": 0.7874015748031497
        },
        {
          "duration": 0.13636350000000164,
          "durationTicks": 60,
          "midi": 46,
          "name": "A#2",
          "ticks": 20280,
          "time": 46.090863,
          "velocity": 0.8661417322834646
        },
        {
          "duration": 0.13409077500000421,
          "durationTicks": 59,
          "midi": 42,
          "name": "F#2",
          "ticks": 20340,
          "time": 46.2272265,
          "velocity": 0.7874015748031497
        },
        {
          "duration": 0.1340907749999971,
          "durationTicks": 59,
          "midi": 42,
          "name": "F#2",
          "ticks": 20400,
          "time": 46.36359,
          "velocity": 0.7874015748031497
        },
        {
          "duration": 0.13409077500000421,
          "durationTicks": 59,
          "midi": 42,
          "name": "F#2",
          "ticks": 20460,
          "time": 46.4999535,
          "velocity": 0.7874015748031497
        },
        {
          "duration": 0.13409077500000421,
          "durationTicks": 59,
          "midi": 42,
          "name": "F#2",
          "ticks": 20520,
          "time": 46.636317,
          "velocity": 0.7874015748031497
        },
        {
          "duration": 0.13409077500000421,
          "durationTicks": 59,
          "midi": 42,
          "name": "F#2",
          "ticks": 20580,
          "time": 46.7726805,
          "velocity": 0.7874015748031497
        },
        {
          "duration": 0.1340907749999971,
          "durationTicks": 59,
          "midi": 42,
          "name": "F#2",
          "ticks": 20640,
          "time": 46.909044,
          "velocity": 1
        },
        {
          "duration": 0.13409077500000421,
          "durationTicks": 59,
          "midi": 42,
          "name": "F#2",
          "ticks": 20700,
          "time": 47.045407499999996,
          "velocity": 0.7874015748031497
        },
        {
          "duration": 0.13409077500000421,
          "durationTicks": 59,
          "midi": 42,
          "name": "F#2",
          "ticks": 20760,
          "time": 47.181771,
          "velocity": 0.7874015748031497
        },
        {
          "duration": 0.13409077500000421,
          "durationTicks": 59,
          "midi": 42,
          "name": "F#2",
          "ticks": 20820,
          "time": 47.3181345,
          "velocity": 0.7874015748031497
        },
        {
          "duration": 0.1340907749999971,
          "durationTicks": 59,
          "midi": 42,
          "name": "F#2",
          "ticks": 20880,
          "time": 47.454498,
          "velocity": 1
        },
        {
          "duration": 0.1340907749999971,
          "durationTicks": 59,
          "midi": 42,
          "name": "F#2",
          "ticks": 20940,
          "time": 47.5908615,
          "velocity": 0.7874015748031497
        },
        {
          "duration": 0.13409077500000421,
          "durationTicks": 59,
          "midi": 42,
          "name": "F#2",
          "ticks": 21000,
          "time": 47.727225,
          "velocity": 0.7874015748031497
        },
        {
          "duration": 0.13409077500000421,
          "durationTicks": 59,
          "midi": 42,
          "name": "F#2",
          "ticks": 21060,
          "time": 47.8635885,
          "velocity": 0.7874015748031497
        },
        {
          "duration": 0.12954532499999516,
          "durationTicks": 57,
          "midi": 42,
          "name": "F#2",
          "ticks": 21120,
          "time": 47.999952,
          "velocity": 0.7874015748031497
        },
        {
          "duration": 0.13409077500000421,
          "durationTicks": 59,
          "midi": 42,
          "name": "F#2",
          "ticks": 25440,
          "time": 57.818124,
          "velocity": 1
        },
        {
          "duration": 0.13409077500000421,
          "durationTicks": 59,
          "midi": 42,
          "name": "F#2",
          "ticks": 25500,
          "time": 57.9544875,
          "velocity": 0.7874015748031497
        },
        {
          "duration": 0.13409077500000421,
          "durationTicks": 59,
          "midi": 42,
          "name": "F#2",
          "ticks": 25560,
          "time": 58.090851,
          "velocity": 0.7874015748031497
        },
        {
          "duration": 0.1340907749999971,
          "durationTicks": 59,
          "midi": 42,
          "name": "F#2",
          "ticks": 25620,
          "time": 58.2272145,
          "velocity": 0.7874015748031497
        },
        {
          "duration": 0.13409077500000421,
          "durationTicks": 59,
          "midi": 42,
          "name": "F#2",
          "ticks": 25680,
          "time": 58.363578,
          "velocity": 1
        },
        {
          "duration": 0.13409077500000421,
          "durationTicks": 59,
          "midi": 42,
          "name": "F#2",
          "ticks": 25740,
          "time": 58.4999415,
          "velocity": 0.7874015748031497
        },
        {
          "duration": 0.13409077500000421,
          "durationTicks": 59,
          "midi": 42,
          "name": "F#2",
          "ticks": 25800,
          "time": 58.636305,
          "velocity": 0.7874015748031497
        },
        {
          "duration": 0.1340907749999971,
          "durationTicks": 59,
          "midi": 42,
          "name": "F#2",
          "ticks": 25860,
          "time": 58.7726685,
          "velocity": 0.7874015748031497
        },
        {
          "duration": 0.13409077500000421,
          "durationTicks": 59,
          "midi": 42,
          "name": "F#2",
          "ticks": 25920,
          "time": 58.909031999999996,
          "velocity": 0.9448818897637795
        },
        {
          "duration": 0.13409077500000421,
          "durationTicks": 59,
          "midi": 42,
          "name": "F#2",
          "ticks": 25980,
          "time": 59.0453955,
          "velocity": 0.7874015748031497
        },
        {
          "duration": 0.13636350000000164,
          "durationTicks": 60,
          "midi": 46,
          "name": "A#2",
          "ticks": 26040,
          "time": 59.181759,
          "velocity": 0.8661417322834646
        },
        {
          "duration": 0.1340907749999971,
          "durationTicks": 59,
          "midi": 42,
          "name": "F#2",
          "ticks": 26100,
          "time": 59.3181225,
          "velocity": 0.7874015748031497
        },
        {
          "duration": 0.1340907749999971,
          "durationTicks": 59,
          "midi": 42,
          "name": "F#2",
          "ticks": 26160,
          "time": 59.454486,
          "velocity": 0.7874015748031497
        },
        {
          "duration": 0.13409077500000421,
          "durationTicks": 59,
          "midi": 42,
          "name": "F#2",
          "ticks": 26220,
          "time": 59.5908495,
          "velocity": 0.7874015748031497
        },
        {
          "duration": 0.13409077500000421,
          "durationTicks": 59,
          "midi": 42,
          "name": "F#2",
          "ticks": 26280,
          "time": 59.727213,
          "velocity": 0.7874015748031497
        },
        {
          "duration": 0.13409077500000421,
          "durationTicks": 59,
          "midi": 42,
          "name": "F#2",
          "ticks": 26340,
          "time": 59.8635765,
          "velocity": 0.7874015748031497
        },
        {
          "duration": 0.1340907749999971,
          "durationTicks": 59,
          "midi": 42,
          "name": "F#2",
          "ticks": 26400,
          "time": 59.99994,
          "velocity": 0.9448818897637795
        },
        {
          "duration": 0.13409077500000421,
          "durationTicks": 59,
          "midi": 42,
          "name": "F#2",
          "ticks": 26460,
          "time": 60.1363035,
          "velocity": 0.7874015748031497
        },
        {
          "duration": 0.13409077500000421,
          "durationTicks": 59,
          "midi": 42,
          "name": "F#2",
          "ticks": 26520,
          "time": 60.272667,
          "velocity": 0.7874015748031497
        },
        {
          "duration": 0.13409077500000421,
          "durationTicks": 59,
          "midi": 42,
          "name": "F#2",
          "ticks": 26580,
          "time": 60.4090305,
          "velocity": 0.7874015748031497
        },
        {
          "duration": 0.1340907749999971,
          "durationTicks": 59,
          "midi": 42,
          "name": "F#2",
          "ticks": 26640,
          "time": 60.545394,
          "velocity": 1
        },
        {
          "duration": 0.13409077500000421,
          "durationTicks": 59,
          "midi": 42,
          "name": "F#2",
          "ticks": 26700,
          "time": 60.681757499999996,
          "velocity": 0.7874015748031497
        },
        {
          "duration": 0.13409077500000421,
          "durationTicks": 59,
          "midi": 42,
          "name": "F#2",
          "ticks": 26760,
          "time": 60.818121,
          "velocity": 0.7874015748031497
        },
        {
          "duration": 0.13409077500000421,
          "durationTicks": 59,
          "midi": 42,
          "name": "F#2",
          "ticks": 26820,
          "time": 60.9544845,
          "velocity": 0.7874015748031497
        },
        {
          "duration": 0.1340907749999971,
          "durationTicks": 59,
          "midi": 42,
          "name": "F#2",
          "ticks": 26880,
          "time": 61.090848,
          "velocity": 0.9448818897637795
        },
        {
          "duration": 0.1340907749999971,
          "durationTicks": 59,
          "midi": 42,
          "name": "F#2",
          "ticks": 26940,
          "time": 61.2272115,
          "velocity": 0.7874015748031497
        },
        {
          "duration": 0.13409077500000421,
          "durationTicks": 59,
          "midi": 42,
          "name": "F#2",
          "ticks": 27000,
          "time": 61.363575,
          "velocity": 0.7874015748031497
        },
        {
          "duration": 0.13409077500000421,
          "durationTicks": 59,
          "midi": 42,
          "name": "F#2",
          "ticks": 27060,
          "time": 61.4999385,
          "velocity": 0.7874015748031497
        },
        {
          "duration": 0.13409077500000421,
          "durationTicks": 59,
          "midi": 42,
          "name": "F#2",
          "ticks": 27120,
          "time": 61.636302,
          "velocity": 0.7874015748031497
        },
        {
          "duration": 0.1340907749999971,
          "durationTicks": 59,
          "midi": 42,
          "name": "F#2",
          "ticks": 27180,
          "time": 61.7726655,
          "velocity": 0.7874015748031497
        },
        {
          "duration": 0.13409077500000421,
          "durationTicks": 59,
          "midi": 42,
          "name": "F#2",
          "ticks": 27240,
          "time": 61.909029,
          "velocity": 0.7874015748031497
        },
        {
          "duration": 0.13409077500000421,
          "durationTicks": 59,
          "midi": 42,
          "name": "F#2",
          "ticks": 27300,
          "time": 62.0453925,
          "velocity": 0.7874015748031497
        },
        {
          "duration": 0.13409077500000421,
          "durationTicks": 59,
          "midi": 42,
          "name": "F#2",
          "ticks": 27360,
          "time": 62.181756,
          "velocity": 1
        },
        {
          "duration": 0.1340907749999971,
          "durationTicks": 59,
          "midi": 42,
          "name": "F#2",
          "ticks": 27420,
          "time": 62.3181195,
          "velocity": 0.7874015748031497
        },
        {
          "duration": 0.13409077500000421,
          "durationTicks": 59,
          "midi": 42,
          "name": "F#2",
          "ticks": 27480,
          "time": 62.454482999999996,
          "velocity": 0.7874015748031497
        },
        {
          "duration": 0.13409077500000421,
          "durationTicks": 59,
          "midi": 42,
          "name": "F#2",
          "ticks": 27540,
          "time": 62.5908465,
          "velocity": 0.7874015748031497
        },
        {
          "duration": 0.13409077500000421,
          "durationTicks": 59,
          "midi": 42,
          "name": "F#2",
          "ticks": 27600,
          "time": 62.72721,
          "velocity": 1
        },
        {
          "duration": 0.1340907749999971,
          "durationTicks": 59,
          "midi": 42,
          "name": "F#2",
          "ticks": 27660,
          "time": 62.8635735,
          "velocity": 0.7874015748031497
        },
        {
          "duration": 0.1340907749999971,
          "durationTicks": 59,
          "midi": 42,
          "name": "F#2",
          "ticks": 27720,
          "time": 62.999937,
          "velocity": 0.7874015748031497
        },
        {
          "duration": 0.13409077500000421,
          "durationTicks": 59,
          "midi": 42,
          "name": "F#2",
          "ticks": 27780,
          "time": 63.1363005,
          "velocity": 0.7874015748031497
        },
        {
          "duration": 0.13409077500000421,
          "durationTicks": 59,
          "midi": 42,
          "name": "F#2",
          "ticks": 27840,
          "time": 63.272664,
          "velocity": 0.9448818897637795
        },
        {
          "duration": 0.13409077500000421,
          "durationTicks": 59,
          "midi": 42,
          "name": "F#2",
          "ticks": 27900,
          "time": 63.4090275,
          "velocity": 0.7874015748031497
        },
        {
          "duration": 0.13636349999999453,
          "durationTicks": 60,
          "midi": 46,
          "name": "A#2",
          "ticks": 27960,
          "time": 63.545391,
          "velocity": 0.8661417322834646
        },
        {
          "duration": 0.13409077500000421,
          "durationTicks": 59,
          "midi": 42,
          "name": "F#2",
          "ticks": 28020,
          "time": 63.6817545,
          "velocity": 0.7874015748031497
        },
        {
          "duration": 0.13409077500000421,
          "durationTicks": 59,
          "midi": 42,
          "name": "F#2",
          "ticks": 28080,
          "time": 63.818118,
          "velocity": 0.7874015748031497
        },
        {
          "duration": 0.13409077500000421,
          "durationTicks": 59,
          "midi": 42,
          "name": "F#2",
          "ticks": 28140,
          "time": 63.9544815,
          "velocity": 0.7874015748031497
        },
        {
          "duration": 0.13409077500000421,
          "durationTicks": 59,
          "midi": 42,
          "name": "F#2",
          "ticks": 28200,
          "time": 64.090845,
          "velocity": 0.7874015748031497
        },
        {
          "duration": 0.13409077500000421,
          "durationTicks": 59,
          "midi": 42,
          "name": "F#2",
          "ticks": 28260,
          "time": 64.2272085,
          "velocity": 0.7874015748031497
        },
        {
          "duration": 0.13409077499999,
          "durationTicks": 59,
          "midi": 42,
          "name": "F#2",
          "ticks": 28320,
          "time": 64.363572,
          "velocity": 0.9448818897637795
        },
        {
          "duration": 0.13409077500000421,
          "durationTicks": 59,
          "midi": 42,
          "name": "F#2",
          "ticks": 28380,
          "time": 64.49993549999999,
          "velocity": 0.7874015748031497
        },
        {
          "duration": 0.13409077500000421,
          "durationTicks": 59,
          "midi": 42,
          "name": "F#2",
          "ticks": 28440,
          "time": 64.636299,
          "velocity": 0.7874015748031497
        },
        {
          "duration": 0.13409077500000421,
          "durationTicks": 59,
          "midi": 42,
          "name": "F#2",
          "ticks": 28500,
          "time": 64.7726625,
          "velocity": 0.7874015748031497
        },
        {
          "duration": 0.13409077500000421,
          "durationTicks": 59,
          "midi": 42,
          "name": "F#2",
          "ticks": 28560,
          "time": 64.909026,
          "velocity": 1
        },
        {
          "duration": 0.13409077500000421,
          "durationTicks": 59,
          "midi": 42,
          "name": "F#2",
          "ticks": 28620,
          "time": 65.0453895,
          "velocity": 0.7874015748031497
        },
        {
          "duration": 0.13409077500000421,
          "durationTicks": 59,
          "midi": 42,
          "name": "F#2",
          "ticks": 28680,
          "time": 65.181753,
          "velocity": 0.7874015748031497
        },
        {
          "duration": 0.13409077500000421,
          "durationTicks": 59,
          "midi": 42,
          "name": "F#2",
          "ticks": 28740,
          "time": 65.3181165,
          "velocity": 0.7874015748031497
        },
        {
          "duration": 0.13409077500000421,
          "durationTicks": 59,
          "midi": 42,
          "name": "F#2",
          "ticks": 28800,
          "time": 65.45448,
          "velocity": 0.9448818897637795
        },
        {
          "duration": 0.13409077499999,
          "durationTicks": 59,
          "midi": 42,
          "name": "F#2",
          "ticks": 28860,
          "time": 65.5908435,
          "velocity": 0.7874015748031497
        },
        {
          "duration": 0.13409077500000421,
          "durationTicks": 59,
          "midi": 42,
          "name": "F#2",
          "ticks": 28920,
          "time": 65.72720699999999,
          "velocity": 0.7874015748031497
        },
        {
          "duration": 0.13409077500000421,
          "durationTicks": 59,
          "midi": 42,
          "name": "F#2",
          "ticks": 28980,
          "time": 65.8635705,
          "velocity": 0.7874015748031497
        },
        {
          "duration": 0.13409077500000421,
          "durationTicks": 59,
          "midi": 42,
          "name": "F#2",
          "ticks": 29040,
          "time": 65.999934,
          "velocity": 0.7874015748031497
        },
        {
          "duration": 0.13409077500000421,
          "durationTicks": 59,
          "midi": 42,
          "name": "F#2",
          "ticks": 29100,
          "time": 66.1362975,
          "velocity": 0.7874015748031497
        },
        {
          "duration": 0.13409077500000421,
          "durationTicks": 59,
          "midi": 42,
          "name": "F#2",
          "ticks": 29160,
          "time": 66.272661,
          "velocity": 0.7874015748031497
        },
        {
          "duration": 0.13409077500000421,
          "durationTicks": 59,
          "midi": 42,
          "name": "F#2",
          "ticks": 29220,
          "time": 66.4090245,
          "velocity": 0.7874015748031497
        },
        {
          "duration": 0.13409077500000421,
          "durationTicks": 59,
          "midi": 42,
          "name": "F#2",
          "ticks": 29280,
          "time": 66.545388,
          "velocity": 1
        },
        {
          "duration": 0.13409077499999,
          "durationTicks": 59,
          "midi": 42,
          "name": "F#2",
          "ticks": 29340,
          "time": 66.6817515,
          "velocity": 0.7874015748031497
        },
        {
          "duration": 0.13409077499999,
          "durationTicks": 59,
          "midi": 42,
          "name": "F#2",
          "ticks": 29400,
          "time": 66.818115,
          "velocity": 0.7874015748031497
        },
        {
          "duration": 0.13409077500000421,
          "durationTicks": 59,
          "midi": 42,
          "name": "F#2",
          "ticks": 29460,
          "time": 66.9544785,
          "velocity": 0.7874015748031497
        },
        {
          "duration": 0.13409077500000421,
          "durationTicks": 59,
          "midi": 42,
          "name": "F#2",
          "ticks": 29520,
          "time": 67.090842,
          "velocity": 1
        },
        {
          "duration": 0.13409077500000421,
          "durationTicks": 59,
          "midi": 42,
          "name": "F#2",
          "ticks": 29580,
          "time": 67.2272055,
          "velocity": 0.7874015748031497
        },
        {
          "duration": 0.13409077500000421,
          "durationTicks": 59,
          "midi": 42,
          "name": "F#2",
          "ticks": 29640,
          "time": 67.363569,
          "velocity": 0.7874015748031497
        },
        {
          "duration": 0.13409077500000421,
          "durationTicks": 59,
          "midi": 42,
          "name": "F#2",
          "ticks": 29700,
          "time": 67.4999325,
          "velocity": 0.7874015748031497
        },
        {
          "duration": 0.13409077500000421,
          "durationTicks": 59,
          "midi": 42,
          "name": "F#2",
          "ticks": 29760,
          "time": 67.636296,
          "velocity": 0.9448818897637795
        },
        {
          "duration": 0.13409077500000421,
          "durationTicks": 59,
          "midi": 42,
          "name": "F#2",
          "ticks": 29820,
          "time": 67.7726595,
          "velocity": 0.7874015748031497
        },
        {
          "duration": 0.13636349999998743,
          "durationTicks": 60,
          "midi": 46,
          "name": "A#2",
          "ticks": 29880,
          "time": 67.909023,
          "velocity": 0.8661417322834646
        },
        {
          "duration": 0.13409077500000421,
          "durationTicks": 59,
          "midi": 42,
          "name": "F#2",
          "ticks": 29940,
          "time": 68.04538649999999,
          "velocity": 0.7874015748031497
        },
        {
          "duration": 0.13409077500000421,
          "durationTicks": 59,
          "midi": 42,
          "name": "F#2",
          "ticks": 30000,
          "time": 68.18175,
          "velocity": 0.7874015748031497
        },
        {
          "duration": 0.13409077500000421,
          "durationTicks": 59,
          "midi": 42,
          "name": "F#2",
          "ticks": 30060,
          "time": 68.3181135,
          "velocity": 0.7874015748031497
        },
        {
          "duration": 0.13409077500000421,
          "durationTicks": 59,
          "midi": 42,
          "name": "F#2",
          "ticks": 30120,
          "time": 68.454477,
          "velocity": 0.7874015748031497
        },
        {
          "duration": 0.13409077500000421,
          "durationTicks": 59,
          "midi": 42,
          "name": "F#2",
          "ticks": 30180,
          "time": 68.5908405,
          "velocity": 0.7874015748031497
        },
        {
          "duration": 0.13409077500000421,
          "durationTicks": 59,
          "midi": 42,
          "name": "F#2",
          "ticks": 30240,
          "time": 68.727204,
          "velocity": 0.9448818897637795
        },
        {
          "duration": 0.13409077500000421,
          "durationTicks": 59,
          "midi": 42,
          "name": "F#2",
          "ticks": 30300,
          "time": 68.8635675,
          "velocity": 0.7874015748031497
        },
        {
          "duration": 0.13409077500000421,
          "durationTicks": 59,
          "midi": 42,
          "name": "F#2",
          "ticks": 30360,
          "time": 68.999931,
          "velocity": 0.7874015748031497
        },
        {
          "duration": 0.13409077499999,
          "durationTicks": 59,
          "midi": 42,
          "name": "F#2",
          "ticks": 30420,
          "time": 69.1362945,
          "velocity": 0.7874015748031497
        },
        {
          "duration": 0.13409077500000421,
          "durationTicks": 59,
          "midi": 42,
          "name": "F#2",
          "ticks": 30480,
          "time": 69.27265799999999,
          "velocity": 1
        },
        {
          "duration": 0.13409077500000421,
          "durationTicks": 59,
          "midi": 42,
          "name": "F#2",
          "ticks": 30540,
          "time": 69.4090215,
          "velocity": 0.7874015748031497
        },
        {
          "duration": 0.13409077500000421,
          "durationTicks": 59,
          "midi": 42,
          "name": "F#2",
          "ticks": 30600,
          "time": 69.545385,
          "velocity": 0.7874015748031497
        },
        {
          "duration": 0.13409077500000421,
          "durationTicks": 59,
          "midi": 42,
          "name": "F#2",
          "ticks": 30660,
          "time": 69.6817485,
          "velocity": 0.7874015748031497
        },
        {
          "duration": 0.13409077500000421,
          "durationTicks": 59,
          "midi": 42,
          "name": "F#2",
          "ticks": 30720,
          "time": 69.818112,
          "velocity": 0.9448818897637795
        },
        {
          "duration": 0.13409077500000421,
          "durationTicks": 59,
          "midi": 42,
          "name": "F#2",
          "ticks": 30780,
          "time": 69.9544755,
          "velocity": 0.7874015748031497
        },
        {
          "duration": 0.13409077500000421,
          "durationTicks": 59,
          "midi": 42,
          "name": "F#2",
          "ticks": 30840,
          "time": 70.090839,
          "velocity": 0.7874015748031497
        },
        {
          "duration": 0.13409077500000421,
          "durationTicks": 59,
          "midi": 42,
          "name": "F#2",
          "ticks": 30900,
          "time": 70.2272025,
          "velocity": 0.7874015748031497
        },
        {
          "duration": 0.13409077499999,
          "durationTicks": 59,
          "midi": 42,
          "name": "F#2",
          "ticks": 30960,
          "time": 70.363566,
          "velocity": 0.7874015748031497
        },
        {
          "duration": 0.13409077500000421,
          "durationTicks": 59,
          "midi": 42,
          "name": "F#2",
          "ticks": 31020,
          "time": 70.4999295,
          "velocity": 0.7874015748031497
        },
        {
          "duration": 0.13409077500000421,
          "durationTicks": 59,
          "midi": 42,
          "name": "F#2",
          "ticks": 31080,
          "time": 70.636293,
          "velocity": 0.7874015748031497
        },
        {
          "duration": 0.13409077500000421,
          "durationTicks": 59,
          "midi": 42,
          "name": "F#2",
          "ticks": 31140,
          "time": 70.7726565,
          "velocity": 0.7874015748031497
        },
        {
          "duration": 0.13409077500000421,
          "durationTicks": 59,
          "midi": 42,
          "name": "F#2",
          "ticks": 31200,
          "time": 70.90902,
          "velocity": 1
        },
        {
          "duration": 0.13409077500000421,
          "durationTicks": 59,
          "midi": 42,
          "name": "F#2",
          "ticks": 31260,
          "time": 71.0453835,
          "velocity": 0.7874015748031497
        },
        {
          "duration": 0.13409077500000421,
          "durationTicks": 59,
          "midi": 42,
          "name": "F#2",
          "ticks": 31320,
          "time": 71.181747,
          "velocity": 0.7874015748031497
        },
        {
          "duration": 0.13409077500000421,
          "durationTicks": 59,
          "midi": 42,
          "name": "F#2",
          "ticks": 31380,
          "time": 71.3181105,
          "velocity": 0.7874015748031497
        },
        {
          "duration": 0.13409077499999,
          "durationTicks": 59,
          "midi": 42,
          "name": "F#2",
          "ticks": 31440,
          "time": 71.454474,
          "velocity": 1
        },
        {
          "duration": 0.13409077499999,
          "durationTicks": 59,
          "midi": 42,
          "name": "F#2",
          "ticks": 31500,
          "time": 71.5908375,
          "velocity": 0.7874015748031497
        },
        {
          "duration": 0.13409077500000421,
          "durationTicks": 59,
          "midi": 42,
          "name": "F#2",
          "ticks": 31560,
          "time": 71.727201,
          "velocity": 0.7874015748031497
        },
        {
          "duration": 0.13409077500000421,
          "durationTicks": 59,
          "midi": 42,
          "name": "F#2",
          "ticks": 31620,
          "time": 71.8635645,
          "velocity": 0.7874015748031497
        },
        {
          "duration": 0.13409077500000421,
          "durationTicks": 59,
          "midi": 42,
          "name": "F#2",
          "ticks": 31680,
          "time": 71.999928,
          "velocity": 0.9448818897637795
        },
        {
          "duration": 0.13409077500000421,
          "durationTicks": 59,
          "midi": 42,
          "name": "F#2",
          "ticks": 31740,
          "time": 72.1362915,
          "velocity": 0.7874015748031497
        },
        {
          "duration": 0.13636350000000164,
          "durationTicks": 60,
          "midi": 46,
          "name": "A#2",
          "ticks": 31800,
          "time": 72.272655,
          "velocity": 0.8661417322834646
        },
        {
          "duration": 0.13409077500000421,
          "durationTicks": 59,
          "midi": 42,
          "name": "F#2",
          "ticks": 31860,
          "time": 72.4090185,
          "velocity": 0.7874015748031497
        },
        {
          "duration": 0.13409077500000421,
          "durationTicks": 59,
          "midi": 42,
          "name": "F#2",
          "ticks": 31920,
          "time": 72.545382,
          "velocity": 0.7874015748031497
        },
        {
          "duration": 0.13409077499999,
          "durationTicks": 59,
          "midi": 42,
          "name": "F#2",
          "ticks": 31980,
          "time": 72.6817455,
          "velocity": 0.7874015748031497
        },
        {
          "duration": 0.13409077500000421,
          "durationTicks": 59,
          "midi": 42,
          "name": "F#2",
          "ticks": 32040,
          "time": 72.81810899999999,
          "velocity": 0.7874015748031497
        },
        {
          "duration": 0.13409077500000421,
          "durationTicks": 59,
          "midi": 42,
          "name": "F#2",
          "ticks": 32100,
          "time": 72.9544725,
          "velocity": 0.7874015748031497
        },
        {
          "duration": 0.13409077500000421,
          "durationTicks": 59,
          "midi": 42,
          "name": "F#2",
          "ticks": 32160,
          "time": 73.090836,
          "velocity": 0.9448818897637795
        },
        {
          "duration": 0.13409077500000421,
          "durationTicks": 59,
          "midi": 42,
          "name": "F#2",
          "ticks": 32220,
          "time": 73.2271995,
          "velocity": 0.7874015748031497
        },
        {
          "duration": 0.13409077500000421,
          "durationTicks": 59,
          "midi": 42,
          "name": "F#2",
          "ticks": 32280,
          "time": 73.363563,
          "velocity": 0.7874015748031497
        },
        {
          "duration": 0.13409077500000421,
          "durationTicks": 59,
          "midi": 42,
          "name": "F#2",
          "ticks": 32340,
          "time": 73.4999265,
          "velocity": 0.7874015748031497
        },
        {
          "duration": 0.13409077500000421,
          "durationTicks": 59,
          "midi": 42,
          "name": "F#2",
          "ticks": 32400,
          "time": 73.63629,
          "velocity": 1
        },
        {
          "duration": 0.13409077500000421,
          "durationTicks": 59,
          "midi": 42,
          "name": "F#2",
          "ticks": 32460,
          "time": 73.7726535,
          "velocity": 0.7874015748031497
        },
        {
          "duration": 0.13409077499999,
          "durationTicks": 59,
          "midi": 42,
          "name": "F#2",
          "ticks": 32520,
          "time": 73.909017,
          "velocity": 0.7874015748031497
        },
        {
          "duration": 0.13409077500000421,
          "durationTicks": 59,
          "midi": 42,
          "name": "F#2",
          "ticks": 32580,
          "time": 74.0453805,
          "velocity": 0.7874015748031497
        },
        {
          "duration": 0.13409077500000421,
          "durationTicks": 59,
          "midi": 42,
          "name": "F#2",
          "ticks": 32640,
          "time": 74.181744,
          "velocity": 0.9448818897637795
        },
        {
          "duration": 0.13409077500000421,
          "durationTicks": 59,
          "midi": 42,
          "name": "F#2",
          "ticks": 32700,
          "time": 74.3181075,
          "velocity": 0.7874015748031497
        },
        {
          "duration": 0.13409077500000421,
          "durationTicks": 59,
          "midi": 42,
          "name": "F#2",
          "ticks": 32760,
          "time": 74.454471,
          "velocity": 0.7874015748031497
        },
        {
          "duration": 0.13409077500000421,
          "durationTicks": 59,
          "midi": 42,
          "name": "F#2",
          "ticks": 32820,
          "time": 74.5908345,
          "velocity": 0.7874015748031497
        },
        {
          "duration": 0.13409077500000421,
          "durationTicks": 59,
          "midi": 42,
          "name": "F#2",
          "ticks": 32880,
          "time": 74.727198,
          "velocity": 0.7874015748031497
        },
        {
          "duration": 0.13409077500000421,
          "durationTicks": 59,
          "midi": 42,
          "name": "F#2",
          "ticks": 32940,
          "time": 74.8635615,
          "velocity": 0.7874015748031497
        },
        {
          "duration": 0.13409077499999,
          "durationTicks": 59,
          "midi": 42,
          "name": "F#2",
          "ticks": 33000,
          "time": 74.999925,
          "velocity": 0.7874015748031497
        },
        {
          "duration": 0.13409077499999,
          "durationTicks": 59,
          "midi": 42,
          "name": "F#2",
          "ticks": 33060,
          "time": 75.1362885,
          "velocity": 0.7874015748031497
        },
        {
          "duration": 0.13409077500000421,
          "durationTicks": 59,
          "midi": 42,
          "name": "F#2",
          "ticks": 33120,
          "time": 75.272652,
          "velocity": 1
        },
        {
          "duration": 0.13409077500000421,
          "durationTicks": 59,
          "midi": 42,
          "name": "F#2",
          "ticks": 33180,
          "time": 75.4090155,
          "velocity": 0.7874015748031497
        },
        {
          "duration": 0.13409077500000421,
          "durationTicks": 59,
          "midi": 42,
          "name": "F#2",
          "ticks": 33240,
          "time": 75.545379,
          "velocity": 0.7874015748031497
        },
        {
          "duration": 0.13409077500000421,
          "durationTicks": 59,
          "midi": 42,
          "name": "F#2",
          "ticks": 33300,
          "time": 75.6817425,
          "velocity": 0.7874015748031497
        },
        {
          "duration": 0.13409077500000421,
          "durationTicks": 59,
          "midi": 42,
          "name": "F#2",
          "ticks": 33360,
          "time": 75.818106,
          "velocity": 1
        },
        {
          "duration": 0.13409077500000421,
          "durationTicks": 59,
          "midi": 42,
          "name": "F#2",
          "ticks": 33420,
          "time": 75.9544695,
          "velocity": 0.7874015748031497
        },
        {
          "duration": 0.13409077500000421,
          "durationTicks": 59,
          "midi": 42,
          "name": "F#2",
          "ticks": 33480,
          "time": 76.090833,
          "velocity": 0.7874015748031497
        },
        {
          "duration": 0.13409077499999,
          "durationTicks": 59,
          "midi": 42,
          "name": "F#2",
          "ticks": 33540,
          "time": 76.2271965,
          "velocity": 0.7874015748031497
        },
        {
          "duration": 0.13409077500000421,
          "durationTicks": 59,
          "midi": 42,
          "name": "F#2",
          "ticks": 33600,
          "time": 76.36355999999999,
          "velocity": 0.9448818897637795
        },
        {
          "duration": 0.13409077500000421,
          "durationTicks": 59,
          "midi": 42,
          "name": "F#2",
          "ticks": 33660,
          "time": 76.4999235,
          "velocity": 0.7874015748031497
        },
        {
          "duration": 0.13636350000000164,
          "durationTicks": 60,
          "midi": 46,
          "name": "A#2",
          "ticks": 33720,
          "time": 76.636287,
          "velocity": 0.8661417322834646
        },
        {
          "duration": 0.13409077500000421,
          "durationTicks": 59,
          "midi": 42,
          "name": "F#2",
          "ticks": 33780,
          "time": 76.7726505,
          "velocity": 0.7874015748031497
        },
        {
          "duration": 0.13409077500000421,
          "durationTicks": 59,
          "midi": 42,
          "name": "F#2",
          "ticks": 33840,
          "time": 76.909014,
          "velocity": 0.7874015748031497
        },
        {
          "duration": 0.13409077500000421,
          "durationTicks": 59,
          "midi": 42,
          "name": "F#2",
          "ticks": 33900,
          "time": 77.0453775,
          "velocity": 0.7874015748031497
        },
        {
          "duration": 0.13409077500000421,
          "durationTicks": 59,
          "midi": 42,
          "name": "F#2",
          "ticks": 33960,
          "time": 77.181741,
          "velocity": 0.7874015748031497
        },
        {
          "duration": 0.13409077500000421,
          "durationTicks": 59,
          "midi": 42,
          "name": "F#2",
          "ticks": 34020,
          "time": 77.3181045,
          "velocity": 0.7874015748031497
        },
        {
          "duration": 0.13409077499999,
          "durationTicks": 59,
          "midi": 42,
          "name": "F#2",
          "ticks": 34080,
          "time": 77.454468,
          "velocity": 0.9448818897637795
        },
        {
          "duration": 0.13409077500000421,
          "durationTicks": 59,
          "midi": 42,
          "name": "F#2",
          "ticks": 34140,
          "time": 77.5908315,
          "velocity": 0.7874015748031497
        },
        {
          "duration": 0.13409077500000421,
          "durationTicks": 59,
          "midi": 42,
          "name": "F#2",
          "ticks": 34200,
          "time": 77.727195,
          "velocity": 0.7874015748031497
        },
        {
          "duration": 0.13409077500000421,
          "durationTicks": 59,
          "midi": 42,
          "name": "F#2",
          "ticks": 34260,
          "time": 77.8635585,
          "velocity": 0.7874015748031497
        },
        {
          "duration": 0.13409077500000421,
          "durationTicks": 59,
          "midi": 42,
          "name": "F#2",
          "ticks": 34320,
          "time": 77.999922,
          "velocity": 1
        },
        {
          "duration": 0.13409077500000421,
          "durationTicks": 59,
          "midi": 42,
          "name": "F#2",
          "ticks": 34380,
          "time": 78.1362855,
          "velocity": 0.7874015748031497
        },
        {
          "duration": 0.13409077500000421,
          "durationTicks": 59,
          "midi": 42,
          "name": "F#2",
          "ticks": 34440,
          "time": 78.272649,
          "velocity": 0.7874015748031497
        },
        {
          "duration": 0.13409077500000421,
          "durationTicks": 59,
          "midi": 42,
          "name": "F#2",
          "ticks": 34500,
          "time": 78.4090125,
          "velocity": 0.7874015748031497
        },
        {
          "duration": 0.13409077499999,
          "durationTicks": 59,
          "midi": 42,
          "name": "F#2",
          "ticks": 34560,
          "time": 78.545376,
          "velocity": 0.9448818897637795
        },
        {
          "duration": 0.13409077499999,
          "durationTicks": 59,
          "midi": 42,
          "name": "F#2",
          "ticks": 34620,
          "time": 78.6817395,
          "velocity": 0.7874015748031497
        },
        {
          "duration": 0.13409077500000421,
          "durationTicks": 59,
          "midi": 42,
          "name": "F#2",
          "ticks": 34680,
          "time": 78.818103,
          "velocity": 0.7874015748031497
        },
        {
          "duration": 0.13409077500000421,
          "durationTicks": 59,
          "midi": 42,
          "name": "F#2",
          "ticks": 34740,
          "time": 78.9544665,
          "velocity": 0.7874015748031497
        },
        {
          "duration": 0.13409077500000421,
          "durationTicks": 59,
          "midi": 42,
          "name": "F#2",
          "ticks": 34800,
          "time": 79.09083,
          "velocity": 0.7874015748031497
        },
        {
          "duration": 0.13409077500000421,
          "durationTicks": 59,
          "midi": 42,
          "name": "F#2",
          "ticks": 34860,
          "time": 79.2271935,
          "velocity": 0.7874015748031497
        },
        {
          "duration": 0.13409077500000421,
          "durationTicks": 59,
          "midi": 42,
          "name": "F#2",
          "ticks": 34920,
          "time": 79.363557,
          "velocity": 0.7874015748031497
        },
        {
          "duration": 0.13409077500000421,
          "durationTicks": 59,
          "midi": 42,
          "name": "F#2",
          "ticks": 34980,
          "time": 79.4999205,
          "velocity": 0.7874015748031497
        },
        {
          "duration": 0.13409077500000421,
          "durationTicks": 59,
          "midi": 42,
          "name": "F#2",
          "ticks": 35040,
          "time": 79.636284,
          "velocity": 1
        },
        {
          "duration": 0.13409077499999,
          "durationTicks": 59,
          "midi": 42,
          "name": "F#2",
          "ticks": 35100,
          "time": 79.7726475,
          "velocity": 0.7874015748031497
        },
        {
          "duration": 0.13409077500000421,
          "durationTicks": 59,
          "midi": 42,
          "name": "F#2",
          "ticks": 35160,
          "time": 79.90901099999999,
          "velocity": 0.7874015748031497
        },
        {
          "duration": 0.13409077500000421,
          "durationTicks": 59,
          "midi": 42,
          "name": "F#2",
          "ticks": 35220,
          "time": 80.0453745,
          "velocity": 0.7874015748031497
        },
        {
          "duration": 0.13409077500000421,
          "durationTicks": 59,
          "midi": 42,
          "name": "F#2",
          "ticks": 35280,
          "time": 80.181738,
          "velocity": 1
        },
        {
          "duration": 0.13409077500000421,
          "durationTicks": 59,
          "midi": 42,
          "name": "F#2",
          "ticks": 35340,
          "time": 80.3181015,
          "velocity": 0.7874015748031497
        },
        {
          "duration": 0.13409077500000421,
          "durationTicks": 59,
          "midi": 42,
          "name": "F#2",
          "ticks": 35400,
          "time": 80.454465,
          "velocity": 0.7874015748031497
        },
        {
          "duration": 0.13409077500000421,
          "durationTicks": 59,
          "midi": 42,
          "name": "F#2",
          "ticks": 35460,
          "time": 80.5908285,
          "velocity": 0.7874015748031497
        },
        {
          "duration": 0.13409077500000421,
          "durationTicks": 59,
          "midi": 42,
          "name": "F#2",
          "ticks": 35520,
          "time": 80.727192,
          "velocity": 0.9448818897637795
        },
        {
          "duration": 0.13409077500000421,
          "durationTicks": 59,
          "midi": 42,
          "name": "F#2",
          "ticks": 35580,
          "time": 80.8635555,
          "velocity": 0.7874015748031497
        },
        {
          "duration": 0.13636349999998743,
          "durationTicks": 60,
          "midi": 46,
          "name": "A#2",
          "ticks": 35640,
          "time": 80.999919,
          "velocity": 0.8661417322834646
        },
        {
          "duration": 0.13409077500000421,
          "durationTicks": 59,
          "midi": 42,
          "name": "F#2",
          "ticks": 35700,
          "time": 81.1362825,
          "velocity": 0.7874015748031497
        },
        {
          "duration": 0.13409077500000421,
          "durationTicks": 59,
          "midi": 42,
          "name": "F#2",
          "ticks": 35760,
          "time": 81.272646,
          "velocity": 0.7874015748031497
        },
        {
          "duration": 0.13409077500000421,
          "durationTicks": 59,
          "midi": 42,
          "name": "F#2",
          "ticks": 35820,
          "time": 81.4090095,
          "velocity": 0.7874015748031497
        },
        {
          "duration": 0.13409077500000421,
          "durationTicks": 59,
          "midi": 42,
          "name": "F#2",
          "ticks": 35880,
          "time": 81.545373,
          "velocity": 0.7874015748031497
        },
        {
          "duration": 0.13409077500000421,
          "durationTicks": 59,
          "midi": 42,
          "name": "F#2",
          "ticks": 35940,
          "time": 81.6817365,
          "velocity": 0.7874015748031497
        },
        {
          "duration": 0.13409077500000421,
          "durationTicks": 59,
          "midi": 42,
          "name": "F#2",
          "ticks": 36000,
          "time": 81.8181,
          "velocity": 1
        },
        {
          "duration": 0.13409077500000421,
          "durationTicks": 59,
          "midi": 42,
          "name": "F#2",
          "ticks": 36060,
          "time": 81.9544635,
          "velocity": 0.7874015748031497
        },
        {
          "duration": 0.13409077499999,
          "durationTicks": 59,
          "midi": 42,
          "name": "F#2",
          "ticks": 36120,
          "time": 82.090827,
          "velocity": 0.7874015748031497
        },
        {
          "duration": 0.13409077499999,
          "durationTicks": 59,
          "midi": 42,
          "name": "F#2",
          "ticks": 36180,
          "time": 82.2271905,
          "velocity": 0.7874015748031497
        },
        {
          "duration": 0.13409077500000421,
          "durationTicks": 59,
          "midi": 42,
          "name": "F#2",
          "ticks": 36240,
          "time": 82.363554,
          "velocity": 1
        },
        {
          "duration": 0.13409077500000421,
          "durationTicks": 59,
          "midi": 42,
          "name": "F#2",
          "ticks": 36300,
          "time": 82.4999175,
          "velocity": 0.7874015748031497
        },
        {
          "duration": 0.13409077500000421,
          "durationTicks": 59,
          "midi": 42,
          "name": "F#2",
          "ticks": 36360,
          "time": 82.636281,
          "velocity": 0.7874015748031497
        },
        {
          "duration": 0.13409077500000421,
          "durationTicks": 59,
          "midi": 42,
          "name": "F#2",
          "ticks": 36420,
          "time": 82.7726445,
          "velocity": 0.7874015748031497
        }
      ]
    },
    {
      "channel": 12,
      "controlChanges": {
        "7": [
          {
            "number": 7,
            "ticks": 0,
            "time": 0,
            "value": 0.7874015748031497
          }
        ],
        "11": [
          {
            "number": 11,
            "ticks": 0,
            "time": 0,
            "value": 0.7874015748031497
          }
        ],
        "64": [
          {
            "number": 64,
            "ticks": 0,
            "time": 0,
            "value": 0
          }
        ],
        "91": [
          {
            "number": 91,
            "ticks": 0,
            "time": 0,
            "value": 0
          }
        ],
        "93": [
          {
            "number": 93,
            "ticks": 0,
            "time": 0,
            "value": 0.47244094488188976
          }
        ]
      },
      "pitchBends": [],
      "instrument": {
        "family": "brass",
        "number": 56,
        "name": "trumpet"
      },
      "name": "Brass Section",
      "notes": [
        {
          "duration": 0.1818179999999998,
          "durationTicks": 80,
          "midi": 71,
          "name": "B4",
          "ticks": 21480,
          "time": 48.818132999999996,
          "velocity": 0.8110236220472441
        },
        {
          "duration": 0.1818179999999998,
          "durationTicks": 80,
          "midi": 76,
          "name": "E5",
          "ticks": 21480,
          "time": 48.818132999999996,
          "velocity": 0.8110236220472441
        },
        {
          "duration": 0.1818179999999998,
          "durationTicks": 80,
          "midi": 64,
          "name": "E4",
          "ticks": 21480,
          "time": 48.818132999999996,
          "velocity": 0.8110236220472441
        },
        {
          "duration": 0.2727270000000033,
          "durationTicks": 120,
          "midi": 66,
          "name": "F#4",
          "ticks": 21600,
          "time": 49.09086,
          "velocity": 0.8582677165354331
        },
        {
          "duration": 0.2727270000000033,
          "durationTicks": 120,
          "midi": 78,
          "name": "F#5",
          "ticks": 21600,
          "time": 49.09086,
          "velocity": 0.8661417322834646
        },
        {
          "duration": 0.2727270000000033,
          "durationTicks": 120,
          "midi": 73,
          "name": "C#5",
          "ticks": 21600,
          "time": 49.09086,
          "velocity": 0.8661417322834646
        },
        {
          "duration": 0.04545449999999107,
          "durationTicks": 20,
          "midi": 72,
          "name": "C5",
          "ticks": 21720,
          "time": 49.363587,
          "velocity": 0.7480314960629921
        },
        {
          "duration": 0.04545449999999107,
          "durationTicks": 20,
          "midi": 65,
          "name": "F4",
          "ticks": 21720,
          "time": 49.363587,
          "velocity": 0.7480314960629921
        },
        {
          "duration": 0.04545450000000528,
          "durationTicks": 20,
          "midi": 71,
          "name": "B4",
          "ticks": 21740,
          "time": 49.409041499999994,
          "velocity": 0.7086614173228346
        },
        {
          "duration": 0.04545450000000528,
          "durationTicks": 20,
          "midi": 64,
          "name": "E4",
          "ticks": 21740,
          "time": 49.409041499999994,
          "velocity": 0.7086614173228346
        },
        {
          "duration": 0.04545449999999818,
          "durationTicks": 20,
          "midi": 69,
          "name": "A4",
          "ticks": 21760,
          "time": 49.454496,
          "velocity": 0.6299212598425197
        },
        {
          "duration": 0.04545449999999818,
          "durationTicks": 20,
          "midi": 62,
          "name": "D4",
          "ticks": 21760,
          "time": 49.454496,
          "velocity": 0.6299212598425197
        },
        {
          "duration": 0.04545449999999818,
          "durationTicks": 20,
          "midi": 67,
          "name": "G4",
          "ticks": 21780,
          "time": 49.4999505,
          "velocity": 0.5511811023622047
        },
        {
          "duration": 0.04545449999999818,
          "durationTicks": 20,
          "midi": 60,
          "name": "C4",
          "ticks": 21780,
          "time": 49.4999505,
          "velocity": 0.5511811023622047
        },
        {
          "duration": 0.18181800000000692,
          "durationTicks": 80,
          "midi": 71,
          "name": "B4",
          "ticks": 31560,
          "time": 71.727201,
          "velocity": 0.8110236220472441
        },
        {
          "duration": 0.18181800000000692,
          "durationTicks": 80,
          "midi": 76,
          "name": "E5",
          "ticks": 31560,
          "time": 71.727201,
          "velocity": 0.8110236220472441
        },
        {
          "duration": 0.18181800000000692,
          "durationTicks": 80,
          "midi": 64,
          "name": "E4",
          "ticks": 31560,
          "time": 71.727201,
          "velocity": 0.8110236220472441
        },
        {
          "duration": 0.2727270000000033,
          "durationTicks": 120,
          "midi": 66,
          "name": "F#4",
          "ticks": 31680,
          "time": 71.999928,
          "velocity": 0.8582677165354331
        },
        {
          "duration": 0.2727270000000033,
          "durationTicks": 120,
          "midi": 78,
          "name": "F#5",
          "ticks": 31680,
          "time": 71.999928,
          "velocity": 0.8661417322834646
        },
        {
          "duration": 0.2727270000000033,
          "durationTicks": 120,
          "midi": 73,
          "name": "C#5",
          "ticks": 31680,
          "time": 71.999928,
          "velocity": 0.8661417322834646
        },
        {
          "duration": 0.04545450000000528,
          "durationTicks": 20,
          "midi": 72,
          "name": "C5",
          "ticks": 31800,
          "time": 72.272655,
          "velocity": 0.7480314960629921
        },
        {
          "duration": 0.04545450000000528,
          "durationTicks": 20,
          "midi": 65,
          "name": "F4",
          "ticks": 31800,
          "time": 72.272655,
          "velocity": 0.7480314960629921
        },
        {
          "duration": 0.04545449999999107,
          "durationTicks": 20,
          "midi": 71,
          "name": "B4",
          "ticks": 31820,
          "time": 72.3181095,
          "velocity": 0.7086614173228346
        },
        {
          "duration": 0.04545449999999107,
          "durationTicks": 20,
          "midi": 64,
          "name": "E4",
          "ticks": 31820,
          "time": 72.3181095,
          "velocity": 0.7086614173228346
        },
        {
          "duration": 0.04545450000000528,
          "durationTicks": 20,
          "midi": 69,
          "name": "A4",
          "ticks": 31840,
          "time": 72.363564,
          "velocity": 0.6299212598425197
        },
        {
          "duration": 0.04545450000000528,
          "durationTicks": 20,
          "midi": 62,
          "name": "D4",
          "ticks": 31840,
          "time": 72.363564,
          "velocity": 0.6299212598425197
        },
        {
          "duration": 0.04545450000000528,
          "durationTicks": 20,
          "midi": 67,
          "name": "G4",
          "ticks": 31860,
          "time": 72.4090185,
          "velocity": 0.5511811023622047
        },
        {
          "duration": 0.04545450000000528,
          "durationTicks": 20,
          "midi": 60,
          "name": "C4",
          "ticks": 31860,
          "time": 72.4090185,
          "velocity": 0.5511811023622047
        },
        {
          "duration": 0.13636350000000164,
          "durationTicks": 60,
          "midi": 71,
          "name": "B4",
          "ticks": 36360,
          "time": 82.636281,
          "velocity": 0.8582677165354331
        },
        {
          "duration": 0.13636350000000164,
          "durationTicks": 60,
          "midi": 64,
          "name": "E4",
          "ticks": 36360,
          "time": 82.636281,
          "velocity": 0.8110236220472441
        },
        {
          "duration": 0.13636350000000164,
          "durationTicks": 60,
          "midi": 76,
          "name": "E5",
          "ticks": 36360,
          "time": 82.636281,
          "velocity": 0.8110236220472441
        },
        {
          "duration": 0.2727270000000033,
          "durationTicks": 120,
          "midi": 73,
          "name": "C#5",
          "ticks": 36480,
          "time": 82.909008,
          "velocity": 0.7952755905511811
        },
        {
          "duration": 0.2727270000000033,
          "durationTicks": 120,
          "midi": 66,
          "name": "F#4",
          "ticks": 36480,
          "time": 82.909008,
          "velocity": 0.7480314960629921
        },
        {
          "duration": 0.2727270000000033,
          "durationTicks": 120,
          "midi": 78,
          "name": "F#5",
          "ticks": 36480,
          "time": 82.909008,
          "velocity": 0.7480314960629921
        },
        {
          "duration": 0.04545450000000528,
          "durationTicks": 20,
          "midi": 77,
          "name": "F5",
          "ticks": 36600,
          "time": 83.181735,
          "velocity": 0.7480314960629921
        },
        {
          "duration": 0.04545449999999107,
          "durationTicks": 20,
          "midi": 76,
          "name": "E5",
          "ticks": 36620,
          "time": 83.22718950000001,
          "velocity": 0.7480314960629921
        },
        {
          "duration": 0.04545450000000528,
          "durationTicks": 20,
          "midi": 74,
          "name": "D5",
          "ticks": 36640,
          "time": 83.272644,
          "velocity": 0.7480314960629921
        },
        {
          "duration": 0.04545450000000528,
          "durationTicks": 20,
          "midi": 72,
          "name": "C5",
          "ticks": 36660,
          "time": 83.3180985,
          "velocity": 0.7480314960629921
        }
      ],
      "endOfTrackTicks": 36680
    },
    {
      "channel": 13,
      "controlChanges": {},
      "pitchBends": [],
      "instrument": {
        "family": "synth lead",
        "number": 87,
        "name": "lead 8 (bass + lead)"
      },
      "name": "Vibraphone",
      "notes": [
        {
          "duration": 0.26590882500000035,
          "durationTicks": 117,
          "midi": 66,
          "name": "F#4",
          "ticks": 12480,
          "time": 28.363608,
          "velocity": 0.5118110236220472
        },
        {
          "duration": 0.1295453249999987,
          "durationTicks": 57,
          "midi": 67,
          "name": "G4",
          "ticks": 12600,
          "time": 28.636335,
          "velocity": 0.5118110236220472
        },
        {
          "duration": 0.1295453249999987,
          "durationTicks": 57,
          "midi": 66,
          "name": "F#4",
          "ticks": 12660,
          "time": 28.7726985,
          "velocity": 0.5118110236220472
        },
        {
          "duration": 1.0840898249999995,
          "durationTicks": 477,
          "midi": 73,
          "name": "C#5",
          "ticks": 12720,
          "time": 28.909062,
          "velocity": 0.5118110236220472
        },
        {
          "duration": 0.5386358249999965,
          "durationTicks": 237,
          "midi": 78,
          "name": "F#5",
          "ticks": 13440,
          "time": 30.545424,
          "velocity": 0.5118110236220472
        },
        {
          "duration": 0.1295453249999987,
          "durationTicks": 57,
          "midi": 79,
          "name": "G5",
          "ticks": 13560,
          "time": 30.818151,
          "velocity": 0.5118110236220472
        },
        {
          "duration": 0.1295453249999987,
          "durationTicks": 57,
          "midi": 78,
          "name": "F#5",
          "ticks": 13620,
          "time": 30.9545145,
          "velocity": 0.5118110236220472
        },
        {
          "duration": 1.2204533249999976,
          "durationTicks": 537,
          "midi": 73,
          "name": "C#5",
          "ticks": 13680,
          "time": 31.090878,
          "velocity": 0.5118110236220472
        },
        {
          "duration": 0.2659088249999968,
          "durationTicks": 117,
          "midi": 66,
          "name": "F#4",
          "ticks": 14400,
          "time": 32.72724,
          "velocity": 0.5118110236220472
        },
        {
          "duration": 0.12954532500000226,
          "durationTicks": 57,
          "midi": 67,
          "name": "G4",
          "ticks": 14520,
          "time": 32.999967,
          "velocity": 0.5118110236220472
        },
        {
          "duration": 0.12954532499999516,
          "durationTicks": 57,
          "midi": 66,
          "name": "F#4",
          "ticks": 14580,
          "time": 33.1363305,
          "velocity": 0.5118110236220472
        },
        {
          "duration": 0.5386358250000001,
          "durationTicks": 237,
          "midi": 73,
          "name": "C#5",
          "ticks": 14640,
          "time": 33.272694,
          "velocity": 0.5118110236220472
        },
        {
          "duration": 0.2659088250000039,
          "durationTicks": 117,
          "midi": 78,
          "name": "F#5",
          "ticks": 14760,
          "time": 33.545421,
          "velocity": 0.5118110236220472
        },
        {
          "duration": 1.629543824999999,
          "durationTicks": 717,
          "midi": 76,
          "name": "E5",
          "ticks": 14880,
          "time": 33.818148,
          "velocity": 0.5118110236220472
        },
        {
          "duration": 0.2659088250000039,
          "durationTicks": 117,
          "midi": 66,
          "name": "F#4",
          "ticks": 16800,
          "time": 38.181779999999996,
          "velocity": 0.5118110236220472
        },
        {
          "duration": 0.12954532499999516,
          "durationTicks": 57,
          "midi": 67,
          "name": "G4",
          "ticks": 16920,
          "time": 38.454507,
          "velocity": 0.5118110236220472
        },
        {
          "duration": 0.12954532499999516,
          "durationTicks": 57,
          "midi": 66,
          "name": "F#4",
          "ticks": 16980,
          "time": 38.5908705,
          "velocity": 0.5118110236220472
        },
        {
          "duration": 1.0840898249999924,
          "durationTicks": 477,
          "midi": 73,
          "name": "C#5",
          "ticks": 17040,
          "time": 38.727234,
          "velocity": 0.5118110236220472
        },
        {
          "duration": 0.2659088249999968,
          "durationTicks": 117,
          "midi": 78,
          "name": "F#5",
          "ticks": 17760,
          "time": 40.363596,
          "velocity": 0.5118110236220472
        },
        {
          "duration": 0.12954532500000226,
          "durationTicks": 57,
          "midi": 79,
          "name": "G5",
          "ticks": 17880,
          "time": 40.636323,
          "velocity": 0.5118110236220472
        },
        {
          "duration": 0.12954532500000226,
          "durationTicks": 57,
          "midi": 78,
          "name": "F#5",
          "ticks": 17940,
          "time": 40.7726865,
          "velocity": 0.5118110236220472
        },
        {
          "duration": 1.220453324999994,
          "durationTicks": 537,
          "midi": 73,
          "name": "C#5",
          "ticks": 18000,
          "time": 40.90905,
          "velocity": 0.5118110236220472
        },
        {
          "duration": 0.2659088249999968,
          "durationTicks": 117,
          "midi": 66,
          "name": "F#4",
          "ticks": 18720,
          "time": 42.545412,
          "velocity": 0.5118110236220472
        },
        {
          "duration": 0.12954532499999516,
          "durationTicks": 57,
          "midi": 67,
          "name": "G4",
          "ticks": 18840,
          "time": 42.818139,
          "velocity": 0.5118110236220472
        },
        {
          "duration": 0.12954532500000226,
          "durationTicks": 57,
          "midi": 66,
          "name": "F#4",
          "ticks": 18900,
          "time": 42.9545025,
          "velocity": 0.5118110236220472
        },
        {
          "duration": 0.5386358250000001,
          "durationTicks": 237,
          "midi": 73,
          "name": "C#5",
          "ticks": 18960,
          "time": 43.090866,
          "velocity": 0.5118110236220472
        },
        {
          "duration": 0.2659088249999968,
          "durationTicks": 117,
          "midi": 78,
          "name": "F#5",
          "ticks": 19080,
          "time": 43.363593,
          "velocity": 0.5118110236220472
        },
        {
          "duration": 2.1749978249999984,
          "durationTicks": 957,
          "midi": 79,
          "name": "G5",
          "ticks": 19200,
          "time": 43.63632,
          "velocity": 0.5118110236220472
        },
        {
          "duration": 0.2659088250000039,
          "durationTicks": 117,
          "midi": 66,
          "name": "F#4",
          "ticks": 25440,
          "time": 57.818124,
          "velocity": 0.5118110236220472
        },
        {
          "duration": 0.12954532499999516,
          "durationTicks": 57,
          "midi": 67,
          "name": "G4",
          "ticks": 25560,
          "time": 58.090851,
          "velocity": 0.5118110236220472
        },
        {
          "duration": 0.12954532499999516,
          "durationTicks": 57,
          "midi": 66,
          "name": "F#4",
          "ticks": 25620,
          "time": 58.2272145,
          "velocity": 0.5118110236220472
        },
        {
          "duration": 0.5386358250000001,
          "durationTicks": 237,
          "midi": 73,
          "name": "C#5",
          "ticks": 25680,
          "time": 58.363578,
          "velocity": 0.5118110236220472
        },
        {
          "duration": 0.2659088250000039,
          "durationTicks": 117,
          "midi": 78,
          "name": "F#5",
          "ticks": 25920,
          "time": 58.909031999999996,
          "velocity": 0.5118110236220472
        },
        {
          "duration": 0.12954532499999516,
          "durationTicks": 57,
          "midi": 79,
          "name": "G5",
          "ticks": 26040,
          "time": 59.181759,
          "velocity": 0.5118110236220472
        },
        {
          "duration": 0.12954532499999516,
          "durationTicks": 57,
          "midi": 78,
          "name": "F#5",
          "ticks": 26100,
          "time": 59.3181225,
          "velocity": 0.5118110236220472
        },
        {
          "duration": 0.538635824999993,
          "durationTicks": 237,
          "midi": 73,
          "name": "C#5",
          "ticks": 26160,
          "time": 59.454486,
          "velocity": 0.5118110236220472
        },
        {
          "duration": 0.2659088249999968,
          "durationTicks": 117,
          "midi": 66,
          "name": "F#4",
          "ticks": 26400,
          "time": 59.99994,
          "velocity": 0.5118110236220472
        },
        {
          "duration": 0.12954532500000226,
          "durationTicks": 57,
          "midi": 67,
          "name": "G4",
          "ticks": 26520,
          "time": 60.272667,
          "velocity": 0.5118110236220472
        },
        {
          "duration": 0.12954532499999516,
          "durationTicks": 57,
          "midi": 66,
          "name": "F#4",
          "ticks": 26580,
          "time": 60.4090305,
          "velocity": 0.5118110236220472
        },
        {
          "duration": 0.2659088249999968,
          "durationTicks": 117,
          "midi": 73,
          "name": "C#5",
          "ticks": 26640,
          "time": 60.545394,
          "velocity": 0.5118110236220472
        },
        {
          "duration": 0.2659088249999968,
          "durationTicks": 117,
          "midi": 78,
          "name": "F#5",
          "ticks": 26760,
          "time": 60.818121,
          "velocity": 0.5118110236220472
        },
        {
          "duration": 2.1749978249999984,
          "durationTicks": 957,
          "midi": 76,
          "name": "E5",
          "ticks": 26880,
          "time": 61.090848,
          "velocity": 0.5118110236220472
        },
        {
          "duration": 0.2659088249999968,
          "durationTicks": 117,
          "midi": 66,
          "name": "F#4",
          "ticks": 28320,
          "time": 64.363572,
          "velocity": 0.5118110236220472
        },
        {
          "duration": 0.12954532500000937,
          "durationTicks": 57,
          "midi": 67,
          "name": "G4",
          "ticks": 28440,
          "time": 64.636299,
          "velocity": 0.5118110236220472
        },
        {
          "duration": 0.12954532499999516,
          "durationTicks": 57,
          "midi": 66,
          "name": "F#4",
          "ticks": 28500,
          "time": 64.7726625,
          "velocity": 0.5118110236220472
        },
        {
          "duration": 0.5386358250000001,
          "durationTicks": 237,
          "midi": 73,
          "name": "C#5",
          "ticks": 28560,
          "time": 64.909026,
          "velocity": 0.5118110236220472
        },
        {
          "duration": 0.2659088249999968,
          "durationTicks": 117,
          "midi": 78,
          "name": "F#5",
          "ticks": 28800,
          "time": 65.45448,
          "velocity": 0.5118110236220472
        },
        {
          "duration": 0.12954532500000937,
          "durationTicks": 57,
          "midi": 79,
          "name": "G5",
          "ticks": 28920,
          "time": 65.72720699999999,
          "velocity": 0.5118110236220472
        },
        {
          "duration": 0.12954532500000937,
          "durationTicks": 57,
          "midi": 78,
          "name": "F#5",
          "ticks": 28980,
          "time": 65.8635705,
          "velocity": 0.5118110236220472
        },
        {
          "duration": 0.5386358250000001,
          "durationTicks": 237,
          "midi": 73,
          "name": "C#5",
          "ticks": 29040,
          "time": 65.999934,
          "velocity": 0.5118110236220472
        },
        {
          "duration": 0.2659088249999968,
          "durationTicks": 117,
          "midi": 66,
          "name": "F#4",
          "ticks": 29280,
          "time": 66.545388,
          "velocity": 0.5118110236220472
        },
        {
          "duration": 0.12954532499999516,
          "durationTicks": 57,
          "midi": 67,
          "name": "G4",
          "ticks": 29400,
          "time": 66.818115,
          "velocity": 0.5118110236220472
        },
        {
          "duration": 0.12954532500000937,
          "durationTicks": 57,
          "midi": 66,
          "name": "F#4",
          "ticks": 29460,
          "time": 66.9544785,
          "velocity": 0.5118110236220472
        },
        {
          "duration": 0.12954532500000937,
          "durationTicks": 57,
          "midi": 73,
          "name": "C#5",
          "ticks": 29520,
          "time": 67.090842,
          "velocity": 0.5118110236220472
        },
        {
          "duration": 0.2659088249999968,
          "durationTicks": 117,
          "midi": 78,
          "name": "F#5",
          "ticks": 29640,
          "time": 67.363569,
          "velocity": 0.5118110236220472
        },
        {
          "duration": 2.1749978249999913,
          "durationTicks": 957,
          "midi": 79,
          "name": "G5",
          "ticks": 29760,
          "time": 67.636296,
          "velocity": 0.5118110236220472
        },
        {
          "duration": 0.8181809999999956,
          "durationTicks": 360,
          "midi": 61,
          "name": "C#4",
          "ticks": 34560,
          "time": 78.545376,
          "velocity": 0.5511811023622047
        },
        {
          "duration": 0.13636350000000164,
          "durationTicks": 60,
          "midi": 62,
          "name": "D4",
          "ticks": 34920,
          "time": 79.363557,
          "velocity": 0.4251968503937008
        },
        {
          "duration": 0.13636350000000164,
          "durationTicks": 60,
          "midi": 61,
          "name": "C#4",
          "ticks": 34980,
          "time": 79.4999205,
          "velocity": 0.5196850393700787
        },
        {
          "duration": 0.64772662499999,
          "durationTicks": 285,
          "midi": 66,
          "name": "F#4",
          "ticks": 35040,
          "time": 79.636284,
          "velocity": 0.5039370078740157
        },
        {
          "duration": 0.13636350000000164,
          "durationTicks": 60,
          "midi": 67,
          "name": "G4",
          "ticks": 35400,
          "time": 80.454465,
          "velocity": 0.3937007874015748
        },
        {
          "duration": 0.13636350000000164,
          "durationTicks": 60,
          "midi": 66,
          "name": "F#4",
          "ticks": 35460,
          "time": 80.5908285,
          "velocity": 0.5039370078740157
        },
        {
          "duration": 1.9090889999999945,
          "durationTicks": 840,
          "midi": 73,
          "name": "C#5",
          "ticks": 35520,
          "time": 80.727192,
          "velocity": 0.4409448818897638
        },
        {
          "duration": 0.13636350000000164,
          "durationTicks": 60,
          "midi": 76,
          "name": "E5",
          "ticks": 36360,
          "time": 82.636281,
          "velocity": 0.4566929133858268
        },
        {
          "duration": 0.2727270000000033,
          "durationTicks": 120,
          "midi": 78,
          "name": "F#5",
          "ticks": 36480,
          "time": 82.909008,
          "velocity": 0.5039370078740157
        }
      ],
      "endOfTrackTicks": 36600
    },
    {
      "channel": 15,
      "controlChanges": {
        "7": [
          {
            "number": 7,
            "ticks": 0,
            "time": 0,
            "value": 0.7874015748031497
          }
        ],
        "11": [
          {
            "number": 11,
            "ticks": 0,
            "time": 0,
            "value": 0.7874015748031497
          }
        ],
        "64": [
          {
            "number": 64,
            "ticks": 0,
            "time": 0,
            "value": 0
          }
        ],
        "91": [
          {
            "number": 91,
            "ticks": 0,
            "time": 0,
            "value": 0
          }
        ],
        "93": [
          {
            "number": 93,
            "ticks": 0,
            "time": 0,
            "value": 0.47244094488188976
          }
        ]
      },
      "pitchBends": [],
      "instrument": {
        "family": "synth lead",
        "number": 84,
        "name": "lead 5 (charang)"
      },
      "name": "Lead 5",
      "notes": [
        {
          "duration": 2.7272700000000007,
          "durationTicks": 1200,
          "midi": 54,
          "name": "F#3",
          "ticks": 9660,
          "time": 21.9545235,
          "velocity": 0.6535433070866141
        },
        {
          "duration": 2.727269999999997,
          "durationTicks": 1200,
          "midi": 82,
          "name": "A#5",
          "ticks": 9690,
          "time": 22.02270525,
          "velocity": 0.33858267716535434
        },
        {
          "duration": 2.5636338000000016,
          "durationTicks": 1128,
          "midi": 70,
          "name": "A#4",
          "ticks": 9690,
          "time": 22.02270525,
          "velocity": 0.2125984251968504
        },
        {
          "duration": 2.7272700000000007,
          "durationTicks": 1200,
          "midi": 73,
          "name": "C#5",
          "ticks": 9720,
          "time": 22.090887,
          "velocity": 0.33858267716535434
        },
        {
          "duration": 2.7272700000000007,
          "durationTicks": 1200,
          "midi": 85,
          "name": "C#6",
          "ticks": 9720,
          "time": 22.090887,
          "velocity": 0.2125984251968504
        },
        {
          "duration": 2.7272700000000007,
          "durationTicks": 1200,
          "midi": 78,
          "name": "F#5",
          "ticks": 9750,
          "time": 22.15906875,
          "velocity": 0.2125984251968504
        },
        {
          "duration": 2.7272700000000007,
          "durationTicks": 1200,
          "midi": 66,
          "name": "F#4",
          "ticks": 9750,
          "time": 22.15906875,
          "velocity": 0.48031496062992124
        },
        {
          "duration": 2.7272700000000007,
          "durationTicks": 1200,
          "midi": 52,
          "name": "E3",
          "ticks": 11580,
          "time": 26.3181555,
          "velocity": 0.5748031496062992
        },
        {
          "duration": 2.7272700000000007,
          "durationTicks": 1200,
          "midi": 67,
          "name": "G4",
          "ticks": 11610,
          "time": 26.38633725,
          "velocity": 0.41732283464566927
        },
        {
          "duration": 2.727269999999997,
          "durationTicks": 1200,
          "midi": 71,
          "name": "B4",
          "ticks": 11640,
          "time": 26.454519,
          "velocity": 0.5433070866141733
        },
        {
          "duration": 2.7272700000000007,
          "durationTicks": 1200,
          "midi": 64,
          "name": "E4",
          "ticks": 11670,
          "time": 26.52270075,
          "velocity": 0.29133858267716534
        },
        {
          "duration": 2.786360849999994,
          "durationTicks": 1226,
          "midi": 54,
          "name": "F#3",
          "ticks": 32700,
          "time": 74.3181075,
          "velocity": 0.49606299212598426
        },
        {
          "duration": 2.559088349999996,
          "durationTicks": 1126,
          "midi": 70,
          "name": "A#4",
          "ticks": 32730,
          "time": 74.38628925,
          "velocity": 0.18110236220472442
        },
        {
          "duration": 2.559088349999996,
          "durationTicks": 1126,
          "midi": 82,
          "name": "A#5",
          "ticks": 32730,
          "time": 74.38628925,
          "velocity": 0.18110236220472442
        },
        {
          "duration": 2.527270200000004,
          "durationTicks": 1112,
          "midi": 73,
          "name": "C#5",
          "ticks": 32760,
          "time": 74.454471,
          "velocity": 0.3228346456692913
        },
        {
          "duration": 2.527270200000004,
          "durationTicks": 1112,
          "midi": 85,
          "name": "C#6",
          "ticks": 32760,
          "time": 74.454471,
          "velocity": 0.3228346456692913
        },
        {
          "duration": 2.440906649999988,
          "durationTicks": 1074,
          "midi": 78,
          "name": "F#5",
          "ticks": 32790,
          "time": 74.52265275,
          "velocity": 0.05511811023622047
        },
        {
          "duration": 2.440906649999988,
          "durationTicks": 1074,
          "midi": 66,
          "name": "F#4",
          "ticks": 32790,
          "time": 74.52265275,
          "velocity": 0.05511811023622047
        }
      ],
      "endOfTrackTicks": 33926
    },
    {
      "channel": 0,
      "controlChanges": {
        "0": [
          {
            "number": 0,
            "ticks": 0,
            "time": 0,
            "value": 0
          }
        ],
        "32": [
          {
            "number": 32,
            "ticks": 0,
            "time": 0,
            "value": 0
          }
        ]
      },
      "pitchBends": [],
      "instrument": {
        "family": "piano",
        "number": 0,
        "name": "acoustic grand piano"
      },
      "name": "Shamisen",
      "notes": [],
      "endOfTrackTicks": 36600
    },
    {
      "channel": 4,
      "controlChanges": {
        "7": [
          {
            "number": 7,
            "ticks": 0,
            "time": 0,
            "value": 0.7874015748031497
          },
          {
            "number": 7,
            "ticks": 0,
            "time": 0,
            "value": 0.7874015748031497
          }
        ],
        "11": [
          {
            "number": 11,
            "ticks": 0,
            "time": 0,
            "value": 0.7874015748031497
          }
        ],
        "64": [
          {
            "number": 64,
            "ticks": 0,
            "time": 0,
            "value": 0
          }
        ],
        "91": [
          {
            "number": 91,
            "ticks": 0,
            "time": 0,
            "value": 0
          }
        ],
        "93": [
          {
            "number": 93,
            "ticks": 0,
            "time": 0,
            "value": 0
          }
        ]
      },
      "pitchBends": [],
      "instrument": {
        "family": "world",
        "number": 106,
        "name": "shamisen"
      },
      "name": "",
      "notes": [
        {
          "duration": 0.12954532500000004,
          "durationTicks": 57,
          "midi": 61,
          "name": "C#4",
          "ticks": 960,
          "time": 2.181816,
          "velocity": 0.7007874015748031
        },
        {
          "duration": 0.1295453249999996,
          "durationTicks": 57,
          "midi": 62,
          "name": "D4",
          "ticks": 1080,
          "time": 2.454543,
          "velocity": 0.7007874015748031
        },
        {
          "duration": 0.12954532500000004,
          "durationTicks": 57,
          "midi": 61,
          "name": "C#4",
          "ticks": 1140,
          "time": 2.5909065,
          "velocity": 0.7007874015748031
        },
        {
          "duration": 0.12954532500000004,
          "durationTicks": 57,
          "midi": 61,
          "name": "C#4",
          "ticks": 1200,
          "time": 2.72727,
          "velocity": 0.7007874015748031
        },
        {
          "duration": 0.1295453249999996,
          "durationTicks": 57,
          "midi": 62,
          "name": "D4",
          "ticks": 1260,
          "time": 2.8636335,
          "velocity": 0.7007874015748031
        },
        {
          "duration": 0.12954532500000004,
          "durationTicks": 57,
          "midi": 61,
          "name": "C#4",
          "ticks": 1320,
          "time": 2.999997,
          "velocity": 0.7007874015748031
        },
        {
          "duration": 0.12954532500000004,
          "durationTicks": 57,
          "midi": 61,
          "name": "C#4",
          "ticks": 1380,
          "time": 3.1363605,
          "velocity": 0.7007874015748031
        },
        {
          "duration": 0.1295453249999996,
          "durationTicks": 57,
          "midi": 62,
          "name": "D4",
          "ticks": 1440,
          "time": 3.272724,
          "velocity": 0.7007874015748031
        },
        {
          "duration": 0.1295453249999996,
          "durationTicks": 57,
          "midi": 61,
          "name": "C#4",
          "ticks": 1500,
          "time": 3.4090875,
          "velocity": 0.7007874015748031
        },
        {
          "duration": 0.12954532500000004,
          "durationTicks": 57,
          "midi": 61,
          "name": "C#4",
          "ticks": 1560,
          "time": 3.545451,
          "velocity": 0.7007874015748031
        },
        {
          "duration": 0.12954532500000004,
          "durationTicks": 57,
          "midi": 61,
          "name": "C#4",
          "ticks": 1620,
          "time": 3.6818144999999998,
          "velocity": 0.7007874015748031
        },
        {
          "duration": 0.1295453249999996,
          "durationTicks": 57,
          "midi": 60,
          "name": "C4",
          "ticks": 1680,
          "time": 3.818178,
          "velocity": 0.7007874015748031
        },
        {
          "duration": 0.12954532500000004,
          "durationTicks": 57,
          "midi": 61,
          "name": "C#4",
          "ticks": 1740,
          "time": 3.9545415,
          "velocity": 0.7007874015748031
        },
        {
          "duration": 0.1295453249999996,
          "durationTicks": 57,
          "midi": 61,
          "name": "C#4",
          "ticks": 1800,
          "time": 4.090905,
          "velocity": 0.7007874015748031
        },
        {
          "duration": 0.1295453249999996,
          "durationTicks": 57,
          "midi": 61,
          "name": "C#4",
          "ticks": 1860,
          "time": 4.2272685,
          "velocity": 0.7007874015748031
        },
        {
          "duration": 0.1295453250000005,
          "durationTicks": 57,
          "midi": 61,
          "name": "C#4",
          "ticks": 1920,
          "time": 4.363632,
          "velocity": 0.7007874015748031
        },
        {
          "duration": 0.1295453250000005,
          "durationTicks": 57,
          "midi": 62,
          "name": "D4",
          "ticks": 2040,
          "time": 4.636359,
          "velocity": 0.7007874015748031
        },
        {
          "duration": 0.1295453250000005,
          "durationTicks": 57,
          "midi": 61,
          "name": "C#4",
          "ticks": 2100,
          "time": 4.7727224999999995,
          "velocity": 0.7007874015748031
        },
        {
          "duration": 0.1295453250000005,
          "durationTicks": 57,
          "midi": 61,
          "name": "C#4",
          "ticks": 2160,
          "time": 4.909086,
          "velocity": 0.7007874015748031
        },
        {
          "duration": 0.1295453250000005,
          "durationTicks": 57,
          "midi": 62,
          "name": "D4",
          "ticks": 2220,
          "time": 5.0454495,
          "velocity": 0.7007874015748031
        },
        {
          "duration": 0.1295453250000005,
          "durationTicks": 57,
          "midi": 61,
          "name": "C#4",
          "ticks": 2280,
          "time": 5.181813,
          "velocity": 0.7007874015748031
        },
        {
          "duration": 0.1295453250000005,
          "durationTicks": 57,
          "midi": 61,
          "name": "C#4",
          "ticks": 2340,
          "time": 5.3181765,
          "velocity": 0.7007874015748031
        },
        {
          "duration": 0.1295453250000005,
          "durationTicks": 57,
          "midi": 62,
          "name": "D4",
          "ticks": 2400,
          "time": 5.45454,
          "velocity": 0.7007874015748031
        },
        {
          "duration": 0.1295453250000005,
          "durationTicks": 57,
          "midi": 61,
          "name": "C#4",
          "ticks": 2460,
          "time": 5.5909035,
          "velocity": 0.7007874015748031
        },
        {
          "duration": 0.1295453249999996,
          "durationTicks": 57,
          "midi": 61,
          "name": "C#4",
          "ticks": 2520,
          "time": 5.727267,
          "velocity": 0.7007874015748031
        },
        {
          "duration": 0.1295453250000005,
          "durationTicks": 57,
          "midi": 61,
          "name": "C#4",
          "ticks": 2580,
          "time": 5.8636305,
          "velocity": 0.7007874015748031
        },
        {
          "duration": 0.1295453250000005,
          "durationTicks": 57,
          "midi": 60,
          "name": "C4",
          "ticks": 2640,
          "time": 5.999994,
          "velocity": 0.7007874015748031
        },
        {
          "duration": 0.1295453250000005,
          "durationTicks": 57,
          "midi": 61,
          "name": "C#4",
          "ticks": 2700,
          "time": 6.1363575,
          "velocity": 0.7007874015748031
        },
        {
          "duration": 0.1295453250000005,
          "durationTicks": 57,
          "midi": 61,
          "name": "C#4",
          "ticks": 2760,
          "time": 6.272721,
          "velocity": 0.7007874015748031
        },
        {
          "duration": 0.1295453250000005,
          "durationTicks": 57,
          "midi": 61,
          "name": "C#4",
          "ticks": 2820,
          "time": 6.4090845,
          "velocity": 0.7007874015748031
        },
        {
          "duration": 0.1295453250000005,
          "durationTicks": 57,
          "midi": 61,
          "name": "C#4",
          "ticks": 4800,
          "time": 10.90908,
          "velocity": 0.7007874015748031
        },
        {
          "duration": 0.1295453250000005,
          "durationTicks": 57,
          "midi": 62,
          "name": "D4",
          "ticks": 4920,
          "time": 11.181807,
          "velocity": 0.7007874015748031
        },
        {
          "duration": 0.1295453250000005,
          "durationTicks": 57,
          "midi": 61,
          "name": "C#4",
          "ticks": 4980,
          "time": 11.318170499999999,
          "velocity": 0.7007874015748031
        },
        {
          "duration": 0.1295453250000005,
          "durationTicks": 57,
          "midi": 61,
          "name": "C#4",
          "ticks": 5040,
          "time": 11.454534,
          "velocity": 0.7007874015748031
        },
        {
          "duration": 0.1295453250000005,
          "durationTicks": 57,
          "midi": 62,
          "name": "D4",
          "ticks": 5100,
          "time": 11.5908975,
          "velocity": 0.7007874015748031
        },
        {
          "duration": 0.1295453250000005,
          "durationTicks": 57,
          "midi": 61,
          "name": "C#4",
          "ticks": 5160,
          "time": 11.727261,
          "velocity": 0.7007874015748031
        },
        {
          "duration": 0.1295453250000005,
          "durationTicks": 57,
          "midi": 61,
          "name": "C#4",
          "ticks": 5220,
          "time": 11.8636245,
          "velocity": 0.7007874015748031
        },
        {
          "duration": 0.1295453250000005,
          "durationTicks": 57,
          "midi": 62,
          "name": "D4",
          "ticks": 5280,
          "time": 11.999988,
          "velocity": 0.7007874015748031
        },
        {
          "duration": 0.1295453250000005,
          "durationTicks": 57,
          "midi": 61,
          "name": "C#4",
          "ticks": 5340,
          "time": 12.1363515,
          "velocity": 0.7007874015748031
        },
        {
          "duration": 0.1295453250000005,
          "durationTicks": 57,
          "midi": 61,
          "name": "C#4",
          "ticks": 5400,
          "time": 12.272715,
          "velocity": 0.7007874015748031
        },
        {
          "duration": 0.1295453250000005,
          "durationTicks": 57,
          "midi": 61,
          "name": "C#4",
          "ticks": 5460,
          "time": 12.4090785,
          "velocity": 0.7007874015748031
        },
        {
          "duration": 0.1295453250000005,
          "durationTicks": 57,
          "midi": 60,
          "name": "C4",
          "ticks": 5520,
          "time": 12.545442,
          "velocity": 0.7007874015748031
        },
        {
          "duration": 0.1295453250000005,
          "durationTicks": 57,
          "midi": 61,
          "name": "C#4",
          "ticks": 5580,
          "time": 12.6818055,
          "velocity": 0.7007874015748031
        },
        {
          "duration": 0.1295453250000005,
          "durationTicks": 57,
          "midi": 61,
          "name": "C#4",
          "ticks": 5640,
          "time": 12.818169,
          "velocity": 0.7007874015748031
        },
        {
          "duration": 0.1295453250000005,
          "durationTicks": 57,
          "midi": 61,
          "name": "C#4",
          "ticks": 5700,
          "time": 12.9545325,
          "velocity": 0.7007874015748031
        },
        {
          "duration": 0.1295453249999987,
          "durationTicks": 57,
          "midi": 61,
          "name": "C#4",
          "ticks": 5760,
          "time": 13.090896,
          "velocity": 0.7007874015748031
        },
        {
          "duration": 0.1295453250000005,
          "durationTicks": 57,
          "midi": 62,
          "name": "D4",
          "ticks": 5880,
          "time": 13.363623,
          "velocity": 0.7007874015748031
        },
        {
          "duration": 0.1295453250000005,
          "durationTicks": 57,
          "midi": 61,
          "name": "C#4",
          "ticks": 5940,
          "time": 13.4999865,
          "velocity": 0.7007874015748031
        },
        {
          "duration": 0.1295453250000005,
          "durationTicks": 57,
          "midi": 61,
          "name": "C#4",
          "ticks": 6000,
          "time": 13.63635,
          "velocity": 0.7007874015748031
        },
        {
          "duration": 0.1295453250000005,
          "durationTicks": 57,
          "midi": 62,
          "name": "D4",
          "ticks": 6060,
          "time": 13.7727135,
          "velocity": 0.7007874015748031
        },
        {
          "duration": 0.1295453250000005,
          "durationTicks": 57,
          "midi": 61,
          "name": "C#4",
          "ticks": 6120,
          "time": 13.909077,
          "velocity": 0.7007874015748031
        },
        {
          "duration": 0.1295453250000005,
          "durationTicks": 57,
          "midi": 61,
          "name": "C#4",
          "ticks": 6180,
          "time": 14.0454405,
          "velocity": 0.7007874015748031
        },
        {
          "duration": 0.1295453250000005,
          "durationTicks": 57,
          "midi": 62,
          "name": "D4",
          "ticks": 6240,
          "time": 14.181804,
          "velocity": 0.7007874015748031
        },
        {
          "duration": 0.1295453250000005,
          "durationTicks": 57,
          "midi": 61,
          "name": "C#4",
          "ticks": 6300,
          "time": 14.3181675,
          "velocity": 0.7007874015748031
        },
        {
          "duration": 0.1295453250000005,
          "durationTicks": 57,
          "midi": 61,
          "name": "C#4",
          "ticks": 6360,
          "time": 14.454531,
          "velocity": 0.7007874015748031
        },
        {
          "duration": 0.1295453250000005,
          "durationTicks": 57,
          "midi": 61,
          "name": "C#4",
          "ticks": 6420,
          "time": 14.5908945,
          "velocity": 0.7007874015748031
        },
        {
          "duration": 0.1295453250000005,
          "durationTicks": 57,
          "midi": 60,
          "name": "C4",
          "ticks": 6480,
          "time": 14.727257999999999,
          "velocity": 0.7007874015748031
        },
        {
          "duration": 0.1295453249999987,
          "durationTicks": 57,
          "midi": 61,
          "name": "C#4",
          "ticks": 6540,
          "time": 14.8636215,
          "velocity": 0.7007874015748031
        },
        {
          "duration": 0.1295453250000005,
          "durationTicks": 57,
          "midi": 61,
          "name": "C#4",
          "ticks": 6600,
          "time": 14.999985,
          "velocity": 0.7007874015748031
        },
        {
          "duration": 0.1295453250000005,
          "durationTicks": 57,
          "midi": 61,
          "name": "C#4",
          "ticks": 6660,
          "time": 15.1363485,
          "velocity": 0.7007874015748031
        },
        {
          "duration": 0.1295453249999987,
          "durationTicks": 57,
          "midi": 61,
          "name": "C#4",
          "ticks": 8640,
          "time": 19.636344,
          "velocity": 0.7007874015748031
        },
        {
          "duration": 0.1295453249999987,
          "durationTicks": 57,
          "midi": 62,
          "name": "D4",
          "ticks": 8760,
          "time": 19.909071,
          "velocity": 0.7007874015748031
        },
        {
          "duration": 0.1295453249999987,
          "durationTicks": 57,
          "midi": 61,
          "name": "C#4",
          "ticks": 8820,
          "time": 20.0454345,
          "velocity": 0.7007874015748031
        },
        {
          "duration": 0.1295453249999987,
          "durationTicks": 57,
          "midi": 61,
          "name": "C#4",
          "ticks": 8880,
          "time": 20.181798,
          "velocity": 0.7007874015748031
        },
        {
          "duration": 0.1295453249999987,
          "durationTicks": 57,
          "midi": 62,
          "name": "D4",
          "ticks": 8940,
          "time": 20.3181615,
          "velocity": 0.7007874015748031
        },
        {
          "duration": 0.1295453249999987,
          "durationTicks": 57,
          "midi": 61,
          "name": "C#4",
          "ticks": 9000,
          "time": 20.454525,
          "velocity": 0.7007874015748031
        },
        {
          "duration": 0.1295453249999987,
          "durationTicks": 57,
          "midi": 61,
          "name": "C#4",
          "ticks": 9060,
          "time": 20.5908885,
          "velocity": 0.7007874015748031
        },
        {
          "duration": 0.1295453249999987,
          "durationTicks": 57,
          "midi": 62,
          "name": "D4",
          "ticks": 9120,
          "time": 20.727252,
          "velocity": 0.7007874015748031
        },
        {
          "duration": 0.1295453249999987,
          "durationTicks": 57,
          "midi": 61,
          "name": "C#4",
          "ticks": 9180,
          "time": 20.863615499999998,
          "velocity": 0.7007874015748031
        },
        {
          "duration": 0.1295453249999987,
          "durationTicks": 57,
          "midi": 61,
          "name": "C#4",
          "ticks": 9240,
          "time": 20.999979,
          "velocity": 0.7007874015748031
        },
        {
          "duration": 0.12954532499999516,
          "durationTicks": 57,
          "midi": 61,
          "name": "C#4",
          "ticks": 9300,
          "time": 21.1363425,
          "velocity": 0.7007874015748031
        },
        {
          "duration": 0.1295453249999987,
          "durationTicks": 57,
          "midi": 60,
          "name": "C4",
          "ticks": 9360,
          "time": 21.272706,
          "velocity": 0.7007874015748031
        },
        {
          "duration": 0.1295453249999987,
          "durationTicks": 57,
          "midi": 61,
          "name": "C#4",
          "ticks": 9420,
          "time": 21.4090695,
          "velocity": 0.7007874015748031
        },
        {
          "duration": 0.1295453249999987,
          "durationTicks": 57,
          "midi": 61,
          "name": "C#4",
          "ticks": 9480,
          "time": 21.545433,
          "velocity": 0.7007874015748031
        },
        {
          "duration": 0.1295453249999987,
          "durationTicks": 57,
          "midi": 61,
          "name": "C#4",
          "ticks": 9540,
          "time": 21.6817965,
          "velocity": 0.7007874015748031
        },
        {
          "duration": 0.1295453249999987,
          "durationTicks": 57,
          "midi": 61,
          "name": "C#4",
          "ticks": 9600,
          "time": 21.81816,
          "velocity": 0.7007874015748031
        },
        {
          "duration": 0.1295453249999987,
          "durationTicks": 57,
          "midi": 62,
          "name": "D4",
          "ticks": 9720,
          "time": 22.090887,
          "velocity": 0.7007874015748031
        },
        {
          "duration": 0.1295453249999987,
          "durationTicks": 57,
          "midi": 61,
          "name": "C#4",
          "ticks": 9780,
          "time": 22.2272505,
          "velocity": 0.7007874015748031
        },
        {
          "duration": 0.1295453249999987,
          "durationTicks": 57,
          "midi": 61,
          "name": "C#4",
          "ticks": 9840,
          "time": 22.363614,
          "velocity": 0.7007874015748031
        },
        {
          "duration": 0.1295453249999987,
          "durationTicks": 57,
          "midi": 62,
          "name": "D4",
          "ticks": 9900,
          "time": 22.4999775,
          "velocity": 0.7007874015748031
        },
        {
          "duration": 0.1295453249999987,
          "durationTicks": 57,
          "midi": 61,
          "name": "C#4",
          "ticks": 9960,
          "time": 22.636340999999998,
          "velocity": 0.7007874015748031
        },
        {
          "duration": 0.1295453249999987,
          "durationTicks": 57,
          "midi": 61,
          "name": "C#4",
          "ticks": 10020,
          "time": 22.7727045,
          "velocity": 0.7007874015748031
        },
        {
          "duration": 0.12954532499999516,
          "durationTicks": 57,
          "midi": 62,
          "name": "D4",
          "ticks": 10080,
          "time": 22.909068,
          "velocity": 0.7007874015748031
        },
        {
          "duration": 0.1295453249999987,
          "durationTicks": 57,
          "midi": 61,
          "name": "C#4",
          "ticks": 10140,
          "time": 23.0454315,
          "velocity": 0.7007874015748031
        },
        {
          "duration": 0.1295453249999987,
          "durationTicks": 57,
          "midi": 61,
          "name": "C#4",
          "ticks": 10200,
          "time": 23.181795,
          "velocity": 0.7007874015748031
        },
        {
          "duration": 0.1295453249999987,
          "durationTicks": 57,
          "midi": 61,
          "name": "C#4",
          "ticks": 10260,
          "time": 23.3181585,
          "velocity": 0.7007874015748031
        },
        {
          "duration": 0.1295453249999987,
          "durationTicks": 57,
          "midi": 60,
          "name": "C4",
          "ticks": 10320,
          "time": 23.454522,
          "velocity": 0.7007874015748031
        },
        {
          "duration": 0.1295453249999987,
          "durationTicks": 57,
          "midi": 61,
          "name": "C#4",
          "ticks": 10380,
          "time": 23.5908855,
          "velocity": 0.7007874015748031
        },
        {
          "duration": 0.1295453249999987,
          "durationTicks": 57,
          "midi": 61,
          "name": "C#4",
          "ticks": 10440,
          "time": 23.727249,
          "velocity": 0.7007874015748031
        },
        {
          "duration": 0.1295453249999987,
          "durationTicks": 57,
          "midi": 61,
          "name": "C#4",
          "ticks": 10500,
          "time": 23.8636125,
          "velocity": 0.7007874015748031
        },
        {
          "duration": 0.1295453249999987,
          "durationTicks": 57,
          "midi": 61,
          "name": "C#4",
          "ticks": 12480,
          "time": 28.363608,
          "velocity": 0.7007874015748031
        },
        {
          "duration": 0.1295453249999987,
          "durationTicks": 57,
          "midi": 62,
          "name": "D4",
          "ticks": 12600,
          "time": 28.636335,
          "velocity": 0.7007874015748031
        },
        {
          "duration": 0.1295453249999987,
          "durationTicks": 57,
          "midi": 61,
          "name": "C#4",
          "ticks": 12660,
          "time": 28.7726985,
          "velocity": 0.7007874015748031
        },
        {
          "duration": 0.1295453249999987,
          "durationTicks": 57,
          "midi": 61,
          "name": "C#4",
          "ticks": 12720,
          "time": 28.909062,
          "velocity": 0.7007874015748031
        },
        {
          "duration": 0.1295453249999987,
          "durationTicks": 57,
          "midi": 62,
          "name": "D4",
          "ticks": 12780,
          "time": 29.0454255,
          "velocity": 0.7007874015748031
        },
        {
          "duration": 0.1295453249999987,
          "durationTicks": 57,
          "midi": 61,
          "name": "C#4",
          "ticks": 12840,
          "time": 29.181789,
          "velocity": 0.7007874015748031
        },
        {
          "duration": 0.1295453249999987,
          "durationTicks": 57,
          "midi": 61,
          "name": "C#4",
          "ticks": 12900,
          "time": 29.3181525,
          "velocity": 0.7007874015748031
        },
        {
          "duration": 0.1295453249999987,
          "durationTicks": 57,
          "midi": 62,
          "name": "D4",
          "ticks": 12960,
          "time": 29.454515999999998,
          "velocity": 0.7007874015748031
        },
        {
          "duration": 0.1295453249999987,
          "durationTicks": 57,
          "midi": 61,
          "name": "C#4",
          "ticks": 13020,
          "time": 29.5908795,
          "velocity": 0.7007874015748031
        },
        {
          "duration": 0.12954532499999516,
          "durationTicks": 57,
          "midi": 61,
          "name": "C#4",
          "ticks": 13080,
          "time": 29.727243,
          "velocity": 0.7007874015748031
        },
        {
          "duration": 0.1295453249999987,
          "durationTicks": 57,
          "midi": 61,
          "name": "C#4",
          "ticks": 13140,
          "time": 29.8636065,
          "velocity": 0.7007874015748031
        },
        {
          "duration": 0.1295453249999987,
          "durationTicks": 57,
          "midi": 60,
          "name": "C4",
          "ticks": 13200,
          "time": 29.99997,
          "velocity": 0.7007874015748031
        },
        {
          "duration": 0.1295453249999987,
          "durationTicks": 57,
          "midi": 61,
          "name": "C#4",
          "ticks": 13260,
          "time": 30.1363335,
          "velocity": 0.7007874015748031
        },
        {
          "duration": 0.1295453249999987,
          "durationTicks": 57,
          "midi": 61,
          "name": "C#4",
          "ticks": 13320,
          "time": 30.272697,
          "velocity": 0.7007874015748031
        },
        {
          "duration": 0.1295453249999987,
          "durationTicks": 57,
          "midi": 61,
          "name": "C#4",
          "ticks": 13380,
          "time": 30.4090605,
          "velocity": 0.7007874015748031
        },
        {
          "duration": 0.1295453249999987,
          "durationTicks": 57,
          "midi": 61,
          "name": "C#4",
          "ticks": 13440,
          "time": 30.545424,
          "velocity": 0.7007874015748031
        },
        {
          "duration": 0.1295453249999987,
          "durationTicks": 57,
          "midi": 62,
          "name": "D4",
          "ticks": 13560,
          "time": 30.818151,
          "velocity": 0.7007874015748031
        },
        {
          "duration": 0.1295453249999987,
          "durationTicks": 57,
          "midi": 61,
          "name": "C#4",
          "ticks": 13620,
          "time": 30.9545145,
          "velocity": 0.7007874015748031
        },
        {
          "duration": 0.1295453249999987,
          "durationTicks": 57,
          "midi": 61,
          "name": "C#4",
          "ticks": 13680,
          "time": 31.090878,
          "velocity": 0.7007874015748031
        },
        {
          "duration": 0.1295453249999987,
          "durationTicks": 57,
          "midi": 62,
          "name": "D4",
          "ticks": 13740,
          "time": 31.227241499999998,
          "velocity": 0.7007874015748031
        },
        {
          "duration": 0.1295453249999987,
          "durationTicks": 57,
          "midi": 61,
          "name": "C#4",
          "ticks": 13800,
          "time": 31.363605,
          "velocity": 0.7007874015748031
        },
        {
          "duration": 0.12954532499999516,
          "durationTicks": 57,
          "midi": 61,
          "name": "C#4",
          "ticks": 13860,
          "time": 31.4999685,
          "velocity": 0.7007874015748031
        },
        {
          "duration": 0.1295453249999987,
          "durationTicks": 57,
          "midi": 62,
          "name": "D4",
          "ticks": 13920,
          "time": 31.636332,
          "velocity": 0.7007874015748031
        },
        {
          "duration": 0.1295453249999987,
          "durationTicks": 57,
          "midi": 61,
          "name": "C#4",
          "ticks": 13980,
          "time": 31.7726955,
          "velocity": 0.7007874015748031
        },
        {
          "duration": 0.12954532500000226,
          "durationTicks": 57,
          "midi": 61,
          "name": "C#4",
          "ticks": 14040,
          "time": 31.909059,
          "velocity": 0.7007874015748031
        },
        {
          "duration": 0.12954532499999516,
          "durationTicks": 57,
          "midi": 61,
          "name": "C#4",
          "ticks": 14100,
          "time": 32.0454225,
          "velocity": 0.7007874015748031
        },
        {
          "duration": 0.12954532499999516,
          "durationTicks": 57,
          "midi": 60,
          "name": "C4",
          "ticks": 14160,
          "time": 32.181786,
          "velocity": 0.7007874015748031
        },
        {
          "duration": 0.12954532500000226,
          "durationTicks": 57,
          "midi": 61,
          "name": "C#4",
          "ticks": 14220,
          "time": 32.3181495,
          "velocity": 0.7007874015748031
        },
        {
          "duration": 0.12954532500000226,
          "durationTicks": 57,
          "midi": 61,
          "name": "C#4",
          "ticks": 14280,
          "time": 32.454513,
          "velocity": 0.7007874015748031
        },
        {
          "duration": 0.12954532499999516,
          "durationTicks": 57,
          "midi": 61,
          "name": "C#4",
          "ticks": 14340,
          "time": 32.5908765,
          "velocity": 0.7007874015748031
        },
        {
          "duration": 0.12954532499999516,
          "durationTicks": 57,
          "midi": 61,
          "name": "C#4",
          "ticks": 14400,
          "time": 32.72724,
          "velocity": 0.7007874015748031
        },
        {
          "duration": 0.12954532500000226,
          "durationTicks": 57,
          "midi": 62,
          "name": "D4",
          "ticks": 14520,
          "time": 32.999967,
          "velocity": 0.7007874015748031
        },
        {
          "duration": 0.12954532499999516,
          "durationTicks": 57,
          "midi": 61,
          "name": "C#4",
          "ticks": 14580,
          "time": 33.1363305,
          "velocity": 0.7007874015748031
        },
        {
          "duration": 0.12954532499999516,
          "durationTicks": 57,
          "midi": 61,
          "name": "C#4",
          "ticks": 14640,
          "time": 33.272694,
          "velocity": 0.7007874015748031
        },
        {
          "duration": 0.12954532499999516,
          "durationTicks": 57,
          "midi": 62,
          "name": "D4",
          "ticks": 14700,
          "time": 33.4090575,
          "velocity": 0.7007874015748031
        },
        {
          "duration": 0.12954532500000226,
          "durationTicks": 57,
          "midi": 61,
          "name": "C#4",
          "ticks": 14760,
          "time": 33.545421,
          "velocity": 0.7007874015748031
        },
        {
          "duration": 0.12954532500000226,
          "durationTicks": 57,
          "midi": 61,
          "name": "C#4",
          "ticks": 14820,
          "time": 33.6817845,
          "velocity": 0.7007874015748031
        },
        {
          "duration": 0.12954532500000226,
          "durationTicks": 57,
          "midi": 61,
          "name": "C#4",
          "ticks": 16800,
          "time": 38.181779999999996,
          "velocity": 0.7007874015748031
        },
        {
          "duration": 0.12954532499999516,
          "durationTicks": 57,
          "midi": 62,
          "name": "D4",
          "ticks": 16920,
          "time": 38.454507,
          "velocity": 0.7007874015748031
        },
        {
          "duration": 0.12954532499999516,
          "durationTicks": 57,
          "midi": 61,
          "name": "C#4",
          "ticks": 16980,
          "time": 38.5908705,
          "velocity": 0.7007874015748031
        },
        {
          "duration": 0.12954532499999516,
          "durationTicks": 57,
          "midi": 61,
          "name": "C#4",
          "ticks": 17040,
          "time": 38.727234,
          "velocity": 0.7007874015748031
        },
        {
          "duration": 0.12954532500000226,
          "durationTicks": 57,
          "midi": 62,
          "name": "D4",
          "ticks": 17100,
          "time": 38.8635975,
          "velocity": 0.7007874015748031
        },
        {
          "duration": 0.12954532500000226,
          "durationTicks": 57,
          "midi": 61,
          "name": "C#4",
          "ticks": 17160,
          "time": 38.999961,
          "velocity": 0.7007874015748031
        },
        {
          "duration": 0.12954532499999516,
          "durationTicks": 57,
          "midi": 61,
          "name": "C#4",
          "ticks": 17220,
          "time": 39.1363245,
          "velocity": 0.7007874015748031
        },
        {
          "duration": 0.12954532499999516,
          "durationTicks": 57,
          "midi": 62,
          "name": "D4",
          "ticks": 17280,
          "time": 39.272688,
          "velocity": 0.7007874015748031
        },
        {
          "duration": 0.12954532500000226,
          "durationTicks": 57,
          "midi": 61,
          "name": "C#4",
          "ticks": 17340,
          "time": 39.4090515,
          "velocity": 0.7007874015748031
        },
        {
          "duration": 0.12954532500000226,
          "durationTicks": 57,
          "midi": 61,
          "name": "C#4",
          "ticks": 17400,
          "time": 39.545415,
          "velocity": 0.7007874015748031
        },
        {
          "duration": 0.12954532499999516,
          "durationTicks": 57,
          "midi": 61,
          "name": "C#4",
          "ticks": 17460,
          "time": 39.6817785,
          "velocity": 0.7007874015748031
        },
        {
          "duration": 0.12954532499999516,
          "durationTicks": 57,
          "midi": 60,
          "name": "C4",
          "ticks": 17520,
          "time": 39.818142,
          "velocity": 0.7007874015748031
        },
        {
          "duration": 0.12954532500000226,
          "durationTicks": 57,
          "midi": 61,
          "name": "C#4",
          "ticks": 17580,
          "time": 39.954505499999996,
          "velocity": 0.7007874015748031
        },
        {
          "duration": 0.12954532500000226,
          "durationTicks": 57,
          "midi": 61,
          "name": "C#4",
          "ticks": 17640,
          "time": 40.090869,
          "velocity": 0.7007874015748031
        },
        {
          "duration": 0.12954532499999516,
          "durationTicks": 57,
          "midi": 61,
          "name": "C#4",
          "ticks": 17700,
          "time": 40.2272325,
          "velocity": 0.7007874015748031
        },
        {
          "duration": 0.12954532499999516,
          "durationTicks": 57,
          "midi": 61,
          "name": "C#4",
          "ticks": 17760,
          "time": 40.363596,
          "velocity": 0.7007874015748031
        },
        {
          "duration": 0.12954532500000226,
          "durationTicks": 57,
          "midi": 62,
          "name": "D4",
          "ticks": 17880,
          "time": 40.636323,
          "velocity": 0.7007874015748031
        },
        {
          "duration": 0.12954532500000226,
          "durationTicks": 57,
          "midi": 61,
          "name": "C#4",
          "ticks": 17940,
          "time": 40.7726865,
          "velocity": 0.7007874015748031
        },
        {
          "duration": 0.12954532499999516,
          "durationTicks": 57,
          "midi": 61,
          "name": "C#4",
          "ticks": 18000,
          "time": 40.90905,
          "velocity": 0.7007874015748031
        },
        {
          "duration": 0.12954532499999516,
          "durationTicks": 57,
          "midi": 62,
          "name": "D4",
          "ticks": 18060,
          "time": 41.0454135,
          "velocity": 0.7007874015748031
        },
        {
          "duration": 0.12954532500000226,
          "durationTicks": 57,
          "midi": 61,
          "name": "C#4",
          "ticks": 18120,
          "time": 41.181777,
          "velocity": 0.7007874015748031
        },
        {
          "duration": 0.12954532500000226,
          "durationTicks": 57,
          "midi": 61,
          "name": "C#4",
          "ticks": 18180,
          "time": 41.3181405,
          "velocity": 0.7007874015748031
        },
        {
          "duration": 0.12954532499999516,
          "durationTicks": 57,
          "midi": 62,
          "name": "D4",
          "ticks": 18240,
          "time": 41.454504,
          "velocity": 0.7007874015748031
        },
        {
          "duration": 0.12954532499999516,
          "durationTicks": 57,
          "midi": 61,
          "name": "C#4",
          "ticks": 18300,
          "time": 41.5908675,
          "velocity": 0.7007874015748031
        },
        {
          "duration": 0.12954532500000226,
          "durationTicks": 57,
          "midi": 61,
          "name": "C#4",
          "ticks": 18360,
          "time": 41.727230999999996,
          "velocity": 0.7007874015748031
        },
        {
          "duration": 0.12954532500000226,
          "durationTicks": 57,
          "midi": 61,
          "name": "C#4",
          "ticks": 18420,
          "time": 41.8635945,
          "velocity": 0.7007874015748031
        },
        {
          "duration": 0.12954532499999516,
          "durationTicks": 57,
          "midi": 60,
          "name": "C4",
          "ticks": 18480,
          "time": 41.999958,
          "velocity": 0.7007874015748031
        },
        {
          "duration": 0.12954532499999516,
          "durationTicks": 57,
          "midi": 61,
          "name": "C#4",
          "ticks": 18540,
          "time": 42.1363215,
          "velocity": 0.7007874015748031
        },
        {
          "duration": 0.12954532499999516,
          "durationTicks": 57,
          "midi": 61,
          "name": "C#4",
          "ticks": 18600,
          "time": 42.272685,
          "velocity": 0.7007874015748031
        },
        {
          "duration": 0.12954532500000226,
          "durationTicks": 57,
          "midi": 61,
          "name": "C#4",
          "ticks": 18660,
          "time": 42.4090485,
          "velocity": 0.7007874015748031
        },
        {
          "duration": 0.12954532500000226,
          "durationTicks": 57,
          "midi": 62,
          "name": "D4",
          "ticks": 18720,
          "time": 42.545412,
          "velocity": 0.7007874015748031
        },
        {
          "duration": 0.12954532499999516,
          "durationTicks": 57,
          "midi": 61,
          "name": "C#4",
          "ticks": 18780,
          "time": 42.6817755,
          "velocity": 0.7007874015748031
        },
        {
          "duration": 0.12954532499999516,
          "durationTicks": 57,
          "midi": 61,
          "name": "C#4",
          "ticks": 18840,
          "time": 42.818139,
          "velocity": 0.7007874015748031
        },
        {
          "duration": 0.12954532500000226,
          "durationTicks": 57,
          "midi": 61,
          "name": "C#4",
          "ticks": 18900,
          "time": 42.9545025,
          "velocity": 0.7007874015748031
        },
        {
          "duration": 0.12954532500000226,
          "durationTicks": 57,
          "midi": 60,
          "name": "C4",
          "ticks": 18960,
          "time": 43.090866,
          "velocity": 0.7007874015748031
        },
        {
          "duration": 0.12954532499999516,
          "durationTicks": 57,
          "midi": 61,
          "name": "C#4",
          "ticks": 19020,
          "time": 43.2272295,
          "velocity": 0.7007874015748031
        },
        {
          "duration": 0.12954532499999516,
          "durationTicks": 57,
          "midi": 61,
          "name": "C#4",
          "ticks": 19080,
          "time": 43.363593,
          "velocity": 0.7007874015748031
        },
        {
          "duration": 0.12954532500000226,
          "durationTicks": 57,
          "midi": 61,
          "name": "C#4",
          "ticks": 19140,
          "time": 43.499956499999996,
          "velocity": 0.7007874015748031
        },
        {
          "duration": 0.12954532499999516,
          "durationTicks": 57,
          "midi": 61,
          "name": "C#4",
          "ticks": 21600,
          "time": 49.09086,
          "velocity": 0.7007874015748031
        },
        {
          "duration": 0.12954532499999516,
          "durationTicks": 57,
          "midi": 62,
          "name": "D4",
          "ticks": 21720,
          "time": 49.363587,
          "velocity": 0.7007874015748031
        },
        {
          "duration": 0.12954532500000226,
          "durationTicks": 57,
          "midi": 61,
          "name": "C#4",
          "ticks": 21780,
          "time": 49.4999505,
          "velocity": 0.7007874015748031
        },
        {
          "duration": 0.12954532500000226,
          "durationTicks": 57,
          "midi": 61,
          "name": "C#4",
          "ticks": 21840,
          "time": 49.636314,
          "velocity": 0.7007874015748031
        },
        {
          "duration": 0.12954532499999516,
          "durationTicks": 57,
          "midi": 62,
          "name": "D4",
          "ticks": 21900,
          "time": 49.7726775,
          "velocity": 0.7007874015748031
        },
        {
          "duration": 0.12954532499999516,
          "durationTicks": 57,
          "midi": 61,
          "name": "C#4",
          "ticks": 21960,
          "time": 49.909041,
          "velocity": 0.7007874015748031
        },
        {
          "duration": 0.12954532500000226,
          "durationTicks": 57,
          "midi": 61,
          "name": "C#4",
          "ticks": 22020,
          "time": 50.0454045,
          "velocity": 0.7007874015748031
        },
        {
          "duration": 0.12954532500000226,
          "durationTicks": 57,
          "midi": 62,
          "name": "D4",
          "ticks": 22080,
          "time": 50.181768,
          "velocity": 0.7007874015748031
        },
        {
          "duration": 0.12954532499999516,
          "durationTicks": 57,
          "midi": 61,
          "name": "C#4",
          "ticks": 22140,
          "time": 50.3181315,
          "velocity": 0.7007874015748031
        },
        {
          "duration": 0.12954532499999516,
          "durationTicks": 57,
          "midi": 61,
          "name": "C#4",
          "ticks": 22200,
          "time": 50.454495,
          "velocity": 0.7007874015748031
        },
        {
          "duration": 0.12954532500000226,
          "durationTicks": 57,
          "midi": 61,
          "name": "C#4",
          "ticks": 22260,
          "time": 50.590858499999996,
          "velocity": 0.7007874015748031
        },
        {
          "duration": 0.12954532500000226,
          "durationTicks": 57,
          "midi": 60,
          "name": "C4",
          "ticks": 22320,
          "time": 50.727222,
          "velocity": 0.7007874015748031
        },
        {
          "duration": 0.12954532499999516,
          "durationTicks": 57,
          "midi": 61,
          "name": "C#4",
          "ticks": 22380,
          "time": 50.8635855,
          "velocity": 0.7007874015748031
        },
        {
          "duration": 0.12954532499999516,
          "durationTicks": 57,
          "midi": 61,
          "name": "C#4",
          "ticks": 22440,
          "time": 50.999949,
          "velocity": 0.7007874015748031
        },
        {
          "duration": 0.12954532499999516,
          "durationTicks": 57,
          "midi": 61,
          "name": "C#4",
          "ticks": 22500,
          "time": 51.1363125,
          "velocity": 0.7007874015748031
        },
        {
          "duration": 0.12954532500000226,
          "durationTicks": 57,
          "midi": 61,
          "name": "C#4",
          "ticks": 22560,
          "time": 51.272676,
          "velocity": 0.7007874015748031
        },
        {
          "duration": 0.12954532499999516,
          "durationTicks": 57,
          "midi": 62,
          "name": "D4",
          "ticks": 22680,
          "time": 51.545403,
          "velocity": 0.7007874015748031
        },
        {
          "duration": 0.12954532499999516,
          "durationTicks": 57,
          "midi": 61,
          "name": "C#4",
          "ticks": 22740,
          "time": 51.6817665,
          "velocity": 0.7007874015748031
        },
        {
          "duration": 0.12954532500000226,
          "durationTicks": 57,
          "midi": 61,
          "name": "C#4",
          "ticks": 22800,
          "time": 51.81813,
          "velocity": 0.7007874015748031
        },
        {
          "duration": 0.12954532500000226,
          "durationTicks": 57,
          "midi": 62,
          "name": "D4",
          "ticks": 22860,
          "time": 51.9544935,
          "velocity": 0.7007874015748031
        },
        {
          "duration": 0.12954532499999516,
          "durationTicks": 57,
          "midi": 61,
          "name": "C#4",
          "ticks": 22920,
          "time": 52.090857,
          "velocity": 0.7007874015748031
        },
        {
          "duration": 0.12954532499999516,
          "durationTicks": 57,
          "midi": 61,
          "name": "C#4",
          "ticks": 22980,
          "time": 52.2272205,
          "velocity": 0.7007874015748031
        },
        {
          "duration": 0.12954532499999516,
          "durationTicks": 57,
          "midi": 62,
          "name": "D4",
          "ticks": 23040,
          "time": 52.363584,
          "velocity": 0.7007874015748031
        },
        {
          "duration": 0.12954532500000226,
          "durationTicks": 57,
          "midi": 61,
          "name": "C#4",
          "ticks": 23100,
          "time": 52.4999475,
          "velocity": 0.7007874015748031
        },
        {
          "duration": 0.12954532500000226,
          "durationTicks": 57,
          "midi": 61,
          "name": "C#4",
          "ticks": 23160,
          "time": 52.636311,
          "velocity": 0.7007874015748031
        },
        {
          "duration": 0.12954532499999516,
          "durationTicks": 57,
          "midi": 61,
          "name": "C#4",
          "ticks": 23220,
          "time": 52.7726745,
          "velocity": 0.7007874015748031
        },
        {
          "duration": 0.12954532499999516,
          "durationTicks": 57,
          "midi": 60,
          "name": "C4",
          "ticks": 23280,
          "time": 52.909038,
          "velocity": 0.7007874015748031
        },
        {
          "duration": 0.12954532500000226,
          "durationTicks": 57,
          "midi": 61,
          "name": "C#4",
          "ticks": 23340,
          "time": 53.0454015,
          "velocity": 0.7007874015748031
        },
        {
          "duration": 0.12954532500000226,
          "durationTicks": 57,
          "midi": 61,
          "name": "C#4",
          "ticks": 23400,
          "time": 53.181765,
          "velocity": 0.7007874015748031
        },
        {
          "duration": 0.12954532499999516,
          "durationTicks": 57,
          "midi": 61,
          "name": "C#4",
          "ticks": 23460,
          "time": 53.3181285,
          "velocity": 0.7007874015748031
        },
        {
          "duration": 0.12954532500000226,
          "durationTicks": 57,
          "midi": 61,
          "name": "C#4",
          "ticks": 25440,
          "time": 57.818124,
          "velocity": 0.7007874015748031
        },
        {
          "duration": 0.12954532499999516,
          "durationTicks": 57,
          "midi": 62,
          "name": "D4",
          "ticks": 25560,
          "time": 58.090851,
          "velocity": 0.7007874015748031
        },
        {
          "duration": 0.12954532499999516,
          "durationTicks": 57,
          "midi": 61,
          "name": "C#4",
          "ticks": 25620,
          "time": 58.2272145,
          "velocity": 0.7007874015748031
        },
        {
          "duration": 0.12954532500000226,
          "durationTicks": 57,
          "midi": 61,
          "name": "C#4",
          "ticks": 25680,
          "time": 58.363578,
          "velocity": 0.7007874015748031
        },
        {
          "duration": 0.12954532500000226,
          "durationTicks": 57,
          "midi": 62,
          "name": "D4",
          "ticks": 25740,
          "time": 58.4999415,
          "velocity": 0.7007874015748031
        },
        {
          "duration": 0.12954532499999516,
          "durationTicks": 57,
          "midi": 61,
          "name": "C#4",
          "ticks": 25800,
          "time": 58.636305,
          "velocity": 0.7007874015748031
        },
        {
          "duration": 0.12954532499999516,
          "durationTicks": 57,
          "midi": 61,
          "name": "C#4",
          "ticks": 25860,
          "time": 58.7726685,
          "velocity": 0.7007874015748031
        },
        {
          "duration": 0.12954532500000226,
          "durationTicks": 57,
          "midi": 62,
          "name": "D4",
          "ticks": 25920,
          "time": 58.909031999999996,
          "velocity": 0.7007874015748031
        },
        {
          "duration": 0.12954532500000226,
          "durationTicks": 57,
          "midi": 61,
          "name": "C#4",
          "ticks": 25980,
          "time": 59.0453955,
          "velocity": 0.7007874015748031
        },
        {
          "duration": 0.12954532499999516,
          "durationTicks": 57,
          "midi": 61,
          "name": "C#4",
          "ticks": 26040,
          "time": 59.181759,
          "velocity": 0.7007874015748031
        },
        {
          "duration": 0.12954532499999516,
          "durationTicks": 57,
          "midi": 61,
          "name": "C#4",
          "ticks": 26100,
          "time": 59.3181225,
          "velocity": 0.7007874015748031
        },
        {
          "duration": 0.12954532499999516,
          "durationTicks": 57,
          "midi": 60,
          "name": "C4",
          "ticks": 26160,
          "time": 59.454486,
          "velocity": 0.7007874015748031
        },
        {
          "duration": 0.12954532500000226,
          "durationTicks": 57,
          "midi": 61,
          "name": "C#4",
          "ticks": 26220,
          "time": 59.5908495,
          "velocity": 0.7007874015748031
        },
        {
          "duration": 0.12954532500000226,
          "durationTicks": 57,
          "midi": 61,
          "name": "C#4",
          "ticks": 26280,
          "time": 59.727213,
          "velocity": 0.7007874015748031
        },
        {
          "duration": 0.12954532499999516,
          "durationTicks": 57,
          "midi": 61,
          "name": "C#4",
          "ticks": 26340,
          "time": 59.8635765,
          "velocity": 0.7007874015748031
        },
        {
          "duration": 0.12954532499999516,
          "durationTicks": 57,
          "midi": 61,
          "name": "C#4",
          "ticks": 26400,
          "time": 59.99994,
          "velocity": 0.7007874015748031
        },
        {
          "duration": 0.12954532500000226,
          "durationTicks": 57,
          "midi": 62,
          "name": "D4",
          "ticks": 26520,
          "time": 60.272667,
          "velocity": 0.7007874015748031
        },
        {
          "duration": 0.12954532499999516,
          "durationTicks": 57,
          "midi": 61,
          "name": "C#4",
          "ticks": 26580,
          "time": 60.4090305,
          "velocity": 0.7007874015748031
        },
        {
          "duration": 0.12954532499999516,
          "durationTicks": 57,
          "midi": 61,
          "name": "C#4",
          "ticks": 26640,
          "time": 60.545394,
          "velocity": 0.7007874015748031
        },
        {
          "duration": 0.12954532500000226,
          "durationTicks": 57,
          "midi": 62,
          "name": "D4",
          "ticks": 26700,
          "time": 60.681757499999996,
          "velocity": 0.7007874015748031
        },
        {
          "duration": 0.12954532500000226,
          "durationTicks": 57,
          "midi": 61,
          "name": "C#4",
          "ticks": 26760,
          "time": 60.818121,
          "velocity": 0.7007874015748031
        },
        {
          "duration": 0.12954532499999516,
          "durationTicks": 57,
          "midi": 61,
          "name": "C#4",
          "ticks": 26820,
          "time": 60.9544845,
          "velocity": 0.7007874015748031
        },
        {
          "duration": 0.12954532499999516,
          "durationTicks": 57,
          "midi": 61,
          "name": "C#4",
          "ticks": 28320,
          "time": 64.363572,
          "velocity": 0.7007874015748031
        },
        {
          "duration": 0.12954532500000937,
          "durationTicks": 57,
          "midi": 62,
          "name": "D4",
          "ticks": 28440,
          "time": 64.636299,
          "velocity": 0.7007874015748031
        },
        {
          "duration": 0.12954532499999516,
          "durationTicks": 57,
          "midi": 61,
          "name": "C#4",
          "ticks": 28500,
          "time": 64.7726625,
          "velocity": 0.7007874015748031
        },
        {
          "duration": 0.12954532499999516,
          "durationTicks": 57,
          "midi": 61,
          "name": "C#4",
          "ticks": 28560,
          "time": 64.909026,
          "velocity": 0.7007874015748031
        },
        {
          "duration": 0.12954532499999516,
          "durationTicks": 57,
          "midi": 62,
          "name": "D4",
          "ticks": 28620,
          "time": 65.0453895,
          "velocity": 0.7007874015748031
        },
        {
          "duration": 0.12954532499999516,
          "durationTicks": 57,
          "midi": 61,
          "name": "C#4",
          "ticks": 28680,
          "time": 65.181753,
          "velocity": 0.7007874015748031
        },
        {
          "duration": 0.12954532499999516,
          "durationTicks": 57,
          "midi": 61,
          "name": "C#4",
          "ticks": 28740,
          "time": 65.3181165,
          "velocity": 0.7007874015748031
        },
        {
          "duration": 0.12954532499999516,
          "durationTicks": 57,
          "midi": 62,
          "name": "D4",
          "ticks": 28800,
          "time": 65.45448,
          "velocity": 0.7007874015748031
        },
        {
          "duration": 0.12954532499999516,
          "durationTicks": 57,
          "midi": 61,
          "name": "C#4",
          "ticks": 28860,
          "time": 65.5908435,
          "velocity": 0.7007874015748031
        },
        {
          "duration": 0.12954532500000937,
          "durationTicks": 57,
          "midi": 61,
          "name": "C#4",
          "ticks": 28920,
          "time": 65.72720699999999,
          "velocity": 0.7007874015748031
        },
        {
          "duration": 0.12954532500000937,
          "durationTicks": 57,
          "midi": 61,
          "name": "C#4",
          "ticks": 28980,
          "time": 65.8635705,
          "velocity": 0.7007874015748031
        },
        {
          "duration": 0.12954532499999516,
          "durationTicks": 57,
          "midi": 60,
          "name": "C4",
          "ticks": 29040,
          "time": 65.999934,
          "velocity": 0.7007874015748031
        },
        {
          "duration": 0.12954532499999516,
          "durationTicks": 57,
          "midi": 61,
          "name": "C#4",
          "ticks": 29100,
          "time": 66.1362975,
          "velocity": 0.7007874015748031
        },
        {
          "duration": 0.12954532499999516,
          "durationTicks": 57,
          "midi": 61,
          "name": "C#4",
          "ticks": 29160,
          "time": 66.272661,
          "velocity": 0.7007874015748031
        },
        {
          "duration": 0.12954532499999516,
          "durationTicks": 57,
          "midi": 61,
          "name": "C#4",
          "ticks": 29220,
          "time": 66.4090245,
          "velocity": 0.7007874015748031
        },
        {
          "duration": 0.12954532499999516,
          "durationTicks": 57,
          "midi": 61,
          "name": "C#4",
          "ticks": 29280,
          "time": 66.545388,
          "velocity": 0.7007874015748031
        },
        {
          "duration": 0.12954532499999516,
          "durationTicks": 57,
          "midi": 62,
          "name": "D4",
          "ticks": 29400,
          "time": 66.818115,
          "velocity": 0.7007874015748031
        },
        {
          "duration": 0.12954532500000937,
          "durationTicks": 57,
          "midi": 61,
          "name": "C#4",
          "ticks": 29460,
          "time": 66.9544785,
          "velocity": 0.7007874015748031
        },
        {
          "duration": 0.12954532500000937,
          "durationTicks": 57,
          "midi": 61,
          "name": "C#4",
          "ticks": 29520,
          "time": 67.090842,
          "velocity": 0.7007874015748031
        },
        {
          "duration": 0.12954532499999516,
          "durationTicks": 57,
          "midi": 62,
          "name": "D4",
          "ticks": 29580,
          "time": 67.2272055,
          "velocity": 0.7007874015748031
        },
        {
          "duration": 0.12954532499999516,
          "durationTicks": 57,
          "midi": 61,
          "name": "C#4",
          "ticks": 29640,
          "time": 67.363569,
          "velocity": 0.7007874015748031
        },
        {
          "duration": 0.12954532499999516,
          "durationTicks": 57,
          "midi": 61,
          "name": "C#4",
          "ticks": 29700,
          "time": 67.4999325,
          "velocity": 0.7007874015748031
        },
        {
          "duration": 0.12954532500000937,
          "durationTicks": 57,
          "midi": 61,
          "name": "C#4",
          "ticks": 31680,
          "time": 71.999928,
          "velocity": 0.7007874015748031
        },
        {
          "duration": 0.12954532500000937,
          "durationTicks": 57,
          "midi": 62,
          "name": "D4",
          "ticks": 31800,
          "time": 72.272655,
          "velocity": 0.7007874015748031
        },
        {
          "duration": 0.12954532500000937,
          "durationTicks": 57,
          "midi": 61,
          "name": "C#4",
          "ticks": 31860,
          "time": 72.4090185,
          "velocity": 0.7007874015748031
        },
        {
          "duration": 0.12954532499999516,
          "durationTicks": 57,
          "midi": 61,
          "name": "C#4",
          "ticks": 31920,
          "time": 72.545382,
          "velocity": 0.7007874015748031
        },
        {
          "duration": 0.12954532499999516,
          "durationTicks": 57,
          "midi": 62,
          "name": "D4",
          "ticks": 31980,
          "time": 72.6817455,
          "velocity": 0.7007874015748031
        },
        {
          "duration": 0.12954532500000937,
          "durationTicks": 57,
          "midi": 61,
          "name": "C#4",
          "ticks": 32040,
          "time": 72.81810899999999,
          "velocity": 0.7007874015748031
        },
        {
          "duration": 0.12954532500000937,
          "durationTicks": 57,
          "midi": 61,
          "name": "C#4",
          "ticks": 32100,
          "time": 72.9544725,
          "velocity": 0.7007874015748031
        },
        {
          "duration": 0.12954532500000937,
          "durationTicks": 57,
          "midi": 62,
          "name": "D4",
          "ticks": 32160,
          "time": 73.090836,
          "velocity": 0.7007874015748031
        },
        {
          "duration": 0.12954532500000937,
          "durationTicks": 57,
          "midi": 61,
          "name": "C#4",
          "ticks": 32220,
          "time": 73.2271995,
          "velocity": 0.7007874015748031
        },
        {
          "duration": 0.12954532500000937,
          "durationTicks": 57,
          "midi": 61,
          "name": "C#4",
          "ticks": 32280,
          "time": 73.363563,
          "velocity": 0.7007874015748031
        },
        {
          "duration": 0.12954532500000937,
          "durationTicks": 57,
          "midi": 61,
          "name": "C#4",
          "ticks": 32340,
          "time": 73.4999265,
          "velocity": 0.7007874015748031
        },
        {
          "duration": 0.12954532500000937,
          "durationTicks": 57,
          "midi": 60,
          "name": "C4",
          "ticks": 32400,
          "time": 73.63629,
          "velocity": 0.7007874015748031
        },
        {
          "duration": 0.12954532499999516,
          "durationTicks": 57,
          "midi": 61,
          "name": "C#4",
          "ticks": 32460,
          "time": 73.7726535,
          "velocity": 0.7007874015748031
        },
        {
          "duration": 0.12954532499999516,
          "durationTicks": 57,
          "midi": 61,
          "name": "C#4",
          "ticks": 32520,
          "time": 73.909017,
          "velocity": 0.7007874015748031
        },
        {
          "duration": 0.12954532500000937,
          "durationTicks": 57,
          "midi": 61,
          "name": "C#4",
          "ticks": 32580,
          "time": 74.0453805,
          "velocity": 0.7007874015748031
        },
        {
          "duration": 0.12954532500000937,
          "durationTicks": 57,
          "midi": 61,
          "name": "C#4",
          "ticks": 32640,
          "time": 74.181744,
          "velocity": 0.7007874015748031
        },
        {
          "duration": 0.12954532500000937,
          "durationTicks": 57,
          "midi": 62,
          "name": "D4",
          "ticks": 32760,
          "time": 74.454471,
          "velocity": 0.7007874015748031
        },
        {
          "duration": 0.12954532500000937,
          "durationTicks": 57,
          "midi": 61,
          "name": "C#4",
          "ticks": 32820,
          "time": 74.5908345,
          "velocity": 0.7007874015748031
        },
        {
          "duration": 0.12954532500000937,
          "durationTicks": 57,
          "midi": 61,
          "name": "C#4",
          "ticks": 32880,
          "time": 74.727198,
          "velocity": 0.7007874015748031
        },
        {
          "duration": 0.12954532500000937,
          "durationTicks": 57,
          "midi": 62,
          "name": "D4",
          "ticks": 32940,
          "time": 74.8635615,
          "velocity": 0.7007874015748031
        },
        {
          "duration": 0.12954532499999516,
          "durationTicks": 57,
          "midi": 61,
          "name": "C#4",
          "ticks": 33000,
          "time": 74.999925,
          "velocity": 0.7007874015748031
        },
        {
          "duration": 0.12954532499999516,
          "durationTicks": 57,
          "midi": 61,
          "name": "C#4",
          "ticks": 33060,
          "time": 75.1362885,
          "velocity": 0.7007874015748031
        },
        {
          "duration": 0.12954532500000937,
          "durationTicks": 57,
          "midi": 62,
          "name": "D4",
          "ticks": 33120,
          "time": 75.272652,
          "velocity": 0.7007874015748031
        },
        {
          "duration": 0.12954532500000937,
          "durationTicks": 57,
          "midi": 61,
          "name": "C#4",
          "ticks": 33180,
          "time": 75.4090155,
          "velocity": 0.7007874015748031
        },
        {
          "duration": 0.12954532500000937,
          "durationTicks": 57,
          "midi": 61,
          "name": "C#4",
          "ticks": 33240,
          "time": 75.545379,
          "velocity": 0.7007874015748031
        },
        {
          "duration": 0.12954532500000937,
          "durationTicks": 57,
          "midi": 61,
          "name": "C#4",
          "ticks": 33300,
          "time": 75.6817425,
          "velocity": 0.7007874015748031
        },
        {
          "duration": 0.12954532500000937,
          "durationTicks": 57,
          "midi": 60,
          "name": "C4",
          "ticks": 33360,
          "time": 75.818106,
          "velocity": 0.7007874015748031
        },
        {
          "duration": 0.12954532500000937,
          "durationTicks": 57,
          "midi": 61,
          "name": "C#4",
          "ticks": 33420,
          "time": 75.9544695,
          "velocity": 0.7007874015748031
        },
        {
          "duration": 0.12954532499999516,
          "durationTicks": 57,
          "midi": 61,
          "name": "C#4",
          "ticks": 33480,
          "time": 76.090833,
          "velocity": 0.7007874015748031
        },
        {
          "duration": 0.12954532499999516,
          "durationTicks": 57,
          "midi": 61,
          "name": "C#4",
          "ticks": 33540,
          "time": 76.2271965,
          "velocity": 0.7007874015748031
        },
        {
          "duration": 0.12954532499999516,
          "durationTicks": 57,
          "midi": 61,
          "name": "C#4",
          "ticks": 34560,
          "time": 78.545376,
          "velocity": 0.7007874015748031
        },
        {
          "duration": 0.12954532500000937,
          "durationTicks": 57,
          "midi": 62,
          "name": "D4",
          "ticks": 34680,
          "time": 78.818103,
          "velocity": 0.7007874015748031
        },
        {
          "duration": 0.12954532500000937,
          "durationTicks": 57,
          "midi": 61,
          "name": "C#4",
          "ticks": 34740,
          "time": 78.9544665,
          "velocity": 0.7007874015748031
        },
        {
          "duration": 0.12954532500000937,
          "durationTicks": 57,
          "midi": 61,
          "name": "C#4",
          "ticks": 34800,
          "time": 79.09083,
          "velocity": 0.7007874015748031
        },
        {
          "duration": 0.12954532500000937,
          "durationTicks": 57,
          "midi": 62,
          "name": "D4",
          "ticks": 34860,
          "time": 79.2271935,
          "velocity": 0.7007874015748031
        },
        {
          "duration": 0.12954532500000937,
          "durationTicks": 57,
          "midi": 61,
          "name": "C#4",
          "ticks": 34920,
          "time": 79.363557,
          "velocity": 0.7007874015748031
        },
        {
          "duration": 0.12954532500000937,
          "durationTicks": 57,
          "midi": 61,
          "name": "C#4",
          "ticks": 34980,
          "time": 79.4999205,
          "velocity": 0.7007874015748031
        },
        {
          "duration": 0.12954532499999516,
          "durationTicks": 57,
          "midi": 62,
          "name": "D4",
          "ticks": 35040,
          "time": 79.636284,
          "velocity": 0.7007874015748031
        },
        {
          "duration": 0.12954532499999516,
          "durationTicks": 57,
          "midi": 61,
          "name": "C#4",
          "ticks": 35100,
          "time": 79.7726475,
          "velocity": 0.7007874015748031
        },
        {
          "duration": 0.12954532500000937,
          "durationTicks": 57,
          "midi": 61,
          "name": "C#4",
          "ticks": 35160,
          "time": 79.90901099999999,
          "velocity": 0.7007874015748031
        },
        {
          "duration": 0.12954532500000937,
          "durationTicks": 57,
          "midi": 61,
          "name": "C#4",
          "ticks": 35220,
          "time": 80.0453745,
          "velocity": 0.7007874015748031
        },
        {
          "duration": 0.12954532500000937,
          "durationTicks": 57,
          "midi": 60,
          "name": "C4",
          "ticks": 35280,
          "time": 80.181738,
          "velocity": 0.7007874015748031
        },
        {
          "duration": 0.12954532500000937,
          "durationTicks": 57,
          "midi": 61,
          "name": "C#4",
          "ticks": 35340,
          "time": 80.3181015,
          "velocity": 0.7007874015748031
        },
        {
          "duration": 0.12954532500000937,
          "durationTicks": 57,
          "midi": 61,
          "name": "C#4",
          "ticks": 35400,
          "time": 80.454465,
          "velocity": 0.7007874015748031
        },
        {
          "duration": 0.12954532500000937,
          "durationTicks": 57,
          "midi": 61,
          "name": "C#4",
          "ticks": 35460,
          "time": 80.5908285,
          "velocity": 0.7007874015748031
        },
        {
          "duration": 0.12954532500000937,
          "durationTicks": 57,
          "midi": 61,
          "name": "C#4",
          "ticks": 35520,
          "time": 80.727192,
          "velocity": 0.7007874015748031
        },
        {
          "duration": 0.12954532499999516,
          "durationTicks": 57,
          "midi": 62,
          "name": "D4",
          "ticks": 35640,
          "time": 80.999919,
          "velocity": 0.7007874015748031
        },
        {
          "duration": 0.12954532500000937,
          "durationTicks": 57,
          "midi": 61,
          "name": "C#4",
          "ticks": 35700,
          "time": 81.1362825,
          "velocity": 0.7007874015748031
        },
        {
          "duration": 0.12954532500000937,
          "durationTicks": 57,
          "midi": 61,
          "name": "C#4",
          "ticks": 35760,
          "time": 81.272646,
          "velocity": 0.7007874015748031
        },
        {
          "duration": 0.12954532500000937,
          "durationTicks": 57,
          "midi": 62,
          "name": "D4",
          "ticks": 35820,
          "time": 81.4090095,
          "velocity": 0.7007874015748031
        },
        {
          "duration": 0.12954532500000937,
          "durationTicks": 57,
          "midi": 61,
          "name": "C#4",
          "ticks": 35880,
          "time": 81.545373,
          "velocity": 0.7007874015748031
        },
        {
          "duration": 0.12954532500000937,
          "durationTicks": 57,
          "midi": 61,
          "name": "C#4",
          "ticks": 35940,
          "time": 81.6817365,
          "velocity": 0.7007874015748031
        },
        {
          "duration": 0.12954532500000937,
          "durationTicks": 57,
          "midi": 62,
          "name": "D4",
          "ticks": 36000,
          "time": 81.8181,
          "velocity": 0.7007874015748031
        },
        {
          "duration": 0.12954532500000937,
          "durationTicks": 57,
          "midi": 61,
          "name": "C#4",
          "ticks": 36060,
          "time": 81.9544635,
          "velocity": 0.7007874015748031
        },
        {
          "duration": 0.12954532499999516,
          "durationTicks": 57,
          "midi": 61,
          "name": "C#4",
          "ticks": 36120,
          "time": 82.090827,
          "velocity": 0.7007874015748031
        },
        {
          "duration": 0.12954532499999516,
          "durationTicks": 57,
          "midi": 61,
          "name": "C#4",
          "ticks": 36180,
          "time": 82.2271905,
          "velocity": 0.7007874015748031
        },
        {
          "duration": 0.12954532500000937,
          "durationTicks": 57,
          "midi": 60,
          "name": "C4",
          "ticks": 36240,
          "time": 82.363554,
          "velocity": 0.7007874015748031
        },
        {
          "duration": 0.12954532500000937,
          "durationTicks": 57,
          "midi": 61,
          "name": "C#4",
          "ticks": 36300,
          "time": 82.4999175,
          "velocity": 0.7007874015748031
        },
        {
          "duration": 0.12954532500000937,
          "durationTicks": 57,
          "midi": 61,
          "name": "C#4",
          "ticks": 36360,
          "time": 82.636281,
          "velocity": 0.7007874015748031
        },
        {
          "duration": 0.12954532500000937,
          "durationTicks": 57,
          "midi": 61,
          "name": "C#4",
          "ticks": 36420,
          "time": 82.7726445,
          "velocity": 0.7007874015748031
        },
        {
          "duration": 0.2727270000000033,
          "durationTicks": 120,
          "midi": 42,
          "name": "F#2",
          "ticks": 36480,
          "time": 82.909008,
          "velocity": 0.7007874015748031
        }
      ]
    },
    {
      "channel": 0,
      "controlChanges": {
        "0": [
          {
            "number": 0,
            "ticks": 0,
            "time": 0,
            "value": 0
          }
        ],
        "32": [
          {
            "number": 32,
            "ticks": 0,
            "time": 0,
            "value": 0
          }
        ]
      },
      "pitchBends": [],
      "instrument": {
        "family": "piano",
        "number": 0,
        "name": "acoustic grand piano"
      },
      "name": "Shamisen",
      "notes": [],
      "endOfTrackTicks": 34557
    },
    {
      "channel": 4,
      "controlChanges": {
        "7": [
          {
            "number": 7,
            "ticks": 0,
            "time": 0,
            "value": 0.7874015748031497
          },
          {
            "number": 7,
            "ticks": 0,
            "time": 0,
            "value": 0.7874015748031497
          }
        ],
        "11": [
          {
            "number": 11,
            "ticks": 0,
            "time": 0,
            "value": 0.7874015748031497
          }
        ],
        "64": [
          {
            "number": 64,
            "ticks": 0,
            "time": 0,
            "value": 0
          }
        ],
        "91": [
          {
            "number": 91,
            "ticks": 0,
            "time": 0,
            "value": 0
          }
        ],
        "93": [
          {
            "number": 93,
            "ticks": 0,
            "time": 0,
            "value": 0
          }
        ]
      },
      "pitchBends": [],
      "instrument": {
        "family": "world",
        "number": 106,
        "name": "shamisen"
      },
      "name": "",
      "notes": [
        {
          "duration": 0.1295453249999996,
          "durationTicks": 57,
          "midi": 59,
          "name": "B3",
          "ticks": 2880,
          "time": 6.545448,
          "velocity": 0.6377952755905512
        },
        {
          "duration": 0.1295453250000005,
          "durationTicks": 57,
          "midi": 60,
          "name": "C4",
          "ticks": 3000,
          "time": 6.818175,
          "velocity": 0.6377952755905512
        },
        {
          "duration": 0.1295453250000005,
          "durationTicks": 57,
          "midi": 59,
          "name": "B3",
          "ticks": 3060,
          "time": 6.9545385,
          "velocity": 0.6377952755905512
        },
        {
          "duration": 0.1295453250000005,
          "durationTicks": 57,
          "midi": 59,
          "name": "B3",
          "ticks": 3120,
          "time": 7.090902,
          "velocity": 0.6377952755905512
        },
        {
          "duration": 0.1295453250000005,
          "durationTicks": 57,
          "midi": 60,
          "name": "C4",
          "ticks": 3180,
          "time": 7.2272655,
          "velocity": 0.6377952755905512
        },
        {
          "duration": 0.1295453250000005,
          "durationTicks": 57,
          "midi": 59,
          "name": "B3",
          "ticks": 3240,
          "time": 7.3636289999999995,
          "velocity": 0.6377952755905512
        },
        {
          "duration": 0.1295453249999996,
          "durationTicks": 57,
          "midi": 59,
          "name": "B3",
          "ticks": 3300,
          "time": 7.4999925,
          "velocity": 0.6377952755905512
        },
        {
          "duration": 0.1295453250000005,
          "durationTicks": 57,
          "midi": 60,
          "name": "C4",
          "ticks": 3360,
          "time": 7.636356,
          "velocity": 0.6377952755905512
        },
        {
          "duration": 0.1295453250000005,
          "durationTicks": 57,
          "midi": 59,
          "name": "B3",
          "ticks": 3420,
          "time": 7.7727195,
          "velocity": 0.6377952755905512
        },
        {
          "duration": 0.1295453249999996,
          "durationTicks": 57,
          "midi": 59,
          "name": "B3",
          "ticks": 3480,
          "time": 7.909083,
          "velocity": 0.6377952755905512
        },
        {
          "duration": 0.1295453250000005,
          "durationTicks": 57,
          "midi": 59,
          "name": "B3",
          "ticks": 3540,
          "time": 8.0454465,
          "velocity": 0.6377952755905512
        },
        {
          "duration": 0.1295453250000005,
          "durationTicks": 57,
          "midi": 58,
          "name": "A#3",
          "ticks": 3600,
          "time": 8.18181,
          "velocity": 0.6377952755905512
        },
        {
          "duration": 0.1295453250000005,
          "durationTicks": 57,
          "midi": 59,
          "name": "B3",
          "ticks": 3660,
          "time": 8.3181735,
          "velocity": 0.6377952755905512
        },
        {
          "duration": 0.1295453250000005,
          "durationTicks": 57,
          "midi": 59,
          "name": "B3",
          "ticks": 3720,
          "time": 8.454537,
          "velocity": 0.6377952755905512
        },
        {
          "duration": 0.1295453250000005,
          "durationTicks": 57,
          "midi": 59,
          "name": "B3",
          "ticks": 3780,
          "time": 8.5909005,
          "velocity": 0.6377952755905512
        },
        {
          "duration": 0.1295453250000005,
          "durationTicks": 57,
          "midi": 59,
          "name": "B3",
          "ticks": 3840,
          "time": 8.727264,
          "velocity": 0.6377952755905512
        },
        {
          "duration": 0.1295453250000005,
          "durationTicks": 57,
          "midi": 60,
          "name": "C4",
          "ticks": 3960,
          "time": 8.999991,
          "velocity": 0.6377952755905512
        },
        {
          "duration": 0.1295453250000005,
          "durationTicks": 57,
          "midi": 59,
          "name": "B3",
          "ticks": 4020,
          "time": 9.1363545,
          "velocity": 0.6377952755905512
        },
        {
          "duration": 0.1295453250000005,
          "durationTicks": 57,
          "midi": 59,
          "name": "B3",
          "ticks": 4080,
          "time": 9.272718,
          "velocity": 0.6377952755905512
        },
        {
          "duration": 0.1295453250000005,
          "durationTicks": 57,
          "midi": 60,
          "name": "C4",
          "ticks": 4140,
          "time": 9.4090815,
          "velocity": 0.6377952755905512
        },
        {
          "duration": 0.1295453250000005,
          "durationTicks": 57,
          "midi": 59,
          "name": "B3",
          "ticks": 4200,
          "time": 9.545444999999999,
          "velocity": 0.6377952755905512
        },
        {
          "duration": 0.1295453249999987,
          "durationTicks": 57,
          "midi": 59,
          "name": "B3",
          "ticks": 4260,
          "time": 9.6818085,
          "velocity": 0.6377952755905512
        },
        {
          "duration": 0.1295453250000005,
          "durationTicks": 57,
          "midi": 60,
          "name": "C4",
          "ticks": 4320,
          "time": 9.818172,
          "velocity": 0.6377952755905512
        },
        {
          "duration": 0.1295453250000005,
          "durationTicks": 57,
          "midi": 59,
          "name": "B3",
          "ticks": 4380,
          "time": 9.9545355,
          "velocity": 0.6377952755905512
        },
        {
          "duration": 0.1295453250000005,
          "durationTicks": 57,
          "midi": 59,
          "name": "B3",
          "ticks": 4440,
          "time": 10.090899,
          "velocity": 0.6377952755905512
        },
        {
          "duration": 0.1295453250000005,
          "durationTicks": 57,
          "midi": 59,
          "name": "B3",
          "ticks": 4500,
          "time": 10.2272625,
          "velocity": 0.6377952755905512
        },
        {
          "duration": 0.1295453250000005,
          "durationTicks": 57,
          "midi": 58,
          "name": "A#3",
          "ticks": 4560,
          "time": 10.363626,
          "velocity": 0.6377952755905512
        },
        {
          "duration": 0.1295453250000005,
          "durationTicks": 57,
          "midi": 59,
          "name": "B3",
          "ticks": 4620,
          "time": 10.4999895,
          "velocity": 0.6377952755905512
        },
        {
          "duration": 0.1295453250000005,
          "durationTicks": 57,
          "midi": 59,
          "name": "B3",
          "ticks": 4680,
          "time": 10.636353,
          "velocity": 0.6377952755905512
        },
        {
          "duration": 0.1295453250000005,
          "durationTicks": 57,
          "midi": 59,
          "name": "B3",
          "ticks": 4740,
          "time": 10.7727165,
          "velocity": 0.6377952755905512
        },
        {
          "duration": 0.1295453250000005,
          "durationTicks": 57,
          "midi": 59,
          "name": "B3",
          "ticks": 6720,
          "time": 15.272712,
          "velocity": 0.6377952755905512
        },
        {
          "duration": 0.1295453250000005,
          "durationTicks": 57,
          "midi": 60,
          "name": "C4",
          "ticks": 6840,
          "time": 15.545439,
          "velocity": 0.6377952755905512
        },
        {
          "duration": 0.1295453250000005,
          "durationTicks": 57,
          "midi": 59,
          "name": "B3",
          "ticks": 6900,
          "time": 15.6818025,
          "velocity": 0.6377952755905512
        },
        {
          "duration": 0.1295453250000005,
          "durationTicks": 57,
          "midi": 59,
          "name": "B3",
          "ticks": 6960,
          "time": 15.818166,
          "velocity": 0.6377952755905512
        },
        {
          "duration": 0.12954532500000226,
          "durationTicks": 57,
          "midi": 60,
          "name": "C4",
          "ticks": 7020,
          "time": 15.9545295,
          "velocity": 0.6377952755905512
        },
        {
          "duration": 0.1295453249999987,
          "durationTicks": 57,
          "midi": 59,
          "name": "B3",
          "ticks": 7080,
          "time": 16.090893,
          "velocity": 0.6377952755905512
        },
        {
          "duration": 0.12954532500000226,
          "durationTicks": 57,
          "midi": 59,
          "name": "B3",
          "ticks": 7140,
          "time": 16.2272565,
          "velocity": 0.6377952755905512
        },
        {
          "duration": 0.1295453249999987,
          "durationTicks": 57,
          "midi": 60,
          "name": "C4",
          "ticks": 7200,
          "time": 16.36362,
          "velocity": 0.6377952755905512
        },
        {
          "duration": 0.12954532500000226,
          "durationTicks": 57,
          "midi": 59,
          "name": "B3",
          "ticks": 7260,
          "time": 16.4999835,
          "velocity": 0.6377952755905512
        },
        {
          "duration": 0.1295453249999987,
          "durationTicks": 57,
          "midi": 59,
          "name": "B3",
          "ticks": 7320,
          "time": 16.636347,
          "velocity": 0.6377952755905512
        },
        {
          "duration": 0.12954532500000226,
          "durationTicks": 57,
          "midi": 59,
          "name": "B3",
          "ticks": 7380,
          "time": 16.7727105,
          "velocity": 0.6377952755905512
        },
        {
          "duration": 0.1295453249999987,
          "durationTicks": 57,
          "midi": 58,
          "name": "A#3",
          "ticks": 7440,
          "time": 16.909074,
          "velocity": 0.6377952755905512
        },
        {
          "duration": 0.12954532500000226,
          "durationTicks": 57,
          "midi": 59,
          "name": "B3",
          "ticks": 7500,
          "time": 17.0454375,
          "velocity": 0.6377952755905512
        },
        {
          "duration": 0.1295453249999987,
          "durationTicks": 57,
          "midi": 59,
          "name": "B3",
          "ticks": 7560,
          "time": 17.181801,
          "velocity": 0.6377952755905512
        },
        {
          "duration": 0.12954532500000226,
          "durationTicks": 57,
          "midi": 59,
          "name": "B3",
          "ticks": 7620,
          "time": 17.318164499999998,
          "velocity": 0.6377952755905512
        },
        {
          "duration": 0.1295453249999987,
          "durationTicks": 57,
          "midi": 59,
          "name": "B3",
          "ticks": 7680,
          "time": 17.454528,
          "velocity": 0.6377952755905512
        },
        {
          "duration": 0.1295453249999987,
          "durationTicks": 57,
          "midi": 60,
          "name": "C4",
          "ticks": 7800,
          "time": 17.727255,
          "velocity": 0.6377952755905512
        },
        {
          "duration": 0.1295453249999987,
          "durationTicks": 57,
          "midi": 59,
          "name": "B3",
          "ticks": 7860,
          "time": 17.8636185,
          "velocity": 0.6377952755905512
        },
        {
          "duration": 0.1295453249999987,
          "durationTicks": 57,
          "midi": 59,
          "name": "B3",
          "ticks": 7920,
          "time": 17.999982,
          "velocity": 0.6377952755905512
        },
        {
          "duration": 0.1295453249999987,
          "durationTicks": 57,
          "midi": 60,
          "name": "C4",
          "ticks": 7980,
          "time": 18.1363455,
          "velocity": 0.6377952755905512
        },
        {
          "duration": 0.1295453249999987,
          "durationTicks": 57,
          "midi": 59,
          "name": "B3",
          "ticks": 8040,
          "time": 18.272709,
          "velocity": 0.6377952755905512
        },
        {
          "duration": 0.1295453249999987,
          "durationTicks": 57,
          "midi": 59,
          "name": "B3",
          "ticks": 8100,
          "time": 18.4090725,
          "velocity": 0.6377952755905512
        },
        {
          "duration": 0.1295453249999987,
          "durationTicks": 57,
          "midi": 60,
          "name": "C4",
          "ticks": 8160,
          "time": 18.545436,
          "velocity": 0.6377952755905512
        },
        {
          "duration": 0.1295453249999987,
          "durationTicks": 57,
          "midi": 59,
          "name": "B3",
          "ticks": 8220,
          "time": 18.6817995,
          "velocity": 0.6377952755905512
        },
        {
          "duration": 0.1295453249999987,
          "durationTicks": 57,
          "midi": 59,
          "name": "B3",
          "ticks": 8280,
          "time": 18.818163,
          "velocity": 0.6377952755905512
        },
        {
          "duration": 0.1295453249999987,
          "durationTicks": 57,
          "midi": 59,
          "name": "B3",
          "ticks": 8340,
          "time": 18.9545265,
          "velocity": 0.6377952755905512
        },
        {
          "duration": 0.1295453249999987,
          "durationTicks": 57,
          "midi": 58,
          "name": "A#3",
          "ticks": 8400,
          "time": 19.090889999999998,
          "velocity": 0.6377952755905512
        },
        {
          "duration": 0.1295453249999987,
          "durationTicks": 57,
          "midi": 59,
          "name": "B3",
          "ticks": 8460,
          "time": 19.2272535,
          "velocity": 0.6377952755905512
        },
        {
          "duration": 0.12954532499999516,
          "durationTicks": 57,
          "midi": 59,
          "name": "B3",
          "ticks": 8520,
          "time": 19.363617,
          "velocity": 0.6377952755905512
        },
        {
          "duration": 0.1295453249999987,
          "durationTicks": 57,
          "midi": 59,
          "name": "B3",
          "ticks": 8580,
          "time": 19.4999805,
          "velocity": 0.6377952755905512
        },
        {
          "duration": 0.1295453249999987,
          "durationTicks": 57,
          "midi": 59,
          "name": "B3",
          "ticks": 10560,
          "time": 23.999976,
          "velocity": 0.6377952755905512
        },
        {
          "duration": 0.1295453249999987,
          "durationTicks": 57,
          "midi": 60,
          "name": "C4",
          "ticks": 10680,
          "time": 24.272703,
          "velocity": 0.6377952755905512
        },
        {
          "duration": 0.1295453249999987,
          "durationTicks": 57,
          "midi": 59,
          "name": "B3",
          "ticks": 10740,
          "time": 24.409066499999998,
          "velocity": 0.6377952755905512
        },
        {
          "duration": 0.1295453249999987,
          "durationTicks": 57,
          "midi": 59,
          "name": "B3",
          "ticks": 10800,
          "time": 24.54543,
          "velocity": 0.6377952755905512
        },
        {
          "duration": 0.12954532499999516,
          "durationTicks": 57,
          "midi": 60,
          "name": "C4",
          "ticks": 10860,
          "time": 24.6817935,
          "velocity": 0.6377952755905512
        },
        {
          "duration": 0.1295453249999987,
          "durationTicks": 57,
          "midi": 59,
          "name": "B3",
          "ticks": 10920,
          "time": 24.818157,
          "velocity": 0.6377952755905512
        },
        {
          "duration": 0.1295453249999987,
          "durationTicks": 57,
          "midi": 59,
          "name": "B3",
          "ticks": 10980,
          "time": 24.9545205,
          "velocity": 0.6377952755905512
        },
        {
          "duration": 0.1295453249999987,
          "durationTicks": 57,
          "midi": 60,
          "name": "C4",
          "ticks": 11040,
          "time": 25.090884,
          "velocity": 0.6377952755905512
        },
        {
          "duration": 0.1295453249999987,
          "durationTicks": 57,
          "midi": 59,
          "name": "B3",
          "ticks": 11100,
          "time": 25.2272475,
          "velocity": 0.6377952755905512
        },
        {
          "duration": 0.1295453249999987,
          "durationTicks": 57,
          "midi": 59,
          "name": "B3",
          "ticks": 11160,
          "time": 25.363611,
          "velocity": 0.6377952755905512
        },
        {
          "duration": 0.1295453249999987,
          "durationTicks": 57,
          "midi": 59,
          "name": "B3",
          "ticks": 11220,
          "time": 25.4999745,
          "velocity": 0.6377952755905512
        },
        {
          "duration": 0.1295453249999987,
          "durationTicks": 57,
          "midi": 58,
          "name": "A#3",
          "ticks": 11280,
          "time": 25.636338,
          "velocity": 0.6377952755905512
        },
        {
          "duration": 0.1295453249999987,
          "durationTicks": 57,
          "midi": 59,
          "name": "B3",
          "ticks": 11340,
          "time": 25.7727015,
          "velocity": 0.6377952755905512
        },
        {
          "duration": 0.1295453249999987,
          "durationTicks": 57,
          "midi": 59,
          "name": "B3",
          "ticks": 11400,
          "time": 25.909065,
          "velocity": 0.6377952755905512
        },
        {
          "duration": 0.1295453249999987,
          "durationTicks": 57,
          "midi": 59,
          "name": "B3",
          "ticks": 11460,
          "time": 26.0454285,
          "velocity": 0.6377952755905512
        },
        {
          "duration": 0.12954532499999516,
          "durationTicks": 57,
          "midi": 59,
          "name": "B3",
          "ticks": 11520,
          "time": 26.181792,
          "velocity": 0.6377952755905512
        },
        {
          "duration": 0.1295453249999987,
          "durationTicks": 57,
          "midi": 60,
          "name": "C4",
          "ticks": 11640,
          "time": 26.454519,
          "velocity": 0.6377952755905512
        },
        {
          "duration": 0.1295453249999987,
          "durationTicks": 57,
          "midi": 59,
          "name": "B3",
          "ticks": 11700,
          "time": 26.5908825,
          "velocity": 0.6377952755905512
        },
        {
          "duration": 0.1295453249999987,
          "durationTicks": 57,
          "midi": 59,
          "name": "B3",
          "ticks": 11760,
          "time": 26.727246,
          "velocity": 0.6377952755905512
        },
        {
          "duration": 0.1295453249999987,
          "durationTicks": 57,
          "midi": 60,
          "name": "C4",
          "ticks": 11820,
          "time": 26.8636095,
          "velocity": 0.6377952755905512
        },
        {
          "duration": 0.1295453249999987,
          "durationTicks": 57,
          "midi": 59,
          "name": "B3",
          "ticks": 11880,
          "time": 26.999973,
          "velocity": 0.6377952755905512
        },
        {
          "duration": 0.1295453249999987,
          "durationTicks": 57,
          "midi": 59,
          "name": "B3",
          "ticks": 11940,
          "time": 27.1363365,
          "velocity": 0.6377952755905512
        },
        {
          "duration": 0.1295453249999987,
          "durationTicks": 57,
          "midi": 60,
          "name": "C4",
          "ticks": 12000,
          "time": 27.2727,
          "velocity": 0.6377952755905512
        },
        {
          "duration": 0.1295453249999987,
          "durationTicks": 57,
          "midi": 59,
          "name": "B3",
          "ticks": 12060,
          "time": 27.4090635,
          "velocity": 0.6377952755905512
        },
        {
          "duration": 0.1295453249999987,
          "durationTicks": 57,
          "midi": 59,
          "name": "B3",
          "ticks": 12120,
          "time": 27.545427,
          "velocity": 0.6377952755905512
        },
        {
          "duration": 0.1295453249999987,
          "durationTicks": 57,
          "midi": 59,
          "name": "B3",
          "ticks": 12180,
          "time": 27.681790499999998,
          "velocity": 0.6377952755905512
        },
        {
          "duration": 0.1295453249999987,
          "durationTicks": 57,
          "midi": 58,
          "name": "A#3",
          "ticks": 12240,
          "time": 27.818154,
          "velocity": 0.6377952755905512
        },
        {
          "duration": 0.12954532499999516,
          "durationTicks": 57,
          "midi": 59,
          "name": "B3",
          "ticks": 12300,
          "time": 27.9545175,
          "velocity": 0.6377952755905512
        },
        {
          "duration": 0.1295453249999987,
          "durationTicks": 57,
          "midi": 59,
          "name": "B3",
          "ticks": 12360,
          "time": 28.090881,
          "velocity": 0.6377952755905512
        },
        {
          "duration": 0.1295453249999987,
          "durationTicks": 57,
          "midi": 59,
          "name": "B3",
          "ticks": 12420,
          "time": 28.2272445,
          "velocity": 0.6377952755905512
        },
        {
          "duration": 0.12954532499999516,
          "durationTicks": 57,
          "midi": 59,
          "name": "B3",
          "ticks": 14880,
          "time": 33.818148,
          "velocity": 0.6377952755905512
        },
        {
          "duration": 0.12954532500000226,
          "durationTicks": 57,
          "midi": 60,
          "name": "C4",
          "ticks": 15000,
          "time": 34.090875,
          "velocity": 0.6377952755905512
        },
        {
          "duration": 0.12954532500000226,
          "durationTicks": 57,
          "midi": 59,
          "name": "B3",
          "ticks": 15060,
          "time": 34.2272385,
          "velocity": 0.6377952755905512
        },
        {
          "duration": 0.12954532499999516,
          "durationTicks": 57,
          "midi": 59,
          "name": "B3",
          "ticks": 15120,
          "time": 34.363602,
          "velocity": 0.6377952755905512
        },
        {
          "duration": 0.12954532499999516,
          "durationTicks": 57,
          "midi": 60,
          "name": "C4",
          "ticks": 15180,
          "time": 34.4999655,
          "velocity": 0.6377952755905512
        },
        {
          "duration": 0.12954532500000226,
          "durationTicks": 57,
          "midi": 59,
          "name": "B3",
          "ticks": 15240,
          "time": 34.636328999999996,
          "velocity": 0.6377952755905512
        },
        {
          "duration": 0.12954532500000226,
          "durationTicks": 57,
          "midi": 59,
          "name": "B3",
          "ticks": 15300,
          "time": 34.7726925,
          "velocity": 0.6377952755905512
        },
        {
          "duration": 0.12954532499999516,
          "durationTicks": 57,
          "midi": 60,
          "name": "C4",
          "ticks": 15360,
          "time": 34.909056,
          "velocity": 0.6377952755905512
        },
        {
          "duration": 0.12954532499999516,
          "durationTicks": 57,
          "midi": 59,
          "name": "B3",
          "ticks": 15420,
          "time": 35.0454195,
          "velocity": 0.6377952755905512
        },
        {
          "duration": 0.12954532499999516,
          "durationTicks": 57,
          "midi": 59,
          "name": "B3",
          "ticks": 15480,
          "time": 35.181783,
          "velocity": 0.6377952755905512
        },
        {
          "duration": 0.12954532500000226,
          "durationTicks": 57,
          "midi": 59,
          "name": "B3",
          "ticks": 15540,
          "time": 35.3181465,
          "velocity": 0.6377952755905512
        },
        {
          "duration": 0.12954532500000226,
          "durationTicks": 57,
          "midi": 58,
          "name": "A#3",
          "ticks": 15600,
          "time": 35.45451,
          "velocity": 0.6377952755905512
        },
        {
          "duration": 0.12954532499999516,
          "durationTicks": 57,
          "midi": 59,
          "name": "B3",
          "ticks": 15660,
          "time": 35.5908735,
          "velocity": 0.6377952755905512
        },
        {
          "duration": 0.12954532499999516,
          "durationTicks": 57,
          "midi": 59,
          "name": "B3",
          "ticks": 15720,
          "time": 35.727237,
          "velocity": 0.6377952755905512
        },
        {
          "duration": 0.12954532500000226,
          "durationTicks": 57,
          "midi": 59,
          "name": "B3",
          "ticks": 15780,
          "time": 35.8636005,
          "velocity": 0.6377952755905512
        },
        {
          "duration": 0.12954532500000226,
          "durationTicks": 57,
          "midi": 59,
          "name": "B3",
          "ticks": 15840,
          "time": 35.999964,
          "velocity": 0.6377952755905512
        },
        {
          "duration": 0.12954532499999516,
          "durationTicks": 57,
          "midi": 60,
          "name": "C4",
          "ticks": 15960,
          "time": 36.272691,
          "velocity": 0.6377952755905512
        },
        {
          "duration": 0.12954532500000226,
          "durationTicks": 57,
          "midi": 59,
          "name": "B3",
          "ticks": 16020,
          "time": 36.409054499999996,
          "velocity": 0.6377952755905512
        },
        {
          "duration": 0.12954532500000226,
          "durationTicks": 57,
          "midi": 59,
          "name": "B3",
          "ticks": 16080,
          "time": 36.545418,
          "velocity": 0.6377952755905512
        },
        {
          "duration": 0.12954532499999516,
          "durationTicks": 57,
          "midi": 60,
          "name": "C4",
          "ticks": 16140,
          "time": 36.6817815,
          "velocity": 0.6377952755905512
        },
        {
          "duration": 0.12954532499999516,
          "durationTicks": 57,
          "midi": 59,
          "name": "B3",
          "ticks": 16200,
          "time": 36.818145,
          "velocity": 0.6377952755905512
        },
        {
          "duration": 0.12954532499999516,
          "durationTicks": 57,
          "midi": 59,
          "name": "B3",
          "ticks": 16260,
          "time": 36.9545085,
          "velocity": 0.6377952755905512
        },
        {
          "duration": 0.12954532500000226,
          "durationTicks": 57,
          "midi": 60,
          "name": "C4",
          "ticks": 16320,
          "time": 37.090872,
          "velocity": 0.6377952755905512
        },
        {
          "duration": 0.12954532500000226,
          "durationTicks": 57,
          "midi": 59,
          "name": "B3",
          "ticks": 16380,
          "time": 37.2272355,
          "velocity": 0.6377952755905512
        },
        {
          "duration": 0.12954532499999516,
          "durationTicks": 57,
          "midi": 59,
          "name": "B3",
          "ticks": 16440,
          "time": 37.363599,
          "velocity": 0.6377952755905512
        },
        {
          "duration": 0.12954532499999516,
          "durationTicks": 57,
          "midi": 59,
          "name": "B3",
          "ticks": 16500,
          "time": 37.4999625,
          "velocity": 0.6377952755905512
        },
        {
          "duration": 0.12954532500000226,
          "durationTicks": 57,
          "midi": 58,
          "name": "A#3",
          "ticks": 16560,
          "time": 37.636326,
          "velocity": 0.6377952755905512
        },
        {
          "duration": 0.12954532500000226,
          "durationTicks": 57,
          "midi": 59,
          "name": "B3",
          "ticks": 16620,
          "time": 37.7726895,
          "velocity": 0.6377952755905512
        },
        {
          "duration": 0.12954532499999516,
          "durationTicks": 57,
          "midi": 59,
          "name": "B3",
          "ticks": 16680,
          "time": 37.909053,
          "velocity": 0.6377952755905512
        },
        {
          "duration": 0.12954532499999516,
          "durationTicks": 57,
          "midi": 59,
          "name": "B3",
          "ticks": 16740,
          "time": 38.0454165,
          "velocity": 0.6377952755905512
        },
        {
          "duration": 0.12954532500000226,
          "durationTicks": 57,
          "midi": 59,
          "name": "B3",
          "ticks": 19200,
          "time": 43.63632,
          "velocity": 0.6377952755905512
        },
        {
          "duration": 0.12954532499999516,
          "durationTicks": 57,
          "midi": 60,
          "name": "C4",
          "ticks": 19320,
          "time": 43.909047,
          "velocity": 0.6377952755905512
        },
        {
          "duration": 0.12954532499999516,
          "durationTicks": 57,
          "midi": 59,
          "name": "B3",
          "ticks": 19380,
          "time": 44.0454105,
          "velocity": 0.6377952755905512
        },
        {
          "duration": 0.12954532500000226,
          "durationTicks": 57,
          "midi": 59,
          "name": "B3",
          "ticks": 19440,
          "time": 44.181774,
          "velocity": 0.6377952755905512
        },
        {
          "duration": 0.12954532500000226,
          "durationTicks": 57,
          "midi": 60,
          "name": "C4",
          "ticks": 19500,
          "time": 44.3181375,
          "velocity": 0.6377952755905512
        },
        {
          "duration": 0.12954532499999516,
          "durationTicks": 57,
          "midi": 59,
          "name": "B3",
          "ticks": 19560,
          "time": 44.454501,
          "velocity": 0.6377952755905512
        },
        {
          "duration": 0.12954532499999516,
          "durationTicks": 57,
          "midi": 59,
          "name": "B3",
          "ticks": 19620,
          "time": 44.5908645,
          "velocity": 0.6377952755905512
        },
        {
          "duration": 0.12954532500000226,
          "durationTicks": 57,
          "midi": 60,
          "name": "C4",
          "ticks": 19680,
          "time": 44.727228,
          "velocity": 0.6377952755905512
        },
        {
          "duration": 0.12954532500000226,
          "durationTicks": 57,
          "midi": 59,
          "name": "B3",
          "ticks": 19740,
          "time": 44.8635915,
          "velocity": 0.6377952755905512
        },
        {
          "duration": 0.12954532499999516,
          "durationTicks": 57,
          "midi": 59,
          "name": "B3",
          "ticks": 19800,
          "time": 44.999955,
          "velocity": 0.6377952755905512
        },
        {
          "duration": 0.12954532499999516,
          "durationTicks": 57,
          "midi": 59,
          "name": "B3",
          "ticks": 19860,
          "time": 45.1363185,
          "velocity": 0.6377952755905512
        },
        {
          "duration": 0.12954532500000226,
          "durationTicks": 57,
          "midi": 58,
          "name": "A#3",
          "ticks": 19920,
          "time": 45.272681999999996,
          "velocity": 0.6377952755905512
        },
        {
          "duration": 0.12954532500000226,
          "durationTicks": 57,
          "midi": 59,
          "name": "B3",
          "ticks": 19980,
          "time": 45.4090455,
          "velocity": 0.6377952755905512
        },
        {
          "duration": 0.12954532499999516,
          "durationTicks": 57,
          "midi": 59,
          "name": "B3",
          "ticks": 20040,
          "time": 45.545409,
          "velocity": 0.6377952755905512
        },
        {
          "duration": 0.12954532499999516,
          "durationTicks": 57,
          "midi": 59,
          "name": "B3",
          "ticks": 20100,
          "time": 45.6817725,
          "velocity": 0.6377952755905512
        },
        {
          "duration": 0.12954532499999516,
          "durationTicks": 57,
          "midi": 59,
          "name": "B3",
          "ticks": 20160,
          "time": 45.818136,
          "velocity": 0.6377952755905512
        },
        {
          "duration": 0.12954532500000226,
          "durationTicks": 57,
          "midi": 60,
          "name": "C4",
          "ticks": 20280,
          "time": 46.090863,
          "velocity": 0.6377952755905512
        },
        {
          "duration": 0.12954532499999516,
          "durationTicks": 57,
          "midi": 59,
          "name": "B3",
          "ticks": 20340,
          "time": 46.2272265,
          "velocity": 0.6377952755905512
        },
        {
          "duration": 0.12954532499999516,
          "durationTicks": 57,
          "midi": 59,
          "name": "B3",
          "ticks": 20400,
          "time": 46.36359,
          "velocity": 0.6377952755905512
        },
        {
          "duration": 0.12954532500000226,
          "durationTicks": 57,
          "midi": 60,
          "name": "C4",
          "ticks": 20460,
          "time": 46.4999535,
          "velocity": 0.6377952755905512
        },
        {
          "duration": 0.12954532500000226,
          "durationTicks": 57,
          "midi": 59,
          "name": "B3",
          "ticks": 20520,
          "time": 46.636317,
          "velocity": 0.6377952755905512
        },
        {
          "duration": 0.12954532499999516,
          "durationTicks": 57,
          "midi": 59,
          "name": "B3",
          "ticks": 20580,
          "time": 46.7726805,
          "velocity": 0.6377952755905512
        },
        {
          "duration": 0.12954532499999516,
          "durationTicks": 57,
          "midi": 60,
          "name": "C4",
          "ticks": 20640,
          "time": 46.909044,
          "velocity": 0.6377952755905512
        },
        {
          "duration": 0.12954532500000226,
          "durationTicks": 57,
          "midi": 59,
          "name": "B3",
          "ticks": 20700,
          "time": 47.045407499999996,
          "velocity": 0.6377952755905512
        },
        {
          "duration": 0.12954532500000226,
          "durationTicks": 57,
          "midi": 59,
          "name": "B3",
          "ticks": 20760,
          "time": 47.181771,
          "velocity": 0.6377952755905512
        },
        {
          "duration": 0.12954532499999516,
          "durationTicks": 57,
          "midi": 59,
          "name": "B3",
          "ticks": 20820,
          "time": 47.3181345,
          "velocity": 0.6377952755905512
        },
        {
          "duration": 0.12954532499999516,
          "durationTicks": 57,
          "midi": 58,
          "name": "A#3",
          "ticks": 20880,
          "time": 47.454498,
          "velocity": 0.6377952755905512
        },
        {
          "duration": 0.12954532499999516,
          "durationTicks": 57,
          "midi": 59,
          "name": "B3",
          "ticks": 23520,
          "time": 53.454492,
          "velocity": 0.6377952755905512
        },
        {
          "duration": 0.12954532500000226,
          "durationTicks": 57,
          "midi": 60,
          "name": "C4",
          "ticks": 23640,
          "time": 53.727219,
          "velocity": 0.6377952755905512
        },
        {
          "duration": 0.12954532499999516,
          "durationTicks": 57,
          "midi": 59,
          "name": "B3",
          "ticks": 23700,
          "time": 53.8635825,
          "velocity": 0.6377952755905512
        },
        {
          "duration": 0.12954532499999516,
          "durationTicks": 57,
          "midi": 59,
          "name": "B3",
          "ticks": 23760,
          "time": 53.999946,
          "velocity": 0.6377952755905512
        },
        {
          "duration": 0.12954532499999516,
          "durationTicks": 57,
          "midi": 60,
          "name": "C4",
          "ticks": 23820,
          "time": 54.1363095,
          "velocity": 0.6377952755905512
        },
        {
          "duration": 0.12954532500000226,
          "durationTicks": 57,
          "midi": 59,
          "name": "B3",
          "ticks": 23880,
          "time": 54.272673,
          "velocity": 0.6377952755905512
        },
        {
          "duration": 0.12954532500000226,
          "durationTicks": 57,
          "midi": 59,
          "name": "B3",
          "ticks": 23940,
          "time": 54.4090365,
          "velocity": 0.6377952755905512
        },
        {
          "duration": 0.12954532499999516,
          "durationTicks": 57,
          "midi": 60,
          "name": "C4",
          "ticks": 24000,
          "time": 54.5454,
          "velocity": 0.6377952755905512
        },
        {
          "duration": 0.12954532499999516,
          "durationTicks": 57,
          "midi": 59,
          "name": "B3",
          "ticks": 24060,
          "time": 54.6817635,
          "velocity": 0.6377952755905512
        },
        {
          "duration": 0.12954532500000226,
          "durationTicks": 57,
          "midi": 59,
          "name": "B3",
          "ticks": 24120,
          "time": 54.818127,
          "velocity": 0.6377952755905512
        },
        {
          "duration": 0.12954532500000226,
          "durationTicks": 57,
          "midi": 59,
          "name": "B3",
          "ticks": 24180,
          "time": 54.9544905,
          "velocity": 0.6377952755905512
        },
        {
          "duration": 0.12954532499999516,
          "durationTicks": 57,
          "midi": 58,
          "name": "A#3",
          "ticks": 24240,
          "time": 55.090854,
          "velocity": 0.6377952755905512
        },
        {
          "duration": 0.12954532499999516,
          "durationTicks": 57,
          "midi": 59,
          "name": "B3",
          "ticks": 24300,
          "time": 55.2272175,
          "velocity": 0.6377952755905512
        },
        {
          "duration": 0.12954532500000226,
          "durationTicks": 57,
          "midi": 59,
          "name": "B3",
          "ticks": 24360,
          "time": 55.363580999999996,
          "velocity": 0.6377952755905512
        },
        {
          "duration": 0.12954532500000226,
          "durationTicks": 57,
          "midi": 59,
          "name": "B3",
          "ticks": 24420,
          "time": 55.4999445,
          "velocity": 0.6377952755905512
        },
        {
          "duration": 0.12954532499999516,
          "durationTicks": 57,
          "midi": 59,
          "name": "B3",
          "ticks": 24480,
          "time": 55.636308,
          "velocity": 0.6377952755905512
        },
        {
          "duration": 0.12954532499999516,
          "durationTicks": 57,
          "midi": 60,
          "name": "C4",
          "ticks": 24600,
          "time": 55.909035,
          "velocity": 0.6377952755905512
        },
        {
          "duration": 0.12954532500000226,
          "durationTicks": 57,
          "midi": 59,
          "name": "B3",
          "ticks": 24660,
          "time": 56.0453985,
          "velocity": 0.6377952755905512
        },
        {
          "duration": 0.12954532500000226,
          "durationTicks": 57,
          "midi": 59,
          "name": "B3",
          "ticks": 24720,
          "time": 56.181762,
          "velocity": 0.6377952755905512
        },
        {
          "duration": 0.12954532499999516,
          "durationTicks": 57,
          "midi": 60,
          "name": "C4",
          "ticks": 24780,
          "time": 56.3181255,
          "velocity": 0.6377952755905512
        },
        {
          "duration": 0.12954532499999516,
          "durationTicks": 57,
          "midi": 59,
          "name": "B3",
          "ticks": 24840,
          "time": 56.454489,
          "velocity": 0.6377952755905512
        },
        {
          "duration": 0.12954532500000226,
          "durationTicks": 57,
          "midi": 59,
          "name": "B3",
          "ticks": 24900,
          "time": 56.5908525,
          "velocity": 0.6377952755905512
        },
        {
          "duration": 0.12954532500000226,
          "durationTicks": 57,
          "midi": 60,
          "name": "C4",
          "ticks": 24960,
          "time": 56.727216,
          "velocity": 0.6377952755905512
        },
        {
          "duration": 0.12954532499999516,
          "durationTicks": 57,
          "midi": 59,
          "name": "B3",
          "ticks": 25020,
          "time": 56.8635795,
          "velocity": 0.6377952755905512
        },
        {
          "duration": 0.12954532499999516,
          "durationTicks": 57,
          "midi": 59,
          "name": "B3",
          "ticks": 25080,
          "time": 56.999943,
          "velocity": 0.6377952755905512
        },
        {
          "duration": 0.12954532500000226,
          "durationTicks": 57,
          "midi": 59,
          "name": "B3",
          "ticks": 25140,
          "time": 57.136306499999996,
          "velocity": 0.6377952755905512
        },
        {
          "duration": 0.12954532500000226,
          "durationTicks": 57,
          "midi": 58,
          "name": "A#3",
          "ticks": 25200,
          "time": 57.27267,
          "velocity": 0.6377952755905512
        },
        {
          "duration": 0.12954532499999516,
          "durationTicks": 57,
          "midi": 59,
          "name": "B3",
          "ticks": 25260,
          "time": 57.4090335,
          "velocity": 0.6377952755905512
        },
        {
          "duration": 0.12954532499999516,
          "durationTicks": 57,
          "midi": 59,
          "name": "B3",
          "ticks": 25320,
          "time": 57.545397,
          "velocity": 0.6377952755905512
        },
        {
          "duration": 0.12954532499999516,
          "durationTicks": 57,
          "midi": 59,
          "name": "B3",
          "ticks": 25380,
          "time": 57.6817605,
          "velocity": 0.6377952755905512
        },
        {
          "duration": 0.12954532499999516,
          "durationTicks": 57,
          "midi": 59,
          "name": "B3",
          "ticks": 26880,
          "time": 61.090848,
          "velocity": 0.6377952755905512
        },
        {
          "duration": 0.12954532500000226,
          "durationTicks": 57,
          "midi": 60,
          "name": "C4",
          "ticks": 27000,
          "time": 61.363575,
          "velocity": 0.6377952755905512
        },
        {
          "duration": 0.12954532500000226,
          "durationTicks": 57,
          "midi": 59,
          "name": "B3",
          "ticks": 27060,
          "time": 61.4999385,
          "velocity": 0.6377952755905512
        },
        {
          "duration": 0.12954532499999516,
          "durationTicks": 57,
          "midi": 59,
          "name": "B3",
          "ticks": 27120,
          "time": 61.636302,
          "velocity": 0.6377952755905512
        },
        {
          "duration": 0.12954532499999516,
          "durationTicks": 57,
          "midi": 60,
          "name": "C4",
          "ticks": 27180,
          "time": 61.7726655,
          "velocity": 0.6377952755905512
        },
        {
          "duration": 0.12954532500000226,
          "durationTicks": 57,
          "midi": 59,
          "name": "B3",
          "ticks": 27240,
          "time": 61.909029,
          "velocity": 0.6377952755905512
        },
        {
          "duration": 0.12954532500000226,
          "durationTicks": 57,
          "midi": 59,
          "name": "B3",
          "ticks": 27300,
          "time": 62.0453925,
          "velocity": 0.6377952755905512
        },
        {
          "duration": 0.12954532499999516,
          "durationTicks": 57,
          "midi": 60,
          "name": "C4",
          "ticks": 27360,
          "time": 62.181756,
          "velocity": 0.6377952755905512
        },
        {
          "duration": 0.12954532499999516,
          "durationTicks": 57,
          "midi": 59,
          "name": "B3",
          "ticks": 27420,
          "time": 62.3181195,
          "velocity": 0.6377952755905512
        },
        {
          "duration": 0.12954532500000226,
          "durationTicks": 57,
          "midi": 59,
          "name": "B3",
          "ticks": 27480,
          "time": 62.454482999999996,
          "velocity": 0.6377952755905512
        },
        {
          "duration": 0.12954532500000226,
          "durationTicks": 57,
          "midi": 59,
          "name": "B3",
          "ticks": 27540,
          "time": 62.5908465,
          "velocity": 0.6377952755905512
        },
        {
          "duration": 0.12954532499999516,
          "durationTicks": 57,
          "midi": 58,
          "name": "A#3",
          "ticks": 27600,
          "time": 62.72721,
          "velocity": 0.6377952755905512
        },
        {
          "duration": 0.12954532499999516,
          "durationTicks": 57,
          "midi": 59,
          "name": "B3",
          "ticks": 27660,
          "time": 62.8635735,
          "velocity": 0.6377952755905512
        },
        {
          "duration": 0.12954532499999516,
          "durationTicks": 57,
          "midi": 59,
          "name": "B3",
          "ticks": 27720,
          "time": 62.999937,
          "velocity": 0.6377952755905512
        },
        {
          "duration": 0.12954532500000226,
          "durationTicks": 57,
          "midi": 59,
          "name": "B3",
          "ticks": 27780,
          "time": 63.1363005,
          "velocity": 0.6377952755905512
        },
        {
          "duration": 0.12954532500000226,
          "durationTicks": 57,
          "midi": 59,
          "name": "B3",
          "ticks": 27840,
          "time": 63.272664,
          "velocity": 0.6377952755905512
        },
        {
          "duration": 0.12954532499999516,
          "durationTicks": 57,
          "midi": 60,
          "name": "C4",
          "ticks": 27960,
          "time": 63.545391,
          "velocity": 0.6377952755905512
        },
        {
          "duration": 0.12954532500000226,
          "durationTicks": 57,
          "midi": 59,
          "name": "B3",
          "ticks": 28020,
          "time": 63.6817545,
          "velocity": 0.6377952755905512
        },
        {
          "duration": 0.12954532500000226,
          "durationTicks": 57,
          "midi": 59,
          "name": "B3",
          "ticks": 28080,
          "time": 63.818118,
          "velocity": 0.6377952755905512
        },
        {
          "duration": 0.12954532499999516,
          "durationTicks": 57,
          "midi": 60,
          "name": "C4",
          "ticks": 28140,
          "time": 63.9544815,
          "velocity": 0.6377952755905512
        },
        {
          "duration": 0.12954532499999516,
          "durationTicks": 57,
          "midi": 59,
          "name": "B3",
          "ticks": 28200,
          "time": 64.090845,
          "velocity": 0.6377952755905512
        },
        {
          "duration": 0.12954532499999516,
          "durationTicks": 57,
          "midi": 59,
          "name": "B3",
          "ticks": 28260,
          "time": 64.2272085,
          "velocity": 0.6377952755905512
        },
        {
          "duration": 0.12954532499999516,
          "durationTicks": 57,
          "midi": 59,
          "name": "B3",
          "ticks": 29760,
          "time": 67.636296,
          "velocity": 0.6377952755905512
        },
        {
          "duration": 0.12954532499999516,
          "durationTicks": 57,
          "midi": 60,
          "name": "C4",
          "ticks": 29880,
          "time": 67.909023,
          "velocity": 0.6377952755905512
        },
        {
          "duration": 0.12954532500000937,
          "durationTicks": 57,
          "midi": 59,
          "name": "B3",
          "ticks": 29940,
          "time": 68.04538649999999,
          "velocity": 0.6377952755905512
        },
        {
          "duration": 0.12954532500000937,
          "durationTicks": 57,
          "midi": 59,
          "name": "B3",
          "ticks": 30000,
          "time": 68.18175,
          "velocity": 0.6377952755905512
        },
        {
          "duration": 0.12954532499999516,
          "durationTicks": 57,
          "midi": 60,
          "name": "C4",
          "ticks": 30060,
          "time": 68.3181135,
          "velocity": 0.6377952755905512
        },
        {
          "duration": 0.12954532499999516,
          "durationTicks": 57,
          "midi": 59,
          "name": "B3",
          "ticks": 30120,
          "time": 68.454477,
          "velocity": 0.6377952755905512
        },
        {
          "duration": 0.12954532499999516,
          "durationTicks": 57,
          "midi": 59,
          "name": "B3",
          "ticks": 30180,
          "time": 68.5908405,
          "velocity": 0.6377952755905512
        },
        {
          "duration": 0.12954532499999516,
          "durationTicks": 57,
          "midi": 60,
          "name": "C4",
          "ticks": 30240,
          "time": 68.727204,
          "velocity": 0.6377952755905512
        },
        {
          "duration": 0.12954532499999516,
          "durationTicks": 57,
          "midi": 59,
          "name": "B3",
          "ticks": 30300,
          "time": 68.8635675,
          "velocity": 0.6377952755905512
        },
        {
          "duration": 0.12954532499999516,
          "durationTicks": 57,
          "midi": 59,
          "name": "B3",
          "ticks": 30360,
          "time": 68.999931,
          "velocity": 0.6377952755905512
        },
        {
          "duration": 0.12954532499999516,
          "durationTicks": 57,
          "midi": 59,
          "name": "B3",
          "ticks": 30420,
          "time": 69.1362945,
          "velocity": 0.6377952755905512
        },
        {
          "duration": 0.12954532500000937,
          "durationTicks": 57,
          "midi": 58,
          "name": "A#3",
          "ticks": 30480,
          "time": 69.27265799999999,
          "velocity": 0.6377952755905512
        },
        {
          "duration": 0.12954532500000937,
          "durationTicks": 57,
          "midi": 59,
          "name": "B3",
          "ticks": 30540,
          "time": 69.4090215,
          "velocity": 0.6377952755905512
        },
        {
          "duration": 0.12954532499999516,
          "durationTicks": 57,
          "midi": 59,
          "name": "B3",
          "ticks": 30600,
          "time": 69.545385,
          "velocity": 0.6377952755905512
        },
        {
          "duration": 0.12954532499999516,
          "durationTicks": 57,
          "midi": 59,
          "name": "B3",
          "ticks": 30660,
          "time": 69.6817485,
          "velocity": 0.6377952755905512
        },
        {
          "duration": 0.12954532500000937,
          "durationTicks": 57,
          "midi": 59,
          "name": "B3",
          "ticks": 30720,
          "time": 69.818112,
          "velocity": 0.6377952755905512
        },
        {
          "duration": 0.12954532500000937,
          "durationTicks": 57,
          "midi": 60,
          "name": "C4",
          "ticks": 30840,
          "time": 70.090839,
          "velocity": 0.6377952755905512
        },
        {
          "duration": 0.12954532499999516,
          "durationTicks": 57,
          "midi": 59,
          "name": "B3",
          "ticks": 30900,
          "time": 70.2272025,
          "velocity": 0.6377952755905512
        },
        {
          "duration": 0.12954532499999516,
          "durationTicks": 57,
          "midi": 59,
          "name": "B3",
          "ticks": 30960,
          "time": 70.363566,
          "velocity": 0.6377952755905512
        },
        {
          "duration": 0.12954532500000937,
          "durationTicks": 57,
          "midi": 60,
          "name": "C4",
          "ticks": 31020,
          "time": 70.4999295,
          "velocity": 0.6377952755905512
        },
        {
          "duration": 0.12954532500000937,
          "durationTicks": 57,
          "midi": 59,
          "name": "B3",
          "ticks": 31080,
          "time": 70.636293,
          "velocity": 0.6377952755905512
        },
        {
          "duration": 0.12954532500000937,
          "durationTicks": 57,
          "midi": 59,
          "name": "B3",
          "ticks": 31140,
          "time": 70.7726565,
          "velocity": 0.6377952755905512
        },
        {
          "duration": 0.12954532500000937,
          "durationTicks": 57,
          "midi": 60,
          "name": "C4",
          "ticks": 31200,
          "time": 70.90902,
          "velocity": 0.6377952755905512
        },
        {
          "duration": 0.12954532500000937,
          "durationTicks": 57,
          "midi": 59,
          "name": "B3",
          "ticks": 31260,
          "time": 71.0453835,
          "velocity": 0.6377952755905512
        },
        {
          "duration": 0.12954532500000937,
          "durationTicks": 57,
          "midi": 59,
          "name": "B3",
          "ticks": 31320,
          "time": 71.181747,
          "velocity": 0.6377952755905512
        },
        {
          "duration": 0.12954532500000937,
          "durationTicks": 57,
          "midi": 59,
          "name": "B3",
          "ticks": 31380,
          "time": 71.3181105,
          "velocity": 0.6377952755905512
        },
        {
          "duration": 0.12954532499999516,
          "durationTicks": 57,
          "midi": 58,
          "name": "A#3",
          "ticks": 31440,
          "time": 71.454474,
          "velocity": 0.6377952755905512
        },
        {
          "duration": 0.12954532499999516,
          "durationTicks": 57,
          "midi": 59,
          "name": "B3",
          "ticks": 31500,
          "time": 71.5908375,
          "velocity": 0.6377952755905512
        },
        {
          "duration": 0.12954532500000937,
          "durationTicks": 57,
          "midi": 59,
          "name": "B3",
          "ticks": 31560,
          "time": 71.727201,
          "velocity": 0.6377952755905512
        },
        {
          "duration": 0.12954532500000937,
          "durationTicks": 57,
          "midi": 59,
          "name": "B3",
          "ticks": 31620,
          "time": 71.8635645,
          "velocity": 0.6377952755905512
        },
        {
          "duration": 0.12954532500000937,
          "durationTicks": 57,
          "midi": 59,
          "name": "B3",
          "ticks": 33600,
          "time": 76.36355999999999,
          "velocity": 0.6377952755905512
        },
        {
          "duration": 0.12954532500000937,
          "durationTicks": 57,
          "midi": 60,
          "name": "C4",
          "ticks": 33720,
          "time": 76.636287,
          "velocity": 0.6377952755905512
        },
        {
          "duration": 0.12954532500000937,
          "durationTicks": 57,
          "midi": 59,
          "name": "B3",
          "ticks": 33780,
          "time": 76.7726505,
          "velocity": 0.6377952755905512
        },
        {
          "duration": 0.12954532500000937,
          "durationTicks": 57,
          "midi": 59,
          "name": "B3",
          "ticks": 33840,
          "time": 76.909014,
          "velocity": 0.6377952755905512
        },
        {
          "duration": 0.12954532500000937,
          "durationTicks": 57,
          "midi": 60,
          "name": "C4",
          "ticks": 33900,
          "time": 77.0453775,
          "velocity": 0.6377952755905512
        },
        {
          "duration": 0.12954532500000937,
          "durationTicks": 57,
          "midi": 59,
          "name": "B3",
          "ticks": 33960,
          "time": 77.181741,
          "velocity": 0.6377952755905512
        },
        {
          "duration": 0.12954532499999516,
          "durationTicks": 57,
          "midi": 59,
          "name": "B3",
          "ticks": 34020,
          "time": 77.3181045,
          "velocity": 0.6377952755905512
        },
        {
          "duration": 0.12954532499999516,
          "durationTicks": 57,
          "midi": 60,
          "name": "C4",
          "ticks": 34080,
          "time": 77.454468,
          "velocity": 0.6377952755905512
        },
        {
          "duration": 0.12954532500000937,
          "durationTicks": 57,
          "midi": 59,
          "name": "B3",
          "ticks": 34140,
          "time": 77.5908315,
          "velocity": 0.6377952755905512
        },
        {
          "duration": 0.12954532500000937,
          "durationTicks": 57,
          "midi": 59,
          "name": "B3",
          "ticks": 34200,
          "time": 77.727195,
          "velocity": 0.6377952755905512
        },
        {
          "duration": 0.12954532500000937,
          "durationTicks": 57,
          "midi": 59,
          "name": "B3",
          "ticks": 34260,
          "time": 77.8635585,
          "velocity": 0.6377952755905512
        },
        {
          "duration": 0.12954532500000937,
          "durationTicks": 57,
          "midi": 58,
          "name": "A#3",
          "ticks": 34320,
          "time": 77.999922,
          "velocity": 0.6377952755905512
        },
        {
          "duration": 0.12954532500000937,
          "durationTicks": 57,
          "midi": 59,
          "name": "B3",
          "ticks": 34380,
          "time": 78.1362855,
          "velocity": 0.6377952755905512
        },
        {
          "duration": 0.12954532500000937,
          "durationTicks": 57,
          "midi": 59,
          "name": "B3",
          "ticks": 34440,
          "time": 78.272649,
          "velocity": 0.6377952755905512
        },
        {
          "duration": 0.12954532500000937,
          "durationTicks": 57,
          "midi": 59,
          "name": "B3",
          "ticks": 34500,
          "time": 78.4090125,
          "velocity": 0.6377952755905512
        }
      ]
    },
    {
      "channel": 14,
      "controlChanges": {
        "7": [
          {
            "number": 7,
            "ticks": 0,
            "time": 0,
            "value": 0.7874015748031497
          },
          {
            "number": 7,
            "ticks": 0,
            "time": 0,
            "value": 0.7874015748031497
          }
        ],
        "11": [
          {
            "number": 11,
            "ticks": 0,
            "time": 0,
            "value": 0.7874015748031497
          }
        ],
        "64": [
          {
            "number": 64,
            "ticks": 0,
            "time": 0,
            "value": 0
          }
        ],
        "91": [
          {
            "number": 91,
            "ticks": 0,
            "time": 0,
            "value": 0
          }
        ],
        "93": [
          {
            "number": 93,
            "ticks": 0,
            "time": 0,
            "value": 0
          }
        ]
      },
      "pitchBends": [],
      "instrument": {
        "family": "percussive",
        "number": 115,
        "name": "woodblock"
      },
      "name": "Woodblock",
      "notes": [
        {
          "duration": 0.06818175000000082,
          "durationTicks": 30,
          "midi": 102,
          "name": "F#7",
          "ticks": 5460,
          "time": 12.4090785,
          "velocity": 0.8976377952755905
        },
        {
          "duration": 0.13636349999999986,
          "durationTicks": 60,
          "midi": 108,
          "name": "C8",
          "ticks": 5520,
          "time": 12.545442,
          "velocity": 1
        },
        {
          "duration": 0.06818175000000082,
          "durationTicks": 30,
          "midi": 102,
          "name": "F#7",
          "ticks": 6420,
          "time": 14.5908945,
          "velocity": 0.8976377952755905
        },
        {
          "duration": 0.13636350000000164,
          "durationTicks": 60,
          "midi": 108,
          "name": "C8",
          "ticks": 6480,
          "time": 14.727257999999999,
          "velocity": 1
        },
        {
          "duration": 0.06818175000000082,
          "durationTicks": 30,
          "midi": 102,
          "name": "F#7",
          "ticks": 7380,
          "time": 16.7727105,
          "velocity": 0.8976377952755905
        },
        {
          "duration": 0.13636349999999808,
          "durationTicks": 60,
          "midi": 108,
          "name": "C8",
          "ticks": 7440,
          "time": 16.909074,
          "velocity": 1
        },
        {
          "duration": 0.06818175000000082,
          "durationTicks": 30,
          "midi": 102,
          "name": "F#7",
          "ticks": 8340,
          "time": 18.9545265,
          "velocity": 0.8976377952755905
        },
        {
          "duration": 0.13636350000000164,
          "durationTicks": 60,
          "midi": 108,
          "name": "C8",
          "ticks": 8400,
          "time": 19.090889999999998,
          "velocity": 1
        },
        {
          "duration": 0.06818174999999727,
          "durationTicks": 30,
          "midi": 102,
          "name": "F#7",
          "ticks": 9300,
          "time": 21.1363425,
          "velocity": 0.8976377952755905
        },
        {
          "duration": 0.13636350000000164,
          "durationTicks": 60,
          "midi": 108,
          "name": "C8",
          "ticks": 9360,
          "time": 21.272706,
          "velocity": 1
        },
        {
          "duration": 0.06818175000000082,
          "durationTicks": 30,
          "midi": 102,
          "name": "F#7",
          "ticks": 10260,
          "time": 23.3181585,
          "velocity": 0.8976377952755905
        },
        {
          "duration": 0.13636349999999808,
          "durationTicks": 60,
          "midi": 108,
          "name": "C8",
          "ticks": 10320,
          "time": 23.454522,
          "velocity": 1
        },
        {
          "duration": 0.06818175000000082,
          "durationTicks": 30,
          "midi": 102,
          "name": "F#7",
          "ticks": 11220,
          "time": 25.4999745,
          "velocity": 0.8976377952755905
        },
        {
          "duration": 0.13636350000000164,
          "durationTicks": 60,
          "midi": 108,
          "name": "C8",
          "ticks": 11280,
          "time": 25.636338,
          "velocity": 1
        },
        {
          "duration": 0.06818175000000082,
          "durationTicks": 30,
          "midi": 102,
          "name": "F#7",
          "ticks": 12180,
          "time": 27.681790499999998,
          "velocity": 0.8976377952755905
        },
        {
          "duration": 0.13636350000000164,
          "durationTicks": 60,
          "midi": 108,
          "name": "C8",
          "ticks": 12240,
          "time": 27.818154,
          "velocity": 1
        },
        {
          "duration": 0.06818175000000082,
          "durationTicks": 30,
          "midi": 102,
          "name": "F#7",
          "ticks": 26340,
          "time": 59.8635765,
          "velocity": 0.8976377952755905
        },
        {
          "duration": 0.13636349999999453,
          "durationTicks": 60,
          "midi": 108,
          "name": "C8",
          "ticks": 26400,
          "time": 59.99994,
          "velocity": 1
        },
        {
          "duration": 0.06818175000000082,
          "durationTicks": 30,
          "midi": 102,
          "name": "F#7",
          "ticks": 27300,
          "time": 62.0453925,
          "velocity": 0.8976377952755905
        },
        {
          "duration": 0.13636350000000164,
          "durationTicks": 60,
          "midi": 108,
          "name": "C8",
          "ticks": 27360,
          "time": 62.181756,
          "velocity": 1
        },
        {
          "duration": 0.06818174999999371,
          "durationTicks": 30,
          "midi": 102,
          "name": "F#7",
          "ticks": 28260,
          "time": 64.2272085,
          "velocity": 0.8976377952755905
        },
        {
          "duration": 0.13636349999998743,
          "durationTicks": 60,
          "midi": 108,
          "name": "C8",
          "ticks": 28320,
          "time": 64.363572,
          "velocity": 1
        },
        {
          "duration": 0.06818174999999371,
          "durationTicks": 30,
          "midi": 102,
          "name": "F#7",
          "ticks": 29220,
          "time": 66.4090245,
          "velocity": 0.8976377952755905
        },
        {
          "duration": 0.13636350000000164,
          "durationTicks": 60,
          "midi": 108,
          "name": "C8",
          "ticks": 29280,
          "time": 66.545388,
          "velocity": 1
        },
        {
          "duration": 0.06818174999999371,
          "durationTicks": 30,
          "midi": 102,
          "name": "F#7",
          "ticks": 30180,
          "time": 68.5908405,
          "velocity": 0.8976377952755905
        },
        {
          "duration": 0.13636350000000164,
          "durationTicks": 60,
          "midi": 108,
          "name": "C8",
          "ticks": 30240,
          "time": 68.727204,
          "velocity": 1
        },
        {
          "duration": 0.06818175000000792,
          "durationTicks": 30,
          "midi": 102,
          "name": "F#7",
          "ticks": 31140,
          "time": 70.7726565,
          "velocity": 0.8976377952755905
        },
        {
          "duration": 0.13636350000000164,
          "durationTicks": 60,
          "midi": 108,
          "name": "C8",
          "ticks": 31200,
          "time": 70.90902,
          "velocity": 1
        },
        {
          "duration": 0.06818175000000792,
          "durationTicks": 30,
          "midi": 102,
          "name": "F#7",
          "ticks": 32100,
          "time": 72.9544725,
          "velocity": 0.8976377952755905
        },
        {
          "duration": 0.13636350000000164,
          "durationTicks": 60,
          "midi": 108,
          "name": "C8",
          "ticks": 32160,
          "time": 73.090836,
          "velocity": 1
        },
        {
          "duration": 0.06818174999999371,
          "durationTicks": 30,
          "midi": 102,
          "name": "F#7",
          "ticks": 33060,
          "time": 75.1362885,
          "velocity": 0.8976377952755905
        },
        {
          "duration": 0.13636350000000164,
          "durationTicks": 60,
          "midi": 108,
          "name": "C8",
          "ticks": 33120,
          "time": 75.272652,
          "velocity": 1
        }
      ],
      "endOfTrackTicks": 33180
    },
    {
      "channel": 1,
      "controlChanges": {
        "7": [
          {
            "number": 7,
            "ticks": 0,
            "time": 0,
            "value": 0.7874015748031497
          },
          {
            "number": 7,
            "ticks": 24960,
            "time": 56.727216,
            "value": 0.7874015748031497
          }
        ],
        "11": [
          {
            "number": 11,
            "ticks": 0,
            "time": 0,
            "value": 0.7874015748031497
          },
          {
            "number": 11,
            "ticks": 24960,
            "time": 56.727216,
            "value": 0.7874015748031497
          }
        ],
        "64": [
          {
            "number": 64,
            "ticks": 0,
            "time": 0,
            "value": 0
          },
          {
            "number": 64,
            "ticks": 24960,
            "time": 56.727216,
            "value": 0
          }
        ],
        "91": [
          {
            "number": 91,
            "ticks": 0,
            "time": 0,
            "value": 0
          },
          {
            "number": 91,
            "ticks": 24960,
            "time": 56.727216,
            "value": 0.7874015748031497
          }
        ],
        "93": [
          {
            "number": 93,
            "ticks": 0,
            "time": 0,
            "value": 0.47244094488188976
          },
          {
            "number": 93,
            "ticks": 24960,
            "time": 56.727216,
            "value": 0.7874015748031497
          }
        ]
      },
      "pitchBends": [],
      "instrument": {
        "family": "chromatic percussion",
        "number": 10,
        "name": "music box"
      },
      "name": "Music Box",
      "notes": [
        {
          "duration": 0.2659088250000039,
          "durationTicks": 117,
          "midi": 78,
          "name": "F#5",
          "ticks": 25440,
          "time": 57.818124,
          "velocity": 0.9133858267716536
        },
        {
          "duration": 0.12954532499999516,
          "durationTicks": 57,
          "midi": 79,
          "name": "G5",
          "ticks": 25560,
          "time": 58.090851,
          "velocity": 0.9133858267716536
        },
        {
          "duration": 0.12954532499999516,
          "durationTicks": 57,
          "midi": 78,
          "name": "F#5",
          "ticks": 25620,
          "time": 58.2272145,
          "velocity": 0.9133858267716536
        },
        {
          "duration": 0.5386358250000001,
          "durationTicks": 237,
          "midi": 85,
          "name": "C#6",
          "ticks": 25680,
          "time": 58.363578,
          "velocity": 0.9133858267716536
        },
        {
          "duration": 0.2659088250000039,
          "durationTicks": 117,
          "midi": 90,
          "name": "F#6",
          "ticks": 25920,
          "time": 58.909031999999996,
          "velocity": 0.9133858267716536
        },
        {
          "duration": 0.12954532499999516,
          "durationTicks": 57,
          "midi": 91,
          "name": "G6",
          "ticks": 26040,
          "time": 59.181759,
          "velocity": 0.9133858267716536
        },
        {
          "duration": 0.12954532499999516,
          "durationTicks": 57,
          "midi": 90,
          "name": "F#6",
          "ticks": 26100,
          "time": 59.3181225,
          "velocity": 0.9133858267716536
        },
        {
          "duration": 0.538635824999993,
          "durationTicks": 237,
          "midi": 85,
          "name": "C#6",
          "ticks": 26160,
          "time": 59.454486,
          "velocity": 0.9133858267716536
        },
        {
          "duration": 0.2659088249999968,
          "durationTicks": 117,
          "midi": 78,
          "name": "F#5",
          "ticks": 26400,
          "time": 59.99994,
          "velocity": 0.9133858267716536
        },
        {
          "duration": 0.12954532500000226,
          "durationTicks": 57,
          "midi": 79,
          "name": "G5",
          "ticks": 26520,
          "time": 60.272667,
          "velocity": 0.9133858267716536
        },
        {
          "duration": 0.12954532499999516,
          "durationTicks": 57,
          "midi": 78,
          "name": "F#5",
          "ticks": 26580,
          "time": 60.4090305,
          "velocity": 0.9133858267716536
        },
        {
          "duration": 0.2659088249999968,
          "durationTicks": 117,
          "midi": 85,
          "name": "C#6",
          "ticks": 26640,
          "time": 60.545394,
          "velocity": 0.9133858267716536
        },
        {
          "duration": 0.2659088249999968,
          "durationTicks": 117,
          "midi": 90,
          "name": "F#6",
          "ticks": 26760,
          "time": 60.818121,
          "velocity": 0.9133858267716536
        },
        {
          "duration": 2.1749978249999984,
          "durationTicks": 957,
          "midi": 88,
          "name": "E6",
          "ticks": 26880,
          "time": 61.090848,
          "velocity": 0.9133858267716536
        },
        {
          "duration": 0.2659088249999968,
          "durationTicks": 117,
          "midi": 78,
          "name": "F#5",
          "ticks": 28320,
          "time": 64.363572,
          "velocity": 0.9133858267716536
        },
        {
          "duration": 0.12954532500000937,
          "durationTicks": 57,
          "midi": 79,
          "name": "G5",
          "ticks": 28440,
          "time": 64.636299,
          "velocity": 0.9133858267716536
        },
        {
          "duration": 0.12954532499999516,
          "durationTicks": 57,
          "midi": 78,
          "name": "F#5",
          "ticks": 28500,
          "time": 64.7726625,
          "velocity": 0.9133858267716536
        },
        {
          "duration": 0.5386358250000001,
          "durationTicks": 237,
          "midi": 85,
          "name": "C#6",
          "ticks": 28560,
          "time": 64.909026,
          "velocity": 0.9133858267716536
        },
        {
          "duration": 0.2659088249999968,
          "durationTicks": 117,
          "midi": 90,
          "name": "F#6",
          "ticks": 28800,
          "time": 65.45448,
          "velocity": 0.9133858267716536
        },
        {
          "duration": 0.12954532500000937,
          "durationTicks": 57,
          "midi": 91,
          "name": "G6",
          "ticks": 28920,
          "time": 65.72720699999999,
          "velocity": 0.9133858267716536
        },
        {
          "duration": 0.12954532500000937,
          "durationTicks": 57,
          "midi": 90,
          "name": "F#6",
          "ticks": 28980,
          "time": 65.8635705,
          "velocity": 0.9133858267716536
        },
        {
          "duration": 0.5386358250000001,
          "durationTicks": 237,
          "midi": 85,
          "name": "C#6",
          "ticks": 29040,
          "time": 65.999934,
          "velocity": 0.9133858267716536
        },
        {
          "duration": 0.2659088249999968,
          "durationTicks": 117,
          "midi": 78,
          "name": "F#5",
          "ticks": 29280,
          "time": 66.545388,
          "velocity": 0.9133858267716536
        },
        {
          "duration": 0.12954532499999516,
          "durationTicks": 57,
          "midi": 79,
          "name": "G5",
          "ticks": 29400,
          "time": 66.818115,
          "velocity": 0.9133858267716536
        },
        {
          "duration": 0.12954532500000937,
          "durationTicks": 57,
          "midi": 78,
          "name": "F#5",
          "ticks": 29460,
          "time": 66.9544785,
          "velocity": 0.9133858267716536
        },
        {
          "duration": 0.12954532500000937,
          "durationTicks": 57,
          "midi": 85,
          "name": "C#6",
          "ticks": 29520,
          "time": 67.090842,
          "velocity": 0.9133858267716536
        },
        {
          "duration": 0.2659088249999968,
          "durationTicks": 117,
          "midi": 90,
          "name": "F#6",
          "ticks": 29640,
          "time": 67.363569,
          "velocity": 0.9133858267716536
        },
        {
          "duration": 2.1749978249999913,
          "durationTicks": 957,
          "midi": 91,
          "name": "G6",
          "ticks": 29760,
          "time": 67.636296,
          "velocity": 0.9133858267716536
        }
      ],
      "endOfTrackTicks": 30717
    },
    {
      "channel": 0,
      "controlChanges": {},
      "pitchBends": [
        {
          "ticks": 21601,
          "time": 49.093132725,
          "value": 0
        },
        {
          "ticks": 21620,
          "time": 49.1363145,
          "value": 0.125
        },
        {
          "ticks": 21640,
          "time": 49.181769,
          "value": 0.25
        },
        {
          "ticks": 21660,
          "time": 49.2272235,
          "value": 0.375
        },
        {
          "ticks": 21679,
          "time": 49.270405275,
          "value": 0.5
        },
        {
          "ticks": 21681,
          "time": 49.274950725000004,
          "value": 0
        },
        {
          "ticks": 21700,
          "time": 49.318132500000004,
          "value": 0.125
        },
        {
          "ticks": 21720,
          "time": 49.363587,
          "value": 0.25
        },
        {
          "ticks": 21740,
          "time": 49.409041499999994,
          "value": 0.375
        },
        {
          "ticks": 21759,
          "time": 49.452223274999994,
          "value": 0.5
        },
        {
          "ticks": 21761,
          "time": 49.456768725,
          "value": 0
        },
        {
          "ticks": 21780,
          "time": 49.4999505,
          "value": 0.125
        },
        {
          "ticks": 21800,
          "time": 49.545404999999995,
          "value": 0.25
        },
        {
          "ticks": 21820,
          "time": 49.5908595,
          "value": 0.375
        },
        {
          "ticks": 21839,
          "time": 49.634041275,
          "value": 0.5
        },
        {
          "ticks": 21841,
          "time": 49.638586724999996,
          "value": 0
        },
        {
          "ticks": 21860,
          "time": 49.6817685,
          "value": 0.125
        },
        {
          "ticks": 21880,
          "time": 49.727223,
          "value": 0.25
        },
        {
          "ticks": 21900,
          "time": 49.7726775,
          "value": 0.375
        },
        {
          "ticks": 21919,
          "time": 49.815859275,
          "value": 0.5
        },
        {
          "ticks": 21921,
          "time": 49.820404725,
          "value": 0
        },
        {
          "ticks": 21940,
          "time": 49.863586500000004,
          "value": 0.125
        },
        {
          "ticks": 21960,
          "time": 49.909041,
          "value": 0.25
        },
        {
          "ticks": 21980,
          "time": 49.9544955,
          "value": 0.375
        },
        {
          "ticks": 21999,
          "time": 49.997677274999994,
          "value": 0.5
        },
        {
          "ticks": 22001,
          "time": 50.002222725,
          "value": 0
        },
        {
          "ticks": 22020,
          "time": 50.0454045,
          "value": 0.125
        },
        {
          "ticks": 22040,
          "time": 50.090858999999995,
          "value": 0.25
        },
        {
          "ticks": 22060,
          "time": 50.1363135,
          "value": 0.375
        },
        {
          "ticks": 22079,
          "time": 50.179495275,
          "value": 0.5
        }
      ],
      "instrument": {
        "family": "piano",
        "number": 0,
        "name": "acoustic grand piano"
      },
      "name": "*",
      "notes": [],
      "endOfTrackTicks": 22079
    },
    {
      "channel": 0,
      "controlChanges": {},
      "pitchBends": [],
      "instrument": {
        "family": "piano",
        "number": 0,
        "name": "acoustic grand piano"
      },
      "name": "*",
      "notes": [],
      "endOfTrackTicks": 0
    },
    {
      "channel": 0,
      "controlChanges": {},
      "pitchBends": [],
      "instrument": {
        "family": "piano",
        "number": 0,
        "name": "acoustic grand piano"
      },
      "name": "Theme from",
      "notes": [],
      "endOfTrackTicks": 0
    },
    {
      "channel": 0,
      "controlChanges": {},
      "pitchBends": [],
      "instrument": {
        "family": "piano",
        "number": 0,
        "name": "acoustic grand piano"
      },
      "name": "KNIGHT RIDER",
      "notes": [],
      "endOfTrackTicks": 0
    },
    {
      "channel": 0,
      "controlChanges": {},
      "pitchBends": [],
      "instrument": {
        "family": "piano",
        "number": 0,
        "name": "acoustic grand piano"
      },
      "name": "*",
      "notes": [],
      "endOfTrackTicks": 0
    },
    {
      "channel": 0,
      "controlChanges": {},
      "pitchBends": [],
      "instrument": {
        "family": "piano",
        "number": 0,
        "name": "acoustic grand piano"
      },
      "name": "Composed by",
      "notes": [],
      "endOfTrackTicks": 0
    },
    {
      "channel": 0,
      "controlChanges": {},
      "pitchBends": [],
      "instrument": {
        "family": "piano",
        "number": 0,
        "name": "acoustic grand piano"
      },
      "name": "Stu Phillips and",
      "notes": [],
      "endOfTrackTicks": 0
    },
    {
      "channel": 0,
      "controlChanges": {},
      "pitchBends": [],
      "instrument": {
        "family": "piano",
        "number": 0,
        "name": "acoustic grand piano"
      },
      "name": "Glen A. Larson",
      "notes": [],
      "endOfTrackTicks": 0
    },
    {
      "channel": 0,
      "controlChanges": {},
      "pitchBends": [],
      "instrument": {
        "family": "piano",
        "number": 0,
        "name": "acoustic grand piano"
      },
      "name": "*",
      "notes": [],
      "endOfTrackTicks": 0
    },
    {
      "channel": 0,
      "controlChanges": {},
      "pitchBends": [],
      "instrument": {
        "family": "piano",
        "number": 0,
        "name": "acoustic grand piano"
      },
      "name": "Sequenced by",
      "notes": [],
      "endOfTrackTicks": 0
    },
    {
      "channel": 0,
      "controlChanges": {},
      "pitchBends": [],
      "instrument": {
        "family": "piano",
        "number": 0,
        "name": "acoustic grand piano"
      },
      "name": "Neil Strawbridge",
      "notes": [],
      "endOfTrackTicks": 0
    },
    {
      "channel": 0,
      "controlChanges": {},
      "pitchBends": [],
      "instrument": {
        "family": "piano",
        "number": 0,
        "name": "acoustic grand piano"
      },
      "name": "10 June 2000",
      "notes": [],
      "endOfTrackTicks": 0
    },
    {
      "channel": 0,
      "controlChanges": {},
      "pitchBends": [],
      "instrument": {
        "family": "piano",
        "number": 0,
        "name": "acoustic grand piano"
      },
      "name": "neil.strawbridge@tvsgreatesthits.com",
      "notes": [],
      "endOfTrackTicks": 0
    }
  ]
}
